<svg xmlns="http://www.w3.org/2000/svg" xmlns:xlink="http://www.w3.org/1999/xlink" width="105" height="100" viewBox="0 0 105 100">
  <defs>
    <clipPath id="clip-path">
      <rect id="Rect치ngulo_6401" data-name="Rect치ngulo 6401" width="85" height="85" rx="5" transform="translate(305 4113)" fill="#9f0925"/>
    </clipPath>
  </defs>
  <g id="Grupo_57364" data-name="Grupo 57364" transform="translate(-285 -4098)">
    <rect id="Rect치ngulo_6400" data-name="Rect치ngulo 6400" width="85" height="85" rx="5" transform="translate(285 4098)" fill="#ff8a5b"/>
    <g id="Enmascarar_grupo_50" data-name="Enmascarar grupo 50" clip-path="url(#clip-path)">
      <g id="patron-de-tela" transform="translate(305 4113)">
        <path id="Trazado_109078" data-name="Trazado 109078" d="M71.527,53.922H23.048a2.657,2.657,0,0,1-2.657-2.657v-18.5H74.184v18.5a2.657,2.657,0,0,1-2.657,2.657Z" fill="#0a81f9"/>
        <path id="Trazado_109079" data-name="Trazado 109079" d="M25.124,11.475c-5.286,0-9.572,5.7-9.572,12.734s4.285,12.734,9.572,12.734h49.06V11.475Z" fill="#62b4fd"/>
        <path id="Trazado_109080" data-name="Trazado 109080" d="M59.288,11.475a29.318,29.318,0,0,0-2.811,12.734v.05a4.808,4.808,0,0,1-4.8,4.838h-34.4a7.3,7.3,0,0,1-1.015-.072c1.428,4.644,4.856,7.918,8.861,7.918h49.06V11.475Z" fill="#27a2fb"/>
        <ellipse id="Elipse_4519" data-name="Elipse 4519" cx="9.572" cy="12.734" rx="9.572" ry="12.734" transform="translate(64.612 11.475)" fill="#89c6fc"/>
        <path id="Trazado_109081" data-name="Trazado 109081" d="M57.219,73.525H8.74a2.657,2.657,0,0,1-2.657-2.657v-18.5H59.876v18.5a2.657,2.657,0,0,1-2.657,2.657Z" fill="#fa4954"/>
        <path id="Trazado_109082" data-name="Trazado 109082" d="M52.59,52.366V63.583a2.656,2.656,0,0,1-2.656,2.656H6.083v4.63a2.656,2.656,0,0,0,2.656,2.656H57.22a2.656,2.656,0,0,0,2.656-2.656v-18.5Z" fill="#fa2a3b"/>
        <path id="Trazado_109083" data-name="Trazado 109083" d="M10.816,31.078c-5.286,0-9.572,5.7-9.572,12.734S5.53,56.547,10.816,56.547h49.06V31.078Z" fill="#fa989e"/>
        <path id="Trazado_109084" data-name="Trazado 109084" d="M44.98,31.078a29.318,29.318,0,0,0-2.811,12.734v.05a4.808,4.808,0,0,1-4.8,4.838H2.971a7.3,7.3,0,0,1-1.015-.072c1.428,4.644,4.856,7.918,8.861,7.918h49.06V31.078Z" fill="#fb636f"/>
        <ellipse id="Elipse_4520" data-name="Elipse 4520" cx="9.572" cy="12.734" rx="9.572" ry="12.734" transform="translate(50.304 31.078)" fill="#ffc3c6"/>
        <path id="Trazado_109085" data-name="Trazado 109085" d="M76.994,12.034a15.817,15.817,0,0,1,1.569,6.982c0,7.033-4.285,12.734-9.572,12.734a7.405,7.405,0,0,1-2.81-.559c1.711,3.463,4.655,5.752,8,5.752,5.286,0,9.572-5.7,9.572-12.734,0-5.732-2.847-10.578-6.761-12.176Z" fill="#62b4fd"/>
        <ellipse id="Elipse_4521" data-name="Elipse 4521" cx="5.389" cy="7.17" rx="5.389" ry="7.17" transform="translate(68.794 17.039)" fill="#62b4fd"/>
        <path id="Trazado_109086" data-name="Trazado 109086" d="M78.532,19.975c-.283,5.046-2.774,9.273-6.194,10.972a4.206,4.206,0,0,0,1.845.431c2.976,0,5.389-3.21,5.389-7.17a8.807,8.807,0,0,0-1.041-4.234Z" fill="#0a81f9"/>
        <path id="Trazado_109087" data-name="Trazado 109087" d="M62.686,31.637a15.817,15.817,0,0,1,1.569,6.982c0,7.033-4.285,12.734-9.572,12.734a7.405,7.405,0,0,1-2.81-.559c1.711,3.463,4.655,5.752,8,5.752,5.286,0,9.572-5.7,9.572-12.734,0-5.732-2.847-10.578-6.761-12.175Z" fill="#fa989e"/>
        <ellipse id="Elipse_4522" data-name="Elipse 4522" cx="5.389" cy="7.17" rx="5.389" ry="7.17" transform="translate(54.486 36.642)" fill="#fa989e"/>
        <path id="Trazado_109088" data-name="Trazado 109088" d="M64.225,39.579c-.283,5.046-2.774,9.273-6.194,10.972a4.206,4.206,0,0,0,1.845.431c2.976,0,5.389-3.21,5.389-7.17a8.808,8.808,0,0,0-1.041-4.234Z" fill="#fb636f"/>
        <path id="Trazado_109089" data-name="Trazado 109089" d="M81.947,14.457a9.723,9.723,0,0,0-7.763-4.227H25.124a9.723,9.723,0,0,0-7.763,4.227,16.272,16.272,0,0,0-3.053,9.752,17.6,17.6,0,0,0,.907,5.624h-4.4A9.723,9.723,0,0,0,3.053,34.06,16.273,16.273,0,0,0,0,43.812a16.272,16.272,0,0,0,3.053,9.752,12.077,12.077,0,0,0,1.785,1.914v15.39a3.905,3.905,0,0,0,3.9,3.9H57.22a3.905,3.905,0,0,0,3.9-3.9V70a1.245,1.245,0,0,0-2.489,0v.87A1.413,1.413,0,0,1,57.22,72.28H8.739a1.413,1.413,0,0,1-1.411-1.412V57.054a8.692,8.692,0,0,0,3.489.737H58.631V64.7a1.245,1.245,0,0,0,2.489,0v-7a9.424,9.424,0,0,0,5.08-2.531h5.327a3.905,3.905,0,0,0,3.9-3.9V38.095a10.021,10.021,0,0,0,6.518-4.133A16.273,16.273,0,0,0,85,24.209a16.276,16.276,0,0,0-3.053-9.752ZM59.876,55.3H10.816c-4.591,0-8.327-5.154-8.327-11.49s3.735-11.49,8.327-11.49H22.7a1.245,1.245,0,1,0,0-2.489H17.87A14.87,14.87,0,0,1,16.8,24.209c0-6.335,3.735-11.49,8.327-11.49H68a12.2,12.2,0,0,0-1.583,1.738,16.272,16.272,0,0,0-3.053,9.752,17.14,17.14,0,0,0,1.542,7.215,8.9,8.9,0,0,0-5.034-1.591H27.928a1.245,1.245,0,1,0,0,2.489H53.7a12.2,12.2,0,0,0-1.583,1.737,16.272,16.272,0,0,0-3.053,9.752,16.782,16.782,0,0,0,2.091,8.281,1.245,1.245,0,0,0,2.165-1.229,14.293,14.293,0,0,1-1.766-7.052c0-6.335,3.736-11.49,8.327-11.49S68.2,37.477,68.2,43.812,64.467,55.3,59.876,55.3Zm11.652-2.625H68.249a16.6,16.6,0,0,0,2.443-8.865A17.141,17.141,0,0,0,69.149,36.6a9.053,9.053,0,0,0,3.79,1.5V51.266a1.413,1.413,0,0,1-1.411,1.412ZM74.184,35.7c-4.591,0-8.327-5.154-8.327-11.49s3.736-11.49,8.327-11.49,8.327,5.154,8.327,11.49S78.775,35.7,74.184,35.7Z"/>
        <path id="Trazado_109090" data-name="Trazado 109090" d="M74.184,15.795c-3.658,0-6.634,3.775-6.634,8.415s2.976,8.415,6.634,8.415,6.634-3.775,6.634-8.415-2.976-8.415-6.634-8.415Zm0,14.34c-2.247,0-4.145-2.714-4.145-5.925s1.9-5.926,4.145-5.926S78.329,21,78.329,24.209,76.43,30.135,74.184,30.135Z"/>
        <path id="Trazado_109091" data-name="Trazado 109091" d="M74.184,22.267c-.807,0-1.46.87-1.46,1.943s.654,1.943,1.46,1.943,1.46-.87,1.46-1.943S74.99,22.267,74.184,22.267Z"/>
        <path id="Trazado_109092" data-name="Trazado 109092" d="M59.876,35.4c-3.658,0-6.634,3.775-6.634,8.415s2.976,8.415,6.634,8.415,6.634-3.775,6.634-8.415S63.534,35.4,59.876,35.4Zm0,14.34c-2.247,0-4.145-2.714-4.145-5.926s1.9-5.925,4.145-5.925S64.02,40.6,64.02,43.812,62.122,49.738,59.876,49.738Z"/>
        <path id="Trazado_109093" data-name="Trazado 109093" d="M59.876,41.87c-.807,0-1.46.87-1.46,1.943s.654,1.943,1.46,1.943,1.46-.87,1.46-1.943S60.682,41.87,59.876,41.87Z"/>
      </g>
    </g>
  </g>
</svg>
