<svg xmlns="http://www.w3.org/2000/svg" width="190" height="190" viewBox="0 0 190 190">
  <g id="Grupo_1052441" data-name="Grupo 1052441" transform="translate(-249.763 -8613.764)">
    <circle id="Elipse_4052" data-name="Elipse 4052" cx="95" cy="95" r="95" transform="translate(249.763 8613.764)" fill="#ff8a5b"/>
    <path id="Trazado_105703" data-name="Trazado 105703" d="M401.8,166.6l-.077.089h0Z" transform="translate(-56.956 8542.163)" fill="#00c8c8"/>
    <g id="camisa" transform="translate(297.47 8656.741)">
      <path id="Trazado_735897" data-name="Trazado 735897" d="M114.3,7.492h48.177L155.856,21.13l-17.471-3.705L123.841,21.13Zm0,0" transform="translate(-91.047 -5.962)" fill="#d4d4d4"/>
      <path id="Trazado_735898" data-name="Trazado 735898" d="M53.805,56.109H18.864A10.864,10.864,0,0,0,8,66.974v69.88A10.866,10.866,0,0,0,18.864,147.72H53.805l7.135-45.805Zm0,0" transform="translate(-6.468 -44.646)" fill="#5dc8eb"/>
      <path id="Trazado_735899" data-name="Trazado 735899" d="M278.005,66.974v69.88a10.866,10.866,0,0,1-10.864,10.867H232.2V56.109h34.942A10.864,10.864,0,0,1,278.005,66.974Zm0,0" transform="translate(-184.862 -44.646)" fill="#94d9fd"/>
      <path id="Trazado_735900" data-name="Trazado 735900" d="M256.288,7.492,232.2,17.424a20.862,20.862,0,0,1,8.359,11.191,3.27,3.27,0,0,0,4.843,1.961l21.74-13.151S263.7,8.233,256.288,7.492Zm0,0" transform="translate(-184.862 -5.962)" fill="#efedee"/>
      <path id="Trazado_735901" data-name="Trazado 735901" d="M72.032,7.492c-7.412.741-10.852,9.932-10.852,9.932l21.74,13.151a3.27,3.27,0,0,0,4.843-1.961,20.862,20.862,0,0,1,8.359-11.191Zm0,0" transform="translate(-48.782 -5.962)" fill="#efedee"/>
      <path id="Trazado_735902" data-name="Trazado 735902" d="M317.538,207.977l-10.784,4.29v11.973a4.194,4.194,0,0,0,2.46,3.819l6.593,2.99a4.183,4.183,0,0,0,3.464,0l6.593-2.99a4.194,4.194,0,0,0,2.46-3.819V212.266Zm0,0" transform="translate(-244.184 -165.486)" fill="#5dc8eb"/>
      <path id="Trazado_735903" data-name="Trazado 735903" d="M328.323,191.174v4.386H306.754v-4.386a4.193,4.193,0,0,1,4.192-4.193H324.13A4.194,4.194,0,0,1,328.323,191.174Zm0,0" transform="translate(-244.184 -148.779)" fill="#efedee"/>
      <path id="Trazado_735904" data-name="Trazado 735904" d="M259.737,166.632a2.429,2.429,0,1,1-2.428-2.429A2.429,2.429,0,0,1,259.737,166.632Zm0,0" transform="translate(-202.908 -130.656)"/>
      <path id="Trazado_735905" data-name="Trazado 735905" d="M259.737,252.125a2.429,2.429,0,1,1-2.428-2.429A2.428,2.428,0,0,1,259.737,252.125Zm0,0" transform="translate(-202.908 -198.681)"/>
      <path id="Trazado_735906" data-name="Trazado 735906" d="M259.737,337.613a2.429,2.429,0,1,1-2.428-2.429A2.429,2.429,0,0,1,259.737,337.613Zm0,0" transform="translate(-202.908 -266.703)"/>
      <path id="Trazado_735907" data-name="Trazado 735907" d="M259.737,423.105a2.429,2.429,0,1,1-2.428-2.429A2.428,2.428,0,0,1,259.737,423.105Zm0,0" transform="translate(-202.908 -334.729)"/>
      <path id="Trazado_735908" data-name="Trazado 735908" d="M304.978,179.477a5.731,5.731,0,0,0-5.724,5.725v16.36a5.736,5.736,0,0,0,3.359,5.213l6.593,2.99a5.765,5.765,0,0,0,4.729,0l6.592-2.99a5.736,5.736,0,0,0,3.36-5.213V185.2a5.731,5.731,0,0,0-5.725-5.725Zm15.845,22.084a2.664,2.664,0,0,1-1.561,2.421l-6.592,2.99a2.672,2.672,0,0,1-2.2,0l-6.592-2.99a2.664,2.664,0,0,1-1.561-2.421V191.119h18.5Zm0-16.36v2.853h-18.5V185.2a2.663,2.663,0,0,1,2.659-2.66h13.185A2.663,2.663,0,0,1,320.823,185.2Zm0,0" transform="translate(-238.216 -142.808)"/>
      <path id="Trazado_735909" data-name="Trazado 735909" d="M93.644,79.134A1.533,1.533,0,0,0,95.176,77.6V22.326A12.411,12.411,0,0,0,83.809,9.976a23.481,23.481,0,0,0-2.448-4.12C78.758,2.374,75.549.351,72.079,0h-.006C72.025,0,23.652,0,23.6,0H23.6c-3.47.347-6.679,2.37-9.281,5.851a23.532,23.532,0,0,0-2.448,4.12A12.411,12.411,0,0,0,.5,22.326V30.2a1.532,1.532,0,0,0,3.065,0V22.326A9.345,9.345,0,0,1,12.486,13l21.36,12.923a4.833,4.833,0,0,0,5.96-.832,9.294,9.294,0,0,0,1.579-3.35,18.875,18.875,0,0,1,4.919-7.124v86.92H12.9a9.344,9.344,0,0,1-9.332-9.334V36.33a1.532,1.532,0,1,0-3.065,0V92.207a12.412,12.412,0,0,0,12.4,12.4H82.78a12.412,12.412,0,0,0,12.4-12.4V83.731a1.532,1.532,0,1,0-3.065,0v8.476a9.344,9.344,0,0,1-9.332,9.334H49.371V14.621l.095.089A17.946,17.946,0,0,1,54.439,22.2c.547,1.722,1.245,3.24,3,4.01l.014.006a4.828,4.828,0,0,0,4.365-.287l.011-.006L83.19,13a9.344,9.344,0,0,1,8.922,9.323V77.6A1.532,1.532,0,0,0,93.644,79.134ZM40,17.556a19.609,19.609,0,0,0-2,4.689A1.763,1.763,0,0,1,35.43,23.3L14.846,10.849c1.1-2.245,3.982-7.055,8.691-7.75l21.245,8.76A23.23,23.23,0,0,0,40,17.556ZM47.839,9.8,31.486,3.061h32.7ZM60.245,23.3a1.774,1.774,0,0,1-2.571-1.058,20.316,20.316,0,0,0-3.579-7.016,23.87,23.87,0,0,0-3.2-3.37L72.139,3.1c4.689.694,7.58,5.507,8.688,7.752Zm0,0" transform="translate(-0.5 -0.001)"/>
    </g>
  </g>
</svg>
