<svg xmlns="http://www.w3.org/2000/svg" width="178" height="199.814" viewBox="0 0 178 199.814">
  <g id="Grupo_58472" data-name="Grupo 58472" transform="translate(-1430.96 -237.636)">
    <rect id="Rectángulo_5680" data-name="Rectángulo 5680" width="16.552" height="101.547" transform="translate(1433.197 333.806)" fill="#ffca1a"/>
    <path id="Trazado_102293" data-name="Trazado 102293" d="M1443.858,331.38v22.435a.586.586,0,0,0,.585.586h46.391a.586.586,0,0,0,.256-1.113L1444.7,330.853A.586.586,0,0,0,1443.858,331.38Z" transform="matrix(1, 0.017, -0.017, 1, 16.164, 55.389)" fill="#d5d4d4"/>
    <path id="Trazado_102294" data-name="Trazado 102294" d="M1481.531,346.356V415.9h5.908V385.768h59.583v29.2h6.707V346.234c.327-3.3.755-7.052,1.263-11.141.078-.59.155-1.186.237-1.791l10.755-70.3h-5.977l-2.691,16.532-10.261,66.686h-.033v.139h-65.491Zm5.908,12.129h59.583v18.191h-59.583V358.485Z" transform="translate(42.976 21.555)" fill="#ffca1a"/>
    <path id="Trazado_102295" data-name="Trazado 102295" d="M1580.109,266.158a6.553,6.553,0,0,1,1.791-1.972c2.512-1.661,10.338-5.9,6.472-17.717-3.753-11.474-12.813-8.912-17.517-7.743-1.5.374-7.048.873-8.839,2.691-1.709,1.737.067,4.848,1.574,5.958-.69,1.049-1.428,2.164-1.769,2.693a2.134,2.134,0,0,0-.322,2.233c.1.209,1.13,2.164,1.135,2.186a12.007,12.007,0,0,1-2.638,2.786,19.252,19.252,0,0,0-1.931,1.6c-.512.488,1.139,1.785,1.572,2.1a2.718,2.718,0,0,1,1.073,1.628c.148.7-1.8.807.352,2.05-.348.314-.988.718-.328,1.343,1.064,1.01.832,2.562.616,3.572-.326,1.522,2.447,1.337,5.988,1.339.187,0,.385-.022.579-.041a23.686,23.686,0,0,1-.188,2.753c-.254,1.633-.734,3.75-1.13,5.368h0l-1.252,2.455h0c-.99,1.644-2.793,4.772-4.749,8.805-2.845,3.648-6.411,10.786-8.367,14.91l-.048-.037-1.576,2.481.355.283c-.107.237-.183.4-.183.4s-31.687,6.994-35.021,9.7c-3.836,3.111-8.685,8.42-6.278,9.645,2.876,1.465,8.174,3.335,10.616,1.054s1.487-5.346,4.456-5.853c6.944-1.188,24.156-1.567,28.058-1.981-.638,6.711-.989,13.163-1.145,16.461h0l-2.138,2v0c-4.667.734-28.219,4.467-38.054,6.448a23.278,23.278,0,0,0-7.183,2.436c-.005-.072-.017-.137-.022-.209-2.15,1.324-3.844,3.729-5.775,7.031-7.551,12.908-31.955,47.975-32.712,49.062a61.462,61.462,0,0,1-15.1-1.857c-3.237-.734-5.892,4.449-5.892,4.449l31.946,16.883a11.406,11.406,0,0,0,2.284-4.323c.378-1.119.781-2.667,1.145-4.2l.472.357s16.721-20.4,21.456-27.127c3.074-4.367,10.1-15.537,13.5-21.4.116.118.185.185.185.185s30.087,1.119,39.32,1.55c8.2.383,19.754-.52,21.619-6.974,1.206-4.171,1.121-11.45.91-16.091h0s.187-1.384.338-2.56l.065-.006s.046-.575.131-1.57v0h0c.461-5.4,2.079-23.171,3.871-29.371,3.357-11.615,3.587-19.255,3-23.165-.455-3.017-2.9-8.722-3.994-11.178l-.479-1.626-.119.05c-.19-1.221-.383-2.651-.446-3.849-.107-2.009-.057-4.349.043-6.447C1580,266.027,1580.109,266.158,1580.109,266.158Z" transform="translate(11.583 0)" fill="#104c8b"/>
    <rect id="Rectángulo_5681" data-name="Rectángulo 5681" width="8.276" height="126.598" transform="translate(1557.558 325.53) rotate(90)" fill="#ea526f"/>
    <rect id="Rectángulo_5682" data-name="Rectángulo 5682" width="23.551" height="33.923" rx="0.771" transform="translate(1510.289 291.607)" fill="#d5d4d4"/>
  </g>
</svg>
