<svg xmlns="http://www.w3.org/2000/svg" width="175.916" height="287.904" viewBox="0 0 175.916 287.904">
  <g id="Grupo_58473" data-name="Grupo 58473" transform="translate(-1339.76 -239.637)">
    <path id="Trazado_102296" data-name="Trazado 102296" d="M1402.244,321.515l28.561-28.477c1.014,14.5-2.981,28.375-5.509,42.418-.7,3.909-1.713,7.782.337,11.363,7.594,13.252,6.344,27.292,3.622,41.266-1.914,9.832-1.68,20.087,1.713,29.511,2.307,6.4,1.238,10.355-7.017,10.559-9.749.238-19.468,1.539-29.217,2.119-2.63.157-5.476.563-8.91-1.517a1.433,1.433,0,0,1,.522-2.633c9.957-1.68,16.1-7.7,22.389-13.67,3.619-3.44,4.55-6.744,4.393-11.868-.685-22.582-6.735-44.283-9.915-66.436C1402.612,329.977,1402.554,325.728,1402.244,321.515Z" transform="translate(79.991 94.127)" fill="#18496d"/>
    <path id="Trazado_102297" data-name="Trazado 102297" d="M1455.625,452.436V434.783h-65.641L1436.729,316.4V289.329h18.9v-7.083H1339.76v170.19Z" transform="translate(0 75.105)" fill="#ffca1a"/>
    <rect id="Rectángulo_5683" data-name="Rectángulo 5683" width="74.094" height="8.83" transform="translate(1339.76 348.521)" fill="#ea526f"/>
    <path id="Trazado_102298" data-name="Trazado 102298" d="M1487.805,370.153s-2.735-5.221-4.724-6.962-3.978-7.956-2.983-14.421c.945-6.147-.166-30.29-16.952-58.516h.122c-.329-.5-.7-.989-1.036-1.489-.588-.967-1.146-1.926-1.776-2.9l-1.431.776c-.776-1.464-1.688-3.274-2.3-4.81-.964-2.409-1.876-5.285-2.627-7.887.282.188.467.3.467.3a8.444,8.444,0,0,1,1.365-3.152c2.376-3.072,10.164-11.5.531-24.314-9.354-12.443-19.347-5.547-24.6-2.163-1.68,1.08-8.238,3.995-9.666,6.959-1.362,2.829,2.094,5.9,4.392,6.636-.4,1.564-.837,3.221-1.033,4.006a2.754,2.754,0,0,0,.539,2.859c.21.213,2.279,2.169,2.3,2.2a15.5,15.5,0,0,1-2.061,4.495,24.863,24.863,0,0,0-1.691,2.763c-.422.809,2.133,1.7,2.8,1.912a3.526,3.526,0,0,1,1.986,1.542c.469.79-1.859,1.732,1.282,2.354-.3.528-.909,1.287.157,1.776,1.718.79,2.083,2.782,2.238,4.1.238,1.995,3.542.616,7.865-.856.227-.077.461-.188.69-.29a30.333,30.333,0,0,1,.912,3.437c.348,1.967.627,4.534.821,6.611l-.823.445s-9.448,26.356-9.946,45.5c0,0,3.978,1.74-13.178,1.492s-34.809.025-34.809.025-6.962-4.749-19.394-1.019-10.94,11.437-8.454,11.189,8.7-7.21,14.172-4.724,13.676-.995,17.405,0,23.372,9.7,34.809,9.7,16.41-4.227,19.145-6.962,2.237,1.243,4.724,5.47,14.172,14.67,12.432,16.659-34.312,42.517-35.058,47.49-2.238,1.989-2.238,17.156-1.547,51.22-1.547,51.22.055,1.989-7.155,8.205-10.194,8.454-16.908,8.7-8.454,4.227-4.227,4.227h35.555s4.226.249,3.48-7.21-2.486-9.2.249-16.41,13.675-30.583,8.7-53.209c0,0-.995-2.486,1.74-4.973s33.317-28.345,36.8-31.08S1491.534,388.055,1487.805,370.153Z" transform="translate(26.997 0)" fill="#104c8b"/>
  </g>
</svg>
