<svg xmlns="http://www.w3.org/2000/svg" width="117.928" height="193" viewBox="0 0 117.928 193">
  <g id="Grupo_58473" data-name="Grupo 58473" transform="translate(-1339.76 -239.637)">
    <path id="Trazado_102296" data-name="Trazado 102296" d="M1396.607,312.128l19.146-19.09c.68,9.723-2,19.022-3.693,28.435-.472,2.621-1.148,5.217.226,7.617,5.091,8.884,4.252,18.3,2.428,27.663a37.361,37.361,0,0,0,1.148,19.783c1.546,4.291.83,6.941-4.7,7.078-6.535.159-13.051,1.031-19.586,1.42-1.763.105-3.671.378-5.973-1.017a.96.96,0,0,1,.35-1.765c6.675-1.126,10.793-5.16,15.008-9.164,2.426-2.306,3.05-4.521,2.945-7.956-.459-15.138-4.515-29.685-6.647-44.536C1396.853,317.8,1396.814,314.952,1396.607,312.128Z" transform="translate(38.663 45.496)" fill="#18496d"/>
    <path id="Trazado_102297" data-name="Trazado 102297" d="M1417.432,396.335V384.5h-44l31.335-79.358V286.994h12.667v-4.748H1339.76V396.335Z" transform="translate(0 36.302)" fill="#ffca1a"/>
    <rect id="Rectángulo_5683" data-name="Rectángulo 5683" width="49.67" height="5.919" transform="translate(1339.76 312.629)" fill="#ea526f"/>
    <path id="Trazado_102298" data-name="Trazado 102298" d="M1444.052,327.13a22.518,22.518,0,0,0-3.167-4.667c-1.334-1.167-2.667-5.334-2-9.667.633-4.121-.111-20.305-11.364-39.227h.082c-.22-.335-.467-.663-.695-1-.394-.648-.768-1.291-1.191-1.945l-.959.52c-.521-.982-1.132-2.195-1.545-3.224-.646-1.615-1.258-3.543-1.761-5.287.189.126.313.2.313.2a5.662,5.662,0,0,1,.915-2.113c1.593-2.059,6.814-7.708.356-16.3-6.271-8.341-12.969-3.719-16.492-1.45-1.126.724-5.523,2.678-6.48,4.665-.913,1.9,1.4,3.956,2.944,4.448-.27,1.048-.561,2.159-.693,2.685a1.847,1.847,0,0,0,.361,1.917c.141.143,1.528,1.454,1.539,1.472a10.387,10.387,0,0,1-1.382,3.013,16.651,16.651,0,0,0-1.133,1.852c-.283.543,1.43,1.143,1.875,1.282a2.364,2.364,0,0,1,1.331,1.033c.315.53-1.246,1.161.859,1.578-.2.354-.609.863.106,1.191a3.2,3.2,0,0,1,1.5,2.75c.159,1.337,2.374.413,5.273-.574.152-.052.309-.126.463-.194a20.361,20.361,0,0,1,.611,2.3c.234,1.319.421,3.039.55,4.432l-.552.3s-6.334,17.668-6.667,30.5c0,0,2.667,1.167-8.834,1s-23.335.017-23.335.017-4.667-3.184-13-.683-7.334,7.667-5.667,7.5,5.834-4.834,9.5-3.167,9.167-.667,11.668,0,15.667,6.5,23.335,6.5,11-2.833,12.834-4.667,1.5.833,3.167,3.667,9.5,9.834,8.334,11.167-23,28.5-23.5,31.835-1.5,1.333-1.5,11.5-1.037,34.336-1.037,34.336.037,1.333-4.8,5.5-6.834,5.667-11.334,5.834-5.667,2.833-2.833,2.833h23.835s2.833.167,2.333-4.834-1.667-6.167.167-11,9.167-20.5,5.834-35.669a3.1,3.1,0,0,1,1.167-3.334c1.833-1.667,22.335-19,24.668-20.835S1446.552,339.13,1444.052,327.13Z" transform="translate(13.049 0)" fill="#104c8b"/>
  </g>
</svg>
