<svg xmlns="http://www.w3.org/2000/svg" width="265" height="313" viewBox="0 0 265 313">
  <g id="Grupo_1052105" data-name="Grupo 1052105" transform="translate(-396 -3530)">
    <rect id="Rectángulo_5677" data-name="Rectángulo 5677" width="265" height="313" transform="translate(396 3530)" fill="#fff"/>
    <g id="Grupo_58472" data-name="Grupo 58472" transform="translate(421.262 3565.356)">
      <rect id="Rectángulo_5680" data-name="Rectángulo 5680" width="19.91" height="122.152" transform="translate(2.691 115.684)" fill="#ffca1a"/>
      <path id="Trazado_102293" data-name="Trazado 102293" d="M0,.706V27.693a.7.7,0,0,0,.7.705h55.8a.7.7,0,0,0,.308-1.338L1.012.071A.705.705,0,0,0,0,.706Z" transform="matrix(1, 0.017, -0.017, 1, 27.749, 208.94)" fill="#d5d4d4"/>
      <path id="Trazado_102294" data-name="Trazado 102294" d="M1481.531,363.27v83.65h7.107V410.679h71.673v35.129h8.068V363.123c.394-3.972.908-8.482,1.52-13.4.093-.71.187-1.426.285-2.154L1583.121,263h-7.19l-3.238,19.886L1560.35,363.1h-.04v.167h-78.78Zm7.107,14.59h71.673v21.882h-71.673V377.86Z" transform="translate(-1369.002 -206.561)" fill="#ffca1a"/>
      <path id="Trazado_102295" data-name="Trazado 102295" d="M1607.607,271.946a7.882,7.882,0,0,1,2.154-2.372c3.022-2,12.436-7.1,7.786-21.313-4.515-13.8-15.413-10.721-21.072-9.314-1.809.449-8.478,1.05-10.632,3.238-2.056,2.089.08,5.832,1.894,7.167-.83,1.262-1.718,2.6-2.127,3.24a2.567,2.567,0,0,0-.387,2.686c.122.251,1.359,2.6,1.366,2.63a14.443,14.443,0,0,1-3.173,3.351,23.182,23.182,0,0,0-2.323,1.929c-.616.587,1.371,2.147,1.891,2.53a3.27,3.27,0,0,1,1.291,1.958c.178.839-2.163.97.423,2.465-.419.378-1.189.863-.394,1.615,1.279,1.215,1,3.082.741,4.3-.392,1.831,2.944,1.609,7.2,1.611.224,0,.463-.027.7-.049a28.484,28.484,0,0,1-.227,3.311c-.305,1.965-.884,4.51-1.36,6.457h0l-1.506,2.953h0c-1.19,1.978-3.36,5.741-5.712,10.592-3.422,4.388-7.712,12.975-10.064,17.935l-.058-.045-1.9,2.984.427.34c-.129.285-.22.483-.22.483s-38.117,8.413-42.127,11.664c-4.615,3.743-10.447,10.129-7.552,11.6,3.46,1.762,9.833,4.012,12.77,1.268s1.789-6.431,5.36-7.04c8.353-1.429,29.058-1.885,33.751-2.383-.767,8.073-1.19,15.834-1.377,19.8h0l-2.572,2.41v0c-5.614.883-33.945,5.374-45.776,7.757a28,28,0,0,0-8.641,2.93c-.006-.087-.02-.165-.027-.251-2.586,1.593-4.624,4.486-6.947,8.458-9.083,15.527-38.439,57.709-39.35,59.018-2.434.078-8.5-.038-18.164-2.234-3.894-.883-7.087,5.351-7.087,5.351l38.428,20.309a13.721,13.721,0,0,0,2.748-5.2c.454-1.346.939-3.209,1.377-5.047l.568.429s20.113-24.541,25.81-32.632c3.7-5.254,12.147-18.689,16.244-25.738.14.142.222.223.222.223s36.192,1.346,47.3,1.865c9.864.461,23.762-.625,26.005-8.389,1.451-5.018,1.348-13.774,1.094-19.357h0s.224-1.664.407-3.08l.078-.007s.055-.692.158-1.889v0h0c.554-6.493,2.5-27.872,4.657-35.331,4.039-13.972,4.315-23.162,3.605-27.866-.548-3.629-3.487-10.492-4.8-13.447l-.576-1.956-.143.06c-.229-1.469-.46-3.189-.536-4.631-.129-2.417-.069-5.231.051-7.755C1607.476,271.788,1607.607,271.946,1607.607,271.946Z" transform="translate(-1414.261 -237.636)" fill="#104c8b"/>
      <rect id="Rectángulo_5681" data-name="Rectángulo 5681" width="9.955" height="152.286" transform="translate(152.286 105.729) rotate(90)" fill="#ea526f"/>
      <rect id="Rectángulo_5682" data-name="Rectángulo 5682" width="28.33" height="40.807" rx="0.771" transform="translate(95.425 64.922)" fill="#d5d4d4"/>
    </g>
  </g>
</svg>
