<svg xmlns="http://www.w3.org/2000/svg" width="200.928" height="161.106" viewBox="0 0 200.928 161.106">
  <g id="Grupo_58498" data-name="Grupo 58498" transform="translate(-1271.576 -438.854)">
    <g id="Grupo_58481" data-name="Grupo 58481" transform="translate(11)">
      <g id="Grupo_58480" data-name="Grupo 58480">
        <g id="Grupo_58479" data-name="Grupo 58479">
          <g id="Grupo_58478" data-name="Grupo 58478">
            <g id="Grupo_58474" data-name="Grupo 58474">
              <path id="Trazado_102299" data-name="Trazado 102299" d="M1432.078,511.623l.149,22.545a1.1,1.1,0,0,0,1.106,1.091l27.073-.179a1.1,1.1,0,0,0,1.091-1.106l-.149-22.545a1.1,1.1,0,0,0-1.106-1.091l-27.073.179A1.1,1.1,0,0,0,1432.078,511.623Zm18.559,3.5-7.721.051a1.4,1.4,0,0,1-.019-2.807l7.721-.051a1.4,1.4,0,1,1,.019,2.807Z" fill="#af703c"/>
            </g>
            <g id="Grupo_58475" data-name="Grupo 58475">
              <path id="Trazado_102300" data-name="Trazado 102300" d="M1461.383,516.706l-.042-6.375-29.27.193.042,6.375Z" fill="#c48145"/>
            </g>
            <rect id="Rectángulo_5684" data-name="Rectángulo 5684" width="29.27" height="5.967" transform="translate(1432.116 517.383) rotate(-0.378)" fill="#c48145"/>
            <rect id="Rectángulo_5685" data-name="Rectángulo 5685" width="29.27" height="5.25" transform="translate(1432.159 523.834) rotate(-0.379)" fill="#c48145"/>
            <rect id="Rectángulo_5686" data-name="Rectángulo 5686" width="29.27" height="5.699" rx="1.098" transform="translate(1432.197 529.567) rotate(-0.378)" fill="#c48145"/>
            <g id="Grupo_58476" data-name="Grupo 58476">
              <path id="Trazado_102301" data-name="Trazado 102301" d="M1461.137,534.009a.37.37,0,1,1-.373-.368A.37.37,0,0,1,1461.137,534.009Zm-.383-2.011a.37.37,0,1,0,.372.367A.37.37,0,0,0,1460.754,532Zm-.011-1.644a.37.37,0,1,0,.372.368A.37.37,0,0,0,1460.743,530.354Zm-.011-1.643a.37.37,0,1,0,.372.367A.37.37,0,0,0,1460.732,528.711Zm-.011-1.644a.37.37,0,1,0,.372.367A.369.369,0,0,0,1460.721,527.067Zm-.011-1.644a.37.37,0,1,0,.372.368A.37.37,0,0,0,1460.71,525.423Zm-.011-1.643a.369.369,0,1,0,.372.367A.37.37,0,0,0,1460.7,523.78Zm-.011-1.644a.37.37,0,1,0,.373.368A.37.37,0,0,0,1460.688,522.136Zm-.01-1.643a.37.37,0,1,0,.372.367A.37.37,0,0,0,1460.678,520.493Zm-.011-1.644a.37.37,0,1,0,.372.367A.37.37,0,0,0,1460.667,518.849Zm-.011-1.644a.37.37,0,1,0,.372.368A.371.371,0,0,0,1460.656,517.205Zm-.011-1.643a.37.37,0,1,0,.372.367A.369.369,0,0,0,1460.645,515.562Zm-.011-1.644a.37.37,0,1,0,.372.368A.37.37,0,0,0,1460.634,513.918Zm-.011-1.643a.369.369,0,1,0,.372.367A.369.369,0,0,0,1460.623,512.275Zm-.011-1.644a.37.37,0,1,0,.373.367A.37.37,0,0,0,1460.612,510.631Z" fill="#663b1b"/>
            </g>
            <g id="Grupo_58477" data-name="Grupo 58477">
              <path id="Trazado_102302" data-name="Trazado 102302" d="M1433.238,534.193a.37.37,0,1,1-.372-.367A.37.37,0,0,1,1433.238,534.193Zm-.383-2.011a.37.37,0,1,0,.372.367A.369.369,0,0,0,1432.855,532.182Zm-.011-1.644a.37.37,0,1,0,.372.368A.37.37,0,0,0,1432.844,530.538Zm-.011-1.643a.369.369,0,1,0,.372.367A.369.369,0,0,0,1432.833,528.9Zm-.011-1.644a.37.37,0,1,0,.373.368A.37.37,0,0,0,1432.822,527.251Zm-.011-1.643a.37.37,0,1,0,.373.367A.37.37,0,0,0,1432.811,525.608Zm-.01-1.644a.37.37,0,1,0,.372.367A.37.37,0,0,0,1432.8,523.964Zm-.011-1.644a.37.37,0,1,0,.372.368A.371.371,0,0,0,1432.79,522.32Zm-.011-1.643a.37.37,0,1,0,.372.367A.369.369,0,0,0,1432.779,520.677Zm-.011-1.644a.37.37,0,1,0,.372.368A.37.37,0,0,0,1432.768,519.033Zm-.011-1.643a.37.37,0,1,0,.372.367A.369.369,0,0,0,1432.757,517.39Zm-.011-1.644a.37.37,0,1,0,.373.367A.37.37,0,0,0,1432.746,515.746Zm-.011-1.644a.37.37,0,1,0,.373.368A.37.37,0,0,0,1432.735,514.1Zm-.01-1.643a.37.37,0,1,0,.372.367A.37.37,0,0,0,1432.725,512.459Zm-.011-1.644a.37.37,0,1,0,.372.368A.371.371,0,0,0,1432.714,510.815Z" fill="#663b1b"/>
            </g>
          </g>
          <path id="Trazado_102303" data-name="Trazado 102303" d="M1447.855,534.968c-.149-.583-.365-1.375-.6-2.365a.667.667,0,0,0,.2-.261c1.791-3.847-1.659-6.711-2.715-7.471-1.135-6.719-6.772-20.8-7.054-21.709a5.768,5.768,0,0,0-.8-1.609c-.454-3.436-1.412-8.038-2.476-12.6,1.169-4.82,2.183-10.785.87-14.219l0,.031c-1.042-3.928-3.794-7.964-9.554-11.794l-4.4-1.676a95.017,95.017,0,0,0-2.651,11.037c-1.049,6.818.229,12.17-.909,25.088a75.648,75.648,0,0,1-1.761,8.51l-.028.085h0l-1.324,3.971c-.459,3.171.522,6.931,1.951,10.745l7.625,29.43a13.033,13.033,0,0,0-1.15,4.442l.674,36.318-.084-.018s-3.146,5.27-2.762,7.233a1.536,1.536,0,0,0,1.416,1.416h18.827c0-1.161-1.3-2.134-6.807-2.89-1.7-.234-4-3.621-6.077-4.766l-.108-.024,3.207-35.655a22.76,22.76,0,0,0,.381-3.043,4.079,4.079,0,0,0,.442-1.635l-.087-39.164.165-2.019h.068l-.282-4.543s.048-1.928.119-4.068c.242.468.479.907.713,1.327.007.332.031.694.075,1.089.546,4.917,5.063,16.968,8.577,21.984a20.36,20.36,0,0,0,.2,6.091c.677,3.623,2.14,4.228,5.263,4.105C1449.025,536.258,1450.1,534.937,1447.855,534.968Z" fill="#104c8b"/>
        </g>
      </g>
    </g>
    <g id="Grupo_58489" data-name="Grupo 58489">
      <g id="Grupo_58488" data-name="Grupo 58488">
        <g id="Grupo_58487" data-name="Grupo 58487">
          <g id="Grupo_58486" data-name="Grupo 58486">
            <g id="Grupo_58482" data-name="Grupo 58482">
              <path id="Trazado_102304" data-name="Trazado 102304" d="M1299.239,559.03v22.545a1.1,1.1,0,0,0,1.1,1.1h27.074a1.1,1.1,0,0,0,1.1-1.1V559.03a1.1,1.1,0,0,0-1.1-1.1h-27.074A1.1,1.1,0,0,0,1299.239,559.03Zm18.535,3.619h-7.721a1.4,1.4,0,0,1,0-2.808h7.721a1.4,1.4,0,0,1,0,2.808Z" fill="#af703c"/>
            </g>
            <g id="Grupo_58483" data-name="Grupo 58483">
              <path id="Trazado_102305" data-name="Trazado 102305" d="M1328.509,564.306v-6.375h-29.27v6.375Z" fill="#c48145"/>
            </g>
            <rect id="Rectángulo_5687" data-name="Rectángulo 5687" width="29.271" height="5.967" transform="translate(1299.239 564.79)" fill="#c48145"/>
            <rect id="Rectángulo_5688" data-name="Rectángulo 5688" width="29.271" height="5.25" transform="translate(1299.239 571.241)" fill="#c48145"/>
            <rect id="Rectángulo_5689" data-name="Rectángulo 5689" width="29.271" height="5.699" rx="1.098" transform="translate(1299.239 576.975)" fill="#c48145"/>
            <g id="Grupo_58484" data-name="Grupo 58484">
              <path id="Trazado_102306" data-name="Trazado 102306" d="M1328.149,581.607a.37.37,0,1,1-.37-.37A.37.37,0,0,1,1328.149,581.607Zm-.37-2.014a.37.37,0,1,0,.37.37A.37.37,0,0,0,1327.779,579.593Zm0-1.643a.37.37,0,1,0,.37.37A.37.37,0,0,0,1327.779,577.95Zm0-1.644a.37.37,0,1,0,.37.37A.37.37,0,0,0,1327.779,576.306Zm0-1.643a.369.369,0,1,0,.37.369A.369.369,0,0,0,1327.779,574.663Zm0-1.644a.37.37,0,1,0,.37.37A.37.37,0,0,0,1327.779,573.019Zm0-1.644a.37.37,0,1,0,.37.37A.37.37,0,0,0,1327.779,571.375Zm0-1.643a.37.37,0,1,0,.37.37A.37.37,0,0,0,1327.779,569.732Zm0-1.644a.37.37,0,1,0,.37.37A.37.37,0,0,0,1327.779,568.088Zm0-1.644a.37.37,0,1,0,.37.37A.37.37,0,0,0,1327.779,566.444Zm0-1.643a.369.369,0,1,0,.37.37A.37.37,0,0,0,1327.779,564.8Zm0-1.644a.37.37,0,1,0,.37.37A.37.37,0,0,0,1327.779,563.157Zm0-1.643a.37.37,0,1,0,.37.369A.37.37,0,0,0,1327.779,561.514Zm0-1.644a.37.37,0,1,0,.37.37A.37.37,0,0,0,1327.779,559.87Zm0-1.644a.37.37,0,1,0,.37.37A.37.37,0,0,0,1327.779,558.226Z" fill="#663b1b"/>
            </g>
            <g id="Grupo_58485" data-name="Grupo 58485">
              <path id="Trazado_102307" data-name="Trazado 102307" d="M1300.25,581.607a.37.37,0,1,1-.37-.37A.37.37,0,0,1,1300.25,581.607Zm-.37-2.014a.37.37,0,1,0,.37.37A.37.37,0,0,0,1299.88,579.593Zm0-1.643a.37.37,0,1,0,.37.37A.37.37,0,0,0,1299.88,577.95Zm0-1.644a.37.37,0,1,0,.37.37A.37.37,0,0,0,1299.88,576.306Zm0-1.643a.369.369,0,1,0,.37.369A.37.37,0,0,0,1299.88,574.663Zm0-1.644a.37.37,0,1,0,.37.37A.37.37,0,0,0,1299.88,573.019Zm0-1.644a.37.37,0,1,0,.37.37A.37.37,0,0,0,1299.88,571.375Zm0-1.643a.37.37,0,1,0,.37.37A.37.37,0,0,0,1299.88,569.732Zm0-1.644a.37.37,0,1,0,.37.37A.37.37,0,0,0,1299.88,568.088Zm0-1.644a.37.37,0,1,0,.37.37A.37.37,0,0,0,1299.88,566.444Zm0-1.643a.369.369,0,1,0,.37.37A.37.37,0,0,0,1299.88,564.8Zm0-1.644a.37.37,0,1,0,.37.37A.37.37,0,0,0,1299.88,563.157Zm0-1.643a.37.37,0,1,0,.37.369A.37.37,0,0,0,1299.88,561.514Zm0-1.644a.37.37,0,1,0,.37.37A.37.37,0,0,0,1299.88,559.87Zm0-1.644a.37.37,0,1,0,.37.37A.37.37,0,0,0,1299.88,558.226Z" fill="#663b1b"/>
            </g>
          </g>
          <path id="Trazado_102308" data-name="Trazado 102308" d="M1312.147,597.07c-1.657-.228-3.88-3.437-5.911-4.665l4.81-15.256a20.548,20.548,0,0,0-.053,2.624c.18,3.635,1.556,4.26,4.688,4.18,2.034-.053,3.287-1.36,1.043-1.36-.078-.66-.2-1.583-.311-2.762,2.162-3.332-.491-6.62-1.391-7.579.082-2.06.027-4.635-.106-7.377l1.2-3.82a17.7,17.7,0,0,0,1.066-5.258,3.523,3.523,0,0,0-1.557-3.711l-1.777-1.032c-.335-3.445-.613-5.933-.632-6.265a5.776,5.776,0,0,0-.249-1.373c.25-5,.186-11.6.03-17.481.258-.09.519-.178.767-.277q.017-.726.029-1.441c0-.138.005-.266.007-.357h0c.04-2.356.053-4.589.052-6.509.982-3.38.987-7.613-.632-13.017l-2.314-4.1a95.155,95.155,0,0,0-9.09,6.8c-5.162,4.576-6.625,9.893-15.752,19.105-1.959,1.977-5.322,3.385-7.442,4.828l-.384-.151-3.09,3.073.008,0c-4.658,4.365-6.46,14.775,5.248,17.2l0,0,27.785,6.521c-.038.144-.078.286-.112.434l-6.456,33.294-.155-.033s-3.147,5.269-2.762,7.233a1.535,1.535,0,0,0,1.416,1.416h18.827C1318.954,598.8,1317.657,597.826,1312.147,597.07ZM1291.726,538.2c-.082-.041-.169-.071-.253-.108l.974-1.714s2.987-2.272,3.738-2.851c1.154-.891,5.165-2.749,9.159-5.8a145.567,145.567,0,0,0,3.012,17.259,27.543,27.543,0,0,0-.11,2.816Z" fill="#104c8b"/>
        </g>
      </g>
    </g>
    <g id="Grupo_58497" data-name="Grupo 58497">
      <g id="Grupo_58496" data-name="Grupo 58496">
        <g id="Grupo_58495" data-name="Grupo 58495">
          <g id="Grupo_58494" data-name="Grupo 58494">
            <g id="Grupo_58490" data-name="Grupo 58490">
              <path id="Trazado_102309" data-name="Trazado 102309" d="M1369.989,528.625l7.423,21.288a1.1,1.1,0,0,0,1.4.675l25.564-8.914a1.1,1.1,0,0,0,.676-1.4l-7.424-21.288a1.1,1.1,0,0,0-1.4-.676l-25.564,8.915A1.1,1.1,0,0,0,1369.989,528.625Zm18.693-2.686-7.29,2.542a1.4,1.4,0,1,1-.925-2.651l7.291-2.542a1.4,1.4,0,0,1,.924,2.651Z" fill="#af703c"/>
            </g>
            <g id="Grupo_58491" data-name="Grupo 58491">
              <path id="Trazado_102310" data-name="Trazado 102310" d="M1399.365,523.969l-2.1-6.019-27.638,9.638,2.1,6.019Z" fill="#c48145"/>
            </g>
            <rect id="Rectángulo_5690" data-name="Rectángulo 5690" width="29.27" height="5.967" transform="translate(1371.886 534.064) rotate(-19.224)" fill="#c48145"/>
            <rect id="Rectángulo_5691" data-name="Rectángulo 5691" width="29.27" height="5.25" transform="translate(1374.01 540.155) rotate(-19.224)" fill="#c48145"/>
            <rect id="Rectángulo_5692" data-name="Rectángulo 5692" width="29.27" height="5.699" rx="1.098" transform="matrix(0.944, -0.329, 0.329, 0.944, 1375.898, 545.569)" fill="#c48145"/>
            <g id="Grupo_58492" data-name="Grupo 58492">
              <path id="Trazado_102311" data-name="Trazado 102311" d="M1404.721,540.424a.37.37,0,1,1-.471-.228A.37.37,0,0,1,1404.721,540.424Zm-1.012-1.78a.37.37,0,1,0,.471.228A.37.37,0,0,0,1403.709,538.644Zm-.542-1.552a.37.37,0,1,0,.471.228A.371.371,0,0,0,1403.167,537.092Zm-.541-1.552a.37.37,0,1,0,.471.228A.37.37,0,0,0,1402.626,535.54Zm-.541-1.552a.37.37,0,1,0,.471.228A.37.37,0,0,0,1402.085,533.988Zm-.541-1.552a.37.37,0,1,0,.471.228A.371.371,0,0,0,1401.544,532.436Zm-.541-1.552a.37.37,0,1,0,.471.228A.371.371,0,0,0,1401,530.884Zm-.541-1.551a.37.37,0,1,0,.47.227A.369.369,0,0,0,1400.462,529.333Zm-.542-1.552a.37.37,0,1,0,.471.227A.37.37,0,0,0,1399.92,527.781Zm-.541-1.552a.37.37,0,1,0,.471.227A.369.369,0,0,0,1399.379,526.229Zm-.541-1.552a.37.37,0,1,0,.471.227A.369.369,0,0,0,1398.838,524.677Zm-.541-1.552a.37.37,0,1,0,.471.227A.37.37,0,0,0,1398.3,523.125Zm-.541-1.552a.37.37,0,1,0,.471.227A.37.37,0,0,0,1397.756,521.573Zm-.542-1.552a.37.37,0,1,0,.471.227A.37.37,0,0,0,1397.214,520.021Zm-.541-1.552a.37.37,0,1,0,.471.227A.37.37,0,0,0,1396.673,518.469Z" fill="#663b1b"/>
            </g>
            <g id="Grupo_58493" data-name="Grupo 58493">
              <path id="Trazado_102312" data-name="Trazado 102312" d="M1378.377,549.61a.37.37,0,1,1-.471-.227A.369.369,0,0,1,1378.377,549.61Zm-1.012-1.779a.37.37,0,1,0,.471.227A.37.37,0,0,0,1377.365,547.831Zm-.541-1.552a.37.37,0,1,0,.471.227A.369.369,0,0,0,1376.824,546.279Zm-.541-1.552a.37.37,0,1,0,.471.227A.37.37,0,0,0,1376.283,544.727Zm-.541-1.552a.37.37,0,1,0,.471.227A.37.37,0,0,0,1375.742,543.175Zm-.541-1.552a.37.37,0,1,0,.47.227A.37.37,0,0,0,1375.2,541.623Zm-.542-1.552a.37.37,0,1,0,.471.227A.37.37,0,0,0,1374.659,540.071Zm-.541-1.552a.37.37,0,1,0,.471.227A.369.369,0,0,0,1374.118,538.519Zm-.541-1.552a.37.37,0,1,0,.471.227A.369.369,0,0,0,1373.577,536.967Zm-.541-1.552a.37.37,0,1,0,.471.227A.37.37,0,0,0,1373.036,535.415Zm-.541-1.552a.37.37,0,1,0,.471.227A.37.37,0,0,0,1372.495,533.863Zm-.542-1.552a.37.37,0,1,0,.471.227A.37.37,0,0,0,1371.953,532.311Zm-.541-1.552a.37.37,0,1,0,.471.227A.37.37,0,0,0,1371.412,530.759Zm-.541-1.552a.37.37,0,1,0,.471.227A.369.369,0,0,0,1370.871,529.207Zm-.541-1.552a.37.37,0,1,0,.471.227A.37.37,0,0,0,1370.33,527.655Z" fill="#663b1b"/>
            </g>
          </g>
          <path id="Trazado_102313" data-name="Trazado 102313" d="M1393.744,545.217c-.3-.594-.729-1.42-1.231-2.493.882-3.778-2.546-5.96-3.8-6.615-2.266-6.881-8.523-18.785-8.875-19.611a5.731,5.731,0,0,0-1.172-1.752c.45-4.376.552-10.747.518-16.557.341-.113.676-.232,1-.361.006-.276.012-.548.017-.82l0-.109c0-.159.007-.319.01-.478s.005-.292.007-.391h0c.005-.269.009-.539.013-.8,2.456-4.783,2.939-10.993-2.254-19.329l-3.309-3.348a95.126,95.126,0,0,0-6.984,8.949c-3.777,5.772-5.281,10.972-11.666,22.26a68.228,68.228,0,0,1-4.3,6.262l-.312-.089-1.533,2.375c-3.281,4.178-1.782,10.911,3.23,15.065l16.131,22.618a12.438,12.438,0,0,0-.615,3.286l2.019,37.68-.256-.055s-3.146,5.27-2.761,7.233a1.534,1.534,0,0,0,1.415,1.416h18.827c0-1.161-1.3-2.134-6.807-2.89-1.7-.234-4-3.621-6.077-4.766l-.141-.031,2.213-37a17.523,17.523,0,0,0,.136-5.451c-.009-.147,0-.282-.026-.438l-8.826-26.289-1.464-5.927-.157-2.474a58.063,58.063,0,0,1,2.495-5.745c.475-.627,1.685-1.751,3.173-3.274a66.875,66.875,0,0,0,2.811,12.45c.018.091.025.169.046.264,1.042,4.8,6.7,16.184,10.708,20.877a21.048,21.048,0,0,0,1.446,5.657c1.4,3.358,2.909,3.479,5.828,2.34C1395.12,546.11,1395.854,544.456,1393.744,545.217Z" fill="#104c8b"/>
        </g>
      </g>
    </g>
    <path id="Trazado_102314" data-name="Trazado 102314" d="M1331.655,495.183c-.038-1.655-2.438-4.355-2.983-5.2-1.7-2.643-4.852-7.88-11.725-4.122-7.08,3.871-5.262,9.353-4.811,11.254a4.263,4.263,0,0,1-.029,1.728,9.6,9.6,0,0,0,1.09-.211,34.975,34.975,0,0,1-2.495,2.741,26.261,26.261,0,0,1-2.346,1.889s.911,2.739,1.2,3.3a16.843,16.843,0,0,0,2.889,2.241s1.069-2,1.874-3.169c.122-.178.289-.388.47-.6a6.87,6.87,0,0,0,1.241,1.737c1.676,1.573,2.9,2.893,3.427,2.028a2.4,2.4,0,0,1,1.878-1.415c.59,0,.467-.478.442-.782,1.569.369.7-.548,1.076-.812a1.765,1.765,0,0,1,1.231-.293c.347.041,1.7.163,1.679-.3a12.721,12.721,0,0,0-.2-1.617,7.785,7.785,0,0,1-.01-2.489c.013-.009,1.368-.475,1.509-.53a1.382,1.382,0,0,0,.84-1.2c.073-.4.22-1.251.359-2.05C1329.469,497.452,1331.692,496.761,1331.655,495.183Z" fill="#104c8b"/>
    <path id="Trazado_102315" data-name="Trazado 102315" d="M1394.957,462.76c-.4-1.607-3.332-3.716-4.049-4.422-2.241-2.206-6.457-6.628-12.342-1.458-6.062,5.326-3.089,10.277-2.234,12.034a4.256,4.256,0,0,1,.35,1.693,9.7,9.7,0,0,0,1.018-.445,35.226,35.226,0,0,1-1.835,3.22,26.166,26.166,0,0,1-1.877,2.356s1.488,2.474,1.894,2.954a16.844,16.844,0,0,0,3.31,1.555s.606-2.182,1.135-3.5c.08-.2.2-.442.327-.69a6.878,6.878,0,0,0,1.59,1.423c1.98,1.169,3.467,2.188,3.788,1.229.212-.635.6-1.579,1.523-1.791.575-.132.352-.569.261-.859,1.611.016.56-.688.872-1.029a1.767,1.767,0,0,1,1.137-.555c.348-.035,1.7-.213,1.574-.655a12.54,12.54,0,0,0-.55-1.534,7.787,7.787,0,0,1-.554-2.427c.011-.011,1.231-.763,1.356-.847a1.38,1.38,0,0,0,.558-1.352c-.016-.407-.059-1.269-.1-2.08C1393.32,465.451,1395.338,464.292,1394.957,462.76Z" fill="#104c8b"/>
    <path id="Trazado_102316" data-name="Trazado 102316" d="M1437.368,442.878c-1.094-1.42-4.918-2.237-5.934-2.625-3.181-1.214-9.282-3.768-12.871,3.914-3.7,7.913,1.4,11.531,3.011,12.9a4.582,4.582,0,0,1,1.082,1.526,10.372,10.372,0,0,0,.816-.883,37.962,37.962,0,0,1-.42,3.99,28.632,28.632,0,0,1-.838,3.151s2.549,1.806,3.16,2.106a18.268,18.268,0,0,0,3.957.1s-.346-2.427-.4-3.965c-.008-.234,0-.524.025-.827a7.435,7.435,0,0,0,2.194.721c2.47.3,4.387.664,4.289-.426a2.6,2.6,0,0,1,.733-2.438c.513-.38.1-.716-.115-.965,1.6-.683.257-.925.419-1.4a1.9,1.9,0,0,1,.886-1.044c.329-.186,1.591-.95,1.275-1.333a13.6,13.6,0,0,0-1.212-1.283,8.438,8.438,0,0,1-1.6-2.165c.005-.016.889-1.292.977-1.429a1.5,1.5,0,0,0-.035-1.583c-.192-.4-.609-1.233-1-2.02C1436.913,446.258,1438.411,444.232,1437.368,442.878Z" transform="translate(11)" fill="#104c8b"/>
  </g>
</svg>
