<svg xmlns="http://www.w3.org/2000/svg" width="243.531" height="195.266" viewBox="0 0 243.531 195.266">
  <g id="Grupo_58498" data-name="Grupo 58498" transform="translate(-1271.576 -438.854)">
    <g id="Grupo_58481" data-name="Grupo 58481" transform="translate(1458.184 466.048)">
      <g id="Grupo_58480" data-name="Grupo 58480" transform="translate(0)">
        <g id="Grupo_58479" data-name="Grupo 58479">
          <g id="Grupo_58478" data-name="Grupo 58478" transform="translate(21.25 59.438)">
            <g id="Grupo_58474" data-name="Grupo 58474" transform="translate(0.008 0.008)">
              <path id="Trazado_102299" data-name="Trazado 102299" d="M1432.078,511.9l.181,27.325a1.332,1.332,0,0,0,1.341,1.322l32.813-.217a1.332,1.332,0,0,0,1.322-1.341l-.18-27.325a1.332,1.332,0,0,0-1.341-1.322l-32.813.217A1.332,1.332,0,0,0,1432.078,511.9Zm22.494,4.237-9.358.062a1.7,1.7,0,0,1-.023-3.4l9.358-.062a1.7,1.7,0,1,1,.023,3.4Z" transform="translate(-1432.078 -510.338)" fill="#af703c"/>
            </g>
            <g id="Grupo_58475" data-name="Grupo 58475">
              <path id="Trazado_102300" data-name="Trazado 102300" d="M1467.6,518.058l-.051-7.727-35.476.234.051,7.727Z" transform="translate(-1432.071 -510.331)" fill="#c48145"/>
            </g>
            <rect id="Rectángulo_5684" data-name="Rectángulo 5684" width="35.477" height="7.232" transform="translate(0.054 8.548) rotate(-0.378)" fill="#c48145"/>
            <rect id="Rectángulo_5685" data-name="Rectángulo 5685" width="35.477" height="6.363" transform="translate(0.106 16.366) rotate(-0.379)" fill="#c48145"/>
            <rect id="Rectángulo_5686" data-name="Rectángulo 5686" width="35.477" height="6.907" rx="1.098" transform="translate(0.152 23.315) rotate(-0.378)" fill="#c48145"/>
            <g id="Grupo_58476" data-name="Grupo 58476" transform="translate(34.148 0.364)">
              <path id="Trazado_102301" data-name="Trazado 102301" d="M1461.326,538.966a.448.448,0,1,1-.452-.446A.448.448,0,0,1,1461.326,538.966Zm-.464-2.437a.448.448,0,1,0,.451.445A.448.448,0,0,0,1460.862,536.529Zm-.013-1.993a.448.448,0,1,0,.451.446A.449.449,0,0,0,1460.849,534.536Zm-.013-1.991a.448.448,0,1,0,.451.445A.449.449,0,0,0,1460.835,532.545Zm-.014-1.993a.448.448,0,1,0,.451.445A.447.447,0,0,0,1460.822,530.552Zm-.013-1.993a.448.448,0,1,0,.451.446A.448.448,0,0,0,1460.808,528.559Zm-.013-1.991a.448.448,0,1,0,.451.445A.448.448,0,0,0,1460.8,526.568Zm-.013-1.993a.448.448,0,1,0,.452.446A.449.449,0,0,0,1460.782,524.575Zm-.012-1.991a.448.448,0,1,0,.451.445A.448.448,0,0,0,1460.77,522.584Zm-.013-1.993a.448.448,0,1,0,.451.445A.448.448,0,0,0,1460.756,520.591Zm-.013-1.993a.448.448,0,1,0,.451.446A.45.45,0,0,0,1460.743,518.6Zm-.013-1.991a.448.448,0,1,0,.451.445A.447.447,0,0,0,1460.73,516.608Zm-.013-1.993a.448.448,0,1,0,.451.446A.448.448,0,0,0,1460.716,514.615Zm-.013-1.991a.448.448,0,1,0,.451.445A.447.447,0,0,0,1460.7,512.624Zm-.013-1.993a.448.448,0,1,0,.452.445A.448.448,0,0,0,1460.69,510.631Z" transform="translate(-1460.245 -510.631)" fill="#663b1b"/>
            </g>
            <g id="Grupo_58477" data-name="Grupo 58477" transform="translate(0.333 0.587)">
              <path id="Trazado_102302" data-name="Trazado 102302" d="M1433.427,539.15a.448.448,0,1,1-.451-.445A.448.448,0,0,1,1433.427,539.15Zm-.464-2.437a.448.448,0,1,0,.451.445A.447.447,0,0,0,1432.963,536.713Zm-.013-1.993a.448.448,0,1,0,.451.446A.448.448,0,0,0,1432.95,534.72Zm-.013-1.991a.448.448,0,1,0,.451.445A.447.447,0,0,0,1432.936,532.729Zm-.013-1.993a.448.448,0,1,0,.452.446A.449.449,0,0,0,1432.923,530.736Zm-.013-1.991a.448.448,0,1,0,.452.445A.448.448,0,0,0,1432.91,528.745Zm-.012-1.993a.448.448,0,1,0,.451.445A.448.448,0,0,0,1432.9,526.752Zm-.013-1.993a.448.448,0,1,0,.451.446A.45.45,0,0,0,1432.884,524.759Zm-.013-1.991a.448.448,0,1,0,.451.445A.447.447,0,0,0,1432.871,522.768Zm-.013-1.993a.448.448,0,1,0,.451.446A.448.448,0,0,0,1432.857,520.776Zm-.013-1.991a.448.448,0,1,0,.451.445A.447.447,0,0,0,1432.844,518.784Zm-.013-1.993a.448.448,0,1,0,.452.445A.448.448,0,0,0,1432.831,516.792Zm-.013-1.993a.448.448,0,1,0,.452.446A.449.449,0,0,0,1432.817,514.8Zm-.012-1.991a.448.448,0,1,0,.451.445A.448.448,0,0,0,1432.805,512.807Zm-.013-1.993a.448.448,0,1,0,.451.446A.45.45,0,0,0,1432.792,510.815Z" transform="translate(-1432.346 -510.815)" fill="#663b1b"/>
            </g>
          </g>
          <path id="Trazado_102303" data-name="Trazado 102303" d="M1454.919,550.59c-.18-.707-.442-1.667-.727-2.866a.807.807,0,0,0,.24-.316c2.171-4.663-2.011-8.134-3.291-9.055-1.376-8.144-8.208-25.205-8.55-26.312a6.994,6.994,0,0,0-.965-1.95c-.55-4.165-1.711-9.742-3-15.276,1.417-5.842,2.646-13.072,1.054-17.234l0,.038c-1.263-4.761-4.6-9.653-11.58-14.295l-5.332-2.031a115.17,115.17,0,0,0-3.213,13.377c-1.271,8.264.278,14.75-1.1,30.407-.31,3.532-1.526,7.332-2.134,10.314l-.034.1h0l-1.6,4.813c-.556,3.843.633,8.4,2.365,13.023l9.242,35.67a15.8,15.8,0,0,0-1.394,5.384l.817,44.019-.1-.022s-3.813,6.387-3.348,8.767a1.862,1.862,0,0,0,1.716,1.716h22.819c0-1.407-1.571-2.586-8.25-3.5-2.063-.284-4.851-4.389-7.365-5.776l-.131-.029,3.887-43.215a27.6,27.6,0,0,0,.462-3.688,4.942,4.942,0,0,0,.536-1.982l-.105-47.468.2-2.447h.082l-.342-5.506s.058-2.337.144-4.931c.293.567.581,1.1.864,1.608.008.4.038.841.091,1.32.662,5.96,6.137,20.566,10.4,26.645a24.682,24.682,0,0,0,.24,7.382c.821,4.391,2.594,5.125,6.379,4.975C1456.337,552.154,1457.639,550.552,1454.919,550.59Z" transform="translate(-1414.539 -461.291)" fill="#104c8b"/>
        </g>
      </g>
    </g>
    <g id="Grupo_58489" data-name="Grupo 58489" transform="translate(1271.576 513.249)">
      <g id="Grupo_58488" data-name="Grupo 58488">
        <g id="Grupo_58487" data-name="Grupo 58487">
          <g id="Grupo_58486" data-name="Grupo 58486" transform="translate(33.528 69.931)">
            <g id="Grupo_58482" data-name="Grupo 58482" transform="translate(0)">
              <path id="Trazado_102304" data-name="Trazado 102304" d="M1299.239,559.263v27.325a1.33,1.33,0,0,0,1.331,1.331h32.815a1.331,1.331,0,0,0,1.331-1.331V559.263a1.332,1.332,0,0,0-1.331-1.332H1300.57A1.331,1.331,0,0,0,1299.239,559.263Zm22.465,4.386h-9.358a1.7,1.7,0,0,1,0-3.4h9.358a1.7,1.7,0,0,1,0,3.4Z" transform="translate(-1299.239 -557.931)" fill="#af703c"/>
            </g>
            <g id="Grupo_58483" data-name="Grupo 58483" transform="translate(0)">
              <path id="Trazado_102305" data-name="Trazado 102305" d="M1334.715,565.658v-7.727h-35.476v7.727Z" transform="translate(-1299.239 -557.931)" fill="#c48145"/>
            </g>
            <rect id="Rectángulo_5687" data-name="Rectángulo 5687" width="35.477" height="7.232" transform="translate(0 8.314)" fill="#c48145"/>
            <rect id="Rectángulo_5688" data-name="Rectángulo 5688" width="35.477" height="6.363" transform="translate(0 16.132)" fill="#c48145"/>
            <rect id="Rectángulo_5689" data-name="Rectángulo 5689" width="35.477" height="6.907" rx="1.098" transform="translate(0 23.082)" fill="#c48145"/>
            <g id="Grupo_58484" data-name="Grupo 58484" transform="translate(34.143 0.358)">
              <path id="Trazado_102306" data-name="Trazado 102306" d="M1328.306,586.565a.448.448,0,1,1-.448-.448A.449.449,0,0,1,1328.306,586.565Zm-.448-2.441a.448.448,0,1,0,.448.448A.449.449,0,0,0,1327.857,584.124Zm0-1.991a.448.448,0,1,0,.448.448A.448.448,0,0,0,1327.857,582.132Zm0-1.993a.448.448,0,1,0,.448.448A.449.449,0,0,0,1327.857,580.14Zm0-1.991a.448.448,0,1,0,.448.447A.448.448,0,0,0,1327.857,578.148Zm0-1.993a.448.448,0,1,0,.448.448A.449.449,0,0,0,1327.857,576.156Zm0-1.993a.448.448,0,1,0,.448.448A.449.449,0,0,0,1327.857,574.163Zm0-1.991a.448.448,0,1,0,.448.448A.448.448,0,0,0,1327.857,572.172Zm0-1.993a.448.448,0,1,0,.448.448A.449.449,0,0,0,1327.857,570.179Zm0-1.993a.448.448,0,1,0,.448.449A.449.449,0,0,0,1327.857,568.186Zm0-1.991a.448.448,0,1,0,.448.448A.448.448,0,0,0,1327.857,566.2Zm0-1.993a.448.448,0,1,0,.448.448A.449.449,0,0,0,1327.857,564.2Zm0-1.991a.448.448,0,1,0,.448.447A.448.448,0,0,0,1327.857,562.211Zm0-1.993a.448.448,0,1,0,.448.448A.449.449,0,0,0,1327.857,560.219Zm0-1.993a.448.448,0,1,0,.448.448A.449.449,0,0,0,1327.857,558.226Z" transform="translate(-1327.409 -558.226)" fill="#663b1b"/>
            </g>
            <g id="Grupo_58485" data-name="Grupo 58485" transform="translate(0.329 0.358)">
              <path id="Trazado_102307" data-name="Trazado 102307" d="M1300.407,586.565a.448.448,0,1,1-.448-.448A.449.449,0,0,1,1300.407,586.565Zm-.448-2.441a.448.448,0,1,0,.448.448A.449.449,0,0,0,1299.958,584.124Zm0-1.991a.448.448,0,1,0,.448.448A.448.448,0,0,0,1299.958,582.132Zm0-1.993a.448.448,0,1,0,.448.448A.449.449,0,0,0,1299.958,580.14Zm0-1.991a.448.448,0,1,0,.448.447A.448.448,0,0,0,1299.958,578.148Zm0-1.993a.448.448,0,1,0,.448.448A.449.449,0,0,0,1299.958,576.156Zm0-1.993a.448.448,0,1,0,.448.448A.449.449,0,0,0,1299.958,574.163Zm0-1.991a.448.448,0,1,0,.448.448A.448.448,0,0,0,1299.958,572.172Zm0-1.993a.448.448,0,1,0,.448.448A.449.449,0,0,0,1299.958,570.179Zm0-1.993a.448.448,0,1,0,.448.449A.449.449,0,0,0,1299.958,568.186Zm0-1.991a.448.448,0,1,0,.448.448A.448.448,0,0,0,1299.958,566.2Zm0-1.993a.448.448,0,1,0,.448.448A.449.449,0,0,0,1299.958,564.2Zm0-1.991a.448.448,0,1,0,.448.447A.448.448,0,0,0,1299.958,562.211Zm0-1.993a.448.448,0,1,0,.448.448A.449.449,0,0,0,1299.958,560.219Zm0-1.993a.448.448,0,1,0,.448.448A.449.449,0,0,0,1299.958,558.226Z" transform="translate(-1299.51 -558.226)" fill="#663b1b"/>
            </g>
          </g>
          <path id="Trazado_102308" data-name="Trazado 102308" d="M1320.749,617.6c-2.008-.276-4.7-4.166-7.164-5.654l5.83-18.491a24.913,24.913,0,0,0-.064,3.18c.218,4.406,1.886,5.163,5.682,5.066,2.465-.064,3.984-1.648,1.264-1.648-.095-.8-.246-1.919-.377-3.348,2.62-4.038-.595-8.024-1.686-9.186.1-2.5.033-5.618-.128-8.941l1.459-4.63a21.457,21.457,0,0,0,1.292-6.373,4.27,4.27,0,0,0-1.887-4.5l-2.154-1.251c-.406-4.175-.743-7.191-.766-7.593a7,7,0,0,0-.3-1.664c.3-6.055.225-14.055.036-21.188.313-.109.629-.216.93-.336q.02-.88.035-1.747c0-.167.006-.322.009-.433h0c.048-2.855.064-5.562.063-7.889,1.19-4.1,1.2-9.227-.766-15.777l-2.8-4.969a115.34,115.34,0,0,0-11.017,8.241c-6.256,5.546-8.03,11.991-19.092,23.156-2.374,2.4-6.45,4.1-9.02,5.852l-.465-.183-3.745,3.725.01,0c-5.646,5.291-7.83,17.908,6.361,20.849l0,0,33.676,7.9c-.046.174-.095.347-.136.526L1308,610.662l-.188-.04s-3.814,6.386-3.348,8.767a1.861,1.861,0,0,0,1.716,1.716H1329C1329,619.7,1327.428,618.519,1320.749,617.6ZM1296,546.245c-.1-.05-.2-.086-.307-.131l1.181-2.077s3.62-2.754,4.531-3.456c1.4-1.08,6.26-3.332,11.1-7.032a176.431,176.431,0,0,0,3.651,20.918,33.4,33.4,0,0,0-.133,3.413Z" transform="translate(-1271.576 -500.234)" fill="#104c8b"/>
        </g>
      </g>
    </g>
    <g id="Grupo_58497" data-name="Grupo 58497" transform="translate(1364.364 479.692)">
      <g id="Grupo_58496" data-name="Grupo 58496">
        <g id="Grupo_58495" data-name="Grupo 58495">
          <g id="Grupo_58494" data-name="Grupo 58494" transform="translate(26.053 55.029)">
            <g id="Grupo_58490" data-name="Grupo 58490" transform="translate(0.364 0.363)">
              <path id="Trazado_102309" data-name="Trazado 102309" d="M1370,530.825l9,25.8a1.331,1.331,0,0,0,1.7.818l30.984-10.8a1.333,1.333,0,0,0,.819-1.7l-9-25.8a1.332,1.332,0,0,0-1.7-.819l-30.984,10.805A1.332,1.332,0,0,0,1370,530.825Zm22.656-3.255-8.836,3.081a1.7,1.7,0,1,1-1.121-3.213l8.837-3.081a1.7,1.7,0,0,1,1.12,3.213Z" transform="translate(-1369.927 -518.25)" fill="#af703c"/>
            </g>
            <g id="Grupo_58491" data-name="Grupo 58491">
              <path id="Trazado_102310" data-name="Trazado 102310" d="M1405.67,525.245l-2.545-7.3-33.5,11.682,2.544,7.3Z" transform="translate(-1369.627 -517.95)" fill="#c48145"/>
            </g>
            <rect id="Rectángulo_5690" data-name="Rectángulo 5690" width="35.477" height="7.232" transform="translate(2.738 19.531) rotate(-19.224)" fill="#c48145"/>
            <rect id="Rectángulo_5691" data-name="Rectángulo 5691" width="35.477" height="6.363" transform="translate(5.312 26.913) rotate(-19.224)" fill="#c48145"/>
            <rect id="Rectángulo_5692" data-name="Rectángulo 5692" width="35.477" height="6.907" rx="1.098" transform="matrix(0.944, -0.329, 0.329, 0.944, 7.6, 33.475)" fill="#c48145"/>
            <g id="Grupo_58492" data-name="Grupo 58492" transform="translate(32.48 0.604)">
              <path id="Trazado_102311" data-name="Trazado 102311" d="M1406.48,545.084a.448.448,0,1,1-.571-.276A.449.449,0,0,1,1406.48,545.084Zm-1.226-2.157a.449.449,0,1,0,.571.276A.449.449,0,0,0,1405.253,542.926Zm-.657-1.881a.449.449,0,1,0,.571.276A.45.45,0,0,0,1404.6,541.045Zm-.656-1.881a.449.449,0,1,0,.571.276A.449.449,0,0,0,1403.941,539.164Zm-.656-1.881a.449.449,0,1,0,.571.276A.448.448,0,0,0,1403.285,537.283Zm-.656-1.881a.448.448,0,1,0,.571.276A.45.45,0,0,0,1402.629,535.4Zm-.656-1.881a.448.448,0,1,0,.571.276A.45.45,0,0,0,1401.974,533.521Zm-.656-1.88a.448.448,0,1,0,.57.275A.448.448,0,0,0,1401.318,531.641Zm-.657-1.881a.448.448,0,1,0,.571.275A.448.448,0,0,0,1400.661,529.76Zm-.656-1.881a.448.448,0,1,0,.571.275A.447.447,0,0,0,1400.005,527.879ZM1399.35,526a.448.448,0,1,0,.571.275A.447.447,0,0,0,1399.35,526Zm-.656-1.881a.448.448,0,1,0,.571.275A.449.449,0,0,0,1398.694,524.117Zm-.656-1.881a.448.448,0,1,0,.571.275A.449.449,0,0,0,1398.038,522.236Zm-.657-1.881a.448.448,0,1,0,.571.275A.449.449,0,0,0,1397.381,520.355Zm-.656-1.881a.448.448,0,1,0,.571.275A.448.448,0,0,0,1396.725,518.473Z" transform="translate(-1396.425 -518.448)" fill="#663b1b"/>
            </g>
            <g id="Grupo_58493" data-name="Grupo 58493" transform="translate(0.551 11.738)">
              <path id="Trazado_102312" data-name="Trazado 102312" d="M1380.136,554.27a.448.448,0,1,1-.571-.275A.447.447,0,0,1,1380.136,554.27Zm-1.227-2.156a.448.448,0,1,0,.571.275A.448.448,0,0,0,1378.909,552.113Zm-.656-1.881a.448.448,0,1,0,.571.275A.447.447,0,0,0,1378.254,550.232Zm-.656-1.881a.448.448,0,1,0,.571.275A.449.449,0,0,0,1377.6,548.351Zm-.656-1.881a.448.448,0,1,0,.571.275A.448.448,0,0,0,1376.942,546.47Zm-.656-1.881a.448.448,0,1,0,.57.275A.449.449,0,0,0,1376.287,544.589Zm-.657-1.881a.448.448,0,1,0,.571.275A.448.448,0,0,0,1375.63,542.708Zm-.656-1.881a.448.448,0,1,0,.571.275A.447.447,0,0,0,1374.974,540.827Zm-.656-1.881a.448.448,0,1,0,.571.275A.447.447,0,0,0,1374.318,538.946Zm-.656-1.881a.448.448,0,1,0,.571.275A.449.449,0,0,0,1373.662,537.065Zm-.656-1.881a.448.448,0,1,0,.571.275A.448.448,0,0,0,1373.007,535.184Zm-.657-1.881a.448.448,0,1,0,.571.275A.449.449,0,0,0,1372.35,533.3Zm-.656-1.881a.448.448,0,1,0,.571.275A.448.448,0,0,0,1371.694,531.421Zm-.656-1.881a.448.448,0,1,0,.571.275A.447.447,0,0,0,1371.038,529.54Zm-.656-1.881a.448.448,0,1,0,.571.275A.448.448,0,0,0,1370.383,527.659Z" transform="translate(-1370.081 -527.634)" fill="#663b1b"/>
            </g>
          </g>
          <path id="Trazado_102313" data-name="Trazado 102313" d="M1403.415,560.625c-.36-.72-.884-1.721-1.492-3.022,1.069-4.579-3.086-7.224-4.6-8.018-2.747-8.34-10.33-22.768-10.757-23.769a6.944,6.944,0,0,0-1.421-2.124c.545-5.3.669-13.026.628-20.068.413-.137.819-.281,1.212-.438.007-.335.014-.664.021-.994l0-.132c0-.193.009-.387.012-.579s.006-.354.009-.474h0c.006-.326.011-.653.016-.976,2.977-5.8,3.562-13.324-2.732-23.427l-4.01-4.058a115.263,115.263,0,0,0-8.465,10.846c-4.578,7-6.4,13.3-14.14,26.98a82.715,82.715,0,0,1-5.211,7.59l-.378-.108-1.858,2.879c-3.977,5.064-2.16,13.224,3.915,18.259l19.552,27.414a15.071,15.071,0,0,0-.746,3.983l2.447,45.669-.31-.067s-3.813,6.387-3.346,8.767a1.859,1.859,0,0,0,1.715,1.716h22.819c0-1.407-1.571-2.586-8.25-3.5-2.063-.284-4.85-4.389-7.365-5.776l-.171-.038,2.682-44.847a21.246,21.246,0,0,0,.165-6.607c-.011-.178,0-.342-.031-.531l-10.7-31.863-1.774-7.184-.19-3a70.366,70.366,0,0,1,3.024-6.963c.576-.76,2.042-2.122,3.846-3.968.931,6.132,2.125,11.8,3.407,15.09.022.11.03.2.056.32,1.263,5.817,8.122,19.615,12.979,25.3a25.513,25.513,0,0,0,1.752,6.856c1.7,4.07,3.526,4.217,7.064,2.836C1405.083,561.708,1405.973,559.7,1403.415,560.625Z" transform="translate(-1348.132 -472.548)" fill="#104c8b"/>
        </g>
      </g>
    </g>
    <path id="Trazado_102314" data-name="Trazado 102314" d="M1336.6,497.438c-.046-2.006-2.955-5.278-3.615-6.3-2.066-3.2-5.881-9.551-14.211-5-8.581,4.692-6.378,11.336-5.831,13.64a5.166,5.166,0,0,1-.035,2.094,11.646,11.646,0,0,0,1.321-.256,42.394,42.394,0,0,1-3.024,3.322,31.828,31.828,0,0,1-2.844,2.29s1.1,3.32,1.457,3.995,3.5,2.716,3.5,2.716,1.3-2.419,2.271-3.841c.148-.216.35-.47.57-.73a8.326,8.326,0,0,0,1.5,2.105c2.031,1.906,3.52,3.506,4.154,2.458a2.908,2.908,0,0,1,2.276-1.715c.715,0,.566-.579.536-.948,1.9.447.845-.664,1.3-.984a2.139,2.139,0,0,1,1.492-.355c.421.05,2.065.2,2.035-.359a15.423,15.423,0,0,0-.244-1.96,9.435,9.435,0,0,1-.012-3.017c.016-.011,1.658-.576,1.829-.642a1.675,1.675,0,0,0,1.018-1.452c.089-.485.267-1.516.435-2.485C1333.946,500.188,1336.64,499.351,1336.6,497.438Z" transform="translate(7.799 9.689)" fill="#104c8b"/>
    <path id="Trazado_102315" data-name="Trazado 102315" d="M1399.4,464.518c-.485-1.948-4.039-4.5-4.908-5.36-2.716-2.674-7.826-8.033-14.959-1.767-7.347,6.455-3.744,12.456-2.708,14.586a5.157,5.157,0,0,1,.424,2.052,11.756,11.756,0,0,0,1.234-.539,42.7,42.7,0,0,1-2.224,3.9,31.706,31.706,0,0,1-2.275,2.856s1.8,3,2.3,3.58,4.012,1.885,4.012,1.885.734-2.645,1.376-4.245c.1-.242.239-.536.4-.836a8.332,8.332,0,0,0,1.927,1.725c2.4,1.417,4.2,2.652,4.591,1.49.257-.77.722-1.914,1.846-2.171.7-.16.427-.69.316-1.041,1.953.019.679-.834,1.057-1.247a2.142,2.142,0,0,1,1.378-.673c.422-.042,2.058-.258,1.908-.794a15.213,15.213,0,0,0-.667-1.859,9.438,9.438,0,0,1-.671-2.942c.013-.013,1.492-.925,1.643-1.027a1.673,1.673,0,0,0,.676-1.639c-.019-.493-.071-1.538-.119-2.521C1397.419,467.78,1399.865,466.375,1399.4,464.518Z" transform="translate(21.715 3.311)" fill="#104c8b"/>
    <path id="Trazado_102316" data-name="Trazado 102316" d="M1441.635,443.731c-1.326-1.721-5.961-2.711-7.192-3.182-3.855-1.471-11.25-4.567-15.6,4.744-4.481,9.591,1.7,13.976,3.649,15.638a5.556,5.556,0,0,1,1.312,1.85,12.558,12.558,0,0,0,.989-1.07,46,46,0,0,1-.509,4.836,34.716,34.716,0,0,1-1.016,3.819s3.089,2.189,3.83,2.553,4.8.126,4.8.126-.419-2.942-.479-4.806c-.01-.284,0-.635.03-1a9.012,9.012,0,0,0,2.659.874c2.994.362,5.317.8,5.2-.516a3.152,3.152,0,0,1,.888-2.955c.622-.461.124-.868-.139-1.17,1.944-.828.312-1.121.508-1.694a2.306,2.306,0,0,1,1.074-1.265c.4-.225,1.928-1.151,1.545-1.616a16.49,16.49,0,0,0-1.469-1.555,10.231,10.231,0,0,1-1.942-2.624c.006-.019,1.078-1.566,1.184-1.732a1.812,1.812,0,0,0-.042-1.919c-.233-.481-.738-1.494-1.212-2.448C1441.083,447.828,1442.9,445.372,1441.635,443.731Z" transform="translate(44.219)" fill="#104c8b"/>
  </g>
</svg>
