<svg xmlns="http://www.w3.org/2000/svg" width="360.487" height="310" viewBox="0 0 360.487 310">
  <g id="Grupo_56051" data-name="Grupo 56051" transform="translate(170.96 -661.349)">
    <g id="Grupo_55791" data-name="Grupo 55791" transform="translate(-122.961 661.349)" opacity="0.67">
      <path id="Trazado_100808" data-name="Trazado 100808" d="M21.561,661.738c-23.415,2.713-43.145,18.654-52.624,39.644-12.6,27.886-8.13,62.144-18.49,91.1a86.889,86.889,0,0,1-40.881,47.393c-9.208,4.88-19.525,8.266-27.07,15.344-6.681,6.27-10.673,15.071-12.429,24.323-5.169,27.229,10.226,58.886,35.727,73.471,13.656,7.809,29.25,10.853,44.377,11.361,31.254,1.048,61.786-8.491,85.46-26.7,13.212-10.162,24.24-22.847,34.01-36.367,21.292-29.46,37.04-63.714,41.617-100.928,5.479-44.55-3.808-103.42-48.7-129.577C50,663.486,35.285,660.149,21.561,661.738Z" transform="translate(160.515 -661.35)" fill="#fff"/>
      <path id="Trazado_100809" data-name="Trazado 100809" d="M-131.518,780.742c-1.279-2.927-3.268-6.28-6.363-6.605a5.429,5.429,0,0,0-3.25.793c-4.652,2.673-5.427,9.08-4.934,14.679a61.169,61.169,0,0,0,3.43,15.441A23.546,23.546,0,0,0-138.8,812.3a10.452,10.452,0,0,0,6.971,3.952C-113.959,817.413-127.971,788.851-131.518,780.742Z" transform="translate(146.194 -555.563)" fill="#fff"/>
    </g>
    <g id="Grupo_55824" data-name="Grupo 55824" transform="translate(-27.413 816.464)">
      <g id="Grupo_55823" data-name="Grupo 55823">
        <g id="Grupo_55803" data-name="Grupo 55803" transform="translate(0 67.04)">
          <g id="Grupo_55792" data-name="Grupo 55792">
            <path id="Trazado_100810" data-name="Trazado 100810" d="M-50.515,863.574c-6.274,0-16.786-1.018-22.219-7.241-3.254-3.729-4.239-8.807-2.927-15.09,1.835-8.778-1.335-11.346-5.725-14.9-1.231-1-2.5-2.027-3.793-3.293-6.2-6.074-5.3-9.216-3.52-15.472.8-2.8-.467-3.711-2.38-5.088-2.1-1.512-4.717-3.394-5.557-8.475a15.7,15.7,0,0,1,3.211-12.991,15.206,15.206,0,0,1,11.857-5.053h.1c7.322.035,8.64,5.376,9.7,9.666.508,2.064.99,4.012,2.016,5.219a7.41,7.41,0,0,0,4.146,2.192c2.682.736,5.727,1.572,7.964,7.688a26.326,26.326,0,0,1,1.374,10.257c-.07,3.776-.116,6.27,3.458,8.262a22.369,22.369,0,0,1,3.781,2.758l-.587.667a21.405,21.405,0,0,0-3.628-2.646c-4.041-2.252-3.983-5.254-3.913-9.057a25.228,25.228,0,0,0-1.32-9.935c-2.082-5.686-4.766-6.423-7.365-7.136a8.23,8.23,0,0,1-4.588-2.473c-1.161-1.366-1.667-3.415-2.2-5.584-1.087-4.4-2.211-8.956-8.84-8.989h-.095a14.33,14.33,0,0,0-11.181,4.743,14.809,14.809,0,0,0-3.008,12.264,10.855,10.855,0,0,0,5.2,7.9c1.977,1.423,3.682,2.65,2.713,6.055-1.739,6.1-2.531,8.888,3.287,14.592,1.26,1.235,2.516,2.252,3.733,3.237,4.46,3.611,7.981,6.464,6.035,15.771-1.252,6-.337,10.815,2.725,14.325,6.555,7.512,21.04,7.107,25.32,6.809l.062.888C-47.577,863.508-48.907,863.574-50.515,863.574Z" transform="translate(96.895 -775.973)" fill="#124c64"/>
          </g>
          <g id="Grupo_55797" data-name="Grupo 55797" transform="translate(12.156 20.177)">
            <g id="Grupo_55794" data-name="Grupo 55794" transform="translate(3.788)">
              <g id="Grupo_55793" data-name="Grupo 55793">
                <path id="Trazado_100811" data-name="Trazado 100811" d="M-65.523,827.585q-7.66-15.58-16.181-30.712-2.884-5.131-5.863-10.206a.589.589,0,0,0-1.016.595q9.553,16.295,18.145,33.128,1.977,3.878,3.9,7.787c.333.68,1.351.085,1.018-.593Z" transform="translate(88.668 -786.384)" fill="#124c64"/>
              </g>
            </g>
            <g id="Grupo_55796" data-name="Grupo 55796" transform="translate(0 18.398)">
              <g id="Grupo_55795" data-name="Grupo 55795">
                <path id="Trazado_100812" data-name="Trazado 100812" d="M-90.061,797.058l13.168,1.364,1.9.2c.752.078.748-1.1,0-1.178l-13.168-1.365-1.9-.2c-.752-.077-.746,1.1,0,1.179Z" transform="translate(90.623 -795.876)" fill="#124c64"/>
              </g>
            </g>
          </g>
          <g id="Grupo_55802" data-name="Grupo 55802" transform="translate(12.982 7.103)">
            <g id="Grupo_55798" data-name="Grupo 55798" transform="translate(0 22.61)">
              <path id="Trazado_100813" data-name="Trazado 100813" d="M-87.474,796.143a2.589,2.589,0,0,1-2.723-2.421,2.588,2.588,0,0,1,2.723-2.419,2.587,2.587,0,0,1,2.721,2.419A2.587,2.587,0,0,1-87.474,796.143Zm0-3.948a1.7,1.7,0,0,0-1.833,1.527,1.7,1.7,0,0,0,1.833,1.529,1.7,1.7,0,0,0,1.832-1.529A1.7,1.7,0,0,0-87.474,792.2Z" transform="translate(90.197 -791.304)" fill="#124c64"/>
            </g>
            <g id="Grupo_55799" data-name="Grupo 55799" transform="translate(5.378 3.425)">
              <path id="Trazado_100814" data-name="Trazado 100814" d="M-84.7,786.851a2.708,2.708,0,0,1-1.357-.362,2.712,2.712,0,0,1-1.268-1.653,2.694,2.694,0,0,1,.271-2.066A2.706,2.706,0,0,1-85.4,781.5a2.706,2.706,0,0,1,2.064.271,2.728,2.728,0,0,1,1,3.721h0A2.723,2.723,0,0,1-84.7,786.851Zm.008-4.555a1.844,1.844,0,0,0-.479.064,1.818,1.818,0,0,0-1.111.855,1.811,1.811,0,0,0-.184,1.388,1.822,1.822,0,0,0,.853,1.114,1.835,1.835,0,0,0,2.5-.671h0a1.837,1.837,0,0,0-.671-2.5A1.823,1.823,0,0,0-84.7,782.3Z" transform="translate(87.422 -781.405)" fill="#124c64"/>
            </g>
            <g id="Grupo_55800" data-name="Grupo 55800" transform="translate(13.123 56.058)">
              <path id="Trazado_100815" data-name="Trazado 100815" d="M-80.143,814.371a3.113,3.113,0,0,1-3.283-2.9,3.115,3.115,0,0,1,3.283-2.905,3.116,3.116,0,0,1,3.283,2.905A3.115,3.115,0,0,1-80.143,814.371Zm0-4.919a2.232,2.232,0,0,0-2.394,2.016,2.229,2.229,0,0,0,2.394,2.012,2.228,2.228,0,0,0,2.392-2.012A2.23,2.23,0,0,0-80.143,809.452Z" transform="translate(83.426 -808.562)" fill="#124c64"/>
            </g>
            <g id="Grupo_55801" data-name="Grupo 55801" transform="translate(3.541)">
              <path id="Trazado_100816" data-name="Trazado 100816" d="M-86.913,782.551A1.459,1.459,0,0,1-88.37,781.1a1.46,1.46,0,0,1,1.457-1.458,1.46,1.46,0,0,1,1.457,1.458A1.459,1.459,0,0,1-86.913,782.551Zm0-2.023a.566.566,0,0,0-.566.568.565.565,0,0,0,.566.566.567.567,0,0,0,.566-.566A.567.567,0,0,0-86.913,780.528Z" transform="translate(88.37 -779.638)" fill="#124c64"/>
            </g>
          </g>
        </g>
        <g id="Grupo_55807" data-name="Grupo 55807" transform="translate(85.387 74.772)">
          <g id="Grupo_55804" data-name="Grupo 55804">
            <path id="Trazado_100817" data-name="Trazado 100817" d="M-34.466,859.578c-6.871,0-13-.7-15.036-2.147-2.886-2.056-4.124-8.722-2.818-15.174.95-4.686,4.735-15.941,19.362-19.209,8.689-1.94,9.441-5.648,10.481-10.78a43.4,43.4,0,0,1,1.1-4.553c2.423-7.727,5.657-8.221,12.106-9.206,2.9-.444,3.3-2.55,3.841-5.467.566-3.035,1.271-6.814,5.374-9.543,4.919-3.266,10.419-4.359,14.707-2.905,3.694,1.25,6.473,4.312,8.035,8.857,2.384,6.927-1.614,11.152-4.826,14.548a15.872,15.872,0,0,0-3.113,3.985c-.643,1.508-.36,3.231-.033,5.227.56,3.409,1.258,7.654-3.173,12.059-3.264,3.244-6.586,3.812-9.256,4.268-2.87.488-4.6.783-4.646,4.175-.093,7.727-3.454,20.412-10.367,23.1C-17.389,858.625-26.432,859.576-34.466,859.578Zm45.091-78.727A18.826,18.826,0,0,0,.44,784.239c-3.791,2.521-4.431,5.944-4.995,8.966-.541,2.9-1.052,5.648-4.58,6.185-6.274.957-9.134,1.4-11.394,8.6a43.017,43.017,0,0,0-1.078,4.46c-1.064,5.256-1.905,9.406-11.158,11.474-14.117,3.151-17.769,14-18.684,18.517-1.368,6.754.215,12.668,2.463,14.272h0c4.157,2.963,27.665,2.493,35.935-.727,6.766-2.628,9.722-15.807,9.8-22.279.052-4.134,2.523-4.557,5.386-5.043,2.545-.436,5.714-.975,8.778-4.022,4.1-4.082,3.477-7.909,2.923-11.286-.337-2.043-.653-3.971.095-5.721a16.42,16.42,0,0,1,3.281-4.245c3.208-3.388,6.84-7.229,4.632-13.646-1.492-4.336-4.008-7.128-7.479-8.3A11.664,11.664,0,0,0,10.625,780.851Z" transform="translate(52.839 -779.962)" fill="#124c64"/>
          </g>
          <g id="Grupo_55806" data-name="Grupo 55806" transform="translate(10.221 20.788)">
            <g id="Grupo_55805" data-name="Grupo 55805">
              <path id="Trazado_100818" data-name="Trazado 100818" d="M-46.586,849.816c3.018-3.6,6.154-7.111,9.181-10.708q11.28-13.417,22.037-27.26Q-7.557,801.8-.038,791.537c.448-.612-.574-1.2-1.018-.595q-12.638,17.28-26.124,33.919-8.39,10.373-17.087,20.5c-1.047,1.213-2.124,2.4-3.153,3.628-.483.575.345,1.413.833.831Z" transform="translate(47.565 -790.688)" fill="#124c64"/>
            </g>
          </g>
        </g>
        <g id="Grupo_55822" data-name="Grupo 55822" transform="translate(38.118)">
          <g id="Grupo_55808" data-name="Grupo 55808">
            <path id="Trazado_100819" data-name="Trazado 100819" d="M-23.722,896l-41.5-.711-.128-.124c-5.531-5.388-17.468-19.416-8.834-33.262,4.423-7.093,9.375-10.051,13.356-12.429,5.822-3.477,9.336-5.578,6.913-17.346l-.5-2.432c-3.927-18.891-6.09-29.3,13.836-37.669,14.865-6.245,14.462-12.141,13.955-19.6a38.076,38.076,0,0,1,.081-8.5A26.134,26.134,0,0,1-14.067,745.5c7.437-4.528,16.395-5.355,25.227-2.33,4.9,1.68,8.3,6.326,9.584,13.084,1.989,10.507-1.514,23.783-7.644,28.992-4.192,3.56-2.343,6.884.217,11.481,3.12,5.607,7,12.584,2.4,23.354C11.439,830.076,3.853,833.361-2.24,836c-6.225,2.7-10.72,4.644-9.995,11.97.221,2.256.543,4.582.88,7.043.219,1.609.446,3.242.645,4.892l-.882.107c-.2-1.642-.424-3.271-.645-4.876-.339-2.471-.659-4.8-.886-7.078-.787-7.972,4.456-10.245,10.528-12.875,6.26-2.711,13.356-5.785,17.49-15.451,4.436-10.365.671-17.133-2.357-22.568-2.556-4.593-4.762-8.561-.016-12.592,5.919-5.031,9.284-17.922,7.347-28.151-.861-4.547-3.12-10.392-9-12.408C2.3,741.077-6.394,741.877-13.6,746.263A25.254,25.254,0,0,0-25.67,764.048a37.64,37.64,0,0,0-.074,8.313c.512,7.508.954,13.993-14.5,20.484-19.251,8.088-17.265,17.641-13.309,36.667l.5,2.434c2.549,12.389-1.593,14.864-7.33,18.29-3.9,2.33-8.747,5.225-13.057,12.137-8.227,13.195,3.146,26.7,8.576,32.031l41.148.705Z" transform="translate(77.228 -741.383)" fill="#124c64"/>
          </g>
          <g id="Grupo_55818" data-name="Grupo 55818" transform="translate(19.532 14.674)">
            <g id="Grupo_55810" data-name="Grupo 55810">
              <g id="Grupo_55809" data-name="Grupo 55809">
                <path id="Trazado_100820" data-name="Trazado 100820" d="M-66.078,887.741q2.518-5.814,5.053-11.619,6.236-14.309,12.516-28.6,8.006-18.22,16.108-36.4,7.847-17.586,15.866-35.094c3.764-8.169,7.512-16.366,11.638-24.36.316-.612.636-1.225.961-1.832.359-.669-.657-1.264-1.016-.595-3.948,7.369-7.419,15-10.933,22.585C-21.155,783.2-26.3,794.62-31.417,806.055q-8.2,18.33-16.28,36.714-6.617,15.033-13.181,30.089c-2.047,4.691-4.206,9.352-6.132,14.092-.027.066-.056.132-.085.2-.3.688.717,1.289,1.018.595Z" transform="translate(67.15 -748.954)" fill="#124c64"/>
              </g>
            </g>
            <g id="Grupo_55815" data-name="Grupo 55815" transform="translate(10.192 50.03)">
              <g id="Grupo_55812" data-name="Grupo 55812" transform="translate(27.972)">
                <g id="Grupo_55811" data-name="Grupo 55811">
                  <path id="Trazado_100821" data-name="Trazado 100821" d="M-46.892,777.478l24.256-1.341,3.452-.192c.754-.041.758-1.219,0-1.177q-12.129.672-24.256,1.341l-3.452.192c-.754.041-.758,1.219,0,1.176Z" transform="translate(47.459 -774.767)" fill="#124c64"/>
                </g>
              </g>
              <g id="Grupo_55814" data-name="Grupo 55814" transform="translate(0 62.18)">
                <g id="Grupo_55813" data-name="Grupo 55813">
                  <path id="Trazado_100822" data-name="Trazado 100822" d="M-61.329,810.49l19.168-2.157,2.684-.3c.744-.085.754-1.264,0-1.178l-19.168,2.157q-1.343.148-2.684.3c-.744.085-.754,1.264,0,1.178Z" transform="translate(61.891 -806.85)" fill="#124c64"/>
                </g>
              </g>
            </g>
            <g id="Grupo_55817" data-name="Grupo 55817" transform="translate(8.104 45.656)">
              <g id="Grupo_55816" data-name="Grupo 55816">
                <path id="Trazado_100823" data-name="Trazado 100823" d="M-62.911,773.411q2.753,6.184,5.508,12.367,4.372,9.815,8.745,19.627,1.012,2.277,2.027,4.551c.306.692,1.322.093,1.016-.595q-2.753-6.184-5.51-12.365-4.37-9.815-8.743-19.627l-2.027-4.551c-.308-.692-1.322-.093-1.016.593Z" transform="translate(62.968 -772.51)" fill="#124c64"/>
              </g>
            </g>
          </g>
          <g id="Grupo_55819" data-name="Grupo 55819" transform="translate(60.678 12.804)">
            <path id="Trazado_100824" data-name="Trazado 100824" d="M-42.6,757.048a3.26,3.26,0,0,1-1.851-.556c-1.756-1.2-1.971-3.95-.481-6.14a5.45,5.45,0,0,1,2.791-2.161,3.51,3.51,0,0,1,3.1.355,3.5,3.5,0,0,1,1.465,2.75,5.463,5.463,0,0,1-.987,3.39h0a5.457,5.457,0,0,1-2.791,2.161A4.063,4.063,0,0,1-42.6,757.048Zm1.7-8.169a3.172,3.172,0,0,0-.969.161,4.533,4.533,0,0,0-2.326,1.812c-1.215,1.785-1.1,3.985.244,4.9a2.622,2.622,0,0,0,2.324.242,4.567,4.567,0,0,0,2.326-1.812h0a4.565,4.565,0,0,0,.835-2.832,2.624,2.624,0,0,0-1.08-2.072A2.37,2.37,0,0,0-40.9,748.878Z" transform="translate(45.92 -747.989)" fill="#124c64"/>
          </g>
          <g id="Grupo_55820" data-name="Grupo 55820" transform="translate(64.407 27.661)">
            <path id="Trazado_100825" data-name="Trazado 100825" d="M-41.647,760.355A2.352,2.352,0,0,1-44,758.006a2.354,2.354,0,0,1,2.349-2.351,2.356,2.356,0,0,1,2.351,2.351A2.354,2.354,0,0,1-41.647,760.355Zm0-3.808a1.46,1.46,0,0,0-1.457,1.459,1.459,1.459,0,0,0,1.457,1.459,1.462,1.462,0,0,0,1.461-1.459A1.463,1.463,0,0,0-41.647,756.547Z" transform="translate(43.996 -755.655)" fill="#124c64"/>
          </g>
          <g id="Grupo_55821" data-name="Grupo 55821" transform="translate(74.627 75)">
            <path id="Trazado_100826" data-name="Trazado 100826" d="M-34.577,788.373a4.152,4.152,0,0,1-4.146-4.148,4.151,4.151,0,0,1,4.146-4.146,4.152,4.152,0,0,1,4.148,4.146A4.152,4.152,0,0,1-34.577,788.373Zm0-7.4a3.261,3.261,0,0,0-3.256,3.256,3.261,3.261,0,0,0,3.256,3.258,3.26,3.26,0,0,0,3.256-3.258A3.259,3.259,0,0,0-34.577,780.97Z" transform="translate(38.723 -780.08)" fill="#124c64"/>
          </g>
        </g>
      </g>
    </g>
    <g id="Grupo_55884" data-name="Grupo 55884" transform="translate(-170.96 727.515)">
      <g id="Grupo_55859" data-name="Grupo 55859" transform="translate(39.999)">
        <g id="Grupo_55853" data-name="Grupo 55853">
          <g id="Grupo_55828" data-name="Grupo 55828">
            <g id="Grupo_55825" data-name="Grupo 55825" transform="translate(0.531 0.544)">
              <rect id="Rectángulo_5360" data-name="Rectángulo 5360" width="75.798" height="81.843" fill="#25ced1"/>
            </g>
            <g id="Grupo_55827" data-name="Grupo 55827">
              <g id="Grupo_55826" data-name="Grupo 55826">
                <path id="Trazado_100827" data-name="Trazado 100827" d="M-73.993,777.385h-74.635a3.749,3.749,0,0,0-1.031,0,.5.5,0,0,1-.132,0l.49.49V697.267a4.141,4.141,0,0,0,0-1.095.562.562,0,0,1,0-.14l-.49.49h74.637a3.749,3.749,0,0,0,1.031,0,.487.487,0,0,1,.13,0l-.49-.49V774.55c0,1.049-.091,2.142,0,3.186,0,.046,0,.093,0,.14a.492.492,0,0,0,.983,0V699.358c0-1.049.089-2.141,0-3.186a1.116,1.116,0,0,1,0-.14.5.5,0,0,0-.492-.49H-146.7a24.241,24.241,0,0,0-2.956,0,1,1,0,0,1-.132,0,.5.5,0,0,0-.49.49V774.55c0,1.049-.091,2.142,0,3.186,0,.046,0,.093,0,.14a.5.5,0,0,0,.49.49H-77.08a24.272,24.272,0,0,0,2.958,0,.97.97,0,0,1,.13,0A.491.491,0,0,0-73.993,777.385Z" transform="translate(150.322 -695.489)" fill="#124c64"/>
              </g>
            </g>
          </g>
          <g id="Grupo_55852" data-name="Grupo 55852" transform="translate(6.169 9.63)">
            <g id="Grupo_55834" data-name="Grupo 55834">
              <g id="Grupo_55831" data-name="Grupo 55831" transform="translate(0.591 0.581)">
                <g id="Grupo_55829" data-name="Grupo 55829" transform="translate(0 31.886)">
                  <path id="Trazado_100828" data-name="Trazado 100828" d="M-125.026,718.1h-7.121a.446.446,0,0,1-.446-.446.445.445,0,0,1,.446-.444h7.121a.445.445,0,0,1,.446.444A.446.446,0,0,1-125.026,718.1Zm-14.241,0h-7.121a.446.446,0,0,1-.446-.446.445.445,0,0,1,.446-.444h7.121a.445.445,0,0,1,.444.444A.446.446,0,0,1-139.268,718.1Z" transform="translate(146.834 -717.209)" fill="#ffcd91"/>
                </g>
                <g id="Grupo_55830" data-name="Grupo 55830" transform="translate(15.09)">
                  <path id="Trazado_100829" data-name="Trazado 100829" d="M-138.6,708.49a.439.439,0,0,1-.122-.018.446.446,0,0,1-.324-.428V701.2a.445.445,0,0,1,.446-.444.445.445,0,0,1,.444.444v6.278a.445.445,0,0,1,.081.564l-.147.236A.45.45,0,0,1-138.6,708.49Zm3.867-6.311a.426.426,0,0,1-.235-.066.446.446,0,0,1-.145-.612l.074-.118a.44.44,0,0,1,.612-.145.448.448,0,0,1,.145.614l-.074.118A.443.443,0,0,1-134.736,702.18Z" transform="translate(139.048 -700.757)" fill="#ffcd91"/>
                </g>
              </g>
              <g id="Grupo_55833" data-name="Grupo 55833">
                <g id="Grupo_55832" data-name="Grupo 55832">
                  <path id="Trazado_100830" data-name="Trazado 100830" d="M-115.377,763.134h-31.272l.49.49.322-17.775.51-28.3.116-6.448-.49.49A10.809,10.809,0,0,0-141.036,710a11.975,11.975,0,0,0,5.419-8.919l-.473.36,12.859,1.353-.473-.62a28.063,28.063,0,0,0-.667,5.923c-.048,3.407.469,7.132,2.607,9.9a9.3,9.3,0,0,0,5.307,3.324l-.293-.721a56.507,56.507,0,0,0-4.746,8.576,7.494,7.494,0,0,0-.839,3.584c.1,1.018.293,2.029.475,3.035,1.328,7.28,2.987,14.505,4.6,21.725q.7,3.119,1.407,6.237c.141.614,1.087.355.948-.262q-1.768-7.73-3.446-15.484c-.785-3.622-1.562-7.249-2.264-10.888-.391-2.031-1.124-4.281-.461-6.314A43.144,43.144,0,0,1-115.9,721.1a.494.494,0,0,0-.293-.721c-7.136-1.7-7.754-10-6.9-16.04.089-.636.192-1.275.339-1.9a.5.5,0,0,0-.475-.62q-6.428-.677-12.859-1.353a.488.488,0,0,0-.473.359c-.469,3.444-2.035,6.617-5.1,8.415a10.242,10.242,0,0,1-4.033,1.378.5.5,0,0,0-.49.49l-.322,17.777-.51,28.3-.116,6.448a.5.5,0,0,0,.49.492h31.272A.492.492,0,0,0-115.377,763.134Z" transform="translate(147.139 -700.457)" fill="#124c64"/>
                </g>
              </g>
            </g>
            <g id="Grupo_55851" data-name="Grupo 55851" transform="translate(37.65 4.874)">
              <g id="Grupo_55845" data-name="Grupo 55845">
                <g id="Grupo_55836" data-name="Grupo 55836" transform="translate(2.03)">
                  <g id="Grupo_55835" data-name="Grupo 55835">
                    <path id="Trazado_100831" data-name="Trazado 100831" d="M-126.192,703.953h23.149a.491.491,0,0,0,0-.981h-23.149a.491.491,0,0,0,0,.981Z" transform="translate(126.665 -702.972)" fill="#124c64"/>
                  </g>
                </g>
                <g id="Grupo_55838" data-name="Grupo 55838" transform="translate(6.633 4.77)">
                  <g id="Grupo_55837" data-name="Grupo 55837">
                    <path id="Trazado_100832" data-name="Trazado 100832" d="M-123.816,706.416h18.546a.492.492,0,0,0,0-.983h-18.546a.492.492,0,0,0,0,.983Z" transform="translate(124.291 -705.433)" fill="#124c64"/>
                  </g>
                </g>
                <g id="Grupo_55840" data-name="Grupo 55840" transform="translate(0 9.541)">
                  <g id="Grupo_55839" data-name="Grupo 55839">
                    <path id="Trazado_100833" data-name="Trazado 100833" d="M-127.24,708.876h25.18a.491.491,0,0,0,0-.981h-25.18a.491.491,0,0,0,0,.981Z" transform="translate(127.713 -707.895)" fill="#124c64"/>
                  </g>
                </g>
                <g id="Grupo_55842" data-name="Grupo 55842" transform="translate(2.166 14.311)">
                  <g id="Grupo_55841" data-name="Grupo 55841">
                    <path id="Trazado_100834" data-name="Trazado 100834" d="M-126.122,711.337h23.013a.491.491,0,0,0,0-.981h-23.013a.491.491,0,0,0,0,.981Z" transform="translate(126.595 -710.356)" fill="#124c64"/>
                  </g>
                </g>
                <g id="Grupo_55844" data-name="Grupo 55844" transform="translate(6.768 19.081)">
                  <g id="Grupo_55843" data-name="Grupo 55843">
                    <path id="Trazado_100835" data-name="Trazado 100835" d="M-123.746,713.8h18.41a.492.492,0,0,0,0-.983h-18.41a.492.492,0,0,0,0,.983Z" transform="translate(124.221 -712.817)" fill="#124c64"/>
                  </g>
                </g>
              </g>
              <g id="Grupo_55850" data-name="Grupo 55850" transform="translate(0.406 43.724)">
                <g id="Grupo_55847" data-name="Grupo 55847" transform="translate(3.52)">
                  <g id="Grupo_55846" data-name="Grupo 55846">
                    <path id="Trazado_100836" data-name="Trazado 100836" d="M-125.214,726.515h21.659a.492.492,0,0,0,0-.983h-21.659a.492.492,0,0,0,0,.983Z" transform="translate(125.687 -725.532)" fill="#124c64"/>
                  </g>
                </g>
                <g id="Grupo_55849" data-name="Grupo 55849" transform="translate(0 6.227)">
                  <g id="Grupo_55848" data-name="Grupo 55848">
                    <path id="Trazado_100837" data-name="Trazado 100837" d="M-127.03,729.728h25.178a.492.492,0,0,0,0-.983H-127.03a.492.492,0,0,0,0,.983Z" transform="translate(127.504 -728.745)" fill="#124c64"/>
                  </g>
                </g>
              </g>
            </g>
          </g>
        </g>
        <g id="Grupo_55858" data-name="Grupo 55858" transform="translate(34.145 5.303)">
          <g id="Grupo_55857" data-name="Grupo 55857">
            <g id="Grupo_55854" data-name="Grupo 55854" transform="translate(0.481 0.488)">
              <circle id="Elipse_10" data-name="Elipse 10" cx="3.805" cy="3.805" r="3.805" fill="#fff"/>
            </g>
            <g id="Grupo_55856" data-name="Grupo 55856">
              <g id="Grupo_55855" data-name="Grupo 55855">
                <path id="Trazado_100838" data-name="Trazado 100838" d="M-125.1,702.519a3.351,3.351,0,0,1-2.175,3.115A3.36,3.36,0,0,1-131,704.606a3.345,3.345,0,0,1-.267-3.789,3.34,3.34,0,0,1,3.444-1.562,3.359,3.359,0,0,1,2.715,3.264.491.491,0,0,0,.981,0,4.355,4.355,0,0,0-2.8-4.027,4.316,4.316,0,0,0-4.8,1.283,4.342,4.342,0,0,0-.39,4.94,4.35,4.35,0,0,0,4.5,2.021,4.339,4.339,0,0,0,3.487-4.217A.491.491,0,0,0-125.1,702.519Z" transform="translate(132.705 -698.224)" fill="#124c64"/>
              </g>
            </g>
          </g>
        </g>
      </g>
      <g id="Grupo_55883" data-name="Grupo 55883" transform="translate(0 74.421)">
        <g id="Grupo_55877" data-name="Grupo 55877">
          <g id="Grupo_55863" data-name="Grupo 55863">
            <g id="Grupo_55860" data-name="Grupo 55860" transform="translate(0.491 0.491)">
              <rect id="Rectángulo_5361" data-name="Rectángulo 5361" width="53.543" height="33.664" fill="#dcbfff"/>
            </g>
            <g id="Grupo_55862" data-name="Grupo 55862">
              <g id="Grupo_55861" data-name="Grupo 55861">
                <path id="Trazado_100839" data-name="Trazado 100839" d="M-116.925,767.552H-170.47l.49.49V734.377l-.49.492h53.545l-.49-.492v33.665a.491.491,0,0,0,.981,0V734.377a.5.5,0,0,0-.49-.49H-170.47a.5.5,0,0,0-.49.49v33.665a.5.5,0,0,0,.49.49h53.545A.491.491,0,0,0-116.925,767.552Z" transform="translate(170.96 -733.887)" fill="#124c64"/>
              </g>
            </g>
          </g>
          <g id="Grupo_55876" data-name="Grupo 55876" transform="translate(6.629 9.753)">
            <g id="Grupo_55865" data-name="Grupo 55865" transform="translate(4.807)">
              <g id="Grupo_55864" data-name="Grupo 55864">
                <path id="Trazado_100840" data-name="Trazado 100840" d="M-164.776,739.506h31.636a.294.294,0,0,0,0-.587h-31.636a.294.294,0,0,0,0,.587Z" transform="translate(165.059 -738.919)" fill="#124c64"/>
              </g>
            </g>
            <g id="Grupo_55867" data-name="Grupo 55867" transform="translate(0 3.929)">
              <g id="Grupo_55866" data-name="Grupo 55866">
                <path id="Trazado_100841" data-name="Trazado 100841" d="M-167.255,741.533h41.249a.294.294,0,0,0,0-.587h-41.249a.294.294,0,0,0,0,.587Z" transform="translate(167.54 -740.946)" fill="#124c64"/>
              </g>
            </g>
            <g id="Grupo_55869" data-name="Grupo 55869" transform="translate(6.564 7.857)">
              <g id="Grupo_55868" data-name="Grupo 55868">
                <path id="Trazado_100842" data-name="Trazado 100842" d="M-163.868,743.56h28.12a.294.294,0,0,0,0-.587h-28.12a.294.294,0,0,0,0,.587Z" transform="translate(164.153 -742.973)" fill="#124c64"/>
              </g>
            </g>
            <g id="Grupo_55871" data-name="Grupo 55871" transform="translate(1.447 11.786)">
              <g id="Grupo_55870" data-name="Grupo 55870">
                <path id="Trazado_100843" data-name="Trazado 100843" d="M-166.508,745.587h38.356a.294.294,0,0,0,0-.587h-38.356a.294.294,0,0,0,0,.587Z" transform="translate(166.793 -745)" fill="#124c64"/>
              </g>
            </g>
            <g id="Grupo_55873" data-name="Grupo 55873" transform="translate(12.354 15.714)">
              <g id="Grupo_55872" data-name="Grupo 55872">
                <path id="Trazado_100844" data-name="Trazado 100844" d="M-160.882,747.614h16.542a.294.294,0,0,0,0-.587h-16.542a.294.294,0,0,0,0,.587Z" transform="translate(161.165 -747.027)" fill="#124c64"/>
              </g>
            </g>
            <g id="Grupo_55875" data-name="Grupo 55875" transform="translate(1.964 19.643)">
              <g id="Grupo_55874" data-name="Grupo 55874">
                <path id="Trazado_100845" data-name="Trazado 100845" d="M-166.243,749.641h37.323a.294.294,0,0,0,0-.587h-37.323a.294.294,0,0,0,0,.587Z" transform="translate(166.526 -749.054)" fill="#124c64"/>
              </g>
            </g>
          </g>
        </g>
        <g id="Grupo_55882" data-name="Grupo 55882" transform="translate(24.069 2.326)">
          <g id="Grupo_55881" data-name="Grupo 55881">
            <g id="Grupo_55878" data-name="Grupo 55878" transform="translate(0.288 0.292)">
              <path id="Trazado_100846" data-name="Trazado 100846" d="M-152.581,738.143a2.907,2.907,0,0,1-2.907,2.907,2.907,2.907,0,0,1-2.905-2.907,2.905,2.905,0,0,1,2.905-2.905A2.905,2.905,0,0,1-152.581,738.143Z" transform="translate(158.393 -735.238)" fill="#fff"/>
            </g>
            <g id="Grupo_55880" data-name="Grupo 55880">
              <g id="Grupo_55879" data-name="Grupo 55879">
                <path id="Trazado_100847" data-name="Trazado 100847" d="M-152.736,738.285a2.639,2.639,0,0,1-1.721,2.456,2.637,2.637,0,0,1-2.915-.8,2.629,2.629,0,0,1-.217-2.99,2.631,2.631,0,0,1,2.719-1.229,2.643,2.643,0,0,1,2.134,2.568.3.3,0,0,0,.589,0,3.245,3.245,0,0,0-2.081-3,3.219,3.219,0,0,0-3.586.959,3.233,3.233,0,0,0-.285,3.675,3.24,3.24,0,0,0,3.347,1.506,3.234,3.234,0,0,0,2.6-3.144A.3.3,0,0,0-152.736,738.285Z" transform="translate(158.541 -735.087)" fill="#124c64"/>
              </g>
            </g>
          </g>
        </g>
      </g>
    </g>
    <path id="Trazado_100848" data-name="Trazado 100848" d="M-129.768,822.246H77.517c2.8,0,5.6.1,8.4,0,.122,0,.244,0,.366,0,.514,0,.514-1.963,0-1.963H-121c-2.8,0-5.6-.1-8.4,0-.122.006-.244,0-.368,0-.512,0-.514,1.963,0,1.963Z" transform="translate(38.283 149.059)" fill="#124c64"/>
    <g id="Grupo_56033" data-name="Grupo 56033" transform="translate(-92.75 680.83)">
      <g id="Grupo_55902" data-name="Grupo 55902" transform="translate(113.157 17.955)">
        <path id="Trazado_100849" data-name="Trazado 100849" d="M-7.868,680.665s-35.906,29.363-64.354,29.907l4.993,32.487s41.972-5.618,61.187-29.954L6.828,697.131Z" transform="translate(72.222 -680.665)" fill="#ea526f"/>
        <g id="Grupo_55901" data-name="Grupo 55901" transform="translate(7.516 11.488)">
          <g id="Grupo_55885" data-name="Grupo 55885" transform="translate(4.212 29.473)">
            <path id="Trazado_100850" data-name="Trazado 100850" d="M-63.035,703.669l-3-1.37a.274.274,0,0,1-.1-.37.277.277,0,0,1,.372-.1l3,1.368a.273.273,0,0,1,.1.372.278.278,0,0,1-.37.1Z" transform="translate(66.171 -701.799)" fill="#fff"/>
          </g>
          <g id="Grupo_55886" data-name="Grupo 55886" transform="translate(0 21.531)">
            <path id="Trazado_100851" data-name="Trazado 100851" d="M-65.894,698.108a35.8,35.8,0,0,1-1.942,3.055.276.276,0,0,1-.37.1.272.272,0,0,1-.1-.37q1.047-1.477,1.944-3.054a.271.271,0,0,1,.467.273Z" transform="translate(68.344 -697.702)" fill="#fff"/>
          </g>
          <g id="Grupo_55887" data-name="Grupo 55887" transform="translate(6.955 18.781)">
            <path id="Trazado_100852" data-name="Trazado 100852" d="M-61.386,699.123q-1.619-1.166-3.237-2.333a.279.279,0,0,1-.1-.37.274.274,0,0,1,.372-.1l3.235,2.332a.278.278,0,0,1,.1.37.273.273,0,0,1-.37.1Z" transform="translate(64.755 -696.283)" fill="#fff"/>
          </g>
          <g id="Grupo_55888" data-name="Grupo 55888" transform="translate(15.248 29.764)">
            <path id="Trazado_100853" data-name="Trazado 100853" d="M-58.883,702.28q-.526,1.509-1.054,3.018c-.114.328-.638.188-.523-.143q.529-1.509,1.054-3.02c.114-.328.64-.186.523.146Z" transform="translate(60.476 -701.949)" fill="#fff"/>
          </g>
          <g id="Grupo_55889" data-name="Grupo 55889" transform="translate(7.049 36.928)">
            <path id="Trazado_100854" data-name="Trazado 100854" d="M-62.492,707.472l-2.082-1.32a.276.276,0,0,1-.1-.372.274.274,0,0,1,.37-.1l2.082,1.32a.278.278,0,0,1,.1.372.275.275,0,0,1-.37.1Z" transform="translate(64.707 -705.646)" fill="#fff"/>
          </g>
          <g id="Grupo_55890" data-name="Grupo 55890" transform="translate(21.686 34.387)">
            <path id="Trazado_100855" data-name="Trazado 100855" d="M-55.688,705.87l-1.331-1.027a.294.294,0,0,1-.126-.163.276.276,0,0,1,.027-.207.277.277,0,0,1,.372-.1q.666.515,1.331,1.027a.308.308,0,0,1,.126.163.281.281,0,0,1-.027.209.275.275,0,0,1-.372.1Z" transform="translate(57.155 -704.335)" fill="#fff"/>
          </g>
          <g id="Grupo_55891" data-name="Grupo 55891" transform="translate(17.462 19.268)">
            <path id="Trazado_100856" data-name="Trazado 100856" d="M-57.041,696.941q-.9,1.657-1.791,3.31c-.165.308-.634.035-.467-.273l1.791-3.31c.165-.306.634-.033.467.273Z" transform="translate(59.334 -696.534)" fill="#fff"/>
          </g>
          <g id="Grupo_55892" data-name="Grupo 55892" transform="translate(25.482 25.686)">
            <path id="Trazado_100857" data-name="Trazado 100857" d="M-51.816,700.388h-3.118a.272.272,0,0,1,0-.543h3.118a.271.271,0,0,1,0,.543Z" transform="translate(55.196 -699.845)" fill="#fff"/>
          </g>
          <g id="Grupo_55893" data-name="Grupo 55893" transform="translate(27.488 12.927)">
            <path id="Trazado_100858" data-name="Trazado 100858" d="M-54.161,696.09l.223-2.558a.278.278,0,0,1,.271-.269.272.272,0,0,1,.271.269l-.223,2.558a.28.28,0,0,1-.271.271.273.273,0,0,1-.271-.271Z" transform="translate(54.161 -693.262)" fill="#fff"/>
          </g>
          <g id="Grupo_55894" data-name="Grupo 55894" transform="translate(35.041 19.331)">
            <path id="Trazado_100859" data-name="Trazado 100859" d="M-45.74,698.822l-4.341-1.711c-.322-.128-.182-.653.143-.523l4.343,1.711c.32.126.18.651-.145.523Z" transform="translate(50.264 -696.566)" fill="#fff"/>
          </g>
          <g id="Grupo_55895" data-name="Grupo 55895" transform="translate(37.748 28.627)">
            <path id="Trazado_100860" data-name="Trazado 100860" d="M-47.847,701.7a13.664,13.664,0,0,0-.492,2.169.274.274,0,0,1-.333.19.277.277,0,0,1-.19-.333,13.9,13.9,0,0,1,.492-2.171c.1-.331.628-.19.523.145Z" transform="translate(48.867 -701.363)" fill="#fff"/>
          </g>
          <g id="Grupo_55896" data-name="Grupo 55896" transform="translate(39.256 8.398)">
            <path id="Trazado_100861" data-name="Trazado 100861" d="M-48.088,693.836a20.473,20.473,0,0,1,.492-2.717.271.271,0,0,1,.523.143,19.331,19.331,0,0,0-.473,2.574.279.279,0,0,1-.271.271.275.275,0,0,1-.271-.271Z" transform="translate(48.09 -690.925)" fill="#fff"/>
          </g>
          <g id="Grupo_55897" data-name="Grupo 55897" transform="translate(46.931 19.348)">
            <path id="Trazado_100862" data-name="Trazado 100862" d="M-39.706,697.6a26.718,26.718,0,0,1-4.227-.5c-.343-.068-.2-.591.143-.523a25.834,25.834,0,0,0,4.084.481c.349.012.351.554,0,.541Z" transform="translate(44.129 -696.575)" fill="#fff"/>
          </g>
          <g id="Grupo_55898" data-name="Grupo 55898" transform="translate(47.778 10.48)">
            <path id="Trazado_100863" data-name="Trazado 100863" d="M-41.147,692.46l-2.083,1.884a.277.277,0,0,1-.384,0,.274.274,0,0,1,0-.384l2.083-1.884a.277.277,0,0,1,.384,0,.275.275,0,0,1,0,.384Z" transform="translate(43.693 -691.999)" fill="#fff"/>
          </g>
          <g id="Grupo_55899" data-name="Grupo 55899" transform="translate(50.61)">
            <path id="Trazado_100864" data-name="Trazado 100864" d="M-40.043,687.464l-1.99-.343a.275.275,0,0,1-.19-.333.279.279,0,0,1,.335-.19l1.99.343a.272.272,0,0,1,.188.333.276.276,0,0,1-.333.19Z" transform="translate(42.231 -686.592)" fill="#fff"/>
          </g>
          <g id="Grupo_55900" data-name="Grupo 55900" transform="translate(59.697 7.448)">
            <path id="Trazado_100865" data-name="Trazado 100865" d="M-36.723,690.706q-.137,1.04-.275,2.08a.28.28,0,0,1-.271.271.272.272,0,0,1-.271-.271q.14-1.038.275-2.08a.28.28,0,0,1,.271-.271c.132,0,.291.126.271.271Z" transform="translate(37.543 -690.435)" fill="#fff"/>
          </g>
        </g>
      </g>
      <g id="Grupo_55950" data-name="Grupo 55950" transform="translate(0 106.927)">
        <g id="Grupo_55924" data-name="Grupo 55924">
          <g id="Grupo_55920" data-name="Grupo 55920" transform="translate(0 51.709)">
            <g id="Grupo_55904" data-name="Grupo 55904" transform="translate(32.452 13.535)">
              <path id="Trazado_100866" data-name="Trazado 100866" d="M-113.862,772.492l20.079,9.574,5.1-12.053-20.508-9.778Z" transform="translate(113.862 -760.235)" fill="#fff"/>
              <g id="Grupo_55903" data-name="Grupo 55903" transform="translate(3.58 3.953)">
                <path id="Trazado_100867" data-name="Trazado 100867" d="M-108.474,762.516a2.475,2.475,0,0,0-3.3,1.169,2.478,2.478,0,0,0,1.171,3.3,2.475,2.475,0,0,0,3.3-1.169A2.475,2.475,0,0,0-108.474,762.516Z" transform="translate(112.015 -762.274)" fill="#ea526f"/>
                <path id="Trazado_100868" data-name="Trazado 100868" d="M-105.006,762.656a2.306,2.306,0,0,0-3.074,1.089,2.308,2.308,0,0,0,1.089,3.074,2.306,2.306,0,0,0,3.074-1.089A2.306,2.306,0,0,0-105.006,762.656Z" transform="translate(115.497 -762.127)" fill="#ea526f"/>
                <path id="Trazado_100869" data-name="Trazado 100869" d="M-103.794,766.03a2.232,2.232,0,0,0-2.977,1.054,2.235,2.235,0,0,0,1.056,2.977,2.231,2.231,0,0,0,2.975-1.054A2.232,2.232,0,0,0-103.794,766.03Z" transform="translate(116.731 -758.956)" fill="#ea526f"/>
                <path id="Trazado_100870" data-name="Trazado 100870" d="M-106.267,770.2a2.589,2.589,0,0,1-.729.907l-4.25-2.027a2.61,2.61,0,0,1,.246-1.138,2.621,2.621,0,0,1,3.494-1.236A2.622,2.622,0,0,1-106.267,770.2Z" transform="translate(112.737 -758.358)" fill="#ea526f"/>
                <path id="Trazado_100871" data-name="Trazado 100871" d="M-105.335,771.583a2.7,2.7,0,0,1,.153-.428,2.719,2.719,0,0,1,3.624-1.285,2.7,2.7,0,0,1,.913.717l-1.138,2.69Z" transform="translate(118.282 -755.397)" fill="#ea526f"/>
                <path id="Trazado_100872" data-name="Trazado 100872" d="M-98.747,766.034a2.272,2.272,0,0,1,0,.574l-.516,1.217a2.307,2.307,0,0,1-2.77.614,2.31,2.31,0,0,1-1.093-3.082,2.311,2.311,0,0,1,.893-.984Z" transform="translate(120.145 -760.305)" fill="#ea526f"/>
              </g>
            </g>
            <g id="Grupo_55919" data-name="Grupo 55919">
              <path id="Trazado_100873" data-name="Trazado 100873" d="M-130.266,792.267l18.758-38.661,22.448,11.951-10.013,17.55-9.207-3.774Z" transform="translate(130.926 -752.918)" fill="#fff"/>
              <g id="Grupo_55913" data-name="Grupo 55913" transform="translate(11.28 24.701)">
                <g id="Grupo_55909" data-name="Grupo 55909">
                  <g id="Grupo_55906" data-name="Grupo 55906" transform="translate(0 2.616)">
                    <line id="Línea_151" data-name="Línea 151" x1="4.148" y1="4.948" transform="translate(0.389 0.424)" fill="#263238"/>
                    <g id="Grupo_55905" data-name="Grupo 55905">
                      <path id="Trazado_100874" data-name="Trazado 100874" d="M-120.537,773l-3.638-4.338-.51-.609c-.335-.4.238-.979.576-.576q1.817,2.169,3.636,4.338l.51.61c.335.4-.238.977-.574.574Z" transform="translate(124.786 -767.346)" fill="#124c64"/>
                    </g>
                  </g>
                  <g id="Grupo_55908" data-name="Grupo 55908" transform="translate(3.667)">
                    <line id="Línea_152" data-name="Línea 152" x1="4.147" y1="4.948" transform="translate(0.389 0.423)" fill="#263238"/>
                    <g id="Grupo_55907" data-name="Grupo 55907">
                      <path id="Trazado_100875" data-name="Trazado 100875" d="M-118.645,771.655q-1.82-2.169-3.636-4.339l-.512-.609c-.335-.4.238-.977.576-.576q1.817,2.169,3.636,4.338l.512.61c.333.4-.238.977-.576.576Z" transform="translate(122.894 -765.996)" fill="#124c64"/>
                    </g>
                  </g>
                </g>
                <g id="Grupo_55912" data-name="Grupo 55912" transform="translate(9.811 2.324)">
                  <g id="Grupo_55910" data-name="Grupo 55910" transform="translate(0 0.353)">
                    <path id="Trazado_100876" data-name="Trazado 100876" d="M-118.827,767.768a41.354,41.354,0,0,0-.045,4.188,25.906,25.906,0,0,0,.318,3.463,7.689,7.689,0,0,0,.905,2.832,1.426,1.426,0,0,0,1.742.68,1.4,1.4,0,0,0,1.107-1.388,6.442,6.442,0,0,0-.612-2.651,22.482,22.482,0,0,0-1.537-3,39.5,39.5,0,0,0-2.636-3.915c-.32-.415.388-.82.7-.411a39.35,39.35,0,0,1,2.5,3.694,24.479,24.479,0,0,1,1.676,3.237,7.476,7.476,0,0,1,.719,2.979,2.248,2.248,0,0,1-1.122,2.021,2.472,2.472,0,0,1-2.483,0,4.261,4.261,0,0,1-1.419-2.386,17.884,17.884,0,0,1-.589-3.58,39.714,39.714,0,0,1-.045-5.762C-119.606,767.249-118.792,767.245-118.827,767.768Z" transform="translate(119.724 -767.377)" fill="#124c64"/>
                  </g>
                  <g id="Grupo_55911" data-name="Grupo 55911" transform="translate(0.019)">
                    <path id="Trazado_100877" data-name="Trazado 100877" d="M-111.012,775.112l-7.5-6.336-1.068-.9c-.4-.339.176-.913.576-.576q3.747,3.166,7.5,6.336l1.068.9c.4.337-.176.911-.574.576Z" transform="translate(119.714 -767.195)" fill="#124c64"/>
                  </g>
                </g>
              </g>
              <g id="Grupo_55915" data-name="Grupo 55915" transform="translate(14.903 0.019)">
                <path id="Trazado_100878" data-name="Trazado 100878" d="M-109.2,758.678a8.98,8.98,0,0,1-11.836,3.8,9.051,9.051,0,0,1-1.535-.95l3.845-7.923Z" transform="translate(123.241 -752.937)" fill="#124c64"/>
                <g id="Grupo_55914" data-name="Grupo 55914">
                  <path id="Trazado_100879" data-name="Trazado 100879" d="M-108.292,759.345a9.758,9.758,0,0,1-14.3,3.1.7.7,0,0,1-.244-.928q1.925-3.962,3.845-7.923a.687.687,0,0,1,.926-.244l9.526,5.072c.771.411.087,1.581-.684,1.171l-9.526-5.072.928-.242-3.843,7.923-.244-.928a8.44,8.44,0,0,0,7.024,1.548,8.435,8.435,0,0,0,5.419-4.157C-109.04,757.9-107.869,758.579-108.292,759.345Z" transform="translate(122.917 -753.261)" fill="#124c64"/>
                </g>
              </g>
              <g id="Grupo_55918" data-name="Grupo 55918">
                <g id="Grupo_55916" data-name="Grupo 55916">
                  <path id="Trazado_100880" data-name="Trazado 100880" d="M-130.532,792.258q8.23-16.964,16.462-33.931,1.145-2.364,2.295-4.729c.38-.785,1.551-.1,1.171.684q-8.23,16.966-16.462,33.931-1.148,2.364-2.295,4.731c-.382.785-1.551.1-1.171-.686Z" transform="translate(130.607 -753.251)" fill="#124c64"/>
                </g>
                <g id="Grupo_55917" data-name="Grupo 55917" transform="translate(31.172 11.967)">
                  <path id="Trazado_100881" data-name="Trazado 100881" d="M-103.245,760.44q-4.387,7.692-8.776,15.381-.619,1.084-1.237,2.169a.678.678,0,0,1-1.171-.684q4.387-7.69,8.776-15.381l1.237-2.169a.678.678,0,0,1,1.171.684Z" transform="translate(114.523 -759.426)" fill="#124c64"/>
                </g>
              </g>
            </g>
          </g>
          <path id="Trazado_100882" data-name="Trazado 100882" d="M-78.188,823.336s6.969-2.08,14.9-14.553S-30.32,761.36-30.32,761.36l-40.02-34.789-18.054,65.172-12.175,1.415-7.006,21.166S-85.466,828.055-78.188,823.336Z" transform="translate(152.212 -726.571)" fill="#31d9e7"/>
          <g id="Grupo_55922" data-name="Grupo 55922" transform="translate(43.956 65.139)">
            <path id="Trazado_100883" data-name="Trazado 100883" d="M-94,760.533c-1.917,5.905-5.295,18.05-7.966,25.236-2.7-1.467-5.607-3.306-5.607-3.306l7.006-21.166Z" transform="translate(108.257 -759.85)" fill="#2ab9c4"/>
            <g id="Grupo_55921" data-name="Grupo 55921">
              <path id="Trazado_100884" data-name="Trazado 100884" d="M-93.021,761.044c-2.711,8.392-4.905,16.959-7.966,25.236a.688.688,0,0,1-1,.405q-2.852-1.564-5.605-3.307a.693.693,0,0,1-.312-.766q3.061-9.254,6.124-18.505.439-1.331.88-2.661a.713.713,0,0,1,.655-.5l6.566-.764c.864-.1.857,1.258,0,1.357l-6.566.762.653-.5q-3.061,9.254-6.124,18.505-.439,1.331-.88,2.663l-.312-.765q2.75,1.736,5.605,3.306l-.994.4c3.058-8.278,5.252-16.844,7.964-25.236C-94.061,759.858-92.751,760.211-93.021,761.044Z" transform="translate(107.927 -760.18)" fill="#124c64"/>
            </g>
          </g>
          <g id="Grupo_55923" data-name="Grupo 55923" transform="translate(43.956 2.741)">
            <path id="Trazado_100885" data-name="Trazado 100885" d="M-99.587,792.011q-3.5,10.582-7,21.166l-.312-.765a84.5,84.5,0,0,0,17,8.26c3.194,1.091,7.349,2.446,10.7,1.245a20.572,20.572,0,0,0,5.084-2.8c4.551-3.332,7.972-7.954,10.993-12.652,1.989-3.091,4.053-6.134,6.126-9.171,5.326-7.8,10.755-15.522,16.2-23.232q5.09-7.2,10.218-14.371l.1.822-11.464-10.557-18.4-16.943-4.219-3.884c-.642-.591.318-1.548.959-.957q5.733,5.277,11.466,10.557,9.2,8.468,18.4,16.941l4.217,3.884a.683.683,0,0,1,.107.822c-8.572,11.972-17.087,23.99-25.415,36.133-2.242,3.27-4.475,6.547-6.634,9.871-3,4.611-6.15,9.129-10.406,12.679a27.3,27.3,0,0,1-5.807,3.6c-3.043,1.477-6.374,1.056-9.609.221-7.138-1.843-14.063-5.425-20.312-9.3a.691.691,0,0,1-.312-.766q3.5-10.585,7-21.166c.273-.826,1.583-.473,1.308.36Z" transform="translate(107.927 -727.985)" fill="#124c64"/>
          </g>
        </g>
        <g id="Grupo_55949" data-name="Grupo 55949" transform="translate(78.979 8.121)">
          <g id="Grupo_55942" data-name="Grupo 55942" transform="translate(14.274 109.393)">
            <g id="Grupo_55926" data-name="Grupo 55926" transform="translate(4.806)">
              <path id="Trazado_100886" data-name="Trazado 100886" d="M-66.93,809.448l.159-22.244-13.079.489-.162,22.719Z" transform="translate(80.012 -787.204)" fill="#fff"/>
              <g id="Grupo_55925" data-name="Grupo 55925" transform="translate(0.075)">
                <path id="Trazado_100887" data-name="Trazado 100887" d="M-78.587,798.306a2.476,2.476,0,0,0,2.458,2.494,2.476,2.476,0,0,0,2.494-2.458,2.477,2.477,0,0,0-2.459-2.494A2.476,2.476,0,0,0-78.587,798.306Z" transform="translate(81.273 -779.095)" fill="#ea526f"/>
                <path id="Trazado_100888" data-name="Trazado 100888" d="M-79.973,794.914a2.305,2.305,0,0,0,2.289,2.322,2.3,2.3,0,0,0,2.322-2.289,2.3,2.3,0,0,0-2.289-2.322A2.3,2.3,0,0,0-79.973,794.914Z" transform="translate(79.973 -782.119)" fill="#ea526f"/>
                <path id="Trazado_100889" data-name="Trazado 100889" d="M-77.45,792.3a2.234,2.234,0,0,0,2.217,2.25,2.233,2.233,0,0,0,2.248-2.217,2.234,2.234,0,0,0-2.217-2.25A2.233,2.233,0,0,0-77.45,792.3Z" transform="translate(82.34 -784.499)" fill="#ea526f"/>
                <path id="Trazado_100890" data-name="Trazado 100890" d="M-72.529,793.211a2.606,2.606,0,0,1,1.13.275l-.033,4.71a2.59,2.59,0,0,1-1.134.258,2.62,2.62,0,0,1-2.6-2.64A2.621,2.621,0,0,1-72.529,793.211Z" transform="translate(84.48 -781.569)" fill="#ea526f"/>
                <path id="Trazado_100891" data-name="Trazado 100891" d="M-71.668,791.138a2.5,2.5,0,0,1-.454.043,2.718,2.718,0,0,1-2.7-2.737,2.725,2.725,0,0,1,.262-1.132l2.919-.109Z" transform="translate(84.806 -787.204)" fill="#ea526f"/>
                <path id="Trazado_100892" data-name="Trazado 100892" d="M-79.916,787.714a2.367,2.367,0,0,1,.519-.244l1.322-.048a2.308,2.308,0,0,1,1.731,2.248,2.312,2.312,0,0,1-2.33,2.295,2.285,2.285,0,0,1-1.269-.392Z" transform="translate(80.001 -787)" fill="#ea526f"/>
              </g>
            </g>
            <g id="Grupo_55941" data-name="Grupo 55941" transform="translate(0 19.333)">
              <path id="Trazado_100893" data-name="Trazado 100893" d="M-81.124,797.522l20.482,3.4.312,17.889-1.38-2.755,2.339,4.67,10.587,20.145-33.357-18.68Z" transform="translate(82.82 -796.858)" fill="#fff"/>
              <g id="Grupo_55935" data-name="Grupo 55935" transform="translate(21.391 16.921)">
                <g id="Grupo_55931" data-name="Grupo 55931" transform="translate(0 9.36)">
                  <g id="Grupo_55928" data-name="Grupo 55928" transform="translate(2.189 3.427)">
                    <line id="Línea_153" data-name="Línea 153" x1="4.651" y2="3.51" transform="translate(0.407 0.411)" fill="#263238"/>
                    <g id="Grupo_55927" data-name="Grupo 55927">
                      <path id="Trazado_100894" data-name="Trazado 100894" d="M-65.061,813.268q-2.035,1.538-4.072,3.072l-.579.438a.407.407,0,0,1-.556-.145.415.415,0,0,1,.145-.556q2.035-1.538,4.072-3.072l.58-.438a.41.41,0,0,1,.556.145.415.415,0,0,1-.145.556Z" transform="translate(70.325 -812.507)" fill="#124c64"/>
                    </g>
                  </g>
                  <g id="Grupo_55930" data-name="Grupo 55930">
                    <line id="Línea_154" data-name="Línea 154" x1="4.651" y2="3.509" transform="translate(0.407 0.411)" fill="#263238"/>
                    <g id="Grupo_55929" data-name="Grupo 55929">
                      <path id="Trazado_100895" data-name="Trazado 100895" d="M-66.19,811.5l-4.072,3.072-.58.436a.409.409,0,0,1-.558-.145.418.418,0,0,1,.147-.556l4.07-3.072.581-.438a.411.411,0,0,1,.556.145.42.42,0,0,1-.145.558Z" transform="translate(71.454 -810.739)" fill="#124c64"/>
                    </g>
                  </g>
                </g>
                <g id="Grupo_55934" data-name="Grupo 55934" transform="translate(2.357)">
                  <g id="Grupo_55932" data-name="Grupo 55932" transform="translate(0.335 3.44)">
                    <path id="Trazado_100896" data-name="Trazado 100896" d="M-69.677,811.612a37.548,37.548,0,0,0,3.793.234,24.729,24.729,0,0,0,3.148-.128,6.71,6.71,0,0,0,2.57-.684,1.253,1.253,0,0,0,.663-1.512,1.227,1.227,0,0,0-1.171-1.012,5.844,5.844,0,0,0-2.448.45,20.334,20.334,0,0,0-2.717,1.223,35.356,35.356,0,0,0-3.632,2.186c-.432.3-.839-.407-.411-.7a35.357,35.357,0,0,1,3.425-2.074,22.659,22.659,0,0,1,2.991-1.37,6.92,6.92,0,0,1,2.727-.529,2.089,2.089,0,0,1,1.814,1.045,2.3,2.3,0,0,1-.037,2.31,3.715,3.715,0,0,1-2.2,1.219,15.937,15.937,0,0,1-3.318.384,35.736,35.736,0,0,1-5.192-.227C-70.191,812.364-70.2,811.55-69.677,811.612Z" transform="translate(70.065 -807.685)" fill="#124c64"/>
                  </g>
                  <g id="Grupo_55933" data-name="Grupo 55933">
                    <path id="Trazado_100897" data-name="Trazado 100897" d="M-62.629,806.612q-3.038,3.242-6.074,6.483l-.847.9c-.359.382-.932-.194-.576-.576q3.038-3.241,6.074-6.483l.847-.9c.359-.384.932.194.576.576Z" transform="translate(70.238 -805.91)" fill="#124c64"/>
                  </g>
                </g>
              </g>
              <g id="Grupo_55937" data-name="Grupo 55937" transform="translate(0 13.902)">
                <path id="Trazado_100898" data-name="Trazado 100898" d="M-81.587,804.7c4.783.277,8.218,4.277,8.46,9.107.114,2.27-1.018,5.477-1.145,6.055l-7.869-4.386Z" transform="translate(82.82 -804.023)" fill="#124c64"/>
                <g id="Grupo_55936" data-name="Grupo 55936">
                  <path id="Trazado_100899" data-name="Trazado 100899" d="M-81.258,804.354a9.672,9.672,0,0,1,8.251,5.917,10.546,10.546,0,0,1,.8,5.469,43.456,43.456,0,0,1-1.087,4.634.685.685,0,0,1-1,.405q-3.933-2.192-7.869-4.386a.667.667,0,0,1-.335-.585l.554-10.776c.045-.868,1.4-.874,1.357,0l-.556,10.776-.335-.585,7.871,4.386-1,.405c.31-1.306.756-2.568.979-3.9a9.468,9.468,0,0,0-.477-4.933,8.326,8.326,0,0,0-7.163-5.471C-82.124,805.65-82.13,804.294-81.258,804.354Z" transform="translate(82.491 -804.352)" fill="#124c64"/>
                </g>
              </g>
              <g id="Grupo_55940" data-name="Grupo 55940" transform="translate(0.003)">
                <g id="Grupo_55938" data-name="Grupo 55938" transform="translate(1.021)">
                  <path id="Trazado_100900" data-name="Trazado 100900" d="M-81.112,797.19q8.951,1.485,17.9,2.973l2.584.43c.861.141.5,1.448-.36,1.306l-17.9-2.973-2.585-.43c-.859-.141-.494-1.45.36-1.306Z" transform="translate(81.963 -797.179)" fill="#124c64"/>
                </g>
                <g id="Grupo_55939" data-name="Grupo 55939" transform="translate(0 24.659)">
                  <path id="Trazado_100901" data-name="Trazado 100901" d="M-48.8,829.845l-29.165-16.333-4.192-2.347a.678.678,0,0,1,.684-1.171l29.165,16.333,4.192,2.347a.678.678,0,0,1-.684,1.171Z" transform="translate(82.49 -809.903)" fill="#124c64"/>
                </g>
              </g>
            </g>
          </g>
          <g id="Grupo_55948" data-name="Grupo 55948">
            <path id="Trazado_100902" data-name="Trazado 100902" d="M-49.846,844.629l-25.237.22L-89.5,731.094l48.009,1.633Z" transform="translate(90.188 -730.45)" fill="#95f7ff"/>
            <g id="Grupo_55943" data-name="Grupo 55943" transform="translate(9.593 6.922)">
              <path id="Trazado_100903" data-name="Trazado 100903" d="M-67.925,735.18c-1.064,4.917-4.448,9.875-9.224,11.727a13.932,13.932,0,0,1-7.266.576c-.861-.138-.5-1.444.36-1.308a11.693,11.693,0,0,0,10.282-3.043,17.235,17.235,0,0,0,4.07-6.71,14.033,14.033,0,0,0,.469-1.6c.186-.853,1.492-.492,1.308.361Z" transform="translate(84.907 -734.333)" fill="#124c64"/>
            </g>
            <g id="Grupo_55944" data-name="Grupo 55944" transform="translate(19.042 16.795)">
              <path id="Trazado_100904" data-name="Trazado 100904" d="M-72.867,830.769q-1.215-15.367-2.427-30.735-1.925-24.348-3.845-48.7l-.89-11.259c-.068-.87,1.287-.866,1.357,0q1.212,15.367,2.427,30.737,1.922,24.348,3.845,48.7.445,5.631.888,11.259c.07.87-1.287.866-1.355,0Z" transform="translate(80.031 -739.427)" fill="#124c64"/>
            </g>
            <g id="Grupo_55946" data-name="Grupo 55946" transform="translate(13.63 107.461)">
              <path id="Trazado_100905" data-name="Trazado 100905" d="M-55.991,786.556l-.451,6.042-25.237.22-.794-6.262Z" transform="translate(83.154 -785.879)" fill="#31d9e7"/>
              <g id="Grupo_55945" data-name="Grupo 55945">
                <path id="Trazado_100906" data-name="Trazado 100906" d="M-54.983,786.884q-.227,3.02-.452,6.043a.692.692,0,0,1-.678.677l-22.1.194-3.136.027a.7.7,0,0,1-.678-.678q-.4-3.131-.793-6.262a.681.681,0,0,1,.678-.677h26.481a.678.678,0,0,1,0,1.355H-82.142l.678-.678q.4,3.131.793,6.262l-.678-.678,22.1-.192,3.134-.027-.676.678q.224-3.024.45-6.043C-56.276,786.019-54.919,786.013-54.983,786.884Z" transform="translate(82.824 -786.207)" fill="#124c64"/>
              </g>
            </g>
            <g id="Grupo_55947" data-name="Grupo 55947">
              <path id="Trazado_100907" data-name="Trazado 100907" d="M-49.516,845.618l-22.071.194-3.165.027a.7.7,0,0,1-.678-.678q-.715-5.657-1.434-11.318-1.724-13.591-3.446-27.181-2.084-16.44-4.167-32.878-1.8-14.207-3.6-28.411-.587-4.648-1.178-9.3a36.67,36.67,0,0,1-.566-4.469,1.816,1.816,0,0,0-.025-.2c-.11-.864,1.248-.855,1.357,0q.715,5.66,1.434,11.319,1.724,13.591,3.446,27.182l4.167,32.878q1.8,14.2,3.6,28.409.587,4.649,1.178,9.3l.37,2.929a6.256,6.256,0,0,1,.2,1.541.791.791,0,0,0,.025.2l-.678-.678,22.073-.192q1.582-.014,3.163-.027a.678.678,0,0,1,0,1.355Z" transform="translate(89.856 -730.761)" fill="#124c64"/>
            </g>
          </g>
        </g>
      </g>
      <g id="Grupo_55971" data-name="Grupo 55971" transform="translate(76.554 44.671)">
        <g id="Grupo_55952" data-name="Grupo 55952">
          <path id="Trazado_100908" data-name="Trazado 100908" d="M-37.476,767.666c.078-1.56.141-3.128.174-4.717.568-27.535-7.167-54.295-16.389-64.478-2.967-3.275-5.894-4.227-8.944-3.43-14.342,3.748-27.359,30.415-28.111,66.805-.031,1.589-.033,3.161-.021,4.721Z" transform="translate(91.421 -694.144)" fill="#ea526f"/>
          <g id="Grupo_55951" data-name="Grupo 55951">
            <path id="Trazado_100909" data-name="Trazado 100909" d="M-62.5,694.693c4.88-1.165,8.574,2.033,11.324,5.714a51.928,51.928,0,0,1,6.124,11.3c4.413,10.654,6.783,22.18,7.979,33.617a148.547,148.547,0,0,1,.589,22.649.689.689,0,0,1-.678.678l-17.98-.37q-14.344-.3-28.688-.591l-6.623-.138a.678.678,0,0,1,0-1.355l17.982.37,28.688.591,6.621.136-.676.678a145.457,145.457,0,0,0-2.773-36.695c-1.952-9.371-4.746-18.992-9.753-27.229-2.5-4.115-6.293-9.357-11.776-8.047-.849.2-1.209-1.1-.36-1.308Z" transform="translate(91.108 -694.449)" fill="#124c64"/>
          </g>
        </g>
        <g id="Grupo_55970" data-name="Grupo 55970" transform="translate(6.426 11.413)">
          <g id="Grupo_55953" data-name="Grupo 55953" transform="translate(35.258 9.08)">
            <path id="Trazado_100910" data-name="Trazado 100910" d="M-67.489,709.213l-2.076-3.783c-.167-.306.3-.579.469-.273l2.076,3.783c.167.306-.3.58-.469.273Z" transform="translate(69.6 -705.023)" fill="#fff"/>
          </g>
          <g id="Grupo_55954" data-name="Grupo 55954" transform="translate(28.847 11.715)">
            <path id="Trazado_100911" data-name="Trazado 100911" d="M-70.867,706.791l-1.535,2.252a.276.276,0,0,1-.37.1.274.274,0,0,1-.1-.372l1.533-2.254a.277.277,0,0,1,.37-.1.276.276,0,0,1,.1.372Z" transform="translate(72.908 -706.382)" fill="#fff"/>
          </g>
          <g id="Grupo_55955" data-name="Grupo 55955" transform="translate(29.06 0.937)">
            <path id="Trazado_100912" data-name="Trazado 100912" d="M-71.065,705.2q-.852-1.983-1.7-3.967a.283.283,0,0,1,.1-.372.272.272,0,0,1,.37.1l1.7,3.969a.279.279,0,0,1-.1.37.269.269,0,0,1-.37-.1Z" transform="translate(72.798 -700.821)" fill="#fff"/>
          </g>
          <g id="Grupo_55956" data-name="Grupo 55956" transform="translate(21.68 9.248)">
            <path id="Trazado_100913" data-name="Trazado 100913" d="M-74.067,705.653l-2.268.19a.273.273,0,0,1-.271-.271.276.276,0,0,1,.271-.271l2.268-.19a.275.275,0,0,1,.271.271.276.276,0,0,1-.271.271Z" transform="translate(76.606 -705.11)" fill="#fff"/>
          </g>
          <g id="Grupo_55957" data-name="Grupo 55957" transform="translate(22.233)">
            <path id="Trazado_100914" data-name="Trazado 100914" d="M-75.159,702.639l-1.122-1.9a.272.272,0,0,1,.469-.275q.561.951,1.122,1.9a.272.272,0,0,1-.469.273Z" transform="translate(76.321 -700.338)" fill="#fff"/>
          </g>
          <g id="Grupo_55958" data-name="Grupo 55958" transform="translate(19.846 15.675)">
            <path id="Trazado_100915" data-name="Trazado 100915" d="M-75.98,708.764a12.013,12.013,0,0,1-1.072,2.936c-.161.31-.628.035-.467-.275a11.565,11.565,0,0,0,1.016-2.8c.076-.341.6-.2.523.143Z" transform="translate(77.552 -708.425)" fill="#fff"/>
          </g>
          <g id="Grupo_55959" data-name="Grupo 55959" transform="translate(41.509 49.521)">
            <path id="Trazado_100916" data-name="Trazado 100916" d="M-64.611,728.546l-1.723-2.25a.27.27,0,0,1,.1-.37.278.278,0,0,1,.37.1l1.725,2.25a.272.272,0,0,1-.1.37.278.278,0,0,1-.372-.1Z" transform="translate(66.375 -725.889)" fill="#fff"/>
          </g>
          <g id="Grupo_55960" data-name="Grupo 55960" transform="translate(39.441 42.907)">
            <path id="Trazado_100917" data-name="Trazado 100917" d="M-65.07,722.939l-1.911,2.25a.272.272,0,0,1-.384,0,.278.278,0,0,1,0-.384l1.911-2.25a.272.272,0,0,1,.384,0,.277.277,0,0,1,0,.384Z" transform="translate(67.442 -722.476)" fill="#fff"/>
          </g>
          <g id="Grupo_55961" data-name="Grupo 55961" transform="translate(25.072 56.153)">
            <path id="Trazado_100918" data-name="Trazado 100918" d="M-72.484,729.773l-1.911,2.25a.272.272,0,0,1-.384,0,.278.278,0,0,1,0-.384l1.911-2.25a.274.274,0,0,1,.384,0,.277.277,0,0,1,0,.384Z" transform="translate(74.856 -729.31)" fill="#fff"/>
          </g>
          <g id="Grupo_55962" data-name="Grupo 55962" transform="translate(33.555 50.071)">
            <path id="Trazado_100919" data-name="Trazado 100919" d="M-68.63,726.58q-.672,1.032-1.343,2.066a.277.277,0,0,1-.37.1.276.276,0,0,1-.1-.372q.672-1.032,1.343-2.066a.28.28,0,0,1,.372-.1.276.276,0,0,1,.1.372Z" transform="translate(70.479 -726.173)" fill="#fff"/>
          </g>
          <g id="Grupo_55963" data-name="Grupo 55963" transform="translate(4.125 56.245)">
            <path id="Trazado_100920" data-name="Trazado 100920" d="M-83.815,729.765l-1.343,2.066a.276.276,0,0,1-.37.1.274.274,0,0,1-.1-.372l1.343-2.066a.276.276,0,0,1,.37-.1.272.272,0,0,1,.1.37Z" transform="translate(85.664 -729.358)" fill="#fff"/>
          </g>
          <g id="Grupo_55964" data-name="Grupo 55964" transform="translate(14.473 56.061)">
            <path id="Trazado_100921" data-name="Trazado 100921" d="M-79.8,729.46l.378,2.436a.281.281,0,0,1-.19.333.273.273,0,0,1-.333-.19q-.189-1.218-.378-2.434a.278.278,0,0,1,.19-.333.272.272,0,0,1,.333.188Z" transform="translate(80.324 -729.263)" fill="#fff"/>
          </g>
          <g id="Grupo_55965" data-name="Grupo 55965" transform="translate(19.956 50.541)">
            <path id="Trazado_100922" data-name="Trazado 100922" d="M-76.952,726.686l.151,2.459a.272.272,0,0,1-.271.271.277.277,0,0,1-.271-.271l-.151-2.459a.275.275,0,0,1,.271-.271.276.276,0,0,1,.271.271Z" transform="translate(77.495 -726.415)" fill="#fff"/>
          </g>
          <g id="Grupo_55966" data-name="Grupo 55966" transform="translate(37.744 56.165)">
            <path id="Trazado_100923" data-name="Trazado 100923" d="M-67.818,729.449l1.052,2.229a.28.28,0,0,1-.1.372.274.274,0,0,1-.37-.1q-.526-1.113-1.05-2.229a.278.278,0,0,1,.1-.37.271.271,0,0,1,.37.1Z" transform="translate(68.318 -729.317)" fill="#fff"/>
          </g>
          <g id="Grupo_55967" data-name="Grupo 55967" transform="translate(27.726 44.789)">
            <path id="Trazado_100924" data-name="Trazado 100924" d="M-73.1,728.251a23.76,23.76,0,0,0-.384-4.464c-.062-.341.461-.488.523-.143a24.473,24.473,0,0,1,.4,4.607.272.272,0,0,1-.543,0Z" transform="translate(73.487 -723.448)" fill="#fff"/>
          </g>
          <g id="Grupo_55968" data-name="Grupo 55968" transform="translate(9.424 47.405)">
            <path id="Trazado_100925" data-name="Trazado 100925" d="M-80.289,729.206a19.621,19.621,0,0,0-2.572-3.936c-.225-.264.157-.649.382-.384a20.157,20.157,0,0,1,2.659,4.047c.153.312-.314.587-.469.273Z" transform="translate(82.929 -724.797)" fill="#fff"/>
          </g>
          <g id="Grupo_55969" data-name="Grupo 55969" transform="translate(0 50.86)">
            <path id="Trazado_100926" data-name="Trazado 100926" d="M-87.224,726.842q-.012,1.285-.025,2.57a.271.271,0,0,1-.543,0q.015-1.285.025-2.57a.271.271,0,0,1,.543,0Z" transform="translate(87.792 -726.58)" fill="#fff"/>
          </g>
        </g>
      </g>
      <g id="Grupo_55981" data-name="Grupo 55981" transform="translate(124.948 0.675)">
        <path id="Trazado_100927" data-name="Trazado 100927" d="M-65.789,727.108a55.009,55.009,0,0,0,55.01,55.008,55.008,55.008,0,0,0,55.008-55.008A55.009,55.009,0,0,0-10.779,672.1,55.011,55.011,0,0,0-65.789,727.108ZM-4.4,739.138a5.907,5.907,0,1,1,5.907,5.909A5.907,5.907,0,0,1-4.4,739.138Zm-.382-22.93a5.908,5.908,0,1,1,5.909,5.907A5.909,5.909,0,0,1-4.779,716.208Zm-10.964,0a5.909,5.909,0,0,1-5.909,5.907,5.908,5.908,0,0,1-5.907-5.907,5.908,5.908,0,0,1,5.907-5.907A5.909,5.909,0,0,1-15.743,716.208Zm-12.5,22.93a5.908,5.908,0,0,1,5.907-5.907,5.909,5.909,0,0,1,5.909,5.907,5.909,5.909,0,0,1-5.909,5.909A5.909,5.909,0,0,1-28.238,739.138Z" transform="translate(66.465 -671.422)" fill="#ffcd91"/>
        <g id="Grupo_55980" data-name="Grupo 55980">
          <g id="Grupo_55972" data-name="Grupo 55972" transform="translate(61.01 38.206)">
            <path id="Trazado_100928" data-name="Trazado 100928" d="M-33.3,698.042a5.288,5.288,0,0,0,3.438,4.917,5.3,5.3,0,0,0,5.853-1.616,5.278,5.278,0,0,0,.428-5.985,5.269,5.269,0,0,0-5.44-2.461,5.294,5.294,0,0,0-4.279,5.146.678.678,0,0,1-1.355,0,6.674,6.674,0,0,1,4.287-6.169,6.617,6.617,0,0,1,7.365,1.969,6.653,6.653,0,0,1,.593,7.568,6.665,6.665,0,0,1-6.894,3.1,6.653,6.653,0,0,1-5.351-6.467A.678.678,0,0,1-33.3,698.042Z" transform="translate(34.659 -691.462)" fill="#124c64"/>
          </g>
          <g id="Grupo_55973" data-name="Grupo 55973" transform="translate(38.228 38.206)">
            <path id="Trazado_100929" data-name="Trazado 100929" d="M-45.057,698.042a5.285,5.285,0,0,0,3.438,4.917,5.3,5.3,0,0,0,5.853-1.616,5.278,5.278,0,0,0,.428-5.985A5.271,5.271,0,0,0-40.78,692.9a5.3,5.3,0,0,0-4.277,5.146.679.679,0,0,1-1.357,0,6.678,6.678,0,0,1,4.289-6.169,6.617,6.617,0,0,1,7.365,1.969,6.653,6.653,0,0,1,.593,7.568,6.665,6.665,0,0,1-6.894,3.1,6.655,6.655,0,0,1-5.353-6.467A.679.679,0,0,1-45.057,698.042Z" transform="translate(46.414 -691.462)" fill="#124c64"/>
          </g>
          <g id="Grupo_55974" data-name="Grupo 55974" transform="translate(37.549 61.136)">
            <path id="Trazado_100930" data-name="Trazado 100930" d="M-45.407,709.873a5.286,5.286,0,0,0,3.438,4.917,5.291,5.291,0,0,0,5.853-1.616,5.274,5.274,0,0,0,.428-5.983,5.272,5.272,0,0,0-5.442-2.463,5.3,5.3,0,0,0-4.277,5.146.679.679,0,0,1-1.357,0,6.678,6.678,0,0,1,4.289-6.169,6.614,6.614,0,0,1,7.365,1.971,6.65,6.65,0,0,1,.593,7.567,6.662,6.662,0,0,1-6.894,3.1,6.652,6.652,0,0,1-5.353-6.468A.679.679,0,0,1-45.407,709.873Z" transform="translate(46.764 -703.293)" fill="#124c64"/>
          </g>
          <g id="Grupo_55975" data-name="Grupo 55975" transform="translate(61.39 61.136)">
            <path id="Trazado_100931" data-name="Trazado 100931" d="M-33.108,709.873a5.288,5.288,0,0,0,3.44,4.917,5.288,5.288,0,0,0,5.851-1.616,5.271,5.271,0,0,0,.428-5.983,5.271,5.271,0,0,0-5.44-2.463,5.3,5.3,0,0,0-4.279,5.146.678.678,0,0,1-1.355,0,6.673,6.673,0,0,1,4.287-6.169,6.618,6.618,0,0,1,7.367,1.971,6.65,6.65,0,0,1,.591,7.567,6.662,6.662,0,0,1-6.894,3.1,6.652,6.652,0,0,1-5.351-6.468A.678.678,0,0,1-33.108,709.873Z" transform="translate(34.463 -703.293)" fill="#124c64"/>
          </g>
          <g id="Grupo_55976" data-name="Grupo 55976" transform="translate(17.67 17.706)">
            <path id="Trazado_100932" data-name="Trazado 100932" d="M-55.664,718.865a37.02,37.02,0,0,0,24.151,34.472,37.024,37.024,0,0,0,40.7-11.03,36.977,36.977,0,0,0,3.19-42.4A36.995,36.995,0,0,0-26.259,682.92a37.027,37.027,0,0,0-28.954,30.142,37.511,37.511,0,0,0-.452,5.8.679.679,0,0,1-1.357,0,38.421,38.421,0,0,1,24.808-35.656A38.34,38.34,0,0,1,10.37,694.737a38.357,38.357,0,0,1,3.177,43.773,38.4,38.4,0,0,1-39.986,17.643,38.331,38.331,0,0,1-30.138-31.491,40.028,40.028,0,0,1-.444-5.8A.679.679,0,0,1-55.664,718.865Z" transform="translate(57.021 -680.885)" fill="#124c64"/>
          </g>
          <g id="Grupo_55977" data-name="Grupo 55977" transform="translate(10.572 10.615)">
            <path id="Trazado_100933" data-name="Trazado 100933" d="M-59.326,722.3A44.188,44.188,0,0,0-30.5,763.444,44.193,44.193,0,0,0,18.125,750.22,44.133,44.133,0,0,0,21.846,699.6a44.17,44.17,0,0,0-46.191-20.18,44.183,44.183,0,0,0-34.437,35.925,44.91,44.91,0,0,0-.545,6.954.679.679,0,0,1-1.357,0A45.585,45.585,0,0,1-31.028,679.9,45.509,45.509,0,0,1,19.2,693.553a45.524,45.524,0,0,1,3.818,52.128,45.563,45.563,0,0,1-47.54,20.839,45.487,45.487,0,0,1-35.623-37.276,47.344,47.344,0,0,1-.537-6.946A.679.679,0,0,1-59.326,722.3Z" transform="translate(60.683 -677.226)" fill="#124c64"/>
          </g>
          <g id="Grupo_55978" data-name="Grupo 55978" transform="translate(55.031)">
            <path id="Trazado_100934" data-name="Trazado 100934" d="M7.939,697.022a54.809,54.809,0,0,0-32.956-22.571A55.241,55.241,0,0,0-37.089,673.1a.678.678,0,0,1,0-1.355A56.1,56.1,0,0,1,1.464,687.254a56.987,56.987,0,0,1,7.646,9.082c.492.725-.682,1.4-1.171.686Z" transform="translate(37.744 -671.749)" fill="#124c64"/>
          </g>
          <g id="Grupo_55979" data-name="Grupo 55979" transform="translate(0 55.031)">
            <path id="Trazado_100935" data-name="Trazado 100935" d="M-64.783,700.8a54.859,54.859,0,0,0,35.619,51.025,55.012,55.012,0,0,0,18.713,3.306.678.678,0,0,1,0,1.355,55.966,55.966,0,0,1-32.2-10.247A56.2,56.2,0,0,1-62.659,720.21,56.051,56.051,0,0,1-66.138,700.8a.678.678,0,0,1,1.355,0Z" transform="translate(66.138 -700.143)" fill="#124c64"/>
          </g>
        </g>
      </g>
      <g id="Grupo_56013" data-name="Grupo 56013" transform="translate(66.271 44.774)">
        <g id="Grupo_55986" data-name="Grupo 55986" transform="translate(60.168 17.455)">
          <path id="Trazado_100936" data-name="Trazado 100936" d="M-57.961,728.511s26.275-9.392,29.706-14.032c2.878-3.894-9.162,2.244-9.162,2.244s8.987-3.543,8.673-5.588-10,3.018-10,3.018,10.094-4.706,9.334-6.272S-40.119,711.7-40.119,711.7s10.317-4.675,9.466-6.528-10.966,3.694-10.966,3.694,5.871-4.2,4.655-5.27-12.712,8.012-24.052,11.726S-57.961,728.511-57.961,728.511Z" transform="translate(65.369 -703.509)" fill="#e7ba8c"/>
          <g id="Grupo_55985" data-name="Grupo 55985" transform="translate(25.409 3.502)">
            <g id="Grupo_55982" data-name="Grupo 55982" transform="translate(2.556 5.371)">
              <path id="Trazado_100937" data-name="Trazado 100937" d="M-43.141,709.1q-3.4,1.93-6.987,3.518a.561.561,0,0,1-.742-.194.546.546,0,0,1,.194-.742q3.579-1.587,6.989-3.518a.542.542,0,0,1,.547.936Z" transform="translate(50.94 -708.087)" fill="#cca47f"/>
            </g>
            <g id="Grupo_55983" data-name="Grupo 55983" transform="translate(1.448 2.708)">
              <path id="Trazado_100938" data-name="Trazado 100938" d="M-43.635,707.709a67.695,67.695,0,0,0-7.078,3.946c-.589.376-1.134-.562-.547-.936a67.844,67.844,0,0,1,7.076-3.946c.626-.3,1.178.632.548.936Z" transform="translate(51.512 -706.713)" fill="#cca47f"/>
            </g>
            <g id="Grupo_55984" data-name="Grupo 55984">
              <path id="Trazado_100939" data-name="Trazado 100939" d="M-44.278,706.33q-3.532,2.023-7.159,3.882c-.62.318-1.171-.618-.548-.936q3.625-1.858,7.161-3.884a.543.543,0,0,1,.547.938Z" transform="translate(52.259 -705.316)" fill="#cca47f"/>
            </g>
          </g>
        </g>
        <g id="Grupo_56012" data-name="Grupo 56012">
          <path id="Trazado_100940" data-name="Trazado 100940" d="M-60.863,694.848s-25.568,13.317-34.1,37.886c-8.175,23.539,30.2,32.045,74.711,4.3l-11.2-16.544-38.642,4.248" transform="translate(96.735 -694.179)" fill="#ea526f"/>
          <g id="Grupo_55989" data-name="Grupo 55989">
            <g id="Grupo_55987" data-name="Grupo 55987">
              <path id="Trazado_100941" data-name="Trazado 100941" d="M-60.2,695.757a73.022,73.022,0,0,0-12.7,8.766c-8.4,6.989-15.728,15.623-19.97,25.777-1.5,3.582-2.754,7.462-1.959,11.377a12.74,12.74,0,0,0,5.1,7.694c7.094,5.2,17.211,5.221,25.546,4.223,15.668-1.874,30.611-8.57,43.9-16.823l-.242.926q-5.6-8.271-11.2-16.544l.585.335-33.857,3.725-4.785.525c-.866.095-.859-1.262,0-1.357l33.857-3.723,4.785-.525a.674.674,0,0,1,.585.335q5.6,8.274,11.2,16.544a.688.688,0,0,1-.242.928c-12.555,7.793-26.467,14.094-41.131,16.517-9.022,1.49-19.593,1.9-27.841-2.735a15.4,15.4,0,0,1-6.747-7.088,15.452,15.452,0,0,1-.5-10.086,50.822,50.822,0,0,1,7.735-15.7,75.789,75.789,0,0,1,10.784-12.284,77.853,77.853,0,0,1,16.4-11.985c.773-.405,1.459.765.684,1.171Z" transform="translate(96.413 -694.503)" fill="#124c64"/>
            </g>
            <g id="Grupo_55988" data-name="Grupo 55988" transform="translate(30.137 18.366)">
              <path id="Trazado_100942" data-name="Trazado 100942" d="M-74.875,704.993q-2.076,4.849-4.155,9.7c-.194.456-.39.911-.583,1.366a.684.684,0,0,1-.928.242.693.693,0,0,1-.242-.927q2.076-4.852,4.153-9.7c.2-.456.39-.911.585-1.365a.682.682,0,0,1,.928-.244.7.7,0,0,1,.242.928Z" transform="translate(80.864 -703.979)" fill="#124c64"/>
            </g>
          </g>
          <g id="Grupo_56011" data-name="Grupo 56011" transform="translate(7.273 8.282)">
            <g id="Grupo_55990" data-name="Grupo 55990" transform="translate(57.783 30.598)">
              <path id="Trazado_100943" data-name="Trazado 100943" d="M-60.49,714.971l-1.849,2.673a.279.279,0,0,1-.372.1.276.276,0,0,1-.1-.372l1.849-2.675a.278.278,0,0,1,.37-.1.275.275,0,0,1,.1.372Z" transform="translate(62.847 -714.563)" fill="#fff"/>
            </g>
            <g id="Grupo_55991" data-name="Grupo 55991" transform="translate(51.912 23.046)">
              <path id="Trazado_100944" data-name="Trazado 100944" d="M-65.843,713.454q.651-1.326,1.3-2.655a.275.275,0,0,1,.372-.1.277.277,0,0,1,.1.37q-.654,1.329-1.3,2.657a.277.277,0,0,1-.372.1.279.279,0,0,1-.1-.372Z" transform="translate(65.876 -710.667)" fill="#fff"/>
            </g>
            <g id="Grupo_55992" data-name="Grupo 55992" transform="translate(48.836 34.013)">
              <path id="Trazado_100945" data-name="Trazado 100945" d="M-64.662,716.722l-2.287,3.39c-.194.289-.663.018-.467-.273l2.285-3.39c.194-.289.665-.017.469.273Z" transform="translate(67.463 -716.325)" fill="#fff"/>
            </g>
            <g id="Grupo_55993" data-name="Grupo 55993" transform="translate(38.46 24.025)">
              <path id="Trazado_100946" data-name="Trazado 100946" d="M-69.887,714.265l-2.845-2.634c-.256-.238.128-.622.384-.384l2.845,2.636c.256.236-.128.62-.384.382Z" transform="translate(72.817 -711.172)" fill="#fff"/>
            </g>
            <g id="Grupo_55994" data-name="Grupo 55994" transform="translate(37.961 34.407)">
              <path id="Trazado_100947" data-name="Trazado 100947" d="M-70.367,716.992l-2.246,2.851a.274.274,0,0,1-.384,0,.277.277,0,0,1,0-.384l2.246-2.851a.272.272,0,0,1,.384,0,.277.277,0,0,1,0,.384Z" transform="translate(73.074 -716.529)" fill="#fff"/>
            </g>
            <g id="Grupo_55995" data-name="Grupo 55995" transform="translate(30.962 42.486)">
              <path id="Trazado_100948" data-name="Trazado 100948" d="M-74.018,724.05q-1.3-1.442-2.6-2.882c-.233-.26.151-.644.384-.384q1.3,1.442,2.6,2.882c.233.26-.151.643-.384.384Z" transform="translate(76.685 -720.697)" fill="#fff"/>
            </g>
            <g id="Grupo_55996" data-name="Grupo 55996" transform="translate(42.087 41.009)">
              <path id="Trazado_100949" data-name="Trazado 100949" d="M-70.228,720.206a7.949,7.949,0,0,1-.186,2.531c-.079.339-.6.2-.523-.145a7.429,7.429,0,0,0,.167-2.386.272.272,0,0,1,.271-.271.277.277,0,0,1,.271.271Z" transform="translate(70.945 -719.935)" fill="#fff"/>
            </g>
            <g id="Grupo_55997" data-name="Grupo 55997" transform="translate(29.024 26.278)">
              <path id="Trazado_100950" data-name="Trazado 100950" d="M-74.574,715.812a32.732,32.732,0,0,0-3.023-3.024c-.262-.23.122-.612.384-.384a32.953,32.953,0,0,1,3.023,3.023c.231.262-.153.647-.384.384Z" transform="translate(77.685 -712.335)" fill="#fff"/>
            </g>
            <g id="Grupo_55998" data-name="Grupo 55998" transform="translate(23.192 35.671)">
              <path id="Trazado_100951" data-name="Trazado 100951" d="M-76.789,717.72l-3.574,1.184c-.331.108-.475-.415-.143-.523q1.785-.593,3.574-1.184c.331-.11.475.413.143.523Z" transform="translate(80.694 -717.181)" fill="#fff"/>
            </g>
            <g id="Grupo_55999" data-name="Grupo 55999" transform="translate(18.626 26.439)">
              <path id="Trazado_100952" data-name="Trazado 100952" d="M-81.214,712.761q-.651,1.614-1.3,3.223a.279.279,0,0,1-.333.19.272.272,0,0,1-.19-.333q.648-1.611,1.3-3.223a.279.279,0,0,1,.333-.19.275.275,0,0,1,.19.333Z" transform="translate(83.05 -712.418)" fill="#fff"/>
            </g>
            <g id="Grupo_56000" data-name="Grupo 56000" transform="translate(19.011 44.793)">
              <path id="Trazado_100953" data-name="Trazado 100953" d="M-80.488,725.172a24.366,24.366,0,0,1-2.326-2.876.275.275,0,0,1,.1-.372.276.276,0,0,1,.37.1,23.771,23.771,0,0,0,2.24,2.768c.24.254-.143.638-.384.382Z" transform="translate(82.852 -721.887)" fill="#fff"/>
            </g>
            <g id="Grupo_56001" data-name="Grupo 56001" transform="translate(10.475 38.581)">
              <path id="Trazado_100954" data-name="Trazado 100954" d="M-83.707,719.143l-3.087,2.57a.275.275,0,0,1-.382,0,.272.272,0,0,1,0-.384l3.085-2.57a.279.279,0,0,1,.384,0,.272.272,0,0,1,0,.384Z" transform="translate(87.256 -718.683)" fill="#fff"/>
            </g>
            <g id="Grupo_56002" data-name="Grupo 56002" transform="translate(8.808 24.95)">
              <path id="Trazado_100955" data-name="Trazado 100955" d="M-85.814,716.211a26.1,26.1,0,0,0-2.256-4.163c-.194-.293.275-.564.467-.275a26.2,26.2,0,0,1,2.258,4.165c.136.316-.331.593-.469.273Z" transform="translate(88.116 -711.649)" fill="#fff"/>
            </g>
            <g id="Grupo_56003" data-name="Grupo 56003" transform="translate(0 36.249)">
              <path id="Trazado_100956" data-name="Trazado 100956" d="M-90.018,717.89q-1.07,2.018-2.14,4.037c-.165.308-.632.035-.469-.275q1.07-2.018,2.14-4.037c.163-.308.632-.035.469.275Z" transform="translate(92.66 -717.479)" fill="#fff"/>
            </g>
            <g id="Grupo_56004" data-name="Grupo 56004" transform="translate(4.85 44.037)">
              <path id="Trazado_100957" data-name="Trazado 100957" d="M-89.038,724.57a13.147,13.147,0,0,1-1.109-2.737.271.271,0,0,1,.523-.143,12.41,12.41,0,0,0,1.054,2.607c.167.306-.3.581-.469.273Z" transform="translate(90.158 -721.498)" fill="#fff"/>
            </g>
            <g id="Grupo_56005" data-name="Grupo 56005" transform="translate(0.33 24.748)">
              <path id="Trazado_100958" data-name="Trazado 100958" d="M-91.354,714.421q-.552-1.235-1.1-2.469a.281.281,0,0,1,.1-.372.272.272,0,0,1,.37.1q.555,1.236,1.107,2.471a.278.278,0,0,1-.1.37.275.275,0,0,1-.372-.1Z" transform="translate(92.49 -711.545)" fill="#fff"/>
            </g>
            <g id="Grupo_56006" data-name="Grupo 56006" transform="translate(18.5 12.441)">
              <path id="Trazado_100959" data-name="Trazado 100959" d="M-80.876,709.232q-1.1-1.817-2.2-3.632a.271.271,0,0,1,.467-.275q1.1,1.817,2.2,3.634c.182.3-.287.572-.469.273Z" transform="translate(83.115 -705.195)" fill="#fff"/>
            </g>
            <g id="Grupo_56007" data-name="Grupo 56007" transform="translate(9.369 14.814)">
              <path id="Trazado_100960" data-name="Trazado 100960" d="M-84.162,706.918a14.021,14.021,0,0,1-3.322,1.019.279.279,0,0,1-.333-.19.273.273,0,0,1,.19-.333,13.533,13.533,0,0,0,3.192-.963.278.278,0,0,1,.37.1.27.27,0,0,1-.1.37Z" transform="translate(87.827 -706.42)" fill="#fff"/>
            </g>
            <g id="Grupo_56008" data-name="Grupo 56008" transform="translate(15.666 5.091)">
              <path id="Trazado_100961" data-name="Trazado 100961" d="M-84.4,703.566q-.087-.945-.176-1.892a.275.275,0,0,1,.271-.271.277.277,0,0,1,.271.271q.09.948.176,1.892a.273.273,0,0,1-.271.271.277.277,0,0,1-.271-.271Z" transform="translate(84.577 -701.403)" fill="#fff"/>
            </g>
            <g id="Grupo_56009" data-name="Grupo 56009" transform="translate(21.67 6.602)">
              <path id="Trazado_100962" data-name="Trazado 100962" d="M-78.24,702.7q-1.422.942-2.841,1.882c-.293.192-.564-.277-.275-.469q1.422-.939,2.841-1.88c.293-.194.564.275.275.467Z" transform="translate(81.48 -702.182)" fill="#fff"/>
            </g>
            <g id="Grupo_56010" data-name="Grupo 56010" transform="translate(22.044)">
              <path id="Trazado_100963" data-name="Trazado 100963" d="M-80.756,701.014q-.259-.951-.519-1.9a.272.272,0,0,1,.523-.145q.259.951.519,1.9a.271.271,0,0,1-.523.143Z" transform="translate(81.286 -698.776)" fill="#fff"/>
            </g>
          </g>
        </g>
      </g>
      <g id="Grupo_56018" data-name="Grupo 56018" transform="translate(188.328)">
        <path id="Trazado_100964" data-name="Trazado 100964" d="M-20.857,676.336a1.254,1.254,0,0,0,1.192,1.066c1.06.056,2.08-.3,1.791-1.775s-3.746-2.76-4.432-2.1a3.156,3.156,0,0,0-2.4-1.05c-1.295.176-1.314.878-1.314.878a2.431,2.431,0,0,0-2.045-1.347c-1.442-.031-1.368.953-1.368.953a2.557,2.557,0,0,0-2.63-1.529c-1.861.279-1.626,3.489-.535,4.535s2.71.132,3.091-1.223a1.845,1.845,0,0,0,1.415,2.209c1.8.442,2.355-.824,2.458-1.855,0,0,.928,2.355,2.343,2.665S-20.576,677.547-20.857,676.336Z" transform="translate(33.437 -671.401)" fill="#e7ba8c"/>
        <g id="Grupo_56017" data-name="Grupo 56017" transform="translate(2.94 0.606)">
          <g id="Grupo_56014" data-name="Grupo 56014" transform="translate(7.656 1.445)">
            <path id="Trazado_100965" data-name="Trazado 100965" d="M-27.1,676.176c.525-.3.448-.988.275-1.475a4.063,4.063,0,0,0-1.018-1.549c-.376-.366.2-.942.574-.576a4.818,4.818,0,0,1,1.291,2.1,1.883,1.883,0,0,1-.711,2.2.408.408,0,0,1-.411-.7Z" transform="translate(27.969 -672.459)" fill="#cca47f"/>
          </g>
          <g id="Grupo_56015" data-name="Grupo 56015" transform="translate(3.131 0.899)">
            <path id="Trazado_100966" data-name="Trazado 100966" d="M-30.1,675.673a2.135,2.135,0,0,0,.6-2.886.415.415,0,0,1,.145-.556.411.411,0,0,1,.556.145,3.477,3.477,0,0,1,.335,2.359,2.566,2.566,0,0,1-1.233,1.642c-.459.25-.87-.454-.409-.7Z" transform="translate(30.304 -672.178)" fill="#cca47f"/>
          </g>
          <g id="Grupo_56016" data-name="Grupo 56016">
            <path id="Trazado_100967" data-name="Trazado 100967" d="M-31.033,671.912a3.971,3.971,0,0,1-.13,3.6.406.406,0,0,1-.7-.409,3.116,3.116,0,0,0,.13-2.777.416.416,0,0,1,.145-.556.408.408,0,0,1,.556.145Z" transform="translate(31.919 -671.714)" fill="#cca47f"/>
          </g>
        </g>
      </g>
      <g id="Grupo_56032" data-name="Grupo 56032" transform="translate(84.698 4.565)">
        <g id="Grupo_56028" data-name="Grupo 56028">
          <g id="Grupo_56019" data-name="Grupo 56019" transform="translate(0 18.545)">
            <circle id="Elipse_11" data-name="Elipse 11" cx="9.168" cy="9.168" r="9.168" transform="translate(0 1.536)" fill="#124c64"/>
            <circle id="Elipse_12" data-name="Elipse 12" cx="8.28" cy="8.28" r="8.28" transform="translate(23.833 11.71) rotate(-45)" fill="#124c64"/>
          </g>
          <path id="Trazado_100968" data-name="Trazado 100968" d="M-77.118,688.381a5.064,5.064,0,0,1,2.946.944v-3.033c0-4.809,3.456-8.743,7.679-8.743h6.351c4.225,0,7.681,3.934,7.681,8.743v9.848c0,4.808-3.456,8.743-7.681,8.743h-3.673v5.3a3.967,3.967,0,0,1-3.954,3.956H-70.29a3.967,3.967,0,0,1-3.954-3.956V697.863c0-.12.01-.239.021-.355a5.058,5.058,0,0,1-2.9.907,5.037,5.037,0,0,1-5.057-5.018A5.037,5.037,0,0,1-77.118,688.381Z" transform="translate(91.343 -670.198)" fill="#e7ba8c"/>
          <g id="Grupo_56020" data-name="Grupo 56020" transform="translate(13.277 20.4)">
            <path id="Trazado_100969" data-name="Trazado 100969" d="M-76.778,687.744a3.046,3.046,0,0,0,0-.326c0-.05-.006-.1-.012-.151l-.008-.083c-.014-.128.014.083,0-.018a4.209,4.209,0,0,0-.085-.413c-.019-.072-.041-.144-.064-.213-.012-.039-.027-.079-.041-.118s-.064-.141-.017-.043a3.048,3.048,0,0,0-.258-.467c-.019-.025-.107-.132-.027-.039-.027-.033-.054-.066-.083-.1a2.008,2.008,0,0,0-.205-.2c-.021-.019-.14-.107-.045-.039-.039-.027-.076-.054-.114-.079a2.317,2.317,0,0,0-.279-.157s-.095-.041-.035-.016-.056-.021-.068-.025c-.06-.023-.122-.043-.184-.06s-.132-.035-.2-.049l-.07-.014c-.016,0-.165-.025-.07-.013a4.332,4.332,0,0,0-1,0,.409.409,0,0,1-.407-.407.417.417,0,0,1,.407-.407,3.244,3.244,0,0,1,2.911.971,3.625,3.625,0,0,1,.76,2.019,3.117,3.117,0,0,1,.014.446.419.419,0,0,1-.407.407.411.411,0,0,1-.407-.407Z" transform="translate(80.055 -684.282)" fill="#cca47f"/>
          </g>
          <g id="Grupo_56026" data-name="Grupo 56026" transform="translate(21.191 15.556)">
            <g id="Grupo_56021" data-name="Grupo 56021" transform="translate(4.977 2.323)">
              <path id="Trazado_100970" data-name="Trazado 100970" d="M-73.4,684.413a1.433,1.433,0,0,0,1.432,1.432,1.433,1.433,0,0,0,1.432-1.432,1.433,1.433,0,0,0-1.432-1.432A1.433,1.433,0,0,0-73.4,684.413Z" transform="translate(73.404 -682.981)" fill="#030226"/>
              <path id="Trazado_100971" data-name="Trazado 100971" d="M-68.566,684.2a1.221,1.221,0,0,0,1.221,1.223,1.222,1.222,0,0,0,1.223-1.223,1.221,1.221,0,0,0-1.223-1.221A1.221,1.221,0,0,0-68.566,684.2Z" transform="translate(77.943 -682.981)" fill="#030226"/>
            </g>
            <g id="Grupo_56022" data-name="Grupo 56022" transform="translate(0 5.461)">
              <path id="Trazado_100972" data-name="Trazado 100972" d="M-75.972,688.16a3.56,3.56,0,0,0,3.56,3.558,3.558,3.558,0,0,0,3.558-3.558,3.559,3.559,0,0,0-3.558-3.56A3.561,3.561,0,0,0-75.972,688.16Z" transform="translate(75.972 -684.6)" fill="#d37a9b"/>
              <path id="Trazado_100973" data-name="Trazado 100973" d="M-65.858,685.039a2.71,2.71,0,0,1,.63.076v3.692a7.552,7.552,0,0,1-.134,1.6,3.18,3.18,0,0,1-.5.047,2.708,2.708,0,0,1-2.708-2.709A2.708,2.708,0,0,1-65.858,685.039Z" transform="translate(82.92 -684.188)" fill="#d37a9b"/>
            </g>
            <g id="Grupo_56023" data-name="Grupo 56023" transform="translate(10.741 1.93)">
              <path id="Trazado_100974" data-name="Trazado 100974" d="M-69.684,682.987a35.916,35.916,0,0,0,2.056,3.7.419.419,0,0,1-.147.556,8.834,8.834,0,0,1-2.056,1.136.41.41,0,0,1-.5-.283.418.418,0,0,1,.285-.5,8.068,8.068,0,0,0,1.863-1.054l-.147.558a35.719,35.719,0,0,1-2.054-3.7c-.227-.469.475-.884.7-.411Z" transform="translate(70.43 -682.778)" fill="#cca47f"/>
            </g>
            <g id="Grupo_56024" data-name="Grupo 56024" transform="translate(4.158)">
              <path id="Trazado_100975" data-name="Trazado 100975" d="M-71.42,682.539q-.9.4-1.8.787a.437.437,0,0,1-.312.043.418.418,0,0,1-.244-.188.41.41,0,0,1,.147-.556l1.8-.787a.433.433,0,0,1,.314-.041.41.41,0,0,1,.242.186.411.411,0,0,1-.145.556Z" transform="translate(73.827 -681.782)" fill="#cca47f"/>
            </g>
            <g id="Grupo_56025" data-name="Grupo 56025" transform="translate(14.485 0.575)">
              <path id="Trazado_100976" data-name="Trazado 100976" d="M-66.846,683.188c-.452-.095-.9-.2-1.351-.312a.41.41,0,0,1-.285-.5.415.415,0,0,1,.5-.283c.448.11.9.215,1.351.31a.409.409,0,0,1,.283.5.415.415,0,0,1-.5.285Z" transform="translate(68.498 -682.079)" fill="#cca47f"/>
            </g>
          </g>
          <path id="Trazado_100977" data-name="Trazado 100977" d="M-77.6,678.026c5.157-5.2,12.631-5.615,19.587-1.438s6.8,11.015,6.388,11.989a1.719,1.719,0,0,1-1.322,1.163,12.7,12.7,0,0,1-3.649-.448c-5.549-1.18-9.061-5.989-9.061-5.989s.473.868-1.417,4.886c-1.417,3.014-5.02,4.878-6.859,5.648a4.189,4.189,0,0,0-.977-1.07,4.6,4.6,0,0,0-2.638-.828,5.439,5.439,0,0,0-3.246,1.128C-82.205,690.335-82.348,682.811-77.6,678.026Z" transform="translate(91.829 -673.756)" fill="#124c64"/>
          <g id="Grupo_56027" data-name="Grupo 56027" transform="translate(29.966 26.356)">
            <path id="Trazado_100978" data-name="Trazado 100978" d="M-66.223,687.749a2.648,2.648,0,0,1-1.711,2.45,2.621,2.621,0,0,1-2.88-.752,2.685,2.685,0,0,1-.63-1.7.407.407,0,0,1,.814,0,1.814,1.814,0,0,0,1.8,1.8,1.816,1.816,0,0,0,1.8-1.8.406.406,0,0,1,.812,0Z" transform="translate(71.444 -687.355)" fill="#cca47f"/>
          </g>
        </g>
        <g id="Grupo_56031" data-name="Grupo 56031" transform="translate(14.804 38.087)">
          <g id="Grupo_56029" data-name="Grupo 56029" transform="translate(0 0)">
            <rect id="Rectángulo_5362" data-name="Rectángulo 5362" width="14.608" height="7.116" rx="1.499" transform="translate(0 0.164) rotate(-0.641)" fill="#fff"/>
            <rect id="Rectángulo_5363" data-name="Rectángulo 5363" width="14.608" height="7.116" rx="1.499" transform="translate(0 0.164) rotate(-0.641)" fill="none" stroke="#124c64" stroke-miterlimit="10" stroke-width="1"/>
          </g>
          <g id="Grupo_56030" data-name="Grupo 56030" transform="translate(2.23 0.023)">
            <line id="Línea_155" data-name="Línea 155" y2="7.12" transform="translate(10.337)" fill="none" stroke="#124c64" stroke-miterlimit="10" stroke-width="1"/>
            <line id="Línea_156" data-name="Línea 156" y2="7.12" transform="translate(7.753)" fill="none" stroke="#124c64" stroke-miterlimit="10" stroke-width="1"/>
            <line id="Línea_157" data-name="Línea 157" y2="7.12" transform="translate(5.168)" fill="none" stroke="#124c64" stroke-miterlimit="10" stroke-width="1"/>
            <line id="Línea_158" data-name="Línea 158" y2="7.12" transform="translate(2.584)" fill="none" stroke="#124c64" stroke-miterlimit="10" stroke-width="1"/>
            <line id="Línea_159" data-name="Línea 159" y2="7.12" fill="none" stroke="#124c64" stroke-miterlimit="10" stroke-width="1"/>
          </g>
        </g>
      </g>
    </g>
    <g id="Grupo_56050" data-name="Grupo 56050" transform="translate(-116.979 689.98)">
      <g id="Grupo_56037" data-name="Grupo 56037" transform="translate(0 239.977)">
        <g id="Grupo_56034" data-name="Grupo 56034">
          <path id="Trazado_100979" data-name="Trazado 100979" d="M-115.5,802.11h-26.523a1.086,1.086,0,0,1-1.085-1.085,1.084,1.084,0,0,1,1.085-1.083H-115.5a1.084,1.084,0,0,1,1.085,1.083A1.086,1.086,0,0,1-115.5,802.11Z" transform="translate(143.108 -799.941)" fill="#124c64"/>
        </g>
        <g id="Grupo_56035" data-name="Grupo 56035" transform="translate(30.502)">
          <path id="Trazado_100980" data-name="Trazado 100980" d="M-119.654,802.11h-6.63a1.086,1.086,0,0,1-1.085-1.085,1.084,1.084,0,0,1,1.085-1.083h6.63a1.084,1.084,0,0,1,1.085,1.083A1.086,1.086,0,0,1-119.654,802.11Z" transform="translate(127.37 -799.941)" fill="#124c64"/>
        </g>
        <g id="Grupo_56036" data-name="Grupo 56036" transform="translate(40.891)">
          <path id="Trazado_100981" data-name="Trazado 100981" d="M-117.277,802.11h-3.648a1.086,1.086,0,0,1-1.085-1.085,1.084,1.084,0,0,1,1.085-1.083h3.648a1.084,1.084,0,0,1,1.085,1.083A1.086,1.086,0,0,1-117.277,802.11Z" transform="translate(122.01 -799.941)" fill="#124c64"/>
        </g>
      </g>
      <g id="Grupo_56038" data-name="Grupo 56038" transform="translate(238.779 177.39)">
        <path id="Trazado_100982" data-name="Trazado 100982" d="M-10.771,769.819h-8.051a1.086,1.086,0,0,1-1.085-1.085,1.086,1.086,0,0,1,1.085-1.085h8.051a1.086,1.086,0,0,1,1.085,1.085A1.086,1.086,0,0,1-10.771,769.819Z" transform="translate(19.907 -767.648)" fill="#124c64"/>
      </g>
      <g id="Grupo_56039" data-name="Grupo 56039" transform="translate(266.622 146.775)">
        <path id="Trazado_100983" data-name="Trazado 100983" d="M.8,764.535a1.087,1.087,0,0,1-.767-.318l-5.256-5.256a1.091,1.091,0,0,1-.318-.767,1.084,1.084,0,0,1,.318-.767L.033,752.17a1.087,1.087,0,0,1,.767-.318h0a1.087,1.087,0,0,1,.767.318l5.256,5.256a1.085,1.085,0,0,1,0,1.533l-5.256,5.258A1.087,1.087,0,0,1,.8,764.535Zm-3.723-6.341L.8,761.915l3.723-3.721L.8,754.47Z" transform="translate(5.541 -751.852)" fill="#124c64"/>
      </g>
      <g id="Grupo_56040" data-name="Grupo 56040" transform="translate(64.952 8.708)">
        <path id="Trazado_100984" data-name="Trazado 100984" d="M-102.4,695a7.2,7.2,0,0,1-7.192-7.19,7.2,7.2,0,0,1,7.192-7.192,7.2,7.2,0,0,1,7.19,7.192A7.2,7.2,0,0,1-102.4,695Zm0-12.212a5.027,5.027,0,0,0-5.022,5.022,5.026,5.026,0,0,0,5.022,5.02,5.026,5.026,0,0,0,5.02-5.02A5.026,5.026,0,0,0-102.4,682.786Z" transform="translate(109.595 -680.615)" fill="#124c64"/>
      </g>
      <g id="Grupo_56043" data-name="Grupo 56043" transform="translate(298.882 120.791)">
        <g id="Grupo_56041" data-name="Grupo 56041" transform="translate(0)">
          <path id="Trazado_100985" data-name="Trazado 100985" d="M17.644,746.071a1.085,1.085,0,0,1-.767-.318L11.42,740.3a1.085,1.085,0,0,1,1.535-1.535l5.456,5.456a1.085,1.085,0,0,1-.767,1.853Z" transform="translate(-11.104 -738.445)" fill="#124c64"/>
        </g>
        <g id="Grupo_56042" data-name="Grupo 56042" transform="translate(0)">
          <path id="Trazado_100986" data-name="Trazado 100986" d="M12.188,746.071a1.085,1.085,0,0,1-.767-1.853l5.456-5.456a1.085,1.085,0,0,1,1.535,1.535l-5.456,5.456A1.088,1.088,0,0,1,12.188,746.071Z" transform="translate(-11.104 -738.445)" fill="#124c64"/>
        </g>
      </g>
      <g id="Grupo_56046" data-name="Grupo 56046" transform="translate(227.969 109.007)">
        <g id="Grupo_56044" data-name="Grupo 56044" transform="translate(0)">
          <path id="Trazado_100987" data-name="Trazado 100987" d="M-18.944,739.991a1.088,1.088,0,0,1-.767-.318l-5.456-5.456a1.088,1.088,0,0,1,0-1.535,1.088,1.088,0,0,1,1.535,0l5.456,5.456a1.088,1.088,0,0,1,0,1.535A1.088,1.088,0,0,1-18.944,739.991Z" transform="translate(25.485 -732.365)" fill="#124c64"/>
        </g>
        <g id="Grupo_56045" data-name="Grupo 56045" transform="translate(0)">
          <path id="Trazado_100988" data-name="Trazado 100988" d="M-24.4,739.991a1.088,1.088,0,0,1-.767-.318,1.088,1.088,0,0,1,0-1.535l5.456-5.456a1.088,1.088,0,0,1,1.535,0,1.088,1.088,0,0,1,0,1.535l-5.456,5.456A1.084,1.084,0,0,1-24.4,739.991Z" transform="translate(25.485 -732.365)" fill="#124c64"/>
        </g>
      </g>
      <g id="Grupo_56049" data-name="Grupo 56049" transform="translate(35.569)">
        <g id="Grupo_56047" data-name="Grupo 56047">
          <path id="Trazado_100989" data-name="Trazado 100989" d="M-118.215,683.747a1.08,1.08,0,0,1-.768-.318l-5.456-5.454a1.088,1.088,0,0,1,0-1.535,1.085,1.085,0,0,1,1.535,0l5.456,5.456a1.086,1.086,0,0,1,0,1.533A1.077,1.077,0,0,1-118.215,683.747Z" transform="translate(124.755 -676.122)" fill="#124c64"/>
        </g>
        <g id="Grupo_56048" data-name="Grupo 56048" transform="translate(0 0.001)">
          <path id="Trazado_100990" data-name="Trazado 100990" d="M-123.671,683.746a1.08,1.08,0,0,1-.768-.318,1.086,1.086,0,0,1,0-1.533l5.456-5.456a1.088,1.088,0,0,1,1.535,0,1.088,1.088,0,0,1,0,1.535l-5.456,5.456A1.083,1.083,0,0,1-123.671,683.746Z" transform="translate(124.755 -676.122)" fill="#124c64"/>
        </g>
      </g>
    </g>
  </g>
</svg>
