<svg xmlns="http://www.w3.org/2000/svg" xmlns:xlink="http://www.w3.org/1999/xlink" width="600" height="402" viewBox="0 0 600 402">
  <defs>
    <filter id="Elipse_192" x="253" y="83" width="108" height="108" filterUnits="userSpaceOnUse">
      <feOffset dy="3" input="SourceAlpha"/>
      <feGaussianBlur stdDeviation="3" result="blur"/>
      <feFlood flood-opacity="0.09"/>
      <feComposite operator="in" in2="blur"/>
      <feComposite in="SourceGraphic"/>
    </filter>
    <filter id="Elipse_197" x="355" y="150" width="108" height="108" filterUnits="userSpaceOnUse">
      <feOffset dy="3" input="SourceAlpha"/>
      <feGaussianBlur stdDeviation="3" result="blur-2"/>
      <feFlood flood-opacity="0.09"/>
      <feComposite operator="in" in2="blur-2"/>
      <feComposite in="SourceGraphic"/>
    </filter>
    <filter id="Elipse_198" x="316" y="275" width="108" height="108" filterUnits="userSpaceOnUse">
      <feOffset dy="3" input="SourceAlpha"/>
      <feGaussianBlur stdDeviation="3" result="blur-3"/>
      <feFlood flood-opacity="0.09"/>
      <feComposite operator="in" in2="blur-3"/>
      <feComposite in="SourceGraphic"/>
    </filter>
    <filter id="Elipse_199" x="189" y="275" width="108" height="108" filterUnits="userSpaceOnUse">
      <feOffset dy="3" input="SourceAlpha"/>
      <feGaussianBlur stdDeviation="3" result="blur-4"/>
      <feFlood flood-opacity="0.09"/>
      <feComposite operator="in" in2="blur-4"/>
      <feComposite in="SourceGraphic"/>
    </filter>
    <filter id="Elipse_200" x="144" y="156" width="108" height="108" filterUnits="userSpaceOnUse">
      <feOffset dy="3" input="SourceAlpha"/>
      <feGaussianBlur stdDeviation="3" result="blur-5"/>
      <feFlood flood-opacity="0.09"/>
      <feComposite operator="in" in2="blur-5"/>
      <feComposite in="SourceGraphic"/>
    </filter>
  </defs>
  <g id="Grupo_1054530" data-name="Grupo 1054530" transform="translate(-468 -1248)">
    <circle id="Elipse_181" data-name="Elipse 181" cx="76.5" cy="76.5" r="76.5" transform="translate(699 1306)" fill="#ffca01"/>
    <path id="Trazado_736817" data-name="Trazado 736817" d="M76.5,0A76.5,76.5,0,1,1,0,76.5,76.5,76.5,0,0,1,76.5,0Z" transform="translate(801 1376)" fill="#ff6e33"/>
    <circle id="Elipse_189" data-name="Elipse 189" cx="76.5" cy="76.5" r="76.5" transform="translate(761 1497)" fill="#9f0925"/>
    <circle id="Elipse_190" data-name="Elipse 190" cx="76.5" cy="76.5" r="76.5" transform="translate(634 1497)" fill="#0ce6ea"/>
    <circle id="Elipse_191" data-name="Elipse 191" cx="76.5" cy="76.5" r="76.5" transform="translate(596 1376)" fill="#1448d3"/>
    <path id="Trazado_101706" data-name="Trazado 101706" d="M2083.362,659.753c-21.748,0-43.5-.086-65.242.076-3.709.027-5.644-.777-6.889-4.655q-20.178-62.874-40.774-125.614c-1-3.069-.764-4.935,2.126-7.021q53.8-38.84,107.361-78.012c2.759-2.016,4.573-2.029,7.354,0q53.577,39.147,107.375,77.99c2.857,2.062,3.152,3.895,2.138,7q-20.523,62.764-40.766,125.619c-1.225,3.814-3.11,4.737-6.874,4.707C2127.236,659.667,2105.3,659.757,2083.362,659.753Z" transform="translate(-1308.92 926.99)" fill="#f3f9ff"/>
    <g transform="matrix(1, 0, 0, 1, 468, 1248)" filter="url(#Elipse_192)">
      <circle id="Elipse_192-2" data-name="Elipse 192" cx="45" cy="45" r="45" transform="translate(262 89)" fill="#f6f6f6"/>
    </g>
    <g transform="matrix(1, 0, 0, 1, 468, 1248)" filter="url(#Elipse_197)">
      <circle id="Elipse_197-2" data-name="Elipse 197" cx="45" cy="45" r="45" transform="translate(364 156)" fill="#f6f6f6"/>
    </g>
    <g transform="matrix(1, 0, 0, 1, 468, 1248)" filter="url(#Elipse_198)">
      <circle id="Elipse_198-2" data-name="Elipse 198" cx="45" cy="45" r="45" transform="translate(325 281)" fill="#f6f6f6"/>
    </g>
    <g transform="matrix(1, 0, 0, 1, 468, 1248)" filter="url(#Elipse_199)">
      <circle id="Elipse_199-2" data-name="Elipse 199" cx="45" cy="45" r="45" transform="translate(198 281)" fill="#f6f6f6"/>
    </g>
    <g transform="matrix(1, 0, 0, 1, 468, 1248)" filter="url(#Elipse_200)">
      <circle id="Elipse_200-2" data-name="Elipse 200" cx="45" cy="45" r="45" transform="translate(153 162)" fill="#f6f6f6"/>
    </g>
    <text id="Calidad" transform="translate(741 1495)" fill="#12263f" font-size="20" font-family="SegoeUIBlack, Segoe UI"><tspan x="0" y="0">Calidad</tspan></text>
    <text id="Integración_total_del_proceso" data-name="Integración total
del proceso" transform="translate(735 1267)" fill="#12263f" font-size="18" font-family="SegoeUI, Segoe UI"><tspan x="0" y="0">Integración total</tspan><tspan x="0" y="24">del proceso</tspan></text>
    <text id="Excelencia_en_la_gestión" data-name="Excelencia enla gestión" transform="translate(574 1449)" fill="#12263f" font-size="18" font-family="SegoeUI, Segoe UI"><tspan x="-105.416" y="0">Excelencia en</tspan><tspan x="-77.291" y="24">la gestión</tspan></text>
    <text id="Equipo_comprometido_con_la_calidad" data-name="Equipo 
comprometido con la calidad" transform="translate(618 1569)" fill="#12263f" font-size="18" font-family="SegoeUI, Segoe UI"><tspan x="-60.311" y="0">Equipo </tspan><tspan x="-123.205" y="24">comprometido </tspan><tspan x="-108.976" y="48">con la calidad</tspan></text>
    <text id="Satisfacción_del_cliente" data-name="Satisfaccióndel cliente" transform="translate(974 1444)" fill="#12263f" font-size="18" font-family="SegoeUI, Segoe UI"><tspan x="0" y="0">Satisfacción</tspan><tspan x="0" y="24">del cliente</tspan></text>
    <text id="Mejora_continua" data-name="Mejora
continua" transform="translate(932 1581)" fill="#12263f" font-size="18" font-family="SegoeUI, Segoe UI"><tspan x="0" y="0">Mejora</tspan><tspan x="0" y="24">continua</tspan></text>
    <g id="light-bulb" transform="translate(770.747 1550.563)">
      <g id="Grupo_58420" data-name="Grupo 58420" transform="translate(48.003)">
        <g id="Grupo_58419" data-name="Grupo 58419" transform="translate(0)">
          <path id="Trazado_102053" data-name="Trazado 102053" d="M232.784,4.687a.781.781,0,0,0,.781-.781V.781a.781.781,0,0,0-1.562,0V3.906A.781.781,0,0,0,232.784,4.687Z" transform="translate(-214.034 0)" fill="#9f0925"/>
          <path id="Trazado_102054" data-name="Trazado 102054" d="M140.082,25.784l1.563,2.705A.781.781,0,1,0,143,27.718L143,27.709,141.435,25a.781.781,0,1,0-1.358.772Z" transform="translate(-130.993 -22.205)" fill="#9f0925"/>
          <path id="Trazado_102055" data-name="Trazado 102055" d="M73,93.428l.009.005L75.712,95a.781.781,0,0,0,.79-1.348l-.009-.005L73.788,92.08A.781.781,0,0,0,73,93.428Z" transform="translate(-70.208 -82.991)" fill="#9f0925"/>
          <path id="Trazado_102056" data-name="Trazado 102056" d="M52.69,184.781a.781.781,0,0,0-.781-.781H48.784a.781.781,0,0,0,0,1.563h3.125A.781.781,0,0,0,52.69,184.781Z" transform="translate(-48.003 -166.031)" fill="#9f0925"/>
          <path id="Trazado_102057" data-name="Trazado 102057" d="M75.721,260.074l-.009.005-2.705,1.563A.781.781,0,0,0,73.778,263l.009-.005,2.705-1.562a.781.781,0,1,0-.772-1.358Z" transform="translate(-70.208 -234.584)" fill="#9f0925"/>
          <path id="Trazado_102058" data-name="Trazado 102058" d="M367.486,261.647l-.009-.005-2.706-1.562a.781.781,0,0,0-.79,1.348l.009.005,2.705,1.563a.781.781,0,1,0,.79-1.348Z" transform="translate(-332.775 -234.584)" fill="#9f0925"/>
          <path id="Trazado_102059" data-name="Trazado 102059" d="M387.909,184h-3.125a.781.781,0,0,0,0,1.563h3.125a.781.781,0,1,0,0-1.562Z" transform="translate(-351.191 -166.031)" fill="#9f0925"/>
          <path id="Trazado_102060" data-name="Trazado 102060" d="M364.43,95.1a.781.781,0,0,0,.391-.1l2.705-1.562a.781.781,0,1,0-.772-1.358l-.009.005-2.705,1.563a.781.781,0,0,0,.391,1.458Z" transform="translate(-332.824 -82.99)" fill="#9f0925"/>
          <path id="Trazado_102061" data-name="Trazado 102061" d="M308.388,28.776h0a.781.781,0,0,0,1.067-.287h0l1.563-2.705a.781.781,0,1,0-1.348-.79l-.005.009L308.1,27.708A.781.781,0,0,0,308.388,28.776Z" transform="translate(-282.608 -22.205)" fill="#9f0925"/>
          <path id="Trazado_102062" data-name="Trazado 102062" d="M176.6,175.625a.781.781,0,0,0,.781-.781V166.25h1.563a3.125,3.125,0,1,0-3.125-3.125v1.563h-1.562v-1.562a3.125,3.125,0,1,0-3.125,3.125h1.563v8.594a.781.781,0,1,0,1.563,0V166.25h1.563v8.594A.781.781,0,0,0,176.6,175.625Zm.781-12.5a1.563,1.563,0,1,1,1.563,1.563h-1.562Zm-4.687,1.563h-1.562a1.563,1.563,0,1,1,1.563-1.562Z" transform="translate(-156.284 -144.375)" fill="#9f0925"/>
          <path id="Trazado_102063" data-name="Trazado 102063" d="M125.176,64.017a12.5,12.5,0,0,0-8.53,22.148,2.328,2.328,0,0,1,.892,1.787v1.832a2.344,2.344,0,0,0,1.562,2.2v.925a2.329,2.329,0,0,0,.609,1.563,2.308,2.308,0,0,0,0,3.125,2.334,2.334,0,0,0,1.734,3.906.762.762,0,0,0,.642-1.2.828.828,0,0,0-.087-.135.807.807,0,0,0-.217-.142c-.023-.012-.045-.021-.069-.03a.828.828,0,0,0-.246-.049c-.008,0-.015,0-.023,0a.781.781,0,1,1,0-1.562h3.125a.781.781,0,1,0,0-1.562h-3.125a.781.781,0,0,1,0-1.562h3.125a.781.781,0,1,0,0-1.562h-3.125a.781.781,0,0,1-.781-.781v-.781h3.906a.781.781,0,1,0,0-1.562h-4.687a.781.781,0,0,1-.781-.781V87.951a3.884,3.884,0,0,0-1.465-3A10.937,10.937,0,0,1,125.1,65.58a11.063,11.063,0,0,1,10.4,10.855A10.873,10.873,0,0,1,131.448,85a3.873,3.873,0,0,0-1.41,3.041v1.741a.781.781,0,0,1-.781.781h-2.344a.781.781,0,0,0,0,1.563h1.563v.781a.781.781,0,0,1-.781.781h-.781a.781.781,0,0,0,0,1.562h.781a.781.781,0,1,1,0,1.563h-.781a.781.781,0,0,0,0,1.563h.781a.781.781,0,1,1,0,1.562h-3.906a.781.781,0,0,0,0,1.563h2.991a2.344,2.344,0,0,1-3.962.776.781.781,0,0,0-1.167,1.039,3.9,3.9,0,0,0,6.759-1.938,2.321,2.321,0,0,0,1.02-3.783,2.308,2.308,0,0,0,0-3.125,2.329,2.329,0,0,0,.609-1.562v-.925a2.344,2.344,0,0,0,1.563-2.2V88.041a2.348,2.348,0,0,1,.829-1.826,12.426,12.426,0,0,0,4.64-9.792A12.645,12.645,0,0,0,125.176,64.017Z" transform="translate(-105.819 -57.752)" fill="#9f0925"/>
        </g>
      </g>
    </g>
    <g id="satisfaction" transform="translate(841.398 1428.599)">
      <g id="Grupo_58422" data-name="Grupo 58422" transform="translate(30.111 5.646)">
        <g id="Grupo_58421" data-name="Grupo 58421">
          <path id="Trazado_102064" data-name="Trazado 102064" d="M203.765,64.783a.934.934,0,0,0-.754-.635L200,63.711l-1.346-2.726a.934.934,0,0,0-.837-.52h0a.934.934,0,0,0-.837.521l-1.345,2.727-3.009.438a.934.934,0,0,0-.517,1.593l2.178,2.122-.513,3a.934.934,0,0,0,1.355.984l2.691-1.416,2.691,1.414a.934.934,0,0,0,1.354-.985l-.515-3,2.177-2.123A.934.934,0,0,0,203.765,64.783ZM199.7,66.869a.934.934,0,0,0-.268.826l.278,1.616-1.451-.762a.934.934,0,0,0-.869,0l-1.451.763.277-1.616a.934.934,0,0,0-.269-.826l-1.174-1.144,1.622-.236a.934.934,0,0,0,.7-.511l.725-1.47.726,1.47a.933.933,0,0,0,.7.511l1.622.235Z" transform="translate(-191.828 -60.465)" fill="#ff6e33"/>
        </g>
      </g>
      <g id="Grupo_58424" data-name="Grupo 58424" transform="translate(20.838 0)">
        <g id="Grupo_58423" data-name="Grupo 58423" transform="translate(0 0)">
          <path id="Trazado_102065" data-name="Trazado 102065" d="M122.6,27.274l-4.138-11.683a.929.929,0,0,0-.051-.116,11.407,11.407,0,0,0-2.58-12.142A11.291,11.291,0,0,0,109.349.107a11.482,11.482,0,0,0-6.978,1.251A.934.934,0,0,0,103.257,3a9.524,9.524,0,1,1-3.872,3.874.934.934,0,1,0-1.644-.885,11.423,11.423,0,0,0-.432,9.906L92.6,25.918a.934.934,0,0,0,.957,1.324l5.95-.722,3.271,5.022a.934.934,0,0,0,.782.424l.066,0a.934.934,0,0,0,.78-.537l3.278-7.03,2.666,7.325a.933.933,0,0,0,1.612.256l3.7-4.718,5.864,1.238a.934.934,0,0,0,1.073-1.225Zm-19.172,1.84-2.671-4.1a.935.935,0,0,0-.895-.417l-4.852.589L98.429,17.9a11.531,11.531,0,0,0,1.293,1.542,11.3,11.3,0,0,0,6.693,3.254Zm12.051-3.8a.934.934,0,0,0-.928.338L111.53,29.5l-2.473-6.795a11.4,11.4,0,0,0,8.179-4.976l3.044,8.595Z" transform="translate(-92.511 0)" fill="#ff6e33"/>
        </g>
      </g>
      <g id="Grupo_58426" data-name="Grupo 58426" transform="translate(27.766 3.057)">
        <g id="Grupo_58425" data-name="Grupo 58425">
          <path id="Trazado_102066" data-name="Trazado 102066" d="M168.315,33.02l-.007-.007a.934.934,0,0,0-1.32,1.32l.007.007a.934.934,0,0,0,1.32-1.32Z" transform="translate(-166.714 -32.74)" fill="#ff8a5b"/>
        </g>
      </g>
      <g id="Grupo_58428" data-name="Grupo 58428" transform="translate(48.617 41.461)">
        <g id="Grupo_58427" data-name="Grupo 58427">
          <path id="Trazado_102067" data-name="Trazado 102067" d="M391.636,444.34a.933.933,0,1,0,.274.66A.942.942,0,0,0,391.636,444.34Z" transform="translate(-390.042 -444.066)" fill="#ff8a5b"/>
        </g>
      </g>
      <g id="Grupo_58430" data-name="Grupo 58430" transform="translate(13.457 30.623)">
        <g id="Grupo_58429" data-name="Grupo 58429" transform="translate(0)">
          <path id="Trazado_102068" data-name="Trazado 102068" d="M58.434,332.328a3.942,3.942,0,0,0-5.307-2.03L40,336.468a3.361,3.361,0,0,0-1.483-2.307l-6.257-4.146a.934.934,0,0,0-.516-.155H23.068v-.934a.934.934,0,0,0-.934-.934H14.391a.934.934,0,0,0,0,1.867H21.2V343.3h-6.81a.934.934,0,1,0,0,1.867h7.744a.934.934,0,0,0,.934-.934v-.062l3.118.954a.932.932,0,0,0,.273.041h10.3a16.582,16.582,0,0,0,7.207-1.658l2.683-1.3a.934.934,0,0,0-.816-1.68l-2.683,1.3a14.7,14.7,0,0,1-6.39,1.471H26.6l-3.531-1.081v-10.5h8.4l6.023,3.991a1.533,1.533,0,0,1-.443,2.757,1.535,1.535,0,0,1-1.229-.187L31.6,335.6a.934.934,0,0,0-1.005,1.574l4.212,2.69a3.405,3.405,0,0,0,2.725.415,3.359,3.359,0,0,0,2.182-1.827h.252a.933.933,0,0,0,.4-.089l13.556-6.372a2.075,2.075,0,0,1,1.789,3.743l-3.418,1.661a.934.934,0,1,0,.816,1.68l3.418-1.661A3.941,3.941,0,0,0,58.434,332.328Z" transform="translate(-13.457 -327.992)" fill="#ff6e33"/>
        </g>
      </g>
      <g id="Grupo_58432" data-name="Grupo 58432" transform="translate(18.12 36.56)">
        <g id="Grupo_58431" data-name="Grupo 58431" transform="translate(0)">
          <path id="Trazado_102069" data-name="Trazado 102069" d="M65.026,391.885a.934.934,0,0,0-1.319-.058l-.008.007a.934.934,0,0,0,1.261,1.377l.008-.007A.934.934,0,0,0,65.026,391.885Z" transform="translate(-63.396 -391.582)" fill="#ff8a5b"/>
        </g>
      </g>
    </g>
    <g id="support" transform="translate(687.467 1552)">
      <path id="Trazado_102070" data-name="Trazado 102070" d="M245.93,5.774a.894.894,0,0,0,.894-.894V.894a.894.894,0,1,0-1.787,0V4.88A.894.894,0,0,0,245.93,5.774Z" transform="translate(-222.476)" fill="#0ce6ea"/>
      <path id="Trazado_102071" data-name="Trazado 102071" d="M45.3,105.567l-1.579-1.574a2.993,2.993,0,0,0-3.541-.505l-2.975-2.972.145-.145a3.1,3.1,0,0,0,0-4.38,3.068,3.068,0,0,0-1.556-.841,3.121,3.121,0,0,0,.123-.87,3.095,3.095,0,0,0-2.462-3.031,3.121,3.121,0,0,0,.123-.87,3.092,3.092,0,0,0-2.462-3.03A3.093,3.093,0,0,0,27.811,83.4l-5.9-1.116a3.185,3.185,0,0,0-2.731.363,1.614,1.614,0,0,0-.135.14,3.108,3.108,0,0,0-3.261.717,3.075,3.075,0,0,0-.905,2.191,3.125,3.125,0,0,0,.123.87,3.1,3.1,0,0,0-2.461,3.028,3.116,3.116,0,0,0,.123.872,3.1,3.1,0,0,0-1.921,4.782,3.1,3.1,0,0,0-1.19,5.124l.144.144-2.976,2.97a2.988,2.988,0,0,0-3.381.586l-1.58,1.575a2.986,2.986,0,0,0,0,4.216l1.972,1.969A.894.894,0,1,0,5,110.569L3.029,108.6a1.2,1.2,0,0,1,0-1.686l1.58-1.575a1.2,1.2,0,0,1,1.458-.179.9.9,0,0,0,.112.138.889.889,0,0,0,.257.179l9.06,9.047a.88.88,0,0,0,.431.435,1.2,1.2,0,0,1-.05,1.632L14.3,118.166a1.2,1.2,0,0,1-1.69,0L10.637,116.2a.894.894,0,0,0-1.264,1.264l1.973,1.973a2.992,2.992,0,0,0,4.215,0l1.579-1.577a2.988,2.988,0,0,0,.418-3.691l3.349-3.345.011-.011c.383-.4,1.451-.322,2.484-.251a12.856,12.856,0,0,0,2.351.016l3.667,3.663a2.987,2.987,0,0,0,.507,3.538l1.579,1.577a2.988,2.988,0,0,0,4.216,0l9.579-9.568a2.985,2.985,0,0,0,0-4.217ZM21.583,84.042l3.877.734L23.139,87.1a5.634,5.634,0,0,1-1.391-1.011,4.112,4.112,0,0,1-1.315-2.032h0a.78.78,0,0,1,0-.088,3.029,3.029,0,0,1,1.154.078Zm-4.531.729a1.318,1.318,0,0,1,1.668-.158,6.393,6.393,0,0,0,1.793,2.764,6.619,6.619,0,0,0,2.575,1.6,1.312,1.312,0,0,1-2.005,1.675h0l-4.031-4.023a1.316,1.316,0,0,1,0-1.852Zm-2.335,3.9a1.318,1.318,0,0,1,1.857,0l3.246,3.239a1.314,1.314,0,0,1-1.859,1.856h0L15.5,91.305l-.012-.011-.77-.77a1.312,1.312,0,0,1,0-1.853Zm-2.34,3.9a1.322,1.322,0,0,1,1.851-.006l2.47,2.469a1.312,1.312,0,0,1-1.859,1.852l-.9-.894h0l-1.566-1.564a1.315,1.315,0,0,1,0-1.855ZM10.82,97.255a1.321,1.321,0,0,1,1.86,0l.9.9A1.312,1.312,0,0,1,11.717,100l-.112-.112,0,0-.005,0-.774-.771a1.313,1.313,0,0,1,0-1.854Zm18.214,10.158a.894.894,0,0,0-1.264,0l-.8.794c-.756.756-2.125.66-3.449.569-1.438-.1-2.925-.2-3.887.785l-3.292,3.288-8.232-8.22,2.913-2.908a3.1,3.1,0,0,0,4.718-2.643c0-.008,0-.015,0-.023h.023a3.092,3.092,0,0,0,3.1-3.095c0-.008,0-.015,0-.023h.024a3.088,3.088,0,0,0,3.1-3.118h.024a3.1,3.1,0,0,0,2.645-4.712l2.553-2.552a1.311,1.311,0,0,1,.671-.357c.027,0,.053-.007.079-.012a1.31,1.31,0,0,1,1.113,2.223l-.778.774-.008.007-.9.894a.894.894,0,0,0,1.263,1.265l.781-.78h0l.118-.118a1.316,1.316,0,0,1,1.855,0,1.312,1.312,0,0,1,0,1.853l-.782.784h0l-.9.892a.894.894,0,0,0,1.261,1.266l.9-.9a1.312,1.312,0,0,1,1.856,1.854l-1.559,1.56a.894.894,0,1,0,1.264,1.264l.764-.764.013-.012a1.312,1.312,0,0,1,1.857,1.853l-.777.776h0l-1.233,1.232a.894.894,0,0,0,1.263,1.265l.6-.6,2.891,2.888L30.6,112.888l-2.949-2.946a3.515,3.515,0,0,0,.587-.472l.795-.794a.893.893,0,0,0,0-1.264Zm15,1.107-9.579,9.568a1.2,1.2,0,0,1-1.689,0l-1.579-1.577a1.2,1.2,0,0,1,0-1.684l9.579-9.568a1.2,1.2,0,0,1,1.69,0l1.579,1.574a1.2,1.2,0,0,1,0,1.687Z" transform="translate(0 -74.863)" fill="#0ce6ea"/>
      <path id="Trazado_102072" data-name="Trazado 102072" d="M85.242,7.522a.894.894,0,0,0,1.263-1.265l-3.257-3.25a.894.894,0,0,0-1.263,1.265Z" transform="translate(-73.656 -2.501)" fill="#0ce6ea"/>
      <path id="Trazado_102073" data-name="Trazado 102073" d="M372.545,7.783a.891.891,0,0,0,.632-.261l3.254-3.25a.894.894,0,1,0-1.263-1.265l-3.254,3.25a.894.894,0,0,0,.632,1.526Z" transform="translate(-337.854 -2.502)" fill="#0ce6ea"/>
      <path id="Trazado_102074" data-name="Trazado 102074" d="M60.186,430.46a.894.894,0,0,0,.011,1.264l0,0a.894.894,0,1,0-.013-1.266Z" transform="translate(-53.797 -392.016)" fill="#0ce6ea"/>
      <path id="Trazado_102075" data-name="Trazado 102075" d="M333.405,333.906a.894.894,0,1,0-.4-1.692l0,0a.893.893,0,0,0,.407,1.69Z" transform="translate(-302.186 -302.644)" fill="#0ce6ea"/>
    </g>
    <g id="trophy" transform="translate(644.333 1433.068)">
      <g id="Grupo_58417" data-name="Grupo 58417" transform="translate(0 0)">
        <path id="Trazado_102049" data-name="Trazado 102049" d="M28.133,21.142a.635.635,0,0,0,.786,1,11.668,11.668,0,0,0,1.008-.9h1.388A12.032,12.032,0,0,0,43.333,9.225a1.907,1.907,0,0,0-1.9-1.9H35.408c.074-.764.109-1.382.125-1.8A2.793,2.793,0,0,0,34.955,0H8.379A2.793,2.793,0,0,0,7.8,5.525c.016.414.05,1.032.124,1.8H1.9A1.907,1.907,0,0,0,0,9.225a12.013,12.013,0,0,0,4.19,9.113.635.635,0,0,0,.828-.962A10.745,10.745,0,0,1,1.27,9.225.635.635,0,0,1,1.9,8.591H8.07c.054.4.118.827.194,1.27h-5a.639.639,0,0,0-.628.725,9.492,9.492,0,0,0,8.745,8.1,15.215,15.215,0,0,0,.9,1.292h-.267a10.626,10.626,0,0,1-4.66-1.063.635.635,0,0,0-.552,1.143,11.884,11.884,0,0,0,5.212,1.19h1.395a11.111,11.111,0,0,0,5.036,2.9,9.626,9.626,0,0,1-.963,4.731,3.771,3.771,0,0,1-3.564,1.849H12.838A2.43,2.43,0,0,0,10.41,33.15v2.227h-2.5a2.33,2.33,0,0,0-2.327,2.327v3.3a2.33,2.33,0,0,0,2.327,2.327H35.42a2.33,2.33,0,0,0,2.327-2.327v-3.3a2.33,2.33,0,0,0-2.327-2.327H32.754V33.15a2.43,2.43,0,0,0-2.428-2.428H29.242c-3.029,0-4.4-2.025-4.442-6.555a11.115,11.115,0,0,0,1.4-.452.635.635,0,0,0-.471-1.179,10.9,10.9,0,0,1-4.061.739c-5.6.138-9.351-4.038-10.981-9.027A32.036,32.036,0,0,1,9.075,5.586H13.88a.635.635,0,0,0,0-1.27h-5.5a1.523,1.523,0,1,1,0-3.047H34.955a1.523,1.523,0,0,1,0,3.047H16.8a.635.635,0,0,0,0,1.27H34.258C34.143,8.046,33.366,17.018,28.133,21.142Zm8.345,16.563v3.3a1.059,1.059,0,0,1-1.058,1.058H7.913a1.059,1.059,0,0,1-1.058-1.058v-3.3a1.059,1.059,0,0,1,1.058-1.058H35.42A1.059,1.059,0,0,1,36.478,37.705ZM31.484,33.15v2.227H11.68V33.15a1.159,1.159,0,0,1,1.158-1.158H30.327A1.159,1.159,0,0,1,31.484,33.15Zm-7.952-8.735a10.749,10.749,0,0,0,1.087,5.091,4.96,4.96,0,0,0,.956,1.216H17.613a5.053,5.053,0,0,0,.97-1.21A10.519,10.519,0,0,0,19.716,24.4a13.187,13.187,0,0,0,1.951.142A13.341,13.341,0,0,0,23.533,24.416ZM4.031,11.13H8.507a28.755,28.755,0,0,0,.971,3.51,21.657,21.657,0,0,0,1.132,2.673A8.188,8.188,0,0,1,4.031,11.13Zm37.4-2.539a.635.635,0,0,1,.635.635A10.761,10.761,0,0,1,31.315,19.974h-.269a15.487,15.487,0,0,0,.9-1.292,9.492,9.492,0,0,0,8.752-8.1.639.639,0,0,0-.628-.725h-5c.076-.443.14-.868.194-1.27Zm-6.7,2.958c.032-.141.062-.28.091-.419H39.3a8.188,8.188,0,0,1-6.586,6.185A24.667,24.667,0,0,0,34.733,11.548Z" transform="translate(0 0)" fill="#1448d3"/>
        <path id="Trazado_102050" data-name="Trazado 102050" d="M197.968,95.9a1.081,1.081,0,0,0-1.03-.749h-2.9l-.9-2.762a1.089,1.089,0,0,0-2.061,0l-.9,2.762h-2.9a1.089,1.089,0,0,0-.637,1.96l2.349,1.707-.9,2.762a1.09,1.09,0,0,0,1.667,1.211l2.349-1.707,2.349,1.707a1.09,1.09,0,0,0,1.667-1.211l-.9-2.762,2.349-1.707a1.08,1.08,0,0,0,.394-1.211Zm-3.862,2.162a.635.635,0,0,0-.231.71l.863,2.655-2.259-1.641a.635.635,0,0,0-.746,0l-2.259,1.641.863-2.655a.635.635,0,0,0-.231-.71l-2.259-1.641h2.792a.635.635,0,0,0,.6-.439l.863-2.655.863,2.655a.635.635,0,0,0,.6.439h2.792Z" transform="translate(-170.439 -83.9)" fill="#1448d3"/>
        <path id="Trazado_102051" data-name="Trazado 102051" d="M166.352,458h-8.717a.635.635,0,0,0,0,1.27h8.717a.635.635,0,0,0,0-1.27Z" transform="translate(-143.712 -419.237)" fill="#1448d3"/>
        <path id="Trazado_102052" data-name="Trazado 102052" d="M299.443,458h-3.809a.635.635,0,0,0,0,1.27h3.809a.635.635,0,0,0,0-1.27Z" transform="translate(-270.032 -419.237)" fill="#1448d3"/>
      </g>
    </g>
    <g id="skill-development" transform="translate(749.667 1356.666)">
      <path id="Trazado_102076" data-name="Trazado 102076" d="M44.729,11.974V5.938H38.693a5.938,5.938,0,1,0-11.875,0H22.365A22.365,22.365,0,1,0,44.729,28.3V23.849a5.938,5.938,0,1,0,0-11.875ZM20.88,8.963v6.858c1.79-.6,2.15-.878,2.969-.878a2.969,2.969,0,0,1,0,5.938c-.82,0-1.184-.282-2.969-.878v6.816H17.911a5.938,5.938,0,0,0-11.875,0H3.025A19.427,19.427,0,0,1,20.88,8.963ZM3.025,29.787H9.883c-.6-1.791-.878-2.15-.878-2.969a2.969,2.969,0,0,1,5.938,0c0,.819-.28,1.178-.878,2.969H20.88v2.969a5.938,5.938,0,1,0,0,11.875v3.011A19.427,19.427,0,0,1,3.025,29.787ZM23.849,47.642V40.783c-1.79.6-2.15.878-2.969.878a2.969,2.969,0,0,1,0-5.938c.82,0,1.184.282,2.969.878V29.787h2.969a5.938,5.938,0,1,0,11.875,0H41.7A19.427,19.427,0,0,1,23.849,47.642ZM44.729,20.88c-.673,0-1.183-.306-2.969-.919v6.856H34.846c.6,1.791.878,2.15.878,2.969a2.969,2.969,0,1,1-5.938,0c0-.819.28-1.178.878-2.969H23.849V23.849a5.938,5.938,0,0,0,0-11.875V8.906h6.856a11.558,11.558,0,0,1-.919-2.969,2.969,2.969,0,1,1,5.938,0c0,.673-.307,1.184-.919,2.969H41.76v6.955a11.554,11.554,0,0,1,2.969-.919,2.969,2.969,0,1,1,0,5.938Z" fill="#ffca01"/>
    </g>
  </g>
</svg>
