<svg xmlns="http://www.w3.org/2000/svg" width="80.333" height="68.722" viewBox="0 0 80.333 68.722">
  <g id="Grupo_58393" data-name="Grupo 58393" transform="translate(-14.198 -210.823)">
    <path id="Trazado_101967" data-name="Trazado 101967" d="M90.6,249.936H17.011a2.2,2.2,0,0,1-2.2-2.2v-3.452a2.2,2.2,0,0,1,2.2-2.2H90.6a2.2,2.2,0,0,1,2.2,2.2v3.452A2.2,2.2,0,0,1,90.6,249.936Z" transform="translate(0.561 28.433)" fill="#ff8a5b"/>
    <path id="Trazado_101968" data-name="Trazado 101968" d="M81.9,264.507l-61.19,0a3.138,3.138,0,0,1-3.139-3.137V220.579a3.137,3.137,0,0,1,3.137-3.139l61.19,0a3.137,3.137,0,0,1,3.137,3.139l0,40.793A3.138,3.138,0,0,1,81.9,264.507Z" transform="translate(3.064 6.015)" fill="#b3e59f"/>
    <path id="Trazado_101969" data-name="Trazado 101969" d="M78.086,257.558H73.38l-53.345,0,0-37.654,53.345,0h4.707Z" transform="translate(5.306 8.257)" fill="#e8e8e8"/>
    <path id="Trazado_101970" data-name="Trazado 101970" d="M46.22,244.677H24.035a.88.88,0,0,1-.88-.878V216.487a.88.88,0,0,1,.88-.878H46.22Z" transform="translate(8.145 4.352)" fill="#f5de46"/>
    <path id="Trazado_101971" data-name="Trazado 101971" d="M57.422,244.677H35.235V215.609H57.422a.878.878,0,0,1,.878.878V243.8A.878.878,0,0,1,57.422,244.677Z" transform="translate(19.13 4.352)" fill="#f5de46"/>
    <path id="Trazado_101972" data-name="Trazado 101972" d="M44.313,248.468l-18.469-6.387a.878.878,0,0,1-.592-.831V212.319a.88.88,0,0,1,1.167-.831l17.894,6.188Z" transform="translate(10.052 0.56)" fill="#ffe8de"/>
    <path id="Trazado_101973" data-name="Trazado 101973" d="M35.235,248.468l18.471-6.387a.88.88,0,0,0,.592-.831V212.319a.88.88,0,0,0-1.167-.831l-17.9,6.188Z" transform="translate(19.13 0.56)" fill="#ffe8de"/>
    <path id="Trazado_101974" data-name="Trazado 101974" d="M43.433,245.856H33.464A1.761,1.761,0,0,1,31.7,244.1v-2H45.2v2A1.761,1.761,0,0,1,43.433,245.856Z" transform="translate(15.917 28.433)" fill="#95f7ff"/>
    <g id="Grupo_58392" data-name="Grupo 58392" transform="translate(14.198 210.823)">
      <path id="Trazado_101975" data-name="Trazado 101975" d="M91.158,269.348H88.8a4.3,4.3,0,0,0,.474-1.963V226.592a4.32,4.32,0,0,0-4.315-4.315H78.606v-1.438a2.055,2.055,0,0,0-2.054-2.054H74.6v-5.906a2.057,2.057,0,0,0-2.728-1.944l-3.706,1.283a1.177,1.177,0,1,0,.769,2.224L72.25,213.3v28.3l-16.707,5.778v-28.3l8.651-2.992a1.177,1.177,0,0,0-.769-2.224l-9.06,3.133-17.511-6.056a2.056,2.056,0,0,0-2.727,1.944v5.9H32.18a2.058,2.058,0,0,0-2.056,2.056v1.44H23.77a4.319,4.319,0,0,0-4.315,4.313v4.185a1.177,1.177,0,0,0,2.354,0v-4.185a1.964,1.964,0,0,1,1.961-1.961h6.354v2.354H25.339a1.177,1.177,0,0,0-1.178,1.176l0,37.656a1.177,1.177,0,0,0,1.178,1.176l58.052,0a1.173,1.173,0,0,0,1.176-1.176l0-37.656a1.177,1.177,0,0,0-1.176-1.176H78.606v-2.354H84.96a1.964,1.964,0,0,1,1.961,1.963l0,40.793a1.964,1.964,0,0,1-1.961,1.961l-61.19,0a1.963,1.963,0,0,1-1.961-1.961l0-31.575a1.177,1.177,0,0,0-2.354,0l0,31.575a4.3,4.3,0,0,0,.474,1.961H17.572a3.377,3.377,0,0,0-3.374,3.374v3.45a3.377,3.377,0,0,0,3.374,3.374H64.356a1.176,1.176,0,1,0,0-2.352H17.572a1.022,1.022,0,0,1-1.02-1.02v-3.452a1.021,1.021,0,0,1,1.02-1.02H46.441v.827a2.944,2.944,0,0,0,2.94,2.938H59.35a2.942,2.942,0,0,0,2.938-2.938V271.7H91.16a1.021,1.021,0,0,1,1.02,1.02v3.452a1.022,1.022,0,0,1-1.02,1.02H69.494a1.176,1.176,0,1,0,0,2.352H91.16a3.375,3.375,0,0,0,3.372-3.372v-3.452a3.376,3.376,0,0,0-3.372-3.374ZM73.219,243.753a2.056,2.056,0,0,0,1.384-1.942V221.137h1.65v26.715H61.368ZM36.48,213.3l16.709,5.778v28.3L36.48,241.6Zm-4,7.84h1.65v20.674a2.057,2.057,0,0,0,1.382,1.942l11.851,4.1H32.478Zm49.736,8.2v35.3l-55.7,0,0-35.3h3.609V248.15A2.058,2.058,0,0,0,32.18,250.2H76.551a2.056,2.056,0,0,0,2.054-2.054V229.338ZM59.936,272.529a.586.586,0,0,1-.586.584H49.381a.586.586,0,0,1-.586-.584V271.7H59.936Z" transform="translate(-14.198 -210.823)"/>
      <path id="Trazado_101976" data-name="Trazado 101976" d="M58.614,233.207H27.7a1.177,1.177,0,0,0,0,2.354H58.614a1.177,1.177,0,0,0,0-2.354Z" transform="translate(-2.989 -190.469)"/>
      <path id="Trazado_101977" data-name="Trazado 101977" d="M47.748,235.821H27.7a1.177,1.177,0,0,0,0,2.354H47.748a1.177,1.177,0,0,0,0-2.354Z" transform="translate(-2.989 -188.092)"/>
    </g>
  </g>
</svg>
