<svg xmlns="http://www.w3.org/2000/svg" width="448.394" height="363.778" viewBox="0 0 448.394 363.778">
  <g id="Grupo_57478" data-name="Grupo 57478" transform="translate(-367.946 -350.739)">
    <g id="Grupo_57285" data-name="Grupo 57285" transform="translate(380.39 397.833)">
      <path id="Trazado_99953" data-name="Trazado 99953" d="M427.9,644.961c-55.4-26.075-99.976-175.389-6.495-237.278S620.061,385.61,642.563,419.8s35.367,64.286,75.308,59.293c45.009-5.626,111.876,105.385,3.137,165.866Z" transform="translate(-367.258 -375.299)" fill="#ffcd91" opacity="0.34"/>
      <path id="Trazado_99960" data-name="Trazado 99960" d="M553,379.757c-52.232-2.109-32.458,81.366,28.132,77.471S595.848,381.488,553,379.757Z" transform="translate(-224.458 -371.244)" fill="#ffcd91" opacity="0.34"/>
    </g>
    <g id="Grupo_57318" data-name="Grupo 57318" transform="translate(547.484 428.928)">
      <g id="Grupo_57317" data-name="Grupo 57317">
        <g id="Grupo_57297" data-name="Grupo 57297" transform="translate(0 105.254)">
          <g id="Grupo_57286" data-name="Grupo 57286">
            <path id="Trazado_101555" data-name="Trazado 101555" d="M527.216,583.944c-9.85,0-26.357-1.6-34.886-11.369-5.11-5.854-6.654-13.828-4.594-23.691,2.884-13.781-2.1-17.814-8.988-23.392-1.933-1.565-3.933-3.183-5.956-5.168-9.732-9.536-8.328-14.47-5.528-24.294,1.254-4.4-.731-5.827-3.733-7.987-3.3-2.374-7.408-5.331-8.727-13.308-1.287-7.831.5-15.074,5.045-20.4,4.37-5.12,10.976-7.935,18.616-7.935h.155c11.5.057,13.567,8.443,15.229,15.177.8,3.241,1.555,6.3,3.166,8.194,1.837,2.161,4.105,2.784,6.506,3.442,4.215,1.158,9,2.468,12.5,12.073,2.341,6.4,2.242,11.781,2.159,16.1-.109,5.929-.182,9.845,5.429,12.974a35.231,35.231,0,0,1,5.937,4.328l-.922,1.049a33.436,33.436,0,0,0-5.7-4.155c-6.343-3.536-6.253-8.251-6.144-14.221.084-4.424.178-9.438-2.071-15.6-3.267-8.93-7.484-10.086-11.563-11.206-2.5-.685-5.085-1.394-7.2-3.883-1.824-2.146-2.619-5.362-3.459-8.765-1.707-6.915-3.473-14.063-13.877-14.115h-.15c-7.225,0-13.454,2.641-17.553,7.446-4.27,5-5.948,11.841-4.725,19.258s5.068,10.178,8.161,12.4,5.783,4.159,4.261,9.505c-2.731,9.582-3.975,13.956,5.162,22.911,1.975,1.939,3.948,3.534,5.86,5.083,7,5.666,12.531,10.146,9.477,24.759-1.967,9.413-.529,16.98,4.278,22.489,10.29,11.793,33.032,11.158,39.753,10.69l.1,1.392C531.83,583.841,529.742,583.944,527.216,583.944Z" transform="translate(-454.397 -446.404)" fill="#124c64"/>
          </g>
          <g id="Grupo_57291" data-name="Grupo 57291" transform="translate(19.087 31.681)">
            <g id="Grupo_57288" data-name="Grupo 57288" transform="translate(5.948)">
              <g id="Grupo_57287" data-name="Grupo 57287">
                <path id="Trazado_101556" data-name="Trazado 101556" d="M503.792,527.613q-12.026-24.457-25.406-48.219-4.527-8.054-9.2-16.023a.925.925,0,0,0-1.6.932q15,25.585,28.489,52.014,3.1,6.092,6.119,12.23c.525,1.066,2.121.132,1.6-.934Z" transform="translate(-467.452 -462.925)" fill="#124c64"/>
              </g>
            </g>
            <g id="Grupo_57290" data-name="Grupo 57290" transform="translate(0 28.885)">
              <g id="Grupo_57289" data-name="Grupo 57289">
                <path id="Trazado_101557" data-name="Trazado 101557" d="M465.234,479.845q10.337,1.07,20.673,2.144,1.487.152,2.976.309c1.181.123,1.174-1.728,0-1.849L468.21,478.3l-2.976-.309c-1.181-.121-1.174,1.728,0,1.85Z" transform="translate(-464.351 -477.989)" fill="#124c64"/>
              </g>
            </g>
          </g>
          <g id="Grupo_57296" data-name="Grupo 57296" transform="translate(20.382 11.154)">
            <g id="Grupo_57292" data-name="Grupo 57292" transform="translate(0 35.5)">
              <path id="Trazado_101558" data-name="Trazado 101558" d="M469.3,478.331a3.825,3.825,0,1,1,4.276-3.8A4.064,4.064,0,0,1,469.3,478.331Zm0-6.2a2.44,2.44,0,1,0,2.878,2.4A2.673,2.673,0,0,0,469.3,472.132Z" transform="translate(-465.026 -470.734)" fill="#124c64"/>
            </g>
            <g id="Grupo_57293" data-name="Grupo 57293" transform="translate(8.444 5.378)">
              <path id="Trazado_101559" data-name="Trazado 101559" d="M473.7,463.576a4.274,4.274,0,1,1,3.709-2.136h0A4.277,4.277,0,0,1,473.7,463.576Zm.01-7.152a2.811,2.811,0,0,0-.75.1,2.875,2.875,0,0,0-.694,5.267,2.879,2.879,0,0,0,3.931-1.051h0a2.883,2.883,0,0,0-1.053-3.931A2.846,2.846,0,0,0,473.71,456.424Z" transform="translate(-469.43 -455.026)" fill="#124c64"/>
            </g>
            <g id="Grupo_57294" data-name="Grupo 57294" transform="translate(20.604 88.014)">
              <path id="Trazado_101560" data-name="Trazado 101560" d="M480.925,507.24c-2.844,0-5.154-2.044-5.154-4.558s2.311-4.562,5.154-4.562,5.154,2.048,5.154,4.562S483.767,507.24,480.925,507.24Zm0-7.722c-2.071,0-3.758,1.419-3.758,3.164s1.687,3.16,3.758,3.16,3.756-1.417,3.756-3.16A3.5,3.5,0,0,0,480.925,499.518Z" transform="translate(-475.771 -498.12)" fill="#124c64"/>
            </g>
            <g id="Grupo_57295" data-name="Grupo 57295" transform="translate(5.561)">
              <path id="Trazado_101561" data-name="Trazado 101561" d="M470.214,456.794a2.287,2.287,0,1,1,2.288-2.286A2.289,2.289,0,0,1,470.214,456.794Zm0-3.175a.89.89,0,1,0,.89.89A.888.888,0,0,0,470.214,453.619Z" transform="translate(-467.926 -452.221)" fill="#124c64"/>
            </g>
          </g>
        </g>
        <g id="Grupo_57301" data-name="Grupo 57301" transform="translate(134.062 117.396)">
          <g id="Grupo_57298" data-name="Grupo 57298">
            <path id="Trazado_101562" data-name="Trazado 101562" d="M553.156,577.735c-10.786,0-20.416-1.095-23.607-3.371-4.531-3.229-6.474-13.693-4.424-23.824,1.49-7.358,7.434-25.03,30.4-30.157,13.641-3.047,14.821-8.869,16.456-16.926a67.575,67.575,0,0,1,1.728-7.147c3.8-12.132,8.884-12.907,19-14.456,4.562-.7,5.177-4,6.033-8.583.89-4.767,2-10.7,8.439-14.984,7.722-5.128,16.359-6.842,23.089-4.56,5.8,1.962,10.163,6.769,12.617,13.906,3.741,10.874-2.537,17.507-7.578,22.838-2.075,2.192-4.034,4.265-4.886,6.257-1.013,2.368-.568,5.074-.054,8.207.88,5.354,1.975,12.015-4.98,18.932-5.126,5.1-10.341,5.987-14.535,6.7-4.506.767-7.227,1.231-7.292,6.556-.148,12.13-5.425,32.048-16.276,36.267C579.967,576.24,565.769,577.734,553.156,577.735ZM623.95,454.13a29.526,29.526,0,0,0-15.989,5.321c-5.954,3.958-6.959,9.333-7.843,14.075-.849,4.56-1.655,8.867-7.193,9.71-9.849,1.5-14.341,2.192-17.887,13.494a67.293,67.293,0,0,0-1.691,7c-1.67,8.251-2.991,14.767-17.519,18.012-22.167,4.949-27.9,21.981-29.335,29.072-2.148,10.608.336,19.891,3.868,22.41h0c6.527,4.652,43.436,3.914,56.42-1.141,10.621-4.127,15.262-24.819,15.387-34.98.082-6.491,3.964-7.153,8.456-7.918,4-.683,8.972-1.528,13.781-6.313,6.447-6.41,5.459-12.418,4.589-17.718-.527-3.208-1.024-6.238.15-8.984.949-2.221,2.991-4.38,5.154-6.665,5.032-5.319,10.736-11.348,7.271-21.423-2.343-6.809-6.292-11.195-11.743-13.037A18.274,18.274,0,0,0,623.95,454.13Z" transform="translate(-524.31 -452.736)" fill="#124c64"/>
          </g>
          <g id="Grupo_57300" data-name="Grupo 57300" transform="translate(16.046 32.638)">
            <g id="Grupo_57299" data-name="Grupo 57299">
              <path id="Trazado_101563" data-name="Trazado 101563" d="M534.216,562.592c4.74-5.659,9.663-11.166,14.414-16.815q17.712-21.061,34.6-42.8,12.262-15.771,24.067-31.891c.7-.961-.9-1.883-1.6-.932q-19.844,27.13-41.017,53.252-13.174,16.289-26.827,32.18c-1.643,1.9-3.336,3.768-4.951,5.7-.759.905.543,2.221,1.308,1.308Z" transform="translate(-532.678 -469.757)" fill="#124c64"/>
            </g>
          </g>
        </g>
        <g id="Grupo_57316" data-name="Grupo 57316" transform="translate(59.847)">
          <g id="Grupo_57302" data-name="Grupo 57302">
            <path id="Trazado_101564" data-name="Trazado 101564" d="M569.613,634.27l-65.162-1.12-.2-.194c-8.685-8.458-27.427-30.483-13.871-52.221,6.943-11.139,14.721-15.783,20.968-19.517,9.141-5.459,14.662-8.756,10.855-27.233l-.792-3.822c-6.165-29.659-9.561-46,21.726-59.141,23.337-9.8,22.708-19.06,21.906-30.777a60.039,60.039,0,0,1,.128-13.348,41.045,41.045,0,0,1,19.6-28.915c11.678-7.108,25.739-8.407,39.607-3.657,7.693,2.637,13.038,9.933,15.047,20.543,3.122,16.495-2.374,37.34-12,45.521-6.581,5.59-3.676,10.805.341,18.025,4.9,8.8,11,19.756,3.762,36.665-6.71,15.686-18.619,20.844-28.188,24.99-9.772,4.234-16.83,7.291-15.693,18.794.349,3.542.851,7.195,1.381,11.06.347,2.523.7,5.089,1.016,7.678l-1.386.169c-.314-2.579-.667-5.137-1.012-7.657-.533-3.879-1.036-7.544-1.39-11.114-1.237-12.516,7-16.082,16.531-20.213,9.826-4.257,20.968-9.083,27.459-24.257,6.963-16.276,1.051-26.9-3.7-35.435-4.012-7.212-7.475-13.442-.023-19.772,9.293-7.9,14.575-28.134,11.534-44.2-1.352-7.141-4.9-16.318-14.128-19.48-13.459-4.614-27.1-3.358-38.426,3.528A39.661,39.661,0,0,0,566.554,427.1a58.935,58.935,0,0,0-.115,13.051c.8,11.789,1.5,21.969-22.761,32.161-30.225,12.7-27.108,27.7-20.9,57.569l.792,3.822c4,19.452-2.5,23.339-11.511,28.717-6.117,3.655-13.731,8.2-20.5,19.053-12.917,20.717,4.938,41.929,13.465,50.292l64.606,1.108Z" transform="translate(-485.607 -391.514)" fill="#124c64"/>
          </g>
          <g id="Grupo_57312" data-name="Grupo 57312" transform="translate(30.666 23.037)">
            <g id="Grupo_57304" data-name="Grupo 57304">
              <g id="Grupo_57303" data-name="Grupo 57303">
                <path id="Trazado_101565" data-name="Trazado 101565" d="M503.282,621.433q3.955-9.126,7.933-18.243,9.788-22.467,19.651-44.9,12.572-28.6,25.289-57.143,12.319-27.61,24.911-55.1c5.91-12.827,11.793-25.7,18.272-38.247q.745-1.444,1.511-2.876c.562-1.049-1.034-1.985-1.6-.934-6.2,11.569-11.649,23.559-17.166,35.461-8.272,17.845-16.355,35.776-24.387,53.73q-12.875,28.78-25.559,57.645-10.389,23.6-20.7,47.241c-3.212,7.365-6.6,14.681-9.626,22.125-.042.105-.088.207-.134.309-.468,1.081,1.125,2.023,1.6.934Z" transform="translate(-501.6 -403.528)" fill="#124c64"/>
              </g>
            </g>
            <g id="Grupo_57309" data-name="Grupo 57309" transform="translate(16.002 78.551)">
              <g id="Grupo_57306" data-name="Grupo 57306" transform="translate(43.917)">
                <g id="Grupo_57305" data-name="Grupo 57305">
                  <path id="Trazado_101566" data-name="Trazado 101566" d="M533.738,448.749l38.083-2.107,5.421-.3c1.181-.065,1.189-1.916,0-1.848L539.157,446.6q-2.71.153-5.419.3c-1.183.065-1.191,1.914,0,1.849Z" transform="translate(-532.848 -444.492)" fill="#124c64"/>
                </g>
              </g>
              <g id="Grupo_57308" data-name="Grupo 57308" transform="translate(0 97.625)">
                <g id="Grupo_57307" data-name="Grupo 57307">
                  <path id="Trazado_101567" data-name="Trazado 101567" d="M510.827,501.117q15.049-1.691,30.1-3.384l4.215-.474c1.168-.132,1.181-1.981,0-1.848l-30.1,3.384q-2.105.239-4.213.474c-1.17.132-1.183,1.983,0,1.849Z" transform="translate(-509.945 -495.404)" fill="#124c64"/>
                </g>
              </g>
            </g>
            <g id="Grupo_57311" data-name="Grupo 57311" transform="translate(12.723 71.683)">
              <g id="Grupo_57310" data-name="Grupo 57310">
                <path id="Trazado_101568" data-name="Trazado 101568" d="M508.324,442.325q4.326,9.708,8.65,19.417,6.863,15.409,13.728,30.815,1.594,3.572,3.183,7.145c.483,1.085,2.077.146,1.6-.932q-4.323-9.711-8.65-19.417-6.863-15.408-13.728-30.817-1.591-3.572-3.183-7.143c-.483-1.085-2.075-.146-1.6.932Z" transform="translate(-508.235 -440.911)" fill="#124c64"/>
              </g>
            </g>
          </g>
          <g id="Grupo_57313" data-name="Grupo 57313" transform="translate(95.267 20.102)">
            <path id="Trazado_101569" data-name="Trazado 101569" d="M540.507,416.221a5.112,5.112,0,0,1-2.907-.874c-2.757-1.877-3.095-6.2-.757-9.642a8.578,8.578,0,0,1,4.385-3.392,5.261,5.261,0,0,1,7.162,4.874,8.57,8.57,0,0,1-1.547,5.323h0a8.567,8.567,0,0,1-4.386,3.392A6.362,6.362,0,0,1,540.507,416.221Zm2.665-12.827a4.986,4.986,0,0,0-1.519.251A7.152,7.152,0,0,0,538,406.491c-1.908,2.8-1.733,6.257.385,7.7a4.111,4.111,0,0,0,3.645.383,7.157,7.157,0,0,0,3.653-2.848h0a7.129,7.129,0,0,0,1.31-4.443,4.118,4.118,0,0,0-1.691-3.254A3.737,3.737,0,0,0,543.172,403.394Z" transform="translate(-535.289 -401.998)" fill="#124c64"/>
          </g>
          <g id="Grupo_57314" data-name="Grupo 57314" transform="translate(101.124 43.43)">
            <path id="Trazado_101570" data-name="Trazado 101570" d="M542.03,421.542a3.689,3.689,0,1,1,3.689-3.687A3.691,3.691,0,0,1,542.03,421.542Zm0-5.981a2.291,2.291,0,1,0,2.293,2.293A2.294,2.294,0,0,0,542.03,415.561Z" transform="translate(-538.343 -414.163)" fill="#124c64"/>
          </g>
          <g id="Grupo_57315" data-name="Grupo 57315" transform="translate(117.168 117.752)">
            <path id="Trazado_101571" data-name="Trazado 101571" d="M553.22,465.942a6.51,6.51,0,1,1,6.51-6.51A6.517,6.517,0,0,1,553.22,465.942Zm0-11.622a5.113,5.113,0,1,0,5.112,5.112A5.117,5.117,0,0,0,553.22,454.32Z" transform="translate(-546.71 -452.922)" fill="#124c64"/>
          </g>
        </g>
      </g>
    </g>
    <g id="Grupo_57319" data-name="Grupo 57319" transform="translate(373.357 659.052)">
      <ellipse id="Elipse_42" data-name="Elipse 42" cx="221.491" cy="27.732" rx="221.491" ry="27.732" fill="#dcbfff"/>
    </g>
    <g id="Grupo_57448" data-name="Grupo 57448" transform="translate(446.121 350.739)">
      <g id="Grupo_57416" data-name="Grupo 57416">
        <g id="Grupo_57415" data-name="Grupo 57415">
          <g id="Grupo_57329" data-name="Grupo 57329" transform="translate(102.587 174.384)">
            <g id="Grupo_57326" data-name="Grupo 57326" transform="translate(0 73.092)">
              <g id="Grupo_57320" data-name="Grupo 57320" transform="translate(11.606)">
                <path id="Trazado_101572" data-name="Trazado 101572" d="M513.823,479.8,488.1,536.809l-27.017,3.344,25.094-60.091Z" transform="translate(-461.088 -479.797)" fill="#e7ba8c"/>
              </g>
              <g id="Grupo_57325" data-name="Grupo 57325" transform="translate(0 32.812)">
                <path id="Trazado_101573" data-name="Trazado 101573" d="M534.4,567.97l-11.6-8.138L508.921,542.07l-.009-21.419-42.768-23.742-11.11,42.759,50.983,28.3H534.4Z" transform="translate(-455.035 -496.909)" fill="#fff"/>
                <g id="Grupo_57324" data-name="Grupo 57324" transform="translate(50.394 50.223)">
                  <g id="Grupo_57323" data-name="Grupo 57323">
                    <g id="Grupo_57321" data-name="Grupo 57321" transform="translate(5.041 5.923)">
                      <path id="Trazado_101574" data-name="Trazado 101574" d="M492.958,526.3l-7.676,5.668c-.359.266-.717.531-1.078.8-.617.455-.017,1.5.61,1.041q3.837-2.836,7.676-5.67c.359-.265.717-.531,1.078-.8.617-.456.015-1.5-.61-1.041Z" transform="translate(-483.945 -526.189)" fill="#495abf"/>
                    </g>
                    <g id="Grupo_57322" data-name="Grupo 57322">
                      <path id="Trazado_101575" data-name="Trazado 101575" d="M490.329,523.215l-7.676,5.668-1.078.8c-.617.455-.017,1.5.608,1.041q3.837-2.836,7.676-5.67l1.078-.8c.617-.456.017-1.5-.608-1.041Z" transform="translate(-481.316 -523.1)" fill="#495abf"/>
                    </g>
                  </g>
                </g>
                <path id="Trazado_101576" data-name="Trazado 101576" d="M480.277,523.622a9.6,9.6,0,1,1-3.735-13.06A9.605,9.605,0,0,1,480.277,523.622Z" transform="translate(-448.396 -485.49)" fill="#ffcd91"/>
              </g>
            </g>
            <g id="Grupo_57328" data-name="Grupo 57328" transform="translate(13.946)">
              <path id="Trazado_101577" data-name="Trazado 101577" d="M515.245,444.5s26.006,10.293,26.907,24.823-20.008,67.987-20.008,67.987l-59.314-5.571,22.51-89.531S511.863,442.747,515.245,444.5Z" transform="translate(-461.828 -441.199)" fill="#fff"/>
              <path id="Trazado_101578" data-name="Trazado 101578" d="M526.837,524.82V512.534H531.2q.207-.593.41-1.193h-4.773V493.882l-.01,0v-1.371h10.8c.117-.4.23-.794.343-1.189H526.827v-18.84h15.249c.036-.414.061-.805.079-1.187H526.827V452.453h2.984q-.874-.616-1.751-1.191h-1.233v-.79c-.416-.261-.83-.512-1.24-.757v1.547H506.338v-8.111c-.408-.031-.821-.063-1.241-.092v8.2h-4.92l0,0H485.857v-9.045l-.514-.012-.733,2.911v6.146h-1.546l-.3,1.193h1.845v7.837h0v11H478.03l-.3,1.189h3.536v0h3.346v11.7l.006.013v7.116H472.994l-.3,1.191h11.923v7.561h0v11.277H467.959l-.3,1.189H484.62v18.838H465.368v-9.728l-1.237,4.924v4.8h-1.208l-.092.366,8.758.823H484.62v1.223l1.239.117v-1.34h19.25v3.148l1.239.115v-3.264h17.613c.144-.378.291-.773.449-1.189H506.348V512.534h19.241v13.622l.01.006v2.021Q526.185,526.6,526.837,524.82Zm-40.98-72.367H505.1v9.572h0v9.262H485.857Zm0,30.428v-10.4H505.1v18.834H485.859v-8.432Zm19.243,9.626v18.834H485.859V492.5h3.093l0,0Zm.01,38.861h-19.25V512.53h19.25Zm20.479-20.027H506.348V492.507h19.241Zm0-20.023h-4.7l-.011-.006H506.348v-4.867h0V472.478h19.243Zm0-20.027H515.535l0,0h-9.187V459.307l-.008-.01v-6.844h19.249v7.561h0Z" transform="translate(-461.828 -441.199)" fill="#3d7ccf"/>
              <g id="Grupo_57327" data-name="Grupo 57327">
                <path id="Trazado_101579" data-name="Trazado 101579" d="M515.457,445.945a68.911,68.911,0,0,1,15.7,8.851c3.551,2.673,7,5.9,9.02,9.916a16.059,16.059,0,0,1,1.245,9.5c-.974,8.082-3.477,16.058-5.873,23.806-2.654,8.579-5.59,17.072-8.654,25.513-1.7,4.679-3.425,9.35-5.239,13.987.324-.245.646-.493.97-.738q-25.991-2.439-51.981-4.882-3.667-.342-7.333-.688l.968,1.271q3.823-15.2,7.643-30.4Q477.96,478.079,484,454.071l2.8-11.12-.97.738q6.633.138,13.262.468c3.275.161,6.554.351,9.82.658,1.956.182,4.531.169,6.315,1.028,1.16.558,2.18-1.174,1.014-1.735-1.827-.878-4.1-.968-6.081-1.177-3.4-.36-6.811-.564-10.222-.738q-7.047-.362-14.107-.512a1.02,1.02,0,0,0-.968.738q-3.82,15.2-7.643,30.4-6.035,24.006-12.071,48.014l-2.8,11.12a1.02,1.02,0,0,0,.968,1.271l51.981,4.882,7.333.688a1.022,1.022,0,0,0,.968-.738c4.915-12.571,9.455-25.325,13.49-38.207,2.533-8.09,5.1-16.362,6.238-24.786.435-3.22.568-6.4-.594-9.5-1.557-4.153-4.629-7.586-7.958-10.431a67.633,67.633,0,0,0-18.777-11.126C514.789,443.529,514.268,445.471,515.457,445.945Z" transform="translate(-462.308 -441.68)" fill="#495abf"/>
              </g>
            </g>
          </g>
          <g id="Grupo_57335" data-name="Grupo 57335" transform="translate(10.512 85.81)">
            <g id="Grupo_57334" data-name="Grupo 57334" transform="translate(27.666 139.67)">
              <g id="Grupo_57330" data-name="Grupo 57330" transform="translate(39.895)">
                <rect id="Rect치ngulo_5562" data-name="Rect치ngulo 5562" width="9.222" height="75.409" transform="translate(11.715 75.409) rotate(180)" fill="#bfbcc0"/>
                <rect id="Rect치ngulo_5563" data-name="Rect치ngulo 5563" width="14.208" height="64.407" rx="0.714" transform="translate(14.208 99.485) rotate(-180)" fill="#495abf"/>
              </g>
              <path id="Trazado_101580" data-name="Trazado 101580" d="M428.463,517.4h75.888v16.473h-5.366v-8.721H430.726v8.721H425.36V517.4Z" transform="translate(-417.856 -423.304)" fill="#495abf"/>
              <g id="Grupo_57333" data-name="Grupo 57333" transform="translate(0 104.651)">
                <g id="Grupo_57331" data-name="Grupo 57331">
                  <circle id="Elipse_43" data-name="Elipse 43" cx="10.367" cy="10.367" r="10.367" fill="#3d7ccf"/>
                  <path id="Trazado_101581" data-name="Trazado 101581" d="M424.781,530.21a3.973,3.973,0,1,0,3.973-3.973A3.972,3.972,0,0,0,424.781,530.21Z" transform="translate(-418.387 -519.842)" fill="#495abf"/>
                </g>
                <g id="Grupo_57332" data-name="Grupo 57332" transform="translate(73.551)">
                  <circle id="Elipse_44" data-name="Elipse 44" cx="10.367" cy="10.367" r="10.367" fill="#3d7ccf"/>
                  <path id="Trazado_101582" data-name="Trazado 101582" d="M463.138,530.21a3.972,3.972,0,1,0,3.973-3.973A3.972,3.972,0,0,0,463.138,530.21Z" transform="translate(-456.744 -519.842)" fill="#495abf"/>
                </g>
              </g>
            </g>
            <path id="Trazado_101583" data-name="Trazado 101583" d="M415.641,532.188c-4.612-9.35-6.6-15.486-7.672-38.409-1.315-28.117-3.174-68.021,9.2-87.318s53.973-10.41,57.6,5.676c5.279,23.413,12.368,81.642,38.1,87.579s40.3,11.735,39.584,31.668C551.532,557.047,430.849,563.014,415.641,532.188Z" transform="translate(-407.019 -395.489)" fill="#bfbcc0"/>
          </g>
          <g id="Grupo_57347" data-name="Grupo 57347" transform="translate(31.659 182.369)">
            <g id="Grupo_57342" data-name="Grupo 57342" transform="translate(126.927 69.908)">
              <g id="Grupo_57336" data-name="Grupo 57336">
                <path id="Trazado_101584" data-name="Trazado 101584" d="M502.63,482.3l24.9,57.372-15.691,22.246-27.6-58.98Z" transform="translate(-484.239 -482.301)" fill="#e7ba8c"/>
              </g>
              <g id="Grupo_57341" data-name="Grupo 57341" transform="translate(2.898 56.095)">
                <path id="Trazado_101585" data-name="Trazado 101585" d="M580.709,554.331H496.791L485.75,511.554h48.916l10.4,18.722Z" transform="translate(-485.75 -511.554)" fill="#fff"/>
                <g id="Grupo_57340" data-name="Grupo 57340" transform="translate(62.081 20.26)">
                  <g id="Grupo_57339" data-name="Grupo 57339">
                    <g id="Grupo_57337" data-name="Grupo 57337" transform="translate(6.643 3.678)">
                      <path id="Trazado_101586" data-name="Trazado 101586" d="M526.166,524.351l-3.95,8.664-.566,1.239c-.318.7.719,1.314,1.041.608q1.976-4.329,3.95-8.662l.566-1.239c.32-.7-.719-1.315-1.041-.61Z" transform="translate(-521.59 -524.038)" fill="#495abf"/>
                    </g>
                    <g id="Grupo_57338" data-name="Grupo 57338">
                      <path id="Trazado_101587" data-name="Trazado 101587" d="M522.7,522.433q-1.976,4.329-3.95,8.662l-.566,1.239c-.32.7.719,1.314,1.041.608q1.976-4.329,3.95-8.662l.566-1.239c.318-.7-.719-1.314-1.041-.608Z" transform="translate(-518.125 -522.12)" fill="#495abf"/>
                    </g>
                  </g>
                </g>
                <circle id="Elipse_45" data-name="Elipse 45" cx="9.606" cy="9.606" r="9.606" transform="translate(24.628 11.783)" fill="#ffa06d"/>
              </g>
            </g>
            <g id="Grupo_57346" data-name="Grupo 57346">
              <path id="Trazado_101588" data-name="Trazado 101588" d="M585.563,538.768s-39.549-91.688-44.48-92.361-122.627,2.184-122.95,3.86-.784,38.48,19.634,41.337,72.1,2.813,72.1,2.813l24.148,48.111Z" transform="translate(-418.047 -445.42)" fill="#fff"/>
              <g id="Grupo_57343" data-name="Grupo 57343" transform="translate(0 0.922)">
                <path id="Trazado_101589" data-name="Trazado 101589" d="M504.2,496.386l-.008,0v-4.662q-.578-1.326-1.239-2.828v11.141l1.246-.09Z" transform="translate(-340.141 -407.266)" fill="#3d7ccf"/>
                <path id="Trazado_101590" data-name="Trazado 101590" d="M561.174,526.995l-.01,0V525.62h18.226c-.171-.393-.343-.784-.522-1.189h-17.7v-18.84H570.5c-.177-.393-.355-.792-.533-1.187h-8.805V485.566h.228q-.736-1.591-1.469-3.166v1.975H540.675v-9.31h0v-9.528H551.88c-.2-.4-.393-.8-.587-1.187H540.673V446.4c-.011,0-.025-.012-.035-.013-.205-.027-.623-.048-1.2-.065V464.35h-19.25V446.461l-1.237.021v17.862H499.7v-9.007l-.01,0v-8.46l-1.237.029v17.442H479.216V447.391l-1.246.034v16.919H458.727V448l-1.246.042v16.3H438.238v-15.58c-.418.017-.828.035-1.239.054v15.526H418.531c.059.393.123.788.19,1.189H437v18.84H425.764c.3.4.612.805.936,1.187H437v5.964c.111.017.213.048.324.063.3.042.6.082.915.123v-6.15H457.49v7.688q.616.031,1.237.061V485.56h19.252v8.433l1.237.031V485.56h11.856l.013.006h7.373v2.781l.008,0v5.992l1.239.011v-8.786h19.243V493.4l0,0v11h-4.508l.6,1.189h.566v0h3.346v7.789l1.245,2.479V505.591h19.243v18.834H524.493l.6,1.195h14.345v16.462l1.248-.09V525.62h19.241v14.969l1.248-.09ZM457.49,484.373H438.238v-18.84H457.49Zm20.489,0H458.727V465.537h19.243v13.622l.01.006Zm20.479,0H479.216V465.537h19.243Zm20.489,0H499.7V465.537h19.243Zm1.237-18.685v-.152h19.25v18.838h-4.92l0,0H520.194V465.7ZM539.437,504.4H520.194V485.566h19.241v9.572h0Zm20.489,20.031h-4.7l-.012-.006H540.685v-4.867l0,0V505.591h19.243Zm0-20.027H549.872l0,0h-9.187V492.419l-.008-.01v-6.844h19.248v7.561h0Z" transform="translate(-417.603 -446.325)" fill="#3d7ccf"/>
                <path id="Trazado_101591" data-name="Trazado 101591" d="M418.193,448.348c-.023.015-.056.031-.059.046a46.8,46.8,0,0,0,.059,6.733Z" transform="translate(-418.047 -444.469)" fill="#3d7ccf"/>
              </g>
              <g id="Grupo_57344" data-name="Grupo 57344" transform="translate(3.012 30.361)">
                <path id="Trazado_101592" data-name="Trazado 101592" d="M419.691,462.885c3.055,7.778,8.286,14.474,17.011,15.672,6.38.876,12.838,1.248,19.266,1.582,14.178.736,28.384,1,42.577,1.129,3.294.029,6.589.052,9.881.05a1,1,0,0,0,0-2.01c-22.234.017-44.7-.027-66.84-2.2-3.8-.374-7.653-.652-11-2.7-4.4-2.692-7.122-7.375-8.961-12.056-.468-1.191-2.412-.673-1.939.533Z" transform="translate(-419.618 -461.677)" fill="#495abf"/>
              </g>
              <g id="Grupo_57345" data-name="Grupo 57345" transform="translate(81.533)">
                <path id="Trazado_101593" data-name="Trazado 101593" d="M460.683,476.814l11.327,22.568q8.983,17.9,17.964,35.789l4.159,8.288a.979.979,0,0,0,.869.5l45.149-3.291q3.2-.233,6.4-.468a1.021,1.021,0,0,0,.869-1.511q-6.826-15.82-13.889-31.538c-7.486-16.717-14.94-33.525-23.44-49.759-1.444-2.757-2.909-5.53-4.6-8.148-.679-1.051-1.755-3.124-3.152-3.379-1.264-.23-1.806,1.7-.533,1.939-.031-.006.056.012.081.033a5.614,5.614,0,0,1,.556.573,16.233,16.233,0,0,1,1.359,1.919c1.446,2.249,2.721,4.612,3.973,6.972,3.87,7.3,7.421,14.763,10.934,22.238,7.628,16.24,14.938,32.631,22.14,49.063q2.431,5.546,4.836,11.1l.867-1.511L501.4,541.48q-3.2.233-6.4.468l.867.5-11.327-22.568q-8.983-17.894-17.964-35.789l-4.159-8.288c-.579-1.156-2.314-.14-1.735,1.014Z" transform="translate(-460.566 -445.844)" fill="#495abf"/>
              </g>
            </g>
          </g>
          <g id="Grupo_57414" data-name="Grupo 57414">
            <g id="Grupo_57354" data-name="Grupo 57354" transform="translate(97.246 78.026)">
              <g id="Grupo_57349" data-name="Grupo 57349">
                <path id="Trazado_101594" data-name="Trazado 101594" d="M452.77,391.977s14.029,5.826,30.274,37.252,17.294,56.788,17.294,56.788l-24.485,8.4Z" transform="translate(-451.773 -390.927)" fill="#f9e478"/>
                <g id="Grupo_57348" data-name="Grupo 57348">
                  <path id="Trazado_101595" data-name="Trazado 101595" d="M452.98,393.448c-.5-.209.042.025.182.1.387.213.777.422,1.156.65a33.715,33.715,0,0,1,4.153,3.02A80.416,80.416,0,0,1,472.8,413.611a162.755,162.755,0,0,1,25.237,60.1,85.875,85.875,0,0,1,1.776,12.811c.245-.324.493-.646.738-.968q-12.244,4.2-24.485,8.4l1.235.7q-3.9-17.318-7.8-34.635-6.216-27.59-12.433-55.178-1.421-6.316-2.844-12.629c-.286-1.262-2.222-.727-1.939.533q3.9,17.318,7.8,34.637,6.216,27.59,12.433,55.178,1.421,6.314,2.846,12.629a1.01,1.01,0,0,0,1.235.7l24.485-8.4a1.031,1.031,0,0,0,.738-.968,82.285,82.285,0,0,0-1.362-10.744,156.165,156.165,0,0,0-7.478-27.133,168.788,168.788,0,0,0-16.93-33.785,89.078,89.078,0,0,0-15.181-18.223,28.334,28.334,0,0,0-7.354-5.124C452.325,391.011,451.8,392.955,452.98,393.448Z" transform="translate(-452.25 -391.429)" fill="#495abf"/>
                </g>
              </g>
              <g id="Grupo_57353" data-name="Grupo 57353" transform="translate(19.378 39.754)">
                <g id="Grupo_57350" data-name="Grupo 57350">
                  <path id="Trazado_101596" data-name="Trazado 101596" d="M467.825,423.1a5.468,5.468,0,1,1,5.469-5.469A5.474,5.474,0,0,1,467.825,423.1Zm0-9.114a3.646,3.646,0,1,0,3.645,3.645A3.647,3.647,0,0,0,467.825,413.983Z" transform="translate(-462.356 -412.161)" fill="#fff"/>
                </g>
                <g id="Grupo_57351" data-name="Grupo 57351" transform="translate(14.372 20.391)">
                  <path id="Trazado_101597" data-name="Trazado 101597" d="M474.031,431.155a4.18,4.18,0,1,1,4.18-4.18A4.188,4.188,0,0,1,474.031,431.155Zm0-6.537a2.357,2.357,0,1,0,2.357,2.357A2.358,2.358,0,0,0,474.031,424.619Z" transform="translate(-469.851 -422.795)" fill="#fff"/>
                </g>
                <g id="Grupo_57352" data-name="Grupo 57352" transform="translate(9.114 40.236)">
                  <path id="Trazado_101598" data-name="Trazado 101598" d="M471.585,442.1a4.476,4.476,0,1,1,4.476-4.476A4.482,4.482,0,0,1,471.585,442.1Zm0-7.128a2.652,2.652,0,1,0,2.652,2.652A2.654,2.654,0,0,0,471.585,434.968Z" transform="translate(-467.109 -433.144)" fill="#fff"/>
                </g>
              </g>
            </g>
            <g id="Grupo_57370" data-name="Grupo 57370" transform="translate(33.993 71.106)">
              <g id="Grupo_57356" data-name="Grupo 57356">
                <path id="Trazado_101599" data-name="Trazado 101599" d="M514.649,499.737q.012-1.179.013-2.36c0-60.217-21.239-109.032-47.438-109.032s-47.438,48.815-47.438,109.032q0,1.182.013,2.36Z" transform="translate(-418.785 -387.341)" fill="#25ced1"/>
                <g id="Grupo_57355" data-name="Grupo 57355">
                  <path id="Trazado_101600" data-name="Trazado 101600" d="M516.133,500.217c.184-22.09-2.219-44.529-8.759-65.693-4.435-14.355-10.99-30.148-22.88-39.987a27.476,27.476,0,0,0-14.882-6.631,24.356,24.356,0,0,0-15.319,4.132c-12.259,7.943-19.306,22.733-24.092,36-8.282,22.953-11.13,47.885-10.926,72.179a1.02,1.02,0,0,0,1,1h94.85a1,1,0,0,0,0-2.01h-94.85c.334.336.669.669,1,1-.178-21.354,2.084-42.959,8.178-63.479,4.251-14.32,10.516-29.954,22.023-40.056,4.008-3.519,8.922-6.27,14.311-6.767a22.783,22.783,0,0,1,14.89,4.247c11.864,8.075,18.595,22.9,23.145,35.994,7.776,22.374,10.491,46.466,10.293,70.06A1,1,0,0,0,516.133,500.217Z" transform="translate(-419.264 -387.821)" fill="#25ced1"/>
                </g>
              </g>
              <g id="Grupo_57369" data-name="Grupo 57369" transform="translate(5.657 13.795)">
                <g id="Grupo_57357" data-name="Grupo 57357" transform="translate(18.922 50.685)">
                  <path id="Trazado_101601" data-name="Trazado 101601" d="M435.718,428.715a3.634,3.634,0,1,1,3.634-3.632A3.639,3.639,0,0,1,435.718,428.715Zm0-5.444a1.81,1.81,0,1,0,1.812,1.812A1.812,1.812,0,0,0,435.718,423.271Z" transform="translate(-432.082 -421.447)" fill="#fff"/>
                </g>
                <g id="Grupo_57358" data-name="Grupo 57358" transform="translate(14.462 28.46)">
                  <path id="Trazado_101602" data-name="Trazado 101602" d="M434.1,418.543a4.343,4.343,0,1,1,4.339-4.343A4.347,4.347,0,0,1,434.1,418.543Zm0-6.865a2.521,2.521,0,1,0,2.516,2.522A2.526,2.526,0,0,0,434.1,411.679Z" transform="translate(-429.756 -409.857)" fill="#fff"/>
                </g>
                <g id="Grupo_57359" data-name="Grupo 57359" transform="translate(30.276 35.323)">
                  <path id="Trazado_101603" data-name="Trazado 101603" d="M441.819,421.066a3.815,3.815,0,1,1,3.816-3.814A3.818,3.818,0,0,1,441.819,421.066Zm0-5.806a1.991,1.991,0,1,0,1.994,1.992A1.995,1.995,0,0,0,441.819,415.26Z" transform="translate(-438.003 -413.436)" fill="#fff"/>
                </g>
                <g id="Grupo_57360" data-name="Grupo 57360" transform="translate(34.641 13.99)">
                  <path id="Trazado_101604" data-name="Trazado 101604" d="M444.523,410.8a4.245,4.245,0,1,1,4.247-4.247A4.25,4.25,0,0,1,444.523,410.8Zm0-6.667a2.423,2.423,0,1,0,2.426,2.42A2.422,2.422,0,0,0,444.523,404.135Z" transform="translate(-440.279 -402.311)" fill="#fff"/>
                </g>
                <g id="Grupo_57361" data-name="Grupo 57361" transform="translate(49.651 26.537)">
                  <path id="Trazado_101605" data-name="Trazado 101605" d="M451.233,415.1a3.124,3.124,0,1,1,3.122-3.126A3.129,3.129,0,0,1,451.233,415.1Zm0-4.424a1.3,1.3,0,1,0,1.3,1.3A1.3,1.3,0,0,0,451.233,410.678Z" transform="translate(-448.107 -408.854)" fill="#fff"/>
                </g>
                <g id="Grupo_57362" data-name="Grupo 57362" transform="translate(41.847 50.685)">
                  <path id="Trazado_101606" data-name="Trazado 101606" d="M447.537,428.44a3.5,3.5,0,1,1,3.5-3.5A3.5,3.5,0,0,1,447.537,428.44Zm0-5.17a1.673,1.673,0,1,0,1.674,1.674A1.678,1.678,0,0,0,447.537,423.271Z" transform="translate(-444.037 -421.447)" fill="#fff"/>
                </g>
                <g id="Grupo_57363" data-name="Grupo 57363" transform="translate(57.682 41.992)">
                  <path id="Trazado_101607" data-name="Trazado 101607" d="M455.806,423.938a3.512,3.512,0,1,1,3.513-3.511A3.514,3.514,0,0,1,455.806,423.938Zm0-5.2a1.689,1.689,0,1,0,1.691,1.691A1.692,1.692,0,0,0,455.806,418.736Z" transform="translate(-452.295 -416.914)" fill="#fff"/>
                </g>
                <g id="Grupo_57364" data-name="Grupo 57364" transform="translate(31.038 62.878)">
                  <path id="Trazado_101608" data-name="Trazado 101608" d="M442.993,436.987a4.591,4.591,0,1,1,4.592-4.589A4.6,4.6,0,0,1,442.993,436.987Zm0-7.358a2.768,2.768,0,1,0,2.771,2.769A2.773,2.773,0,0,0,442.993,429.63Z" transform="translate(-438.4 -427.806)" fill="#fff"/>
                </g>
                <g id="Grupo_57365" data-name="Grupo 57365" transform="translate(0 51.906)">
                  <path id="Trazado_101609" data-name="Trazado 101609" d="M427.829,433.313a5.615,5.615,0,1,1,5.615-5.615A5.62,5.62,0,0,1,427.829,433.313Zm0-9.406a3.791,3.791,0,1,0,3.791,3.791A3.8,3.8,0,0,0,427.829,423.908Z" transform="translate(-422.214 -422.084)" fill="#fff"/>
                </g>
                <g id="Grupo_57366" data-name="Grupo 57366" transform="translate(68.497 53.41)">
                  <path id="Trazado_101610" data-name="Trazado 101610" d="M462.048,431.089a4.11,4.11,0,1,1,4.111-4.113A4.117,4.117,0,0,1,462.048,431.089Zm0-6.4a2.288,2.288,0,1,0,2.29,2.286A2.29,2.29,0,0,0,462.048,424.69Z" transform="translate(-457.935 -422.868)" fill="#fff"/>
                </g>
                <g id="Grupo_57367" data-name="Grupo 57367" transform="translate(56.46 9.089)">
                  <path id="Trazado_101611" data-name="Trazado 101611" d="M456.582,409.605a4.925,4.925,0,1,1,4.928-4.928A4.931,4.931,0,0,1,456.582,409.605Zm0-8.029a3.1,3.1,0,1,0,3.1,3.1A3.106,3.106,0,0,0,456.582,401.577Z" transform="translate(-451.658 -399.755)" fill="#fff"/>
                </g>
                <g id="Grupo_57368" data-name="Grupo 57368" transform="translate(45.289)">
                  <path id="Trazado_101612" data-name="Trazado 101612" d="M449.842,403.036a4.011,4.011,0,1,1,4.012-4.013A4.017,4.017,0,0,1,449.842,403.036Zm0-6.2a2.188,2.188,0,1,0,2.19,2.186A2.186,2.186,0,0,0,449.842,396.837Z" transform="translate(-445.832 -395.015)" fill="#fff"/>
                </g>
              </g>
            </g>
            <g id="Grupo_57401" data-name="Grupo 57401" transform="translate(0 70.832)">
              <g id="Grupo_57375" data-name="Grupo 57375" transform="translate(73.834 89.949)">
                <path id="Trazado_101613" data-name="Trazado 101613" d="M441.144,451.811l2.706-17.225,14.232,2.681s10.077,1.421,17.9,3.312c7.975,1.927,17.166,5.6,19.22,7.176s2.913,2.984,2.913,4.1-.38.4-.38.4.547,1.735,0,2.522-.859,1-.424,1.866.015,2.786-.838,2.938-23.208-.186-23.208-.186l-33.224-.556Z" transform="translate(-440.041 -434.586)" fill="#e2a083"/>
                <g id="Grupo_57374" data-name="Grupo 57374" transform="translate(33.973 11.297)">
                  <g id="Grupo_57371" data-name="Grupo 57371" transform="translate(0 7.097)">
                    <path id="Trazado_101614" data-name="Trazado 101614" d="M458.329,445.758q8.6,2.166,17.168,4.449a.8.8,0,0,0,.426-1.551q-8.566-2.281-17.166-4.449a.805.805,0,0,0-.428,1.551Z" transform="translate(-457.758 -444.179)" fill="#cca47f"/>
                  </g>
                  <g id="Grupo_57372" data-name="Grupo 57372" transform="translate(1.757 3.525)">
                    <path id="Trazado_101615" data-name="Trazado 101615" d="M459.23,443.91q8.465,2.825,17.022,5.36a.805.805,0,0,0,.428-1.551q-8.557-2.534-17.022-5.358c-.984-.328-1.406,1.223-.428,1.549Z" transform="translate(-458.674 -442.315)" fill="#cca47f"/>
                  </g>
                  <g id="Grupo_57373" data-name="Grupo 57373" transform="translate(4.249)">
                    <path id="Trazado_101616" data-name="Trazado 101616" d="M460.517,442.082q7.66,2.873,15.4,5.511c.98.334,1.4-1.218.426-1.549q-7.743-2.638-15.4-5.511c-.968-.364-1.388,1.189-.428,1.549Z" transform="translate(-459.974 -440.477)" fill="#cca47f"/>
                  </g>
                </g>
              </g>
              <g id="Grupo_57400" data-name="Grupo 57400">
                <path id="Trazado_101617" data-name="Trazado 101617" d="M402.126,470.536s1.352-16.108,6.934-26.052,14.376-22.4,20.322-27.822S441.9,404.507,451.491,399.2s14.807-6.619,17.689-8.662,9.78-2.349,8.157.523-10.673,18.242-12.838,23.548l-14.968,36.679-2.466,6.044s-1.421,2.52-.334,3.093,41.022,11.634,41.022,11.634L482,501.6s-23.039,2.679-30.085,1.965-29.371-1.442-38.01-8.378S401.184,479.023,402.126,470.536Z" transform="translate(-401.118 -386.5)" fill="#25ced1"/>
                <g id="Grupo_57396" data-name="Grupo 57396" transform="translate(4.116 10.75)">
                  <g id="Grupo_57376" data-name="Grupo 57376" transform="translate(43.62 20.152)">
                    <path id="Trazado_101618" data-name="Trazado 101618" d="M429.706,410.347a3.277,3.277,0,1,1,3.279-3.279A3.28,3.28,0,0,1,429.706,410.347Zm0-4.733a1.454,1.454,0,1,0,1.455,1.454A1.455,1.455,0,0,0,429.706,405.615Z" transform="translate(-426.431 -403.793)" fill="#fff"/>
                  </g>
                  <g id="Grupo_57377" data-name="Grupo 57377" transform="translate(47.27)">
                    <path id="Trazado_101619" data-name="Trazado 101619" d="M433.3,403.213a4.965,4.965,0,1,1,4.963-4.963A4.966,4.966,0,0,1,433.3,403.213Zm0-8.106a3.142,3.142,0,1,0,3.139,3.143A3.145,3.145,0,0,0,433.3,395.108Z" transform="translate(-428.334 -393.284)" fill="#fff"/>
                  </g>
                  <g id="Grupo_57378" data-name="Grupo 57378" transform="translate(23.914 22.102)">
                    <path id="Trazado_101620" data-name="Trazado 101620" d="M422.05,416.6a5.894,5.894,0,1,1,5.891-5.891A5.9,5.9,0,0,1,422.05,416.6Zm0-9.964a4.071,4.071,0,1,0,4.069,4.073A4.076,4.076,0,0,0,422.05,406.634Z" transform="translate(-416.154 -404.81)" fill="#fff"/>
                  </g>
                  <g id="Grupo_57379" data-name="Grupo 57379" transform="translate(32.121 40.388)">
                    <path id="Trazado_101621" data-name="Trazado 101621" d="M424.858,423.2a4.427,4.427,0,1,1,4.43-4.428A4.432,4.432,0,0,1,424.858,423.2Zm0-7.032a2.605,2.605,0,1,0,2.608,2.6A2.606,2.606,0,0,0,424.858,416.168Z" transform="translate(-420.434 -414.346)" fill="#fff"/>
                  </g>
                  <g id="Grupo_57380" data-name="Grupo 57380" transform="translate(36.568 7.099)">
                    <path id="Trazado_101622" data-name="Trazado 101622" d="M426.032,403.544a3.279,3.279,0,1,1,3.279-3.279A3.28,3.28,0,0,1,426.032,403.544Zm0-4.734a1.456,1.456,0,1,0,1.455,1.455A1.456,1.456,0,0,0,426.032,398.81Z" transform="translate(-422.753 -396.986)" fill="#fff"/>
                  </g>
                  <g id="Grupo_57381" data-name="Grupo 57381" transform="translate(12.393 38.643)">
                    <path id="Trazado_101623" data-name="Trazado 101623" d="M415.448,424.034a5.3,5.3,0,1,1,5.3-5.3A5.307,5.307,0,0,1,415.448,424.034Zm0-8.775a3.477,3.477,0,1,0,3.475,3.475A3.48,3.48,0,0,0,415.448,415.26Z" transform="translate(-410.146 -413.436)" fill="#fff"/>
                  </g>
                  <g id="Grupo_57382" data-name="Grupo 57382" transform="translate(26.777 52.865)">
                    <path id="Trazado_101624" data-name="Trazado 101624" d="M421.233,428.017a3.582,3.582,0,1,1,3.58-3.582A3.588,3.588,0,0,1,421.233,428.017Zm0-5.34a1.758,1.758,0,1,0,1.758,1.758A1.763,1.763,0,0,0,421.233,422.677Z" transform="translate(-417.647 -420.853)" fill="#fff"/>
                  </g>
                  <g id="Grupo_57383" data-name="Grupo 57383" transform="translate(8.901 57.835)">
                    <path id="Trazado_101625" data-name="Trazado 101625" d="M411.884,430.559A3.557,3.557,0,1,1,415.441,427,3.562,3.562,0,0,1,411.884,430.559Zm0-5.291A1.733,1.733,0,1,0,413.619,427,1.736,1.736,0,0,0,411.884,425.269Z" transform="translate(-408.325 -423.445)" fill="#fff"/>
                  </g>
                  <g id="Grupo_57384" data-name="Grupo 57384" transform="translate(0 68.018)">
                    <path id="Trazado_101626" data-name="Trazado 101626" d="M408.8,438.995a5.12,5.12,0,1,1,5.12-5.12A5.126,5.126,0,0,1,408.8,438.995Zm0-8.416a3.3,3.3,0,1,0,3.3,3.3A3.3,3.3,0,0,0,408.8,430.579Z" transform="translate(-403.683 -428.755)" fill="#fff"/>
                  </g>
                  <g id="Grupo_57385" data-name="Grupo 57385" transform="translate(21.17 68.679)">
                    <path id="Trazado_101627" data-name="Trazado 101627" d="M420.439,440.532a5.716,5.716,0,1,1,5.714-5.718A5.722,5.722,0,0,1,420.439,440.532Zm0-9.609a3.893,3.893,0,1,0,3.893,3.891A3.9,3.9,0,0,0,420.439,430.924Z" transform="translate(-414.723 -429.1)" fill="#fff"/>
                  </g>
                  <g id="Grupo_57386" data-name="Grupo 57386" transform="translate(2.813 46.531)">
                    <path id="Trazado_101628" data-name="Trazado 101628" d="M408.887,425.023a3.736,3.736,0,1,1,3.735-3.733A3.741,3.741,0,0,1,408.887,425.023Zm0-5.649a1.914,1.914,0,1,0,1.912,1.916A1.914,1.914,0,0,0,408.887,419.374Z" transform="translate(-405.15 -417.55)" fill="#fff"/>
                  </g>
                  <g id="Grupo_57387" data-name="Grupo 57387" transform="translate(11.549 84.376)">
                    <path id="Trazado_101629" data-name="Trazado 101629" d="M414.218,446.312a4.513,4.513,0,1,1,4.51-4.516A4.519,4.519,0,0,1,414.218,446.312Zm0-7.2A2.689,2.689,0,1,0,416.9,441.8,2.691,2.691,0,0,0,414.218,439.11Z" transform="translate(-409.706 -437.286)" fill="#fff"/>
                  </g>
                  <g id="Grupo_57388" data-name="Grupo 57388" transform="translate(1.005 85.58)">
                    <path id="Trazado_101630" data-name="Trazado 101630" d="M407.133,443.766a2.926,2.926,0,1,1,2.926-2.926A2.931,2.931,0,0,1,407.133,443.766Zm0-4.031a1.1,1.1,0,1,0,1.1,1.1A1.106,1.106,0,0,0,407.133,439.736Z" transform="translate(-404.207 -437.914)" fill="#fff"/>
                  </g>
                  <g id="Grupo_57389" data-name="Grupo 57389" transform="translate(26.635 96.025)">
                    <path id="Trazado_101631" data-name="Trazado 101631" d="M421.481,451.183a3.911,3.911,0,1,1,3.91-3.91A3.915,3.915,0,0,1,421.481,451.183Zm0-6a2.087,2.087,0,1,0,2.086,2.088A2.09,2.09,0,0,0,421.481,445.185Z" transform="translate(-417.573 -443.361)" fill="#fff"/>
                  </g>
                  <g id="Grupo_57390" data-name="Grupo 57390" transform="translate(37.241 84.376)">
                    <path id="Trazado_101632" data-name="Trazado 101632" d="M428.113,447.305a5.01,5.01,0,1,1,5.009-5.011A5.014,5.014,0,0,1,428.113,447.305Zm0-8.2a3.186,3.186,0,1,0,3.185,3.185A3.188,3.188,0,0,0,428.113,439.11Z" transform="translate(-423.104 -437.286)" fill="#fff"/>
                  </g>
                  <g id="Grupo_57391" data-name="Grupo 57391" transform="translate(41.337 68.679)">
                    <path id="Trazado_101633" data-name="Trazado 101633" d="M427.953,434.527a2.713,2.713,0,1,1,2.713-2.713A2.717,2.717,0,0,1,427.953,434.527Zm0-3.6a.89.89,0,1,0,.89.89A.89.89,0,0,0,427.953,430.924Z" transform="translate(-425.24 -429.1)" fill="#fff"/>
                  </g>
                  <g id="Grupo_57392" data-name="Grupo 57392" transform="translate(55.371 73.557)">
                    <path id="Trazado_101634" data-name="Trazado 101634" d="M437.387,441.3a4.826,4.826,0,1,1,4.825-4.825A4.832,4.832,0,0,1,437.387,441.3Zm0-7.829a3,3,0,1,0,3,3A3.011,3.011,0,0,0,437.387,433.466Z" transform="translate(-432.559 -431.644)" fill="#fff"/>
                  </g>
                  <g id="Grupo_57393" data-name="Grupo 57393" transform="translate(54.457 94.501)">
                    <path id="Trazado_101635" data-name="Trazado 101635" d="M436.247,450.9a4.166,4.166,0,1,1,4.167-4.165A4.171,4.171,0,0,1,436.247,450.9Zm0-6.508a2.342,2.342,0,1,0,2.343,2.343A2.344,2.344,0,0,0,436.247,444.39Z" transform="translate(-432.082 -442.566)" fill="#fff"/>
                  </g>
                  <g id="Grupo_57394" data-name="Grupo 57394" transform="translate(66.518 85.58)">
                    <path id="Trazado_101636" data-name="Trazado 101636" d="M443.31,447.786a4.936,4.936,0,1,1,4.936-4.938A4.943,4.943,0,0,1,443.31,447.786Zm0-8.05a3.113,3.113,0,1,0,3.112,3.112A3.118,3.118,0,0,0,443.31,439.736Z" transform="translate(-438.372 -437.914)" fill="#fff"/>
                  </g>
                  <g id="Grupo_57395" data-name="Grupo 57395" transform="translate(74.568 76.434)">
                    <path id="Trazado_101637" data-name="Trazado 101637" d="M445.076,438.149a2.5,2.5,0,1,1,2.5-2.5A2.506,2.506,0,0,1,445.076,438.149Zm0-3.181a.68.68,0,1,0,.681.679A.681.681,0,0,0,445.076,434.968Z" transform="translate(-442.57 -433.144)" fill="#fff"/>
                  </g>
                </g>
                <g id="Grupo_57399" data-name="Grupo 57399">
                  <g id="Grupo_57397" data-name="Grupo 57397">
                    <path id="Trazado_101638" data-name="Trazado 101638" d="M427.5,457.08l53.751,15.243q3.745,1.064,7.492,2.125-.351-.616-.7-1.235l-6.6,29.3.7-.7a174.109,174.109,0,0,1-29.829,1.929,104.769,104.769,0,0,1-24.384-2.848c-7.06-1.812-14.4-4.8-19.011-10.713-10.46-13.411-4.165-33.574,2.909-46.963a97.128,97.128,0,0,1,18.234-24.24A129.373,129.373,0,0,1,456.9,398.6c6.941-3.87,14.466-7.059,22.347-8.366a29.62,29.62,0,0,1,6.974-.424,8.1,8.1,0,0,1,3.164.759c.98.83,2.408-.585,1.421-1.421-2.232-1.889-6.3-1.509-8.965-1.262a59.913,59.913,0,0,0-18.646,5.31,124.017,124.017,0,0,0-49.1,42.167A80.66,80.66,0,0,0,402.69,462.1c-1.609,7.712-1.829,16.079,1.267,23.461,6.4,15.254,25.122,18.688,39.829,19.8a168.463,168.463,0,0,0,24.238-.065,134.266,134.266,0,0,0,13.991-1.457c.22-.038.445-.065.667-.1a.978.978,0,0,0,.7-.7l6.6-29.3a1.027,1.027,0,0,0-.7-1.237L435.53,457.266q-3.748-1.061-7.494-2.125a1.006,1.006,0,0,0-.533,1.939Z" transform="translate(-401.537 -387.678)" fill="#495abf"/>
                  </g>
                  <g id="Grupo_57398" data-name="Grupo 57398" transform="translate(43.735 22.562)">
                    <path id="Trazado_101639" data-name="Trazado 101639" d="M444.906,400.111,427,444q-1.286,3.153-2.573,6.3c-.489,1.2,1.455,1.718,1.937.535l17.912-43.889q1.286-3.155,2.573-6.307c.487-1.2-1.455-1.718-1.939-.535Z" transform="translate(-424.344 -399.444)" fill="#495abf"/>
                  </g>
                </g>
              </g>
            </g>
            <g id="Grupo_57413" data-name="Grupo 57413" transform="translate(56.822)">
              <g id="Grupo_57403" data-name="Grupo 57403" transform="translate(11.021 67.377)">
                <g id="Grupo_57402" data-name="Grupo 57402">
                  <path id="Trazado_101640" data-name="Trazado 101640" d="M436.917,393.9c0,4.431,6.531,8.023,14.589,8.023s14.589-3.592,14.589-8.023-6.531-8.021-14.589-8.021S436.917,389.468,436.917,393.9Z" transform="translate(-436.917 -385.876)" fill="#fff"/>
                </g>
              </g>
              <g id="Grupo_57412" data-name="Grupo 57412">
                <path id="Trazado_101641" data-name="Trazado 101641" d="M463.324,362.468H452.747c-7.032,0-12.784,6.55-12.784,14.556v16.4c0,.165.015.324.021.487l-.142-.038v16.512a6.6,6.6,0,0,0,6.585,6.585h4.2a6.6,6.6,0,0,0,6.585-6.585v-2.4h6.115c7.034,0,12.786-6.55,12.786-14.558v-16.4C476.111,369.018,470.358,362.468,463.324,362.468Z" transform="translate(-423.212 -339.977)" fill="#e7ba8c"/>
                <path id="Trazado_101642" data-name="Trazado 101642" d="M450.691,398.879l1.952-12.844s34.226,6.552,45.55-10.836c10.512-16.14-1.31-25.348-7.9-22.892-5.565,2.071-9.741,7.177-9.741,7.177s5.452-7.421,0-8.591-11.475,4.489-14.614,10.347c0,0-23.421-2.184-31.339,11.989s-1.5,24.226,12.98,38.869l1.321-8.19Z" transform="translate(-431.169 -350.739)" fill="#263238"/>
                <g id="Grupo_57409" data-name="Grupo 57409" transform="translate(18.003 33.248)">
                  <path id="Trazado_101643" data-name="Trazado 101643" d="M440.558,380.057s2.393-13.814,3.035-11.774c.919,2.911.809,19.028,3.937,20.443,4.136,1.875,5.659-5.2,13.99-5.488s13.124,3.812,13.933,7.149-3.482,8.09-6.1,10.274c-3.281,2.74-12.8,2.171-12.8,2.171s-8.247.5-11.7-4.366C441.267,393.4,440.558,380.057,440.558,380.057Z" transform="translate(-440.558 -368.078)" fill="#263238"/>
                  <g id="Grupo_57408" data-name="Grupo 57408" transform="translate(12.446 4.479)">
                    <g id="Grupo_57404" data-name="Grupo 57404" transform="translate(1.283 2.294)">
                      <path id="Trazado_101644" data-name="Trazado 101644" d="M447.718,373.993a2.384,2.384,0,1,0,2.384-2.384A2.382,2.382,0,0,0,447.718,373.993Z" transform="translate(-447.718 -371.61)" fill="#020202"/>
                      <path id="Trazado_101645" data-name="Trazado 101645" d="M455.858,373.645a2.035,2.035,0,1,0,2.036-2.035A2.035,2.035,0,0,0,455.858,373.645Z" transform="translate(-440.249 -371.61)" fill="#020202"/>
                    </g>
                    <path id="Trazado_101646" data-name="Trazado 101646" d="M458.684,378.249s-1.2,3.492-3.732,3.732-4.518-2.568-4.656-4.758Z" transform="translate(-444.068 -364.166)" fill="#fff"/>
                    <g id="Grupo_57405" data-name="Grupo 57405" transform="translate(0 0.163)">
                      <path id="Trazado_101647" data-name="Trazado 101647" d="M447.956,372.522c.186-.094.374-.182.564-.266.029-.014.213-.1.061-.029.04-.017.083-.033.125-.05.1-.042.207-.082.313-.121a11.6,11.6,0,0,1,1.216-.376.6.6,0,0,0-.32-1.162,12.259,12.259,0,0,0-2.568.965.6.6,0,0,0-.215.825.615.615,0,0,0,.825.215Z" transform="translate(-447.049 -370.499)" fill="#cca47f"/>
                    </g>
                    <g id="Grupo_57406" data-name="Grupo 57406" transform="translate(17.152)">
                      <path id="Trazado_101648" data-name="Trazado 101648" d="M456.6,371.619q.613.032,1.221.1c.1.012.207.025.309.038.132.017-.111-.017.031,0l.142.021c.207.031.412.065.617.1a.616.616,0,0,0,.74-.422.609.609,0,0,0-.42-.74,20.7,20.7,0,0,0-2.64-.307.606.606,0,0,0-.6.6.615.615,0,0,0,.6.6Z" transform="translate(-455.994 -370.414)" fill="#cca47f"/>
                    </g>
                    <g id="Grupo_57407" data-name="Grupo 57407" transform="translate(11.992 1.979)">
                      <path id="Trazado_101649" data-name="Trazado 101649" d="M453.33,372.209a29.882,29.882,0,0,0,2.851,5.86l.522-.907-2.635.253a.619.619,0,0,0-.6.6.607.607,0,0,0,.6.6l2.635-.253a.61.61,0,0,0,.52-.907,28.491,28.491,0,0,1-2.731-5.572.619.619,0,0,0-.742-.422.608.608,0,0,0-.42.742Z" transform="translate(-453.302 -371.446)" fill="#cca47f"/>
                    </g>
                  </g>
                </g>
                <g id="Grupo_57411" data-name="Grupo 57411" transform="translate(3.792 41.333)">
                  <path id="Trazado_101650" data-name="Trazado 101650" d="M433.149,380.173a7.773,7.773,0,1,0,7.6-7.877A7.743,7.743,0,0,0,433.149,380.173Z" transform="translate(-433.147 -372.294)" fill="#e7ba8c"/>
                  <g id="Grupo_57410" data-name="Grupo 57410" transform="translate(6.19 3.447)">
                    <path id="Trazado_101651" data-name="Trazado 101651" d="M442.716,379.3a5,5,0,0,0-2.664-4.79,5.842,5.842,0,0,0-3.076-.357.624.624,0,0,0-.6.6.606.606,0,0,0,.6.6,7,7,0,0,1,1.388-.048c.058,0,.117.012.174.017.021,0,.121.015.01,0,.09.011.18.029.27.046a4.482,4.482,0,0,1,.545.15c.031.011.263.109.125.046.069.033.14.065.209.1a4,4,0,0,1,.414.255c.023.015.046.033.069.05-.128-.094-.013-.01.01.012.054.046.106.09.155.138a4.078,4.078,0,0,1,.3.324c.1.121-.044-.069.05.065l.109.161c.071.111.138.226.2.345.027.05.05.1.075.15s.084.2.027.058c.048.121.1.242.136.366a6.129,6.129,0,0,1,.173.663c.017.1.033.192.048.288.025.155-.015-.153,0,0,.006.05.011.1.017.148a4.638,4.638,0,0,1,.025.61.6.6,0,0,0,1.206,0Z" transform="translate(-436.375 -374.092)" fill="#cca47f"/>
                  </g>
                </g>
              </g>
            </g>
          </g>
        </g>
      </g>
      <g id="Grupo_57447" data-name="Grupo 57447" transform="translate(42.267 51.898)">
        <g id="Grupo_57419" data-name="Grupo 57419" transform="translate(0 130.931)">
          <g id="Grupo_57417" data-name="Grupo 57417" transform="translate(67.922 6.905)">
            <rect id="Rect치ngulo_5564" data-name="Rect치ngulo 5564" width="10.83" height="161.512" fill="#bfbcc0"/>
          </g>
          <g id="Grupo_57418" data-name="Grupo 57418" transform="translate(180.981 6.905)">
            <rect id="Rect치ngulo_5565" data-name="Rect치ngulo 5565" width="10.83" height="161.512" fill="#bfbcc0"/>
          </g>
          <rect id="Rect치ngulo_5566" data-name="Rect치ngulo 5566" width="240.681" height="18.38" rx="4.596" fill="#bfbcc0"/>
        </g>
        <g id="Grupo_57433" data-name="Grupo 57433" transform="translate(53.522)">
          <g id="Grupo_57429" data-name="Grupo 57429" transform="translate(19.815)">
            <path id="Trazado_101652" data-name="Trazado 101652" d="M517.775,423.492h0a8.542,8.542,0,0,1-8.543-8.543v-8.918a8.544,8.544,0,0,1,8.543-8.545h0a8.543,8.543,0,0,1,8.543,8.545v8.918A8.541,8.541,0,0,1,517.775,423.492Z" transform="translate(-418.324 -359.745)" fill="#3d7ccf"/>
            <path id="Trazado_101653" data-name="Trazado 101653" d="M471.146,398.675h0a3.628,3.628,0,0,1-3.628-3.628v-2.458a3.628,3.628,0,0,1,3.628-3.628h0a3.628,3.628,0,0,1,3.628,3.628v2.458A3.628,3.628,0,0,1,471.146,398.675Z" transform="translate(-456.599 -367.567)" fill="#3d7ccf"/>
            <path id="Trazado_101654" data-name="Trazado 101654" d="M503.606,407.6h0a3.336,3.336,0,0,1-3.335-3.335V389.748a3.334,3.334,0,0,1,3.335-3.335h0a3.333,3.333,0,0,1,3.335,3.335v14.518A3.334,3.334,0,0,1,503.606,407.6Z" transform="translate(-426.546 -369.905)" fill="#3d7ccf"/>
            <g id="Grupo_57420" data-name="Grupo 57420" transform="translate(0 73.835)">
              <rect id="Rect치ngulo_5567" data-name="Rect치ngulo 5567" width="11.909" height="4.786" rx="0.241" fill="#495abf"/>
              <path id="Trazado_101655" data-name="Trazado 101655" d="M463.828,418.026c.006.138,1.471,11.3,1.471,11.3l2.288-11.3Z" transform="translate(-459.984 -414.733)" fill="#495abf"/>
            </g>
            <g id="Grupo_57428" data-name="Grupo 57428" transform="translate(49.849)">
              <path id="Trazado_101656" data-name="Trazado 101656" d="M493.9,408.122h0a2.8,2.8,0,0,1-2.8-2.805V380.609a2.8,2.8,0,0,1,2.8-2.805h0a2.805,2.805,0,0,1,2.805,2.805v24.708A2.805,2.805,0,0,1,493.9,408.122Z" transform="translate(-484.814 -377.804)" fill="#3d7ccf"/>
              <g id="Grupo_57427" data-name="Grupo 57427" transform="translate(0 4.998)">
                <rect id="Rect치ngulo_5568" data-name="Rect치ngulo 5568" width="17.544" height="26.111" rx="0.882" transform="translate(0.259)" fill="#95495c"/>
                <g id="Grupo_57426" data-name="Grupo 57426" transform="translate(0 1.326)">
                  <g id="Grupo_57421" data-name="Grupo 57421" transform="translate(0 17.963)">
                    <path id="Trazado_101657" data-name="Trazado 101657" d="M488.234,391.669a35,35,0,0,0,17.365,1.34c.763-.132.439-1.294-.32-1.162a33.707,33.707,0,0,1-16.723-1.342c-.736-.251-1.053.913-.322,1.164Z" transform="translate(-487.82 -390.47)" fill="#f17781"/>
                  </g>
                  <g id="Grupo_57422" data-name="Grupo 57422" transform="translate(0.2 12.828)">
                    <path id="Trazado_101658" data-name="Trazado 101658" d="M488.507,391.158a62.6,62.6,0,0,0,16.66-2.18.6.6,0,0,0-.322-1.162,61.366,61.366,0,0,1-16.338,2.136.6.6,0,0,0,0,1.206Z" transform="translate(-487.924 -387.792)" fill="#f17781"/>
                  </g>
                  <g id="Grupo_57423" data-name="Grupo 57423" transform="translate(0.333 7.534)">
                    <path id="Trazado_101659" data-name="Trazado 101659" d="M488.3,386.134a38.32,38.32,0,0,0,16.2,3.534.6.6,0,0,0,0-1.206,36.873,36.873,0,0,1-15.588-3.369c-.7-.322-1.313.717-.61,1.041Z" transform="translate(-487.994 -385.031)" fill="#f17781"/>
                  </g>
                  <g id="Grupo_57424" data-name="Grupo 57424" transform="translate(0.123 3.986)">
                    <path id="Trazado_101660" data-name="Trazado 101660" d="M488.461,385.314a57.389,57.389,0,0,0,16.733-.955c.761-.157.439-1.319-.32-1.164a56.331,56.331,0,0,1-16.412.915c-.773-.071-.767,1.135,0,1.2Z" transform="translate(-487.884 -383.181)" fill="#f17781"/>
                  </g>
                  <g id="Grupo_57425" data-name="Grupo 57425" transform="translate(0.819)">
                    <path id="Trazado_101661" data-name="Trazado 101661" d="M488.646,382.312a30.269,30.269,0,0,0,15.968,1.942c.765-.111.441-1.273-.32-1.162a29.139,29.139,0,0,1-15.325-1.943c-.717-.3-1.03.871-.322,1.162Z" transform="translate(-488.247 -381.102)" fill="#f17781"/>
                  </g>
                </g>
              </g>
            </g>
          </g>
          <path id="Trazado_101662" data-name="Trazado 101662" d="M490.144,440.087H462.011l-3.469-28.694s-1.992-10.021,6.219-14.78,19.615-3.521,38.568-3.31,52.735,0,52.735,0,10.882-.924,14.692,7.216,1.716,41.354,1.716,41.354l-.349,40.867s0,8.533-5.76,11.041-99.724,1.009-99.724,1.009-14.065-.591-14.815-9.712a93.45,93.45,0,0,1,0-16.017s1.268-13.459,13.39-13.714,41.973,0,41.973,0,9.519.552,11.25-5.306,1.536-20.685-5.072-21.751a57.11,57.11,0,0,0-13.966-.138s-5.563-.146-7.248,4.989C490.779,437.328,490.144,440.087,490.144,440.087Z" transform="translate(-451.49 -363.859)" fill="#fff"/>
          <g id="Grupo_57432" data-name="Grupo 57432" transform="translate(9.929 29.151)">
            <g id="Grupo_57430" data-name="Grupo 57430" transform="translate(65.591 14.938)">
              <circle id="Elipse_46" data-name="Elipse 46" cx="13.383" cy="13.383" r="13.383" transform="translate(0 44.341) rotate(-45)" fill="#f17781"/>
              <path id="Trazado_101663" data-name="Trazado 101663" d="M513.475,409.406a8.611,8.611,0,1,1-8.61-8.61A8.609,8.609,0,0,1,513.475,409.406Z" transform="translate(-485.938 -400.796)" fill="#f17781"/>
            </g>
            <path id="Trazado_101664" data-name="Trazado 101664" d="M465.076,426.807h6.594a.912.912,0,0,0,.639-.247c.023-.017.048-.033.069-.052a.68.68,0,0,0,.048-.063.915.915,0,0,0,.249-.642v-32.8c-.681,0-1.356.008-2.01.021V424.8h-4.585V393.228c-.686.05-1.358.109-2.01.182V425.8A1.02,1.02,0,0,0,465.076,426.807Z" transform="translate(-449.875 -393.006)" fill="#3d7ccf"/>
            <rect id="Rect치ngulo_5569" data-name="Rect치ngulo 5569" width="38.873" height="13.575" transform="translate(30.93 9.232)" fill="#3d7ccf"/>
            <g id="Grupo_57431" data-name="Grupo 57431" transform="translate(0 33.554)">
              <path id="Trazado_101665" data-name="Trazado 101665" d="M457.445,424.757H485.2a.809.809,0,0,0,.775-.591,20.863,20.863,0,0,1,3.22-8.219,7.476,7.476,0,0,1,4.819-3.126,29.691,29.691,0,0,1,6.984-.706c4.121.048,9.78.78,11.628,5.085a17.557,17.557,0,0,1,1.114,6.506,41.354,41.354,0,0,1-.447,6.886c-.222,1.5-.4,3.678-1.216,4.871-1.225,1.806-4.232,2.589-6.272,2.9-1.02.155-.587,1.7.428,1.549a13.033,13.033,0,0,0,6.322-2.619c1.319-1.126,1.649-2.788,1.971-4.414.928-4.713,1.4-10.044.115-14.733a8.74,8.74,0,0,0-3.663-5.256,16.545,16.545,0,0,0-7.277-2.23,31.931,31.931,0,0,0-8.023.219c-2.205.326-4.43.782-6.153,2.284-2.9,2.529-4.441,6.867-5.1,10.575l.775-.591H457.445a.8.8,0,0,0,0,1.607Z" transform="translate(-456.668 -410.504)" fill="#495abf"/>
            </g>
          </g>
        </g>
        <g id="Grupo_57438" data-name="Grupo 57438" transform="translate(14.068 90.045)">
          <path id="Trazado_101666" data-name="Trazado 101666" d="M492.116,425.084s-14.619-1.229-21.747,1.12c-20.458,6.744-39.454,103.931-39.454,103.931l54.6,4.961,28.328,1.526,16.7-111.538Z" transform="translate(-430.915 -424.762)" fill="#95f7ff"/>
          <g id="Grupo_57437" data-name="Grupo 57437" transform="translate(19.463 5.985)">
            <g id="Grupo_57434" data-name="Grupo 57434">
              <path id="Trazado_101667" data-name="Trazado 101667" d="M471.562,428.289a363.309,363.309,0,0,0-25.567,64.948q-2.715,9.495-4.907,19.131c-.228,1.007,1.321,1.436,1.551.428a361.058,361.058,0,0,1,21.824-65.86q4-9.032,8.487-17.835c.468-.919-.919-1.733-1.388-.811Z" transform="translate(-441.065 -427.884)" fill="#31d9e7"/>
            </g>
            <g id="Grupo_57435" data-name="Grupo 57435" transform="translate(24.087 2.878)">
              <path id="Trazado_101668" data-name="Trazado 101668" d="M466.161,429.966q-5.318,32.5-9.946,65.112-1.317,9.288-2.579,18.583c-.138,1.013,1.411,1.45,1.549.428q4.432-32.635,9.551-65.17,1.458-9.267,2.974-18.525c.165-1.013-1.383-1.448-1.549-.428Z" transform="translate(-453.626 -429.385)" fill="#31d9e7"/>
            </g>
            <g id="Grupo_57436" data-name="Grupo 57436" transform="translate(49.078 3.216)">
              <path id="Trazado_101669" data-name="Trazado 101669" d="M467.324,430.336q-.259,26.531-.518,53.063-.075,7.51-.148,15.018a.8.8,0,0,0,1.607,0q.262-26.531.52-53.063.075-7.51.148-15.018a.8.8,0,0,0-1.609,0Z" transform="translate(-466.659 -429.56)" fill="#31d9e7"/>
            </g>
          </g>
        </g>
        <g id="Grupo_57446" data-name="Grupo 57446" transform="translate(149.106 92.134)">
          <path id="Trazado_101670" data-name="Trazado 101670" d="M538.179,455.376c.01-.245.038-.485.038-.733a18.44,18.44,0,1,0-36.88,0c0,.247.027.487.036.733Z" transform="translate(-501.337 -416.355)" fill="#95495c"/>
          <g id="Grupo_57445" data-name="Grupo 57445" transform="translate(1.382)">
            <g id="Grupo_57440" data-name="Grupo 57440" transform="translate(14.051)">
              <g id="Grupo_57439" data-name="Grupo 57439" transform="translate(1.83 2.316)">
                <path id="Trazado_101671" data-name="Trazado 101671" d="M510.34,427.835v20.947a.8.8,0,0,0,1.607,0V427.835a.8.8,0,0,0-1.607,0Z" transform="translate(-510.34 -427.059)" fill="#495abf"/>
              </g>
              <circle id="Elipse_47" data-name="Elipse 47" cx="2.552" cy="2.552" r="2.552" fill="#495abf"/>
            </g>
            <g id="Grupo_57442" data-name="Grupo 57442" transform="translate(0 6.478)">
              <g id="Grupo_57441" data-name="Grupo 57441" transform="translate(2.082 2.184)">
                <path id="Trazado_101672" data-name="Trazado 101672" d="M503.242,431.583q3.952,7.611,7.908,15.22c.477.918,1.864.107,1.388-.811q-3.955-7.611-7.908-15.22c-.477-.919-1.866-.106-1.388.811Z" transform="translate(-503.144 -430.369)" fill="#495abf"/>
              </g>
              <path id="Trazado_101673" data-name="Trazado 101673" d="M506.875,430.605a2.552,2.552,0,1,1-3.442-1.087A2.551,2.551,0,0,1,506.875,430.605Z" transform="translate(-502.058 -429.23)" fill="#495abf"/>
            </g>
            <g id="Grupo_57444" data-name="Grupo 57444" transform="translate(22.443 8.123)">
              <g id="Grupo_57443" data-name="Grupo 57443" transform="translate(0 2.258)">
                <path id="Trazado_101674" data-name="Trazado 101674" d="M521.129,431.673q-3.638,7.306-7.275,14.612c-.46.922.926,1.737,1.388.811q3.639-7.306,7.275-14.612c.458-.922-.926-1.737-1.388-.811Z" transform="translate(-513.762 -431.265)" fill="#495abf"/>
              </g>
              <circle id="Elipse_48" data-name="Elipse 48" cx="2.552" cy="2.552" r="2.552" transform="translate(5.677)" fill="#495abf"/>
            </g>
          </g>
        </g>
      </g>
    </g>
    <g id="Grupo_57465" data-name="Grupo 57465" transform="translate(352.946 361.553)">
      <g id="Grupo_57452" data-name="Grupo 57452" transform="translate(15 181.805)">
        <g id="Grupo_57449" data-name="Grupo 57449" transform="translate(15.135)">
          <path id="Trazado_101675" data-name="Trazado 101675" d="M361.752,428.5h22.284a.912.912,0,1,0,0-1.824H361.752a.912.912,0,1,0,0,1.824Z" transform="translate(-360.839 -426.679)" fill="#124c64"/>
        </g>
        <g id="Grupo_57450" data-name="Grupo 57450" transform="translate(6.222)">
          <path id="Trazado_101676" data-name="Trazado 101676" d="M357.1,428.5h5.571a.912.912,0,1,0,0-1.824H357.1a.912.912,0,0,0,0,1.824Z" transform="translate(-356.191 -426.679)" fill="#124c64"/>
        </g>
        <g id="Grupo_57451" data-name="Grupo 57451">
          <path id="Trazado_101677" data-name="Trazado 101677" d="M353.859,428.5h3.064a.912.912,0,0,0,0-1.824h-3.064a.912.912,0,1,0,0,1.824Z" transform="translate(-352.946 -426.679)" fill="#124c64"/>
        </g>
      </g>
      <g id="Grupo_57453" data-name="Grupo 57453" transform="translate(117.097 57.455)">
        <path id="Trazado_101678" data-name="Trazado 101678" d="M414.923,388.163h6.765a.911.911,0,0,0,0-1.822h-6.765a.911.911,0,0,0,0,1.822Z" transform="translate(-414.012 -386.341)" fill="#124c64"/>
      </g>
      <g id="Grupo_57454" data-name="Grupo 57454" transform="translate(91.635 31.731)">
        <path id="Trazado_101679" data-name="Trazado 101679" d="M405.417,383.315,401,378.9a.91.91,0,0,1,0-1.289l4.416-4.416a.906.906,0,0,1,.644-.268h0a.911.911,0,0,1,.644.267l4.418,4.418a.912.912,0,0,1,0,1.289l-4.418,4.416a.912.912,0,0,1-1.289,0Zm.644-8.188-3.128,3.128,3.128,3.128,3.128-3.128Z" transform="translate(-400.733 -372.926)" fill="#124c64"/>
      </g>
      <g id="Grupo_57455" data-name="Grupo 57455" transform="translate(337.721 7.518)">
        <path id="Trazado_101680" data-name="Trazado 101680" d="M529.067,366.339a6.041,6.041,0,1,1,6.042,6.042A6.047,6.047,0,0,1,529.067,366.339Zm1.822,0a4.22,4.22,0,1,0,4.221-4.219A4.224,4.224,0,0,0,530.889,366.339Z" transform="translate(-529.067 -360.299)" fill="#124c64"/>
      </g>
      <g id="Grupo_57458" data-name="Grupo 57458" transform="translate(68.782 9.9)">
        <g id="Grupo_57456" data-name="Grupo 57456">
          <path id="Trazado_101681" data-name="Trazado 101681" d="M389.727,367.949a.917.917,0,0,0,.644-.267l4.583-4.585a.911.911,0,0,0-1.289-1.289l-4.583,4.583a.912.912,0,0,0,.644,1.557Z" transform="translate(-388.816 -361.542)" fill="#124c64"/>
        </g>
        <g id="Grupo_57457" data-name="Grupo 57457">
          <path id="Trazado_101682" data-name="Trazado 101682" d="M394.31,367.949a.912.912,0,0,0,.644-1.557l-4.583-4.583a.911.911,0,1,0-1.289,1.289l4.583,4.585A.917.917,0,0,0,394.31,367.949Z" transform="translate(-388.816 -361.542)" fill="#124c64"/>
        </g>
      </g>
      <g id="Grupo_57461" data-name="Grupo 57461" transform="translate(128.36)">
        <g id="Grupo_57459" data-name="Grupo 57459">
          <path id="Trazado_101683" data-name="Trazado 101683" d="M420.8,362.786a.908.908,0,0,0,.644-.268l4.585-4.583a.912.912,0,0,0-1.291-1.289l-4.583,4.583a.913.913,0,0,0,.644,1.557Z" transform="translate(-419.886 -356.379)" fill="#124c64"/>
        </g>
        <g id="Grupo_57460" data-name="Grupo 57460">
          <path id="Trazado_101684" data-name="Trazado 101684" d="M425.382,362.786a.913.913,0,0,0,.644-1.557l-4.585-4.583a.911.911,0,0,0-1.289,1.289l4.583,4.583A.912.912,0,0,0,425.382,362.786Z" transform="translate(-419.886 -356.379)" fill="#124c64"/>
        </g>
      </g>
      <g id="Grupo_57464" data-name="Grupo 57464" transform="translate(368.086 0.201)">
        <g id="Grupo_57462" data-name="Grupo 57462">
          <path id="Trazado_101685" data-name="Trazado 101685" d="M545.813,362.889a.9.9,0,0,0,.644-.267l4.585-4.585a.911.911,0,0,0-1.289-1.289l-4.585,4.585a.911.911,0,0,0,.644,1.555Z" transform="translate(-544.902 -356.483)" fill="#124c64"/>
        </g>
        <g id="Grupo_57463" data-name="Grupo 57463">
          <path id="Trazado_101686" data-name="Trazado 101686" d="M550.4,362.889a.911.911,0,0,0,.644-1.555l-4.585-4.585a.912.912,0,0,0-1.289,1.291l4.585,4.583A.9.9,0,0,0,550.4,362.889Z" transform="translate(-544.902 -356.483)" fill="#124c64"/>
        </g>
      </g>
    </g>
    <g id="Grupo_57477" data-name="Grupo 57477" transform="translate(386.731 544.795)">
      <g id="Grupo_57474" data-name="Grupo 57474">
        <g id="Grupo_57467" data-name="Grupo 57467" transform="translate(40.88 37.933)">
          <path id="Trazado_101687" data-name="Trazado 101687" d="M425.649,471.976c-14.7,19.912-30.031,43.019-33.762,67.987-.046.378.56.5.646.127a149.012,149.012,0,0,1,6.5-19.992c9.666-2.66,19.152-4.844,24.228-14.437,5.177-9.862,4.52-22.719,3.534-33.463C426.73,471.621,425.948,471.593,425.649,471.976Z" transform="translate(-391.884 -471.721)" fill="#7ac4e2"/>
          <g id="Grupo_57466" data-name="Grupo 57466" transform="translate(7.269 6.273)">
            <path id="Trazado_101688" data-name="Trazado 101688" d="M395.7,516.909c6.6-14.821,15.083-29.7,25.86-41.889.073-.082.186.036.119.117-7.057,8.681-12.418,18.134-17.653,27.751,4.867-4.941,10.2-9.367,14.813-14.608.09-.1.234.046.148.148-4.579,5.494-9.58,11.465-15.544,15.53q-2.4,4.427-4.85,8.873c.4-.224.815-.424,1.225-.627.073-.036.136.071.063.107-.454.23-.905.474-1.373.673-.775,1.4-1.542,2.8-2.339,4.2C396,517.494,395.562,517.222,395.7,516.909Z" transform="translate(-395.675 -474.992)" fill="#263238"/>
            <path id="Trazado_101689" data-name="Trazado 101689" d="M398.289,497.771a86.724,86.724,0,0,0,11.287-7.534c.1-.077.234.058.136.138a59.569,59.569,0,0,1-11.26,7.674C398.268,498.143,398.109,497.875,398.289,497.771Z" transform="translate(-393.349 -461.026)" fill="#263238"/>
          </g>
        </g>
        <g id="Grupo_57469" data-name="Grupo 57469" transform="translate(38.122)">
          <path id="Trazado_101690" data-name="Trazado 101690" d="M391.5,554.4c.031.3.545.3.539-.025.077-8.222.008-16.483.13-24.744,2.107-4.251,6.629-6.6,9.772-10.01a43.739,43.739,0,0,0,5.864-8.165,58.676,58.676,0,0,0,6.805-22.685c.867-8.8-2.47-37.82-6.178-36.811-1.923.523-8.144,14.9-9.795,19.651a137.006,137.006,0,0,0-5.852,24.1C389.783,515.061,390.034,534.931,391.5,554.4Z" transform="translate(-390.445 -451.939)" fill="#7ac4e2"/>
          <g id="Grupo_57468" data-name="Grupo 57468" transform="translate(0.926 5.076)">
            <path id="Trazado_101691" data-name="Trazado 101691" d="M391,516.5l.036-.031c.451-10.4,2.8-20.911,4.989-31,2.362-10.871,5.126-21.107,10.721-30.8.1-.18.37-.021.276.163a114.455,114.455,0,0,0-8.612,23.643c.376-.587.83-1.141,1.22-1.7.153-.219.514-.015.362.211a15.262,15.262,0,0,1-1.749,2.468.15.15,0,0,1-.073.034c-1.925,7.77-3.308,15.718-4.491,23.645.09-.1.174-.209.265-.3.059-.065.161.017.121.092-.148.263-.311.524-.472.786-.6,4.025-1.149,8.04-1.7,12.021,7.166-6.125,13.285-13.342,16.736-22.238.015-.04.082-.023.067.019-3.381,9.227-8.711,17.429-16.917,23.024q-.224,1.611-.453,3.214c-.033.223-.385.163-.383-.052,0-.947.048-1.9.084-2.848A.221.221,0,0,1,391,516.5Z" transform="translate(-390.928 -454.586)" fill="#263238"/>
            <path id="Trazado_101692" data-name="Trazado 101692" d="M392.74,491.067c5.477-8.173,10.591-16.109,14.6-25.141.044-.1.219-.029.178.075-3.375,8.974-8.1,18.069-14.5,25.277C392.884,491.426,392.629,491.232,392.74,491.067Z" transform="translate(-389.291 -444.225)" fill="#263238"/>
            <path id="Trazado_101693" data-name="Trazado 101693" d="M396.536,470.622c2.268-4.013,4.66-7.919,6.8-12.012.059-.115.217-.013.169.1a62.482,62.482,0,0,1-6.616,12.117A.2.2,0,0,1,396.536,470.622Z" transform="translate(-385.81 -450.939)" fill="#263238"/>
            <path id="Trazado_101694" data-name="Trazado 101694" d="M396.077,465.76a.036.036,0,0,1,0,.071A.036.036,0,0,1,396.077,465.76Z" transform="translate(-386.236 -444.333)" fill="#263238"/>
          </g>
        </g>
        <g id="Grupo_57471" data-name="Grupo 57471" transform="translate(10.653 12.432)">
          <path id="Trazado_101695" data-name="Trazado 101695" d="M399.083,524.676a83.682,83.682,0,0,1-1.921,16.2c.084.585.169,1.17.255,1.774a77.147,77.147,0,0,0,2.9-18.058.55.55,0,0,0,.025-.558v-.019a119.632,119.632,0,0,0-1.816-24.466c-2.545-15.112-8.109-29.615-18.648-40.942a.752.752,0,0,0-1.164.242c-4.253,10.813-2.769,23.716.853,34.5a63.155,63.155,0,0,0,8.357,16.387C391.537,514.823,396.147,519.124,399.083,524.676Z" transform="translate(-376.12 -458.422)" fill="#7ac4e2"/>
          <g id="Grupo_57470" data-name="Grupo 57470" transform="translate(4.583 5.14)">
            <path id="Trazado_101696" data-name="Trazado 101696" d="M378.928,461.209c9.989,16.209,16.938,35.429,17.787,54.578.015.339-.556.429-.6.082-.236-1.72-.5-3.427-.775-5.124l-.017-.008c-4.132-3.958-8.374-8.132-11.333-13.078-.052-.086.073-.19.142-.111,3.6,4.109,6.949,8.318,11.009,11.983q-1.073-6.351-2.566-12.506c-.268-.307-.527-.619-.79-.928-.173-.2.115-.5.3-.3.081.09.161.178.242.267a144.332,144.332,0,0,0-5.223-16.581c-2.543-3.032-5.385-5.653-7.237-9.308a.077.077,0,0,1,.132-.077c1.49,2.09,2.93,4.192,4.619,6.13.673.773,1.411,1.494,2.109,2.247a128.047,128.047,0,0,0-8.176-17.045A.223.223,0,0,1,378.928,461.209Z" transform="translate(-378.51 -461.102)" fill="#263238"/>
            <path id="Trazado_101697" data-name="Trazado 101697" d="M379.895,471.612c3.229,4.345,6.907,8.491,9.908,12.98.086.13-.1.261-.207.161-3.858-3.617-7.12-8.558-9.918-13.014C379.59,471.6,379.8,471.486,379.895,471.612Z" transform="translate(-377.458 -451.509)" fill="#263238"/>
            <path id="Trazado_101698" data-name="Trazado 101698" d="M385.27,478.895l.138.138a.1.1,0,0,1-.148.148l-.138-.138A.1.1,0,0,1,385.27,478.895Z" transform="translate(-372.472 -444.805)" fill="#263238"/>
          </g>
        </g>
        <g id="Grupo_57473" data-name="Grupo 57473" transform="translate(0 47.863)">
          <path id="Trazado_101699" data-name="Trazado 101699" d="M370.569,477.877c.8,8.339,5.191,18.3,10.541,24.729a26.235,26.235,0,0,0,8.547,6.669c3.7,1.831,7.578,3.941,11.408,5.444a74.954,74.954,0,0,1,4.038,14.345c.123-.416.245-.851.37-1.269-2.458-21.116-16.121-39.164-33.6-50.748A.848.848,0,0,0,370.569,477.877Z" transform="translate(-370.565 -476.899)" fill="#7ac4e2"/>
          <g id="Grupo_57472" data-name="Grupo 57472" transform="translate(6 6.96)">
            <path id="Trazado_101700" data-name="Trazado 101700" d="M373.736,480.784c-.123-.107.044-.33.178-.23A71.513,71.513,0,0,1,396.185,508c.127.29-.27.543-.435.253-.811-1.423-1.64-2.807-2.483-4.167l-.012,0c-3.988-.752-7.766-3.559-10.729-6.224-.081-.073.038-.19.119-.119a24.5,24.5,0,0,0,5.047,3.546c1.626.826,3.377,1.346,5.07,2.008-1.478-2.347-3.02-4.6-4.627-6.779a46.565,46.565,0,0,1-11.99-6.74c-.113-.082-.013-.268.113-.194a119.814,119.814,0,0,0,11.143,5.958,99.629,99.629,0,0,0-7.868-9.174c-1.356-.715-2.731-1.434-4.044-2.2a.112.112,0,0,1,.086-.2,14.357,14.357,0,0,1,3.1,1.524C377.1,483.894,375.478,482.32,373.736,480.784Z" transform="translate(-373.694 -480.529)" fill="#263238"/>
            <path id="Trazado_101701" data-name="Trazado 101701" d="M373.989,484.472a4.928,4.928,0,0,1,.673.481c.063.056-.017.138-.084.109a4.953,4.953,0,0,1-.7-.4C373.755,484.589,373.868,484.4,373.989,484.472Z" transform="translate(-373.574 -476.927)" fill="#263238"/>
          </g>
        </g>
      </g>
      <g id="Grupo_57476" data-name="Grupo 57476" transform="translate(14.291 85.799)">
        <g id="Grupo_57475" data-name="Grupo 57475" transform="translate(0 6.724)">
          <path id="Trazado_101702" data-name="Trazado 101702" d="M425.909,553.421H378.017l3.866-43.613.849-9.618h38.462l.849,9.618Z" transform="translate(-378.017 -500.189)" fill="#ffa06d"/>
          <path id="Trazado_101703" data-name="Trazado 101703" d="M420.193,509.808H380.034l.849-9.618h38.462Z" transform="translate(-376.167 -500.189)" fill="#ff8a5b"/>
        </g>
        <rect id="Rect치ngulo_5570" data-name="Rect치ngulo 5570" width="43.044" height="9.519" transform="translate(2.424)" fill="#ffcd91"/>
      </g>
    </g>
  </g>
</svg>
