<svg xmlns="http://www.w3.org/2000/svg" xmlns:xlink="http://www.w3.org/1999/xlink" width="606.016" height="396.5" viewBox="0 0 606.016 396.5">
  <defs>
    <filter id="Trazado_102319" x="254.789" y="77.5" width="108" height="108" filterUnits="userSpaceOnUse">
      <feOffset dy="3" input="SourceAlpha"/>
      <feGaussianBlur stdDeviation="3" result="blur"/>
      <feFlood flood-opacity="0.09"/>
      <feComposite operator="in" in2="blur"/>
      <feComposite in="SourceGraphic"/>
    </filter>
    <filter id="Trazado_102322" x="357.789" y="150.5" width="108" height="108" filterUnits="userSpaceOnUse">
      <feOffset dy="3" input="SourceAlpha"/>
      <feGaussianBlur stdDeviation="3" result="blur-2"/>
      <feFlood flood-opacity="0.09"/>
      <feComposite operator="in" in2="blur-2"/>
      <feComposite in="SourceGraphic"/>
    </filter>
    <filter id="Trazado_102329" x="317.789" y="269.5" width="108" height="108" filterUnits="userSpaceOnUse">
      <feOffset dy="3" input="SourceAlpha"/>
      <feGaussianBlur stdDeviation="3" result="blur-3"/>
      <feFlood flood-opacity="0.09"/>
      <feComposite operator="in" in2="blur-3"/>
      <feComposite in="SourceGraphic"/>
    </filter>
    <filter id="Trazado_102330" x="190.789" y="269.5" width="108" height="108" filterUnits="userSpaceOnUse">
      <feOffset dy="3" input="SourceAlpha"/>
      <feGaussianBlur stdDeviation="3" result="blur-4"/>
      <feFlood flood-opacity="0.09"/>
      <feComposite operator="in" in2="blur-4"/>
      <feComposite in="SourceGraphic"/>
    </filter>
    <filter id="Trazado_102323" x="145.789" y="150.5" width="108" height="108" filterUnits="userSpaceOnUse">
      <feOffset dy="3" input="SourceAlpha"/>
      <feGaussianBlur stdDeviation="3" result="blur-5"/>
      <feFlood flood-opacity="0.09"/>
      <feComposite operator="in" in2="blur-5"/>
      <feComposite in="SourceGraphic"/>
    </filter>
  </defs>
  <g id="Grupo_58505" data-name="Grupo 58505" transform="translate(-496.211 -1829.5)">
    <path id="Trazado_102317" data-name="Trazado 102317" d="M76.5,0A76.5,76.5,0,1,1,0,76.5,76.5,76.5,0,0,1,76.5,0Z" transform="translate(729 1882)" fill="#ffca01"/>
    <path id="Trazado_102320" data-name="Trazado 102320" d="M76.5,0A76.5,76.5,0,1,1,0,76.5,76.5,76.5,0,0,1,76.5,0Z" transform="translate(831 1952)" fill="#ff8a5b"/>
    <path id="Trazado_102327" data-name="Trazado 102327" d="M76.5,0A76.5,76.5,0,1,1,0,76.5,76.5,76.5,0,0,1,76.5,0Z" transform="translate(791 2073)" fill="#ea526f"/>
    <path id="Trazado_102328" data-name="Trazado 102328" d="M76.5,0A76.5,76.5,0,1,1,0,76.5,76.5,76.5,0,0,1,76.5,0Z" transform="translate(664 2073)" fill="#25ced1"/>
    <path id="Trazado_102321" data-name="Trazado 102321" d="M76.5,0A76.5,76.5,0,1,1,0,76.5,76.5,76.5,0,0,1,76.5,0Z" transform="translate(626 1952)" fill="#0075a4"/>
    <path id="Trazado_101706" data-name="Trazado 101706" d="M2083.362,659.753c-21.748,0-43.5-.086-65.242.076-3.709.027-5.644-.777-6.889-4.655q-20.178-62.874-40.774-125.614c-1-3.069-.764-4.935,2.126-7.021q53.8-38.84,107.361-78.012c2.759-2.016,4.573-2.029,7.354,0q53.577,39.147,107.375,77.99c2.857,2.062,3.152,3.895,2.138,7q-20.523,62.764-40.766,125.619c-1.225,3.814-3.11,4.737-6.874,4.707C2127.236,659.667,2105.3,659.757,2083.362,659.753Z" transform="translate(-1278.92 1502.99)" fill="#f3f9ff"/>
    <g transform="matrix(1, 0, 0, 1, 496.21, 1829.5)" filter="url(#Trazado_102319)">
      <path id="Trazado_102319-2" data-name="Trazado 102319" d="M45,0A45,45,0,1,1,0,45,45,45,0,0,1,45,0Z" transform="translate(263.79 83.5)" fill="#f6f6f6"/>
    </g>
    <g transform="matrix(1, 0, 0, 1, 496.21, 1829.5)" filter="url(#Trazado_102322)">
      <path id="Trazado_102322-2" data-name="Trazado 102322" d="M45,0A45,45,0,1,1,0,45,45,45,0,0,1,45,0Z" transform="translate(366.79 156.5)" fill="#f6f6f6"/>
    </g>
    <g transform="matrix(1, 0, 0, 1, 496.21, 1829.5)" filter="url(#Trazado_102329)">
      <path id="Trazado_102329-2" data-name="Trazado 102329" d="M45,0A45,45,0,1,1,0,45,45,45,0,0,1,45,0Z" transform="translate(326.79 275.5)" fill="#f6f6f6"/>
    </g>
    <g transform="matrix(1, 0, 0, 1, 496.21, 1829.5)" filter="url(#Trazado_102330)">
      <path id="Trazado_102330-2" data-name="Trazado 102330" d="M45,0A45,45,0,1,1,0,45,45,45,0,0,1,45,0Z" transform="translate(199.79 275.5)" fill="#f6f6f6"/>
    </g>
    <g transform="matrix(1, 0, 0, 1, 496.21, 1829.5)" filter="url(#Trazado_102323)">
      <path id="Trazado_102323-2" data-name="Trazado 102323" d="M45,0A45,45,0,1,1,0,45,45,45,0,0,1,45,0Z" transform="translate(154.79 156.5)" fill="#f6f6f6"/>
    </g>
    <path id="Trazado_102326" data-name="Trazado 102326" d="M12.578-4.814a5.193,5.193,0,0,1-.8,2.622A4.833,4.833,0,0,1,9.722-.43,7,7,0,0,1,6.7.2,5.584,5.584,0,0,1,2.285-1.631,7.54,7.54,0,0,1,.674-6.787v-.7A8.607,8.607,0,0,1,1.4-11.147,5.513,5.513,0,0,1,3.5-13.569a5.844,5.844,0,0,1,3.164-.854,6.129,6.129,0,0,1,4.16,1.362,5.383,5.383,0,0,1,1.787,3.755H9.189a2.547,2.547,0,0,0-.654-1.865,2.691,2.691,0,0,0-1.875-.566,2.048,2.048,0,0,0-1.875.957A6.151,6.151,0,0,0,4.16-7.725v1.006a6.806,6.806,0,0,0,.571,3.252A2.091,2.091,0,0,0,6.7-2.49a2.632,2.632,0,0,0,1.807-.557A2.363,2.363,0,0,0,9.17-4.814ZM20,0a3.716,3.716,0,0,1-.312-.947A3.06,3.06,0,0,1,17.148.2a3.749,3.749,0,0,1-2.539-.9,2.875,2.875,0,0,1-1.045-2.271,2.955,2.955,0,0,1,1.27-2.6,6.468,6.468,0,0,1,3.691-.879h1.016v-.559q0-1.462-1.26-1.462a1.03,1.03,0,0,0-1.172,1.158H13.818a2.95,2.95,0,0,1,1.3-2.487,5.479,5.479,0,0,1,3.325-.956,4.8,4.8,0,0,1,3.193.986,3.429,3.429,0,0,1,1.2,2.705v4.678a4.79,4.79,0,0,0,.449,2.227V0ZM17.939-2.148a1.836,1.836,0,0,0,1.021-.264,1.653,1.653,0,0,0,.581-.6V-4.7h-.957q-1.719,0-1.719,1.543a.942.942,0,0,0,.3.728A1.1,1.1,0,0,0,17.939-2.148ZM28.135,0h-3.3V-15h3.3Zm5.5,0h-3.3V-10.566h3.3Zm-3.5-13.3a1.482,1.482,0,0,1,.508-1.159,1.909,1.909,0,0,1,1.318-.452,1.909,1.909,0,0,1,1.318.452,1.482,1.482,0,0,1,.508,1.159,1.482,1.482,0,0,1-.508,1.159,1.909,1.909,0,0,1-1.318.452,1.909,1.909,0,0,1-1.318-.452A1.482,1.482,0,0,1,30.137-13.3Zm5.107,7.939a6.455,6.455,0,0,1,1.084-3.955,3.568,3.568,0,0,1,3.027-1.445,3.035,3.035,0,0,1,2.383,1.113V-15h3.3V0H42.08l-.166-1.133A3.116,3.116,0,0,1,39.336.2,3.562,3.562,0,0,1,36.348-1.25,6.659,6.659,0,0,1,35.244-5.361Zm3.291.205q0,2.813,1.641,2.813a1.62,1.62,0,0,0,1.563-.918V-7.285A1.576,1.576,0,0,0,40.2-8.223q-1.523,0-1.65,2.461ZM52.861,0a3.716,3.716,0,0,1-.312-.947A3.06,3.06,0,0,1,50.01.2a3.749,3.749,0,0,1-2.539-.9,2.875,2.875,0,0,1-1.045-2.271,2.955,2.955,0,0,1,1.27-2.6,6.468,6.468,0,0,1,3.691-.879H52.4v-.559q0-1.462-1.26-1.462a1.03,1.03,0,0,0-1.172,1.158H46.68a2.95,2.95,0,0,1,1.3-2.487,5.479,5.479,0,0,1,3.325-.956,4.8,4.8,0,0,1,3.193.986A3.429,3.429,0,0,1,55.7-7.07v4.678a4.79,4.79,0,0,0,.449,2.227V0ZM50.8-2.148a1.836,1.836,0,0,0,1.021-.264,1.653,1.653,0,0,0,.581-.6V-4.7h-.957q-1.719,0-1.719,1.543a.942.942,0,0,0,.3.728A1.1,1.1,0,0,0,50.8-2.148Zm6.309-3.213a6.455,6.455,0,0,1,1.084-3.955,3.568,3.568,0,0,1,3.027-1.445A3.035,3.035,0,0,1,63.6-9.648V-15h3.3V0H63.945l-.166-1.133A3.116,3.116,0,0,1,61.2.2,3.562,3.562,0,0,1,58.213-1.25,6.659,6.659,0,0,1,57.109-5.361Zm3.291.205q0,2.813,1.641,2.813A1.62,1.62,0,0,0,63.6-3.262V-7.285a1.576,1.576,0,0,0-1.543-.937q-1.523,0-1.65,2.461Z" transform="translate(771 2071)" fill="#12263f"/>
    <path id="Trazado_102318" data-name="Trazado 102318" d="M3.3,0H1.608V-12.8H3.3ZM7.664-9.51l.053,1.2a3.465,3.465,0,0,1,2.848-1.371q3.015,0,3.041,3.4V0H11.979V-6.293a2.189,2.189,0,0,0-.47-1.521,1.884,1.884,0,0,0-1.437-.492,2.347,2.347,0,0,0-1.389.422,2.865,2.865,0,0,0-.932,1.107V0H6.126V-9.51Zm10.6-2.3v2.3h1.775v1.257H18.264v5.9a1.32,1.32,0,0,0,.237.858,1,1,0,0,0,.809.286,3.937,3.937,0,0,0,.773-.105V0a4.742,4.742,0,0,1-1.248.175,2.025,2.025,0,0,1-1.644-.659,2.832,2.832,0,0,1-.554-1.872v-5.9H14.906V-9.51h1.731v-2.3ZM25.884.176a4.155,4.155,0,0,1-3.146-1.27,4.714,4.714,0,0,1-1.213-3.4v-.3a5.707,5.707,0,0,1,.541-2.527,4.217,4.217,0,0,1,1.512-1.74,3.8,3.8,0,0,1,2.1-.628,3.562,3.562,0,0,1,2.883,1.222,5.289,5.289,0,0,1,1.028,3.5v.677H23.15a3.38,3.38,0,0,0,.822,2.272,2.583,2.583,0,0,0,2,.866A2.832,2.832,0,0,0,27.431-1.5a3.666,3.666,0,0,0,1.046-.932l.993.773A3.993,3.993,0,0,1,25.884.176Zm-.2-8.525a2.169,2.169,0,0,0-1.652.716A3.482,3.482,0,0,0,23.2-5.625h4.764v-.123a3.1,3.1,0,0,0-.668-1.92A2.042,2.042,0,0,0,25.682-8.35Zm5.405,3.516a5.589,5.589,0,0,1,1.028-3.538A3.289,3.289,0,0,1,34.84-9.686a3.271,3.271,0,0,1,2.716,1.23l.079-1.055H39.12V-.229a3.869,3.869,0,0,1-1.094,2.909,4.038,4.038,0,0,1-2.94,1.063A4.891,4.891,0,0,1,33.073,3.3a3.465,3.465,0,0,1-1.5-1.2l.844-.976a3.18,3.18,0,0,0,2.558,1.292,2.491,2.491,0,0,0,1.85-.668,2.553,2.553,0,0,0,.664-1.881V-.949A3.342,3.342,0,0,1,34.822.176a3.248,3.248,0,0,1-2.7-1.345A5.876,5.876,0,0,1,31.087-4.834Zm1.635.185a4.264,4.264,0,0,0,.659,2.527,2.142,2.142,0,0,0,1.846.918,2.382,2.382,0,0,0,2.259-1.4V-6.943a2.41,2.41,0,0,0-2.241-1.362,2.161,2.161,0,0,0-1.854.923A4.644,4.644,0,0,0,32.722-4.649Zm13.447-3.4a4.873,4.873,0,0,0-.8-.062A2.143,2.143,0,0,0,43.2-6.75V0H41.572V-9.51h1.582l.026,1.1a2.532,2.532,0,0,1,2.268-1.274,1.661,1.661,0,0,1,.721.123ZM53.183,0a3.416,3.416,0,0,1-.229-1A3.628,3.628,0,0,1,50.247.176a3.357,3.357,0,0,1-2.307-.8,2.573,2.573,0,0,1-.9-2.017,2.688,2.688,0,0,1,1.129-2.307,5.325,5.325,0,0,1,3.177-.822h1.582v-.747a1.826,1.826,0,0,0-.51-1.358,2.049,2.049,0,0,0-1.5-.505,2.371,2.371,0,0,0-1.459.439,1.3,1.3,0,0,0-.589,1.063H47.232a2.244,2.244,0,0,1,.505-1.375A3.449,3.449,0,0,1,49.109-9.3a4.613,4.613,0,0,1,1.9-.387,3.759,3.759,0,0,1,2.575.822A2.964,2.964,0,0,1,54.554-6.6v4.377a5.351,5.351,0,0,0,.334,2.083V0Zm-2.7-1.239a2.858,2.858,0,0,0,1.45-.4,2.392,2.392,0,0,0,.993-1.028V-4.614H51.653q-2.988,0-2.988,1.749a1.48,1.48,0,0,0,.51,1.2A1.959,1.959,0,0,0,50.484-1.239Zm10.433.088a2.342,2.342,0,0,0,1.521-.527A1.855,1.855,0,0,0,63.158-3H64.7a2.949,2.949,0,0,1-.562,1.556A3.7,3.7,0,0,1,62.75-.264a3.994,3.994,0,0,1-1.833.439,3.918,3.918,0,0,1-3.089-1.3,5.163,5.163,0,0,1-1.147-3.546v-.272a5.725,5.725,0,0,1,.51-2.47,3.883,3.883,0,0,1,1.463-1.679,4.157,4.157,0,0,1,2.254-.6,3.814,3.814,0,0,1,2.659.958A3.424,3.424,0,0,1,64.7-6.24H63.158a2.241,2.241,0,0,0-.7-1.516,2.174,2.174,0,0,0-1.551-.593,2.276,2.276,0,0,0-1.92.892,4.19,4.19,0,0,0-.681,2.58v.308a4.106,4.106,0,0,0,.677,2.531A2.287,2.287,0,0,0,60.917-1.151ZM68.291,0H66.665V-9.51h1.626ZM66.533-12.032a.971.971,0,0,1,.242-.668.907.907,0,0,1,.716-.272.922.922,0,0,1,.721.272.96.96,0,0,1,.246.668.929.929,0,0,1-.246.659.938.938,0,0,1-.721.264.924.924,0,0,1-.716-.264A.938.938,0,0,1,66.533-12.032Zm3.929,7.189a5.617,5.617,0,0,1,.549-2.514,4.1,4.1,0,0,1,1.529-1.723,4.163,4.163,0,0,1,2.237-.606,4.01,4.01,0,0,1,3.142,1.345,5.174,5.174,0,0,1,1.2,3.577v.114a5.666,5.666,0,0,1-.532,2.492A4.038,4.038,0,0,1,77.067-.439a4.211,4.211,0,0,1-2.272.615,4,4,0,0,1-3.133-1.345,5.147,5.147,0,0,1-1.2-3.56Zm1.635.193a4.068,4.068,0,0,0,.734,2.54,2.349,2.349,0,0,0,1.964.958,2.335,2.335,0,0,0,1.969-.971,4.449,4.449,0,0,0,.729-2.72,4.061,4.061,0,0,0-.743-2.536,2.361,2.361,0,0,0-1.973-.971,2.335,2.335,0,0,0-1.942.958A4.416,4.416,0,0,0,72.1-4.649Zm3.419-8.833h1.969L75.129-10.9l-1.31,0ZM82.7-9.51l.053,1.2A3.465,3.465,0,0,1,85.6-9.686q3.015,0,3.041,3.4V0H87.012V-6.293a2.189,2.189,0,0,0-.47-1.521A1.884,1.884,0,0,0,85.1-8.306a2.347,2.347,0,0,0-1.389.422,2.865,2.865,0,0,0-.932,1.107V0H81.158V-9.51Zm15.056-2.3v2.3h1.775v1.257H97.752v5.9a1.32,1.32,0,0,0,.237.858A1,1,0,0,0,98.8-1.2a3.937,3.937,0,0,0,.773-.105V0a4.742,4.742,0,0,1-1.248.175A2.025,2.025,0,0,1,96.68-.483a2.832,2.832,0,0,1-.554-1.872v-5.9H94.395V-9.51h1.731v-2.3Zm3.067,6.97a5.617,5.617,0,0,1,.549-2.514A4.1,4.1,0,0,1,102.9-9.079a4.163,4.163,0,0,1,2.237-.606,4.01,4.01,0,0,1,3.142,1.345,5.174,5.174,0,0,1,1.2,3.577v.114a5.666,5.666,0,0,1-.532,2.492,4.038,4.038,0,0,1-1.521,1.718,4.211,4.211,0,0,1-2.272.615,4,4,0,0,1-3.133-1.345,5.147,5.147,0,0,1-1.2-3.56Zm1.635.193a4.068,4.068,0,0,0,.734,2.54,2.349,2.349,0,0,0,1.964.958,2.335,2.335,0,0,0,1.969-.971,4.449,4.449,0,0,0,.729-2.72,4.061,4.061,0,0,0-.743-2.536,2.361,2.361,0,0,0-1.973-.971,2.335,2.335,0,0,0-1.942.958A4.416,4.416,0,0,0,102.454-4.649Zm11.268-7.163v2.3H115.5v1.257h-1.775v5.9a1.32,1.32,0,0,0,.237.858,1,1,0,0,0,.809.286,3.937,3.937,0,0,0,.773-.105V0a4.742,4.742,0,0,1-1.248.175,2.025,2.025,0,0,1-1.644-.659,2.832,2.832,0,0,1-.554-1.872v-5.9h-1.731V-9.51H112.1v-2.3ZM123.267,0a3.416,3.416,0,0,1-.229-1A3.628,3.628,0,0,1,120.331.176a3.357,3.357,0,0,1-2.307-.8,2.573,2.573,0,0,1-.9-2.017,2.688,2.688,0,0,1,1.129-2.307,5.325,5.325,0,0,1,3.177-.822h1.582v-.747a1.826,1.826,0,0,0-.51-1.358,2.049,2.049,0,0,0-1.5-.505,2.371,2.371,0,0,0-1.459.439,1.3,1.3,0,0,0-.589,1.063h-1.635a2.244,2.244,0,0,1,.505-1.375,3.449,3.449,0,0,1,1.371-1.05,4.613,4.613,0,0,1,1.9-.387,3.759,3.759,0,0,1,2.575.822,2.964,2.964,0,0,1,.967,2.263v4.377a5.351,5.351,0,0,0,.334,2.083V0Zm-2.7-1.239a2.858,2.858,0,0,0,1.45-.4,2.392,2.392,0,0,0,.993-1.028V-4.614h-1.274q-2.988,0-2.988,1.749a1.48,1.48,0,0,0,.51,1.2A1.959,1.959,0,0,0,120.568-1.239ZM128.953,0h-1.626V-13.5h1.626ZM.835,19.166a5.571,5.571,0,0,1,1.037-3.52,3.28,3.28,0,0,1,2.716-1.332,3.3,3.3,0,0,1,2.646,1.143V10.5H8.859V24H7.365l-.079-1.02a3.311,3.311,0,0,1-2.716,1.2,3.248,3.248,0,0,1-2.694-1.354A5.634,5.634,0,0,1,.835,19.289Zm1.626.185a4.218,4.218,0,0,0,.668,2.531,2.159,2.159,0,0,0,1.846.914,2.372,2.372,0,0,0,2.259-1.389V17.039a2.39,2.39,0,0,0-2.241-1.345,2.17,2.17,0,0,0-1.863.923A4.644,4.644,0,0,0,2.461,19.351Zm12.867,4.825a4.155,4.155,0,0,1-3.146-1.27,4.714,4.714,0,0,1-1.213-3.4v-.3a5.707,5.707,0,0,1,.541-2.527,4.217,4.217,0,0,1,1.512-1.74,3.8,3.8,0,0,1,2.1-.628,3.562,3.562,0,0,1,2.883,1.222,5.289,5.289,0,0,1,1.028,3.5v.677H12.595a3.38,3.38,0,0,0,.822,2.272,2.583,2.583,0,0,0,2,.866,2.832,2.832,0,0,0,1.459-.352,3.666,3.666,0,0,0,1.046-.932l.993.773A3.993,3.993,0,0,1,15.328,24.176Zm-.2-8.525a2.169,2.169,0,0,0-1.652.716,3.482,3.482,0,0,0-.826,2.008h4.764v-.123a3.1,3.1,0,0,0-.668-1.92A2.042,2.042,0,0,0,15.126,15.65ZM22.685,24H21.059V10.5h1.626Zm15.091-4.649a5.694,5.694,0,0,1-.993,3.5,3.183,3.183,0,0,1-2.689,1.327,3.488,3.488,0,0,1-2.725-1.1v4.579H29.742V14.49h1.485l.079,1.055a3.35,3.35,0,0,1,2.76-1.23,3.243,3.243,0,0,1,2.711,1.292,5.756,5.756,0,0,1,1,3.595Zm-1.626-.185a4.2,4.2,0,0,0-.686-2.54,2.208,2.208,0,0,0-1.881-.932A2.39,2.39,0,0,0,31.368,17v4.544a2.4,2.4,0,0,0,2.232,1.3,2.2,2.2,0,0,0,1.859-.927A4.587,4.587,0,0,0,36.149,19.166Zm8.288-3.217a4.873,4.873,0,0,0-.8-.062,2.143,2.143,0,0,0-2.171,1.362V24H39.841V14.49h1.582l.026,1.1a2.532,2.532,0,0,1,2.268-1.274,1.661,1.661,0,0,1,.721.123Zm.888,3.208a5.617,5.617,0,0,1,.549-2.514A4.1,4.1,0,0,1,47.4,14.921a4.163,4.163,0,0,1,2.237-.606,4.01,4.01,0,0,1,3.142,1.345,5.174,5.174,0,0,1,1.2,3.577v.114a5.666,5.666,0,0,1-.532,2.492,4.038,4.038,0,0,1-1.521,1.718,4.211,4.211,0,0,1-2.272.615,4,4,0,0,1-3.133-1.345,5.147,5.147,0,0,1-1.2-3.56Zm1.635.193a4.068,4.068,0,0,0,.734,2.54,2.487,2.487,0,0,0,3.933-.013,4.449,4.449,0,0,0,.729-2.72,4.061,4.061,0,0,0-.743-2.536,2.361,2.361,0,0,0-1.973-.971,2.335,2.335,0,0,0-1.942.958A4.416,4.416,0,0,0,46.96,19.351Zm12.876,3.5a2.342,2.342,0,0,0,1.521-.527A1.855,1.855,0,0,0,62.077,21h1.538a2.949,2.949,0,0,1-.562,1.556,3.7,3.7,0,0,1-1.384,1.178,3.994,3.994,0,0,1-1.833.439,3.918,3.918,0,0,1-3.089-1.3A5.163,5.163,0,0,1,55.6,19.333v-.272a5.725,5.725,0,0,1,.51-2.47,3.883,3.883,0,0,1,1.463-1.679,4.157,4.157,0,0,1,2.254-.6,3.814,3.814,0,0,1,2.659.958,3.424,3.424,0,0,1,1.129,2.487H62.077a2.241,2.241,0,0,0-.7-1.516,2.174,2.174,0,0,0-1.551-.593,2.276,2.276,0,0,0-1.92.892,4.19,4.19,0,0,0-.681,2.58v.308a4.106,4.106,0,0,0,.677,2.531A2.287,2.287,0,0,0,59.836,22.849Zm9.554,1.327a4.155,4.155,0,0,1-3.146-1.27,4.714,4.714,0,0,1-1.213-3.4v-.3a5.707,5.707,0,0,1,.541-2.527,4.217,4.217,0,0,1,1.512-1.74,3.8,3.8,0,0,1,2.1-.628,3.562,3.562,0,0,1,2.883,1.222,5.289,5.289,0,0,1,1.028,3.5v.677H66.656a3.38,3.38,0,0,0,.822,2.272,2.583,2.583,0,0,0,2,.866,2.832,2.832,0,0,0,1.459-.352,3.666,3.666,0,0,0,1.046-.932l.993.773A3.993,3.993,0,0,1,69.39,24.176Zm-.2-8.525a2.169,2.169,0,0,0-1.652.716,3.482,3.482,0,0,0-.826,2.008h4.764v-.123a3.1,3.1,0,0,0-.668-1.92A2.042,2.042,0,0,0,69.188,15.65Zm11.329,5.827a1.2,1.2,0,0,0-.5-1.024,4.78,4.78,0,0,0-1.731-.628,8.186,8.186,0,0,1-1.96-.633,2.788,2.788,0,0,1-1.072-.879,2.1,2.1,0,0,1-.347-1.213,2.467,2.467,0,0,1,.989-1.978,3.861,3.861,0,0,1,2.527-.809,3.974,3.974,0,0,1,2.624.835,2.652,2.652,0,0,1,1.006,2.136H80.42a1.468,1.468,0,0,0-.567-1.151,2.124,2.124,0,0,0-1.428-.483,2.223,2.223,0,0,0-1.389.387,1.217,1.217,0,0,0-.5,1.011.986.986,0,0,0,.466.888,5.731,5.731,0,0,0,1.683.571,8.77,8.77,0,0,1,1.973.65,2.878,2.878,0,0,1,1.121.91,2.237,2.237,0,0,1,.365,1.3,2.434,2.434,0,0,1-1.02,2.043,4.277,4.277,0,0,1-2.646.769,4.789,4.789,0,0,1-2.021-.4,3.288,3.288,0,0,1-1.375-1.129,2.722,2.722,0,0,1-.5-1.569H76.21a1.683,1.683,0,0,0,.655,1.3,2.54,2.54,0,0,0,1.613.479,2.622,2.622,0,0,0,1.481-.374A1.148,1.148,0,0,0,80.517,21.478Zm3.313-2.32a5.617,5.617,0,0,1,.549-2.514,4.1,4.1,0,0,1,1.529-1.723,4.163,4.163,0,0,1,2.237-.606,4.01,4.01,0,0,1,3.142,1.345,5.174,5.174,0,0,1,1.2,3.577v.114a5.666,5.666,0,0,1-.532,2.492,4.038,4.038,0,0,1-1.521,1.718,4.211,4.211,0,0,1-2.272.615,4,4,0,0,1-3.133-1.345,5.147,5.147,0,0,1-1.2-3.56Zm1.635.193a4.068,4.068,0,0,0,.734,2.54,2.487,2.487,0,0,0,3.933-.013,4.449,4.449,0,0,0,.729-2.72,4.061,4.061,0,0,0-.743-2.536,2.361,2.361,0,0,0-1.973-.971,2.335,2.335,0,0,0-1.942.958A4.416,4.416,0,0,0,85.465,19.351Z" transform="translate(765 1843)" fill="#12263f"/>
    <path id="Trazado_102324" data-name="Trazado 102324" d="M-100.556-5.915H-106.1V-1.38h6.442V0h-8.13V-12.8h8.042v1.38H-106.1v4.122h5.546Zm5.933-.123,2.109-3.472h1.9l-3.111,4.7L-90.519,0H-92.4l-2.2-3.56L-96.794,0h-1.89l3.208-4.808-3.111-4.7h1.881Zm9.369,4.887a2.342,2.342,0,0,0,1.521-.527A1.855,1.855,0,0,0-83.013-3h1.538a2.949,2.949,0,0,1-.562,1.556A3.7,3.7,0,0,1-83.421-.264a3.994,3.994,0,0,1-1.833.439,3.918,3.918,0,0,1-3.089-1.3A5.163,5.163,0,0,1-89.49-4.667v-.272a5.725,5.725,0,0,1,.51-2.47,3.883,3.883,0,0,1,1.463-1.679,4.157,4.157,0,0,1,2.254-.6,3.814,3.814,0,0,1,2.659.958A3.424,3.424,0,0,1-81.475-6.24h-1.538a2.241,2.241,0,0,0-.7-1.516,2.174,2.174,0,0,0-1.551-.593,2.276,2.276,0,0,0-1.92.892,4.19,4.19,0,0,0-.681,2.58v.308a4.106,4.106,0,0,0,.677,2.531A2.287,2.287,0,0,0-85.254-1.151ZM-75.7.176a4.155,4.155,0,0,1-3.146-1.27,4.714,4.714,0,0,1-1.213-3.4v-.3a5.707,5.707,0,0,1,.541-2.527,4.217,4.217,0,0,1,1.512-1.74,3.8,3.8,0,0,1,2.1-.628A3.562,3.562,0,0,1-73.02-8.464a5.289,5.289,0,0,1,1.028,3.5v.677h-6.442a3.38,3.38,0,0,0,.822,2.272,2.583,2.583,0,0,0,2,.866A2.832,2.832,0,0,0-74.153-1.5a3.666,3.666,0,0,0,1.046-.932l.993.773A3.993,3.993,0,0,1-75.7.176Zm-.2-8.525a2.169,2.169,0,0,0-1.652.716,3.482,3.482,0,0,0-.826,2.008h4.764v-.123a3.1,3.1,0,0,0-.668-1.92A2.042,2.042,0,0,0-75.9-8.35ZM-68.344,0H-69.97V-13.5h1.626ZM-61.8.176a4.155,4.155,0,0,1-3.146-1.27,4.714,4.714,0,0,1-1.213-3.4v-.3a5.707,5.707,0,0,1,.541-2.527A4.217,4.217,0,0,1-64.1-9.057,3.8,3.8,0,0,1-62-9.686a3.562,3.562,0,0,1,2.883,1.222,5.289,5.289,0,0,1,1.028,3.5v.677h-6.442a3.38,3.38,0,0,0,.822,2.272,2.583,2.583,0,0,0,2,.866A2.832,2.832,0,0,0-60.249-1.5,3.666,3.666,0,0,0-59.2-2.435l.993.773A3.993,3.993,0,0,1-61.8.176ZM-62-8.35a2.169,2.169,0,0,0-1.652.716,3.482,3.482,0,0,0-.826,2.008h4.764v-.123a3.1,3.1,0,0,0-.668-1.92A2.042,2.042,0,0,0-62-8.35Zm7.33-1.16.053,1.2a3.465,3.465,0,0,1,2.848-1.371q3.015,0,3.041,3.4V0h-1.626V-6.293a2.189,2.189,0,0,0-.47-1.521,1.884,1.884,0,0,0-1.437-.492,2.347,2.347,0,0,0-1.389.422,2.865,2.865,0,0,0-.932,1.107V0h-1.626V-9.51ZM-42.46-1.151a2.342,2.342,0,0,0,1.521-.527A1.855,1.855,0,0,0-40.219-3h1.538a2.949,2.949,0,0,1-.562,1.556A3.7,3.7,0,0,1-40.627-.264,3.994,3.994,0,0,1-42.46.176a3.918,3.918,0,0,1-3.089-1.3A5.163,5.163,0,0,1-46.7-4.667v-.272a5.725,5.725,0,0,1,.51-2.47,3.883,3.883,0,0,1,1.463-1.679,4.157,4.157,0,0,1,2.254-.6,3.814,3.814,0,0,1,2.659.958A3.424,3.424,0,0,1-38.681-6.24h-1.538a2.241,2.241,0,0,0-.7-1.516,2.174,2.174,0,0,0-1.551-.593,2.276,2.276,0,0,0-1.92.892,4.19,4.19,0,0,0-.681,2.58v.308a4.106,4.106,0,0,0,.677,2.531A2.287,2.287,0,0,0-42.46-1.151ZM-35.086,0h-1.626V-9.51h1.626Zm-1.758-12.032A.971.971,0,0,1-36.6-12.7a.907.907,0,0,1,.716-.272.922.922,0,0,1,.721.272.96.96,0,0,1,.246.668.929.929,0,0,1-.246.659.938.938,0,0,1-.721.264.924.924,0,0,1-.716-.264A.938.938,0,0,1-36.844-12.032ZM-26.613,0a3.416,3.416,0,0,1-.229-1A3.628,3.628,0,0,1-29.549.176a3.357,3.357,0,0,1-2.307-.8,2.573,2.573,0,0,1-.9-2.017,2.688,2.688,0,0,1,1.129-2.307,5.325,5.325,0,0,1,3.177-.822h1.582v-.747a1.826,1.826,0,0,0-.51-1.358,2.049,2.049,0,0,0-1.5-.505,2.371,2.371,0,0,0-1.459.439,1.3,1.3,0,0,0-.589,1.063h-1.635a2.244,2.244,0,0,1,.505-1.375A3.449,3.449,0,0,1-30.687-9.3a4.613,4.613,0,0,1,1.9-.387,3.759,3.759,0,0,1,2.575.822A2.964,2.964,0,0,1-25.242-6.6v4.377a5.351,5.351,0,0,0,.334,2.083V0Zm-2.7-1.239a2.858,2.858,0,0,0,1.45-.4,2.392,2.392,0,0,0,.993-1.028V-4.614h-1.274q-2.988,0-2.988,1.749a1.48,1.48,0,0,0,.51,1.2A1.959,1.959,0,0,0-29.312-1.239ZM-14.291.176a4.155,4.155,0,0,1-3.146-1.27,4.714,4.714,0,0,1-1.213-3.4v-.3a5.707,5.707,0,0,1,.541-2.527A4.217,4.217,0,0,1-16.6-9.057a3.8,3.8,0,0,1,2.1-.628A3.562,3.562,0,0,1-11.61-8.464a5.289,5.289,0,0,1,1.028,3.5v.677h-6.442A3.38,3.38,0,0,0-16.2-2.017a2.583,2.583,0,0,0,2,.866A2.832,2.832,0,0,0-12.744-1.5,3.666,3.666,0,0,0-11.7-2.435l.993.773A3.993,3.993,0,0,1-14.291.176Zm-.2-8.525a2.169,2.169,0,0,0-1.652.716,3.482,3.482,0,0,0-.826,2.008h4.764v-.123a3.1,3.1,0,0,0-.668-1.92A2.042,2.042,0,0,0-14.493-8.35Zm7.33-1.16.053,1.2A3.465,3.465,0,0,1-4.263-9.686q3.015,0,3.041,3.4V0H-2.848V-6.293a2.189,2.189,0,0,0-.47-1.521,1.884,1.884,0,0,0-1.437-.492,2.347,2.347,0,0,0-1.389.422,2.865,2.865,0,0,0-.932,1.107V0H-8.7V-9.51ZM-74.979,24h-1.626V10.5h1.626Zm8.473,0a3.416,3.416,0,0,1-.229-1,3.628,3.628,0,0,1-2.707,1.178,3.357,3.357,0,0,1-2.307-.8,2.573,2.573,0,0,1-.9-2.017,2.688,2.688,0,0,1,1.129-2.307,5.325,5.325,0,0,1,3.177-.822h1.582v-.747a1.826,1.826,0,0,0-.51-1.358,2.049,2.049,0,0,0-1.5-.505,2.371,2.371,0,0,0-1.459.439,1.3,1.3,0,0,0-.589,1.063h-1.635a2.244,2.244,0,0,1,.505-1.375,3.449,3.449,0,0,1,1.371-1.05,4.613,4.613,0,0,1,1.9-.387,3.759,3.759,0,0,1,2.575.822,2.964,2.964,0,0,1,.967,2.263v4.377a5.351,5.351,0,0,0,.334,2.083V24Zm-2.7-1.239a2.858,2.858,0,0,0,1.45-.4,2.392,2.392,0,0,0,.993-1.028V19.386h-1.274q-2.988,0-2.988,1.749a1.48,1.48,0,0,0,.51,1.2A1.959,1.959,0,0,0-69.205,22.761Zm10.688-3.595a5.589,5.589,0,0,1,1.028-3.538,3.289,3.289,0,0,1,2.725-1.314,3.271,3.271,0,0,1,2.716,1.23l.079-1.055h1.485v9.281a3.869,3.869,0,0,1-1.094,2.909,4.038,4.038,0,0,1-2.94,1.063,4.891,4.891,0,0,1-2.013-.439,3.465,3.465,0,0,1-1.5-1.2l.844-.976a3.18,3.18,0,0,0,2.558,1.292,2.491,2.491,0,0,0,1.85-.668,2.553,2.553,0,0,0,.664-1.881v-.817a3.342,3.342,0,0,1-2.663,1.125,3.248,3.248,0,0,1-2.7-1.345A5.876,5.876,0,0,1-58.518,19.166Zm1.635.185a4.264,4.264,0,0,0,.659,2.527,2.142,2.142,0,0,0,1.846.918,2.382,2.382,0,0,0,2.259-1.4V17.057a2.41,2.41,0,0,0-2.241-1.362,2.161,2.161,0,0,0-1.854.923A4.644,4.644,0,0,0-56.883,19.351Zm12.8,4.825a4.155,4.155,0,0,1-3.146-1.27,4.714,4.714,0,0,1-1.213-3.4v-.3a5.707,5.707,0,0,1,.541-2.527,4.217,4.217,0,0,1,1.512-1.74,3.8,3.8,0,0,1,2.1-.628,3.562,3.562,0,0,1,2.883,1.222,5.289,5.289,0,0,1,1.028,3.5v.677h-6.442A3.38,3.38,0,0,0-46,21.983a2.583,2.583,0,0,0,2,.866,2.832,2.832,0,0,0,1.459-.352,3.666,3.666,0,0,0,1.046-.932l.993.773A3.993,3.993,0,0,1-44.086,24.176Zm-.2-8.525a2.169,2.169,0,0,0-1.652.716,3.482,3.482,0,0,0-.826,2.008H-42v-.123a3.1,3.1,0,0,0-.668-1.92A2.042,2.042,0,0,0-44.288,15.65Zm11.329,5.827a1.2,1.2,0,0,0-.5-1.024,4.78,4.78,0,0,0-1.731-.628,8.186,8.186,0,0,1-1.96-.633,2.788,2.788,0,0,1-1.072-.879,2.1,2.1,0,0,1-.347-1.213,2.467,2.467,0,0,1,.989-1.978,3.861,3.861,0,0,1,2.527-.809,3.974,3.974,0,0,1,2.624.835,2.652,2.652,0,0,1,1.006,2.136h-1.635a1.468,1.468,0,0,0-.567-1.151,2.124,2.124,0,0,0-1.428-.483,2.223,2.223,0,0,0-1.389.387,1.217,1.217,0,0,0-.5,1.011.986.986,0,0,0,.466.888,5.731,5.731,0,0,0,1.683.571,8.77,8.77,0,0,1,1.973.65,2.878,2.878,0,0,1,1.121.91,2.237,2.237,0,0,1,.365,1.3,2.434,2.434,0,0,1-1.02,2.043A4.277,4.277,0,0,1-35,24.176a4.789,4.789,0,0,1-2.021-.4A3.288,3.288,0,0,1-38.4,22.642a2.722,2.722,0,0,1-.5-1.569h1.626a1.683,1.683,0,0,0,.655,1.3A2.54,2.54,0,0,0-35,22.849a2.622,2.622,0,0,0,1.481-.374A1.148,1.148,0,0,0-32.959,21.478Zm5.95-9.29v2.3h1.775v1.257h-1.775v5.9a1.32,1.32,0,0,0,.237.858,1,1,0,0,0,.809.286,3.937,3.937,0,0,0,.773-.105V24a4.742,4.742,0,0,1-1.248.175,2.025,2.025,0,0,1-1.644-.659,2.832,2.832,0,0,1-.554-1.872v-5.9h-1.731V14.49h1.731v-2.3ZM-21.568,24h-1.626V14.49h1.626Zm-1.758-12.032a.971.971,0,0,1,.242-.668.907.907,0,0,1,.716-.272.922.922,0,0,1,.721.272.96.96,0,0,1,.246.668.929.929,0,0,1-.246.659.938.938,0,0,1-.721.264.924.924,0,0,1-.716-.264A.938.938,0,0,1-23.326,11.968Zm3.929,7.189a5.617,5.617,0,0,1,.549-2.514,4.1,4.1,0,0,1,1.529-1.723,4.163,4.163,0,0,1,2.237-.606,4.01,4.01,0,0,1,3.142,1.345,5.174,5.174,0,0,1,1.2,3.577v.114a5.666,5.666,0,0,1-.532,2.492,4.038,4.038,0,0,1-1.521,1.718,4.211,4.211,0,0,1-2.272.615A4,4,0,0,1-18.2,22.831a5.147,5.147,0,0,1-1.2-3.56Zm1.635.193a4.068,4.068,0,0,0,.734,2.54,2.349,2.349,0,0,0,1.964.958,2.335,2.335,0,0,0,1.969-.971,4.449,4.449,0,0,0,.729-2.72,4.061,4.061,0,0,0-.743-2.536,2.361,2.361,0,0,0-1.973-.971,2.335,2.335,0,0,0-1.942.958A4.416,4.416,0,0,0-17.763,19.351Zm3.419-8.833h1.969L-14.73,13.1l-1.31,0Zm7.181,3.973.053,1.2a3.465,3.465,0,0,1,2.848-1.371q3.015,0,3.041,3.4V24H-2.848V17.707a2.189,2.189,0,0,0-.47-1.521,1.884,1.884,0,0,0-1.437-.492,2.347,2.347,0,0,0-1.389.422,2.865,2.865,0,0,0-.932,1.107V24H-8.7V14.49Z" transform="translate(604 2025)" fill="#12263f"/>
    <path id="Trazado_102331" data-name="Trazado 102331" d="M-50.687-5.915h-5.546V-1.38h6.442V0h-8.13V-12.8h8.042v1.38h-6.354v4.122h5.546Zm2.18,1.081A5.582,5.582,0,0,1-47.479-8.38a3.332,3.332,0,0,1,2.76-1.305,3.33,3.33,0,0,1,2.663,1.134l.07-.958h1.494V3.656h-1.626V-.879A3.412,3.412,0,0,1-44.736.176a3.28,3.28,0,0,1-2.747-1.34A5.706,5.706,0,0,1-48.507-4.72Zm1.626.185a4.231,4.231,0,0,0,.69,2.566,2.195,2.195,0,0,0,1.859.932,2.435,2.435,0,0,0,2.215-1.283V-7.093a2.442,2.442,0,0,0-2.2-1.257,2.211,2.211,0,0,0-1.872.936A4.606,4.606,0,0,0-46.881-4.649ZM-32.01-.94A3.454,3.454,0,0,1-34.8.176a2.956,2.956,0,0,1-2.316-.883,3.823,3.823,0,0,1-.8-2.615V-9.51h1.626v6.144q0,2.162,1.758,2.162a2.434,2.434,0,0,0,2.479-1.389V-9.51h1.626V0h-1.547Zm5.818.94h-1.626V-9.51h1.626Zm-1.758-12.032a.971.971,0,0,1,.242-.668.907.907,0,0,1,.716-.272.922.922,0,0,1,.721.272.96.96,0,0,1,.246.668.929.929,0,0,1-.246.659.938.938,0,0,1-.721.264.924.924,0,0,1-.716-.264A.938.938,0,0,1-27.949-12.032Zm12.393,7.383a5.694,5.694,0,0,1-.993,3.5A3.183,3.183,0,0,1-19.239.176a3.488,3.488,0,0,1-2.725-1.1V3.656H-23.59V-9.51H-22.1l.079,1.055a3.35,3.35,0,0,1,2.76-1.23,3.243,3.243,0,0,1,2.711,1.292,5.756,5.756,0,0,1,1,3.595Zm-1.626-.185a4.2,4.2,0,0,0-.686-2.54,2.208,2.208,0,0,0-1.881-.932A2.39,2.39,0,0,0-21.964-7v4.544a2.4,2.4,0,0,0,2.232,1.3,2.2,2.2,0,0,0,1.859-.927A4.587,4.587,0,0,0-17.183-4.834Zm3.261-.009a5.617,5.617,0,0,1,.549-2.514,4.1,4.1,0,0,1,1.529-1.723,4.163,4.163,0,0,1,2.237-.606A4.01,4.01,0,0,1-6.464-8.341a5.174,5.174,0,0,1,1.2,3.577v.114A5.666,5.666,0,0,1-5.8-2.158,4.038,4.038,0,0,1-7.317-.439,4.211,4.211,0,0,1-9.589.176a4,4,0,0,1-3.133-1.345,5.147,5.147,0,0,1-1.2-3.56Zm1.635.193a4.068,4.068,0,0,0,.734,2.54,2.349,2.349,0,0,0,1.964.958A2.335,2.335,0,0,0-7.62-2.123a4.449,4.449,0,0,0,.729-2.72,4.061,4.061,0,0,0-.743-2.536A2.361,2.361,0,0,0-9.606-8.35a2.335,2.335,0,0,0-1.942.958A4.416,4.416,0,0,0-12.287-4.649Zm-104.845,27.5a2.342,2.342,0,0,0,1.521-.527A1.855,1.855,0,0,0-114.891,21h1.538a2.949,2.949,0,0,1-.562,1.556,3.7,3.7,0,0,1-1.384,1.178,3.994,3.994,0,0,1-1.833.439,3.918,3.918,0,0,1-3.089-1.3,5.163,5.163,0,0,1-1.147-3.546v-.272a5.725,5.725,0,0,1,.51-2.47,3.883,3.883,0,0,1,1.463-1.679,4.157,4.157,0,0,1,2.254-.6,3.814,3.814,0,0,1,2.659.958,3.424,3.424,0,0,1,1.129,2.487h-1.538a2.241,2.241,0,0,0-.7-1.516,2.174,2.174,0,0,0-1.551-.593,2.276,2.276,0,0,0-1.92.892,4.19,4.19,0,0,0-.681,2.58v.308a4.106,4.106,0,0,0,.677,2.531A2.287,2.287,0,0,0-117.132,22.849Zm5.177-3.691a5.617,5.617,0,0,1,.549-2.514,4.1,4.1,0,0,1,1.529-1.723,4.163,4.163,0,0,1,2.237-.606,4.01,4.01,0,0,1,3.142,1.345,5.174,5.174,0,0,1,1.2,3.577v.114a5.666,5.666,0,0,1-.532,2.492,4.038,4.038,0,0,1-1.521,1.718,4.211,4.211,0,0,1-2.272.615,4,4,0,0,1-3.133-1.345,5.147,5.147,0,0,1-1.2-3.56Zm1.635.193a4.068,4.068,0,0,0,.734,2.54,2.349,2.349,0,0,0,1.964.958,2.335,2.335,0,0,0,1.969-.971,4.449,4.449,0,0,0,.729-2.72,4.061,4.061,0,0,0-.743-2.536,2.361,2.361,0,0,0-1.973-.971,2.335,2.335,0,0,0-1.942.958A4.416,4.416,0,0,0-110.32,19.351Zm10.591-4.86.044,1.055a3.512,3.512,0,0,1,2.821-1.23,2.719,2.719,0,0,1,2.716,1.529,3.6,3.6,0,0,1,1.235-1.107,3.647,3.647,0,0,1,1.8-.422q3.129,0,3.182,3.313V24h-1.626V17.725a2.184,2.184,0,0,0-.466-1.525,2.051,2.051,0,0,0-1.564-.505,2.156,2.156,0,0,0-1.5.541,2.193,2.193,0,0,0-.694,1.455V24h-1.635V17.769a1.814,1.814,0,0,0-2.03-2.074,2.175,2.175,0,0,0-2.188,1.362V24h-1.626V14.49Zm22.28,4.86a5.694,5.694,0,0,1-.993,3.5,3.183,3.183,0,0,1-2.689,1.327,3.488,3.488,0,0,1-2.725-1.1v4.579h-1.626V14.49H-84l.079,1.055a3.35,3.35,0,0,1,2.76-1.23,3.243,3.243,0,0,1,2.711,1.292,5.756,5.756,0,0,1,1,3.595Zm-1.626-.185a4.2,4.2,0,0,0-.686-2.54,2.208,2.208,0,0,0-1.881-.932A2.39,2.39,0,0,0-83.856,17v4.544a2.4,2.4,0,0,0,2.232,1.3,2.2,2.2,0,0,0,1.859-.927A4.587,4.587,0,0,0-79.075,19.166Zm8.288-3.217a4.873,4.873,0,0,0-.8-.062,2.143,2.143,0,0,0-2.171,1.362V24h-1.626V14.49H-73.8l.026,1.1a2.532,2.532,0,0,1,2.268-1.274,1.661,1.661,0,0,1,.721.123Zm.888,3.208a5.617,5.617,0,0,1,.549-2.514,4.1,4.1,0,0,1,1.529-1.723,4.163,4.163,0,0,1,2.237-.606,4.01,4.01,0,0,1,3.142,1.345,5.174,5.174,0,0,1,1.2,3.577v.114a5.666,5.666,0,0,1-.532,2.492,4.038,4.038,0,0,1-1.521,1.718,4.211,4.211,0,0,1-2.272.615A4,4,0,0,1-68.7,22.831a5.147,5.147,0,0,1-1.2-3.56Zm1.635.193a4.068,4.068,0,0,0,.734,2.54,2.349,2.349,0,0,0,1.964.958,2.335,2.335,0,0,0,1.969-.971,4.449,4.449,0,0,0,.729-2.72,4.061,4.061,0,0,0-.743-2.536,2.361,2.361,0,0,0-1.973-.971,2.335,2.335,0,0,0-1.942.958A4.416,4.416,0,0,0-68.265,19.351Zm10.591-4.86.044,1.055a3.512,3.512,0,0,1,2.821-1.23,2.719,2.719,0,0,1,2.716,1.529,3.6,3.6,0,0,1,1.235-1.107,3.647,3.647,0,0,1,1.8-.422q3.129,0,3.182,3.313V24H-47.5V17.725a2.184,2.184,0,0,0-.466-1.525,2.051,2.051,0,0,0-1.564-.505,2.156,2.156,0,0,0-1.5.541,2.193,2.193,0,0,0-.694,1.455V24h-1.635V17.769a1.814,1.814,0,0,0-2.03-2.074,2.175,2.175,0,0,0-2.188,1.362V24h-1.626V14.49Zm18.193,9.686a4.155,4.155,0,0,1-3.146-1.27,4.714,4.714,0,0,1-1.213-3.4v-.3a5.707,5.707,0,0,1,.541-2.527,4.217,4.217,0,0,1,1.512-1.74,3.8,3.8,0,0,1,2.1-.628A3.562,3.562,0,0,1-36.8,15.536a5.289,5.289,0,0,1,1.028,3.5v.677h-6.442a3.38,3.38,0,0,0,.822,2.272,2.583,2.583,0,0,0,2,.866,2.832,2.832,0,0,0,1.459-.352,3.666,3.666,0,0,0,1.046-.932l.993.773A3.993,3.993,0,0,1-39.48,24.176Zm-.2-8.525a2.169,2.169,0,0,0-1.652.716,3.482,3.482,0,0,0-.826,2.008H-37.4v-.123a3.1,3.1,0,0,0-.668-1.92A2.042,2.042,0,0,0-39.683,15.65Zm8-3.463v2.3h1.775v1.257h-1.775v5.9a1.32,1.32,0,0,0,.237.858,1,1,0,0,0,.809.286,3.937,3.937,0,0,0,.773-.105V24a4.742,4.742,0,0,1-1.248.175,2.025,2.025,0,0,1-1.644-.659,2.832,2.832,0,0,1-.554-1.872v-5.9h-1.731V14.49h1.731v-2.3ZM-26.244,24H-27.87V14.49h1.626ZM-28,11.968a.971.971,0,0,1,.242-.668.907.907,0,0,1,.716-.272.922.922,0,0,1,.721.272.96.96,0,0,1,.246.668.929.929,0,0,1-.246.659.938.938,0,0,1-.721.264.924.924,0,0,1-.716-.264A.938.938,0,0,1-28,11.968Zm3.964,7.2A5.571,5.571,0,0,1-23,15.646a3.28,3.28,0,0,1,2.716-1.332,3.3,3.3,0,0,1,2.646,1.143V10.5h1.626V24h-1.494l-.079-1.02a3.311,3.311,0,0,1-2.716,1.2A3.248,3.248,0,0,1-23,22.822a5.634,5.634,0,0,1-1.042-3.533Zm1.626.185a4.218,4.218,0,0,0,.668,2.531A2.159,2.159,0,0,0-19.9,22.8a2.372,2.372,0,0,0,2.259-1.389V17.039a2.39,2.39,0,0,0-2.241-1.345,2.17,2.17,0,0,0-1.863.923A4.644,4.644,0,0,0-22.412,19.351Zm8.49-.193a5.617,5.617,0,0,1,.549-2.514,4.1,4.1,0,0,1,1.529-1.723,4.163,4.163,0,0,1,2.237-.606,4.01,4.01,0,0,1,3.142,1.345,5.174,5.174,0,0,1,1.2,3.577v.114A5.666,5.666,0,0,1-5.8,21.842a4.038,4.038,0,0,1-1.521,1.718,4.211,4.211,0,0,1-2.272.615,4,4,0,0,1-3.133-1.345,5.147,5.147,0,0,1-1.2-3.56Zm1.635.193a4.068,4.068,0,0,0,.734,2.54,2.349,2.349,0,0,0,1.964.958,2.335,2.335,0,0,0,1.969-.971,4.449,4.449,0,0,0,.729-2.72,4.061,4.061,0,0,0-.743-2.536,2.361,2.361,0,0,0-1.973-.971,2.335,2.335,0,0,0-1.942.958A4.416,4.416,0,0,0-12.287,19.351Zm-93.4,27.5a2.342,2.342,0,0,0,1.521-.527A1.855,1.855,0,0,0-103.447,45h1.538a2.949,2.949,0,0,1-.562,1.556,3.7,3.7,0,0,1-1.384,1.178,3.994,3.994,0,0,1-1.833.439,3.918,3.918,0,0,1-3.089-1.3,5.163,5.163,0,0,1-1.147-3.546v-.272a5.725,5.725,0,0,1,.51-2.47,3.883,3.883,0,0,1,1.463-1.679,4.157,4.157,0,0,1,2.254-.6,3.814,3.814,0,0,1,2.659.958,3.424,3.424,0,0,1,1.129,2.487h-1.538a2.241,2.241,0,0,0-.7-1.516,2.174,2.174,0,0,0-1.551-.593,2.276,2.276,0,0,0-1.92.892,4.19,4.19,0,0,0-.681,2.58v.308a4.106,4.106,0,0,0,.677,2.531A2.287,2.287,0,0,0-105.688,46.849Zm5.177-3.691a5.617,5.617,0,0,1,.549-2.514,4.1,4.1,0,0,1,1.529-1.723,4.163,4.163,0,0,1,2.237-.606,4.01,4.01,0,0,1,3.142,1.345,5.174,5.174,0,0,1,1.2,3.577v.114a5.666,5.666,0,0,1-.532,2.492,4.038,4.038,0,0,1-1.521,1.718,4.211,4.211,0,0,1-2.272.615,4,4,0,0,1-3.133-1.345,5.147,5.147,0,0,1-1.2-3.56Zm1.635.193a4.068,4.068,0,0,0,.734,2.54,2.349,2.349,0,0,0,1.964.958,2.335,2.335,0,0,0,1.969-.971,4.449,4.449,0,0,0,.729-2.72,4.061,4.061,0,0,0-.743-2.536A2.361,2.361,0,0,0-96.2,39.65a2.335,2.335,0,0,0-1.942.958A4.416,4.416,0,0,0-98.877,43.351Zm10.6-4.86.053,1.2a3.465,3.465,0,0,1,2.848-1.371q3.015,0,3.041,3.4V48h-1.626V41.707a2.189,2.189,0,0,0-.47-1.521,1.884,1.884,0,0,0-1.437-.492,2.347,2.347,0,0,0-1.389.422,2.865,2.865,0,0,0-.932,1.107V48h-1.626V38.49ZM-73.661,48h-1.626V34.5h1.626Zm8.473,0a3.416,3.416,0,0,1-.229-1,3.628,3.628,0,0,1-2.707,1.178,3.357,3.357,0,0,1-2.307-.8,2.573,2.573,0,0,1-.9-2.017A2.688,2.688,0,0,1-70.2,43.056a5.325,5.325,0,0,1,3.177-.822h1.582v-.747a1.826,1.826,0,0,0-.51-1.358,2.049,2.049,0,0,0-1.5-.505,2.371,2.371,0,0,0-1.459.439,1.3,1.3,0,0,0-.589,1.063h-1.635a2.244,2.244,0,0,1,.505-1.375,3.449,3.449,0,0,1,1.371-1.05,4.613,4.613,0,0,1,1.9-.387,3.759,3.759,0,0,1,2.575.822,2.964,2.964,0,0,1,.967,2.263v4.377a5.351,5.351,0,0,0,.334,2.083V48Zm-2.7-1.239a2.858,2.858,0,0,0,1.45-.4,2.392,2.392,0,0,0,.993-1.028V43.386h-1.274q-2.988,0-2.988,1.749a1.48,1.48,0,0,0,.51,1.2A1.959,1.959,0,0,0-67.887,46.761ZM-53,46.849a2.342,2.342,0,0,0,1.521-.527A1.855,1.855,0,0,0-50.757,45h1.538a2.949,2.949,0,0,1-.562,1.556,3.7,3.7,0,0,1-1.384,1.178A3.994,3.994,0,0,1-53,48.176a3.918,3.918,0,0,1-3.089-1.3,5.163,5.163,0,0,1-1.147-3.546v-.272a5.725,5.725,0,0,1,.51-2.47,3.883,3.883,0,0,1,1.463-1.679,4.157,4.157,0,0,1,2.254-.6,3.814,3.814,0,0,1,2.659.958,3.424,3.424,0,0,1,1.129,2.487h-1.538a2.241,2.241,0,0,0-.7-1.516,2.174,2.174,0,0,0-1.551-.593,2.276,2.276,0,0,0-1.92.892,4.19,4.19,0,0,0-.681,2.58v.308a4.106,4.106,0,0,0,.677,2.531A2.287,2.287,0,0,0-53,46.849ZM-41.52,48a3.416,3.416,0,0,1-.229-1,3.628,3.628,0,0,1-2.707,1.178,3.357,3.357,0,0,1-2.307-.8,2.573,2.573,0,0,1-.9-2.017,2.688,2.688,0,0,1,1.129-2.307,5.325,5.325,0,0,1,3.177-.822h1.582v-.747a1.826,1.826,0,0,0-.51-1.358,2.049,2.049,0,0,0-1.5-.505,2.371,2.371,0,0,0-1.459.439,1.3,1.3,0,0,0-.589,1.063H-47.47a2.244,2.244,0,0,1,.505-1.375,3.449,3.449,0,0,1,1.371-1.05,4.613,4.613,0,0,1,1.9-.387,3.759,3.759,0,0,1,2.575.822,2.964,2.964,0,0,1,.967,2.263v4.377a5.351,5.351,0,0,0,.334,2.083V48Zm-2.7-1.239a2.858,2.858,0,0,0,1.45-.4,2.392,2.392,0,0,0,.993-1.028V43.386h-1.274q-2.988,0-2.988,1.749a1.48,1.48,0,0,0,.51,1.2A1.959,1.959,0,0,0-44.218,46.761ZM-35.833,48h-1.626V34.5h1.626Zm4.368,0h-1.626V38.49h1.626Zm-1.758-12.032a.971.971,0,0,1,.242-.668.907.907,0,0,1,.716-.272.922.922,0,0,1,.721.272.96.96,0,0,1,.246.668.929.929,0,0,1-.246.659.938.938,0,0,1-.721.264.924.924,0,0,1-.716-.264A.938.938,0,0,1-33.223,35.968Zm3.964,7.2a5.571,5.571,0,0,1,1.037-3.52,3.28,3.28,0,0,1,2.716-1.332,3.3,3.3,0,0,1,2.646,1.143V34.5h1.626V48h-1.494l-.079-1.02a3.311,3.311,0,0,1-2.716,1.2,3.248,3.248,0,0,1-2.694-1.354,5.634,5.634,0,0,1-1.042-3.533Zm1.626.185a4.218,4.218,0,0,0,.668,2.531,2.159,2.159,0,0,0,1.846.914,2.372,2.372,0,0,0,2.259-1.389V41.039A2.39,2.39,0,0,0-25.1,39.694a2.17,2.17,0,0,0-1.863.923A4.644,4.644,0,0,0-27.633,43.351ZM-12.841,48a3.416,3.416,0,0,1-.229-1,3.628,3.628,0,0,1-2.707,1.178,3.357,3.357,0,0,1-2.307-.8,2.573,2.573,0,0,1-.9-2.017,2.688,2.688,0,0,1,1.129-2.307,5.325,5.325,0,0,1,3.177-.822H-13.1v-.747a1.826,1.826,0,0,0-.51-1.358,2.049,2.049,0,0,0-1.5-.505,2.371,2.371,0,0,0-1.459.439,1.3,1.3,0,0,0-.589,1.063h-1.635a2.244,2.244,0,0,1,.505-1.375,3.449,3.449,0,0,1,1.371-1.05,4.613,4.613,0,0,1,1.9-.387,3.759,3.759,0,0,1,2.575.822A2.964,2.964,0,0,1-11.47,41.4v4.377a5.351,5.351,0,0,0,.334,2.083V48Zm-2.7-1.239a2.858,2.858,0,0,0,1.45-.4,2.392,2.392,0,0,0,.993-1.028V43.386H-14.37q-2.988,0-2.988,1.749a1.48,1.48,0,0,0,.51,1.2A1.959,1.959,0,0,0-15.539,46.761Zm6.223-3.595a5.571,5.571,0,0,1,1.037-3.52,3.28,3.28,0,0,1,2.716-1.332,3.3,3.3,0,0,1,2.646,1.143V34.5h1.626V48H-2.786l-.079-1.02a3.311,3.311,0,0,1-2.716,1.2,3.248,3.248,0,0,1-2.694-1.354,5.634,5.634,0,0,1-1.042-3.533Zm1.626.185a4.218,4.218,0,0,0,.668,2.531,2.159,2.159,0,0,0,1.846.914,2.372,2.372,0,0,0,2.259-1.389V41.039a2.39,2.39,0,0,0-2.241-1.345,2.17,2.17,0,0,0-1.863.923A4.644,4.644,0,0,0-7.69,43.351Z" transform="translate(648 2145)" fill="#12263f"/>
    <path id="Trazado_102325" data-name="Trazado 102325" d="M5.256-5.7A7.935,7.935,0,0,1,2.1-7.238a2.93,2.93,0,0,1-.989-2.246,3.1,3.1,0,0,1,1.208-2.5,4.8,4.8,0,0,1,3.142-.989,5.243,5.243,0,0,1,2.351.51,3.866,3.866,0,0,1,1.6,1.406A3.6,3.6,0,0,1,9.976-9.1h-1.7a2.34,2.34,0,0,0-.738-1.83,3,3,0,0,0-2.083-.666,3.074,3.074,0,0,0-1.947.55,1.836,1.836,0,0,0-.7,1.528A1.652,1.652,0,0,0,3.476-8.19,6.509,6.509,0,0,0,5.735-7.2a10.481,10.481,0,0,1,2.5.99A3.788,3.788,0,0,1,9.567-4.948,3.219,3.219,0,0,1,10-3.252,2.99,2.99,0,0,1,8.789-.76,5.171,5.171,0,0,1,5.546.176,6.015,6.015,0,0,1,3.085-.33,4.142,4.142,0,0,1,1.323-1.714a3.378,3.378,0,0,1-.62-2H2.4a2.2,2.2,0,0,0,.857,1.833,3.608,3.608,0,0,0,2.29.672,3.317,3.317,0,0,0,2.048-.545,1.77,1.77,0,0,0,.712-1.485,1.738,1.738,0,0,0-.659-1.455A7.6,7.6,0,0,0,5.256-5.7ZM17.78,0a3.416,3.416,0,0,1-.229-1A3.628,3.628,0,0,1,14.845.176a3.357,3.357,0,0,1-2.307-.8,2.573,2.573,0,0,1-.9-2.017,2.688,2.688,0,0,1,1.129-2.307,5.325,5.325,0,0,1,3.177-.822h1.582v-.747a1.826,1.826,0,0,0-.51-1.358,2.049,2.049,0,0,0-1.5-.505,2.371,2.371,0,0,0-1.459.439,1.3,1.3,0,0,0-.589,1.063H11.83a2.244,2.244,0,0,1,.505-1.375A3.449,3.449,0,0,1,13.707-9.3a4.613,4.613,0,0,1,1.9-.387,3.759,3.759,0,0,1,2.575.822A2.964,2.964,0,0,1,19.151-6.6v4.377a5.351,5.351,0,0,0,.334,2.083V0Zm-2.7-1.239a2.858,2.858,0,0,0,1.45-.4,2.392,2.392,0,0,0,.993-1.028V-4.614H16.251q-2.988,0-2.988,1.749a1.48,1.48,0,0,0,.51,1.2A1.959,1.959,0,0,0,15.082-1.239Zm8.824-10.573v2.3h1.775v1.257H23.906v5.9a1.32,1.32,0,0,0,.237.858,1,1,0,0,0,.809.286,3.937,3.937,0,0,0,.773-.105V0a4.742,4.742,0,0,1-1.248.175,2.025,2.025,0,0,1-1.644-.659,2.832,2.832,0,0,1-.554-1.872v-5.9H20.549V-9.51H22.28v-2.3ZM29.347,0H27.721V-9.51h1.626ZM27.589-12.032a.971.971,0,0,1,.242-.668.907.907,0,0,1,.716-.272.922.922,0,0,1,.721.272.96.96,0,0,1,.246.668.929.929,0,0,1-.246.659.938.938,0,0,1-.721.264.924.924,0,0,1-.716-.264A.938.938,0,0,1,27.589-12.032Zm9.9,9.51a1.2,1.2,0,0,0-.5-1.024,4.78,4.78,0,0,0-1.731-.628,8.186,8.186,0,0,1-1.96-.633,2.788,2.788,0,0,1-1.072-.879A2.1,2.1,0,0,1,31.878-6.9a2.467,2.467,0,0,1,.989-1.978,3.861,3.861,0,0,1,2.527-.809,3.974,3.974,0,0,1,2.624.835,2.652,2.652,0,0,1,1.006,2.136H37.389a1.468,1.468,0,0,0-.567-1.151,2.124,2.124,0,0,0-1.428-.483A2.223,2.223,0,0,0,34-7.963a1.217,1.217,0,0,0-.5,1.011.986.986,0,0,0,.466.888,5.731,5.731,0,0,0,1.683.571,8.77,8.77,0,0,1,1.973.65,2.878,2.878,0,0,1,1.121.91,2.237,2.237,0,0,1,.365,1.3,2.434,2.434,0,0,1-1.02,2.043,4.277,4.277,0,0,1-2.646.769,4.789,4.789,0,0,1-2.021-.4,3.288,3.288,0,0,1-1.375-1.129,2.722,2.722,0,0,1-.5-1.569h1.626a1.683,1.683,0,0,0,.655,1.3,2.54,2.54,0,0,0,1.613.479,2.622,2.622,0,0,0,1.481-.374A1.148,1.148,0,0,0,37.485-2.522ZM42.029,0V-8.253h-1.5V-9.51h1.5v-.976a3.238,3.238,0,0,1,.817-2.364,3.088,3.088,0,0,1,2.312-.835,4.293,4.293,0,0,1,1.116.148l-.088,1.311a4.67,4.67,0,0,0-.879-.079,1.586,1.586,0,0,0-1.222.463,1.877,1.877,0,0,0-.431,1.327V-9.51h2.03v1.257h-2.03V0ZM53.35,0a3.416,3.416,0,0,1-.229-1A3.628,3.628,0,0,1,50.414.176a3.357,3.357,0,0,1-2.307-.8,2.573,2.573,0,0,1-.9-2.017,2.688,2.688,0,0,1,1.129-2.307,5.325,5.325,0,0,1,3.177-.822h1.582v-.747a1.826,1.826,0,0,0-.51-1.358,2.049,2.049,0,0,0-1.5-.505,2.371,2.371,0,0,0-1.459.439,1.3,1.3,0,0,0-.589,1.063H47.4A2.244,2.244,0,0,1,47.9-8.249,3.449,3.449,0,0,1,49.276-9.3a4.613,4.613,0,0,1,1.9-.387,3.759,3.759,0,0,1,2.575.822A2.964,2.964,0,0,1,54.721-6.6v4.377a5.351,5.351,0,0,0,.334,2.083V0Zm-2.7-1.239a2.858,2.858,0,0,0,1.45-.4,2.392,2.392,0,0,0,.993-1.028V-4.614H51.82q-2.988,0-2.988,1.749a1.48,1.48,0,0,0,.51,1.2A1.959,1.959,0,0,0,50.651-1.239Zm10.433.088A2.342,2.342,0,0,0,62.6-1.679,1.855,1.855,0,0,0,63.325-3h1.538A2.949,2.949,0,0,1,64.3-1.441,3.7,3.7,0,0,1,62.917-.264a3.994,3.994,0,0,1-1.833.439,3.918,3.918,0,0,1-3.089-1.3,5.163,5.163,0,0,1-1.147-3.546v-.272a5.725,5.725,0,0,1,.51-2.47,3.883,3.883,0,0,1,1.463-1.679,4.157,4.157,0,0,1,2.254-.6,3.814,3.814,0,0,1,2.659.958A3.424,3.424,0,0,1,64.863-6.24H63.325a2.241,2.241,0,0,0-.7-1.516,2.174,2.174,0,0,0-1.551-.593,2.276,2.276,0,0,0-1.92.892,4.19,4.19,0,0,0-.681,2.58v.308a4.106,4.106,0,0,0,.677,2.531A2.287,2.287,0,0,0,61.084-1.151Zm9.422,0a2.342,2.342,0,0,0,1.521-.527A1.855,1.855,0,0,0,72.747-3h1.538a2.949,2.949,0,0,1-.562,1.556A3.7,3.7,0,0,1,72.338-.264a3.994,3.994,0,0,1-1.833.439,3.918,3.918,0,0,1-3.089-1.3A5.163,5.163,0,0,1,66.27-4.667v-.272a5.725,5.725,0,0,1,.51-2.47,3.883,3.883,0,0,1,1.463-1.679,4.157,4.157,0,0,1,2.254-.6,3.814,3.814,0,0,1,2.659.958A3.424,3.424,0,0,1,74.285-6.24H72.747a2.241,2.241,0,0,0-.7-1.516A2.174,2.174,0,0,0,70.5-8.35a2.276,2.276,0,0,0-1.92.892,4.19,4.19,0,0,0-.681,2.58v.308a4.106,4.106,0,0,0,.677,2.531A2.287,2.287,0,0,0,70.506-1.151ZM77.88,0H76.254V-9.51H77.88ZM76.122-12.032a.971.971,0,0,1,.242-.668.907.907,0,0,1,.716-.272.922.922,0,0,1,.721.272.96.96,0,0,1,.246.668.929.929,0,0,1-.246.659.938.938,0,0,1-.721.264.924.924,0,0,1-.716-.264A.938.938,0,0,1,76.122-12.032Zm3.929,7.189A5.617,5.617,0,0,1,80.6-7.356a4.1,4.1,0,0,1,1.529-1.723,4.163,4.163,0,0,1,2.237-.606,4.01,4.01,0,0,1,3.142,1.345,5.174,5.174,0,0,1,1.2,3.577v.114a5.666,5.666,0,0,1-.532,2.492A4.038,4.038,0,0,1,86.656-.439a4.211,4.211,0,0,1-2.272.615A4,4,0,0,1,81.25-1.169a5.147,5.147,0,0,1-1.2-3.56Zm1.635.193a4.068,4.068,0,0,0,.734,2.54,2.349,2.349,0,0,0,1.964.958,2.335,2.335,0,0,0,1.969-.971,4.449,4.449,0,0,0,.729-2.72,4.061,4.061,0,0,0-.743-2.536,2.361,2.361,0,0,0-1.973-.971,2.335,2.335,0,0,0-1.942.958A4.416,4.416,0,0,0,81.686-4.649ZM85.1-13.482h1.969L84.718-10.9l-1.31,0ZM92.285-9.51l.053,1.2a3.465,3.465,0,0,1,2.848-1.371q3.015,0,3.041,3.4V0H96.6V-6.293a2.189,2.189,0,0,0-.47-1.521,1.884,1.884,0,0,0-1.437-.492,2.347,2.347,0,0,0-1.389.422,2.865,2.865,0,0,0-.932,1.107V0H90.747V-9.51ZM.835,19.166a5.571,5.571,0,0,1,1.037-3.52,3.28,3.28,0,0,1,2.716-1.332,3.3,3.3,0,0,1,2.646,1.143V10.5H8.859V24H7.365l-.079-1.02a3.311,3.311,0,0,1-2.716,1.2,3.248,3.248,0,0,1-2.694-1.354A5.634,5.634,0,0,1,.835,19.289Zm1.626.185a4.218,4.218,0,0,0,.668,2.531,2.159,2.159,0,0,0,1.846.914,2.372,2.372,0,0,0,2.259-1.389V17.039a2.39,2.39,0,0,0-2.241-1.345,2.17,2.17,0,0,0-1.863.923A4.644,4.644,0,0,0,2.461,19.351Zm12.867,4.825a4.155,4.155,0,0,1-3.146-1.27,4.714,4.714,0,0,1-1.213-3.4v-.3a5.707,5.707,0,0,1,.541-2.527,4.217,4.217,0,0,1,1.512-1.74,3.8,3.8,0,0,1,2.1-.628,3.562,3.562,0,0,1,2.883,1.222,5.289,5.289,0,0,1,1.028,3.5v.677H12.595a3.38,3.38,0,0,0,.822,2.272,2.583,2.583,0,0,0,2,.866,2.832,2.832,0,0,0,1.459-.352,3.666,3.666,0,0,0,1.046-.932l.993.773A3.993,3.993,0,0,1,15.328,24.176Zm-.2-8.525a2.169,2.169,0,0,0-1.652.716,3.482,3.482,0,0,0-.826,2.008h4.764v-.123a3.1,3.1,0,0,0-.668-1.92A2.042,2.042,0,0,0,15.126,15.65ZM22.685,24H21.059V10.5h1.626Zm10.872-1.151a2.342,2.342,0,0,0,1.521-.527A1.855,1.855,0,0,0,35.8,21h1.538a2.949,2.949,0,0,1-.562,1.556,3.7,3.7,0,0,1-1.384,1.178,3.994,3.994,0,0,1-1.833.439,3.918,3.918,0,0,1-3.089-1.3,5.163,5.163,0,0,1-1.147-3.546v-.272a5.725,5.725,0,0,1,.51-2.47,3.883,3.883,0,0,1,1.463-1.679,4.157,4.157,0,0,1,2.254-.6,3.814,3.814,0,0,1,2.659.958,3.424,3.424,0,0,1,1.129,2.487H35.8a2.241,2.241,0,0,0-.7-1.516,2.174,2.174,0,0,0-1.551-.593,2.276,2.276,0,0,0-1.92.892,4.19,4.19,0,0,0-.681,2.58v.308a4.106,4.106,0,0,0,.677,2.531A2.287,2.287,0,0,0,33.557,22.849ZM40.931,24H39.3V10.5h1.626ZM45.3,24H43.673V14.49H45.3ZM43.541,11.968a.971.971,0,0,1,.242-.668.907.907,0,0,1,.716-.272.922.922,0,0,1,.721.272.96.96,0,0,1,.246.668.929.929,0,0,1-.246.659.938.938,0,0,1-.721.264.924.924,0,0,1-.716-.264A.938.938,0,0,1,43.541,11.968Zm8.306,12.208a4.155,4.155,0,0,1-3.146-1.27,4.714,4.714,0,0,1-1.213-3.4v-.3a5.707,5.707,0,0,1,.541-2.527,4.217,4.217,0,0,1,1.512-1.74,3.8,3.8,0,0,1,2.1-.628,3.562,3.562,0,0,1,2.883,1.222,5.289,5.289,0,0,1,1.028,3.5v.677H49.113a3.38,3.38,0,0,0,.822,2.272,2.583,2.583,0,0,0,2,.866,2.832,2.832,0,0,0,1.459-.352,3.666,3.666,0,0,0,1.046-.932l.993.773A3.993,3.993,0,0,1,51.847,24.176Zm-.2-8.525a2.169,2.169,0,0,0-1.652.716,3.482,3.482,0,0,0-.826,2.008H53.93v-.123a3.1,3.1,0,0,0-.668-1.92A2.042,2.042,0,0,0,51.645,15.65Zm7.33-1.16.053,1.2a3.465,3.465,0,0,1,2.848-1.371q3.015,0,3.041,3.4V24H63.29V17.707a2.189,2.189,0,0,0-.47-1.521,1.884,1.884,0,0,0-1.437-.492,2.347,2.347,0,0,0-1.389.422,2.865,2.865,0,0,0-.932,1.107V24H57.437V14.49Zm10.6-2.3v2.3H71.35v1.257H69.574v5.9a1.32,1.32,0,0,0,.237.858,1,1,0,0,0,.809.286,3.937,3.937,0,0,0,.773-.105V24a4.742,4.742,0,0,1-1.248.175,2.025,2.025,0,0,1-1.644-.659,2.832,2.832,0,0,1-.554-1.872v-5.9H66.217V14.49h1.731v-2.3Zm7.62,11.988a4.155,4.155,0,0,1-3.146-1.27,4.714,4.714,0,0,1-1.213-3.4v-.3a5.707,5.707,0,0,1,.541-2.527,4.217,4.217,0,0,1,1.512-1.74,3.8,3.8,0,0,1,2.1-.628,3.562,3.562,0,0,1,2.883,1.222,5.289,5.289,0,0,1,1.028,3.5v.677H74.461a3.38,3.38,0,0,0,.822,2.272,2.583,2.583,0,0,0,2,.866,2.832,2.832,0,0,0,1.459-.352,3.666,3.666,0,0,0,1.046-.932l.993.773A3.993,3.993,0,0,1,77.194,24.176Zm-.2-8.525a2.169,2.169,0,0,0-1.652.716,3.482,3.482,0,0,0-.826,2.008h4.764v-.123a3.1,3.1,0,0,0-.668-1.92A2.042,2.042,0,0,0,76.992,15.65Z" transform="translate(1004 2020)" fill="#12263f"/>
    <path id="Trazado_102332" data-name="Trazado 102332" d="M3.665-12.8,7.849-2.355,12.032-12.8h2.188V0H12.533V-4.983l.158-5.379L8.49,0H7.2L3.006-10.336l.167,5.353V0H1.485V-12.8ZM20.892.176a4.155,4.155,0,0,1-3.146-1.27,4.714,4.714,0,0,1-1.213-3.4v-.3a5.707,5.707,0,0,1,.541-2.527,4.217,4.217,0,0,1,1.512-1.74,3.8,3.8,0,0,1,2.1-.628,3.562,3.562,0,0,1,2.883,1.222,5.289,5.289,0,0,1,1.028,3.5v.677H18.158a3.38,3.38,0,0,0,.822,2.272,2.583,2.583,0,0,0,2,.866A2.832,2.832,0,0,0,22.438-1.5a3.666,3.666,0,0,0,1.046-.932l.993.773A3.993,3.993,0,0,1,20.892.176Zm-.2-8.525a2.169,2.169,0,0,0-1.652.716,3.482,3.482,0,0,0-.826,2.008h4.764v-.123a3.1,3.1,0,0,0-.668-1.92A2.042,2.042,0,0,0,20.689-8.35ZM28.16-9.51V1.1q0,2.742-2.487,2.742a3.034,3.034,0,0,1-.993-.157V2.391a3.144,3.144,0,0,0,.738.07,1.1,1.1,0,0,0,.831-.295,1.457,1.457,0,0,0,.286-1.025V-9.51Zm-1.793-2.522a.975.975,0,0,1,.242-.664.889.889,0,0,1,.708-.277.922.922,0,0,1,.721.272.96.96,0,0,1,.246.668.929.929,0,0,1-.246.659.938.938,0,0,1-.721.264.909.909,0,0,1-.712-.264A.949.949,0,0,1,26.367-12.032Zm3.981,7.189A5.617,5.617,0,0,1,30.9-7.356a4.1,4.1,0,0,1,1.529-1.723,4.163,4.163,0,0,1,2.237-.606,4.01,4.01,0,0,1,3.142,1.345,5.174,5.174,0,0,1,1.2,3.577v.114a5.666,5.666,0,0,1-.532,2.492A4.038,4.038,0,0,1,36.954-.439a4.211,4.211,0,0,1-2.272.615,4,4,0,0,1-3.133-1.345,5.147,5.147,0,0,1-1.2-3.56Zm1.635.193a4.068,4.068,0,0,0,.734,2.54,2.349,2.349,0,0,0,1.964.958,2.335,2.335,0,0,0,1.969-.971,4.449,4.449,0,0,0,.729-2.72,4.061,4.061,0,0,0-.743-2.536,2.361,2.361,0,0,0-1.973-.971,2.335,2.335,0,0,0-1.942.958A4.416,4.416,0,0,0,31.983-4.649Zm13.658-3.4a4.873,4.873,0,0,0-.8-.062A2.143,2.143,0,0,0,42.671-6.75V0H41.045V-9.51h1.582l.026,1.1a2.532,2.532,0,0,1,2.268-1.274,1.661,1.661,0,0,1,.721.123ZM52.655,0a3.416,3.416,0,0,1-.229-1A3.628,3.628,0,0,1,49.72.176a3.357,3.357,0,0,1-2.307-.8,2.573,2.573,0,0,1-.9-2.017,2.688,2.688,0,0,1,1.129-2.307,5.325,5.325,0,0,1,3.177-.822H52.4v-.747a1.826,1.826,0,0,0-.51-1.358,2.049,2.049,0,0,0-1.5-.505,2.371,2.371,0,0,0-1.459.439,1.3,1.3,0,0,0-.589,1.063H46.705a2.244,2.244,0,0,1,.505-1.375A3.449,3.449,0,0,1,48.582-9.3a4.613,4.613,0,0,1,1.9-.387,3.759,3.759,0,0,1,2.575.822A2.964,2.964,0,0,1,54.026-6.6v4.377A5.351,5.351,0,0,0,54.36-.141V0Zm-2.7-1.239a2.858,2.858,0,0,0,1.45-.4A2.392,2.392,0,0,0,52.4-2.663V-4.614H51.126q-2.988,0-2.988,1.749a1.48,1.48,0,0,0,.51,1.2A1.959,1.959,0,0,0,49.957-1.239ZM5.045,22.849a2.342,2.342,0,0,0,1.521-.527A1.855,1.855,0,0,0,7.286,21H8.824a2.949,2.949,0,0,1-.562,1.556,3.7,3.7,0,0,1-1.384,1.178,3.994,3.994,0,0,1-1.833.439,3.918,3.918,0,0,1-3.089-1.3A5.163,5.163,0,0,1,.809,19.333v-.272a5.725,5.725,0,0,1,.51-2.47,3.883,3.883,0,0,1,1.463-1.679,4.157,4.157,0,0,1,2.254-.6,3.814,3.814,0,0,1,2.659.958A3.424,3.424,0,0,1,8.824,17.76H7.286a2.241,2.241,0,0,0-.7-1.516,2.174,2.174,0,0,0-1.551-.593,2.276,2.276,0,0,0-1.92.892,4.19,4.19,0,0,0-.681,2.58v.308a4.106,4.106,0,0,0,.677,2.531A2.287,2.287,0,0,0,5.045,22.849Zm5.177-3.691a5.617,5.617,0,0,1,.549-2.514A4.1,4.1,0,0,1,12.3,14.921a4.163,4.163,0,0,1,2.237-.606,4.01,4.01,0,0,1,3.142,1.345,5.174,5.174,0,0,1,1.2,3.577v.114a5.666,5.666,0,0,1-.532,2.492,4.038,4.038,0,0,1-1.521,1.718,4.211,4.211,0,0,1-2.272.615,4,4,0,0,1-3.133-1.345,5.147,5.147,0,0,1-1.2-3.56Zm1.635.193a4.068,4.068,0,0,0,.734,2.54,2.487,2.487,0,0,0,3.933-.013,4.449,4.449,0,0,0,.729-2.72,4.061,4.061,0,0,0-.743-2.536,2.361,2.361,0,0,0-1.973-.971,2.335,2.335,0,0,0-1.942.958A4.416,4.416,0,0,0,11.856,19.351Zm10.6-4.86.053,1.2a3.465,3.465,0,0,1,2.848-1.371q3.015,0,3.041,3.4V24H26.771V17.707a2.189,2.189,0,0,0-.47-1.521,1.884,1.884,0,0,0-1.437-.492,2.347,2.347,0,0,0-1.389.422,2.865,2.865,0,0,0-.932,1.107V24H20.918V14.49Zm10.6-2.3v2.3h1.775v1.257H33.056v5.9a1.32,1.32,0,0,0,.237.858,1,1,0,0,0,.809.286,3.937,3.937,0,0,0,.773-.105V24a4.742,4.742,0,0,1-1.248.175,2.025,2.025,0,0,1-1.644-.659,2.832,2.832,0,0,1-.554-1.872v-5.9H29.7V14.49H31.43v-2.3ZM38.5,24H36.87V14.49H38.5ZM36.738,11.968a.971.971,0,0,1,.242-.668.907.907,0,0,1,.716-.272.922.922,0,0,1,.721.272.96.96,0,0,1,.246.668.929.929,0,0,1-.246.659.938.938,0,0,1-.721.264.924.924,0,0,1-.716-.264A.938.938,0,0,1,36.738,11.968Zm5.9,2.522.053,1.2a3.465,3.465,0,0,1,2.848-1.371q3.015,0,3.041,3.4V24H46.951V17.707a2.189,2.189,0,0,0-.47-1.521,1.884,1.884,0,0,0-1.437-.492,2.347,2.347,0,0,0-1.389.422,2.865,2.865,0,0,0-.932,1.107V24H41.1V14.49ZM56.9,23.06a3.454,3.454,0,0,1-2.786,1.116,2.956,2.956,0,0,1-2.316-.883,3.823,3.823,0,0,1-.8-2.615V14.49H52.62v6.144q0,2.162,1.758,2.162a2.434,2.434,0,0,0,2.479-1.389V14.49h1.626V24H56.936Zm9.923.94a3.416,3.416,0,0,1-.229-1,3.628,3.628,0,0,1-2.707,1.178,3.357,3.357,0,0,1-2.307-.8,2.573,2.573,0,0,1-.9-2.017,2.688,2.688,0,0,1,1.129-2.307,5.325,5.325,0,0,1,3.177-.822h1.582v-.747a1.826,1.826,0,0,0-.51-1.358,2.049,2.049,0,0,0-1.5-.505,2.371,2.371,0,0,0-1.459.439,1.3,1.3,0,0,0-.589,1.063H60.873a2.244,2.244,0,0,1,.505-1.375A3.449,3.449,0,0,1,62.75,14.7a4.613,4.613,0,0,1,1.9-.387,3.759,3.759,0,0,1,2.575.822,2.964,2.964,0,0,1,.967,2.263v4.377a5.351,5.351,0,0,0,.334,2.083V24Zm-2.7-1.239a2.858,2.858,0,0,0,1.45-.4,2.392,2.392,0,0,0,.993-1.028V19.386H65.294q-2.988,0-2.988,1.749a1.48,1.48,0,0,0,.51,1.2A1.959,1.959,0,0,0,64.125,22.761Z" transform="translate(962 2157)" fill="#12263f"/>
    <g id="light-bulb" transform="translate(800.747 2126.563)">
      <g id="Grupo_58420" data-name="Grupo 58420" transform="translate(48.003)">
        <g id="Grupo_58419" data-name="Grupo 58419" transform="translate(0)">
          <path id="Trazado_102053" data-name="Trazado 102053" d="M232.784,4.687a.781.781,0,0,0,.781-.781V.781a.781.781,0,0,0-1.562,0V3.906A.781.781,0,0,0,232.784,4.687Z" transform="translate(-214.034 0)" fill="#ea526f"/>
          <path id="Trazado_102054" data-name="Trazado 102054" d="M140.082,25.784l1.563,2.705A.781.781,0,1,0,143,27.718L143,27.709,141.435,25a.781.781,0,1,0-1.358.772Z" transform="translate(-130.993 -22.205)" fill="#ea526f"/>
          <path id="Trazado_102055" data-name="Trazado 102055" d="M73,93.428l.009.005L75.712,95a.781.781,0,0,0,.79-1.348l-.009-.005L73.788,92.08A.781.781,0,0,0,73,93.428Z" transform="translate(-70.208 -82.991)" fill="#ea526f"/>
          <path id="Trazado_102056" data-name="Trazado 102056" d="M52.69,184.781a.781.781,0,0,0-.781-.781H48.784a.781.781,0,0,0,0,1.563h3.125A.781.781,0,0,0,52.69,184.781Z" transform="translate(-48.003 -166.031)" fill="#ea526f"/>
          <path id="Trazado_102057" data-name="Trazado 102057" d="M75.721,260.074l-.009.005-2.705,1.563A.781.781,0,0,0,73.778,263l.009-.005,2.705-1.562a.781.781,0,1,0-.772-1.358Z" transform="translate(-70.208 -234.584)" fill="#ea526f"/>
          <path id="Trazado_102058" data-name="Trazado 102058" d="M367.486,261.647l-.009-.005-2.706-1.562a.781.781,0,0,0-.79,1.348l.009.005,2.705,1.563a.781.781,0,1,0,.79-1.348Z" transform="translate(-332.775 -234.584)" fill="#ea526f"/>
          <path id="Trazado_102059" data-name="Trazado 102059" d="M387.909,184h-3.125a.781.781,0,0,0,0,1.563h3.125a.781.781,0,1,0,0-1.562Z" transform="translate(-351.191 -166.031)" fill="#ea526f"/>
          <path id="Trazado_102060" data-name="Trazado 102060" d="M364.43,95.1a.781.781,0,0,0,.391-.1l2.705-1.562a.781.781,0,1,0-.772-1.358l-.009.005-2.705,1.563a.781.781,0,0,0,.391,1.458Z" transform="translate(-332.824 -82.99)" fill="#ea526f"/>
          <path id="Trazado_102061" data-name="Trazado 102061" d="M308.388,28.776h0a.781.781,0,0,0,1.067-.287h0l1.563-2.705a.781.781,0,1,0-1.348-.79l-.005.009L308.1,27.708A.781.781,0,0,0,308.388,28.776Z" transform="translate(-282.608 -22.205)" fill="#ea526f"/>
          <path id="Trazado_102062" data-name="Trazado 102062" d="M176.6,175.625a.781.781,0,0,0,.781-.781V166.25h1.563a3.125,3.125,0,1,0-3.125-3.125v1.563h-1.562v-1.562a3.125,3.125,0,1,0-3.125,3.125h1.563v8.594a.781.781,0,1,0,1.563,0V166.25h1.563v8.594A.781.781,0,0,0,176.6,175.625Zm.781-12.5a1.563,1.563,0,1,1,1.563,1.563h-1.562Zm-4.687,1.563h-1.562a1.563,1.563,0,1,1,1.563-1.562Z" transform="translate(-156.284 -144.375)" fill="#ea526f"/>
          <path id="Trazado_102063" data-name="Trazado 102063" d="M125.176,64.017a12.5,12.5,0,0,0-8.53,22.148,2.328,2.328,0,0,1,.892,1.787v1.832a2.344,2.344,0,0,0,1.562,2.2v.925a2.329,2.329,0,0,0,.609,1.563,2.308,2.308,0,0,0,0,3.125,2.334,2.334,0,0,0,1.734,3.906.762.762,0,0,0,.642-1.2.828.828,0,0,0-.087-.135.807.807,0,0,0-.217-.142c-.023-.012-.045-.021-.069-.03a.828.828,0,0,0-.246-.049c-.008,0-.015,0-.023,0a.781.781,0,1,1,0-1.562h3.125a.781.781,0,1,0,0-1.562h-3.125a.781.781,0,0,1,0-1.562h3.125a.781.781,0,1,0,0-1.562h-3.125a.781.781,0,0,1-.781-.781v-.781h3.906a.781.781,0,1,0,0-1.562h-4.687a.781.781,0,0,1-.781-.781V87.951a3.884,3.884,0,0,0-1.465-3A10.937,10.937,0,0,1,125.1,65.58a11.063,11.063,0,0,1,10.4,10.855A10.873,10.873,0,0,1,131.448,85a3.873,3.873,0,0,0-1.41,3.041v1.741a.781.781,0,0,1-.781.781h-2.344a.781.781,0,0,0,0,1.563h1.563v.781a.781.781,0,0,1-.781.781h-.781a.781.781,0,0,0,0,1.562h.781a.781.781,0,1,1,0,1.563h-.781a.781.781,0,0,0,0,1.563h.781a.781.781,0,1,1,0,1.562h-3.906a.781.781,0,0,0,0,1.563h2.991a2.344,2.344,0,0,1-3.962.776.781.781,0,0,0-1.167,1.039,3.9,3.9,0,0,0,6.759-1.938,2.321,2.321,0,0,0,1.02-3.783,2.308,2.308,0,0,0,0-3.125,2.329,2.329,0,0,0,.609-1.562v-.925a2.344,2.344,0,0,0,1.563-2.2V88.041a2.348,2.348,0,0,1,.829-1.826,12.426,12.426,0,0,0,4.64-9.792A12.645,12.645,0,0,0,125.176,64.017Z" transform="translate(-105.819 -57.752)" fill="#ea526f"/>
        </g>
      </g>
    </g>
    <g id="satisfaction" transform="translate(871.398 2004.599)">
      <g id="Grupo_58422" data-name="Grupo 58422" transform="translate(30.111 5.646)">
        <g id="Grupo_58421" data-name="Grupo 58421">
          <path id="Trazado_102064" data-name="Trazado 102064" d="M203.765,64.783a.934.934,0,0,0-.754-.635L200,63.711l-1.346-2.726a.934.934,0,0,0-.837-.52h0a.934.934,0,0,0-.837.521l-1.345,2.727-3.009.438a.934.934,0,0,0-.517,1.593l2.178,2.122-.513,3a.934.934,0,0,0,1.355.984l2.691-1.416,2.691,1.414a.934.934,0,0,0,1.354-.985l-.515-3,2.177-2.123A.934.934,0,0,0,203.765,64.783ZM199.7,66.869a.934.934,0,0,0-.268.826l.278,1.616-1.451-.762a.934.934,0,0,0-.869,0l-1.451.763.277-1.616a.934.934,0,0,0-.269-.826l-1.174-1.144,1.622-.236a.934.934,0,0,0,.7-.511l.725-1.47.726,1.47a.933.933,0,0,0,.7.511l1.622.235Z" transform="translate(-191.828 -60.465)" fill="#ff8a5b"/>
        </g>
      </g>
      <g id="Grupo_58424" data-name="Grupo 58424" transform="translate(20.838 0)">
        <g id="Grupo_58423" data-name="Grupo 58423" transform="translate(0 0)">
          <path id="Trazado_102065" data-name="Trazado 102065" d="M122.6,27.274l-4.138-11.683a.929.929,0,0,0-.051-.116,11.407,11.407,0,0,0-2.58-12.142A11.291,11.291,0,0,0,109.349.107a11.482,11.482,0,0,0-6.978,1.251A.934.934,0,0,0,103.257,3a9.524,9.524,0,1,1-3.872,3.874.934.934,0,1,0-1.644-.885,11.423,11.423,0,0,0-.432,9.906L92.6,25.918a.934.934,0,0,0,.957,1.324l5.95-.722,3.271,5.022a.934.934,0,0,0,.782.424l.066,0a.934.934,0,0,0,.78-.537l3.278-7.03,2.666,7.325a.933.933,0,0,0,1.612.256l3.7-4.718,5.864,1.238a.934.934,0,0,0,1.073-1.225Zm-19.172,1.84-2.671-4.1a.935.935,0,0,0-.895-.417l-4.852.589L98.429,17.9a11.531,11.531,0,0,0,1.293,1.542,11.3,11.3,0,0,0,6.693,3.254Zm12.051-3.8a.934.934,0,0,0-.928.338L111.53,29.5l-2.473-6.795a11.4,11.4,0,0,0,8.179-4.976l3.044,8.595Z" transform="translate(-92.511 0)" fill="#ff8a5b"/>
        </g>
      </g>
      <g id="Grupo_58426" data-name="Grupo 58426" transform="translate(27.766 3.057)">
        <g id="Grupo_58425" data-name="Grupo 58425">
          <path id="Trazado_102066" data-name="Trazado 102066" d="M168.315,33.02l-.007-.007a.934.934,0,0,0-1.32,1.32l.007.007a.934.934,0,0,0,1.32-1.32Z" transform="translate(-166.714 -32.74)" fill="#ff8a5b"/>
        </g>
      </g>
      <g id="Grupo_58428" data-name="Grupo 58428" transform="translate(48.617 41.461)">
        <g id="Grupo_58427" data-name="Grupo 58427">
          <path id="Trazado_102067" data-name="Trazado 102067" d="M391.636,444.34a.933.933,0,1,0,.274.66A.942.942,0,0,0,391.636,444.34Z" transform="translate(-390.042 -444.066)" fill="#ff8a5b"/>
        </g>
      </g>
      <g id="Grupo_58430" data-name="Grupo 58430" transform="translate(13.457 30.623)">
        <g id="Grupo_58429" data-name="Grupo 58429" transform="translate(0)">
          <path id="Trazado_102068" data-name="Trazado 102068" d="M58.434,332.328a3.942,3.942,0,0,0-5.307-2.03L40,336.468a3.361,3.361,0,0,0-1.483-2.307l-6.257-4.146a.934.934,0,0,0-.516-.155H23.068v-.934a.934.934,0,0,0-.934-.934H14.391a.934.934,0,0,0,0,1.867H21.2V343.3h-6.81a.934.934,0,1,0,0,1.867h7.744a.934.934,0,0,0,.934-.934v-.062l3.118.954a.932.932,0,0,0,.273.041h10.3a16.582,16.582,0,0,0,7.207-1.658l2.683-1.3a.934.934,0,0,0-.816-1.68l-2.683,1.3a14.7,14.7,0,0,1-6.39,1.471H26.6l-3.531-1.081v-10.5h8.4l6.023,3.991a1.533,1.533,0,0,1-.443,2.757,1.535,1.535,0,0,1-1.229-.187L31.6,335.6a.934.934,0,0,0-1.005,1.574l4.212,2.69a3.405,3.405,0,0,0,2.725.415,3.359,3.359,0,0,0,2.182-1.827h.252a.933.933,0,0,0,.4-.089l13.556-6.372a2.075,2.075,0,0,1,1.789,3.743l-3.418,1.661a.934.934,0,1,0,.816,1.68l3.418-1.661A3.941,3.941,0,0,0,58.434,332.328Z" transform="translate(-13.457 -327.992)" fill="#ff8a5b"/>
        </g>
      </g>
      <g id="Grupo_58432" data-name="Grupo 58432" transform="translate(18.12 36.56)">
        <g id="Grupo_58431" data-name="Grupo 58431" transform="translate(0)">
          <path id="Trazado_102069" data-name="Trazado 102069" d="M65.026,391.885a.934.934,0,0,0-1.319-.058l-.008.007a.934.934,0,0,0,1.261,1.377l.008-.007A.934.934,0,0,0,65.026,391.885Z" transform="translate(-63.396 -391.582)" fill="#ff8a5b"/>
        </g>
      </g>
    </g>
    <g id="support" transform="translate(717.467 2128)">
      <path id="Trazado_102070" data-name="Trazado 102070" d="M245.93,5.774a.894.894,0,0,0,.894-.894V.894a.894.894,0,1,0-1.787,0V4.88A.894.894,0,0,0,245.93,5.774Z" transform="translate(-222.476)" fill="#25ced1"/>
      <path id="Trazado_102071" data-name="Trazado 102071" d="M45.3,105.567l-1.579-1.574a2.993,2.993,0,0,0-3.541-.505l-2.975-2.972.145-.145a3.1,3.1,0,0,0,0-4.38,3.068,3.068,0,0,0-1.556-.841,3.121,3.121,0,0,0,.123-.87,3.095,3.095,0,0,0-2.462-3.031,3.121,3.121,0,0,0,.123-.87,3.092,3.092,0,0,0-2.462-3.03A3.093,3.093,0,0,0,27.811,83.4l-5.9-1.116a3.185,3.185,0,0,0-2.731.363,1.614,1.614,0,0,0-.135.14,3.108,3.108,0,0,0-3.261.717,3.075,3.075,0,0,0-.905,2.191,3.125,3.125,0,0,0,.123.87,3.1,3.1,0,0,0-2.461,3.028,3.116,3.116,0,0,0,.123.872,3.1,3.1,0,0,0-1.921,4.782,3.1,3.1,0,0,0-1.19,5.124l.144.144-2.976,2.97a2.988,2.988,0,0,0-3.381.586l-1.58,1.575a2.986,2.986,0,0,0,0,4.216l1.972,1.969A.894.894,0,1,0,5,110.569L3.029,108.6a1.2,1.2,0,0,1,0-1.686l1.58-1.575a1.2,1.2,0,0,1,1.458-.179.9.9,0,0,0,.112.138.889.889,0,0,0,.257.179l9.06,9.047a.88.88,0,0,0,.431.435,1.2,1.2,0,0,1-.05,1.632L14.3,118.166a1.2,1.2,0,0,1-1.69,0L10.637,116.2a.894.894,0,0,0-1.264,1.264l1.973,1.973a2.992,2.992,0,0,0,4.215,0l1.579-1.577a2.988,2.988,0,0,0,.418-3.691l3.349-3.345.011-.011c.383-.4,1.451-.322,2.484-.251a12.856,12.856,0,0,0,2.351.016l3.667,3.663a2.987,2.987,0,0,0,.507,3.538l1.579,1.577a2.988,2.988,0,0,0,4.216,0l9.579-9.568a2.985,2.985,0,0,0,0-4.217ZM21.583,84.042l3.877.734L23.139,87.1a5.634,5.634,0,0,1-1.391-1.011,4.112,4.112,0,0,1-1.315-2.032h0a.78.78,0,0,1,0-.088,3.029,3.029,0,0,1,1.154.078Zm-4.531.729a1.318,1.318,0,0,1,1.668-.158,6.393,6.393,0,0,0,1.793,2.764,6.619,6.619,0,0,0,2.575,1.6,1.312,1.312,0,0,1-2.005,1.675h0l-4.031-4.023a1.316,1.316,0,0,1,0-1.852Zm-2.335,3.9a1.318,1.318,0,0,1,1.857,0l3.246,3.239a1.314,1.314,0,0,1-1.859,1.856h0L15.5,91.305l-.012-.011-.77-.77a1.312,1.312,0,0,1,0-1.853Zm-2.34,3.9a1.322,1.322,0,0,1,1.851-.006l2.47,2.469a1.312,1.312,0,0,1-1.859,1.852l-.9-.894h0l-1.566-1.564a1.315,1.315,0,0,1,0-1.855ZM10.82,97.255a1.321,1.321,0,0,1,1.86,0l.9.9A1.312,1.312,0,0,1,11.717,100l-.112-.112,0,0-.005,0-.774-.771a1.313,1.313,0,0,1,0-1.854Zm18.214,10.158a.894.894,0,0,0-1.264,0l-.8.794c-.756.756-2.125.66-3.449.569-1.438-.1-2.925-.2-3.887.785l-3.292,3.288-8.232-8.22,2.913-2.908a3.1,3.1,0,0,0,4.718-2.643c0-.008,0-.015,0-.023h.023a3.092,3.092,0,0,0,3.1-3.095c0-.008,0-.015,0-.023h.024a3.088,3.088,0,0,0,3.1-3.118h.024a3.1,3.1,0,0,0,2.645-4.712l2.553-2.552a1.311,1.311,0,0,1,.671-.357c.027,0,.053-.007.079-.012a1.31,1.31,0,0,1,1.113,2.223l-.778.774-.008.007-.9.894a.894.894,0,0,0,1.263,1.265l.781-.78h0l.118-.118a1.316,1.316,0,0,1,1.855,0,1.312,1.312,0,0,1,0,1.853l-.782.784h0l-.9.892a.894.894,0,0,0,1.261,1.266l.9-.9a1.312,1.312,0,0,1,1.856,1.854l-1.559,1.56a.894.894,0,1,0,1.264,1.264l.764-.764.013-.012a1.312,1.312,0,0,1,1.857,1.853l-.777.776h0l-1.233,1.232a.894.894,0,0,0,1.263,1.265l.6-.6,2.891,2.888L30.6,112.888l-2.949-2.946a3.515,3.515,0,0,0,.587-.472l.795-.794a.893.893,0,0,0,0-1.264Zm15,1.107-9.579,9.568a1.2,1.2,0,0,1-1.689,0l-1.579-1.577a1.2,1.2,0,0,1,0-1.684l9.579-9.568a1.2,1.2,0,0,1,1.69,0l1.579,1.574a1.2,1.2,0,0,1,0,1.687Z" transform="translate(0 -74.863)" fill="#25ced1"/>
      <path id="Trazado_102072" data-name="Trazado 102072" d="M85.242,7.522a.894.894,0,0,0,1.263-1.265l-3.257-3.25a.894.894,0,0,0-1.263,1.265Z" transform="translate(-73.656 -2.501)" fill="#25ced1"/>
      <path id="Trazado_102073" data-name="Trazado 102073" d="M372.545,7.783a.891.891,0,0,0,.632-.261l3.254-3.25a.894.894,0,1,0-1.263-1.265l-3.254,3.25a.894.894,0,0,0,.632,1.526Z" transform="translate(-337.854 -2.502)" fill="#25ced1"/>
      <path id="Trazado_102074" data-name="Trazado 102074" d="M60.186,430.46a.894.894,0,0,0,.011,1.264l0,0a.894.894,0,1,0-.013-1.266Z" transform="translate(-53.797 -392.016)" fill="#25ced1"/>
      <path id="Trazado_102075" data-name="Trazado 102075" d="M333.405,333.906a.894.894,0,1,0-.4-1.692l0,0a.893.893,0,0,0,.407,1.69Z" transform="translate(-302.186 -302.644)" fill="#25ced1"/>
    </g>
    <g id="trophy" transform="translate(674.333 2009.068)">
      <g id="Grupo_58417" data-name="Grupo 58417" transform="translate(0 0)">
        <path id="Trazado_102049" data-name="Trazado 102049" d="M28.133,21.142a.635.635,0,0,0,.786,1,11.668,11.668,0,0,0,1.008-.9h1.388A12.032,12.032,0,0,0,43.333,9.225a1.907,1.907,0,0,0-1.9-1.9H35.408c.074-.764.109-1.382.125-1.8A2.793,2.793,0,0,0,34.955,0H8.379A2.793,2.793,0,0,0,7.8,5.525c.016.414.05,1.032.124,1.8H1.9A1.907,1.907,0,0,0,0,9.225a12.013,12.013,0,0,0,4.19,9.113.635.635,0,0,0,.828-.962A10.745,10.745,0,0,1,1.27,9.225.635.635,0,0,1,1.9,8.591H8.07c.054.4.118.827.194,1.27h-5a.639.639,0,0,0-.628.725,9.492,9.492,0,0,0,8.745,8.1,15.215,15.215,0,0,0,.9,1.292h-.267a10.626,10.626,0,0,1-4.66-1.063.635.635,0,0,0-.552,1.143,11.884,11.884,0,0,0,5.212,1.19h1.395a11.111,11.111,0,0,0,5.036,2.9,9.626,9.626,0,0,1-.963,4.731,3.771,3.771,0,0,1-3.564,1.849H12.838A2.43,2.43,0,0,0,10.41,33.15v2.227h-2.5a2.33,2.33,0,0,0-2.327,2.327v3.3a2.33,2.33,0,0,0,2.327,2.327H35.42a2.33,2.33,0,0,0,2.327-2.327v-3.3a2.33,2.33,0,0,0-2.327-2.327H32.754V33.15a2.43,2.43,0,0,0-2.428-2.428H29.242c-3.029,0-4.4-2.025-4.442-6.555a11.115,11.115,0,0,0,1.4-.452.635.635,0,0,0-.471-1.179,10.9,10.9,0,0,1-4.061.739c-5.6.138-9.351-4.038-10.981-9.027A32.036,32.036,0,0,1,9.075,5.586H13.88a.635.635,0,0,0,0-1.27h-5.5a1.523,1.523,0,1,1,0-3.047H34.955a1.523,1.523,0,0,1,0,3.047H16.8a.635.635,0,0,0,0,1.27H34.258C34.143,8.046,33.366,17.018,28.133,21.142Zm8.345,16.563v3.3a1.059,1.059,0,0,1-1.058,1.058H7.913a1.059,1.059,0,0,1-1.058-1.058v-3.3a1.059,1.059,0,0,1,1.058-1.058H35.42A1.059,1.059,0,0,1,36.478,37.705ZM31.484,33.15v2.227H11.68V33.15a1.159,1.159,0,0,1,1.158-1.158H30.327A1.159,1.159,0,0,1,31.484,33.15Zm-7.952-8.735a10.749,10.749,0,0,0,1.087,5.091,4.96,4.96,0,0,0,.956,1.216H17.613a5.053,5.053,0,0,0,.97-1.21A10.519,10.519,0,0,0,19.716,24.4a13.187,13.187,0,0,0,1.951.142A13.341,13.341,0,0,0,23.533,24.416ZM4.031,11.13H8.507a28.755,28.755,0,0,0,.971,3.51,21.657,21.657,0,0,0,1.132,2.673A8.188,8.188,0,0,1,4.031,11.13Zm37.4-2.539a.635.635,0,0,1,.635.635A10.761,10.761,0,0,1,31.315,19.974h-.269a15.487,15.487,0,0,0,.9-1.292,9.492,9.492,0,0,0,8.752-8.1.639.639,0,0,0-.628-.725h-5c.076-.443.14-.868.194-1.27Zm-6.7,2.958c.032-.141.062-.28.091-.419H39.3a8.188,8.188,0,0,1-6.586,6.185A24.667,24.667,0,0,0,34.733,11.548Z" transform="translate(0 0)" fill="#0075a4"/>
        <path id="Trazado_102050" data-name="Trazado 102050" d="M197.968,95.9a1.081,1.081,0,0,0-1.03-.749h-2.9l-.9-2.762a1.089,1.089,0,0,0-2.061,0l-.9,2.762h-2.9a1.089,1.089,0,0,0-.637,1.96l2.349,1.707-.9,2.762a1.09,1.09,0,0,0,1.667,1.211l2.349-1.707,2.349,1.707a1.09,1.09,0,0,0,1.667-1.211l-.9-2.762,2.349-1.707a1.08,1.08,0,0,0,.394-1.211Zm-3.862,2.162a.635.635,0,0,0-.231.71l.863,2.655-2.259-1.641a.635.635,0,0,0-.746,0l-2.259,1.641.863-2.655a.635.635,0,0,0-.231-.71l-2.259-1.641h2.792a.635.635,0,0,0,.6-.439l.863-2.655.863,2.655a.635.635,0,0,0,.6.439h2.792Z" transform="translate(-170.439 -83.9)" fill="#0075a4"/>
        <path id="Trazado_102051" data-name="Trazado 102051" d="M166.352,458h-8.717a.635.635,0,0,0,0,1.27h8.717a.635.635,0,0,0,0-1.27Z" transform="translate(-143.712 -419.237)" fill="#0075a4"/>
        <path id="Trazado_102052" data-name="Trazado 102052" d="M299.443,458h-3.809a.635.635,0,0,0,0,1.27h3.809a.635.635,0,0,0,0-1.27Z" transform="translate(-270.032 -419.237)" fill="#0075a4"/>
      </g>
    </g>
    <g id="skill-development" transform="translate(779.667 1932.666)">
      <path id="Trazado_102076" data-name="Trazado 102076" d="M44.729,11.974V5.938H38.693a5.938,5.938,0,1,0-11.875,0H22.365A22.365,22.365,0,1,0,44.729,28.3V23.849a5.938,5.938,0,1,0,0-11.875ZM20.88,8.963v6.858c1.79-.6,2.15-.878,2.969-.878a2.969,2.969,0,0,1,0,5.938c-.82,0-1.184-.282-2.969-.878v6.816H17.911a5.938,5.938,0,0,0-11.875,0H3.025A19.427,19.427,0,0,1,20.88,8.963ZM3.025,29.787H9.883c-.6-1.791-.878-2.15-.878-2.969a2.969,2.969,0,0,1,5.938,0c0,.819-.28,1.178-.878,2.969H20.88v2.969a5.938,5.938,0,1,0,0,11.875v3.011A19.427,19.427,0,0,1,3.025,29.787ZM23.849,47.642V40.783c-1.79.6-2.15.878-2.969.878a2.969,2.969,0,0,1,0-5.938c.82,0,1.184.282,2.969.878V29.787h2.969a5.938,5.938,0,1,0,11.875,0H41.7A19.427,19.427,0,0,1,23.849,47.642ZM44.729,20.88c-.673,0-1.183-.306-2.969-.919v6.856H34.846c.6,1.791.878,2.15.878,2.969a2.969,2.969,0,1,1-5.938,0c0-.819.28-1.178.878-2.969H23.849V23.849a5.938,5.938,0,0,0,0-11.875V8.906h6.856a11.558,11.558,0,0,1-.919-2.969,2.969,2.969,0,1,1,5.938,0c0,.673-.307,1.184-.919,2.969H41.76v6.955a11.554,11.554,0,0,1,2.969-.919,2.969,2.969,0,1,1,0,5.938Z" fill="#ffca01"/>
    </g>
  </g>
</svg>
