<svg xmlns="http://www.w3.org/2000/svg" width="85" height="92" viewBox="0 0 85 92">
  <g id="Grupo_988204" data-name="Grupo 988204" transform="translate(-810 -3924)">
    <rect id="Rectángulo_338875" data-name="Rectángulo 338875" width="85" height="92" rx="10" transform="translate(810 3924)" fill="#ff6e33"/>
    <g id="camisa2" transform="translate(806.42 3935.679)">
      <g id="Grupo_1053773" data-name="Grupo 1053773" transform="translate(14.586 1.006)">
        <path id="Trazado_736863" data-name="Trazado 736863" d="M432.536,385.078l-4.772-12.1a10.368,10.368,0,0,1-3.257,3.886,8.069,8.069,0,0,0,1.757,9.644l.082-.1,4.569.707A1.5,1.5,0,0,0,432.536,385.078Z" transform="translate(-369.654 -323.979)" fill="#ff6e80"/>
        <path id="Trazado_736864" data-name="Trazado 736864" d="M378.992,401.966a10.3,10.3,0,0,1-7.933,1.785l4.343,11.012a1.5,1.5,0,0,0,2.571.377l2.775-3.53A14.478,14.478,0,0,1,378.992,401.966Z" transform="translate(-324.139 -349.082)" fill="#f9475e"/>
        <path id="Trazado_736865" data-name="Trazado 736865" d="M143.886,53.45V91.206a6.76,6.76,0,0,1-6.76,6.761H123.565l-.016-.009C103.168,88.5,98.357,61.363,109.632,46.69h27.494A6.759,6.759,0,0,1,143.886,53.45Z" transform="translate(-92.608 -41.436)" fill="#5ad6ff"/>
        <path id="Trazado_736866" data-name="Trazado 736866" d="M52.022,97.958l-5.3-3L41.4,97.967H27.841a6.761,6.761,0,0,1-6.76-6.761V53.45a6.76,6.76,0,0,1,6.76-6.76H38.1A42.475,42.475,0,0,0,52.022,97.958Z" transform="translate(-21.081 -41.436)" fill="#00c5fd"/>
        <path id="Trazado_736867" data-name="Trazado 736867" d="M183.288,46.69V97.967c-5.047-1.478-9.667-5.589-10.637-11.178V46.69Z" transform="translate(-152.331 -41.436)" fill="#d7ddf5"/>
        <path id="Trazado_736868" data-name="Trazado 736868" d="M183.284,356.969H172.651V345.791A42.6,42.6,0,0,0,183.284,356.969Z" transform="translate(-152.331 -300.438)" fill="#c1cff2"/>
        <path id="Trazado_736869" data-name="Trazado 736869" d="M132.753,62.366l-3.865,4.892a3.612,3.612,0,0,1-4.877.733,32.852,32.852,0,0,1-3.1-2.413c-1.118-4.233-.291-8.094,2.766-10.808a78.437,78.437,0,0,1,9.078,7.6Z" transform="translate(-107.114 -48.433)" fill="#f3f5fc"/>
        <path id="Trazado_736870" data-name="Trazado 736870" d="M83.268,20.02A41.007,41.007,0,0,0,80.5,30.828a31.159,31.159,0,0,1-6.041-7.13,4.825,4.825,0,0,1-.69-2.492V16.675a2.97,2.97,0,0,1,.8-2.035A61.324,61.324,0,0,1,83.268,20.02Z" transform="translate(-66.707 -13.683)" fill="#d7ddf5"/>
        <path id="Trazado_736871" data-name="Trazado 736871" d="M230.9,16.692v4.531a4.812,4.812,0,0,1-.69,2.492,31.842,31.842,0,0,1-9.142,9.543,3.612,3.612,0,0,1-4.877-.733l-3.865-4.892C218.177,21.746,226.7,15.922,230.1,14.66A2.966,2.966,0,0,1,230.9,16.692Z" transform="translate(-186.682 -13.7)" fill="#f3f5fc"/>
        <path id="Trazado_736872" data-name="Trazado 736872" d="M165.84,8.459c-1.536,2.4-7.974,8.411-17.776,12.975a62.657,62.657,0,0,1-9.8-5.686c-.364-3.267-.364-6.735,4.062-8.248h21.324a2.978,2.978,0,0,1,2.193.959Z" transform="translate(-122.425 -7.5)" fill="#5ad6ff"/>
        <path id="Trazado_736873" data-name="Trazado 736873" d="M91.782,7.5a37.459,37.459,0,0,0-4.062,8.248A35.186,35.186,0,0,1,79.751,8.46a2.968,2.968,0,0,1,2.191-.96h9.84Z" transform="translate(-71.885 -7.5)" fill="#00c5fd"/>
        <path id="Trazado_736874" data-name="Trazado 736874" d="M326.564,403.051a10.279,10.279,0,0,1-6.234-2.1c-2.89,1.559-3.759,6.394-1.7,9.683l.048-.008,2.857,3.635a1.5,1.5,0,0,0,2.573-.377l4.343-11.012A10.37,10.37,0,0,1,326.564,403.051Z" transform="translate(-277.761 -348.207)" fill="#ff6e80"/>
        <path id="Trazado_736875" data-name="Trazado 736875" d="M287.249,376.73a10.368,10.368,0,0,1-3.073-3.751l-4.772,12.1a1.5,1.5,0,0,0,1.624,2.031l4.519-.7A14.515,14.515,0,0,1,287.249,376.73Z" transform="translate(-244.68 -323.981)" fill="#f9475e"/>
        <path id="Trazado_736876" data-name="Trazado 736876" d="M378.6,254.821c0,2.275,1.514,4.976.45,6.815-1.1,1.894-4.231,1.921-6.125,3.016a9.125,9.125,0,0,0-1.607,1.291c-8.124-4.863-9.118-18.472-2.368-24.242,1.436.842,2.632,2.51,3.975,3.287,1.894,1.1,5.029,1.122,6.125,3.018C380.115,249.843,378.6,252.545,378.6,254.821Z" transform="translate(-318.448 -210.303)" fill="#f9ee80"/>
        <path id="Trazado_736877" data-name="Trazado 736877" d="M310.507,262.678c-1.232,1.166-2.476,2.5-4.068,2.5-2.275,0-3.838-2.731-5.675-3.794-1.9-1.1-5.03-1.122-6.127-3.016-1.063-1.838.452-4.539.452-6.814s-1.515-4.978-.452-6.815c1.1-1.9,4.231-1.921,6.127-3.018,1.837-1.063,3.4-3.793,5.675-3.793a3.344,3.344,0,0,1,1.7.505A21.187,21.187,0,0,0,310.507,262.678Z" transform="translate(-257.636 -207.038)" fill="#f9d171"/>
        <g id="Grupo_1053772" data-name="Grupo 1053772" transform="translate(41.93 37.644)">
          <path id="Trazado_736878" data-name="Trazado 736878" d="M377.811,295.164a6.874,6.874,0,0,1-5.7,6.773c-3.669-3.747-4.429-10.13-1.833-13.616.217-.02.438-.031.661-.031A6.872,6.872,0,0,1,377.811,295.164Z" transform="translate(-364.065 -288.291)" fill="#ff6e80"/>
          <path id="Trazado_736879" data-name="Trazado 736879" d="M341.887,302.137a6.874,6.874,0,1,1-1.833-13.616,21.507,21.507,0,0,0,1.833,13.616Z" transform="translate(-333.842 -288.49)" fill="#f9475e"/>
        </g>
      </g>
      <g id="Grupo_1053774" data-name="Grupo 1053774" transform="translate(13.58 0)">
        <path id="Trazado_736880" data-name="Trazado 736880" d="M205.823,180.874a1.006,1.006,0,0,0-1.005,1.005v2.57a1.005,1.005,0,0,0,2.011,0v-2.57A1.006,1.006,0,0,0,205.823,180.874Z" transform="translate(-179.18 -156.625)"/>
        <path id="Trazado_736881" data-name="Trazado 736881" d="M205.823,253.207a1.006,1.006,0,0,0-1.005,1.005v2.57a1.005,1.005,0,1,0,2.011,0v-2.57A1.006,1.006,0,0,0,205.823,253.207Z" transform="translate(-179.18 -219.261)"/>
        <path id="Trazado_736882" data-name="Trazado 736882" d="M205.823,325.54a1.006,1.006,0,0,0-1.005,1.005v2.57a1.005,1.005,0,1,0,2.011,0v-2.57A1.006,1.006,0,0,0,205.823,325.54Z" transform="translate(-179.18 -281.897)"/>
        <path id="Trazado_736883" data-name="Trazado 736883" d="M78.4,61.734,75.27,53.793a3.8,3.8,0,0,0,.789-.953c.865-1.5.465-3.219.078-4.887a11.379,11.379,0,0,1-.394-2.431,11.387,11.387,0,0,1,.394-2.431c.387-1.667.787-3.391-.078-4.887-.893-1.544-2.692-2.082-4.278-2.556a10.8,10.8,0,0,1-2.214-.828,10.22,10.22,0,0,1-1.738-1.453c-.308-.3-.627-.6-.961-.891V20.586a1.005,1.005,0,1,0-2.011,0V31.175a4.005,4.005,0,0,0-1.469-.283c-1.857,0-3.229,1.315-4.441,2.475a10.221,10.221,0,0,1-1.738,1.453,10.815,10.815,0,0,1-2.214.828c-1.587.474-3.385,1.012-4.278,2.556-.865,1.5-.465,3.219-.078,4.887a11.378,11.378,0,0,1,.394,2.431,11.384,11.384,0,0,1-.394,2.431c-.387,1.667-.787,3.391.078,4.887a3.8,3.8,0,0,0,.789.953L50.426,56.53H46.547V22.183a4.583,4.583,0,0,0,2.987-.79,32.806,32.806,0,0,0,9.434-9.851A5.826,5.826,0,0,0,59.8,8.529V7.309a5.762,5.762,0,0,1,5.053,5.71v2.875a1.005,1.005,0,0,0,2.011,0V13.019A7.775,7.775,0,0,0,59.8,5.286V4a4,4,0,0,0-4-4H24.642a4,4,0,0,0-4,4V5.286a7.775,7.775,0,0,0-7.064,7.732V41.242a1.005,1.005,0,0,0,2.011,0V13.019a5.762,5.762,0,0,1,5.053-5.71v1.22a5.827,5.827,0,0,0,.835,3.013,32.805,32.805,0,0,0,9.434,9.851,4.606,4.606,0,0,0,2.987.791V56.53H21.345a5.761,5.761,0,0,1-5.754-5.754V45.934a1.005,1.005,0,0,0-2.011,0v4.841a7.774,7.774,0,0,0,7.765,7.765H49.633l-1.259,3.194a2.5,2.5,0,0,0,2.712,3.393l3.987-.616,2.494,3.172a2.5,2.5,0,0,0,4.3-.629l1.523-3.863,1.523,3.863a2.5,2.5,0,0,0,4.3.629L71.7,64.512l3.987.616A2.5,2.5,0,0,0,78.4,61.734ZM57.792,8.529a3.815,3.815,0,0,1-.546,1.973,30.752,30.752,0,0,1-8.85,9.232,2.613,2.613,0,0,1-3.519-.527L41.792,15.3C49.4,11.575,55.168,6.89,57.786,3.883ZM55.806,2.011a1.974,1.974,0,0,1,.786.163c-2.017,2.453-7.729,7.554-16.367,11.654C31.716,9.787,26,4.707,23.871,2.167a1.975,1.975,0,0,1,.771-.156ZM32.05,19.734A30.752,30.752,0,0,1,23.2,10.5a3.815,3.815,0,0,1-.546-1.973l.008-4.679c2.579,2.929,8.2,7.633,15.992,11.452l-3.086,3.905a2.613,2.613,0,0,1-3.519.527Zm3.861,1.805a4.565,4.565,0,0,0,1.236-1.086l3.076-3.893L43.3,20.454a4.562,4.562,0,0,0,1.236,1.086V56.53H35.911V21.54ZM52.6,42.636c-.312-1.346-.607-2.617-.14-3.425.493-.853,1.766-1.234,3.114-1.637a12.362,12.362,0,0,0,2.645-1.014,11.747,11.747,0,0,0,2.122-1.742c1.029-.985,2-1.916,3.049-1.916,1.164.015,2.18,1.107,3.049,1.916a11.752,11.752,0,0,0,2.122,1.742A12.367,12.367,0,0,0,71.2,37.575c1.348.4,2.62.784,3.114,1.636.467.807.172,2.079-.14,3.425a12.983,12.983,0,0,0-.446,2.886,12.983,12.983,0,0,0,.446,2.886c.312,1.346.607,2.617.14,3.425-.493.853-1.766,1.234-3.114,1.637a12.36,12.36,0,0,0-2.645,1.014,11.741,11.741,0,0,0-2.122,1.742c-.961.92-1.872,1.793-2.843,1.9-1.247.1-2.148-.875-3.256-1.9a11.751,11.751,0,0,0-2.122-1.742,12.359,12.359,0,0,0-2.645-1.014c-1.348-.4-2.62-.784-3.114-1.637-.467-.808-.172-2.079.14-3.425a12.983,12.983,0,0,0,.446-2.886,12.976,12.976,0,0,0-.446-2.886Zm7.4,23.68a.493.493,0,0,1-.846.124l-2.857-3.634a1,1,0,0,0-.944-.372l-4.568.706a.493.493,0,0,1-.534-.668l3.018-7.654c.571.229,1.165.408,1.732.577a10.8,10.8,0,0,1,2.214.828,10.22,10.22,0,0,1,1.738,1.453,8.234,8.234,0,0,0,3.521,2.364Zm16.464-3.356a.487.487,0,0,1-.46.18l-4.568-.706a1,1,0,0,0-.944.372L67.628,66.44a.493.493,0,0,1-.846-.124l-2.313-5.866.2-.515a9.1,9.1,0,0,0,3.157-2.259,10.221,10.221,0,0,1,1.738-1.453,10.8,10.8,0,0,1,2.214-.828c.567-.17,1.162-.348,1.732-.577l3.018,7.654a.484.484,0,0,1-.073.489Z" transform="translate(-13.58 0)"/>
        <path id="Trazado_736884" data-name="Trazado 736884" d="M334.216,296.545a7.878,7.878,0,1,0-7.878-7.878A7.887,7.887,0,0,0,334.216,296.545Zm0-13.745a5.867,5.867,0,1,1-5.867,5.867A5.874,5.874,0,0,1,334.216,282.8Z" transform="translate(-284.408 -243.145)"/>
      </g>
    </g>
  </g>
</svg>
