<svg xmlns="http://www.w3.org/2000/svg" width="76" height="76" viewBox="0 0 76 76">
  <g id="Grupo_57481" data-name="Grupo 57481" transform="translate(-392 -3609)">
    <rect id="Rectángulo_5540" data-name="Rectángulo 5540" width="76" height="76" transform="translate(392 3609)" fill="none"/>
    <g id="Grupo_58418" data-name="Grupo 58418" transform="translate(299.912 3581.357)">
      <path id="Trazado_105640" data-name="Trazado 105640" d="M189.482,121.291v1.876a1.3,1.3,0,0,1-1.3,1.3h0l-5.481.007v-4.483h5.481a1.3,1.3,0,0,1,1.3,1.3h0Z" transform="translate(-47.973 -62.706)" fill="#ffae4c"/>
      <path id="Trazado_105641" data-name="Trazado 105641" d="M181.578,123.777a.431.431,0,0,1-.432-.431v-4.483a.432.432,0,0,1,.431-.432h0l5.452,0h.029a1.729,1.729,0,0,1,1.729,1.729h0v1.876a1.729,1.729,0,0,1-1.729,1.729h-.031Zm5.913-.439-5.481-4.039v3.614l5.048-.006a.084.084,0,0,1,.026,0,.867.867,0,0,0,.84-.865v-1.874a.867.867,0,0,0-.842-.865h-.024Z" transform="translate(-46.848 -61.581)"/>
      <path id="Trazado_105642" data-name="Trazado 105642" d="M159.536,130.011v5.059h3.591V90.116h-3.59Z" transform="translate(-31.242 -41.132)" fill="#8c7a6f"/>
      <path id="Trazado_105643" data-name="Trazado 105643" d="M162.005,134.375h-3.59a.432.432,0,0,1-.432-.432h0v-5.059a.432.432,0,0,1,.432-.432h0a.432.432,0,0,1,.432.432h0v4.627h2.725V89.421h-2.725v35.174a.432.432,0,0,1-.432.432h0a.432.432,0,0,1-.432-.432h0V88.99a.432.432,0,0,1,.432-.432h3.59a.432.432,0,0,1,.432.432h0v44.954a.432.432,0,0,1-.432.432h0Z" transform="translate(-30.12 -40.007)"/>
      <path id="Trazado_105644" data-name="Trazado 105644" d="M139.41,251.919H149.3a3.38,3.38,0,0,1,3.38,3.38h0v.376h-16.65V255.3a3.38,3.38,0,0,1,3.38-3.381h0Z" transform="translate(-14.265 -157.982)" fill="#8c7a6f"/>
      <path id="Trazado_105645" data-name="Trazado 105645" d="M151.554,254.987H134.9a.432.432,0,0,1-.432-.432h0v-.376a3.817,3.817,0,0,1,3.813-3.812h9.887a3.817,3.817,0,0,1,3.812,3.812v.376a.432.432,0,0,1-.432.432h0Zm-16.215-.865h15.783a2.952,2.952,0,0,0-2.946-2.892h-9.887a2.952,2.952,0,0,0-2.946,2.892Z" transform="translate(-13.141 -156.862)"/>
      <path id="Trazado_105646" data-name="Trazado 105646" d="M144.811,42.026,141,45.9l-.012.054-1.537,7.882-.768,3.947H124.451l-.772-3.947-1.537-7.877-.012-.058-3.809-3.876.221-.325a5.787,5.787,0,0,1,4.807-2.561h4.631V34.731h7.172v4.412h4.635a5.794,5.794,0,0,1,4.807,2.561Z" transform="translate(-1.477 -1.134)" fill="#8c7a6f"/>
      <path id="Trazado_105647" data-name="Trazado 105647" d="M137.553,57.084h-14.23a.432.432,0,0,1-.424-.349l-2.3-11.756L116.883,41.2a.431.431,0,0,1-.049-.546l.221-.326a6.211,6.211,0,0,1,5.165-2.75h4.2v-3.98a.431.431,0,0,1,.43-.432h7.172a.431.431,0,0,1,.432.43h0v3.983h4.2a6.22,6.22,0,0,1,5.167,2.749l.22.331a.431.431,0,0,1-.051.542l-3.72,3.785-2.294,11.755a.431.431,0,0,1-.425.349ZM123.68,56.22H137.2l2.252-11.541a.445.445,0,0,1,.115-.214l3.563-3.625-.024-.036a5.355,5.355,0,0,0-4.447-2.366h-4.634a.432.432,0,0,1-.432-.432h0v-3.98h-6.307v3.98a.432.432,0,0,1-.432.432h-4.631a5.347,5.347,0,0,0-4.447,2.37l-.024.036,3.561,3.622a.435.435,0,0,1,.115.218l.012.058Z" transform="translate(-0.349)" fill="#3b2d25"/>
      <path id="Trazado_105648" data-name="Trazado 105648" d="M125.368,143.45H144.6c0-10.838-2.5-20.349-6.255-25.734H124.09c-3.758,5.385-6.254,14.9-6.254,25.734Z" transform="translate(-1.127 -61.064)" fill="#ff6e7b"/>
      <path id="Trazado_105649" data-name="Trazado 105649" d="M143.469,142.762H124.242a.432.432,0,0,1-.432-.432h0a.432.432,0,0,1,.432-.432h18.794c-.064-10.134-2.311-19.381-6.048-24.869h-13.8c-3.737,5.488-5.985,14.735-6.048,24.869H119.8a.432.432,0,0,1,.432.432h0a.432.432,0,0,1-.432.432h-3.091a.431.431,0,0,1-.432-.431h0c0-10.588,2.37-20.3,6.333-25.98a.43.43,0,0,1,.354-.186h14.251a.434.434,0,0,1,.356.186c3.964,5.679,6.332,15.391,6.332,25.98a.432.432,0,0,1-.432.432h0Z" transform="translate(0 -59.944)"/>
      <path id="Trazado_105650" data-name="Trazado 105650" d="M144.811,53.492,141,57.368l-.012.054-1.537,7.882H123.679l-1.537-7.877-.012-.058-3.809-3.876.221-.325a5.787,5.787,0,0,1,4.807-2.561h1.3v5.334h13.832V50.608h1.3a5.794,5.794,0,0,1,4.807,2.561Z" transform="translate(-1.477 -12.6)" fill="#fce2c5"/>
      <path id="Trazado_105651" data-name="Trazado 105651" d="M138.323,64.607H122.551a.431.431,0,0,1-.424-.35L120.6,56.449l-3.719-3.784a.432.432,0,0,1-.049-.546l.222-.326a6.207,6.207,0,0,1,5.163-2.75h1.3a.432.432,0,0,1,.432.432h0v4.9h12.968v-4.9a.431.431,0,0,1,.429-.432h1.305a6.22,6.22,0,0,1,5.165,2.749l.221.331a.433.433,0,0,1-.052.542l-3.719,3.785-1.525,7.808a.434.434,0,0,1-.424.35Zm-15.415-.865h15.061l1.483-7.594a.449.449,0,0,1,.115-.214l3.563-3.625-.024-.036a5.356,5.356,0,0,0-4.447-2.366h-.871v4.9a.432.432,0,0,1-.431.432H123.525a.432.432,0,0,1-.432-.432h0v-4.9h-.87a5.347,5.347,0,0,0-4.447,2.37l-.024.036,3.561,3.622a.433.433,0,0,1,.115.218l.012.058Z" transform="translate(-0.349 -11.47)"/>
      <path id="Trazado_105652" data-name="Trazado 105652" d="M156.69,110.453l-.164,2.318H141.834l-.166-2.318Z" transform="translate(-18.338 -55.819)" fill="#fadec2"/>
      <path id="Trazado_105653" data-name="Trazado 105653" d="M155.4,112.079H140.711a.433.433,0,0,1-.432-.4l-.165-2.318a.431.431,0,0,1,.4-.461h15.056a.433.433,0,0,1,.433.432v.031l-.165,2.318a.432.432,0,0,1-.43.4Zm-14.289-.865H155l.1-1.454H141.01Z" transform="translate(-17.214 -54.696)" fill="#3b2d25"/>
      <path id="Trazado_105654" data-name="Trazado 105654" d="M147.73,105.217v4.5a1.3,1.3,0,0,0-1.3-1.3H124.89v-4.456h21.586a1.255,1.255,0,0,1,1.255,1.255Z" transform="translate(-6.221 -51.131)" fill="#ffae4c"/>
      <path id="Trazado_105655" data-name="Trazado 105655" d="M146.606,109.024a.432.432,0,0,1-.432-.432h0a.866.866,0,0,0-.865-.864H123.766a.432.432,0,0,1-.432-.432h0v-4.456a.432.432,0,0,1,.432-.432h21.586a1.69,1.69,0,0,1,1.687,1.687v4.5a.432.432,0,0,1-.432.432ZM124.2,106.862h21.109a1.73,1.73,0,0,1,.865.232v-3a.824.824,0,0,0-.822-.823H124.2Z" transform="translate(-5.097 -50.008)"/>
      <path id="Trazado_105656" data-name="Trazado 105656" d="M132.44,105.108a.432.432,0,0,1-.432-.432h0v-1.834a.432.432,0,0,1,.432-.432h0a.432.432,0,0,1,.432.432h0v1.834a.432.432,0,0,1-.432.432Z" transform="translate(-11.361 -50.01)" fill="#3b2d25"/>
      <path id="Trazado_105657" data-name="Trazado 105657" d="M140.546,106.1a.432.432,0,0,1-.432-.432h0v-2.828a.432.432,0,0,1,.432-.432h0a.432.432,0,0,1,.432.432h0v2.827a.431.431,0,0,1-.431.432h0Z" transform="translate(-17.215 -50.01)" fill="#3b2d25"/>
      <path id="Trazado_105658" data-name="Trazado 105658" d="M148.658,105.108a.431.431,0,0,1-.432-.431v-1.836a.432.432,0,0,1,.432-.432h0a.432.432,0,0,1,.432.432h0v1.835a.432.432,0,0,1-.432.432h0Z" transform="translate(-23.074 -50.01)" fill="#3b2d25"/>
      <path id="Trazado_105659" data-name="Trazado 105659" d="M156.764,106.1a.432.432,0,0,1-.432-.432h0v-2.828a.432.432,0,0,1,.432-.432h0a.432.432,0,0,1,.432.432h0v2.827a.432.432,0,0,1-.432.432h0Z" transform="translate(-28.928 -50.01)" fill="#3b2d25"/>
      <path id="Trazado_105660" data-name="Trazado 105660" d="M164.883,105.108a.432.432,0,0,1-.432-.432h0v-1.834a.432.432,0,0,1,.432-.432h0a.432.432,0,0,1,.432.432h0v1.834a.432.432,0,0,1-.432.432Z" transform="translate(-34.791 -50.01)" fill="#3b2d25"/>
      <path id="Trazado_105661" data-name="Trazado 105661" d="M172.978,106.1a.432.432,0,0,1-.432-.432h0v-2.828a.432.432,0,0,1,.432-.432h0a.432.432,0,0,1,.432.432h0v2.827a.432.432,0,0,1-.431.432h0Z" transform="translate(-40.637 -50.01)" fill="#3b2d25"/>
      <path id="Trazado_105662" data-name="Trazado 105662" d="M181.089,105.108a.432.432,0,0,1-.432-.432h0v-1.834a.432.432,0,0,1,.432-.432h0a.432.432,0,0,1,.432.432h0v1.834a.432.432,0,0,1-.432.432Z" transform="translate(-46.495 -50.01)" fill="#3b2d25"/>
      <path id="Trazado_105663" data-name="Trazado 105663" d="M189.2,106.1a.432.432,0,0,1-.432-.432h0v-2.828a.432.432,0,0,1,.432-.432h0a.432.432,0,0,1,.432.432h0v2.827a.432.432,0,0,1-.432.432h0Z" transform="translate(-52.35 -50.01)" fill="#3b2d25"/>
      <path id="Trazado_105664" data-name="Trazado 105664" d="M197.305,105.108a.432.432,0,0,1-.432-.432h0v-1.834a.432.432,0,0,1,.432-.432h0a.432.432,0,0,1,.432.432h0v1.834a.432.432,0,0,1-.432.432Z" transform="translate(-58.206 -50.01)" fill="#3b2d25"/>
      <path id="Trazado_105665" data-name="Trazado 105665" d="M185.966,145.791h-4.611c-.06-9.755-2.147-18.685-5.635-24.235h4.611C183.82,127.106,185.907,136.036,185.966,145.791Z" transform="translate(-42.929 -63.837)" fill="#f24d5c"/>
      <path id="Trazado_105666" data-name="Trazado 105666" d="M186.267,54.558,182.7,58.183a.439.439,0,0,0-.115.213L181.1,65.99h-4.611l1.485-7.594a.438.438,0,0,1,.115-.213l.683-.694h1.717a.431.431,0,0,0,.432-.431v-4.9h.871a5.354,5.354,0,0,1,4.446,2.364Z" transform="translate(-43.487 -13.717)" fill="#e4c9ab"/>
    </g>
  </g>
</svg>
