<svg xmlns="http://www.w3.org/2000/svg" width="76" height="76" viewBox="0 0 76 76">
  <g id="Grupo_57484" data-name="Grupo 57484" transform="translate(-392 -3872)">
    <rect id="Rectángulo_5543" data-name="Rectángulo 5543" width="76" height="76" transform="translate(392 3872)" fill="none"/>
    <g id="objetivo" transform="translate(401.136 3877.927)">
      <path id="Trazado_101999" data-name="Trazado 101999" d="M45.235,458.577H33.023v-4.308A2.269,2.269,0,0,1,35.293,452h7.673a2.269,2.269,0,0,1,2.269,2.269Zm0,0" transform="translate(-28.886 -395.37)" fill="#a7c7d3"/>
      <path id="Trazado_102000" data-name="Trazado 102000" d="M142.709,419.246H130.5V409.3a2.269,2.269,0,0,1,2.269-2.269h7.674a2.269,2.269,0,0,1,2.269,2.269Zm0,0" transform="translate(-114.147 -356.038)" fill="#89b4c9"/>
      <path id="Trazado_102001" data-name="Trazado 102001" d="M240.185,376.993H227.972V361a2.269,2.269,0,0,1,2.269-2.269h7.674A2.27,2.27,0,0,1,240.185,361Zm0,0" transform="translate(-199.41 -313.786)" fill="#6c96b3"/>
      <path id="Trazado_102002" data-name="Trazado 102002" d="M337.661,312.9H325.449V287.73a2.269,2.269,0,0,1,2.269-2.269h7.673a2.269,2.269,0,0,1,2.269,2.269Zm0,0" transform="translate(-284.674 -249.696)" fill="#618aaa"/>
      <path id="Trazado_102003" data-name="Trazado 102003" d="M351.906,26.586H364.19a.413.413,0,0,0,.273-.723l-3.191-2.809a.413.413,0,0,1,0-.62l3.191-2.81a.413.413,0,0,0-.273-.722H351.906Zm0,0" transform="translate(-307.816 -16.534)" fill="#fdb659"/>
      <path id="Trazado_102004" data-name="Trazado 102004" d="M234.891,108.93l-13.306,7.226c-1.187.645-1.512,1.778-1.926,3.238l-2.646,9.357,6.485-2.657,2.517-7.608,6.7-4.068a4.9,4.9,0,0,0,2.181-5.487Zm0,0" transform="translate(-189.823 -95.282)" fill="#83d9ff"/>
      <path id="Trazado_102005" data-name="Trazado 102005" d="M234.891,108.93l-1.535.833a4.9,4.9,0,0,1-2.264,3.248l-6.1,3.707a1.894,1.894,0,0,0-.814,1.023l-.871,2.634a9.875,9.875,0,0,1-5.631,6.036l-.662,2.34,6.485-2.657,2.517-7.608,6.7-4.068a4.9,4.9,0,0,0,2.181-5.488Zm0,0" transform="translate(-189.823 -95.282)" fill="#5fc9ed"/>
      <path id="Trazado_102006" data-name="Trazado 102006" d="M223.5,245.926l3.833,4.528c.635.841,1.187,1.432,1.073,2.357l-.9,7.244h-2.338l-.611-6.228a1.04,1.04,0,0,0-.624-.853l-6.92-4.391Zm0,0" transform="translate(-189.823 -215.114)" fill="#38627c"/>
      <path id="Trazado_102007" data-name="Trazado 102007" d="M182.427,248.584l-.374,6.866a3.017,3.017,0,0,1-.167,1.378l-4.413,9.284h2.481l6.635-8.813a3.587,3.587,0,0,0,.563-1.629l1.759-9.743Zm0,0" transform="translate(-155.238 -215.114)" fill="#4f7693"/>
      <path id="Trazado_102008" data-name="Trazado 102008" d="M232.3,113.039l1.088,2.124a2.031,2.031,0,0,1-.882,2.734l-.841.431a2.031,2.031,0,0,1-2.733-.882l-1.088-2.124a2.031,2.031,0,0,1,.882-2.734l.841-.431A2.031,2.031,0,0,1,232.3,113.039Zm0,0" transform="translate(-199.099 -97.909)" fill="#fecbaa"/>
      <path id="Trazado_102009" data-name="Trazado 102009" d="M57.267,8.623,54.526,6.21,57.267,3.8a1.353,1.353,0,0,0-.894-2.369H45.03V.94a.94.94,0,0,0-1.88,0V13.62l-7.721,4.193a2.974,2.974,0,0,0-.305-.988L34.035,14.7a2.974,2.974,0,0,0-4-1.29l-.841.431a2.971,2.971,0,0,0-1.29,4l1.088,2.125a2.953,2.953,0,0,0,1.071,1.163,8.236,8.236,0,0,0-1.133,2.727l-.2.717a.94.94,0,0,0,.649,1.16.926.926,0,0,0,.256.036.941.941,0,0,0,.9-.685l.2-.716c.412-1.453.665-2.231,1.471-2.669l1.444-.785.178-.091c.059-.03.115-.065.171-.1L44.3,15.136a3.979,3.979,0,0,1-1.9,3.195L35.705,22.4l-.023.014L33.6,23.677a.94.94,0,0,0,.9,1.649l-1.581,4.779-1.155.474-3.142,1.288.905-3.2a.94.94,0,1,0-1.81-.512l-1.431,5.059a.9.9,0,0,0-.034.2l-.374,6.877a3.147,3.147,0,0,1-.077,1.014l-4.158,8.748H18.619a3.213,3.213,0,0,0-3.21,3.21V55.98a3.184,3.184,0,0,0-1.329-.289H6.407A3.213,3.213,0,0,0,3.2,58.9v3.367H.94a.94.94,0,1,0,0,1.88H56.372a.94.94,0,0,0,0-1.88H53.927V38.034a3.213,3.213,0,0,0-3.21-3.21H45.03v-16.4a5.863,5.863,0,0,0,.945-5.025.94.94,0,0,0-.945-.69V10.992H56.373a1.353,1.353,0,0,0,.895-2.369ZM29.511,16.151a1.083,1.083,0,0,1,.541-.636l.841-.431a1.091,1.091,0,0,1,1.468.473l1.088,2.125a1.092,1.092,0,0,1-.362,1.4l-.306.166-.647.331a1.092,1.092,0,0,1-1.468-.474l-1.088-2.124a1.084,1.084,0,0,1-.067-.832ZM27.622,50.346a3.191,3.191,0,0,0-1.032-.275L27.622,48.7Zm4.464-7.576a3.543,3.543,0,0,0,.678-1.685c.025-.121.489-2.656.489-2.656s.439.274.485.293a.1.1,0,0,1,.058.082l.511,5.2H31.157Zm5.56-5.189L36.852,44H36.2l-.529-5.379a1.981,1.981,0,0,0-1.108-1.59l-.946-.6.63-3.491s2.654,3.152,2.715,3.233c.549.714.737,1,.686,1.407ZM27.49,42.131a5.1,5.1,0,0,0,.263-1.745l.342-6.272,4.348-1.782-.79,4.378c0,.012,0,.024-.006.036l-.654,3.62a3.581,3.581,0,0,1-.393,1.252l-6.353,8.438h-.524ZM5.078,58.9a1.33,1.33,0,0,1,1.329-1.329H14.08A1.331,1.331,0,0,1,15.41,58.9v3.368H5.078Zm12.212,0V53.266a1.331,1.331,0,0,1,1.33-1.329h7.673a1.33,1.33,0,0,1,1.329,1.329v9H17.29V58.9ZM52.047,38.034V62.267H41.715V56.63a.94.94,0,0,0-1.881,0v5.637H29.5V47.214a1.33,1.33,0,0,1,1.329-1.329h7.673a1.33,1.33,0,0,1,1.329,1.329v4.713a.94.94,0,1,0,1.88,0V38.034a1.331,1.331,0,0,1,1.33-1.329h7.673a1.331,1.331,0,0,1,1.33,1.329Zm-9-3.21a3.213,3.213,0,0,0-3.21,3.21v6.26a3.182,3.182,0,0,0-1.09-.279l.767-6.2a3.631,3.631,0,0,0-1.062-2.785c-.063-.082-3.718-4.421-3.718-4.421l2.242-6.778,6.175-3.752V34.825ZM45.03,9.111v-5.8h9.946L52.834,5.195a1.353,1.353,0,0,0,0,2.031l2.142,1.886H45.03Zm0,0" transform="translate(0 0)"/>
    </g>
  </g>
</svg>
