<svg xmlns="http://www.w3.org/2000/svg" xmlns:xlink="http://www.w3.org/1999/xlink" width="444" height="425" viewBox="0 0 444 425">
  <defs>
    <filter id="Trazado_102333" x="148" y="0" width="147" height="148" filterUnits="userSpaceOnUse">
      <feOffset dy="3" input="SourceAlpha"/>
      <feGaussianBlur stdDeviation="3" result="blur"/>
      <feFlood flood-opacity="0.09"/>
      <feComposite operator="in" in2="blur"/>
      <feComposite in="SourceGraphic"/>
    </filter>
    <filter id="Trazado_102334" x="295" y="106" width="149" height="147" filterUnits="userSpaceOnUse">
      <feOffset dy="3" input="SourceAlpha"/>
      <feGaussianBlur stdDeviation="3" result="blur-2"/>
      <feFlood flood-opacity="0.09"/>
      <feComposite operator="in" in2="blur-2"/>
      <feComposite in="SourceGraphic"/>
    </filter>
    <filter id="Trazado_102339" x="238" y="277" width="148" height="148" filterUnits="userSpaceOnUse">
      <feOffset dy="3" input="SourceAlpha"/>
      <feGaussianBlur stdDeviation="3" result="blur-3"/>
      <feFlood flood-opacity="0.09"/>
      <feComposite operator="in" in2="blur-3"/>
      <feComposite in="SourceGraphic"/>
    </filter>
    <filter id="Trazado_102340" x="55" y="277" width="148" height="148" filterUnits="userSpaceOnUse">
      <feOffset dy="3" input="SourceAlpha"/>
      <feGaussianBlur stdDeviation="3" result="blur-4"/>
      <feFlood flood-opacity="0.09"/>
      <feComposite operator="in" in2="blur-4"/>
      <feComposite in="SourceGraphic"/>
    </filter>
    <filter id="Trazado_102335" x="0" y="106" width="148" height="147" filterUnits="userSpaceOnUse">
      <feOffset dy="3" input="SourceAlpha"/>
      <feGaussianBlur stdDeviation="3" result="blur-5"/>
      <feFlood flood-opacity="0.09"/>
      <feComposite operator="in" in2="blur-5"/>
      <feComposite in="SourceGraphic"/>
    </filter>
  </defs>
  <g id="Grupo_58506" data-name="Grupo 58506" transform="translate(-591 -5303.688)">
    <g id="Grupo_58433" data-name="Grupo 58433" transform="translate(0 40.688)">
      <circle id="Elipse_211" data-name="Elipse 211" cx="157.5" cy="157.5" r="157.5" transform="translate(656 5315)" fill="#f6f6f6"/>
      <g id="Elipse_224" data-name="Elipse 224" transform="translate(672 5331)" fill="none" stroke="#fff" stroke-width="6">
        <circle cx="142" cy="142" r="142" stroke="none"/>
        <circle cx="142" cy="142" r="139" fill="none"/>
      </g>
      <text id="Calidad" transform="translate(773 5481)" fill="#12263f" font-size="24" font-family="Roboto-Black, Roboto" font-weight="800"><tspan x="0" y="0">Calidad</tspan></text>
    </g>
    <g transform="matrix(1, 0, 0, 1, 591, 5303.69)" filter="url(#Trazado_102333)">
      <g id="Trazado_102333-2" data-name="Trazado 102333" transform="translate(157 6)" fill="#eee">
        <path d="M 64.5 127 C 56.19911956787109 127 48.14789962768555 125.3622436523438 40.57001876831055 122.1322174072266 C 36.92707824707031 120.5794372558594 33.41312026977539 118.6573028564453 30.12575912475586 116.4191818237305 C 26.86844062805176 114.2015228271484 23.80517959594727 111.6544799804688 21.02109909057617 108.8488235473633 C 18.23664093017578 106.0427627563477 15.70868015289307 102.9551010131836 13.50743961334229 99.67160034179688 C 11.28534030914307 96.35694122314453 9.376839637756348 92.81356048583984 7.834959983825684 89.13992309570312 C 4.626719951629639 81.49595642089844 3 73.37412261962891 3 65 C 3 56.62588119506836 4.626719951629639 48.5040397644043 7.834959983825684 40.86008071899414 C 9.376839637756348 37.18643951416016 11.28534030914307 33.64305877685547 13.50743961334229 30.32839965820312 C 15.70868015289307 27.04490089416504 18.23664093017578 23.95723915100098 21.02109909057617 21.15118026733398 C 23.80517959594727 18.34552001953125 26.86844062805176 15.79848003387451 30.12575912475586 13.58082008361816 C 33.41312026977539 11.34270000457764 36.92707824707031 9.420559883117676 40.57001876831055 7.867780208587646 C 48.14789962768555 4.637760162353516 56.19911956787109 3 64.5 3 C 72.80088043212891 3 80.85209655761719 4.637760162353516 88.42997741699219 7.867780208587646 C 92.07292175292969 9.420559883117676 95.58688354492188 11.34270000457764 98.87423706054688 13.58082008361816 C 102.1315612792969 15.79848003387451 105.1948165893555 18.34552001953125 107.9788970947266 21.15118026733398 C 110.7633590698242 23.95723915100098 113.2913208007812 27.04490089416504 115.492561340332 30.32839965820312 C 117.7146606445312 33.64305877685547 119.623161315918 37.18643951416016 121.1650390625 40.86008071899414 C 124.3732833862305 48.5040397644043 126 56.62588119506836 126 65 C 126 73.37412261962891 124.3732833862305 81.49595642089844 121.1650390625 89.13992309570312 C 119.623161315918 92.81356048583984 117.7146606445312 96.35694122314453 115.492561340332 99.67160034179688 C 113.2913208007812 102.9551010131836 110.7633590698242 106.0427627563477 107.9788970947266 108.8488235473633 C 105.1948165893555 111.6544799804688 102.1315612792969 114.2015228271484 98.87423706054688 116.4191818237305 C 95.58688354492188 118.6573028564453 92.07292175292969 120.5794372558594 88.42997741699219 122.1322174072266 C 80.85209655761719 125.3622436523438 72.80088043212891 127 64.5 127 Z" stroke="none"/>
        <path d="M 64.5 6 C 32.24299621582031 6 6 32.46729278564453 6 65 C 6 97.53269958496094 32.24299621582031 124 64.5 124 C 96.75700378417969 124 123 97.53269958496094 123 65 C 123 32.46729278564453 96.75700378417969 6 64.5 6 M 64.5 0 C 100.1223602294922 0 129 29.10150146484375 129 65 C 129 100.8984985351562 100.1223602294922 130 64.5 130 C 28.87763977050781 130 0 100.8984985351562 0 65 C 0 29.10150146484375 28.87763977050781 0 64.5 0 Z" stroke="none" fill="#fff"/>
      </g>
    </g>
    <g transform="matrix(1, 0, 0, 1, 591, 5303.69)" filter="url(#Trazado_102334)">
      <g id="Trazado_102334-2" data-name="Trazado 102334" transform="translate(304 112)" fill="#eee">
        <path d="M 65.5 126 C 57.05553817749023 126 48.86568069458008 124.3722229003906 41.15792083740234 121.1618804931641 C 37.45407867431641 119.6192016601562 33.88169860839844 117.7097778320312 30.54001998901367 115.4866561889648 C 27.23015975952148 113.2846984863281 24.11782073974609 110.7559967041016 21.28945922851562 107.9708023071289 C 18.46186065673828 105.1864013671875 15.89500045776367 102.1229019165039 13.66016006469727 98.86540222167969 C 11.40501976013184 95.57830047607422 9.468299865722656 92.06475830078125 7.903800010681152 88.42234039306641 C 4.649879932403564 80.84665679931641 3 72.79801940917969 3 64.5 C 3 56.20198059082031 4.649879932403564 48.15333938598633 7.903800010681152 40.57765960693359 C 9.468299865722656 36.93524169921875 11.40501976013184 33.42169952392578 13.66016006469727 30.13459968566895 C 15.89500045776367 26.87709999084473 18.46186065673828 23.81360054016113 21.28945922851562 21.02919960021973 C 24.11782073974609 18.24399948120117 27.23015975952148 15.71529960632324 30.54001998901367 13.51333999633789 C 33.88169860839844 11.29022026062012 37.45407867431641 9.380800247192383 41.15792083740234 7.838119983673096 C 48.86568069458008 4.627779960632324 57.05553817749023 3 65.5 3 C 73.9444580078125 3 82.13432312011719 4.627779960632324 89.84210205078125 7.838119983673096 C 93.54592132568359 9.380800247192383 97.11830139160156 11.29022026062012 100.4599761962891 13.51333999633789 C 103.7698364257812 15.71529960632324 106.8821792602539 18.24399948120117 109.710563659668 21.0291805267334 C 112.5381393432617 23.81360054016113 115.1050033569336 26.87709999084473 117.33984375 30.13459968566895 C 119.5949783325195 33.42169952392578 121.5317001342773 36.93524169921875 123.0961990356445 40.57765960693359 C 126.3501205444336 48.15333938598633 128 56.20198059082031 128 64.5 C 128 72.79801940917969 126.3501205444336 80.84665679931641 123.0961990356445 88.42234039306641 C 121.5317001342773 92.06475830078125 119.5949783325195 95.57830047607422 117.33984375 98.86540222167969 C 115.1050033569336 102.1229019165039 112.5381393432617 105.1864013671875 109.710563659668 107.970817565918 C 106.8821792602539 110.7559967041016 103.7698364257812 113.2846984863281 100.4599761962891 115.4866561889648 C 97.11830139160156 117.7097778320312 93.54592132568359 119.6192016601562 89.84210205078125 121.1618804931641 C 82.13432312011719 124.3722229003906 73.9444580078125 126 65.5 126 Z" stroke="none"/>
        <path d="M 65.5 6 C 32.69158935546875 6 6 32.24299621582031 6 64.5 C 6 96.75700378417969 32.69158935546875 123 65.5 123 C 98.30841064453125 123 125 96.75700378417969 125 64.5 C 125 32.24299621582031 98.30841064453125 6 65.5 6 M 65.5 0 C 101.6746597290039 0 131 28.87763977050781 131 64.5 C 131 100.1223602294922 101.6746597290039 129 65.5 129 C 29.32534027099609 129 0 100.1223602294922 0 64.5 C 0 28.87763977050781 29.32534027099609 0 65.5 0 Z" stroke="none" fill="#fff"/>
      </g>
    </g>
    <g transform="matrix(1, 0, 0, 1, 591, 5303.69)" filter="url(#Trazado_102339)">
      <g id="Trazado_102339-2" data-name="Trazado 102339" transform="translate(247 283)" fill="#eee">
        <path d="M 65 127 C 56.62873840332031 127 48.50946044921875 125.3611373901367 40.86772155761719 122.1289596557617 C 37.19461822509766 120.5753631591797 33.65167999267578 118.6522979736328 30.33729934692383 116.4131393432617 C 27.05365943908691 114.1947631835938 23.96575927734375 111.6470031738281 21.15937995910645 108.8406219482422 C 18.35300064086914 106.0342407226562 15.8052396774292 102.9463424682617 13.58685970306396 99.66269683837891 C 11.34770011901855 96.34832000732422 9.424639701843262 92.80538177490234 7.871039867401123 89.13227844238281 C 4.63886022567749 81.49053955078125 3 73.37126159667969 3 65 C 3 56.62873840332031 4.63886022567749 48.50946044921875 7.871039867401123 40.86772155761719 C 9.424639701843262 37.19461822509766 11.34770011901855 33.65167999267578 13.58685970306396 30.33729934692383 C 15.8052396774292 27.05365943908691 18.35300064086914 23.96575927734375 21.15937995910645 21.15937995910645 C 23.96575927734375 18.35300064086914 27.05365943908691 15.8052396774292 30.33729934692383 13.58685970306396 C 33.65167999267578 11.34770011901855 37.19461822509766 9.424639701843262 40.86772155761719 7.871039867401123 C 48.50946044921875 4.63886022567749 56.62873840332031 3 65 3 C 73.37126159667969 3 81.49053955078125 4.63886022567749 89.13227844238281 7.871039867401123 C 92.80538177490234 9.424639701843262 96.34832000732422 11.34770011901855 99.66269683837891 13.58685970306396 C 102.9463424682617 15.8052396774292 106.0342407226562 18.35300064086914 108.8406219482422 21.15937995910645 C 111.6470031738281 23.96575927734375 114.1947631835938 27.05365943908691 116.4131393432617 30.33729934692383 C 118.6522979736328 33.65167999267578 120.5753631591797 37.19461822509766 122.1289596557617 40.86772155761719 C 125.3611373901367 48.50946044921875 127 56.62873840332031 127 65 C 127 73.37126159667969 125.3611373901367 81.49053955078125 122.1289596557617 89.13227844238281 C 120.5753631591797 92.80538177490234 118.6522979736328 96.34832000732422 116.4131393432617 99.66269683837891 C 114.1947631835938 102.9463424682617 111.6470031738281 106.0342407226562 108.8406219482422 108.8406219482422 C 106.0342407226562 111.6470031738281 102.9463424682617 114.1947631835938 99.66269683837891 116.4131393432617 C 96.34832000732422 118.6522979736328 92.80538177490234 120.5753631591797 89.13227844238281 122.1289596557617 C 81.49053955078125 125.3611373901367 73.37126159667969 127 65 127 Z" stroke="none"/>
        <path d="M 65 6 C 32.46729278564453 6 6 32.46729278564453 6 65 C 6 97.53269958496094 32.46729278564453 124 65 124 C 97.53269958496094 124 124 97.53269958496094 124 65 C 124 32.46729278564453 97.53269958496094 6 65 6 M 65 0 C 100.8984985351562 0 130 29.10150146484375 130 65 C 130 100.8984985351562 100.8984985351562 130 65 130 C 29.10150146484375 130 0 100.8984985351562 0 65 C 0 29.10150146484375 29.10150146484375 0 65 0 Z" stroke="none" fill="#fff"/>
      </g>
    </g>
    <g transform="matrix(1, 0, 0, 1, 591, 5303.69)" filter="url(#Trazado_102340)">
      <g id="Trazado_102340-2" data-name="Trazado 102340" transform="translate(64 283)" fill="#eee">
        <path d="M 65 127 C 56.62873840332031 127 48.50946044921875 125.3611373901367 40.86772155761719 122.1289596557617 C 37.19461822509766 120.5753631591797 33.65167999267578 118.6522979736328 30.33729934692383 116.4131393432617 C 27.05365943908691 114.1947631835938 23.96575927734375 111.6470031738281 21.15937995910645 108.8406219482422 C 18.35300064086914 106.0342407226562 15.8052396774292 102.9463424682617 13.58685970306396 99.66269683837891 C 11.34770011901855 96.34832000732422 9.424639701843262 92.80538177490234 7.871039867401123 89.13227844238281 C 4.63886022567749 81.49053955078125 3 73.37126159667969 3 65 C 3 56.62873840332031 4.63886022567749 48.50946044921875 7.871039867401123 40.86772155761719 C 9.424639701843262 37.19461822509766 11.34770011901855 33.65167999267578 13.58685970306396 30.33729934692383 C 15.8052396774292 27.05365943908691 18.35300064086914 23.96575927734375 21.15937995910645 21.15937995910645 C 23.96575927734375 18.35300064086914 27.05365943908691 15.8052396774292 30.33729934692383 13.58685970306396 C 33.65167999267578 11.34770011901855 37.19461822509766 9.424639701843262 40.86772155761719 7.871039867401123 C 48.50946044921875 4.63886022567749 56.62873840332031 3 65 3 C 73.37126159667969 3 81.49053955078125 4.63886022567749 89.13227844238281 7.871039867401123 C 92.80538177490234 9.424639701843262 96.34832000732422 11.34770011901855 99.66269683837891 13.58685970306396 C 102.9463424682617 15.8052396774292 106.0342407226562 18.35300064086914 108.8406219482422 21.15937995910645 C 111.6470031738281 23.96575927734375 114.1947631835938 27.05365943908691 116.4131393432617 30.33729934692383 C 118.6522979736328 33.65167999267578 120.5753631591797 37.19461822509766 122.1289596557617 40.86772155761719 C 125.3611373901367 48.50946044921875 127 56.62873840332031 127 65 C 127 73.37126159667969 125.3611373901367 81.49053955078125 122.1289596557617 89.13227844238281 C 120.5753631591797 92.80538177490234 118.6522979736328 96.34832000732422 116.4131393432617 99.66269683837891 C 114.1947631835938 102.9463424682617 111.6470031738281 106.0342407226562 108.8406219482422 108.8406219482422 C 106.0342407226562 111.6470031738281 102.9463424682617 114.1947631835938 99.66269683837891 116.4131393432617 C 96.34832000732422 118.6522979736328 92.80538177490234 120.5753631591797 89.13227844238281 122.1289596557617 C 81.49053955078125 125.3611373901367 73.37126159667969 127 65 127 Z" stroke="none"/>
        <path d="M 65 6 C 32.46729278564453 6 6 32.46729278564453 6 65 C 6 97.53269958496094 32.46729278564453 124 65 124 C 97.53269958496094 124 124 97.53269958496094 124 65 C 124 32.46729278564453 97.53269958496094 6 65 6 M 65 0 C 100.8984985351562 0 130 29.10150146484375 130 65 C 130 100.8984985351562 100.8984985351562 130 65 130 C 29.10150146484375 130 0 100.8984985351562 0 65 C 0 29.10150146484375 29.10150146484375 0 65 0 Z" stroke="none" fill="#fff"/>
      </g>
    </g>
    <g transform="matrix(1, 0, 0, 1, 591, 5303.69)" filter="url(#Trazado_102335)">
      <g id="Trazado_102335-2" data-name="Trazado 102335" transform="translate(9 112)" fill="#eee">
        <path d="M 65 126 C 56.62588119506836 126 48.5040397644043 124.3732833862305 40.86008071899414 121.1650390625 C 37.18643951416016 119.623161315918 33.64305877685547 117.7146606445312 30.32839965820312 115.492561340332 C 27.04490089416504 113.2913208007812 23.95723915100098 110.7633590698242 21.15118026733398 107.9788970947266 C 18.34552001953125 105.1948165893555 15.79848003387451 102.1315612792969 13.58082008361816 98.87423706054688 C 11.34270000457764 95.58688354492188 9.420559883117676 92.07292175292969 7.867780208587646 88.42997741699219 C 4.637760162353516 80.85209655761719 3 72.80088043212891 3 64.5 C 3 56.19911956787109 4.637760162353516 48.14789962768555 7.867780208587646 40.57001876831055 C 9.420559883117676 36.92707824707031 11.34270000457764 33.41312026977539 13.58082008361816 30.12575912475586 C 15.79848003387451 26.86844062805176 18.34552001953125 23.80517959594727 21.15118026733398 21.02109909057617 C 23.95723915100098 18.23664093017578 27.04490089416504 15.70868015289307 30.32839965820312 13.50743961334229 C 33.64305877685547 11.28534030914307 37.18643951416016 9.376839637756348 40.86008071899414 7.834959983825684 C 48.5040397644043 4.626719951629639 56.62588119506836 3 65 3 C 73.37412261962891 3 81.49595642089844 4.626719951629639 89.13992309570312 7.834959983825684 C 92.81356048583984 9.376839637756348 96.35694122314453 11.28534030914307 99.67160034179688 13.50743961334229 C 102.9551010131836 15.70868015289307 106.0427627563477 18.23664093017578 108.8488235473633 21.02109909057617 C 111.6544799804688 23.80517959594727 114.2015228271484 26.86844062805176 116.4191818237305 30.12575912475586 C 118.6573028564453 33.41312026977539 120.5794372558594 36.92707824707031 122.1322174072266 40.57001876831055 C 125.3622436523438 48.14789962768555 127 56.19911956787109 127 64.5 C 127 72.80088043212891 125.3622436523438 80.85209655761719 122.1322174072266 88.42997741699219 C 120.5794372558594 92.07292175292969 118.6573028564453 95.58688354492188 116.4191818237305 98.87423706054688 C 114.2015228271484 102.1315612792969 111.6544799804688 105.1948165893555 108.8488235473633 107.9788970947266 C 106.0427627563477 110.7633590698242 102.9551010131836 113.2913208007812 99.67160034179688 115.492561340332 C 96.35694122314453 117.7146606445312 92.81356048583984 119.623161315918 89.13992309570312 121.1650390625 C 81.49595642089844 124.3732833862305 73.37412261962891 126 65 126 Z" stroke="none"/>
        <path d="M 65 6 C 32.46729278564453 6 6 32.24299621582031 6 64.5 C 6 96.75700378417969 32.46729278564453 123 65 123 C 97.53269958496094 123 124 96.75700378417969 124 64.5 C 124 32.24299621582031 97.53269958496094 6 65 6 M 65 0 C 100.8984985351562 0 130 28.87763977050781 130 64.5 C 130 100.1223602294922 100.8984985351562 129 65 129 C 29.10150146484375 129 0 100.1223602294922 0 64.5 C 0 28.87763977050781 29.10150146484375 0 65 0 Z" stroke="none" fill="#fff"/>
      </g>
    </g>
    <path id="Trazado_102336" data-name="Trazado 102336" d="M9.688-3.609A4.185,4.185,0,0,1,8.355-.824a4.365,4.365,0,0,1-2.98.98,4.008,4.008,0,0,1-3.23-1.445A5.815,5.815,0,0,1,.93-5.156V-6.25A6.481,6.481,0,0,1,1.5-9.039,4.231,4.231,0,0,1,3.1-10.887a4.47,4.47,0,0,1,2.406-.645A4.11,4.11,0,0,1,8.414-10.52a4.235,4.235,0,0,1,1.273,2.8H8.18a3.268,3.268,0,0,0-.848-1.975A2.565,2.565,0,0,0,5.508-10.3,2.684,2.684,0,0,0,3.254-9.241a4.882,4.882,0,0,0-.816,3.026v1.1a5.018,5.018,0,0,0,.773,2.948A2.5,2.5,0,0,0,5.375-1.07a2.887,2.887,0,0,0,1.918-.566A3.143,3.143,0,0,0,8.18-3.609Zm1.438-.7a4.993,4.993,0,0,1,.488-2.234A3.643,3.643,0,0,1,12.973-8.07a3.7,3.7,0,0,1,1.988-.539,3.565,3.565,0,0,1,2.793,1.2,4.6,4.6,0,0,1,1.066,3.18v.1a5.036,5.036,0,0,1-.473,2.215A3.589,3.589,0,0,1,17-.391a3.743,3.743,0,0,1-2.02.547,3.556,3.556,0,0,1-2.785-1.2A4.575,4.575,0,0,1,11.125-4.2Zm1.453.172a3.616,3.616,0,0,0,.652,2.258,2.088,2.088,0,0,0,1.746.852,2.075,2.075,0,0,0,1.75-.863A3.955,3.955,0,0,0,17.375-4.3a3.61,3.61,0,0,0-.66-2.254,2.1,2.1,0,0,0-1.754-.863,2.075,2.075,0,0,0-1.727.852A3.925,3.925,0,0,0,12.578-4.133ZM25.555-2.242a1.064,1.064,0,0,0-.441-.91,4.249,4.249,0,0,0-1.539-.559,7.277,7.277,0,0,1-1.742-.562,2.479,2.479,0,0,1-.953-.781,1.869,1.869,0,0,1-.309-1.078,2.193,2.193,0,0,1,.879-1.758A3.432,3.432,0,0,1,23.7-8.609a3.532,3.532,0,0,1,2.332.742,2.357,2.357,0,0,1,.895,1.9H25.469a1.3,1.3,0,0,0-.5-1.023,1.888,1.888,0,0,0-1.27-.43,1.976,1.976,0,0,0-1.234.344,1.082,1.082,0,0,0-.445.9.877.877,0,0,0,.414.789,5.1,5.1,0,0,0,1.5.508A7.8,7.8,0,0,1,25.68-4.3a2.558,2.558,0,0,1,1,.809A1.988,1.988,0,0,1,27-2.344a2.163,2.163,0,0,1-.906,1.816,3.8,3.8,0,0,1-2.352.684,4.257,4.257,0,0,1-1.8-.359,2.922,2.922,0,0,1-1.223-1A2.42,2.42,0,0,1,20.281-2.6h1.445a1.5,1.5,0,0,0,.582,1.152,2.258,2.258,0,0,0,1.434.426,2.331,2.331,0,0,0,1.316-.332A1.02,1.02,0,0,0,25.555-2.242ZM30.844-10.5v2.047h1.578v1.117H30.844v5.249a1.173,1.173,0,0,0,.211.763.888.888,0,0,0,.719.254,3.5,3.5,0,0,0,.688-.094V0a4.215,4.215,0,0,1-1.109.155A1.8,1.8,0,0,1,29.891-.43,2.517,2.517,0,0,1,29.4-2.094V-7.336H27.859V-8.453H29.4V-10.5ZM33.57-4.3a4.993,4.993,0,0,1,.488-2.234A3.643,3.643,0,0,1,35.418-8.07a3.7,3.7,0,0,1,1.988-.539,3.565,3.565,0,0,1,2.793,1.2,4.6,4.6,0,0,1,1.066,3.18v.1a5.036,5.036,0,0,1-.473,2.215A3.589,3.589,0,0,1,39.441-.391a3.743,3.743,0,0,1-2.02.547,3.556,3.556,0,0,1-2.785-1.2A4.575,4.575,0,0,1,33.57-4.2Zm1.453.172a3.616,3.616,0,0,0,.652,2.258,2.088,2.088,0,0,0,1.746.852,2.075,2.075,0,0,0,1.75-.863A3.955,3.955,0,0,0,39.82-4.3a3.61,3.61,0,0,0-.66-2.254,2.1,2.1,0,0,0-1.754-.863,2.075,2.075,0,0,0-1.727.852A3.925,3.925,0,0,0,35.023-4.133ZM48-2.242a1.064,1.064,0,0,0-.441-.91,4.249,4.249,0,0,0-1.539-.559,7.277,7.277,0,0,1-1.742-.562,2.479,2.479,0,0,1-.953-.781,1.869,1.869,0,0,1-.309-1.078,2.193,2.193,0,0,1,.879-1.758,3.432,3.432,0,0,1,2.246-.719,3.532,3.532,0,0,1,2.332.742,2.357,2.357,0,0,1,.895,1.9H47.914a1.3,1.3,0,0,0-.5-1.023,1.888,1.888,0,0,0-1.27-.43,1.976,1.976,0,0,0-1.234.344,1.082,1.082,0,0,0-.445.9.877.877,0,0,0,.414.789,5.1,5.1,0,0,0,1.5.508,7.8,7.8,0,0,1,1.754.578,2.558,2.558,0,0,1,1,.809,1.988,1.988,0,0,1,.324,1.152,2.163,2.163,0,0,1-.906,1.816,3.8,3.8,0,0,1-2.352.684,4.257,4.257,0,0,1-1.8-.359,2.922,2.922,0,0,1-1.223-1A2.42,2.42,0,0,1,42.727-2.6h1.445a1.5,1.5,0,0,0,.582,1.152,2.258,2.258,0,0,0,1.434.426A2.331,2.331,0,0,0,47.5-1.355,1.02,1.02,0,0,0,48-2.242Z" transform="translate(790 5404.688)" fill="#12263f"/>
    <path id="Trazado_102337" data-name="Trazado 102337" d="M2.82-4.453V0H1.32V-11.375h4.2a4.215,4.215,0,0,1,2.926.953A3.231,3.231,0,0,1,9.5-7.9,3.189,3.189,0,0,1,8.465-5.348,4.4,4.4,0,0,1,5.5-4.453Zm0-1.227h2.7a2.7,2.7,0,0,0,1.844-.567A2.075,2.075,0,0,0,8-7.887a2.143,2.143,0,0,0-.641-1.628A2.525,2.525,0,0,0,5.6-10.148H2.82ZM15.273-7.156a4.331,4.331,0,0,0-.711-.055A1.9,1.9,0,0,0,12.633-6V0H11.188V-8.453h1.406l.023.977a2.251,2.251,0,0,1,2.016-1.133,1.477,1.477,0,0,1,.641.109ZM19.961.156a3.693,3.693,0,0,1-2.8-1.129,4.19,4.19,0,0,1-1.078-3.02v-.266a5.073,5.073,0,0,1,.48-2.246A3.748,3.748,0,0,1,17.91-8.051a3.378,3.378,0,0,1,1.871-.559,3.166,3.166,0,0,1,2.563,1.086,4.7,4.7,0,0,1,.914,3.109v.6H17.531a3,3,0,0,0,.73,2.02,2.3,2.3,0,0,0,1.777.77,2.517,2.517,0,0,0,1.3-.312,3.259,3.259,0,0,0,.93-.828l.883.688A3.55,3.55,0,0,1,19.961.156Zm-.18-7.578a1.928,1.928,0,0,0-1.469.637A3.1,3.1,0,0,0,17.578-5h4.234v-.109a2.753,2.753,0,0,0-.594-1.707A1.815,1.815,0,0,0,19.781-7.422Zm8.539,6.4a2.082,2.082,0,0,0,1.352-.469,1.649,1.649,0,0,0,.641-1.172H31.68a2.621,2.621,0,0,1-.5,1.383,3.293,3.293,0,0,1-1.23,1.047A3.55,3.55,0,0,1,28.32.156,3.482,3.482,0,0,1,25.574-1a4.59,4.59,0,0,1-1.02-3.152v-.242a5.089,5.089,0,0,1,.453-2.2,3.451,3.451,0,0,1,1.3-1.492,3.7,3.7,0,0,1,2-.531,3.39,3.39,0,0,1,2.363.852,3.043,3.043,0,0,1,1,2.211H30.313a1.992,1.992,0,0,0-.621-1.348,1.932,1.932,0,0,0-1.379-.527,2.023,2.023,0,0,0-1.707.793A3.724,3.724,0,0,0,26-4.336v.273a3.65,3.65,0,0,0,.6,2.25A2.033,2.033,0,0,0,28.32-1.023ZM34.875,0H33.43V-8.453h1.445ZM33.313-10.7a.863.863,0,0,1,.215-.594.807.807,0,0,1,.637-.242.819.819,0,0,1,.641.242.854.854,0,0,1,.219.594.826.826,0,0,1-.219.586.834.834,0,0,1-.641.234.821.821,0,0,1-.637-.234A.834.834,0,0,1,33.313-10.7ZM36.8-4.3a4.993,4.993,0,0,1,.488-2.234A3.643,3.643,0,0,1,38.652-8.07a3.7,3.7,0,0,1,1.988-.539,3.565,3.565,0,0,1,2.793,1.2A4.6,4.6,0,0,1,44.5-4.234v.1a5.036,5.036,0,0,1-.473,2.215A3.589,3.589,0,0,1,42.676-.391a3.743,3.743,0,0,1-2.02.547,3.556,3.556,0,0,1-2.785-1.2A4.575,4.575,0,0,1,36.8-4.2Zm1.453.172a3.616,3.616,0,0,0,.652,2.258,2.088,2.088,0,0,0,1.746.852,2.075,2.075,0,0,0,1.75-.863A3.955,3.955,0,0,0,43.055-4.3a3.61,3.61,0,0,0-.66-2.254,2.1,2.1,0,0,0-1.754-.863,2.075,2.075,0,0,0-1.727.852A3.925,3.925,0,0,0,38.258-4.133ZM51.234-2.242a1.064,1.064,0,0,0-.441-.91,4.249,4.249,0,0,0-1.539-.559,7.277,7.277,0,0,1-1.742-.562,2.479,2.479,0,0,1-.953-.781,1.869,1.869,0,0,1-.309-1.078,2.193,2.193,0,0,1,.879-1.758,3.432,3.432,0,0,1,2.246-.719,3.532,3.532,0,0,1,2.332.742,2.357,2.357,0,0,1,.895,1.9H51.148a1.3,1.3,0,0,0-.5-1.023,1.888,1.888,0,0,0-1.27-.43,1.976,1.976,0,0,0-1.234.344,1.082,1.082,0,0,0-.445.9.877.877,0,0,0,.414.789,5.1,5.1,0,0,0,1.5.508,7.8,7.8,0,0,1,1.754.578,2.558,2.558,0,0,1,1,.809,1.988,1.988,0,0,1,.324,1.152,2.163,2.163,0,0,1-.906,1.816,3.8,3.8,0,0,1-2.352.684,4.257,4.257,0,0,1-1.8-.359,2.922,2.922,0,0,1-1.223-1A2.42,2.42,0,0,1,45.961-2.6h1.445a1.5,1.5,0,0,0,.582,1.152,2.258,2.258,0,0,0,1.434.426,2.331,2.331,0,0,0,1.316-.332A1.02,1.02,0,0,0,51.234-2.242Z" transform="translate(934 5509.688)" fill="#12263f"/>
    <path id="Trazado_102342" data-name="Trazado 102342" d="M9.688-3.609A4.185,4.185,0,0,1,8.355-.824a4.365,4.365,0,0,1-2.98.98,4.008,4.008,0,0,1-3.23-1.445A5.815,5.815,0,0,1,.93-5.156V-6.25A6.481,6.481,0,0,1,1.5-9.039,4.231,4.231,0,0,1,3.1-10.887a4.47,4.47,0,0,1,2.406-.645A4.11,4.11,0,0,1,8.414-10.52a4.235,4.235,0,0,1,1.273,2.8H8.18a3.268,3.268,0,0,0-.848-1.975A2.565,2.565,0,0,0,5.508-10.3,2.684,2.684,0,0,0,3.254-9.241a4.882,4.882,0,0,0-.816,3.026v1.1a5.018,5.018,0,0,0,.773,2.948A2.5,2.5,0,0,0,5.375-1.07a2.887,2.887,0,0,0,1.918-.566A3.143,3.143,0,0,0,8.18-3.609ZM13.078,0H11.633V-12h1.445Zm3.883,0H15.516V-8.453h1.445ZM15.4-10.7a.863.863,0,0,1,.215-.594.807.807,0,0,1,.637-.242.819.819,0,0,1,.641.242.854.854,0,0,1,.219.594.826.826,0,0,1-.219.586.834.834,0,0,1-.641.234.821.821,0,0,1-.637-.234A.834.834,0,0,1,15.4-10.7ZM22.781.156a3.693,3.693,0,0,1-2.8-1.129,4.19,4.19,0,0,1-1.078-3.02v-.266a5.073,5.073,0,0,1,.48-2.246A3.748,3.748,0,0,1,20.73-8.051,3.378,3.378,0,0,1,22.6-8.609a3.166,3.166,0,0,1,2.563,1.086,4.7,4.7,0,0,1,.914,3.109v.6H20.352a3,3,0,0,0,.73,2.02,2.3,2.3,0,0,0,1.777.77,2.517,2.517,0,0,0,1.3-.312,3.259,3.259,0,0,0,.93-.828l.883.688A3.55,3.55,0,0,1,22.781.156ZM22.6-7.422a1.928,1.928,0,0,0-1.469.637A3.1,3.1,0,0,0,20.4-5h4.234v-.109a2.753,2.753,0,0,0-.594-1.707A1.815,1.815,0,0,0,22.6-7.422Zm6.516-1.031.047,1.063A3.08,3.08,0,0,1,31.7-8.609q2.68,0,2.7,3.023V0H32.953V-5.594a1.946,1.946,0,0,0-.418-1.352,1.675,1.675,0,0,0-1.277-.437,2.086,2.086,0,0,0-1.234.375,2.546,2.546,0,0,0-.828.984V0H27.75V-8.453ZM38.539-10.5v2.047h1.578v1.117H38.539v5.249a1.173,1.173,0,0,0,.211.763.888.888,0,0,0,.719.254,3.5,3.5,0,0,0,.688-.094V0a4.215,4.215,0,0,1-1.109.155A1.8,1.8,0,0,1,37.586-.43a2.517,2.517,0,0,1-.492-1.664V-7.336H35.555V-8.453h1.539V-10.5ZM45.313.156a3.693,3.693,0,0,1-2.8-1.129,4.19,4.19,0,0,1-1.078-3.02v-.266a5.073,5.073,0,0,1,.48-2.246,3.748,3.748,0,0,1,1.344-1.547,3.378,3.378,0,0,1,1.871-.559A3.166,3.166,0,0,1,47.7-7.523a4.7,4.7,0,0,1,.914,3.109v.6H42.883a3,3,0,0,0,.73,2.02,2.3,2.3,0,0,0,1.777.77,2.517,2.517,0,0,0,1.3-.312,3.259,3.259,0,0,0,.93-.828l.883.688A3.55,3.55,0,0,1,45.313.156Zm-.18-7.578a1.928,1.928,0,0,0-1.469.637A3.1,3.1,0,0,0,42.93-5h4.234v-.109a2.753,2.753,0,0,0-.594-1.707A1.815,1.815,0,0,0,45.133-7.422Z" transform="translate(879 5678.688)" fill="#12263f"/>
    <path id="Trazado_102341" data-name="Trazado 102341" d="M9.18-10.148H5.523V0H4.031V-10.148H.383v-1.227h8.8Zm4.961,2.992a4.331,4.331,0,0,0-.711-.055A1.9,1.9,0,0,0,11.5-6V0H10.055V-8.453h1.406l.023.977A2.251,2.251,0,0,1,13.5-8.609a1.477,1.477,0,0,1,.641.109ZM20.375,0a3.036,3.036,0,0,1-.2-.891A3.225,3.225,0,0,1,17.766.156a2.984,2.984,0,0,1-2.051-.707,2.287,2.287,0,0,1-.8-1.793,2.39,2.39,0,0,1,1-2.051,4.733,4.733,0,0,1,2.824-.73h1.406v-.664A1.623,1.623,0,0,0,19.7-7a1.821,1.821,0,0,0-1.336-.449,2.108,2.108,0,0,0-1.3.391,1.151,1.151,0,0,0-.523.945H15.086a2,2,0,0,1,.449-1.223,3.066,3.066,0,0,1,1.219-.934,4.1,4.1,0,0,1,1.691-.344,3.342,3.342,0,0,1,2.289.73,2.635,2.635,0,0,1,.859,2.012v3.891a4.757,4.757,0,0,0,.3,1.852V0Zm-2.4-1.1a2.54,2.54,0,0,0,1.289-.352,2.127,2.127,0,0,0,.883-.914V-4.1H19.016q-2.656,0-2.656,1.555a1.316,1.316,0,0,0,.453,1.063A1.742,1.742,0,0,0,17.977-1.1Zm7.242-.078h4.945V0H23.453V-1.062l4.664-6.2H23.523v-1.2H29.93V-7.43ZM37.008,0a3.036,3.036,0,0,1-.2-.891A3.225,3.225,0,0,1,34.4.156a2.984,2.984,0,0,1-2.051-.707,2.287,2.287,0,0,1-.8-1.793,2.39,2.39,0,0,1,1-2.051,4.733,4.733,0,0,1,2.824-.73h1.406v-.664A1.623,1.623,0,0,0,36.328-7a1.821,1.821,0,0,0-1.336-.449,2.107,2.107,0,0,0-1.3.391,1.151,1.151,0,0,0-.523.945H31.719a2,2,0,0,1,.449-1.223,3.066,3.066,0,0,1,1.219-.934,4.1,4.1,0,0,1,1.691-.344,3.342,3.342,0,0,1,2.289.73,2.635,2.635,0,0,1,.859,2.012v3.891a4.757,4.757,0,0,0,.3,1.852V0Zm-2.4-1.1A2.54,2.54,0,0,0,35.9-1.453a2.127,2.127,0,0,0,.883-.914V-4.1H35.648q-2.656,0-2.656,1.555a1.316,1.316,0,0,0,.453,1.063A1.742,1.742,0,0,0,34.609-1.1ZM47.648-4.133a5.026,5.026,0,0,1-.891,3.113A2.846,2.846,0,0,1,44.367.156,2.947,2.947,0,0,1,41.891-.977L41.82,0H40.492V-12h1.445v4.477a2.93,2.93,0,0,1,2.414-1.086A2.863,2.863,0,0,1,46.77-7.445a5.177,5.177,0,0,1,.879,3.188ZM46.2-4.3a3.906,3.906,0,0,0-.57-2.281,1.888,1.888,0,0,0-1.641-.8,2.122,2.122,0,0,0-2.055,1.328V-2.4a2.181,2.181,0,0,0,2.07,1.328,1.878,1.878,0,0,0,1.617-.8A4.153,4.153,0,0,0,46.2-4.3ZM51.039,0H49.594V-8.453h1.445ZM49.477-10.7a.863.863,0,0,1,.215-.594.807.807,0,0,1,.637-.242.819.819,0,0,1,.641.242.854.854,0,0,1,.219.594.826.826,0,0,1-.219.586.834.834,0,0,1-.641.234.821.821,0,0,1-.637-.234A.834.834,0,0,1,49.477-10.7ZM54.922,0H53.477V-12h1.445ZM58.8,0H57.359V-8.453H58.8ZM57.242-10.7a.863.863,0,0,1,.215-.594.807.807,0,0,1,.637-.242.819.819,0,0,1,.641.242.854.854,0,0,1,.219.594.826.826,0,0,1-.219.586.834.834,0,0,1-.641.234.821.821,0,0,1-.637-.234A.834.834,0,0,1,57.242-10.7Zm3.523,6.4a4.952,4.952,0,0,1,.922-3.129A2.915,2.915,0,0,1,64.1-8.609a2.932,2.932,0,0,1,2.352,1.016V-12H67.9V0H66.57L66.5-.906A2.943,2.943,0,0,1,64.086.156a2.887,2.887,0,0,1-2.395-1.2,5.008,5.008,0,0,1-.926-3.141Zm1.445.164a3.749,3.749,0,0,0,.594,2.25,1.92,1.92,0,0,0,1.641.813A2.109,2.109,0,0,0,66.453-2.3V-6.187a2.125,2.125,0,0,0-1.992-1.2,1.929,1.929,0,0,0-1.656.82A4.128,4.128,0,0,0,62.211-4.133ZM75.359,0a3.036,3.036,0,0,1-.2-.891A3.225,3.225,0,0,1,72.75.156,2.984,2.984,0,0,1,70.7-.551a2.288,2.288,0,0,1-.8-1.793,2.39,2.39,0,0,1,1-2.051,4.733,4.733,0,0,1,2.824-.73h1.406v-.664A1.623,1.623,0,0,0,74.68-7a1.821,1.821,0,0,0-1.336-.449,2.108,2.108,0,0,0-1.3.391,1.151,1.151,0,0,0-.523.945H70.07a2,2,0,0,1,.449-1.223,3.066,3.066,0,0,1,1.219-.934,4.1,4.1,0,0,1,1.691-.344,3.342,3.342,0,0,1,2.289.73,2.635,2.635,0,0,1,.859,2.012v3.891a4.757,4.757,0,0,0,.3,1.852V0Zm-2.4-1.1a2.54,2.54,0,0,0,1.289-.352,2.127,2.127,0,0,0,.883-.914V-4.1H74q-2.656,0-2.656,1.555A1.316,1.316,0,0,0,71.8-1.484,1.742,1.742,0,0,0,72.961-1.1Zm5.531-3.2a4.952,4.952,0,0,1,.922-3.129,2.915,2.915,0,0,1,2.414-1.184A2.932,2.932,0,0,1,84.18-7.594V-12h1.445V0H84.3l-.07-.906A2.943,2.943,0,0,1,81.813.156a2.887,2.887,0,0,1-2.395-1.2,5.008,5.008,0,0,1-.926-3.141Zm1.445.164a3.749,3.749,0,0,0,.594,2.25,1.92,1.92,0,0,0,1.641.813A2.109,2.109,0,0,0,84.18-2.3V-6.187a2.125,2.125,0,0,0-1.992-1.2,1.929,1.929,0,0,0-1.656.82A4.128,4.128,0,0,0,79.938-4.133Z" transform="translate(676 5676.688)" fill="#12263f"/>
    <path id="Trazado_102338" data-name="Trazado 102338" d="M2.82-4.453V0H1.32V-11.375h4.2a4.215,4.215,0,0,1,2.926.953A3.231,3.231,0,0,1,9.5-7.9,3.189,3.189,0,0,1,8.465-5.348,4.4,4.4,0,0,1,5.5-4.453Zm0-1.227h2.7a2.7,2.7,0,0,0,1.844-.567A2.075,2.075,0,0,0,8-7.887a2.143,2.143,0,0,0-.641-1.628A2.525,2.525,0,0,0,5.6-10.148H2.82ZM15.273-7.156a4.331,4.331,0,0,0-.711-.055A1.9,1.9,0,0,0,12.633-6V0H11.188V-8.453h1.406l.023.977a2.251,2.251,0,0,1,2.016-1.133,1.477,1.477,0,0,1,.641.109ZM16.063-4.3a4.993,4.993,0,0,1,.488-2.234A3.643,3.643,0,0,1,17.91-8.07,3.7,3.7,0,0,1,19.9-8.609a3.565,3.565,0,0,1,2.793,1.2,4.6,4.6,0,0,1,1.066,3.18v.1a5.036,5.036,0,0,1-.473,2.215A3.589,3.589,0,0,1,21.934-.391a3.743,3.743,0,0,1-2.02.547,3.556,3.556,0,0,1-2.785-1.2A4.575,4.575,0,0,1,16.063-4.2Zm1.453.172a3.616,3.616,0,0,0,.652,2.258,2.088,2.088,0,0,0,1.746.852,2.075,2.075,0,0,0,1.75-.863A3.955,3.955,0,0,0,22.313-4.3a3.61,3.61,0,0,0-.66-2.254A2.1,2.1,0,0,0,19.9-7.422a2.075,2.075,0,0,0-1.727.852A3.925,3.925,0,0,0,17.516-4.133Zm7.7-.164a4.952,4.952,0,0,1,.922-3.129,2.915,2.915,0,0,1,2.414-1.184,2.932,2.932,0,0,1,2.352,1.016V-12h1.445V0H31.023l-.07-.906A2.943,2.943,0,0,1,28.539.156a2.887,2.887,0,0,1-2.395-1.2,5.008,5.008,0,0,1-.926-3.141Zm1.445.164a3.749,3.749,0,0,0,.594,2.25A1.92,1.92,0,0,0,28.9-1.07,2.108,2.108,0,0,0,30.906-2.3V-6.187a2.125,2.125,0,0,0-1.992-1.2,1.929,1.929,0,0,0-1.656.82A4.128,4.128,0,0,0,26.664-4.133Zm13.148,3.3a3.07,3.07,0,0,1-2.477.992,2.628,2.628,0,0,1-2.059-.785,3.4,3.4,0,0,1-.715-2.324v-5.5h1.445v5.461q0,1.922,1.563,1.922a2.163,2.163,0,0,0,2.2-1.234V-8.453h1.445V0H39.844ZM46.8-1.023a2.082,2.082,0,0,0,1.352-.469A1.649,1.649,0,0,0,48.8-2.664h1.367a2.621,2.621,0,0,1-.5,1.383,3.293,3.293,0,0,1-1.23,1.047A3.55,3.55,0,0,1,46.8.156,3.482,3.482,0,0,1,44.059-1a4.59,4.59,0,0,1-1.02-3.152v-.242a5.089,5.089,0,0,1,.453-2.2,3.451,3.451,0,0,1,1.3-1.492,3.7,3.7,0,0,1,2-.531,3.39,3.39,0,0,1,2.363.852,3.043,3.043,0,0,1,1,2.211H48.8a1.992,1.992,0,0,0-.621-1.348A1.932,1.932,0,0,0,46.8-7.422a2.023,2.023,0,0,0-1.707.793,3.724,3.724,0,0,0-.605,2.293v.273a3.65,3.65,0,0,0,.6,2.25A2.033,2.033,0,0,0,46.8-1.023ZM53.75-10.5v2.047h1.578v1.117H53.75v5.249a1.173,1.173,0,0,0,.211.763.888.888,0,0,0,.719.254,3.5,3.5,0,0,0,.688-.094V0a4.215,4.215,0,0,1-1.109.155A1.8,1.8,0,0,1,52.8-.43,2.517,2.517,0,0,1,52.3-2.094V-7.336H50.766V-8.453H52.3V-10.5ZM58.586,0H57.141V-8.453h1.445ZM57.023-10.7a.863.863,0,0,1,.215-.594.807.807,0,0,1,.637-.242.819.819,0,0,1,.641.242.854.854,0,0,1,.219.594.826.826,0,0,1-.219.586.834.834,0,0,1-.641.234.821.821,0,0,1-.637-.234A.834.834,0,0,1,57.023-10.7Zm6.664,8.734,2.094-6.492h1.477L64.227,0h-1.1L60.063-8.453h1.477ZM70.219,0H68.773V-8.453h1.445ZM68.656-10.7a.863.863,0,0,1,.215-.594.807.807,0,0,1,.637-.242.819.819,0,0,1,.641.242.854.854,0,0,1,.219.594.826.826,0,0,1-.219.586.834.834,0,0,1-.641.234.821.821,0,0,1-.637-.234A.834.834,0,0,1,68.656-10.7ZM72.18-4.3A4.952,4.952,0,0,1,73.1-7.426a2.915,2.915,0,0,1,2.414-1.184,2.932,2.932,0,0,1,2.352,1.016V-12h1.445V0H77.984l-.07-.906A2.943,2.943,0,0,1,75.5.156a2.887,2.887,0,0,1-2.395-1.2,5.008,5.008,0,0,1-.926-3.141Zm1.445.164a3.749,3.749,0,0,0,.594,2.25,1.92,1.92,0,0,0,1.641.813A2.109,2.109,0,0,0,77.867-2.3V-6.187a2.125,2.125,0,0,0-1.992-1.2,1.929,1.929,0,0,0-1.656.82A4.128,4.128,0,0,0,73.625-4.133ZM86.773,0a3.036,3.036,0,0,1-.2-.891A3.225,3.225,0,0,1,84.164.156a2.984,2.984,0,0,1-2.051-.707,2.288,2.288,0,0,1-.8-1.793,2.39,2.39,0,0,1,1-2.051,4.733,4.733,0,0,1,2.824-.73h1.406v-.664A1.623,1.623,0,0,0,86.094-7a1.821,1.821,0,0,0-1.336-.449,2.108,2.108,0,0,0-1.3.391,1.151,1.151,0,0,0-.523.945H81.484a2,2,0,0,1,.449-1.223,3.066,3.066,0,0,1,1.219-.934,4.1,4.1,0,0,1,1.691-.344,3.342,3.342,0,0,1,2.289.73,2.635,2.635,0,0,1,.859,2.012v3.891a4.757,4.757,0,0,0,.3,1.852V0Zm-2.4-1.1a2.54,2.54,0,0,0,1.289-.352,2.127,2.127,0,0,0,.883-.914V-4.1H85.414q-2.656,0-2.656,1.555a1.316,1.316,0,0,0,.453,1.063A1.742,1.742,0,0,0,84.375-1.1Zm5.531-3.2a4.952,4.952,0,0,1,.922-3.129,2.915,2.915,0,0,1,2.414-1.184,2.932,2.932,0,0,1,2.352,1.016V-12h1.445V0H95.711l-.07-.906A2.943,2.943,0,0,1,93.227.156a2.887,2.887,0,0,1-2.395-1.2,5.008,5.008,0,0,1-.926-3.141Zm1.445.164a3.749,3.749,0,0,0,.594,2.25,1.92,1.92,0,0,0,1.641.813A2.109,2.109,0,0,0,95.594-2.3V-6.187a2.125,2.125,0,0,0-1.992-1.2,1.929,1.929,0,0,0-1.656.82A4.128,4.128,0,0,0,91.352-4.133Z" transform="translate(615 5504.688)" fill="#12263f"/>
    <g id="right-arrow_1_" data-name="right-arrow (1)" transform="translate(1023.989 5439.688) rotate(90)">
      <g id="Grupo_57503" data-name="Grupo 57503" transform="translate(0 41.346)">
        <path id="Trazado_101707" data-name="Trazado 101707" d="M44.1,58.247,27.916,42.062a2.46,2.46,0,0,0-3.469,0l-1.47,1.47a2.435,2.435,0,0,0-.716,1.734,2.483,2.483,0,0,0,.716,1.755l9.442,9.463h-30A2.394,2.394,0,0,0,0,58.9v2.078a2.486,2.486,0,0,0,2.421,2.519H32.527l-9.549,9.516a2.429,2.429,0,0,0,0,3.444l1.47,1.465a2.46,2.46,0,0,0,3.469,0L44.1,61.729a2.474,2.474,0,0,0,0-3.482Z" transform="translate(0 -41.346)" fill="#25ced1"/>
      </g>
    </g>
    <g id="right-arrow_1_2" data-name="right-arrow (1)" transform="translate(843.011 5657.688) rotate(-90)">
      <g id="Grupo_57503-2" data-name="Grupo 57503" transform="translate(0 41.346)">
        <path id="Trazado_101707-2" data-name="Trazado 101707" d="M44.1,58.247,27.916,42.062a2.46,2.46,0,0,0-3.469,0l-1.47,1.47a2.435,2.435,0,0,0-.716,1.734,2.483,2.483,0,0,0,.716,1.755l9.442,9.463h-30A2.394,2.394,0,0,0,0,58.9v2.078a2.486,2.486,0,0,0,2.421,2.519H32.527l-9.549,9.516a2.429,2.429,0,0,0,0,3.444l1.47,1.465a2.46,2.46,0,0,0,3.469,0L44.1,61.729a2.474,2.474,0,0,0,0-3.482Z" transform="translate(0 -41.346)" fill="#25ced1"/>
      </g>
    </g>
    <g id="right-arrow_1_3" data-name="right-arrow (1)" transform="translate(660.011 5657.688) rotate(-90)">
      <g id="Grupo_57503-3" data-name="Grupo 57503" transform="translate(0 41.346)">
        <path id="Trazado_101707-3" data-name="Trazado 101707" d="M44.1,58.247,27.916,42.062a2.46,2.46,0,0,0-3.469,0l-1.47,1.47a2.435,2.435,0,0,0-.716,1.734,2.483,2.483,0,0,0,.716,1.755l9.442,9.463h-30A2.394,2.394,0,0,0,0,58.9v2.078a2.486,2.486,0,0,0,2.421,2.519H32.527l-9.549,9.516a2.429,2.429,0,0,0,0,3.444l1.47,1.465a2.46,2.46,0,0,0,3.469,0L44.1,61.729a2.474,2.474,0,0,0,0-3.482Z" transform="translate(0 -41.346)" fill="#25ced1"/>
      </g>
    </g>
    <g id="right-arrow_1_4" data-name="right-arrow (1)" transform="translate(606.368 5484.506) rotate(-90)">
      <g id="Grupo_57503-4" data-name="Grupo 57503" transform="translate(0 41.346)">
        <path id="Trazado_101707-4" data-name="Trazado 101707" d="M44.1,58.247,27.916,42.062a2.46,2.46,0,0,0-3.469,0l-1.47,1.47a2.435,2.435,0,0,0-.716,1.734,2.483,2.483,0,0,0,.716,1.755l9.442,9.463h-30A2.394,2.394,0,0,0,0,58.9v2.078a2.486,2.486,0,0,0,2.421,2.519H32.527l-9.549,9.516a2.429,2.429,0,0,0,0,3.444l1.47,1.465a2.46,2.46,0,0,0,3.469,0L44.1,61.729a2.474,2.474,0,0,0,0-3.482Z" transform="translate(0 -41.346)" fill="#25ced1"/>
      </g>
    </g>
    <g id="right-arrow_1_5" data-name="right-arrow (1)" transform="translate(755.011 5378.097) rotate(-90)">
      <g id="Grupo_57503-5" data-name="Grupo 57503" transform="translate(0 41.346)">
        <path id="Trazado_101707-5" data-name="Trazado 101707" d="M44.1,58.247,27.916,42.062a2.46,2.46,0,0,0-3.469,0l-1.47,1.47a2.435,2.435,0,0,0-.716,1.734,2.483,2.483,0,0,0,.716,1.755l9.442,9.463h-30A2.394,2.394,0,0,0,0,58.9v2.078a2.486,2.486,0,0,0,2.421,2.519H32.527l-9.549,9.516a2.429,2.429,0,0,0,0,3.444l1.47,1.465a2.46,2.46,0,0,0,3.469,0L44.1,61.729a2.474,2.474,0,0,0,0-3.482Z" transform="translate(0 -41.346)" fill="#25ced1"/>
      </g>
    </g>
  </g>
</svg>
