<svg xmlns="http://www.w3.org/2000/svg" width="76" height="76" viewBox="0 0 76 76">
  <g id="Grupo_57480" data-name="Grupo 57480" transform="translate(-392 -3521)">
    <g id="Rect치ngulo_5471" data-name="Rect치ngulo 5471" transform="translate(430 3559)" fill="#fff" stroke="#707070" stroke-width="1">
      <rect width="1" height="1" stroke="none"/>
      <rect x="0.5" y="0.5" fill="none"/>
    </g>
    <rect id="Rect치ngulo_5539" data-name="Rect치ngulo 5539" width="76" height="76" transform="translate(392 3521)" fill="none"/>
    <g id="planner" transform="translate(399 3528)">
      <circle id="Elipse_220" data-name="Elipse 220" cx="10.5" cy="10.5" r="10.5" transform="translate(39 39)" fill="#ff826e"/>
      <path id="Trazado_102010" data-name="Trazado 102010" d="M29.1,50.742v7.742H2V43H29.1Z" transform="translate(-0.032 -1.355)" fill="#e6e9ed"/>
      <g id="Grupo_58415" data-name="Grupo 58415" transform="translate(5.364 47.909)">
        <circle id="Elipse_221" data-name="Elipse 221" cx="1.5" cy="1.5" r="1.5" transform="translate(16.636 0.092)" fill="#fcd770"/>
        <circle id="Elipse_222" data-name="Elipse 222" cx="1.5" cy="1.5" r="1.5" transform="translate(8.636 0.092)" fill="#fcd770"/>
        <ellipse id="Elipse_223" data-name="Elipse 223" cx="2.5" cy="1.5" rx="2.5" ry="1.5" transform="translate(-0.364 0.092)" fill="#fcd770"/>
      </g>
      <path id="Trazado_102011" data-name="Trazado 102011" d="M9.742,2,2,9.742V34.9H29.1V2Z" transform="translate(-0.032 -0.032)" fill="#e6e9ed"/>
      <path id="Trazado_102012" data-name="Trazado 102012" d="M6,26H25.355v5.806H6Z" transform="translate(-0.161 -0.806)" fill="#4fc1e9"/>
      <path id="Trazado_102013" data-name="Trazado 102013" d="M25.355,6v7.742H6V9.871H9.871V6Z" transform="translate(-0.161 -0.161)" fill="#ffeaa7"/>
      <path id="Trazado_102014" data-name="Trazado 102014" d="M9.742,5.871V9.742H2L9.742,2Z" transform="translate(-0.032 -0.032)" fill="#fcd770"/>
      <path id="Trazado_102015" data-name="Trazado 102015" d="M36,12V29.419H53.419V12Z" transform="translate(-1.129 -0.355)" fill="#f0d0b4"/>
      <path id="Trazado_102016" data-name="Trazado 102016" d="M54.7,3.2A4.106,4.106,0,0,1,60.51,9.006l-1.7,1.7-2.9-2.9L53,4.9Z" transform="translate(-1.677 -0.032)" fill="#aab2bd"/>
      <path id="Trazado_102017" data-name="Trazado 102017" d="M49.742,19.806l-5.555,1.848a1.559,1.559,0,0,1-.523.087A1.664,1.664,0,0,1,42,20.077a1.559,1.559,0,0,1,.087-.523L43.935,14l2.9,2.9Z" transform="translate(-1.323 -0.419)" fill="#aab2bd"/>
      <path id="Trazado_102018" data-name="Trazado 102018" d="M58.613,10.9l-4.839,4.839L49.9,19.613,47,16.71,55.71,8Z" transform="translate(-1.484 -0.226)" fill="#ff826e"/>
      <path id="Trazado_102019" data-name="Trazado 102019" d="M55.613,7.9l-8.71,8.71L44,13.71l1.935-1.935L52.71,5Z" transform="translate(-1.387 -0.129)" fill="#b4dd7f"/>
      <path id="Trazado_102020" data-name="Trazado 102020" d="M49.387,37.774A11.621,11.621,0,0,0,37.824,48.419H30.032V40.677H16.484V35.839H30.032V20.355H33.9v9.677H53.258V15.917L59.515,9.66A5.073,5.073,0,0,0,52.34,2.485l-8.192,8.192H33.9v7.742H30.032V1H9.309L1,9.309v26.53H14.548v4.839H1V58.1H30.032V50.355h7.791A11.609,11.609,0,1,0,49.387,37.774ZM43.981,13.581l7.341-7.341,1.535,1.535-7.341,7.341Zm-.945,1.791,3.592,3.592-4.063,1.354a.708.708,0,0,1-.92-.661.741.741,0,0,1,.035-.221Zm5.384,2.647-1.535-1.535,7.341-7.341,1.535,1.535ZM55.927,2.935a3.138,3.138,0,0,1,2.219,5.356L57.129,9.309,52.691,4.871l1.017-1.017a3.118,3.118,0,0,1,2.219-.918ZM35.839,12.613h6.374l-.445.445-1.924,5.77a2.633,2.633,0,0,0,3.332,3.327l5.767-1.922,2.381-2.381V28.1H35.839ZM4.3,8.742,8.742,4.3V8.742Zm2.5,1.935h3.871V6.806H24.226v5.806H6.806Zm-3.871,0H4.871v3.871h21.29V4.871H10.677V2.935H28.1V33.9H2.935ZM28.1,56.161H2.935V42.613H28.1Zm21.29,2.9a9.677,9.677,0,1,1,9.677-9.677A9.688,9.688,0,0,1,49.387,59.065Z" transform="translate(0 0)"/>
      <path id="Trazado_102021" data-name="Trazado 102021" d="M48.848,55.318l-3.187-3.187L44.293,53.5l4.555,4.555,9.394-9.394-1.368-1.368Z" transform="translate(-1.397 -1.493)"/>
      <path id="Trazado_102022" data-name="Trazado 102022" d="M7.9,53.806A2.9,2.9,0,1,0,5,50.9,2.907,2.907,0,0,0,7.9,53.806Zm0-3.871a.968.968,0,1,1-.968.968A.968.968,0,0,1,7.9,49.935Z" transform="translate(-0.129 -1.516)"/>
      <path id="Trazado_102023" data-name="Trazado 102023" d="M15.9,53.806A2.9,2.9,0,1,0,13,50.9,2.907,2.907,0,0,0,15.9,53.806Zm0-3.871a.968.968,0,1,1-.968.968A.968.968,0,0,1,15.9,49.935Z" transform="translate(-0.387 -1.516)"/>
      <path id="Trazado_102024" data-name="Trazado 102024" d="M23.9,53.806A2.9,2.9,0,1,0,21,50.9,2.907,2.907,0,0,0,23.9,53.806Zm0-3.871a.968.968,0,1,1-.968.968A.968.968,0,0,1,23.9,49.935Z" transform="translate(-0.645 -1.516)"/>
      <path id="Trazado_102025" data-name="Trazado 102025" d="M39,25H50.613v1.935H39Z" transform="translate(-1.226 -0.774)"/>
      <path id="Trazado_102026" data-name="Trazado 102026" d="M5,17H6.935v1.935H5Z" transform="translate(-0.129 -0.516)"/>
      <path id="Trazado_102027" data-name="Trazado 102027" d="M9,17H26.419v1.935H9Z" transform="translate(-0.258 -0.516)"/>
      <path id="Trazado_102028" data-name="Trazado 102028" d="M5,21H26.29v1.935H5Z" transform="translate(-0.129 -0.645)"/>
      <path id="Trazado_102029" data-name="Trazado 102029" d="M5,32.742H26.29V25H5Zm1.935-5.806H24.355v3.871H6.935Z" transform="translate(-0.129 -0.774)"/>
    </g>
  </g>
</svg>
