<svg xmlns="http://www.w3.org/2000/svg" width="76" height="76" viewBox="0 0 76 76">
  <g id="Grupo_57479" data-name="Grupo 57479" transform="translate(-392 -3434)">
    <rect id="Rectángulo_5538" data-name="Rectángulo 5538" width="76" height="76" transform="translate(392 3434)" fill="none"/>
    <g id="coupon" transform="translate(402.332 3444.333)">
      <path id="XMLID_2545_" d="M52.715,10l8.077,8.077a6.874,6.874,0,0,1,0,9.721l-8.077,8.077h-39.9A2.811,2.811,0,0,1,10,33.064V12.811A2.811,2.811,0,0,1,12.812,10Z" transform="translate(-8.919 -8.919)" fill="#f5737f"/>
      <path id="XMLID_2483_" d="M93.041,64.006h15.312l2.985,2.985V82.3L83.122,110.518a2.811,2.811,0,0,1-3.976,0L64.825,96.2a2.811,2.811,0,0,1,0-3.976Z" transform="translate(-57.084 -57.089)" fill="#91def5"/>
      <ellipse id="XMLID_2590_" cx="2.594" cy="2.075" rx="2.594" ry="2.075" transform="translate(44.614 11.413)" fill="#f5737f"/>
      <circle id="XMLID_2480_" cx="2.162" cy="2.162" r="2.162" transform="translate(17.247 16.149)" fill="#fff"/>
      <circle id="XMLID_2476_" cx="2.162" cy="2.162" r="2.162" transform="translate(8.125 7.564)" fill="#fff"/>
      <path id="XMLID_1468_" d="M54.289,8.41l.729-.729a1.081,1.081,0,0,0-1.528-1.528l-.729.729-.728-.728a1.081,1.081,0,0,0-.764-.317H50.08L44.56.317A1.081,1.081,0,0,0,43.8,0H3.893A3.9,3.9,0,0,0,0,3.892V24.145a3.9,3.9,0,0,0,3.892,3.892h9.415L6.977,34.369a3.892,3.892,0,0,0,0,5.5L21.3,54.194a3.892,3.892,0,0,0,5.5,0L37.528,43.468A1.081,1.081,0,0,0,36,41.939L25.274,52.665a1.731,1.731,0,0,1-2.447,0L8.505,38.344a1.731,1.731,0,0,1,0-2.447L36.4,8H50.821l.412.412-2.5,2.5a3.244,3.244,0,1,0,1.528,1.528l2.5-2.5.412.412V24.767l-10.3,10.3a1.081,1.081,0,1,0,1.528,1.528L55.017,25.979a1.081,1.081,0,0,0,.317-.764V9.9a1.081,1.081,0,0,0-.317-.764ZM19.408,19.392a1.081,1.081,0,1,1,1.081-1.081A1.082,1.082,0,0,1,19.408,19.392ZM35.956,5.837a1.081,1.081,0,0,0-.764.317L22.624,18.721a3.249,3.249,0,1,0-2.805,2.805L15.47,25.875H3.893a1.733,1.733,0,0,1-1.731-1.731V3.892A1.733,1.733,0,0,1,3.893,2.161H43.348l3.675,3.675Zm11.38,9.078a1.081,1.081,0,1,1,.656-1.938.973.973,0,0,0,.2.2,1.079,1.079,0,0,1-.857,1.736Z" transform="translate(0 0)"/>
      <path id="XMLID_1527_" d="M273.224,227.542a1.081,1.081,0,0,0,.764-.317l2.445-2.445a1.081,1.081,0,0,0-1.528-1.528l-1.681,1.681-5.349-5.349a1.081,1.081,0,0,0-1.528,1.528l6.114,6.113A1.081,1.081,0,0,0,273.224,227.542Z" transform="translate(-237.279 -195.57)"/>
      <path id="XMLID_1528_" d="M327.039,154.986a1.081,1.081,0,0,0-1.528,0l-1.376,1.376-1.528-1.528,1.376-1.376a1.081,1.081,0,0,0-1.528-1.528l-1.376,1.376-1.528-1.528,1.376-1.376a1.081,1.081,0,0,0-1.528-1.528l-2.14,2.14a1.081,1.081,0,0,0,0,1.528l6.114,6.113a1.081,1.081,0,0,0,1.528,0l2.14-2.14A1.081,1.081,0,0,0,327.039,154.986Z" transform="translate(-282.688 -132.502)"/>
      <path id="XMLID_1531_" d="M228.052,272.105a1.081,1.081,0,1,0,.981-1.926l-8.1-4.127a1.081,1.081,0,0,0-1.453,1.453l4.127,8.1a1.081,1.081,0,0,0,1.926-.981l-.331-.651,2.2-2.2Zm-3.883-.155-1.254-2.462,2.462,1.254Z" transform="translate(-195.654 -237.195)"/>
      <path id="XMLID_1532_" d="M158.24,322.091a1.081,1.081,0,1,0,1.528,1.528l1.528-1.528a3.242,3.242,0,0,0-4.391-4.763,1.073,1.073,0,0,0-.114.1l-.08.08a1.081,1.081,0,1,1-1.528-1.528l1.528-1.528a1.081,1.081,0,1,0-1.528-1.528l-1.528,1.528a3.242,3.242,0,0,0,4.583,4.587l0,0a1.081,1.081,0,1,1,1.528,1.528Z" transform="translate(-136.202 -278.821)"/>
      <path id="XMLID_1533_" d="M100.5,63.4a1.081,1.081,0,0,0-1.472.41L92.061,76.161a1.081,1.081,0,1,0,1.882,1.063l6.971-12.348A1.081,1.081,0,0,0,100.5,63.4Z" transform="translate(-81.986 -56.427)"/>
      <path id="XMLID_1536_" d="M71.654,63.236a3.243,3.243,0,1,0-3.243,3.243A3.246,3.246,0,0,0,71.654,63.236Zm-4.324,0a1.081,1.081,0,1,1,1.081,1.081A1.082,1.082,0,0,1,67.33,63.236Z" transform="translate(-58.125 -53.51)"/>
      <path id="XMLID_1537_" d="M363.072,353.319a1.081,1.081,0,1,0,.764.317A1.087,1.087,0,0,0,363.072,353.319Z" transform="translate(-322.869 -315.135)"/>
    </g>
  </g>
</svg>
