<svg xmlns="http://www.w3.org/2000/svg" width="76" height="76" viewBox="0 0 76 76">
  <g id="Grupo_57482" data-name="Grupo 57482" transform="translate(-392 -3695)">
    <rect id="Rectángulo_5541" data-name="Rectángulo 5541" width="76" height="76" transform="translate(392 3695)" fill="none"/>
    <g id="trophy" transform="translate(405.167 3708.167)">
      <g id="Grupo_58416" data-name="Grupo 58416" transform="translate(0.728 0.728)">
        <path id="Trazado_102030" data-name="Trazado 102030" d="M182.058,288.219l-8.824.97-8.734-.97c4.131,0,5.581-2.958,5.863-6.871.038-.518.054-1.052.054-1.6v-.37a14.655,14.655,0,0,0,5.82.021v.348c0,.553.016,1.094.052,1.618C176.558,285.271,177.933,288.219,182.058,288.219Z" transform="translate(-149.27 -253.006)" fill="#fad207"/>
        <path id="Trazado_102031" data-name="Trazado 102031" d="M154.654,372.555v3.281l-12.077.97-12.077-.97v-3.281a2.054,2.054,0,0,1,2.055-2.055H152.6a2.054,2.054,0,0,1,2.055,2.055Z" transform="translate(-118.568 -335.287)" fill="#fad207"/>
        <path id="Trazado_102032" data-name="Trazado 102032" d="M154.565,371.955h-21.64a.97.97,0,0,0-.97.97v2.91H130.5v-3.281a2.054,2.054,0,0,1,2.055-2.055H152.6a2.055,2.055,0,0,1,1.965,1.455Z" transform="translate(-118.568 -335.287)" fill="#faa515"/>
        <path id="Trazado_102033" data-name="Trazado 102033" d="M230.867,280.294a16.4,16.4,0,0,1-2.914.255,16.227,16.227,0,0,1-3.013-.275c.038-.518.054-1.052.054-1.6v-.37l2.959-.115,2.862.137v.348C230.815,279.229,230.83,279.77,230.867,280.294Z" transform="translate(-203.847 -251.933)" fill="#faa515"/>
        <path id="Trazado_102034" data-name="Trazado 102034" d="M365.439,95.455A13.062,13.062,0,0,1,352.392,108.5H350.5a15.892,15.892,0,0,0,2.2-2.915,10.154,10.154,0,0,0,9.722-8.677H355.82c.2-1.056.349-2.044.451-2.91h7.713A1.456,1.456,0,0,1,365.439,95.455Z" transform="translate(-317.227 -85.609)" fill="#fad207"/>
        <path id="Trazado_102035" data-name="Trazado 102035" d="M355.115,209.67q-.355.706-.747,1.361a18.785,18.785,0,0,1-1.294,1.9q-.339.019-.683.018H350.5l.215-1.393,1.988-1.522A19.256,19.256,0,0,0,355.115,209.67Z" transform="translate(-317.227 -190.058)" fill="#faa515"/>
        <path id="Trazado_102036" data-name="Trazado 102036" d="M401.07,94l-.026.227c-.107.9-.242,1.805-.4,2.683h-1.974l-.717-1.455L399.117,94Z" transform="translate(-360.073 -85.609)" fill="#faa515"/>
        <path id="Trazado_102037" data-name="Trazado 102037" d="M389.4,95.455a13.063,13.063,0,0,1-12.364,13.029,18.785,18.785,0,0,0,1.294-1.9q.391-.655.747-1.361a10.167,10.167,0,0,0,7.309-8.31h-4.631c.162-.878.3-1.779.4-2.683l.026-.227h5.76A1.456,1.456,0,0,1,389.4,95.455Z" transform="translate(-341.193 -85.609)" fill="#fad207"/>
        <path id="Trazado_102038" data-name="Trazado 102038" d="M22.439,108.5H20.547A13.062,13.062,0,0,1,7.5,95.455,1.456,1.456,0,0,1,8.955,94h7.713c.1.866.246,1.854.451,2.91H10.514a10.154,10.154,0,0,0,9.722,8.677A15.893,15.893,0,0,0,22.439,108.5Z" transform="translate(-7.5 -85.609)" fill="#fad207"/>
        <path id="Trazado_102039" data-name="Trazado 102039" d="M84.284,96.91H82.31c-.162-.879-.3-1.78-.4-2.683q-.013-.115-.026-.227h1.953l1.173,1.489Z" transform="translate(-74.665 -85.609)" fill="#faa515"/>
        <path id="Trazado_102040" data-name="Trazado 102040" d="M118.536,212.952h-1.892q-.343,0-.683-.018a18.788,18.788,0,0,1-1.294-1.9q-.391-.655-.747-1.361a19.258,19.258,0,0,0,2.413.367l1.811,1.281Z" transform="translate(-103.597 -190.058)" fill="#faa515"/>
        <path id="Trazado_102041" data-name="Trazado 102041" d="M106.967,425.5H75.44a1.94,1.94,0,0,0-1.94,1.94v3.783a1.94,1.94,0,0,0,1.94,1.94h31.527a1.94,1.94,0,0,0,1.94-1.94V427.44A1.94,1.94,0,0,0,106.967,425.5Z" transform="translate(-67.098 -384.952)" fill="#50758d"/>
        <path id="Trazado_102042" data-name="Trazado 102042" d="M77.38,433.163H75.44a1.94,1.94,0,0,1-1.94-1.94V427.44a1.94,1.94,0,0,1,1.94-1.94v5.723A1.94,1.94,0,0,0,77.38,433.163Z" transform="translate(-67.098 -384.952)" fill="#2b597f"/>
        <path id="Trazado_102043" data-name="Trazado 102043" d="M129.863,58.5s0,.737-.1,1.94c-.035.442-.083.949-.148,1.5-.1.866-.246,1.854-.451,2.91a27.406,27.406,0,0,1-3.117,8.677,15.893,15.893,0,0,1-2.2,2.915,11.991,11.991,0,0,1-6.305,3.5,14.653,14.653,0,0,1-5.82-.021,11.98,11.98,0,0,1-6.208-3.481,15.893,15.893,0,0,1-2.2-2.915,27.406,27.406,0,0,1-3.117-8.677c-.2-1.056-.349-2.044-.451-2.91-.065-.555-.113-1.061-.148-1.5-.1-1.2-.1-1.94-.1-1.94Z" transform="translate(-90.576 -53.553)" fill="#fad207"/>
        <path id="Trazado_102044" data-name="Trazado 102044" d="M200.146,99.355l1.192,3.668h3.857a.514.514,0,0,1,.3.93l-3.12,2.267,1.192,3.668a.514.514,0,0,1-.791.575l-3.12-2.267-3.12,2.267a.514.514,0,0,1-.791-.575l1.192-3.668-3.12-2.267a.514.514,0,0,1,.3-.93h3.857l1.192-3.668A.514.514,0,0,1,200.146,99.355Z" transform="translate(-175.551 -90.124)" fill="#fc4755"/>
        <path id="Trazado_102045" data-name="Trazado 102045" d="M175.48,459.455H157.728a.728.728,0,0,1,0-1.455H175.48a.728.728,0,1,1,0,1.455Z" transform="translate(-142.498 -414.299)" fill="#2b597f"/>
        <path id="Trazado_102046" data-name="Trazado 102046" d="M129.863,49.47l-15.807-.97-12.616.97H99.5s0,.737.1,1.94c.035.442.083.949.148,1.5.1.866.246,1.854.451,2.91a27.406,27.406,0,0,0,3.117,8.677,15.893,15.893,0,0,0,2.2,2.915,11.98,11.98,0,0,0,6.208,3.481,14.039,14.039,0,0,0,2.959.3q.495,0,.967-.03a13.611,13.611,0,0,1-1.986-.273,11.98,11.98,0,0,1-6.208-3.481,15.893,15.893,0,0,1-2.2-2.915,27.406,27.406,0,0,1-3.117-8.677c-.2-1.056-.349-2.044-.451-2.91l0-.017a1.334,1.334,0,0,1,1.326-1.487h26.76C129.863,50.207,129.863,49.47,129.863,49.47Z" transform="translate(-90.576 -44.523)" fill="#faa515"/>
        <path id="Trazado_102047" data-name="Trazado 102047" d="M75.974,7.5h30.46a2.474,2.474,0,0,1,0,4.947H75.974a2.474,2.474,0,1,1,0-4.947Z" transform="translate(-67.098 -7.5)" fill="#fad207"/>
        <path id="Trazado_102048" data-name="Trazado 102048" d="M77.914,12.447h-1.94a2.474,2.474,0,0,1,0-4.947h1.94a2.474,2.474,0,0,0,0,4.947Z" transform="translate(-67.098 -7.5)" fill="#faa515"/>
      </g>
      <g id="Grupo_58417" data-name="Grupo 58417" transform="translate(0 0)">
        <path id="Trazado_102049" data-name="Trazado 102049" d="M32.245,24.232a.728.728,0,0,0,.9,1.143A13.374,13.374,0,0,0,34.3,24.348h1.591A13.79,13.79,0,0,0,49.667,10.574a2.185,2.185,0,0,0-2.183-2.183h-6.9c.085-.876.125-1.584.143-2.058A3.2,3.2,0,0,0,40.063,0H9.6A3.2,3.2,0,0,0,8.94,6.333c.018.475.057,1.183.142,2.058h-6.9A2.185,2.185,0,0,0,0,10.574,13.768,13.768,0,0,0,4.8,21.018a.728.728,0,0,0,.949-1.1,12.315,12.315,0,0,1-4.3-9.341.728.728,0,0,1,.728-.728H9.25c.062.46.135.947.222,1.455H3.742a.732.732,0,0,0-.72.831,10.879,10.879,0,0,0,10.023,9.28,17.438,17.438,0,0,0,1.037,1.481h-.307a12.179,12.179,0,0,1-5.341-1.219.728.728,0,0,0-.633,1.31,13.621,13.621,0,0,0,5.974,1.364h1.6a12.735,12.735,0,0,0,5.772,3.323,11.033,11.033,0,0,1-1.1,5.422,4.322,4.322,0,0,1-4.084,2.12H14.714A2.785,2.785,0,0,0,11.932,38v2.553H9.07A2.671,2.671,0,0,0,6.4,43.216V47A2.671,2.671,0,0,0,9.07,49.667H40.6A2.671,2.671,0,0,0,43.264,47V43.216A2.671,2.671,0,0,0,40.6,40.548H37.541V38a2.785,2.785,0,0,0-2.782-2.782H33.515c-3.471,0-5.046-2.321-5.091-7.513a12.74,12.74,0,0,0,1.6-.518.728.728,0,0,0-.54-1.351,12.489,12.489,0,0,1-4.654.847c-6.421.159-10.718-4.628-12.586-10.346A36.718,36.718,0,0,1,10.4,6.4h5.507a.728.728,0,0,0,0-1.455H9.6a1.746,1.746,0,1,1,0-3.492h30.46a1.746,1.746,0,1,1,0,3.492H19.256a.728.728,0,0,0,0,1.455H39.264C39.133,9.222,38.243,19.505,32.245,24.232Zm9.565,18.984V47A1.214,1.214,0,0,1,40.6,48.212H9.07A1.214,1.214,0,0,1,7.857,47V43.216A1.214,1.214,0,0,1,9.07,42H40.6A1.214,1.214,0,0,1,41.809,43.216ZM36.086,38v2.553h-22.7V38a1.329,1.329,0,0,1,1.327-1.327H34.759A1.329,1.329,0,0,1,36.086,38ZM26.972,27.984a12.32,12.32,0,0,0,1.246,5.835,5.685,5.685,0,0,0,1.1,1.394H20.187A5.792,5.792,0,0,0,21.3,33.827a12.056,12.056,0,0,0,1.3-5.858,15.114,15.114,0,0,0,2.236.163A15.291,15.291,0,0,0,26.972,27.984ZM4.62,12.756H9.75a32.957,32.957,0,0,0,1.113,4.023,24.822,24.822,0,0,0,1.3,3.064,9.385,9.385,0,0,1-7.54-7.087Zm42.864-2.91a.728.728,0,0,1,.728.728,12.334,12.334,0,0,1-12.32,12.32h-.308a17.749,17.749,0,0,0,1.03-1.481,10.879,10.879,0,0,0,10.032-9.28.732.732,0,0,0-.72-.831H40.192c.087-.508.16-.995.222-1.455Zm-7.675,3.39c.036-.161.071-.321.1-.48h5.133A9.385,9.385,0,0,1,37.5,19.845,28.272,28.272,0,0,0,39.81,13.236Z" transform="translate(0 0)"/>
        <path id="Trazado_102050" data-name="Trazado 102050" d="M199.688,96.524a1.239,1.239,0,0,0-1.181-.858h-3.328L194.15,92.5a1.249,1.249,0,0,0-2.362,0l-1.029,3.165h-3.328a1.249,1.249,0,0,0-.73,2.246l2.693,1.956-1.029,3.165a1.249,1.249,0,0,0,1.911,1.388l2.693-1.956,2.693,1.956a1.249,1.249,0,0,0,1.911-1.388l-1.029-3.165,2.693-1.956a1.238,1.238,0,0,0,.451-1.388ZM195.261,99a.727.727,0,0,0-.264.813l.989,3.043-2.589-1.881a.727.727,0,0,0-.855,0l-2.589,1.881.989-3.043a.727.727,0,0,0-.264-.813l-2.589-1.881h3.2a.728.728,0,0,0,.692-.5l.989-3.043.989,3.043a.728.728,0,0,0,.692.5h3.2Z" transform="translate(-168.136 -82.767)"/>
        <path id="Trazado_102051" data-name="Trazado 102051" d="M167.719,458h-9.992a.728.728,0,0,0,0,1.455h9.992a.728.728,0,0,0,0-1.455Z" transform="translate(-141.77 -413.572)"/>
        <path id="Trazado_102052" data-name="Trazado 102052" d="M300.093,458h-4.365a.728.728,0,0,0,0,1.455h4.365a.728.728,0,0,0,0-1.455Z" transform="translate(-266.383 -413.572)"/>
      </g>
    </g>
  </g>
</svg>
