<svg xmlns="http://www.w3.org/2000/svg" width="1030" height="558" viewBox="0 0 1030 558">
  <g id="Grupo_58709" data-name="Grupo 58709" transform="translate(-285 -5736)">
    <rect id="Rectángulo_5716" data-name="Rectángulo 5716" width="1030" height="558" transform="translate(285 5736)" fill="#fbf9fa"/>
    <g id="Grupo_58702" data-name="Grupo 58702" transform="translate(-57)">
      <rect id="Rectángulo_5600" data-name="Rectángulo 5600" width="472" height="90" rx="5" transform="translate(403 5768.5)" fill="#fff"/>
      <rect id="Rectángulo_5735" data-name="Rectángulo 5735" width="93.857" height="90" rx="5" transform="translate(403 5768.5)" fill="#f2e7eb"/>
      <text id="Proceso_de_diseño_Características_físicas_del_producto_patronaje_materia_prima_tela_hilo_botones_etc_." data-name="Proceso de diseño
Características físicas del producto, patronaje, materia prima (tela, hilo, botones, etc)." transform="translate(516 5779.5)" fill="#12263f" font-size="18" font-family="Roboto-Black, Roboto" font-weight="800"><tspan x="0" y="17">Proceso de diseño</tspan><tspan font-size="16" font-family="Roboto-Regular, Roboto" font-weight="400"><tspan x="0" y="41">Características físicas del producto, patronaje, </tspan><tspan x="0" y="65">materia prima (tela, hilo, botones, etc).</tspan></tspan></text>
      <g id="Grupo_58693" data-name="Grupo 58693" transform="translate(-39)">
        <rect id="Rectángulo_5736" data-name="Rectángulo 5736" width="70" height="70" transform="translate(454 5780)" fill="none"/>
        <g id="bola-de-hilo" transform="translate(462 5764.849)">
          <path id="Trazado_102501" data-name="Trazado 102501" d="M48.379,26.151a5.452,5.452,0,0,0-4.527,8.494L41.294,37.2a21.474,21.474,0,0,0-9.4-4.967,1.051,1.051,0,0,0-.487,2.046,19.494,19.494,0,0,1,3.316,1.111,20.467,20.467,0,0,1-15.607,0,19.5,19.5,0,0,1,3.314-1.11,1.051,1.051,0,0,0-.487-2.046,21.474,21.474,0,0,0-9.4,4.967L9.981,34.645a5.46,5.46,0,1,0-1.487,1.487l2.556,2.556q-.447.492-.864,1.013a21.4,21.4,0,0,0,.868,27.742L6.48,72.017A1.051,1.051,0,1,0,7.967,73.5l4.575-4.575a21.377,21.377,0,0,0,28.75,0L45.866,73.5a1.051,1.051,0,1,0,1.487-1.487l-4.575-4.575A21.4,21.4,0,0,0,43.647,39.7q-.417-.52-.864-1.013l2.556-2.556a5.454,5.454,0,1,0,3.04-9.981ZM40.647,39.457a15.179,15.179,0,0,0-7.065,7.157,27.619,27.619,0,0,0-4.243-.707,19.286,19.286,0,0,1,7.775-9.259,19.179,19.179,0,0,1,3.533,2.808Zm5.292,16.95a19.153,19.153,0,0,1-1.51,4.8A21.352,21.352,0,0,0,9.4,61.2a19.148,19.148,0,0,1-1.51-4.8,25.526,25.526,0,0,1,38.046,0Zm-5.467,10.4a15.089,15.089,0,0,0-27.113,0A19.45,19.45,0,0,1,10.541,63.3a19.263,19.263,0,0,1,32.752,0,19.449,19.449,0,0,1-2.82,3.515Zm-1.647,1.452a19.357,19.357,0,0,1-3.6,2.238,8.813,8.813,0,0,0-16.62,0,19.352,19.352,0,0,1-3.6-2.238,12.985,12.985,0,0,1,23.82,0Zm-7.306-29.7A21.35,21.35,0,0,0,27.132,45.8l-.215,0-.215,0a21.35,21.35,0,0,0-4.388-7.237,22.479,22.479,0,0,0,4.6.476A22.717,22.717,0,0,0,31.521,38.564Zm-14.8-1.915a19.286,19.286,0,0,1,7.775,9.259,27.62,27.62,0,0,0-4.243.707,15.179,15.179,0,0,0-7.065-7.157A19.184,19.184,0,0,1,16.719,36.648ZM5.454,34.957a3.352,3.352,0,1,1,3.352-3.352A3.355,3.355,0,0,1,5.454,34.957ZM11.731,41.1A13.07,13.07,0,0,1,18.2,47.209a27.6,27.6,0,0,0-3.863,1.62A8.956,8.956,0,0,0,9.491,44.7,19.22,19.22,0,0,1,11.731,41.1Zm-3.043,5.55A6.828,6.828,0,0,1,12.5,49.857a27.643,27.643,0,0,0-4.891,3.8c-.006-.2-.01-.393-.01-.59A19.432,19.432,0,0,1,8.688,46.651ZM20.552,71.3a6.712,6.712,0,0,1,12.728,0,19.312,19.312,0,0,1-12.728,0ZM46.219,53.66a27.632,27.632,0,0,0-4.89-3.8,6.826,6.826,0,0,1,3.816-3.206,19.431,19.431,0,0,1,1.084,6.419c0,.2,0,.394-.01.59ZM44.343,44.7a8.953,8.953,0,0,0-4.848,4.124,27.6,27.6,0,0,0-3.863-1.62A13.072,13.072,0,0,1,42.1,41.1a19.218,19.218,0,0,1,2.24,3.6Zm4.036-9.748a3.352,3.352,0,1,1,3.352-3.352A3.355,3.355,0,0,1,48.379,34.957Z" transform="translate(0)"/>
          <circle id="Elipse_246" data-name="Elipse 246" cx="1.051" cy="1.051" r="1.051" transform="translate(25.865 31.655)"/>
        </g>
      </g>
    </g>
    <g id="Grupo_58698" data-name="Grupo 58698" transform="translate(60.5 3)">
      <rect id="Rectángulo_5737" data-name="Rectángulo 5737" width="408" height="90" rx="5" transform="translate(403 5869.5)" fill="#fff"/>
      <rect id="Rectángulo_5738" data-name="Rectángulo 5738" width="93.857" height="90" rx="5" transform="translate(403 5869.5)" fill="#f2e7eb"/>
      <g id="Grupo_58694" data-name="Grupo 58694" transform="translate(-39 101)">
        <rect id="Rectángulo_5736-2" data-name="Rectángulo 5736" width="70" height="70" transform="translate(454 5780)" fill="none"/>
        <g id="tijeras" transform="translate(465 5791)">
          <path id="Trazado_102502" data-name="Trazado 102502" d="M45.769,34.568,33.63,26.476l12.139-8.092a7.257,7.257,0,0,0,1.88-10.256l-.3-.417a8.977,8.977,0,0,0-15.477,1.5,20.4,20.4,0,0,0-1.842,8.5A7.762,7.762,0,0,1,28.917,21.7L18.177,9.09V0H0V49H18.177V43.862l10.74-12.608a7.768,7.768,0,0,1,1.114,3.984,20.4,20.4,0,0,0,1.842,8.5,8.976,8.976,0,0,0,15.475,1.5l.3-.418a7.258,7.258,0,0,0-1.879-10.255ZM31.613,17.713a18.83,18.83,0,0,1,1.7-7.846A7.395,7.395,0,0,1,46.063,8.63l.3.416a5.675,5.675,0,0,1-1.47,8.022L32.206,25.526l-.063-.042-2.156-2.532a9.351,9.351,0,0,0,1.627-5.239ZM28.452,28.124l-2.044-2.044H23.347L10.5,6.427l.334-.334a1.97,1.97,0,0,1,2.814.113L30.538,26.037Zm-6.735-1.649L18.177,31.89V28.124L14.553,24.5l3.55-3.55ZM16.6,47.419H1.581V25.29H3.952V23.71H1.581V1.58H16.6V7.234L14.848,5.181a3.5,3.5,0,0,0-5.135-.206L8.47,6.217,16.6,18.645v1.576L13.108,23.71H10.274V25.29h2.834L16.6,28.779Zm1.581-12.643,4.653-7.115h2.923l2.1,2.1.121.161-9.8,11.5ZM46.363,43.9l-.3.418a7.4,7.4,0,0,1-12.752-1.238,18.841,18.841,0,0,1-1.7-7.846,9.351,9.351,0,0,0-1.859-5.577l-.259-.345L31.713,27.1l13.178,8.785A5.676,5.676,0,0,1,46.363,43.9Zm0,0"/>
          <path id="Trazado_102503" data-name="Trazado 102503" d="M339.149,311.874l-10.433-6.955a.791.791,0,0,0-1.173.951,10.84,10.84,0,0,1,.785,4.045,17.261,17.261,0,0,0,1.558,7.191,5.816,5.816,0,0,0,10.026.975l.3-.421a4.1,4.1,0,0,0-1.064-5.785Zm-.223,4.867-.3.42a4.234,4.234,0,0,1-7.3-.711,15.676,15.676,0,0,1-1.416-6.536,12.334,12.334,0,0,0-.248-2.466l8.612,5.742a2.515,2.515,0,0,1,.654,3.551Zm0,0" transform="translate(-295.135 -274.676)"/>
          <path id="Trazado_102504" data-name="Trazado 102504" d="M328.28,87.728a.791.791,0,0,0,.439-.133l10.433-6.955a4.1,4.1,0,0,0,1.062-5.786l-.3-.419a5.815,5.815,0,0,0-10.026.974A17.25,17.25,0,0,0,328.33,82.6a10.847,10.847,0,0,1-.784,4.044.791.791,0,0,0,.734,1.084Zm1.63-5.127a15.682,15.682,0,0,1,1.416-6.537,4.234,4.234,0,0,1,7.3-.71l.3.418a2.515,2.515,0,0,1-.653,3.553l-8.612,5.742a12.334,12.334,0,0,0,.248-2.466Zm0,0" transform="translate(-295.137 -64.887)"/>
          <path id="Trazado_102505" data-name="Trazado 102505" d="M240,232h1.581v1.581H240Zm0,0" transform="translate(-216.29 -209.081)"/>
          <path id="Trazado_102506" data-name="Trazado 102506" d="M56,240h3.161v1.581H56Zm0,0" transform="translate(-50.468 -216.29)"/>
        </g>
      </g>
      <text id="Proceso_de_extendido_tizado_y_corte." data-name="Proceso de extendido, tizado y corte." transform="translate(516 5891.5)" fill="#12263f" font-size="18" font-family="Roboto-Black, Roboto" font-weight="800"><tspan x="0" y="17">Proceso de extendido, tizado </tspan><tspan x="0" y="41">y corte.</tspan></text>
    </g>
    <g id="Grupo_58699" data-name="Grupo 58699" transform="translate(179 7)">
      <rect id="Rectángulo_5739" data-name="Rectángulo 5739" width="408" height="90" rx="5" transform="translate(403 5969.315)" fill="#fff"/>
      <rect id="Rectángulo_5740" data-name="Rectángulo 5740" width="93.857" height="90" rx="5" transform="translate(403 5969.315)" fill="#f2e7eb"/>
      <g id="Grupo_58695" data-name="Grupo 58695" transform="translate(-39 200.814)">
        <rect id="Rectángulo_5736-3" data-name="Rectángulo 5736" width="70" height="70" transform="translate(454 5780)" fill="none"/>
        <g id="tela_1_" data-name="tela (1)" transform="translate(460.5 5789.604)">
          <path id="Trazado_102507" data-name="Trazado 102507" d="M57,34.043v-14.6a1.115,1.115,0,0,0-1.115-1.115h-9.85V8.515A1.115,1.115,0,0,0,44.921,7.4H31.537V1.114A1.115,1.115,0,0,0,30.423,0H1.114A1.115,1.115,0,0,0,0,1.114V30.352a1.115,1.115,0,0,0,1.115,1.115H14.567v6.246a1.115,1.115,0,0,0,1.115,1.115h9.85v9.85a1.044,1.044,0,0,0,.006.11c0,.016,0,.032.007.048s.005.04.009.06.009.037.013.055.008.034.013.051.012.035.018.053.012.033.018.05.015.032.022.047.016.035.025.051.017.029.026.044.019.033.03.05.022.03.033.046l.031.042c.021.026.043.05.067.073l.007.008.008.007c.023.023.048.046.073.067l.043.032c.015.011.03.023.045.033l.05.03.044.026.051.024c.016.008.031.016.047.022l.05.019.053.018.051.013.055.013.059.009.049.007c.037,0,.073.006.11.006H55.885A1.115,1.115,0,0,0,57,48.677V34.044h0ZM29.338,47.563l8.735-8.735h6.848a1.115,1.115,0,0,0,1.115-1.115V30.875l8.735-8.751v11.46L40.817,47.563Zm23.85-27.009-7.152,7.165V20.554ZM16.8,31.467h2.742a4.459,4.459,0,0,0,8.511,0h2.373a1.115,1.115,0,0,0,1.115-1.115v-3.6a1.115,1.115,0,1,0-2.23,0v2.49H2.229V2.229H29.308V8.281a1.117,1.117,0,0,0,0,.468V17.83a1.115,1.115,0,1,0,2.23,0V9.63H43.806V30.414h0V36.6H16.8Zm5.212,0H25.58a2.226,2.226,0,0,1-3.572,0Zm12.911,7.36-7.158,7.158V38.828Zm9.048,8.735,10.8-10.823V47.563Zm0,0"/>
          <path id="Trazado_102508" data-name="Trazado 102508" d="M298.3,119.395a4.459,4.459,0,1,0-4.459-4.459A4.464,4.464,0,0,0,298.3,119.395Zm0-6.688a2.229,2.229,0,1,1-2.23,2.23A2.232,2.232,0,0,1,298.3,112.706Zm0,0" transform="translate(-261.128 -98.178)"/>
          <path id="Trazado_102509" data-name="Trazado 102509" d="M298.3,239.555a4.459,4.459,0,1,0-4.459-4.459A4.464,4.464,0,0,0,298.3,239.555Zm0-6.688a2.229,2.229,0,1,1-2.23,2.23A2.232,2.232,0,0,1,298.3,232.866Zm0,0" transform="translate(-261.128 -204.96)"/>
          <path id="Trazado_102510" data-name="Trazado 102510" d="M213.874,51.087a1.108,1.108,0,0,0-.1-.193,1.081,1.081,0,0,0-.138-.169,1.114,1.114,0,0,0-1.576,0,1.082,1.082,0,0,0-.138.169,1.106,1.106,0,0,0-.1.193,1.029,1.029,0,0,0-.064.208,1.077,1.077,0,0,0,0,.435,1.067,1.067,0,0,0,.064.21,1.142,1.142,0,0,0,.1.192,1.082,1.082,0,0,0,.138.169,1.114,1.114,0,0,0,1.576,0,1.081,1.081,0,0,0,.138-.169,1.144,1.144,0,0,0,.1-.192,1.1,1.1,0,0,0,.063-.21,1.077,1.077,0,0,0,0-.435A1.056,1.056,0,0,0,213.874,51.087Zm0,0" transform="translate(-188.159 -44.788)"/>
          <path id="Trazado_102511" data-name="Trazado 102511" d="M213.874,91.144a1.1,1.1,0,0,0-.1-.193,1.081,1.081,0,0,0-.308-.308,1.1,1.1,0,0,0-.193-.1,1.024,1.024,0,0,0-.209-.063,1.091,1.091,0,0,0-.434,0,1.033,1.033,0,0,0-.209.063,1.1,1.1,0,0,0-.193.1,1.082,1.082,0,0,0-.308.308,1.1,1.1,0,0,0-.1.193,1.033,1.033,0,0,0-.064.209,1.077,1.077,0,0,0,0,.435,1.029,1.029,0,0,0,.064.208,1.1,1.1,0,0,0,.1.193,1.085,1.085,0,0,0,.138.17,1.061,1.061,0,0,0,.17.138,1.1,1.1,0,0,0,.193.1,1.061,1.061,0,0,0,.209.063,1.075,1.075,0,0,0,.434,0,1.052,1.052,0,0,0,.209-.063,1.1,1.1,0,0,0,.193-.1,1.061,1.061,0,0,0,.17-.138,1.123,1.123,0,0,0,.327-.788,1.107,1.107,0,0,0-.022-.217A1.06,1.06,0,0,0,213.874,91.144Zm0,0" transform="translate(-188.159 -80.386)"/>
          <path id="Trazado_102512" data-name="Trazado 102512" d="M213.874,131.192a1.1,1.1,0,0,0-.1-.193,1.085,1.085,0,0,0-.138-.17,1.114,1.114,0,0,0-1.576,0,1.086,1.086,0,0,0-.138.17,1.1,1.1,0,0,0-.1.193,1.029,1.029,0,0,0-.064.208,1.077,1.077,0,0,0,0,.435,1.02,1.02,0,0,0,.064.208,1.11,1.11,0,0,0,.24.363,1.114,1.114,0,0,0,1.576,0,1.121,1.121,0,0,0,.241-.363,1.047,1.047,0,0,0,.063-.208,1.077,1.077,0,0,0,0-.435A1.056,1.056,0,0,0,213.874,131.192Zm0,0" transform="translate(-188.159 -115.975)"/>
          <path id="Trazado_102513" data-name="Trazado 102513" d="M213.874,171.25a1.108,1.108,0,0,0-.1-.193,1.087,1.087,0,0,0-.308-.307,1.075,1.075,0,0,0-.193-.1,1.024,1.024,0,0,0-.209-.063,1.09,1.09,0,0,0-.434,0,1.033,1.033,0,0,0-.209.063,1.075,1.075,0,0,0-.193.1,1.088,1.088,0,0,0-.308.307,1.106,1.106,0,0,0-.1.193,1.021,1.021,0,0,0-.064.208,1.077,1.077,0,0,0,0,.435,1.029,1.029,0,0,0,.064.208,1.121,1.121,0,0,0,.1.193,1.082,1.082,0,0,0,.138.169,1.061,1.061,0,0,0,.17.138,1.1,1.1,0,0,0,.193.1,1.062,1.062,0,0,0,.209.063,1.075,1.075,0,0,0,.434,0,1.053,1.053,0,0,0,.209-.063,1.1,1.1,0,0,0,.193-.1,1.061,1.061,0,0,0,.17-.138,1.081,1.081,0,0,0,.138-.169,1.123,1.123,0,0,0,.1-.193,1.056,1.056,0,0,0,.063-.208,1.077,1.077,0,0,0,0-.435A1.048,1.048,0,0,0,213.874,171.25Zm0,0" transform="translate(-188.159 -151.573)"/>
          <path id="Trazado_102514" data-name="Trazado 102514" d="M213.874,211.3a1.128,1.128,0,0,0-.1-.192,1.081,1.081,0,0,0-.308-.308,1.133,1.133,0,0,0-.193-.1,1.147,1.147,0,0,0-.209-.063,1.107,1.107,0,0,0-.434,0,1.157,1.157,0,0,0-.209.063,1.133,1.133,0,0,0-.193.1,1.082,1.082,0,0,0-.308.308,1.125,1.125,0,0,0-.1.192,1.058,1.058,0,0,0-.064.21,1.075,1.075,0,0,0,0,.434,1.033,1.033,0,0,0,.064.209,1.1,1.1,0,0,0,.1.193,1.085,1.085,0,0,0,.138.17,1.114,1.114,0,0,0,1.576,0,1.084,1.084,0,0,0,.138-.17,1.1,1.1,0,0,0,.1-.193,1.06,1.06,0,0,0,.063-.209,1.075,1.075,0,0,0,0-.434A1.087,1.087,0,0,0,213.874,211.3Zm0,0" transform="translate(-188.159 -187.168)"/>
          <path id="Trazado_102515" data-name="Trazado 102515" d="M173.824,51.089a1.144,1.144,0,0,0-.1-.192,1.093,1.093,0,0,0-.307-.307,1.107,1.107,0,0,0-.193-.1,1.057,1.057,0,0,0-.208-.063,1.093,1.093,0,0,0-.435,0,1.057,1.057,0,0,0-.208.063,1.108,1.108,0,0,0-.193.1,1.093,1.093,0,0,0-.307.307,1.144,1.144,0,0,0-.1.192,1.1,1.1,0,0,0-.063.21,1.077,1.077,0,0,0,0,.435,1.056,1.056,0,0,0,.063.208,1.108,1.108,0,0,0,.1.193,1.093,1.093,0,0,0,.307.307,1.108,1.108,0,0,0,.193.1,1.057,1.057,0,0,0,.208.063,1.077,1.077,0,0,0,.435,0,1.057,1.057,0,0,0,.208-.063,1.107,1.107,0,0,0,.193-.1,1.093,1.093,0,0,0,.307-.307,1.107,1.107,0,0,0,.1-.193,1.057,1.057,0,0,0,.063-.208,1.077,1.077,0,0,0,0-.435A1.1,1.1,0,0,0,173.824,51.089Zm0,0" transform="translate(-152.568 -44.791)"/>
          <path id="Trazado_102516" data-name="Trazado 102516" d="M173.824,91.144a1.1,1.1,0,0,0-.1-.193,1.061,1.061,0,0,0-.138-.17,1.082,1.082,0,0,0-.169-.138,1.105,1.105,0,0,0-.193-.1,1.029,1.029,0,0,0-.208-.063,1.093,1.093,0,0,0-.435,0,1.029,1.029,0,0,0-.208.063,1.106,1.106,0,0,0-.193.1,1.082,1.082,0,0,0-.169.138,1.061,1.061,0,0,0-.138.17,1.1,1.1,0,0,0-.1.193,1.06,1.06,0,0,0-.063.209,1.077,1.077,0,0,0,0,.435,1.057,1.057,0,0,0,.063.208,1.1,1.1,0,0,0,.1.193,1.087,1.087,0,0,0,.307.308,1.108,1.108,0,0,0,.193.1,1.057,1.057,0,0,0,.208.063,1.077,1.077,0,0,0,.435,0,1.057,1.057,0,0,0,.208-.063,1.107,1.107,0,0,0,.193-.1,1.087,1.087,0,0,0,.307-.308,1.1,1.1,0,0,0,.1-.193,1.058,1.058,0,0,0,.063-.208,1.077,1.077,0,0,0,0-.435A1.062,1.062,0,0,0,173.824,91.144Zm0,0" transform="translate(-152.568 -80.386)"/>
          <path id="Trazado_102517" data-name="Trazado 102517" d="M173.824,131.195a1.1,1.1,0,0,0-.1-.193,1.087,1.087,0,0,0-.307-.308,1.134,1.134,0,0,0-.4-.166,1.092,1.092,0,0,0-.435,0,1.134,1.134,0,0,0-.4.166,1.087,1.087,0,0,0-.307.308,1.1,1.1,0,0,0-.1.193,1.056,1.056,0,0,0-.063.208,1.077,1.077,0,0,0,0,.435,1.047,1.047,0,0,0,.063.208,1.092,1.092,0,0,0,.1.193,1.061,1.061,0,0,0,.138.17,1.121,1.121,0,0,0,.362.24,1.029,1.029,0,0,0,.208.063,1.057,1.057,0,0,0,.435,0,1.029,1.029,0,0,0,.208-.063,1.121,1.121,0,0,0,.362-.24,1.061,1.061,0,0,0,.138-.17,1.092,1.092,0,0,0,.1-.193,1.048,1.048,0,0,0,.063-.208,1.077,1.077,0,0,0,0-.435A1.057,1.057,0,0,0,173.824,131.195Zm0,0" transform="translate(-152.568 -115.978)"/>
          <path id="Trazado_102518" data-name="Trazado 102518" d="M173.824,171.25a1.108,1.108,0,0,0-.1-.193,1.039,1.039,0,0,0-.138-.169,1.058,1.058,0,0,0-.169-.138,1.078,1.078,0,0,0-.193-.1,1.029,1.029,0,0,0-.208-.063,1.092,1.092,0,0,0-.435,0,1.029,1.029,0,0,0-.208.063,1.079,1.079,0,0,0-.193.1,1.058,1.058,0,0,0-.169.138,1.039,1.039,0,0,0-.138.169,1.108,1.108,0,0,0-.1.193,1.048,1.048,0,0,0-.063.208,1.117,1.117,0,0,0,.063.644,1.161,1.161,0,0,0,.1.192,1.093,1.093,0,0,0,.307.307,1.027,1.027,0,0,0,.193.1,1.156,1.156,0,0,0,.208.065,1.143,1.143,0,0,0,.435,0,1.156,1.156,0,0,0,.208-.065,1.026,1.026,0,0,0,.193-.1,1.093,1.093,0,0,0,.307-.307,1.161,1.161,0,0,0,.1-.192,1.1,1.1,0,0,0,.063-.21,1.077,1.077,0,0,0,0-.435A1.049,1.049,0,0,0,173.824,171.25Zm0,0" transform="translate(-152.568 -151.573)"/>
          <path id="Trazado_102519" data-name="Trazado 102519" d="M173.824,211.3a1.1,1.1,0,0,0-.1-.193,1.061,1.061,0,0,0-.138-.17,1.081,1.081,0,0,0-.169-.138,1.137,1.137,0,0,0-.193-.1,1.056,1.056,0,0,0-.208-.063,1.109,1.109,0,0,0-.435,0,1.057,1.057,0,0,0-.208.063,1.138,1.138,0,0,0-.193.1,1.082,1.082,0,0,0-.169.138,1.061,1.061,0,0,0-.138.17,1.1,1.1,0,0,0-.1.193,1.06,1.06,0,0,0-.063.209,1.074,1.074,0,0,0,0,.434,1.06,1.06,0,0,0,.063.209,1.1,1.1,0,0,0,.1.193,1.062,1.062,0,0,0,.138.17,1.083,1.083,0,0,0,.169.138,1.139,1.139,0,0,0,.193.1,1.058,1.058,0,0,0,.208.063,1.077,1.077,0,0,0,.435,0,1.057,1.057,0,0,0,.208-.063,1.138,1.138,0,0,0,.193-.1,1.083,1.083,0,0,0,.169-.138,1.062,1.062,0,0,0,.138-.17,1.1,1.1,0,0,0,.1-.193,1.062,1.062,0,0,0,.063-.209,1.075,1.075,0,0,0,0-.434A1.061,1.061,0,0,0,173.824,211.3Zm0,0" transform="translate(-152.568 -187.168)"/>
          <path id="Trazado_102520" data-name="Trazado 102520" d="M133.769,51.089a1.142,1.142,0,0,0-.1-.192,1.081,1.081,0,0,0-.138-.169,1.061,1.061,0,0,0-.17-.138,1.128,1.128,0,0,0-.192-.1,1.117,1.117,0,0,0-.644-.063,1.057,1.057,0,0,0-.208.063,1.1,1.1,0,0,0-.193.1,1.087,1.087,0,0,0-.308.307,1.144,1.144,0,0,0-.1.192,1.2,1.2,0,0,0-.063.21,1.077,1.077,0,0,0,0,.435,1.152,1.152,0,0,0,.063.208,1.108,1.108,0,0,0,.1.193,1.087,1.087,0,0,0,.308.307,1.1,1.1,0,0,0,.193.1,1.156,1.156,0,0,0,.208.065,1.143,1.143,0,0,0,.435,0,1.192,1.192,0,0,0,.21-.065,1.128,1.128,0,0,0,.192-.1,1.061,1.061,0,0,0,.17-.138,1.081,1.081,0,0,0,.138-.169,1.106,1.106,0,0,0,.1-.193,1.029,1.029,0,0,0,.063-.208,1.117,1.117,0,0,0-.063-.644Zm0,0" transform="translate(-116.972 -44.791)"/>
          <path id="Trazado_102521" data-name="Trazado 102521" d="M133.769,91.142a1.1,1.1,0,0,0-.1-.193,1.081,1.081,0,0,0-.308-.308,1.125,1.125,0,0,0-.192-.1,1.156,1.156,0,0,0-.21-.065,1.143,1.143,0,0,0-.435,0,1.123,1.123,0,0,0-.208.065,1.1,1.1,0,0,0-.193.1,1.085,1.085,0,0,0-.17.138,1.061,1.061,0,0,0-.138.17,1.1,1.1,0,0,0-.1.193,1.157,1.157,0,0,0-.063.209,1.077,1.077,0,0,0,0,.435,1.183,1.183,0,0,0,.063.209,1.128,1.128,0,0,0,.1.192,1.081,1.081,0,0,0,.308.308,1.1,1.1,0,0,0,.193.1,1.057,1.057,0,0,0,.208.063,1.077,1.077,0,0,0,.435,0,1.087,1.087,0,0,0,.21-.063,1.128,1.128,0,0,0,.192-.1,1.061,1.061,0,0,0,.17-.138,1.085,1.085,0,0,0,.138-.17,1.126,1.126,0,0,0,.1-.192,1.054,1.054,0,0,0,.063-.209,1.057,1.057,0,0,0,0-.435A1.033,1.033,0,0,0,133.769,91.142Zm0,0" transform="translate(-116.972 -80.383)"/>
          <path id="Trazado_102522" data-name="Trazado 102522" d="M133.769,131.195a1.1,1.1,0,0,0-.1-.193,1.085,1.085,0,0,0-.138-.17,1.061,1.061,0,0,0-.17-.138,1.128,1.128,0,0,0-.192-.1,1.117,1.117,0,0,0-.644-.063,1.057,1.057,0,0,0-.208.063,1.1,1.1,0,0,0-.193.1,1.081,1.081,0,0,0-.308.308,1.1,1.1,0,0,0-.1.193,1.152,1.152,0,0,0-.063.208,1.077,1.077,0,0,0,0,.435,1.142,1.142,0,0,0,.063.208,1.092,1.092,0,0,0,.1.193,1.061,1.061,0,0,0,.138.17,1.134,1.134,0,0,0,.362.24,1.029,1.029,0,0,0,.208.063,1.057,1.057,0,0,0,.435,0,1.058,1.058,0,0,0,.21-.063,1.1,1.1,0,0,0,.192-.1,1.1,1.1,0,0,0,.41-.5,1.02,1.02,0,0,0,.063-.208,1.057,1.057,0,0,0,0-.435A1.028,1.028,0,0,0,133.769,131.195Zm0,0" transform="translate(-116.972 -115.978)"/>
          <path id="Trazado_102523" data-name="Trazado 102523" d="M133.769,171.25a1.106,1.106,0,0,0-.1-.193,1.087,1.087,0,0,0-.308-.307,1.1,1.1,0,0,0-.192-.1,1.151,1.151,0,0,0-.21-.063,1.092,1.092,0,0,0-.435,0,1.118,1.118,0,0,0-.208.063,1.075,1.075,0,0,0-.193.1,1.061,1.061,0,0,0-.17.138,1.039,1.039,0,0,0-.138.169,1.108,1.108,0,0,0-.1.193,1.142,1.142,0,0,0-.063.208,1.077,1.077,0,0,0,0,.435,1.152,1.152,0,0,0,.063.208,1.123,1.123,0,0,0,.1.193,1.087,1.087,0,0,0,.308.307,1.1,1.1,0,0,0,.193.1,1.156,1.156,0,0,0,.208.065,1.143,1.143,0,0,0,.435,0,1.192,1.192,0,0,0,.21-.065,1.128,1.128,0,0,0,.192-.1,1.061,1.061,0,0,0,.17-.138,1.081,1.081,0,0,0,.138-.169,1.121,1.121,0,0,0,.1-.193,1.029,1.029,0,0,0,.063-.208,1.057,1.057,0,0,0,0-.435A1.02,1.02,0,0,0,133.769,171.25Zm0,0" transform="translate(-116.972 -151.573)"/>
          <path id="Trazado_102524" data-name="Trazado 102524" d="M133.769,211.3a1.1,1.1,0,0,0-.1-.193,1.081,1.081,0,0,0-.308-.308,1.159,1.159,0,0,0-.192-.1,1.087,1.087,0,0,0-.21-.063,1.109,1.109,0,0,0-.435,0,1.057,1.057,0,0,0-.208.063,1.133,1.133,0,0,0-.193.1,1.084,1.084,0,0,0-.17.138,1.061,1.061,0,0,0-.138.17,1.1,1.1,0,0,0-.1.193,1.156,1.156,0,0,0-.063.209,1.074,1.074,0,0,0,0,.434,1.157,1.157,0,0,0,.063.209,1.1,1.1,0,0,0,.1.193,1.062,1.062,0,0,0,.138.17,1.086,1.086,0,0,0,.17.138,1.134,1.134,0,0,0,.193.1,1.058,1.058,0,0,0,.208.063,1.077,1.077,0,0,0,.435,0,1.088,1.088,0,0,0,.21-.063,1.16,1.16,0,0,0,.192-.1,1.081,1.081,0,0,0,.308-.308,1.1,1.1,0,0,0,.1-.193,1.033,1.033,0,0,0,.063-.209,1.055,1.055,0,0,0,0-.434A1.032,1.032,0,0,0,133.769,211.3Zm0,0" transform="translate(-116.972 -187.168)"/>
          <path id="Trazado_102525" data-name="Trazado 102525" d="M93.714,51.092a1.144,1.144,0,0,0-.1-.192,1.087,1.087,0,0,0-.308-.307,1.1,1.1,0,0,0-.193-.1,1.057,1.057,0,0,0-.208-.063,1.123,1.123,0,0,0-1.006.3,1.055,1.055,0,0,0-.138.169,1.114,1.114,0,0,0-.1.192,1.087,1.087,0,0,0-.063.644,1.029,1.029,0,0,0,.063.208,1.079,1.079,0,0,0,.1.193,1.078,1.078,0,0,0,.307.307,1.092,1.092,0,0,0,.193.1,1.048,1.048,0,0,0,.208.063,1.077,1.077,0,0,0,.435,0,1.057,1.057,0,0,0,.208-.063,1.1,1.1,0,0,0,.193-.1,1.087,1.087,0,0,0,.308-.307,1.107,1.107,0,0,0,.1-.193,1.057,1.057,0,0,0,.063-.208,1.077,1.077,0,0,0,0-.435A1.1,1.1,0,0,0,93.714,51.092Zm0,0" transform="translate(-81.376 -44.794)"/>
          <path id="Trazado_102526" data-name="Trazado 102526" d="M93.714,91.146a1.1,1.1,0,0,0-.1-.193,1.061,1.061,0,0,0-.138-.17,1.085,1.085,0,0,0-.17-.138,1.1,1.1,0,0,0-.193-.1,1.113,1.113,0,0,0-1.214.24,1.059,1.059,0,0,0-.138.17,1.075,1.075,0,0,0-.1.193,1.033,1.033,0,0,0-.063.209,1.057,1.057,0,0,0,0,.435,1.054,1.054,0,0,0,.063.209,1.1,1.1,0,0,0,.1.192,1.059,1.059,0,0,0,.138.17,1.124,1.124,0,0,0,.788.327,1.111,1.111,0,0,0,.217-.022,1.057,1.057,0,0,0,.208-.063,1.1,1.1,0,0,0,.193-.1,1.081,1.081,0,0,0,.308-.308,1.128,1.128,0,0,0,.1-.192,1.083,1.083,0,0,0,.063-.209,1.077,1.077,0,0,0,0-.435A1.061,1.061,0,0,0,93.714,91.146Zm0,0" transform="translate(-81.376 -80.388)"/>
          <path id="Trazado_102527" data-name="Trazado 102527" d="M93.714,131.2a1.1,1.1,0,0,0-.1-.193,1.081,1.081,0,0,0-.308-.308,1.1,1.1,0,0,0-.193-.1,1.057,1.057,0,0,0-.208-.063,1.123,1.123,0,0,0-1.006.3,1.059,1.059,0,0,0-.138.17,1.075,1.075,0,0,0-.1.193,1.029,1.029,0,0,0-.063.208,1.057,1.057,0,0,0,0,.435,1.058,1.058,0,0,0,.063.21,1.1,1.1,0,0,0,.1.192,1.058,1.058,0,0,0,.138.17,1.126,1.126,0,0,0,.788.327,1.079,1.079,0,0,0,.217-.023,1.128,1.128,0,0,0,.4-.166,1.082,1.082,0,0,0,.17-.138,1.124,1.124,0,0,0,.327-.788,1.111,1.111,0,0,0-.022-.217A1.057,1.057,0,0,0,93.714,131.2Zm0,0" transform="translate(-81.376 -115.981)"/>
          <path id="Trazado_102528" data-name="Trazado 102528" d="M93.714,171.25a1.108,1.108,0,0,0-.1-.193,1.039,1.039,0,0,0-.138-.169,1.061,1.061,0,0,0-.17-.138,1.075,1.075,0,0,0-.193-.1,1.118,1.118,0,0,0-.208-.063,1.092,1.092,0,0,0-.435,0,1.108,1.108,0,0,0-.208.063,1.121,1.121,0,0,0-.363.241,1.036,1.036,0,0,0-.138.169,1.079,1.079,0,0,0-.1.193,1.02,1.02,0,0,0-.063.208,1.057,1.057,0,0,0,0,.435,1.029,1.029,0,0,0,.063.208,1.093,1.093,0,0,0,.1.193,1.055,1.055,0,0,0,.138.169,1.114,1.114,0,0,0,1.576,0,1.058,1.058,0,0,0,.138-.169,1.123,1.123,0,0,0,.1-.193,1.057,1.057,0,0,0,.063-.208,1.077,1.077,0,0,0,0-.435A1.048,1.048,0,0,0,93.714,171.25Zm0,0" transform="translate(-81.376 -151.573)"/>
          <path id="Trazado_102529" data-name="Trazado 102529" d="M93.714,211.3a1.1,1.1,0,0,0-.1-.193,1.061,1.061,0,0,0-.138-.17,1.085,1.085,0,0,0-.17-.138,1.128,1.128,0,0,0-.4-.166,1.123,1.123,0,0,0-1.006.3,1.059,1.059,0,0,0-.138.17,1.075,1.075,0,0,0-.1.193,1.032,1.032,0,0,0-.063.209,1.055,1.055,0,0,0,0,.434,1.033,1.033,0,0,0,.063.209,1.075,1.075,0,0,0,.1.193,1.059,1.059,0,0,0,.138.17,1.124,1.124,0,0,0,.788.327,1.112,1.112,0,0,0,.217-.022,1.057,1.057,0,0,0,.208-.063,1.134,1.134,0,0,0,.193-.1,1.087,1.087,0,0,0,.17-.138,1.123,1.123,0,0,0,.327-.788,1.107,1.107,0,0,0-.022-.217A1.061,1.061,0,0,0,93.714,211.3Zm0,0" transform="translate(-81.376 -187.169)"/>
          <path id="Trazado_102530" data-name="Trazado 102530" d="M53.663,51.09a1.079,1.079,0,0,0-.1-.193,1.058,1.058,0,0,0-.138-.169,1.039,1.039,0,0,0-.169-.138,1.108,1.108,0,0,0-.193-.1,1.048,1.048,0,0,0-.208-.063,1.093,1.093,0,0,0-.435,0,1.057,1.057,0,0,0-.208.063,1.123,1.123,0,0,0-.193.1,1.093,1.093,0,0,0-.307.307,1.108,1.108,0,0,0-.1.193,1.057,1.057,0,0,0-.063.208,1.077,1.077,0,0,0,0,.435,1.1,1.1,0,0,0,.063.21,1.144,1.144,0,0,0,.1.192,1.058,1.058,0,0,0,.138.169,1.123,1.123,0,0,0,.788.327,1.106,1.106,0,0,0,.217-.021,1.146,1.146,0,0,0,.208-.065,1.108,1.108,0,0,0,.193-.1,1.039,1.039,0,0,0,.169-.138,1.058,1.058,0,0,0,.138-.169,1.113,1.113,0,0,0,.1-.192,1.1,1.1,0,0,0,.063-.21,1.057,1.057,0,0,0,0-.435A1.057,1.057,0,0,0,53.663,51.09Zm0,0" transform="translate(-45.784 -44.791)"/>
          <path id="Trazado_102531" data-name="Trazado 102531" d="M53.663,91.146a1.075,1.075,0,0,0-.1-.193,1.087,1.087,0,0,0-.307-.308,1.106,1.106,0,0,0-.193-.1,1.02,1.02,0,0,0-.208-.063,1.123,1.123,0,0,0-1.005.3,1.061,1.061,0,0,0-.138.17,1.1,1.1,0,0,0-.1.193,1.061,1.061,0,0,0-.063.209,1.077,1.077,0,0,0,0,.435,1.057,1.057,0,0,0,.063.208,1.1,1.1,0,0,0,.1.193,1.061,1.061,0,0,0,.138.17,1.123,1.123,0,0,0,.788.327,1.108,1.108,0,0,0,.217-.022,1.048,1.048,0,0,0,.208-.063,1.108,1.108,0,0,0,.193-.1,1.039,1.039,0,0,0,.169-.138,1.061,1.061,0,0,0,.138-.17,1.075,1.075,0,0,0,.1-.193,1.057,1.057,0,0,0,.063-.208,1.057,1.057,0,0,0,0-.435A1.061,1.061,0,0,0,53.663,91.146Zm0,0" transform="translate(-45.784 -80.388)"/>
          <path id="Trazado_102532" data-name="Trazado 102532" d="M53.663,131.195a1.075,1.075,0,0,0-.1-.193,1.061,1.061,0,0,0-.138-.17,1.039,1.039,0,0,0-.169-.138,1.158,1.158,0,0,0-.4-.167,1.125,1.125,0,0,0-1.005.305,1.061,1.061,0,0,0-.138.17,1.1,1.1,0,0,0-.1.193,1.057,1.057,0,0,0-.063.208,1.077,1.077,0,0,0,0,.435,1.087,1.087,0,0,0,.063.21,1.128,1.128,0,0,0,.1.192,1.061,1.061,0,0,0,.138.17,1.08,1.08,0,0,0,.169.138,1.093,1.093,0,0,0,.193.1,1.029,1.029,0,0,0,.208.063,1.057,1.057,0,0,0,.435,0,1.02,1.02,0,0,0,.208-.063,1.078,1.078,0,0,0,.193-.1,1.078,1.078,0,0,0,.307-.307,1.108,1.108,0,0,0,.166-.4,1.057,1.057,0,0,0,0-.435A1.057,1.057,0,0,0,53.663,131.195Zm0,0" transform="translate(-45.784 -115.978)"/>
          <path id="Trazado_102533" data-name="Trazado 102533" d="M53.663,171.253a1.079,1.079,0,0,0-.1-.193,1.093,1.093,0,0,0-.307-.307,1.078,1.078,0,0,0-.193-.1,1.02,1.02,0,0,0-.208-.063,1.122,1.122,0,0,0-1.005.3,1.039,1.039,0,0,0-.138.169,1.108,1.108,0,0,0-.1.193,1.048,1.048,0,0,0-.063.208,1.077,1.077,0,0,0,0,.435,1.057,1.057,0,0,0,.063.208,1.123,1.123,0,0,0,.1.193,1.058,1.058,0,0,0,.138.169,1.123,1.123,0,0,0,.788.327,1.108,1.108,0,0,0,.217-.022,1.049,1.049,0,0,0,.208-.063,1.108,1.108,0,0,0,.193-.1,1.039,1.039,0,0,0,.169-.138,1.058,1.058,0,0,0,.138-.169,1.094,1.094,0,0,0,.1-.193,1.057,1.057,0,0,0,.063-.208,1.057,1.057,0,0,0,0-.435A1.048,1.048,0,0,0,53.663,171.253Zm0,0" transform="translate(-45.784 -151.577)"/>
          <path id="Trazado_102534" data-name="Trazado 102534" d="M53.663,211.3a1.075,1.075,0,0,0-.1-.193,1.087,1.087,0,0,0-.307-.308,1.134,1.134,0,0,0-.4-.166,1.109,1.109,0,0,0-.435,0,1.134,1.134,0,0,0-.4.166,1.081,1.081,0,0,0-.169.138,1.061,1.061,0,0,0-.138.17,1.1,1.1,0,0,0-.1.193,1.061,1.061,0,0,0-.063.209,1.075,1.075,0,0,0,0,.434,1.087,1.087,0,0,0,.063.21,1.127,1.127,0,0,0,.1.192,1.062,1.062,0,0,0,.138.17,1.083,1.083,0,0,0,.169.138,1.155,1.155,0,0,0,.193.1,1.058,1.058,0,0,0,.208.063,1.077,1.077,0,0,0,.435,0,1.049,1.049,0,0,0,.208-.063,1.138,1.138,0,0,0,.193-.1,1.087,1.087,0,0,0,.307-.308,1.108,1.108,0,0,0,.166-.4,1.055,1.055,0,0,0,0-.434A1.061,1.061,0,0,0,53.663,211.3Zm0,0" transform="translate(-45.784 -187.168)"/>
          <path id="Trazado_102535" data-name="Trazado 102535" d="M265.722,191.312a1.1,1.1,0,0,0-.021-.217,1.109,1.109,0,0,0-.306-.571,1.055,1.055,0,0,0-.169-.138,1.112,1.112,0,0,0-.192-.1,1.163,1.163,0,0,0-.209-.063,1.1,1.1,0,0,0-.436,0,1.108,1.108,0,0,0-.208.063,1.079,1.079,0,0,0-.193.1,1.079,1.079,0,0,0-.307.307,1.152,1.152,0,0,0-.1.193,1.122,1.122,0,0,0-.063.209,1.106,1.106,0,0,0-.022.217,1.125,1.125,0,0,0,.022.218,1.115,1.115,0,0,0,.166.4,1.061,1.061,0,0,0,.138.17,1.04,1.04,0,0,0,.169.139,1.08,1.08,0,0,0,.193.1,1.119,1.119,0,0,0,.208.063,1.075,1.075,0,0,0,.217.021,1.092,1.092,0,0,0,.218-.021,1.165,1.165,0,0,0,.209-.063,1.113,1.113,0,0,0,.192-.1,1.04,1.04,0,0,0,.169-.139,1.147,1.147,0,0,0,.14-.17,1.128,1.128,0,0,0,.1-.192,1.173,1.173,0,0,0,.063-.208A1.123,1.123,0,0,0,265.722,191.312Zm0,0" transform="translate(-234.159 -169.024)"/>
        </g>
      </g>
      <text id="Proceso_de_confección_Hilo_tela_costuras" data-name="Proceso de confección
Hilo, tela, costuras" transform="translate(516 5993.5)" fill="#12263f" font-size="18" font-family="Roboto-Black, Roboto" font-weight="800"><tspan x="0" y="17">Proceso de confección</tspan><tspan font-size="16" font-family="Roboto-Regular, Roboto" font-weight="400"><tspan x="0" y="41">Hilo, tela, costuras</tspan></tspan></text>
    </g>
    <g id="Grupo_58700" data-name="Grupo 58700" transform="translate(282.5 7)">
      <rect id="Rectángulo_5741" data-name="Rectángulo 5741" width="408" height="90" rx="5" transform="translate(403 6070.315)" fill="#fff"/>
      <rect id="Rectángulo_5742" data-name="Rectángulo 5742" width="93.857" height="90" rx="5" transform="translate(403 6070.315)" fill="#f2e7eb"/>
      <g id="Grupo_58696" data-name="Grupo 58696" transform="translate(-39 301.814)">
        <rect id="Rectángulo_5736-4" data-name="Rectángulo 5736" width="70" height="70" transform="translate(454 5780)" fill="none"/>
        <g id="outline" transform="translate(459 5785.186)">
          <path id="Trazado_102536" data-name="Trazado 102536" d="M41.849,8.4a2.78,2.78,0,0,0-.706-5.47H38.357V2H32.786V3.857H27.214V2H21.643v.929H18.857a2.78,2.78,0,0,0-.706,5.47A26.437,26.437,0,0,0,4,31.714a26,26,0,1,0,52,0A26.437,26.437,0,0,0,41.849,8.4ZM38.357,4.786h2.786a.929.929,0,0,1,0,1.857H38.357Zm-3.714-.929H36.5v7.429H34.643ZM27.214,5.714h5.571V7.571H27.214ZM23.5,3.857h1.857v7.429H23.5Zm3.714,9.286V9.429h5.571v3.714h5.571v-.464A21.171,21.171,0,0,1,50.429,31.714a20.429,20.429,0,1,1-40.857,0A21.171,21.171,0,0,1,21.643,12.679v.464ZM17.929,5.714a.929.929,0,0,1,.929-.929h2.786V6.643H18.857A.929.929,0,0,1,17.929,5.714ZM30,55.857A24.17,24.17,0,0,1,5.857,31.714,24.5,24.5,0,0,1,21.643,8.871v1.783A23.017,23.017,0,0,0,7.714,31.714a22.286,22.286,0,0,0,44.571,0A23.017,23.017,0,0,0,38.357,10.651V8.871A24.5,24.5,0,0,1,54.143,31.714,24.17,24.17,0,0,1,30,55.857Z"/>
          <path id="Trazado_102537" data-name="Trazado 102537" d="M46.793,29.23l-3.986,3.986-1.2-1.2-1.313,1.313,6.5,6.5,1.313-1.313-1.2-1.2,3.986-3.986a2.9,2.9,0,0,0,0-4.1,2.965,2.965,0,0,0-4.1,0ZM45.592,36,44.12,34.529l2.4-2.4L47.994,33.6Zm3.986-3.986-.272.272-1.473-1.473.272-.272a1.061,1.061,0,0,1,1.473,0A1.043,1.043,0,0,1,49.579,32.015Z" transform="translate(-2.592 -1.886)"/>
          <path id="Trazado_102538" data-name="Trazado 102538" d="M36.908,36.606l1.2,1.2-4.915,4.915c-.828.828-1.114,3.279-1.2,4.294L31.9,48.109,33,48.016c1.015-.084,3.465-.371,4.294-1.2l4.918-4.914,1.2,1.2,1.313-1.313-6.5-6.5Zm3.986,3.986L35.986,45.5a6.162,6.162,0,0,1-2.006.534,6.36,6.36,0,0,1,.524-2l4.918-4.915Z" transform="translate(-1.993 -2.378)"/>
          <path id="Trazado_102539" data-name="Trazado 102539" d="M27.071,41.714H17.786a.929.929,0,0,1-.929-.929V38H15v2.786a2.786,2.786,0,0,0,2.786,2.786h9.286a.929.929,0,0,1,0,1.857h-.929a2.786,2.786,0,1,0,0,5.571H28V49.143H26.143a.929.929,0,1,1,0-1.857h.929a2.786,2.786,0,1,0,0-5.571Z" transform="translate(-0.786 -2.571)"/>
          <path id="Trazado_102540" data-name="Trazado 102540" d="M32,52h1.857v1.857H32Z" transform="translate(-2 -3.571)"/>
          <path id="Trazado_102541" data-name="Trazado 102541" d="M36,52h1.857v1.857H36Z" transform="translate(-2.286 -3.571)"/>
          <path id="Trazado_102542" data-name="Trazado 102542" d="M24.571,29H19v2.786A3.714,3.714,0,0,0,22.714,35.5h5.571V32.714A3.714,3.714,0,0,0,24.571,29Zm1.857,4.643H22.714a1.857,1.857,0,0,1-1.857-1.857v-.929h3.714a1.857,1.857,0,0,1,1.857,1.857Z" transform="translate(-1.071 -1.929)"/>
          <path id="Trazado_102543" data-name="Trazado 102543" d="M20,22.786A3.714,3.714,0,0,0,23.714,26.5h3.714V23.714A3.714,3.714,0,0,0,23.714,20H20Zm1.857-.929h1.857a1.857,1.857,0,0,1,1.857,1.857v.929H23.714a1.857,1.857,0,0,1-1.857-1.857Z" transform="translate(-1.143 -1.286)"/>
          <path id="Trazado_102544" data-name="Trazado 102544" d="M38.286,27.786V25H32.714A3.714,3.714,0,0,0,29,28.714V31.5h5.571A3.714,3.714,0,0,0,38.286,27.786Zm-7.429.929a1.857,1.857,0,0,1,1.857-1.857h3.714v.929a1.857,1.857,0,0,1-1.857,1.857H30.857Z" transform="translate(-1.786 -1.643)"/>
          <path id="Trazado_102545" data-name="Trazado 102545" d="M47.327,25.543l1.74-.65A16.664,16.664,0,0,0,38.208,15.03l-.452,1.8C37.826,16.848,44.754,18.681,47.327,25.543Z" transform="translate(-2.411 -0.931)"/>
        </g>
      </g>
      <text id="Proceso_de_intervención_Estampados_bordados_lavandería_etc._" data-name="Proceso de intervención
Estampados, bordados, lavandería, etc. " transform="translate(516 6094.5)" fill="#12263f" font-size="18" font-family="Roboto-Black, Roboto" font-weight="800"><tspan x="0" y="17">Proceso de intervención</tspan><tspan font-size="16" font-family="Roboto-Regular, Roboto" font-weight="400"><tspan x="0" y="41">Estampados, bordados, lavandería, etc. </tspan></tspan></text>
    </g>
    <g id="Grupo_58701" data-name="Grupo 58701" transform="translate(388 9)">
      <rect id="Rectángulo_5744" data-name="Rectángulo 5744" width="408" height="90" rx="5" transform="translate(403 6171.315)" fill="#fff"/>
      <rect id="Rectángulo_5743" data-name="Rectángulo 5743" width="93.857" height="90" rx="5" transform="translate(403 6171.315)" fill="#f2e7eb"/>
      <g id="Grupo_58697" data-name="Grupo 58697" transform="translate(-39 401.315)">
        <rect id="Rectángulo_5736-5" data-name="Rectángulo 5736" width="70" height="70" transform="translate(454 5780)" fill="none"/>
        <g id="planchar_1_" data-name="planchar (1)" transform="translate(463.833 5756.786)">
          <path id="Trazado_102546" data-name="Trazado 102546" d="M48.124,69.2H44.194l-.5-1.5h1.009a.737.737,0,0,0,.737-.737c0-2.324.839-3.63,2.719-4.237a.737.737,0,0,0,.492-.867l-1.92-8.335a4.51,4.51,0,0,0,3.6-4.41,5.216,5.216,0,0,0-5.21-5.21H35.172a2.89,2.89,0,1,1,0-5.78h9.949a.737.737,0,1,0,0-1.475H35.172a4.364,4.364,0,1,0,0,8.729h9.951a3.74,3.74,0,0,1,3.735,3.735,3.032,3.032,0,0,1-2.477,2.977A6.2,6.2,0,0,0,40.554,47.8H36.693a.737.737,0,1,0,0,1.475h3.844a4.735,4.735,0,0,1,4.571,3.749c0,.012,0,.023.008.035l1.959,8.507A5.115,5.115,0,0,0,44,66.227H12.508a.737.737,0,0,0,0,1.475H42.145l.5,1.5H6.346l-.5-1.5H9.095a.737.737,0,0,0,0-1.475H4.248a24.079,24.079,0,0,1,2.685-6.064h8.759a2.8,2.8,0,0,0,2.794-2.794V55.81a.737.737,0,0,0-.737-.737H11.166q.231-.209.467-.412a22.414,22.414,0,0,1,14.792-5.387h6.781a.737.737,0,1,0,0-1.475H26.425a23.87,23.87,0,0,0-15.751,5.742,25.464,25.464,0,0,0-8.1,13.249.737.737,0,0,0,.717.911H4.3l.5,1.5H2.209a2.212,2.212,0,0,0,0,4.424H7.358V79.04a.737.737,0,0,0,.737.737H33.985a.737.737,0,0,0,0-1.475H8.832v-7.63H41.5V78.3H37.375a.737.737,0,0,0,0,1.475h4.863a.737.737,0,0,0,.737-.737V73.623h5.149a2.212,2.212,0,0,0,0-4.424ZM9.678,56.547h7.334v.821a1.321,1.321,0,0,1-1.319,1.319H7.924a23.753,23.753,0,0,1,1.754-2.14Zm-7.468,15.6a.738.738,0,0,1,0-1.475H7.358v1.475Zm45.915,0H42.976V70.673h5.149a.738.738,0,0,1,0,1.475Z"/>
          <path id="Trazado_102547" data-name="Trazado 102547" d="M295.7,188.017v4.722a3.248,3.248,0,0,0,3.245,3.245h10.907a.737.737,0,0,0,.716-.913l-1.3-5.318a3.237,3.237,0,0,0-3.152-2.473h-9.677a.737.737,0,0,0-.737.737Zm5.653,6.492v-1.432h3.2v1.432Zm-4.179-5.755h8.94a1.766,1.766,0,0,1,1.719,1.349l1.078,4.406h-2.886V192.34a.737.737,0,0,0-.737-.737h-4.673a.737.737,0,0,0-.737.737v2.169h-.934a1.772,1.772,0,0,1-1.77-1.77Z" transform="translate(-266.631 -135.822)"/>
          <path id="Trazado_102548" data-name="Trazado 102548" d="M94.795,93.744a.737.737,0,0,0,1.475,0,.961.961,0,0,1,.322-.716,2.407,2.407,0,0,0,0-3.314.958.958,0,0,1,0-1.433,2.373,2.373,0,0,0,.661-1.657.737.737,0,0,0-1.475,0,.961.961,0,0,1-.322.716,2.407,2.407,0,0,0,0,3.314.958.958,0,0,1,0,1.433,2.373,2.373,0,0,0-.661,1.657Z" transform="translate(-85.476 -44.396)"/>
          <path id="Trazado_102549" data-name="Trazado 102549" d="M147.748,63.744a.737.737,0,0,0,1.475,0,.961.961,0,0,1,.322-.716,2.407,2.407,0,0,0,0-3.314.958.958,0,0,1,0-1.433,2.373,2.373,0,0,0,.661-1.657.737.737,0,0,0-1.475,0,.961.961,0,0,1-.322.716,2.407,2.407,0,0,0,0,3.314.958.958,0,0,1,0,1.433A2.373,2.373,0,0,0,147.748,63.744Z" transform="translate(-133.223 -17.345)"/>
          <path id="Trazado_102550" data-name="Trazado 102550" d="M41.842,133.368a.737.737,0,0,0,1.475,0,.961.961,0,0,1,.322-.716,2.407,2.407,0,0,0,0-3.314.958.958,0,0,1,0-1.433,2.373,2.373,0,0,0,.661-1.657.737.737,0,1,0-1.475,0,.961.961,0,0,1-.322.716,2.407,2.407,0,0,0,0,3.314.958.958,0,0,1,0,1.433A2.373,2.373,0,0,0,41.842,133.368Z" transform="translate(-37.729 -80.124)"/>
        </g>
      </g>
      <text id="Proceso_de_terminación_Limpieza_pulir_planchado_y_empaque." data-name="Proceso de terminación
Limpieza (pulir), planchado y empaque." transform="translate(514 6193.815)" fill="#12263f" font-size="18" font-family="Roboto-Black, Roboto" font-weight="800"><tspan x="0" y="17">Proceso de terminación</tspan><tspan font-size="16" font-family="Roboto-Regular, Roboto" font-weight="400"><tspan x="0" y="41">Limpieza (pulir), planchado y empaque.</tspan></tspan></text>
    </g>
    <g id="Grupo_58704" data-name="Grupo 58704">
      <circle id="Elipse_247" data-name="Elipse 247" cx="20.5" cy="20.5" r="20.5" transform="translate(800 5789)" fill="#f2e7eb"/>
      <g id="right-arrow_1_" data-name="right-arrow (1)" transform="translate(870.846 5798.682) rotate(90)">
        <g id="Grupo_57503" data-name="Grupo 57503" transform="translate(0 41.346)">
          <path id="Trazado_101707" data-name="Trazado 101707" d="M21.291,49.505l-7.814-7.814a1.188,1.188,0,0,0-1.675,0l-.709.71a1.175,1.175,0,0,0-.346.837,1.2,1.2,0,0,0,.346.847l4.558,4.568H1.169A1.156,1.156,0,0,0,0,49.818v1a1.2,1.2,0,0,0,1.169,1.216H15.7l-4.61,4.594a1.173,1.173,0,0,0,0,1.663L11.8,59a1.188,1.188,0,0,0,1.675,0l7.814-7.814a1.194,1.194,0,0,0,0-1.681Z" transform="translate(0 -41.346)" fill="#12263f"/>
        </g>
      </g>
    </g>
    <g id="Grupo_58705" data-name="Grupo 58705" transform="translate(51 108)">
      <circle id="Elipse_247-2" data-name="Elipse 247" cx="20.5" cy="20.5" r="20.5" transform="translate(800 5789)" fill="#f2e7eb"/>
      <g id="right-arrow_1_2" data-name="right-arrow (1)" transform="translate(870.846 5798.682) rotate(90)">
        <g id="Grupo_57503-2" data-name="Grupo 57503" transform="translate(0 41.346)">
          <path id="Trazado_101707-2" data-name="Trazado 101707" d="M21.291,49.505l-7.814-7.814a1.188,1.188,0,0,0-1.675,0l-.709.71a1.175,1.175,0,0,0-.346.837,1.2,1.2,0,0,0,.346.847l4.558,4.568H1.169A1.156,1.156,0,0,0,0,49.818v1a1.2,1.2,0,0,0,1.169,1.216H15.7l-4.61,4.594a1.173,1.173,0,0,0,0,1.663L11.8,59a1.188,1.188,0,0,0,1.675,0l7.814-7.814a1.194,1.194,0,0,0,0-1.681Z" transform="translate(0 -41.346)" fill="#12263f"/>
        </g>
      </g>
    </g>
    <g id="Grupo_58706" data-name="Grupo 58706" transform="translate(170 206)">
      <circle id="Elipse_247-3" data-name="Elipse 247" cx="20.5" cy="20.5" r="20.5" transform="translate(800 5789)" fill="#f2e7eb"/>
      <g id="right-arrow_1_3" data-name="right-arrow (1)" transform="translate(870.846 5798.682) rotate(90)">
        <g id="Grupo_57503-3" data-name="Grupo 57503" transform="translate(0 41.346)">
          <path id="Trazado_101707-3" data-name="Trazado 101707" d="M21.291,49.505l-7.814-7.814a1.188,1.188,0,0,0-1.675,0l-.709.71a1.175,1.175,0,0,0-.346.837,1.2,1.2,0,0,0,.346.847l4.558,4.568H1.169A1.156,1.156,0,0,0,0,49.818v1a1.2,1.2,0,0,0,1.169,1.216H15.7l-4.61,4.594a1.173,1.173,0,0,0,0,1.663L11.8,59a1.188,1.188,0,0,0,1.675,0l7.814-7.814a1.194,1.194,0,0,0,0-1.681Z" transform="translate(0 -41.346)" fill="#12263f"/>
        </g>
      </g>
    </g>
    <g id="Grupo_58707" data-name="Grupo 58707" transform="translate(273 313)">
      <circle id="Elipse_247-4" data-name="Elipse 247" cx="20.5" cy="20.5" r="20.5" transform="translate(800 5789)" fill="#f2e7eb"/>
      <g id="right-arrow_1_4" data-name="right-arrow (1)" transform="translate(870.846 5798.682) rotate(90)">
        <g id="Grupo_57503-4" data-name="Grupo 57503" transform="translate(0 41.346)">
          <path id="Trazado_101707-4" data-name="Trazado 101707" d="M21.291,49.505l-7.814-7.814a1.188,1.188,0,0,0-1.675,0l-.709.71a1.175,1.175,0,0,0-.346.837,1.2,1.2,0,0,0,.346.847l4.558,4.568H1.169A1.156,1.156,0,0,0,0,49.818v1a1.2,1.2,0,0,0,1.169,1.216H15.7l-4.61,4.594a1.173,1.173,0,0,0,0,1.663L11.8,59a1.188,1.188,0,0,0,1.675,0l7.814-7.814a1.194,1.194,0,0,0,0-1.681Z" transform="translate(0 -41.346)" fill="#12263f"/>
        </g>
      </g>
    </g>
    <g id="Grupo_58708" data-name="Grupo 58708" transform="translate(379 416)">
      <circle id="Elipse_247-5" data-name="Elipse 247" cx="20.5" cy="20.5" r="20.5" transform="translate(800 5789)" fill="#f2e7eb"/>
      <g id="right-arrow_1_5" data-name="right-arrow (1)" transform="translate(870.846 5798.682) rotate(90)">
        <g id="Grupo_57503-5" data-name="Grupo 57503" transform="translate(0 41.346)">
          <path id="Trazado_101707-5" data-name="Trazado 101707" d="M21.291,49.505l-7.814-7.814a1.188,1.188,0,0,0-1.675,0l-.709.71a1.175,1.175,0,0,0-.346.837,1.2,1.2,0,0,0,.346.847l4.558,4.568H1.169A1.156,1.156,0,0,0,0,49.818v1a1.2,1.2,0,0,0,1.169,1.216H15.7l-4.61,4.594a1.173,1.173,0,0,0,0,1.663L11.8,59a1.188,1.188,0,0,0,1.675,0l7.814-7.814a1.194,1.194,0,0,0,0-1.681Z" transform="translate(0 -41.346)" fill="#12263f"/>
        </g>
      </g>
    </g>
  </g>
</svg>
