<svg xmlns="http://www.w3.org/2000/svg" width="118.494" height="112.824" viewBox="0 0 118.494 112.824">
  <g id="Grupo_1042733" data-name="Grupo 1042733" transform="translate(-1059 -1368)">
    <path id="Trazado_732493" data-name="Trazado 732493" d="M10,0h98.494a10,10,0,0,1,10,10v92.823a10,10,0,0,1-10,10H10a10,10,0,0,1-10-10V10A10,10,0,0,1,10,0Z" transform="translate(1059 1368)" fill="#9f0925"/>
    <g id="_29-sewing" data-name="29-sewing" transform="translate(1074.002 1379.998)">
      <path id="Trazado_771445" data-name="Trazado 771445" d="M76.126,57v7.969H23V62.313A5.313,5.313,0,0,1,28.313,57Z" transform="translate(7.548 18.704)" fill="#cfcfcf"/>
      <ellipse id="Elipse_8059" data-name="Elipse 8059" cx="4.124" cy="3.749" rx="4.124" ry="3.749" transform="translate(70.48 49.487)" fill="#58dff5"/>
      <circle id="Elipse_8060" data-name="Elipse 8060" cx="4.124" cy="4.124" r="4.124" transform="translate(70.48 62.234)" fill="#58dff5"/>
      <path id="Trazado_771446" data-name="Trazado 771446" d="M51,27h7.969v7.969H51Z" transform="translate(16.736 8.86)" fill="#fb9881"/>
      <path id="Trazado_771447" data-name="Trazado 771447" d="M39,27h7.969v7.969H39Z" transform="translate(12.798 8.86)" fill="#55d0f2"/>
      <path id="Trazado_771448" data-name="Trazado 771448" d="M42.281,33H68.844a5.313,5.313,0,0,1,5.313,5.313V64.875H55.563V46.281H44.938v2.656a5.313,5.313,0,0,1-5.313,5.313H34.313A5.313,5.313,0,0,1,29,48.938V38.313A5.313,5.313,0,0,1,34.313,33Zm26.563,9.3a3.984,3.984,0,1,0-3.984,3.984A3.984,3.984,0,0,0,68.844,42.3Zm0,13.281a3.984,3.984,0,1,0-3.984,3.984,3.984,3.984,0,0,0,3.984-3.984Z" transform="translate(9.517 10.829)" fill="#f0f0f0"/>
      <path id="Trazado_771449" data-name="Trazado 771449" d="M59.984,33H56a5.313,5.313,0,0,1,5.313,5.313V64.875H65.3V38.313A5.313,5.313,0,0,0,59.984,33Z" transform="translate(18.376 10.829)" fill="#f7f7f7"/>
      <path id="Trazado_771450" data-name="Trazado 771450" d="M32.281,58.446H19v-42.5l5.313,5.313,7.836-9.138,2.4.863a6.452,6.452,0,0,1,4.728,2.842,6.351,6.351,0,0,1,1.076,3.188l1.3,20.839H37.594a5.313,5.313,0,0,0-5.313,5.313V55.789a5.347,5.347,0,0,0,.638,2.523Z" transform="translate(6.235 3.977)" fill="#0ce6ea"/>
      <path id="Trazado_771451" data-name="Trazado 771451" d="M32.149,12.566,24.313,21.7,19,16.391l7.969-5.313.12-.319Z" transform="translate(6.235 3.531)" fill="#fcfcfc"/>
      <path id="Trazado_771452" data-name="Trazado 771452" d="M29.236,12.641l-7.969,5.313L12.09,12.707,14.2,11.95a2.671,2.671,0,0,0,1.753-2.51V8.656A2.664,2.664,0,0,1,18.611,6h5.313A2.664,2.664,0,0,1,26.58,8.656V9.44a2.671,2.671,0,0,0,1.753,2.51l1.023.372Z" transform="translate(3.968 1.969)" fill="#e4e4e4"/>
      <path id="Trazado_771453" data-name="Trazado 771453" d="M22.313,47V68.25H17V47h5.313Z" transform="translate(5.579 15.423)" fill="#adadad"/>
      <path id="Trazado_771454" data-name="Trazado 771454" d="M17,1h5.313V7.641H17Z" transform="translate(5.579 0.328)" fill="#adadad"/>
      <path id="Trazado_771455" data-name="Trazado 771455" d="M11.543,54.376H1.25L3.468,18.928A6.351,6.351,0,0,1,4.544,15.74,6.452,6.452,0,0,1,9.272,12.9l1.448-.518,8.792,8.792,5.313-5.313v42.5H11.543Z" transform="translate(0.411 4.062)" fill="#0ce6ea"/>
      <path id="Trazado_771456" data-name="Trazado 771456" d="M22.485,16.3l-5.313,5.313L8.38,12.816l4.927-1.766Z" transform="translate(2.75 3.626)" fill="#fcfcfc"/>
      <path id="Trazado_771457" data-name="Trazado 771457" d="M11.625,47.984v1.328H1L1.332,44H11.625Z" transform="translate(0.329 14.438)" fill="#fcfcfc"/>
      <path id="Trazado_771458" data-name="Trazado 771458" d="M56.984,42.82A3.971,3.971,0,0,1,53.066,39.5a4.048,4.048,0,0,0-.066.665,3.984,3.984,0,0,0,7.969,0A4.046,4.046,0,0,0,60.9,39.5,3.971,3.971,0,0,1,56.984,42.82Z" transform="translate(17.392 12.961)" fill="#50b6f4"/>
      <path id="Trazado_771459" data-name="Trazado 771459" d="M56.984,52.82A3.971,3.971,0,0,1,53.066,49.5a4.048,4.048,0,0,0-.066.665,3.984,3.984,0,0,0,7.969,0A4.047,4.047,0,0,0,60.9,49.5a3.971,3.971,0,0,1-3.918,3.32Z" transform="translate(17.392 16.243)" fill="#50b6f4"/>
      <path id="Trazado_771460" data-name="Trazado 771460" d="M35.328,56.969,34,49h2.656Z" transform="translate(11.157 16.079)" fill="#f0f0f0"/>
      <path id="Trazado_771461" data-name="Trazado 771461" d="M49,43V61.594h2.656V45.656A2.656,2.656,0,0,0,49,43Z" transform="translate(16.08 14.11)" fill="#d9d9d9"/>
      <path id="Trazado_771462" data-name="Trazado 771462" d="M33.622,51.461a5.347,5.347,0,0,1-.638-2.523V38.313A5.313,5.313,0,0,1,38.3,33H34.313A5.313,5.313,0,0,0,29,38.313V48.938a5.313,5.313,0,0,0,5.313,5.313H38.3A5.319,5.319,0,0,1,33.622,51.461Z" transform="translate(9.517 10.829)" fill="#cfcfcf"/>
      <path id="Trazado_771463" data-name="Trazado 771463" d="M42.969,43a2.656,2.656,0,0,0-2.656,2.656A5.313,5.313,0,0,1,35,50.969h2.656a5.313,5.313,0,0,0,5.313-5.313Z" transform="translate(11.486 14.11)" fill="#d9d9d9"/>
      <path id="Trazado_771464" data-name="Trazado 771464" d="M56.313,29.656h2.656V27H51v7.969h2.656V32.313A2.656,2.656,0,0,1,56.313,29.656Z" transform="translate(16.736 8.86)" fill="#fe7b83"/>
      <path id="Trazado_771465" data-name="Trazado 771465" d="M44.313,29.656h2.656V27H39v7.969h2.656V32.313A2.656,2.656,0,0,1,44.313,29.656Z" transform="translate(12.798 8.86)" fill="#50b6f4"/>
      <path id="Trazado_771466" data-name="Trazado 771466" d="M32.3,59.656H76.126V57H28.313A5.313,5.313,0,0,0,23,62.313v2.656h5.313V63.641A3.984,3.984,0,0,1,32.3,59.656Z" transform="translate(7.548 18.704)" fill="#d9d9d9"/>
      <path id="Trazado_771467" data-name="Trazado 771467" d="M19.656,68.25V52.313a2.656,2.656,0,0,1,2.656-2.656V47H17V68.25Z" transform="translate(5.579 15.423)" fill="#848484"/>
      <path id="Trazado_771468" data-name="Trazado 771468" d="M19.656,1V2.328a2.656,2.656,0,0,0,2.656,2.656V7.641H17V1Z" transform="translate(5.579 0.328)" fill="#848484"/>
      <path id="Trazado_771469" data-name="Trazado 771469" d="M1.291,44l-.166,2.656H6.272a2.656,2.656,0,0,1,2.656,2.656h2.656V44Z" transform="translate(0.37 14.438)" fill="#f0f0f0"/>
      <path id="Trazado_771470" data-name="Trazado 771470" d="M19,17V56.844h1.328V18.328Z" transform="translate(6.235 5.578)" fill="#ffc69e"/>
      <path id="Trazado_771471" data-name="Trazado 771471" d="M30.361,24A1.361,1.361,0,0,0,29,25.361v15.9a5.312,5.312,0,0,1,3.273-4.9l-.552-11.068A1.363,1.363,0,0,0,30.361,24Z" transform="translate(9.517 7.875)" fill="#1448d3"/>
      <path id="Trazado_771472" data-name="Trazado 771472" d="M8.623,24a1.363,1.363,0,0,0-1.36,1.294L6,50.563H9.984v-25.2A1.361,1.361,0,0,0,8.623,24Z" transform="translate(1.969 7.875)" fill="#1448d3"/>
      <path id="Trazado_771473" data-name="Trazado 771473" d="M18,18.328V56.844h1.328V17Z" transform="translate(5.907 5.578)" fill="#fb9881"/>
      <path id="Trazado_771474" data-name="Trazado 771474" d="M25,38.854V52.136h5.313L30.95,52a5.347,5.347,0,0,1-.638-2.523V31.349A7.969,7.969,0,0,0,25,38.854Z" transform="translate(8.204 10.287)" fill="#f05a7f"/>
      <path id="Trazado_771475" data-name="Trazado 771475" d="M31.35,31l.153,3.064a5.313,5.313,0,0,1,2.039-.408h4.064L37.44,31Z" transform="translate(10.288 10.172)" fill="#f05a7f"/>
      <path id="Trazado_771476" data-name="Trazado 771476" d="M31.656,31A7.93,7.93,0,0,0,29,31.464v7.505a5.312,5.312,0,0,1,3.273-4.9L32.121,31Z" transform="translate(9.517 10.172)" fill="#c23b5f"/>
      <path id="Trazado_771477" data-name="Trazado 771477" d="M28.333,10.588a2.663,2.663,0,0,1-.757-.438l-6.309,3.785L14.378,10.49c-.062.029-.112.074-.177.1l-2.112.757,9.177,5.246,7.969-5.313.12-.319Z" transform="translate(3.968 3.331)" fill="#c1c1c1"/>
      <path id="Trazado_771478" data-name="Trazado 771478" d="M24.3,11.313v1.594l2.324-1.395a2.656,2.656,0,0,1-1-2.072V8.656A2.664,2.664,0,0,0,22.969,6H17.656A2.664,2.664,0,0,0,15,8.656h6.641A2.656,2.656,0,0,1,24.3,11.313Z" transform="translate(4.923 1.969)" fill="#f0f0f0"/>
      <rect id="Rectángulo_361794" data-name="Rectángulo 361794" width="2.249" height="3.749" rx="1" transform="translate(82.477 78.73) rotate(90)" fill="#e4e4e4"/>
      <rect id="Rectángulo_361795" data-name="Rectángulo 361795" width="10.497" height="2.249" rx="1" transform="translate(66.731 78.73)" fill="#e4e4e4"/>
      <rect id="Rectángulo_361796" data-name="Rectángulo 361796" width="2.999" height="4.499" rx="1" transform="translate(14.244 43.489)" fill="#abf6f8"/>
      <rect id="Rectángulo_361797" data-name="Rectángulo 361797" width="10.497" height="2.999" rx="1" transform="translate(14.244 59.985) rotate(-90)" fill="#abf6f8"/>
      <g id="Grupo_1054263" data-name="Grupo 1054263" transform="translate(41.551 19.29)">
        <ellipse id="Elipse_8061" data-name="Elipse 8061" cx="2.181" cy="3.036" rx="2.181" ry="3.036" transform="translate(2.141 38.163) rotate(-45)" fill="#f6fafd"/>
        <ellipse id="Elipse_8062" data-name="Elipse 8062" cx="1.096" cy="1.525" rx="1.096" ry="1.525" transform="translate(3.975 33.167) rotate(-45)" fill="#f6fafd"/>
        <ellipse id="Elipse_8063" data-name="Elipse 8063" cx="1.096" cy="1.525" rx="1.096" ry="1.525" transform="translate(0 3.943) rotate(-45)" fill="#f6fafd"/>
        <ellipse id="Elipse_8064" data-name="Elipse 8064" cx="0.549" cy="0.762" rx="0.549" ry="0.762" transform="translate(0.589 0.776) rotate(-45)" fill="#f6fafd"/>
      </g>
      <path id="Trazado_771479" data-name="Trazado 771479" d="M78.361,42.5H77.033V37.188h1.328V34.532H65.08v2.656h1.328V42.5H61.1V37.188h1.328V34.532H49.142v2.656H50.47V42.5H43.829a6.649,6.649,0,0,0-6.641,6.641V59.766a6.649,6.649,0,0,0,6.641,6.641h1.328v6.641h2.656V66.407h1.328a6.649,6.649,0,0,0,6.641-6.641V58.438h7.969V74.376H35.86a6.649,6.649,0,0,0-6.641,6.641V63.751H35.86V61.094h-9.3V23.128l3.045,3.045a1.266,1.266,0,0,0,.989.388,1.328,1.328,0,0,0,.958-.464l7.237-8.443,1.551.558a1.363,1.363,0,0,0,.316.072,5.132,5.132,0,0,1,4.609,4.781l1.053,16.867,2.656-.165L47.925,22.9a7.787,7.787,0,0,0-6.825-7.24l-8.345-3a1.328,1.328,0,0,1-.879-1.248v-.789a3.984,3.984,0,0,0-2.656-3.74V1.328A1.328,1.328,0,0,0,27.892,0H22.579a1.328,1.328,0,0,0-1.328,1.328V6.885a3.984,3.984,0,0,0-2.656,3.74v.789a1.328,1.328,0,0,1-.879,1.248l-8.339,3A7.787,7.787,0,0,0,2.551,22.9L2.41,25.158l2.656.166L5.2,23.066a5.132,5.132,0,0,1,4.609-4.781,1.363,1.363,0,0,0,.316-.072l.664-.236,8.2,8.2a1.328,1.328,0,0,0,1.878,0l3.043-3.045V61.094H13.282V38.516H10.626V57.11H3.074L4.9,27.975,2.24,27.809,0,63.668a1.328,1.328,0,0,0,1.328,1.41H11.954a1.328,1.328,0,0,0,1.328-1.328h7.969v2.656h2.656V63.751h2.656V82.345H23.907V69.063H21.251v14.61A1.328,1.328,0,0,0,22.579,85h5.313a1.328,1.328,0,0,0,1.328-1.328A1.328,1.328,0,0,0,30.548,85H83.673A1.328,1.328,0,0,0,85,83.673V59.766H82.345v14.61H71.72v2.656H82.345v5.313H31.876V81.017a3.984,3.984,0,0,1,3.984-3.984h33.2V74.376H66.408V57.11a1.328,1.328,0,0,0-1.328-1.328H54.454a1.328,1.328,0,0,0-1.328,1.328v2.656a3.984,3.984,0,0,1-3.984,3.984H43.829a3.984,3.984,0,0,1-3.984-3.984V49.141a3.984,3.984,0,0,1,3.984-3.984H78.361a3.984,3.984,0,0,1,3.984,3.984V51.8H85V49.141A6.649,6.649,0,0,0,78.361,42.5ZM2.742,62.423l.166-2.656h7.718v2.656Zm27.73-39.142L27.32,20.128l6.428-4.285,2.371.851ZM23.907,2.656h2.656V6.641H23.907Zm-2.656,8.758v-.789A1.328,1.328,0,0,1,22.579,9.3h5.313a1.328,1.328,0,0,1,1.328,1.328v.789a3.984,3.984,0,0,0,1.6,3.188l-5.639,3.76-6.026-3.443A4,4,0,0,0,21.251,11.414ZM19.923,23.357l-6.375-6.375,2.373-.853,7.144,4.083ZM69.064,37.188h5.313V42.5H69.064Zm-15.938,0h5.313V42.5H53.126Z" transform="translate(0 0)"/>
      <path id="Trazado_771480" data-name="Trazado 771480" d="M62,41h2.656v2.656H62Z" transform="translate(20.345 13.454)"/>
      <path id="Trazado_771481" data-name="Trazado 771481" d="M57.313,36a5.313,5.313,0,1,0,5.313,5.313A5.313,5.313,0,0,0,57.313,36Zm0,7.969a2.656,2.656,0,1,1,2.656-2.656A2.656,2.656,0,0,1,57.313,43.969Z" transform="translate(17.064 11.813)"/>
      <path id="Trazado_771482" data-name="Trazado 771482" d="M57.313,46a5.313,5.313,0,1,0,5.313,5.313A5.313,5.313,0,0,0,57.313,46Zm0,7.969a2.656,2.656,0,1,1,2.656-2.656A2.656,2.656,0,0,1,57.313,53.969Z" transform="translate(17.064 15.094)"/>
      <path id="Trazado_771483" data-name="Trazado 771483" d="M28,25h2.656v6.641H28Z" transform="translate(9.189 8.204)"/>
      <path id="Trazado_771484" data-name="Trazado 771484" d="M8,25h2.656v2.656H8Z" transform="translate(2.626 8.204)"/>
    </g>
  </g>
</svg>
