<svg xmlns="http://www.w3.org/2000/svg" width="76" height="76" viewBox="0 0 76 76">
  <g id="Grupo_58444" data-name="Grupo 58444" transform="translate(-392 -3434)">
    <rect id="Rectángulo_5538" data-name="Rectángulo 5538" width="76" height="76" transform="translate(392 3434)" fill="none"/>
    <g id="iron" transform="translate(401.167 3443.167)">
      <g id="Grupo_58453" data-name="Grupo 58453" transform="translate(0.845 24.845)">
        <g id="Grupo_58452" data-name="Grupo 58452">
          <g id="Grupo_58450" data-name="Grupo 58450" transform="translate(10.324)">
            <path id="Trazado_102102" data-name="Trazado 102102" d="M425.335,226.311l-2.389-2.388,2.84-2.839a1.689,1.689,0,0,1,2.388,2.389Z" transform="translate(-386.478 -220.589)" fill="#b5adb6"/>
            <path id="Trazado_102103" data-name="Trazado 102103" d="M104.885,328.921,102.5,331.31l-2.839-2.84a1.689,1.689,0,1,1,2.389-2.388Z" transform="translate(-99.163 -313.761)" fill="#b5adb6"/>
            <path id="Trazado_102104" data-name="Trazado 102104" d="M289.915,379.567H280.63v-3.243a.9.9,0,0,1,.895-.895h7.5a.9.9,0,0,1,.895.895Z" transform="translate(-260.191 -357.99)" fill="#b5adb6"/>
          </g>
          <path id="Trazado_102105" data-name="Trazado 102105" d="M80.964,256.919l-5.471-18.777a2.7,2.7,0,0,0-2.785-1.933,62.613,62.613,0,0,0-22.8,6.048,61.044,61.044,0,0,0-8.689,5.145,45.111,45.111,0,0,0-11.98,13.61l-.855,1.5L27.25,264.2l47.65-1.689.651-1.393a4.713,4.713,0,0,1,4.27-2.717,1.181,1.181,0,0,0,1.143-1.478Zm-9.476-2.28-16.7,1.1a4.057,4.057,0,0,1-4.324-4.047h0a4.053,4.053,0,0,1,2.089-3.547,59.136,59.136,0,0,1,16.233-6.083,1.792,1.792,0,0,1,2.121,1.325l2.2,9.047a1.789,1.789,0,0,1-1.622,2.208Z" transform="translate(-25.026 -234.443)" fill="#fee97d"/>
          <path id="Trazado_102106" data-name="Trazado 102106" d="M80.964,256.914l-5.471-18.777a2.691,2.691,0,0,0-2.776-1.934c-.22.016-.443.034-.668.052.024.063.046.126.065.192l5.471,18.777a1.181,1.181,0,0,1-1.141,1.478,4.585,4.585,0,0,0-4.208,2.579,2.655,2.655,0,0,1-2.405,1.531H29.351c-.038.065-.077.129-.114.194l-.855,1.5-1.131,1.689L74.9,262.5l.715-1.531a4.585,4.585,0,0,1,4.208-2.579,1.181,1.181,0,0,0,1.141-1.478Z" transform="translate(-25.026 -234.439)" fill="#fedf30"/>
          <path id="Trazado_102107" data-name="Trazado 102107" d="M57.672,473.664H7.5a3.914,3.914,0,0,1,3.914-3.914H57.672a1.957,1.957,0,1,1,0,3.914Z" transform="translate(-7.5 -441.687)" fill="#b5adb6"/>
          <path id="Trazado_102108" data-name="Trazado 102108" d="M426.334,469.75h-3.379a1.957,1.957,0,1,1,0,3.914h3.379a1.957,1.957,0,0,0,0-3.914Z" transform="translate(-376.162 -441.687)" fill="#a79ba7"/>
          <g id="Grupo_58451" data-name="Grupo 58451" transform="translate(22.062 5.752)">
            <path id="Trazado_102109" data-name="Trazado 102109" d="M210.271,287.171h0a4.058,4.058,0,0,1-3.51-4.019h0a4.053,4.053,0,0,1,2.089-3.547,59.126,59.126,0,0,1,16.234-6.083,1.793,1.793,0,0,1,1.292.21h0c-1.412-1.852-2.583-2.06-3.12-2.073a12.579,12.579,0,0,0-1.552.173c-2.321.321-3.518.466-9.8,3.013a59.152,59.152,0,0,0-6.433,3.071,4.053,4.053,0,0,0-2.089,3.547,6.745,6.745,0,0,0,1.223,2.9A7.636,7.636,0,0,0,210.271,287.171Z" transform="translate(-203.382 -271.658)" fill="#fedf30"/>
          </g>
        </g>
      </g>
      <path id="Trazado_102110" data-name="Trazado 102110" d="M57.667,18.457A5.859,5.859,0,0,0,51.809,12.6h-9.12a5.455,5.455,0,1,1,0-10.909H56.822a.845.845,0,0,0,0-1.689H42.689a7.144,7.144,0,1,0,0,14.288h9.12a4.169,4.169,0,0,1,3.2,6.835L52.5,24.144a2.536,2.536,0,0,0-2.622.6l-1.02,1.02a38.116,38.116,0,0,0-7.076.837.845.845,0,1,0,.294,1.664,64.49,64.49,0,0,1,6.511-.809A1.861,1.861,0,0,1,50.5,28.78c.206.706,5.3,18.04,5.466,18.761a.313.313,0,0,1-.328.412,5.885,5.885,0,0,0-5.459,4.11H14.1a.845.845,0,0,0,0,1.689H51.017a1.112,1.112,0,1,1,0,2.224H1.808a3.075,3.075,0,0,1,2.951-2.224h5.96a.845.845,0,0,0,0-1.689H5.657c7.035-12.569,19.361-19.939,33.2-23.144a.845.845,0,0,0-.381-1.646A58.266,58.266,0,0,0,15.784,37.7L14.65,36.57a2.534,2.534,0,1,0-3.585,3.581l.907.907A47.218,47.218,0,0,0,3.633,52.2,4.766,4.766,0,0,0,0,56.822a.845.845,0,0,0,.845.845H51.016a2.8,2.8,0,0,0,.952-5.437,3.961,3.961,0,0,1,3.672-2.587A2.057,2.057,0,0,0,57.6,47.108l-.007-.024L52.429,29.357l1.032-1.031a2.549,2.549,0,0,0,.36-3.127l2.491-3a5.869,5.869,0,0,0,1.354-3.747ZM12.26,37.763a.842.842,0,0,1,1.194,0l1.015,1.015q-.646.548-1.27,1.118l-.94-.94a.845.845,0,0,1,0-1.193ZM52.267,27.131l-.449.449a3.561,3.561,0,0,0-1.153-1.235l.408-.408a.844.844,0,1,1,1.194,1.194ZM27.965,37.8a4.9,4.9,0,0,0,2.382,9.187q.159,0,.318-.01l16.7-1.1a2.634,2.634,0,0,0,2.387-3.251l-2.2-9.047a2.624,2.624,0,0,0-3.119-1.952A59.986,59.986,0,0,0,27.965,37.8Zm12.081,6.867-7.595.5V43.179a.05.05,0,0,1,.05-.05H40a.05.05,0,0,1,.05.05Zm4.738-11.385a.975.975,0,0,1,.205-.022.941.941,0,0,1,.917.721l2.2,9.047a.945.945,0,0,1-.856,1.166l-5.516.363V43.179A1.741,1.741,0,0,0,40,41.44H32.5a1.741,1.741,0,0,0-1.739,1.739v2.1l-.208.014a3.212,3.212,0,0,1-1.771-6.013,58.293,58.293,0,0,1,16-6Z" transform="translate(0)"/>
    </g>
  </g>
</svg>
