<svg xmlns="http://www.w3.org/2000/svg" width="76" height="76" viewBox="0 0 76 76">
  <g id="Grupo_58438" data-name="Grupo 58438" transform="translate(-392 -3434)">
    <rect id="Rectángulo_5538" data-name="Rectángulo 5538" width="76" height="76" transform="translate(392 3434)" fill="none"/>
    <g id="_091---Dressmaking" data-name="091---Dressmaking" transform="translate(399.992 3442)">
      <path id="Rectangle-path" d="M10,25H28v5H10Z" fill="#6a1b9a"/>
      <path id="Rectangle-path-2" data-name="Rectangle-path" d="M10,25H25v5H10Z" fill="#9d27b0"/>
      <path id="Shape" d="M52,11c-.31,4.533.264-2.791-2.93,43a1.072,1.072,0,0,1-2.14,0C43.009-2.2,44.339,15.952,44,11h1.02a5.073,5.073,0,0,0,1.48,3.38c1.953,1.731,4.252-.369,4.48-3.38Z" fill="#7f8e94"/>
      <path id="Shape-2" data-name="Shape" d="M50.98,11c-.116,1.536-.829,3.255-2.243,3.851C46.39,49.305,46.492,47.589,46.5,47.69L46.93,54a1.072,1.072,0,0,0,2.14,0C52.3,7.7,51.644,16.206,52,11Z" fill="#545c60"/>
      <path id="Shape-3" data-name="Shape" d="M36.82,57.67a1,1,0,0,1-1.45.97,4.092,4.092,0,0,0-1.591-.61,3.413,3.413,0,0,0-1.959.31,3.718,3.718,0,0,1-2.1.66c-1.8,0-1.788-1-3.6-1s-1.789,1-3.6,1-1.788-1-3.6-1-1.789,1-3.6,1-1.788-1-3.6-1-1.789,1-3.6,1-1.788-1-3.6-1a3.633,3.633,0,0,0-2.06.64A1.009,1.009,0,0,1,1,57.67c.07-.92.16-1.81.27-2.69a4.27,4.27,0,0,0,1.75-.64A3.018,3.018,0,0,1,4.52,54c1.812,0,1.8,1,3.6,1s1.8-1,3.6-1,1.8,1,3.6,1,1.8-1,3.6-1,1.8,1,3.6,1,1.8-1,3.6-1,1.8,1,3.6,1c1.87,0,1.7-1.026,3.7-1,1.51.02,1.7.8,2.982.96a.313.313,0,0,0,.15.02C36.66,55.85,36.75,56.75,36.82,57.67Z" fill="#9d27b0"/>
      <path id="Shape-4" data-name="Shape" d="M36.55,54.98a.313.313,0,0,1-.15-.02c-1.28-.16-1.472-.92-2.982-.96a3.287,3.287,0,0,0-1.6.343,4.187,4.187,0,0,0,1.585.617.313.313,0,0,0,.15.02c.11.87.2,1.77.27,2.69a.951.951,0,0,1-.041.36,4.043,4.043,0,0,1,1.591.61,1,1,0,0,0,1.45-.97C36.75,56.75,36.66,55.85,36.55,54.98Z" fill="#6a1b9a"/>
      <path id="Shape-5" data-name="Shape" d="M36.55,54.98c-1.12,0-1.609-.96-3.132-.98-2.012-.026-1.822,1-3.7,1-1.8,0-1.788-1-3.6-1s-1.789,1-3.6,1-1.788-1-3.6-1-1.789,1-3.6,1-1.788-1-3.6-1-1.789,1-3.6,1-1.788-1-3.6-1a3.018,3.018,0,0,0-1.5.34,4.266,4.266,0,0,1-1.75.64C2.594,44.047,6.738,34.379,10,30H28s6.67,9.15,8.55,24.98Z" fill="#e91e63"/>
      <path id="Shape-6" data-name="Shape" d="M28,30H25s6.384,8.784,8.418,24c1.5,0,1.959.98,3.132.98C34.67,39.15,28,30,28,30Z" fill="#ad1457"/>
      <path id="Shape-7" data-name="Shape" d="M31.13,15.08A17.31,17.31,0,0,0,28,25H10a17.073,17.073,0,0,0-3.31-9.92,1.968,1.968,0,0,1-.01-2.04c1.05-1.63,1.21-4.11,1.23-5.72a2.033,2.033,0,0,1,.58-1.38l1.88-1.88.02.01,1.26,3.342a1,1,0,0,0,1.439.51L15.22,6.68c.683,1.389,2.153,1.84,3.69,1.84,2.31,0,3.28-1,3.69-1.84l2.139,1.242a1,1,0,0,0,1.44-.51L27.44,4.06h.01l1.88,1.88a2,2,0,0,1,.59,1.38c.02,1.61.18,4.09,1.22,5.72a1.925,1.925,0,0,1-.01,2.04Z" fill="#e91e63"/>
      <path id="Shape-8" data-name="Shape" d="M31.14,13.04c-1.04-1.63-1.2-4.11-1.22-5.72a2,2,0,0,0-.59-1.38L27.45,4.06h-.01L26.6,6.286a1.983,1.983,0,0,1,.32,1.034c.02,1.61.18,4.09,1.22,5.72a1.925,1.925,0,0,1-.01,2.04A17.31,17.31,0,0,0,25,25h3a17.31,17.31,0,0,1,3.13-9.92,1.925,1.925,0,0,0,.01-2.04Z" fill="#ad1457"/>
      <path id="Shape-9" data-name="Shape" d="M12.464,1.169,10.575,2.388a1,1,0,0,0-.38,1.185L11.65,7.412a1,1,0,0,0,1.439.51l2.457-1.429a1,1,0,0,0,.373-1.346L13.9,1.518a1,1,0,0,0-1.436-.349Z" fill="#ffe0b2"/>
      <path id="Shape-10" data-name="Shape" d="M25.363,1.169l1.89,1.219a1,1,0,0,1,.379,1.185L26.179,7.412a1,1,0,0,1-1.44.51L22.282,6.493a1,1,0,0,1-.373-1.346l2.022-3.629a1,1,0,0,1,1.432-.349Z" fill="#ffe0b2"/>
      <path id="Shape-11" data-name="Shape" d="M52.9,9.193C52.432,6.233,50.413,4,48,4c-2.519,0-4.6,2.436-4.945,5.59-3.755,2.461-5.991,7.422-6.644,11.81-1.035,6.98.538,14.8-2.417,18.431A47.662,47.662,0,0,0,29,29.686c0-6.683-.353-8.577,2.991-14.093a2.907,2.907,0,0,0-.006-3.091c-1.016-1.584-1.054-4.3-1.067-5.2a2.983,2.983,0,0,0-.877-2.074L28.6,3.8a1.994,1.994,0,0,0-.81-2.248L25.911.332a2,2,0,0,0-2.853.7L21.033,4.664a1.986,1.986,0,0,0,.173,2.193,4.269,4.269,0,0,1-4.584,0,1.989,1.989,0,0,0,.17-2.2l-2.02-3.624a2,2,0,0,0-2.855-.7l-1.9,1.225a1.986,1.986,0,0,0-.8,2.238L7.787,5.23A2.976,2.976,0,0,0,6.91,7.3c-.013.894-.052,3.614-1.068,5.2a2.917,2.917,0,0,0,0,3.091c.105.176.231.374.371.594C9.394,21.19,9,23.455,9,29.679,7.764,31.446,1.3,41.379.007,57.6a2,2,0,0,0,2.908,1.934A2.782,2.782,0,0,1,4.52,59c1.325,0,1.605,1,3.605,1,2.029,0,2.228-1,3.6-1,1.356,0,1.578,1,3.6,1s2.226-1,3.6-1a2.244,2.244,0,0,1,1.314.374A4.182,4.182,0,0,0,22.521,60c2.029,0,2.228-1,3.6-1a2.247,2.247,0,0,1,1.314.374A4.182,4.182,0,0,0,29.72,60c2.032,0,2.22-1,3.6-1a2.75,2.75,0,0,1,1.591.524,2,2,0,0,0,2.912-1.932,67.654,67.654,0,0,0-3.1-15.642c4.623-4.028,2.556-12.793,3.662-20.253.443-2.976,1.94-7.107,4.685-9.578L45.935,54.07a2.07,2.07,0,0,0,4.13,0l2.9-42.59a15.5,15.5,0,0,1,5.185,5.051,1,1,0,1,0,1.692-1.064A17.189,17.189,0,0,0,52.9,9.193ZM11,29V26H27v3Zm-.477,2h2.6a10.106,10.106,0,0,0-3.209,7,1,1,0,1,0,2,0,7.953,7.953,0,0,1,2.193-5.1c-.429,2.047-.74,4.624-.142,6.416a1,1,0,0,0,1.9-.632c-.645-1.937.215-5.728.788-7.684H27.47c1.208,1.843,6.057,9.879,7.881,22.493A4.044,4.044,0,0,0,33.314,53c-2.031,0-2.21,1-3.59,1a2.242,2.242,0,0,1-1.314-.374A4.186,4.186,0,0,0,26.124,53c-2.029,0-2.229,1-3.6,1-1.389,0-1.546-1-3.6-1-2.03,0-2.228,1-3.6,1s-1.575-1-3.6-1-2.229,1-3.6,1c-1.389,0-1.546-1-3.6-1a4.068,4.068,0,0,0-2.04.49C4.329,40.862,9.3,32.825,10.523,31ZM24.806,2,26.7,3.219,25.242,7.06l-2.46-1.426Zm-11.784.006,2.02,3.624L12.585,7.06,11.117,3.229c2.61-1.684,1.711-1.1,1.9-1.224ZM7.9,15.112c-.315-.493-.712-1-.37-1.53.891-1.389,1.343-3.434,1.384-6.25.006-.485.214-.61,1.08-1.477l.725,1.914A2,2,0,0,0,12.586,9.06c.656,0,.864-.189,2.35-1.055a5.037,5.037,0,0,0,3.978,1.513A5.036,5.036,0,0,0,22.891,8c1.244.724,1.641,1.055,2.35,1.055a2,2,0,0,0,1.871-1.291l.725-1.914c.706.706,1.073.945,1.081,1.478.09,6.287,2.111,5.988,1.357,7.232A18.362,18.362,0,0,0,27.047,24H10.95A17.577,17.577,0,0,0,7.9,15.112ZM33.318,57c-2.032,0-2.22,1-3.6,1a2.247,2.247,0,0,1-1.314-.374A4.182,4.182,0,0,0,26.121,57c-2.033,0-2.221,1-3.6,1a2.241,2.241,0,0,1-1.313-.374A4.186,4.186,0,0,0,18.922,57c-2.033,0-2.219,1-3.6,1s-1.546-1-3.6-1c-2.03,0-2.229,1-3.6,1-1.322,0-1.6-1-3.6-1A4.456,4.456,0,0,0,2,57.754c.053-.658.117-1.3.187-1.938C3.263,55.491,3.456,55,4.524,55c1.359,0,1.575,1,3.6,1s2.228-1,3.6-1c1.388,0,1.546,1,3.6,1,2.029,0,2.229-1,3.6-1s1.575,1,3.6,1,2.227-1,3.6-1a2.242,2.242,0,0,1,1.314.374A4.183,4.183,0,0,0,29.724,56c2.024,0,2.238-1,3.59-1,1.079,0,1.208.479,2.331.817.069.635.133,1.277.186,1.933A4.437,4.437,0,0,0,33.318,57ZM50.62,8.386a9.418,9.418,0,0,0-5.277.1C46.464,5.241,49.43,5.148,50.62,8.386ZM51,10.579C50.965,12.983,49.608,15,48,15c-1.567,0-2.887-1.918-2.982-4.24A7.613,7.613,0,0,1,51,10.579ZM48.07,53.935c-.209,0,.063,2.988-2.727-37.939a4.017,4.017,0,0,0,5.314,0Z"/>
    </g>
  </g>
</svg>
