<svg xmlns="http://www.w3.org/2000/svg" width="76" height="76" viewBox="0 0 76 76">
  <g id="Grupo_58439" data-name="Grupo 58439" transform="translate(-392 -3521)">
    <g id="Rect치ngulo_5471" data-name="Rect치ngulo 5471" transform="translate(430 3559)" fill="#fff" stroke="#707070" stroke-width="1">
      <rect width="1" height="1" stroke="none"/>
      <rect x="0.5" y="0.5" fill="none"/>
    </g>
    <rect id="Rect치ngulo_5539" data-name="Rect치ngulo 5539" width="76" height="76" transform="translate(392 3521)" fill="none"/>
    <g id="tela" transform="translate(401 3529)">
      <path id="Trazado_102187" data-name="Trazado 102187" d="M134.868,131.383l-3.481,3.481-3.481-3.481-3.481,3.481-3.481-3.481-3.481,3.481-3.481-3.481-3.481,3.481-3.481-3.481-3.481,3.481-3.481-3.481-3.481,3.481L93.1,131.383l-3.481,3.481-3.481-3.481,3.481-3.481-3.481-3.481,3.481-3.481-3.481-3.481,3.481-3.481L86.133,110.5l3.481-3.481-3.481-3.481,3.481-3.481-3.481-3.481,3.481-3.481-3.481-3.481,3.481-3.481L93.1,89.611l3.481-3.481,3.481,3.481,3.481-3.481,3.481,3.481,3.481-3.481,3.481,3.481,3.481-3.481,3.481,3.481,3.481-3.481,3.481,3.481,3.481-3.481,3.48,3.482-3.481,3.481,3.481,3.481-3.481,3.481,3.481,3.481-3.481,3.481,3.481,3.481-3.481,3.481,3.481,3.481-3.481,3.481,3.481,3.481-3.481,3.481Zm0,0" transform="translate(-76.039 -76.036)" fill="#ff6977"/>
      <path id="Trazado_102188" data-name="Trazado 102188" d="M58.734,55.253l-3.481,3.481-3.481-3.481-3.481,3.481L44.81,55.253l-3.481,3.481-3.481-3.481-3.481,3.481-3.481-3.481L27.4,58.735l-3.481-3.481-3.481,3.481-3.481-3.481-3.481,3.481L10,55.253l3.481-3.481L10,48.291l3.481-3.481L10,41.33l3.481-3.481L10,34.367l3.481-3.481L10,27.405l3.481-3.481L10,20.443l3.481-3.481L10,13.481,13.481,10l3.481,3.481L20.443,10l3.481,3.481L27.405,10l3.481,3.481L34.367,10l3.481,3.481L41.329,10l3.481,3.481L48.291,10l3.481,3.481L55.253,10l3.481,3.481-3.481,3.481,3.481,3.481-3.481,3.481,3.481,3.481-3.481,3.481,3.481,3.481-3.481,3.481,3.481,3.481-3.481,3.481,3.481,3.481-3.481,3.481Zm0,0" transform="translate(-8.828 -8.828)" fill="#ffc15a"/>
      <g id="Grupo_58457" data-name="Grupo 58457" transform="translate(9.603 9.396)">
        <path id="Trazado_102189" data-name="Trazado 102189" d="M91.249,82.791a2.269,2.269,0,0,0-2.449-.98,2.133,2.133,0,0,0-4.147,0A2.134,2.134,0,0,0,82.579,85.4a2.133,2.133,0,0,0,2.074,3.591,2.133,2.133,0,0,0,4.147,0A2.133,2.133,0,0,0,90.873,85.4,2.27,2.27,0,0,0,91.249,82.791Zm0,0" transform="translate(-81.941 -80.18)" fill="#fff"/>
        <path id="Trazado_102190" data-name="Trazado 102190" d="M281.316,82.791a2.27,2.27,0,0,0-2.45-.98,2.133,2.133,0,0,0-4.147,0,2.134,2.134,0,0,0-2.074,3.592,2.133,2.133,0,0,0,2.074,3.591,2.133,2.133,0,0,0,4.147,0A2.133,2.133,0,0,0,280.94,85.4,2.269,2.269,0,0,0,281.316,82.791Zm0,0" transform="translate(-249.735 -80.18)" fill="#fff"/>
        <path id="Trazado_102191" data-name="Trazado 102191" d="M91.249,274.388a2.268,2.268,0,0,1-2.449.98,2.133,2.133,0,0,1-4.147,0,2.133,2.133,0,0,1-2.074-3.591,2.134,2.134,0,0,1,2.074-3.592,2.133,2.133,0,0,1,4.147,0,2.134,2.134,0,0,1,2.074,3.592A2.269,2.269,0,0,1,91.249,274.388Zm0,0" transform="translate(-81.941 -244.713)" fill="#fff"/>
        <path id="Trazado_102192" data-name="Trazado 102192" d="M281.316,274.388A9.252,9.252,0,0,0,276.793,277a9.257,9.257,0,0,0-4.523-2.612,2.269,2.269,0,0,1,.376-2.611,3.592,3.592,0,0,1,6.221-3.592,2.134,2.134,0,0,1,2.074,3.592A2.268,2.268,0,0,1,281.316,274.388Zm0,0" transform="translate(-249.735 -244.713)" fill="#fff"/>
        <path id="Trazado_102193" data-name="Trazado 102193" d="M186.412,175.978a2.269,2.269,0,0,0-2.449-.98,2.134,2.134,0,0,0-4.147,0,2.134,2.134,0,0,0-2.073,3.592,2.133,2.133,0,0,0,2.073,3.591,2.134,2.134,0,0,0,4.147,0,2.133,2.133,0,0,0,2.073-3.591A2.269,2.269,0,0,0,186.412,175.978Zm0,0" transform="translate(-165.952 -162.446)" fill="#fff"/>
      </g>
      <path id="Trazado_102194" data-name="Trazado 102194" d="M60,20.537a1.172,1.172,0,0,0-.343-.829L57,17.056,59.657,14.4a1.171,1.171,0,0,0,0-1.657L56.176,9.265a1.173,1.173,0,0,0-1.657,0l-2.652,2.653L49.214,9.265h0L48.082,8.134l2.652-2.652a1.172,1.172,0,0,0,0-1.658L47.254.343a1.171,1.171,0,0,0-1.657,0L42.944,3,40.292.343a1.172,1.172,0,0,0-1.658,0L35.982,3,33.33.343a1.172,1.172,0,0,0-1.658,0L29.02,3,26.368.343a1.171,1.171,0,0,0-1.657,0L22.058,3,19.406.343a1.171,1.171,0,0,0-1.657,0L15.1,3,12.444.343a1.171,1.171,0,0,0-1.657,0L8.134,3,5.482.343a1.172,1.172,0,0,0-1.658,0L.344,3.824a1.172,1.172,0,0,0,0,1.658L3,8.134.344,10.786a1.171,1.171,0,0,0,0,1.657L3,15.1.344,17.749a1.171,1.171,0,0,0,0,1.657L3,22.058.344,24.71a1.172,1.172,0,0,0,0,1.658L3,29.02.344,31.672a1.172,1.172,0,0,0,0,1.658L3,35.982.344,38.634a1.171,1.171,0,0,0,0,1.657L3,42.944.344,45.6a1.171,1.171,0,0,0,0,1.657l3.481,3.481a1.173,1.173,0,0,0,1.658,0l2.652-2.653,2.652,2.653h0l1.131,1.131L9.265,54.518a1.173,1.173,0,0,0,0,1.658l3.481,3.481a1.171,1.171,0,0,0,1.657,0L17.056,57l2.652,2.652a1.172,1.172,0,0,0,1.658,0L24.018,57l2.652,2.652a1.171,1.171,0,0,0,1.657,0L30.98,57l2.652,2.652a1.172,1.172,0,0,0,1.658,0L37.942,57l2.652,2.652a1.171,1.171,0,0,0,1.657,0L44.9,57l2.653,2.652a1.171,1.171,0,0,0,1.657,0L51.866,57l2.652,2.652a1.171,1.171,0,0,0,1.657,0l3.481-3.481a1.172,1.172,0,0,0,0-1.658L57,51.866l2.652-2.652a1.171,1.171,0,0,0,0-1.657L57,44.9l2.652-2.653a1.171,1.171,0,0,0,0-1.657L57,37.942l2.653-2.652a1.173,1.173,0,0,0,0-1.658L57,30.98l2.652-2.652a1.172,1.172,0,0,0,0-1.658L57,24.018l2.652-2.652A1.17,1.17,0,0,0,60,20.537ZM7.306,45.6,4.653,48.249,2.829,46.425l2.652-2.652a1.171,1.171,0,0,0,0-1.657L2.829,39.463l2.652-2.652a1.171,1.171,0,0,0,0-1.657L2.829,32.5l2.652-2.652a1.172,1.172,0,0,0,0-1.658L4,26.711H9.8a1.172,1.172,0,1,0,0-2.344H4l1.481-1.48a1.173,1.173,0,0,0,0-1.658L2.83,18.577l2.652-2.652a1.172,1.172,0,0,0,0-1.658L2.829,11.615,5.482,8.963a1.173,1.173,0,0,0,0-1.657L2.829,4.653,4.653,2.829,7.306,5.482a1.173,1.173,0,0,0,1.657,0l2.652-2.653,2.652,2.653a1.173,1.173,0,0,0,1.658,0l2.652-2.653,2.652,2.653a1.173,1.173,0,0,0,1.657,0l2.652-2.653,2.652,2.653a1.173,1.173,0,0,0,1.657,0L32.5,2.829l2.652,2.653a1.173,1.173,0,0,0,1.657,0l2.652-2.653,2.652,2.653a1.173,1.173,0,0,0,1.658,0l2.652-2.653,1.824,1.824L45.6,7.306a1.171,1.171,0,0,0,0,1.657l2.652,2.652L45.6,14.267a1.172,1.172,0,0,0,0,1.658l2.653,2.652L45.6,21.229a1.171,1.171,0,0,0,0,1.657l2.652,2.653L45.6,28.192a1.171,1.171,0,0,0,0,1.657L48.249,32.5,45.6,35.154a1.171,1.171,0,0,0,0,1.657l2.652,2.652L45.6,42.115a1.172,1.172,0,0,0,0,1.658l2.652,2.652-1.824,1.824L43.773,45.6a1.171,1.171,0,0,0-1.657,0l-2.652,2.652L36.811,45.6a1.171,1.171,0,0,0-1.657,0L32.5,48.249,29.849,45.6a1.172,1.172,0,0,0-1.658,0l-2.652,2.652L22.887,45.6a1.171,1.171,0,0,0-1.657,0l-2.652,2.652L15.925,45.6a1.171,1.171,0,0,0-1.657,0l-2.653,2.652-.692-.693h0L8.963,45.6a1.171,1.171,0,0,0-1.657,0ZM54.519,23.19a1.171,1.171,0,0,0,0,1.657L57.171,27.5l-2.652,2.652a1.172,1.172,0,0,0,0,1.658l2.652,2.652-2.652,2.652a1.172,1.172,0,0,0,0,1.658l2.652,2.652-2.652,2.652a1.172,1.172,0,0,0,0,1.658l2.652,2.652-2.653,2.652a1.173,1.173,0,0,0,0,1.657l2.652,2.652-1.824,1.824-2.652-2.652a1.171,1.171,0,0,0-1.657,0l-2.652,2.652-2.652-2.652a1.172,1.172,0,0,0-1.658,0l-2.652,2.652-2.652-2.652a1.171,1.171,0,0,0-1.657,0l-2.652,2.652-2.652-2.652a1.172,1.172,0,0,0-1.658,0L27.5,57.171l-2.652-2.652a1.171,1.171,0,0,0-1.657,0l-2.652,2.652-2.653-2.652a1.171,1.171,0,0,0-1.657,0l-2.652,2.652-1.824-1.824L14.4,52.695a1.171,1.171,0,0,0,0-1.657l-1.131-1.132L15.1,48.082l2.652,2.653a1.173,1.173,0,0,0,1.658,0l2.652-2.653,2.652,2.653a1.173,1.173,0,0,0,1.657,0l2.652-2.653,2.652,2.653a1.173,1.173,0,0,0,1.658,0l2.652-2.653,2.652,2.653a1.173,1.173,0,0,0,1.657,0l2.652-2.653L45.6,50.735a1.173,1.173,0,0,0,1.657,0l3.481-3.481a1.171,1.171,0,0,0,0-1.657l-2.652-2.652,2.653-2.653a1.173,1.173,0,0,0,0-1.657l-2.652-2.652,2.652-2.652a1.172,1.172,0,0,0,0-1.658L48.083,29.02l2.652-2.652a1.172,1.172,0,0,0,0-1.658l-2.652-2.652,2.652-2.652a1.171,1.171,0,0,0,0-1.657L48.083,15.1l1.823-1.823L51.038,14.4a1.171,1.171,0,0,0,1.657,0l2.653-2.652,1.824,1.824-2.652,2.652a1.171,1.171,0,0,0,0,1.657l2.652,2.653Zm0,0"/>
      <path id="Trazado_102195" data-name="Trazado 102195" d="M77.871,82.969a3.3,3.3,0,0,0,2.778-1.583,3.228,3.228,0,0,0,2.778-4.811,3.229,3.229,0,0,0-2.778-4.812,3.229,3.229,0,0,0-5.556,0,3.229,3.229,0,0,0-2.778,4.812,3.228,3.228,0,0,0,2.778,4.811A3.3,3.3,0,0,0,77.871,82.969ZM74.362,78.6a1.128,1.128,0,0,1,.248-1.259,1.172,1.172,0,0,0,0-1.533.975.975,0,0,1,.966-1.674,1.172,1.172,0,0,0,1.328-.766.976.976,0,0,1,1.933,0,1.172,1.172,0,0,0,1.328.766.976.976,0,0,1,.967,1.674,1.171,1.171,0,0,0,0,1.533.975.975,0,0,1-.966,1.674,1.172,1.172,0,0,0-1.328.766.975.975,0,0,1-1.933,0,1.172,1.172,0,0,0-1.328-.766A1.127,1.127,0,0,1,74.362,78.6Zm0,0" transform="translate(-63.483 -61.956)"/>
      <path id="Trazado_102196" data-name="Trazado 102196" d="M113.82,117.082a1.171,1.171,0,1,0-.829-.343A1.177,1.177,0,0,0,113.82,117.082Zm0,0" transform="translate(-99.448 -101.292)"/>
      <path id="Trazado_102197" data-name="Trazado 102197" d="M262.4,79.771a3.294,3.294,0,0,0,2.76,1.614,3.229,3.229,0,0,0,5.555,0,3.229,3.229,0,0,0,2.778-4.812,3.228,3.228,0,0,0-2.778-4.811,3.229,3.229,0,0,0-5.555,0,3.229,3.229,0,0,0-2.778,4.811A3.3,3.3,0,0,0,262.4,79.771Zm2.277-3.964a.976.976,0,0,1,.967-1.674,1.172,1.172,0,0,0,1.328-.766.976.976,0,0,1,1.933,0,1.172,1.172,0,0,0,1.327.766.975.975,0,0,1,.966,1.674,1.172,1.172,0,0,0,0,1.533.975.975,0,0,1-.966,1.674,1.171,1.171,0,0,0-1.327.766.976.976,0,0,1-1.933,0,1.171,1.171,0,0,0-1.328-.766.975.975,0,0,1-.966-1.674,1.172,1.172,0,0,0,0-1.533Zm0,0" transform="translate(-231.277 -61.955)"/>
      <path id="Trazado_102198" data-name="Trazado 102198" d="M303.883,117.082a1.172,1.172,0,1,0-.829-.343A1.175,1.175,0,0,0,303.883,117.082Zm0,0" transform="translate(-267.237 -101.292)"/>
      <path id="Trazado_102199" data-name="Trazado 102199" d="M75.093,267.761a3.229,3.229,0,0,0,5.556,0,3.229,3.229,0,0,0,2.778-4.812,3.228,3.228,0,0,0-2.778-4.811,3.229,3.229,0,0,0-5.556,0,3.228,3.228,0,0,0-2.778,4.811,3.229,3.229,0,0,0,2.778,4.812Zm-.482-5.578a.975.975,0,0,1,.966-1.674,1.172,1.172,0,0,0,1.328-.767.976.976,0,0,1,1.933,0,1.172,1.172,0,0,0,1.328.767.975.975,0,0,1,.966,1.674,1.172,1.172,0,0,0,0,1.533.975.975,0,0,1-.966,1.674,1.172,1.172,0,0,0-1.328.767.976.976,0,0,1-1.933,0,1.171,1.171,0,0,0-1.328-.767.976.976,0,0,1-.967-1.674A1.171,1.171,0,0,0,74.61,262.183Zm0,0" transform="translate(-63.483 -226.49)"/>
      <path id="Trazado_102200" data-name="Trazado 102200" d="M113.813,303.465a1.173,1.173,0,1,0-.829-.344A1.181,1.181,0,0,0,113.813,303.465Zm0,0" transform="translate(-99.441 -265.833)"/>
      <path id="Trazado_102201" data-name="Trazado 102201" d="M273.475,259.752a3.293,3.293,0,0,0-2.76-1.614,3.228,3.228,0,0,0-5.555,0,3.229,3.229,0,0,0-2.778,4.811,3.228,3.228,0,0,0,2.778,4.811,4.907,4.907,0,0,0,8.334-4.811A3.3,3.3,0,0,0,273.475,259.752Zm-2.03,5.223a1.128,1.128,0,0,1-1.214.415,1.173,1.173,0,0,0-1.327.767.976.976,0,0,1-1.933,0,1.171,1.171,0,0,0-1.328-.767.975.975,0,0,1-.966-1.674,1.172,1.172,0,0,0,0-1.533.975.975,0,0,1,.966-1.674,1.172,1.172,0,0,0,1.328-.767.976.976,0,0,1,1.933,0,1.172,1.172,0,0,0,1.327.767.975.975,0,0,1,.966,1.674,1.172,1.172,0,0,0,0,1.533A1.127,1.127,0,0,1,271.446,264.974Zm0,0" transform="translate(-231.277 -226.49)"/>
      <path id="Trazado_102202" data-name="Trazado 102202" d="M303.883,301.121a1.172,1.172,0,1,0,.829.343A1.179,1.179,0,0,0,303.883,301.121Zm0,0" transform="translate(-267.237 -265.833)"/>
      <path id="Trazado_102203" data-name="Trazado 102203" d="M167.475,169.762a3.229,3.229,0,0,0,2.778,4.811,3.229,3.229,0,0,0,5.555,0,3.228,3.228,0,0,0,2.778-4.811,3.294,3.294,0,0,0-.018-3.2h0a3.294,3.294,0,0,0-2.76-1.614,3.228,3.228,0,0,0-5.555,0,3.229,3.229,0,0,0-2.778,4.811Zm2.3-.766a.975.975,0,0,1,.966-1.674,1.172,1.172,0,0,0,1.327-.767.976.976,0,0,1,1.933,0,1.172,1.172,0,0,0,1.328.767.975.975,0,0,1,.966,1.674,1.172,1.172,0,0,0,0,1.533.975.975,0,0,1-.966,1.674,1.173,1.173,0,0,0-1.328.767.976.976,0,0,1-1.933,0,1.171,1.171,0,0,0-1.328-.767.975.975,0,0,1-.966-1.674A1.172,1.172,0,0,0,169.771,169Zm0,0" transform="translate(-147.492 -144.223)"/>
      <path id="Trazado_102204" data-name="Trazado 102204" d="M208.981,210.274a1.172,1.172,0,1,0-.829-.343A1.175,1.175,0,0,0,208.981,210.274Zm0,0" transform="translate(-183.456 -183.563)"/>
      <path id="Trazado_102205" data-name="Trazado 102205" d="M114.016,208.273a1.171,1.171,0,1,0,.829-.343,1.175,1.175,0,0,0-.829.343Zm0,0" transform="translate(-100.351 -183.562)"/>
    </g>
  </g>
</svg>
