<svg xmlns="http://www.w3.org/2000/svg" width="76" height="76" viewBox="0 0 76 76">
  <g id="Grupo_58443" data-name="Grupo 58443" transform="translate(-392 -3872)">
    <rect id="Rectángulo_5543" data-name="Rectángulo 5543" width="76" height="76" transform="translate(392 3872)" fill="none"/>
    <g id="instrucciones" transform="translate(389.332 3879)">
      <g id="Grupo_58459" data-name="Grupo 58459" transform="translate(12.211 1.211)">
        <path id="Trazado_102219" data-name="Trazado 102219" d="M65.3,10H25.514A4.522,4.522,0,0,0,21,14.5v3.223a1.54,1.54,0,0,0,1.538,1.534H59.253a1.54,1.54,0,0,0,1.538-1.534V14.5A4.52,4.52,0,0,1,65.3,10Z" transform="translate(-21 -9.999)" fill="#e6dfe1" fill-rule="evenodd"/>
      </g>
      <g id="Grupo_58460" data-name="Grupo 58460" transform="translate(16.14 1.211)">
        <path id="Trazado_102220" data-name="Trazado 102220" d="M87.769,19.259H53.445V65.95a1.54,1.54,0,0,0,1.538,1.534H87.391a16.01,16.01,0,0,1-3.547-3.4L75.439,53.3c-2.69-3.453,1.552-8.017,4.521-4.839l2.948,3.161c2.381,2.55,1.94,1,1.94-2.612v-17.5a2.7,2.7,0,1,1,5.394,0V42.107a2.7,2.7,0,1,1,5.394,0V44.4a2.663,2.663,0,0,1,2.7-2.849V14.5a4.514,4.514,0,0,0-9.028,0v3.223a1.54,1.54,0,0,1-1.538,1.534ZM66.391,26.01a1.126,1.126,0,0,1,1.125,1.119v4.705a1.126,1.126,0,0,1-1.125,1.119H61.674a1.125,1.125,0,0,1-1.122-1.119V27.129a1.125,1.125,0,0,1,1.122-1.119Z" transform="translate(-53.445 -9.999)" fill="#fff" fill-rule="evenodd"/>
      </g>
      <g id="Grupo_58461" data-name="Grupo 58461" transform="translate(23.248 17.222)">
        <path id="Trazado_102221" data-name="Trazado 102221" d="M117.979,142.218h-4.717a1.125,1.125,0,0,0-1.122,1.119v4.705a1.125,1.125,0,0,0,1.122,1.119h4.717a1.126,1.126,0,0,0,1.125-1.119v-4.705A1.126,1.126,0,0,0,117.979,142.218Z" transform="translate(-112.141 -142.218)" fill="#a0c8ff" fill-rule="evenodd"/>
      </g>
      <g id="Grupo_58462" data-name="Grupo 58462" transform="translate(37.277 19.877)">
        <path id="Trazado_102222" data-name="Trazado 102222" d="M238.265,166.989v17.5c0,3.607.44,5.162-1.94,2.612l-2.948-3.161c-2.969-3.178-7.211,1.387-4.521,4.839l8.4,10.787a16.011,16.011,0,0,0,3.547,3.4c8.46,5.8,19.111-1.071,19.039-13.406v-7.389a2.7,2.7,0,1,0-5.4,0v-2.289a2.7,2.7,0,1,0-5.395,0v-2.293a2.7,2.7,0,1,0-5.394,0V166.989a2.7,2.7,0,1,0-5.394,0Z" transform="translate(-227.999 -164.142)" fill="#ffdcd5" fill-rule="evenodd"/>
      </g>
      <g id="Grupo_58463" data-name="Grupo 58463" transform="translate(11 0)">
        <path id="Trazado_102223" data-name="Trazado 102223" d="M104.474,141.584h4.717a2.336,2.336,0,0,0,2.336-2.33v-4.705a2.336,2.336,0,0,0-2.336-2.33h-4.717a2.334,2.334,0,0,0-2.333,2.33v4.705A2.334,2.334,0,0,0,104.474,141.584Zm.089-6.943H109.1v4.522h-4.541Z" transform="translate(-91.104 -116.208)"/>
        <path id="Trazado_102224" data-name="Trazado 102224" d="M66.426,33.843a4.055,4.055,0,0,0-1.693.369,3.734,3.734,0,0,0-2.492-2.474V5.714A5.726,5.726,0,0,0,56.516,0H16.725A5.726,5.726,0,0,0,11,5.714V8.937a2.75,2.75,0,0,0,2.749,2.745h1.18v45.48a2.75,2.75,0,0,0,2.749,2.745H49.725A12.439,12.439,0,0,0,56.521,62a11.965,11.965,0,0,0,3.934-.674,14.014,14.014,0,0,0,7.078-5.746,18.776,18.776,0,0,0,2.8-10.291V37.9a3.855,3.855,0,0,0-3.91-4.058ZM17.351,57.162V11.682h11.1a1.211,1.211,0,1,0,0-2.422h-14.7a.33.33,0,0,1-.327-.323V5.714a3.3,3.3,0,0,1,3.3-3.292H51.839a5.674,5.674,0,0,0-1.048,3.292V8.937a.33.33,0,0,1-.327.323H39.345a1.211,1.211,0,1,0,0,2.422H50.464a2.75,2.75,0,0,0,2.749-2.745V5.714a3.3,3.3,0,0,1,6.605,0V31.737a3.968,3.968,0,0,0-.48.183,3.814,3.814,0,0,0-3.7-2.66,4.062,4.062,0,0,0-1.486.281V22.723a3.911,3.911,0,1,0-7.816,0v17.5c0,.551.01,1.054.019,1.5,0,.048,0,.1,0,.145L43.54,38.845a4.036,4.036,0,0,0-5.765-.438,4.908,4.908,0,0,0-.6,6.847l8.4,10.787q.6.769,1.244,1.443H17.678a.329.329,0,0,1-.327-.323ZM67.914,45.3c.039,6.6-3.2,11.989-8.253,13.741-4.274,1.482-8.823-.194-12.167-4.484l-8.4-10.787a2.518,2.518,0,0,1,.257-3.517,1.721,1.721,0,0,1,1.086-.437,1.831,1.831,0,0,1,1.337.685l2.949,3.161c.832.891,1.867,2,3.015,1.536A1.918,1.918,0,0,0,48.76,43.45c.038-.467.027-1.047.012-1.781-.008-.432-.018-.922-.018-1.449v-17.5a1.493,1.493,0,1,1,2.972,0V40.059a1.211,1.211,0,0,0,2.422,0V33.319a1.454,1.454,0,0,1,1.486-1.636,1.505,1.505,0,0,1,1.026.384,1.642,1.642,0,0,1,.461,1.252v6.741a1.211,1.211,0,0,0,2.422,0V35.611a1.454,1.454,0,0,1,1.485-1.637,1.508,1.508,0,0,1,1.026.384,1.643,1.643,0,0,1,.461,1.253v4.448a1.211,1.211,0,0,0,2.422,0V37.9a1.455,1.455,0,0,1,1.488-1.636,1.509,1.509,0,0,1,1.027.384,1.641,1.641,0,0,1,.461,1.252v7.4Z" transform="translate(-11 0)"/>
        <path id="Trazado_102225" data-name="Trazado 102225" d="M201.721,133.43a1.211,1.211,0,0,0,1.211,1.211h9.691a1.211,1.211,0,1,0,0-2.422h-9.691A1.211,1.211,0,0,0,201.721,133.43Z" transform="translate(-178.626 -116.208)"/>
        <path id="Trazado_102226" data-name="Trazado 102226" d="M210.566,189.557h-7.634a1.211,1.211,0,1,0,0,2.422h7.634a1.211,1.211,0,1,0,0-2.422Z" transform="translate(-178.626 -166.603)"/>
        <path id="Trazado_102227" data-name="Trazado 102227" d="M103.352,249.344h18.5a1.211,1.211,0,1,0,0-2.422h-18.5a1.211,1.211,0,1,0,0,2.422Z" transform="translate(-91.104 -217.021)"/>
        <path id="Trazado_102228" data-name="Trazado 102228" d="M103.352,306.682h9.977a1.211,1.211,0,1,0,0-2.422h-9.977a1.211,1.211,0,1,0,0,2.422Z" transform="translate(-91.104 -267.416)"/>
        <path id="Trazado_102229" data-name="Trazado 102229" d="M103.352,364.048h8.787a1.211,1.211,0,1,0,0-2.422h-8.787a1.211,1.211,0,1,0,0,2.422Z" transform="translate(-91.104 -317.835)"/>
        <path id="Trazado_102230" data-name="Trazado 102230" d="M116.243,418.964H103.352a1.211,1.211,0,1,0,0,2.422h12.891a1.211,1.211,0,1,0,0-2.422Z" transform="translate(-91.104 -368.23)"/>
        <path id="Trazado_102231" data-name="Trazado 102231" d="M191.284,78.891h.007a1.214,1.214,0,1,0-.007,0Z" transform="translate(-168.388 -67.209)"/>
      </g>
    </g>
  </g>
</svg>
