<svg xmlns="http://www.w3.org/2000/svg" width="118.494" height="112.822" viewBox="0 0 118.494 112.822">
  <g id="Grupo_1054272" data-name="Grupo 1054272" transform="translate(-426 -1381)">
    <rect id="Rectángulo_338875" data-name="Rectángulo 338875" width="118.494" height="112.823" rx="10" transform="translate(426 1381)" fill="#9f0925"/>
    <g id="tabla-de-planchar-2" transform="translate(437.75 1351.473)">
      <g id="Grupo_1054279" data-name="Grupo 1054279" transform="translate(1.392 48.588)">
        <path id="Trazado_771485" data-name="Trazado 771485" d="M309.888,55.976l-1.54,2.045a.928.928,0,0,0,.746,1.48l.67.2h7.978a2.783,2.783,0,0,1,0,5.566h-3.28l-2.481.074c-5.943,0-10.13,1.033-10.13,6.976l11.906,1.292,14.19-1.292V64.158a9.462,9.462,0,0,0-9.462-9.462h-3.906l-2.453.154A2.783,2.783,0,0,0,309.888,55.976Z" transform="translate(-247.239 -54.696)" fill="#ddebfd"/>
        <g id="Grupo_1054276" data-name="Grupo 1054276" transform="translate(50.286 0.001)">
          <path id="Trazado_771486" data-name="Trazado 771486" d="M340.586,54.7a2.783,2.783,0,0,0-2.238,1.126l-2.876,3.882h-1.126a.928.928,0,0,1-.746-1.481l1.779-2.4a2.783,2.783,0,0,1,2.238-1.126Z" transform="translate(-323.233 -54.7)" fill="#cde2ff"/>
          <path id="Trazado_771487" data-name="Trazado 771487" d="M312.23,111.7c-5.943,0-10.761,1.812-10.761,7.05l-1.463.825-1.506-.825a7.05,7.05,0,0,1,7.05-7.05Z" transform="translate(-294.795 -101.125)" fill="#cde2ff"/>
          <path id="Trazado_771488" data-name="Trazado 771488" d="M310.744,154.334H278.532v-.371c0-1.843,2.241-4.01,2.241-4.01a4.26,4.26,0,0,1,1.464-.258h28.572a.557.557,0,0,1,.557.557v1.856Z" transform="translate(-278.532 -132.071)" fill="#cde2ff"/>
        </g>
        <path id="Trazado_771489" data-name="Trazado 771489" d="M308.9,153.239v2.226l-17.438,1.39-15.958-1.39v-.371a4.272,4.272,0,0,1,2.8-4.011,4.472,4.472,0,0,0-.315,1.059.93.93,0,0,0,.913,1.1Z" transform="translate(-225.777 -133.201)" fill="#bed9fd"/>
        <g id="Grupo_1054277" data-name="Grupo 1054277" transform="translate(7.421 2.783)">
          <path id="Trazado_771490" data-name="Trazado 771490" d="M72.561,69.7H52.523a3.249,3.249,0,0,0-.984.152s-1.858,1.645-1.858,3.095a2.95,2.95,0,0,0,3.19,2.94l19.193.04c1.569,0,3.678-2.325,3.678-2.325a3.249,3.249,0,0,0-3.181-3.9Z" transform="translate(-49.276 -69.696)" fill="#ffe07d"/>
          <path id="Trazado_771491" data-name="Trazado 771491" d="M73.965,74.264a3.243,3.243,0,0,1-3.181,2.593l-9.817,1.366L50.747,76.857a3.248,3.248,0,0,1-.984-6.342,3.385,3.385,0,0,0-.036.5,3.25,3.25,0,0,0,3.247,3.247Z" transform="translate(-47.5 -70.363)" fill="#ffd064"/>
        </g>
        <g id="Grupo_1054278" data-name="Grupo 1054278" transform="translate(7.421 9.277)">
          <path id="Trazado_771492" data-name="Trazado 771492" d="M72.561,104.7H52.523a3.249,3.249,0,0,0-.984.152s-1.858,1.645-1.858,3.095a2.95,2.95,0,0,0,3.19,2.94l19.193.04c1.569,0,3.678-2.325,3.678-2.325a3.249,3.249,0,0,0-3.181-3.9Z" transform="translate(-49.276 -104.696)" fill="#daf1a1"/>
          <path id="Trazado_771493" data-name="Trazado 771493" d="M73.965,109.264a3.243,3.243,0,0,1-3.181,2.593l-9.817,1.366-10.221-1.366a3.248,3.248,0,0,1-.984-6.343,3.386,3.386,0,0,0-.036.5,3.25,3.25,0,0,0,3.247,3.247Z" transform="translate(-47.5 -105.363)" fill="#c9eb74"/>
        </g>
        <path id="Trazado_771494" data-name="Trazado 771494" d="M72.7,139.7H52.662a3.238,3.238,0,0,0-1.207.232s-1.6,1.648-1.6,3.015v3.247H75.589l.357-2.6v-.65A3.247,3.247,0,0,0,72.7,139.7Z" transform="translate(-41.993 -123.926)" fill="#ddebfd"/>
        <path id="Trazado_771495" data-name="Trazado 771495" d="M74.031,144.61v2.6L60.284,149.64,47.5,147.208v-3.247a3.244,3.244,0,0,1,2.04-3.016v1.81A1.855,1.855,0,0,0,51.4,144.61Z" transform="translate(-40.079 -124.943)" fill="#cde2ff"/>
        <path id="Trazado_771496" data-name="Trazado 771496" d="M168.186,190.7,208.8,239.231a.557.557,0,0,1-.425.914l-3.274.011-1.5-.311a2.226,2.226,0,0,1-1.715-.8L162.532,190.7Z" transform="translate(-133.768 -165.463)" fill="#857e87"/>
        <path id="Trazado_771497" data-name="Trazado 771497" d="M198.191,240.159l-1.731,0a2.221,2.221,0,0,1-1.716-.8L154.05,190.7h2.783Z" transform="translate(-126.86 -165.467)" fill="#6f6571"/>
        <path id="Trazado_771498" data-name="Trazado 771498" d="M148.568,190.7l-40.694,48.667a2.226,2.226,0,0,1-1.715.8l-3.231-.01-1.5-.083a.557.557,0,0,1-.425-.914L143.244,190.7h5.324Z" transform="translate(-83.547 -165.463)" fill="#857e87"/>
        <path id="Trazado_771499" data-name="Trazado 771499" d="M101.727,240.154l-1.776-.005a.557.557,0,0,1-.425-.915L140.138,190.7h2.969Z" transform="translate(-82.346 -165.467)" fill="#6f6571"/>
        <path id="Trazado_771500" data-name="Trazado 771500" d="M99.638,180.4l-88.843-.213a1.3,1.3,0,0,1-1.3-1.3l-.028-2.491a1.3,1.3,0,0,1,1.3-1.3l.934-.4H64.578l15.1,1.2,12.543-1.2h7.792a1.3,1.3,0,0,1,1.3,1.3v2.042l-.377,1.062A1.3,1.3,0,0,1,99.638,180.4Z" transform="translate(-9.103 -152.432)" fill="#ffe07d"/>
        <path id="Trazado_771501" data-name="Trazado 771501" d="M99.711,178.04v1.3a1.3,1.3,0,0,1-1.3,1.3H8.8a1.3,1.3,0,0,1-1.3-1.3V176a1.3,1.3,0,0,1,1.3-1.3h1.3l.008,1.494a1.855,1.855,0,0,0,1.855,1.846Z" transform="translate(-7.5 -152.435)" fill="#ffd064"/>
        <circle id="Elipse_8065" data-name="Elipse 8065" cx="5.102" cy="5.102" r="5.102" transform="translate(41.003 38.313)" fill="#e9edf1"/>
        <path id="Trazado_771502" data-name="Trazado 771502" d="M321.495,188.466h-8.837a.87.87,0,0,1-.85-.888V175.258l1.427-.562h8.26l1.05,7.891Z" transform="translate(-255.348 -152.432)" fill="#efa5c4"/>
        <path id="Trazado_771503" data-name="Trazado 771503" d="M317.076,186.487l.957,1.288-.957,1.31h-9.648a.927.927,0,0,1-.928-.928V174.7h2.412l0,9.932a1.855,1.855,0,0,0,1.855,1.855Z" transform="translate(-251.025 -152.435)" fill="#e592b8"/>
        <path id="Trazado_771504" data-name="Trazado 771504" d="M381.24,196.311H367.692a.928.928,0,0,1-.928-.928l-.146-20.086,2.019-.6h14.472v19.667l-.941,1.02A.928.928,0,0,1,381.24,196.311Z" transform="translate(-299.989 -152.432)" fill="#efa5c4"/>
        <path id="Trazado_771505" data-name="Trazado 771505" d="M380.569,194.367v1.67a.928.928,0,0,1-.928.928H364.428a.928.928,0,0,1-.928-.928V174.7h2.6v17.811a1.855,1.855,0,0,0,1.855,1.855Z" transform="translate(-297.45 -152.435)" fill="#e592b8"/>
      </g>
      <g id="Grupo_1054280" data-name="Grupo 1054280" transform="translate(0 47.197)">
        <path id="Trazado_771506" data-name="Trazado 771506" d="M92.431,69.467a8.576,8.576,0,0,0-1.2-6.982c-2.053-2.818-5.732-3.636-7.739-3.874v-.561A10.866,10.866,0,0,0,72.637,47.2H66.061a4.191,4.191,0,0,0-3.354,1.69l-1.78,2.4a2.319,2.319,0,0,0,1.864,3.7h9.1a1.392,1.392,0,0,1,0,2.783H62.432a8.454,8.454,0,0,0-8.351,7.208l-.029,0a5.674,5.674,0,0,0-4.236,4.479H36.736V67.606a4.622,4.622,0,0,0-1.33-3.247,4.628,4.628,0,0,0,0-6.494A4.635,4.635,0,0,0,32.1,49.98H12.06a4.635,4.635,0,0,0-3.308,7.885,4.628,4.628,0,0,0,0,6.494,4.622,4.622,0,0,0-1.33,3.247v1.855H2.69A2.693,2.693,0,0,0,0,72.151v3.34a2.693,2.693,0,0,0,2.69,2.69H8.813a1.392,1.392,0,1,0,0-2.783H2.783V72.244H55.475V75.4H15.307a1.392,1.392,0,1,0,0,2.783H30.413L41.09,90.95a7.03,7.03,0,0,0,.032,2.289L17.506,121.463a1.948,1.948,0,0,0,1.488,3.2l5.005.016h.012a3.607,3.607,0,0,0,2.775-1.3l8.292-9.916a1.391,1.391,0,0,0-2.135-1.785L24.651,121.6a.833.833,0,0,1-.64.3h0l-3.225-.01L42.412,96.035a6.536,6.536,0,0,0,2.145,1.756l-7.446,8.9a1.391,1.391,0,1,0,2.135,1.785L47.5,98.612,68.208,123.38a3.607,3.607,0,0,0,2.775,1.3L76,124.661a1.948,1.948,0,0,0,1.488-3.2L53.871,93.239A6.369,6.369,0,0,0,53.9,90.95l3.612-4.32H66.05v6.487a1.392,1.392,0,0,0,1.392,1.392H84.511A1.392,1.392,0,0,0,85.9,93.117V88.724a1.392,1.392,0,0,0-2.783,0v3H68.833V72.244H83.12V82.23a1.392,1.392,0,0,0,2.783,0V78.181h6.4a2.693,2.693,0,0,0,2.69-2.69v-3.34a2.691,2.691,0,0,0-2.563-2.684Zm-58.478-.006H10.2V67.606A1.857,1.857,0,0,1,12.06,65.75H32.1a1.857,1.857,0,0,1,1.855,1.855ZM32.1,62.967H12.06a1.855,1.855,0,0,1,0-3.711H32.1a1.855,1.855,0,0,1,0,3.711Zm0-6.494H12.06a1.855,1.855,0,0,1,0-3.711H32.1a1.855,1.855,0,1,1,0,3.711ZM53.722,78.181l-6.134,7.331c-.033,0-.03-.005-.182,0l-6.134-7.331Zm-11.4,9.9-8.282-9.9h3.6l6.781,8.1A6.541,6.541,0,0,0,42.322,88.085ZM47.5,95.714A3.711,3.711,0,1,1,51.208,92,3.715,3.715,0,0,1,47.5,95.714Zm26.715,26.17-3.226.01h0a.833.833,0,0,1-.64-.3L50.438,97.79a6.534,6.534,0,0,0,2.145-1.756ZM55.475,84.732l-2.8,3.353a6.537,6.537,0,0,0-2.1-1.8l4.9-5.862Zm10.575-.886H58.258v-11.6H66.05ZM83.119,69.461H52.7a2.878,2.878,0,0,1,2.685-1.855h6.227a1.392,1.392,0,0,0,0-2.783H56.947a5.669,5.669,0,0,1,5.486-4.267h9.462a4.175,4.175,0,1,0,0-8.349H63.711l1.232-1.663a1.4,1.4,0,0,1,1.118-.563h6.576a8.08,8.08,0,0,1,8.071,8.071v6.772H68.1a1.392,1.392,0,0,0,0,2.783H83.119Zm1.392-4.638h-1.02v-3.4c1.6.226,4.159.871,5.495,2.712.947,1.306,1.147,3.1.6,5.329H85.9V66.214A1.392,1.392,0,0,0,84.511,64.823Zm7.7,10.575H85.9V72.244h6.308Z" transform="translate(0 -47.197)"/>
        <circle id="Elipse_8066" data-name="Elipse 8066" cx="1.392" cy="1.392" r="1.392" transform="translate(46.105 43.415)"/>
      </g>
    </g>
  </g>
</svg>
