<svg xmlns="http://www.w3.org/2000/svg" width="76" height="76" viewBox="0 0 76 76">
  <g id="Grupo_58442" data-name="Grupo 58442" transform="translate(-392 -3785)">
    <rect id="Rectángulo_5542" data-name="Rectángulo 5542" width="76" height="76" transform="translate(392 3785)" fill="none"/>
    <g id="Fill_out_line" data-name="Fill out line" transform="translate(381.499 3774.494)">
      <path id="Trazado_102206" data-name="Trazado 102206" d="M154,48.841a3.329,3.329,0,0,1-3.326,3.326H131.326a3.324,3.324,0,0,1-3.182-4.29,3.283,3.283,0,0,1,.416-.882,9.569,9.569,0,0,0,1.607-5.311V34.834a10.834,10.834,0,1,1,21.667,0v6.851A9.577,9.577,0,0,0,153.441,47,3.341,3.341,0,0,1,154,48.841Z" transform="translate(-96.833 -6.912)" fill="#2f4054"/>
      <path id="Trazado_102207" data-name="Trazado 102207" d="M107.905,195.477l-7.662,2.19v8.667H72.076v-8.667l-7.506-2.145,1.607-5.028a13.052,13.052,0,0,1,12.431-9.077h.221A5.419,5.419,0,0,0,84.246,176H88.58A5.412,5.412,0,0,0,94,181.417a13.052,13.052,0,0,1,12.515,9.349Z" transform="translate(-41.993 -138.328)" fill="#8acce7"/>
      <path id="Trazado_102208" data-name="Trazado 102208" d="M62.66,330.972a3.251,3.251,0,0,1-3.25,3.25H51.577a5.416,5.416,0,0,1-5.177-7.009l2.253-7.053L56.16,322.3v5.417h3.25a3.25,3.25,0,0,1,3.25,3.25Z" transform="translate(-26.076 -262.966)" fill="#f4ceaf"/>
      <path id="Trazado_102209" data-name="Trazado 102209" d="M277.249,333.937h-10a3.25,3.25,0,0,1,0-6.5h5.417V322.02l7.662-2.19,2.1,7.1a5.416,5.416,0,0,1-5.177,7.009Z" transform="translate(-214.416 -262.681)" fill="#f4ceaf"/>
      <path id="Trazado_102210" data-name="Trazado 102210" d="M193.93,180.982l-.654.98a6.072,6.072,0,0,1-10.1,0l-.551-.826a5.422,5.422,0,0,0,2.1-1.307l.1-.107A5.4,5.4,0,0,0,186.31,176h4.333a5.391,5.391,0,0,0,1.349,3.575c.077.088.156.172.238.255A5.431,5.431,0,0,0,193.93,180.982Z" transform="translate(-144.056 -138.328)" fill="#f4ceaf"/>
      <path id="Trazado_102211" data-name="Trazado 102211" d="M144.667,102.5h-6.5A2.167,2.167,0,0,1,136,100.333V98.167A2.167,2.167,0,0,1,138.167,96h0a2.167,2.167,0,0,1,2.167,2.167Z" transform="translate(-103.75 -69.162)" fill="#f2c194"/>
      <path id="Trazado_102212" data-name="Trazado 102212" d="M268.333,102.5H264l2.167-4.333A2.167,2.167,0,0,1,268.333,96h0a2.167,2.167,0,0,1,2.167,2.167v2.167A2.167,2.167,0,0,1,268.333,102.5Z" transform="translate(-214.416 -69.162)" fill="#f2c194"/>
      <path id="Trazado_102213" data-name="Trazado 102213" d="M206.085,179.575a9.746,9.746,0,0,1-7.165.148A5.4,5.4,0,0,0,200.4,176h4.333a5.391,5.391,0,0,0,1.349,3.575Z" transform="translate(-158.149 -138.328)" fill="#f2c194"/>
      <path id="Trazado_102214" data-name="Trazado 102214" d="M183.167,67.312v3.8a7.583,7.583,0,1,1-15.167,0v-3.8a1.614,1.614,0,0,1,1.616-1.616,3.413,3.413,0,0,0,3.329-2.647,2.709,2.709,0,0,1,5.279,0,3.413,3.413,0,0,0,3.329,2.647,1.615,1.615,0,0,1,1.616,1.616Z" transform="translate(-131.416 -38.858)" fill="#f4ceaf"/>
      <path id="Trazado_102215" data-name="Trazado 102215" d="M217.584,244.333v14.084h-13v-9.75h-13l-.589,1.769a2.169,2.169,0,0,1-2.056,1.482h-2.772A2.166,2.166,0,0,1,184,249.75v-5.417A4.334,4.334,0,0,1,188.333,240h24.918a4.334,4.334,0,0,1,4.333,4.333Z" transform="translate(-145.25 -193.661)" fill="#c4d4e0"/>
      <rect id="Rectángulo_5664" data-name="Rectángulo 5664" width="8" height="3" rx="1.5" transform="translate(56 43.006)" fill="#ad7d4d"/>
      <rect id="Rectángulo_5665" data-name="Rectángulo 5665" width="8" height="4" rx="2" transform="translate(56 36.006)" fill="#ad7d4d"/>
      <rect id="Rectángulo_5666" data-name="Rectángulo 5666" width="6" height="3" transform="translate(57 40.006)" fill="#008051"/>
      <ellipse id="Elipse_225" data-name="Elipse 225" cx="2.5" cy="2" rx="2.5" ry="2" transform="translate(63 53.006)" fill="#a6b2bc"/>
      <rect id="Rectángulo_5667" data-name="Rectángulo 5667" width="3" height="8" rx="1.5" transform="translate(73 49.006)" fill="#a6b2bc"/>
      <rect id="Rectángulo_5668" data-name="Rectángulo 5668" width="39" height="8" rx="4" transform="translate(36 64.006)" fill="#a6b2bc"/>
      <path id="Trazado_102216" data-name="Trazado 102216" d="M193.833,380.459a3.833,3.833,0,0,1,.967,3.792h-13a3.827,3.827,0,0,0-.966-3.792,3.828,3.828,0,0,1,0-5.417,3.828,3.828,0,0,0,0-5.417,3.808,3.808,0,0,1-.966-1.625h13a3.808,3.808,0,0,0,.966,1.625,3.828,3.828,0,0,1,0,5.417,3.828,3.828,0,0,0,0,5.417Z" transform="translate(-141.541 -304.328)" fill="#349966"/>
      <circle id="Elipse_226" data-name="Elipse 226" cx="1" cy="1" r="1" transform="translate(40 29.006)"/>
      <ellipse id="Elipse_227" data-name="Elipse 227" cx="1.5" cy="1" rx="1.5" ry="1" transform="translate(46 29.006)"/>
      <path id="Trazado_102217" data-name="Trazado 102217" d="M363.25,286.5a3.25,3.25,0,1,0-3.25-3.25A3.25,3.25,0,0,0,363.25,286.5Zm0-4.333a1.083,1.083,0,1,1-1.083,1.083A1.083,1.083,0,0,1,363.25,282.167Z" transform="translate(-297.416 -228.245)"/>
      <path id="Trazado_102218" data-name="Trazado 102218" d="M76.668,68.006V65.839A2.169,2.169,0,0,0,74.5,63.672H73.418V58.255h2.167a2.169,2.169,0,0,0,2.167-2.167V50.672a2.169,2.169,0,0,0-2.167-2.167H73.418a2.17,2.17,0,0,0-.434.044A5.425,5.425,0,0,0,68,45.255H65.78a2.709,2.709,0,0,0-2.112-3.2V39.784a2.708,2.708,0,0,0-.542-5.362H57.709a2.691,2.691,0,0,0-1.621.544c0-.064,0-.129,0-.193V33.591a3.242,3.242,0,0,0,1.083-2.42V29A3.244,3.244,0,0,0,56,26.513a11.917,11.917,0,0,0-23.667,0A3.244,3.244,0,0,0,31.167,29v2.167a3.242,3.242,0,0,0,1.083,2.42v1.181a8.465,8.465,0,0,1-1.426,4.71,4.408,4.408,0,0,0-.467,3.976,14.091,14.091,0,0,0-7.2,8.377L19.288,63.927a6.443,6.443,0,0,0,.079,4.078H16v2.167h4.658A6.429,6.429,0,0,0,25.5,72.339h7.833a4.311,4.311,0,0,0,2.6-.87,2.168,2.168,0,0,0,1.282.823,4.944,4.944,0,0,0-.131,1.131,4.882,4.882,0,0,0,1.44,3.474,2.746,2.746,0,0,1,.692,2.72,1.083,1.083,0,0,0,1.039,1.389h13A1.083,1.083,0,0,0,54.3,80.23a4.916,4.916,0,0,0-1.24-4.865,2.744,2.744,0,0,1-.582-3.026H74.5a2.169,2.169,0,0,0,2.167-2.167H81V68.006ZM75.584,50.672v5.417H73.418V50.672Zm-4.333,0v13H60.417V55.005a1.083,1.083,0,0,0-1.083-1.083h-11.5l.608-1.824-2.055-.685-1.673,5.019a1.082,1.082,0,0,1-1.028.741H40.917a1.085,1.085,0,0,1-1.083-1.083V50.672a3.254,3.254,0,0,1,3.25-3.25H68A3.254,3.254,0,0,1,71.251,50.672Zm-18.774,13a2.7,2.7,0,0,1-.11-.3,1.083,1.083,0,0,0-1.04-.779H43.084v-3.25h.605a3.246,3.246,0,0,0,3.083-2.222l.343-1.028H58.251v7.583ZM35.5,31.172v1.083H34.417a1.085,1.085,0,0,1-1.083-1.083V29A1.083,1.083,0,1,1,35.5,29a1.083,1.083,0,0,0,2.167,0v-.551a.533.533,0,0,1,.533-.533,4.479,4.479,0,0,0,4.384-3.488,1.625,1.625,0,0,1,3.167,0,4.479,4.479,0,0,0,4.384,3.488.533.533,0,0,1,.533.533V29a1.083,1.083,0,1,0,2.167,0A1.083,1.083,0,1,1,55,29v2.167a1.085,1.085,0,0,1-1.083,1.083H52.834V31.172H50.667v1.083a6.5,6.5,0,0,1-13,0V31.172Zm7.052,9.6a8.582,8.582,0,0,0,3.208,0,6.518,6.518,0,0,0,2.4,2.486,4.987,4.987,0,0,1-7.989-.01,6.518,6.518,0,0,0,2.383-2.48Zm12.5,4.487H49.3a7.188,7.188,0,0,0,.824-1.02l.121-.182a6.465,6.465,0,0,0,1.231.119h.22a11.929,11.929,0,0,1,3.312.469.614.614,0,0,0-.006.073,2.712,2.712,0,0,0,.055.542Zm2.654,0a.542.542,0,0,1,0-1.083h5.417a.542.542,0,0,1,0,1.083Zm1.625-3.25V39.838H61.5v2.167Zm-1.625-5.417h5.417a.542.542,0,0,1,0,1.083H57.709a.542.542,0,0,1,0-1.083Zm-2,4.1a2.236,2.236,0,0,1,.377,1.244h1.083v.131a2.7,2.7,0,0,0-1.221.6,14.079,14.079,0,0,0-4.252-.656h-.22a4.347,4.347,0,0,1-3.6-1.919,8.7,8.7,0,0,0,4.683-5.664h1.358v.351a10.625,10.625,0,0,0,1.79,5.912ZM44.167,18.171a9.794,9.794,0,0,1,9.509,7.594,3.234,3.234,0,0,0-1.75.672,2.689,2.689,0,0,0-1.792-.682,2.322,2.322,0,0,1-2.273-1.808,3.792,3.792,0,0,0-7.389,0A2.322,2.322,0,0,1,38.2,25.755a2.689,2.689,0,0,0-1.792.682,3.234,3.234,0,0,0-1.75-.672A9.794,9.794,0,0,1,44.167,18.171ZM32.25,41.929a2.236,2.236,0,0,1,.377-1.244,10.624,10.624,0,0,0,1.79-5.912v-.351h1.358a8.7,8.7,0,0,0,4.665,5.656,4.347,4.347,0,0,1-3.6,1.927h-.22a14.2,14.2,0,0,0-4.247.649A2.242,2.242,0,0,1,32.25,41.929Zm4.366,2.243h.22a6.465,6.465,0,0,0,1.252-.122l.124.186A7.157,7.157,0,0,0,40.1,46.154a5.415,5.415,0,0,0-2.433,4.518v5.417a3.254,3.254,0,0,0,3.25,3.25v3.25H38.327a1.082,1.082,0,0,0-1.082,1.125,2.168,2.168,0,0,0-1.31.828,4.311,4.311,0,0,0-2.6-.87H31.167V56.089H29V57.9L23.95,56.46,25.217,52.5A11.929,11.929,0,0,1,36.616,44.172Zm-3.283,26H25.5a4.334,4.334,0,0,1-4.145-5.6l1.934-6.051L29,60.156v3.516H23.583v2.167h9.75a2.167,2.167,0,0,1,0,4.333Zm4.333,0V65.839h.648q.1.115.211.224a2.745,2.745,0,0,1,0,3.885c-.073.073-.142.148-.21.224Zm2.391,5.192a2.745,2.745,0,0,1,0-3.885,4.912,4.912,0,0,0,.211-6.724h1.657a4.925,4.925,0,0,0,.934,1.308,2.745,2.745,0,0,1,0,3.885,4.912,4.912,0,0,0,0,6.949,2.747,2.747,0,0,1,.8,1.942H41.5a4.912,4.912,0,0,0-1.44-3.475Zm12.273,3.474h-6.5a4.911,4.911,0,0,0-1.438-3.474,2.745,2.745,0,0,1,0-3.885,4.91,4.91,0,0,0,.209-6.724H50.59a4.927,4.927,0,0,0,.936,1.308,2.745,2.745,0,0,1,0,3.885,4.912,4.912,0,0,0,0,6.949,2.729,2.729,0,0,1,.805,1.942ZM74.5,70.172H54a4.922,4.922,0,0,0,0-4.333H74.5Z"/>
    </g>
  </g>
</svg>
