<svg xmlns="http://www.w3.org/2000/svg" width="76" height="76" viewBox="0 0 76 76">
  <g id="Grupo_58441" data-name="Grupo 58441" transform="translate(-392 -3695)">
    <rect id="Rectángulo_5541" data-name="Rectángulo 5541" width="76" height="76" transform="translate(392 3695)" fill="none"/>
    <g id="sewing-machine" transform="translate(389.764 3701.294)">
      <g id="Grupo_58465" data-name="Grupo 58465" transform="translate(10.642 2.853)">
        <path id="Trazado_102246" data-name="Trazado 102246" d="M127.257,276.731v2.191a1.527,1.527,0,0,0,1.523,1.523H132.5a1.527,1.527,0,0,0,1.523-1.523v-2.191Z" transform="translate(-113.607 -245.31)" fill="#f4dd45"/>
        <path id="Trazado_102247" data-name="Trazado 102247" d="M376.71,23.038h-3.516a1.3,1.3,0,0,0-1.3,1.291v5.984a1.3,1.3,0,0,0,1.3,1.291h3.516a1.3,1.3,0,0,0,1.3-1.291V24.329a1.3,1.3,0,0,0-1.3-1.291Z" transform="translate(-327.944 -23.038)" fill="#f87c68"/>
        <path id="Trazado_102248" data-name="Trazado 102248" d="M374.952,30.314V24.329a1.3,1.3,0,0,1,1.3-1.291h-3.058a1.3,1.3,0,0,0-1.3,1.291v5.984a1.3,1.3,0,0,0,1.3,1.291h3.058A1.3,1.3,0,0,1,374.952,30.314Z" transform="translate(-327.945 -23.038)" fill="#ec625e"/>
        <path id="Trazado_102249" data-name="Trazado 102249" d="M130.967,92.207H100.723A8.789,8.789,0,0,0,91.934,101v11.742a2.7,2.7,0,0,0,2.7,2.7h10.128a2.7,2.7,0,0,0,2.7-2.7V110.07a2.345,2.345,0,0,1,2.345-2.345h12.1a2.345,2.345,0,0,1,2.345,2.345v15.887h15.518V101A8.789,8.789,0,0,0,130.967,92.207Z" transform="translate(-82.659 -83.64)" fill="#7fb3fa"/>
        <g id="Grupo_58464" data-name="Grupo 58464" transform="translate(9.275 8.567)">
          <path id="Trazado_102250" data-name="Trazado 102250" d="M96.309,112.737V101a8.789,8.789,0,0,1,8.789-8.789h-4.375A8.789,8.789,0,0,0,91.934,101v11.742a2.7,2.7,0,0,0,2.7,2.7H99A2.7,2.7,0,0,1,96.309,112.737Z" transform="translate(-91.934 -92.207)" fill="#64a6f4"/>
          <path id="Trazado_102251" data-name="Trazado 102251" d="M338.2,217.505h-4.375a2.345,2.345,0,0,1,2.345,2.345v15.887h4.375V219.85A2.345,2.345,0,0,0,338.2,217.505Z" transform="translate(-303.865 -201.986)" fill="#64a6f4"/>
          <path id="Trazado_102252" data-name="Trazado 102252" d="M98.181,151.63a1.512,1.512,0,0,0,1.512-1.512v-9.772a1.512,1.512,0,0,0-1.512-1.512H92.465a8.773,8.773,0,0,0-.531,3.014v9.783h6.247Z" transform="translate(-91.934 -133.058)" fill="#64a6f4"/>
        </g>
        <path id="Trazado_102253" data-name="Trazado 102253" d="M96.309,141.846a8.773,8.773,0,0,1,.531-3.014H92.465a8.915,8.915,0,0,0-.531,3.012v9.785h4.375Z" transform="translate(-82.659 -124.491)" fill="#3d8bd8"/>
        <circle id="Elipse_232" data-name="Elipse 232" cx="6.893" cy="6.893" r="6.893" transform="translate(45.357 17.146)" fill="#477b9e"/>
        <path id="Trazado_102254" data-name="Trazado 102254" d="M387.313,168.37a6.9,6.9,0,0,1,4.87-6.59,6.893,6.893,0,1,0,0,13.18A6.9,6.9,0,0,1,387.313,168.37Z" transform="translate(-337.91 -144.331)" fill="#3f6d8e"/>
        <circle id="Elipse_233" data-name="Elipse 233" cx="3.259" cy="3.259" r="3.259" transform="translate(48.991 20.78)" fill="#3f6d8e"/>
        <path id="Trazado_102255" data-name="Trazado 102255" d="M415.864,194.074a3.257,3.257,0,0,1,1.63-2.822,3.259,3.259,0,1,0,0,5.644A3.257,3.257,0,0,1,415.864,194.074Z" transform="translate(-363.614 -170.035)" fill="#365e7d"/>
        <path id="Trazado_102256" data-name="Trazado 102256" d="M198.453,361.709h34.629v12.584H198.453Z" transform="translate(-175.986 -319.764)" fill="#b5dcff"/>
        <path id="Trazado_102257" data-name="Trazado 102257" d="M39.211,361.709H36.989a1.968,1.968,0,0,0-1.957,1.98v10.6h4.179Z" transform="translate(-32.805 -319.764)" fill="#8bcaff"/>
        <path id="Trazado_102258" data-name="Trazado 102258" d="M23.455,466.076v-3.945h-5.01a1.4,1.4,0,0,0-1.4,1.4v2.411a1.4,1.4,0,0,0,1.4,1.4h6.269A1.259,1.259,0,0,1,23.455,466.076Z" transform="translate(-17.049 -407.748)" fill="#dbedff"/>
        <path id="Trazado_102259" data-name="Trazado 102259" d="M224.828,462.131H189.55v3.945a1.259,1.259,0,0,1-1.259,1.259h36.537a1.4,1.4,0,0,0,1.4-1.4v-2.411A1.4,1.4,0,0,0,224.828,462.131Z" transform="translate(-167.082 -407.748)" fill="#dbedff"/>
        <path id="Trazado_102260" data-name="Trazado 102260" d="M23.455,475.279v-1.343h-5.01a1.4,1.4,0,0,1-1.391-1.3c0,.032,0,.063,0,.1v2.411a1.4,1.4,0,0,0,1.4,1.4h6.269A1.259,1.259,0,0,1,23.455,475.279Z" transform="translate(-17.049 -416.951)" fill="#b5dcff"/>
        <path id="Trazado_102261" data-name="Trazado 102261" d="M224.828,473.935H189.55v1.343a1.259,1.259,0,0,1-1.259,1.259h36.537a1.4,1.4,0,0,0,1.4-1.4v-2.411c0-.032,0-.064,0-.1A1.4,1.4,0,0,1,224.828,473.935Z" transform="translate(-167.082 -416.95)" fill="#b5dcff"/>
        <path id="Trazado_102262" data-name="Trazado 102262" d="M81.691,351.12H67.033a1.259,1.259,0,0,0-1.259,1.259v16.435a1.259,1.259,0,0,0,1.259,1.259H81.691a1.259,1.259,0,0,0,1.259-1.259V352.378A1.259,1.259,0,0,0,81.691,351.12Z" transform="translate(-59.739 -310.486)" fill="#f87c68"/>
        <path id="Trazado_102263" data-name="Trazado 102263" d="M70.553,368.813V352.378a1.259,1.259,0,0,1,1.259-1.259H67.033a1.259,1.259,0,0,0-1.259,1.259v16.435a1.259,1.259,0,0,0,1.259,1.259h4.779A1.258,1.258,0,0,1,70.553,368.813Z" transform="translate(-59.739 -310.485)" fill="#ec625e"/>
      </g>
      <g id="Grupo_58466" data-name="Grupo 58466" transform="translate(9.736 0)">
        <path id="Trazado_102264" data-name="Trazado 102264" d="M148.2,370.105a.929.929,0,0,0,.929-.929v-.834a.929.929,0,0,0-1.858,0v.834A.929.929,0,0,0,148.2,370.105Z" transform="translate(-130.236 -321.908)"/>
        <path id="Trazado_102265" data-name="Trazado 102265" d="M148.2,402.188a.929.929,0,0,0,.929-.929v-.834a.929.929,0,0,0-1.858,0v.834A.929.929,0,0,0,148.2,402.188Z" transform="translate(-130.236 -350.017)"/>
        <path id="Trazado_102266" data-name="Trazado 102266" d="M148.2,434.271a.929.929,0,0,0,.929-.929v-.834a.929.929,0,0,0-1.858,0v.834A.929.929,0,0,0,148.2,434.271Z" transform="translate(-130.236 -378.127)"/>
        <path id="Trazado_102267" data-name="Trazado 102267" d="M148.2,466.353a.929.929,0,0,0,.929-.929v-.834a.929.929,0,1,0-1.858,0v.834A.929.929,0,0,0,148.2,466.353Z" transform="translate(-130.236 -406.235)"/>
        <path id="Trazado_102268" data-name="Trazado 102268" d="M185.259,131.677a.929.929,0,0,0-.929.929v1.967a.929.929,0,0,0,1.858,0v-1.967A.929.929,0,0,0,185.259,131.677Z" transform="translate(-162.706 -115.368)"/>
        <path id="Trazado_102269" data-name="Trazado 102269" d="M210.236,131.677a.929.929,0,0,0-.929.929v1.967a.929.929,0,1,0,1.858,0v-1.967A.929.929,0,0,0,210.236,131.677Z" transform="translate(-184.589 -115.368)"/>
        <path id="Trazado_102270" data-name="Trazado 102270" d="M235.212,131.677a.929.929,0,0,0-.929.929v1.967a.929.929,0,0,0,1.858,0v-1.967A.929.929,0,0,0,235.212,131.677Z" transform="translate(-206.472 -115.368)"/>
        <path id="Trazado_102271" data-name="Trazado 102271" d="M260.189,131.677a.929.929,0,0,0-.929.929v1.967a.929.929,0,0,0,1.858,0v-1.967A.929.929,0,0,0,260.189,131.677Z" transform="translate(-228.356 -115.368)"/>
        <path id="Trazado_102272" data-name="Trazado 102272" d="M409.479,183.66a4.188,4.188,0,1,0,4.188,4.188A4.193,4.193,0,0,0,409.479,183.66Zm0,6.518a2.33,2.33,0,1,1,2.33-2.33A2.333,2.333,0,0,1,409.479,190.178Z" transform="translate(-356.3 -160.913)"/>
        <path id="Trazado_102273" data-name="Trazado 102273" d="M67.762,50a.929.929,0,0,0,.929-.929V32.2a7.806,7.806,0,0,0,0-10.536V20.252a9.734,9.734,0,0,0-7.15-9.371,2.2,2.2,0,0,0,.119-.709V4.187a2.227,2.227,0,0,0-2.229-2.22H58.6V.929a.929.929,0,0,0-1.858,0V1.967h-.829a2.227,2.227,0,0,0-2.229,2.22V7.15H28.628V6.735a.929.929,0,1,0-1.858,0V7.15h-.034a.929.929,0,1,0,0,1.858h.034v1.725a9.736,9.736,0,0,0-7.759,9.519V31.993a3.628,3.628,0,0,0,3.624,3.624h.751v.89a2.455,2.455,0,0,0,2.452,2.452h.932v.892h-.51a.929.929,0,1,0,0,1.858h.51V42.6H17.958a2.19,2.19,0,0,0-2,1.311H14.849A2.889,2.889,0,0,0,11.963,46.8v9.557a2.326,2.326,0,0,0-2.227,2.32v2.411a2.327,2.327,0,0,0,2.325,2.325h56.35a2.327,2.327,0,0,0,2.325-2.325V58.675a2.327,2.327,0,0,0-2.046-2.306V53.41a.929.929,0,1,0-1.858,0v2.941H34.8V45.771H66.833v3.3a.929.929,0,0,0,.929.929ZM62.915,32.9a5.964,5.964,0,1,1,5.964-5.964A5.97,5.97,0,0,1,62.915,32.9ZM55.542,4.187a.372.372,0,0,1,.371-.362H59.43a.372.372,0,0,1,.371.362v5.984a.372.372,0,0,1-.371.362H55.914a.372.372,0,0,1-.371-.362ZM28.628,9.007H53.685v1.164a2.211,2.211,0,0,0,.032.362H28.728l-.1,0Zm-7.476,9.159h5.035a.584.584,0,0,1,.584.584v9.772a.584.584,0,0,1-.584.583H20.868V20.252A7.792,7.792,0,0,1,21.151,18.166Zm4.092,18.341v-.89h4.911v.89a.6.6,0,0,1-.594.594H25.837A.6.6,0,0,1,25.243,36.507ZM13.821,46.8a1.029,1.029,0,0,1,1.028-1.028h.922V56.35h-1.95Zm-1.76,14.756a.473.473,0,0,1-.467-.467V58.675a.473.473,0,0,1,.467-.467h3.71v3.016c0,.068,0,.135.01.2,0,.019,0,.039.007.058s0,.047.008.071H12.061Zm5.568-.33V44.789a.33.33,0,0,1,.33-.33H32.617a.33.33,0,0,1,.33.33V61.224a.33.33,0,0,1-.33.33H17.958a.33.33,0,0,1-.33-.33Zm50.783-3.016a.473.473,0,0,1,.467.467v2.411a.473.473,0,0,1-.467.467H34.779c0-.023.005-.047.008-.071s0-.039.007-.058c.006-.066.01-.133.01-.2V58.208H68.411Zm-15.239-14.3V29.326A3.277,3.277,0,0,0,49.9,26.052h-3.88a.929.929,0,1,0,0,1.858H49.9a1.417,1.417,0,0,1,1.416,1.416V43.913H34.62a2.19,2.19,0,0,0-2-1.311H28.628v-.892h.509a.929.929,0,0,0,0-1.858h-.509v-.892h.932a2.455,2.455,0,0,0,2.452-2.452v-.89h.751a3.628,3.628,0,0,0,3.624-3.624V29.326A1.417,1.417,0,0,1,37.8,27.91h3.88a.929.929,0,0,0,0-1.858H37.8a3.277,3.277,0,0,0-3.274,3.274v2.667a1.768,1.768,0,0,1-1.766,1.766H22.635a1.768,1.768,0,0,1-1.766-1.766V30.964h5.318a2.444,2.444,0,0,0,2.441-2.441V18.75a2.444,2.444,0,0,0-2.441-2.441H21.934a7.863,7.863,0,0,1,6.795-3.917H58.973a7.869,7.869,0,0,1,7.859,7.771,7.821,7.821,0,1,0,0,13.544V43.912H53.172Z" transform="translate(-9.736 0)"/>
      </g>
    </g>
  </g>
</svg>
