<svg id="Grupo_58471" data-name="Grupo 58471" xmlns="http://www.w3.org/2000/svg" width="127.381" height="189.52" viewBox="0 0 127.381 189.52">
  <path id="Trazado_102291" data-name="Trazado 102291" d="M1344.721,342.061v65.957h-5.6V379.443h-56.512v27.7h-6.362v-65.2c-.311-3.132-.716-6.688-1.2-10.567-.073-.56-.147-1.125-.225-1.7L1264.62,263h5.669l2.552,15.68,9.732,63.25h.031v.132h62.116Zm-5.6,11.5h-56.512v17.254h56.512V353.566Z" transform="translate(-1264.62 -218.499)" fill="#ffca1a"/>
  <path id="Trazado_102292" data-name="Trazado 102292" d="M1246.71,265.3a6.34,6.34,0,0,0-1.737-1.912c-2.437-1.611-10.029-5.721-6.279-17.185,3.64-11.131,12.43-8.646,16.994-7.513,1.458.363,6.835.847,8.572,2.611,1.658,1.686-.065,4.706-1.526,5.781.668,1.018,1.384,2.1,1.716,2.612a2.063,2.063,0,0,1,.311,2.165c-.1.2-1.1,2.1-1.1,2.121a11.678,11.678,0,0,0,2.558,2.7,18.592,18.592,0,0,1,1.875,1.556c.5.474-1.105,1.73-1.526,2.04a2.632,2.632,0,0,0-1.041,1.579c-.142.675,1.744.783-.34,1.986.337.305.958.7.318,1.3-1.031.979-.807,2.486-.6,3.465.316,1.477-2.372,1.3-5.809,1.3-.179,0-.372-.023-.562-.039a23.023,23.023,0,0,0,.184,2.669c.246,1.584.712,3.637,1.095,5.207h0l1.216,2.381h0a106.017,106.017,0,0,1,9.416,20.275c1.368,4.149,2.325,11.38,2.97,18.287l1.016.114.749,1.905s28.789,12.725,31.44,15.934a35.57,35.57,0,0,1,3.6,5.248c1.2.223,2.3.435,3.256.628a22.555,22.555,0,0,1,6.967,2.363c.007-.068.017-.133.023-.2,2.086,1.286,9.488,2.334,11.208,12.787,4.3,26.109,2.411,48.826,7.128,54.358a84.683,84.683,0,0,0,15.222,5.637c3.111.837,3.039,6.485,3.039,6.485h-35.051a11.054,11.054,0,0,1,0-4.741c.181-1.114,1.679-5.93,2.053-7.381l-2.623-13.847a85.138,85.138,0,0,0-2.546-10.013c-1.572-4.932-3.849-13.983-3.19-23.51a1.43,1.43,0,0,0-1.5-1.553c-3.219.193-10.027.5-10.027.5s-24.066.861-33.023,1.281c-7.953.372-19.161-.5-20.971-6.765-1.168-4.046-1.086-11.108-.883-15.61h0s-.181-1.342-.33-2.484l-.061,0s-.044-.556-.126-1.519l0-.009h0c-.448-5.235-2.016-22.475-3.755-28.49-3.258-11.267-3.479-18.677-2.907-22.47.44-2.928,2.813-8.464,3.874-10.845l.465-1.577.114.047c.186-1.183.372-2.57.433-3.732.1-1.949.054-4.22-.042-6.255C1246.816,265.176,1246.71,265.3,1246.71,265.3Zm50.621,74.268c-5.128-1.979-16.675-4.735-22.891-6.332.021.4.039.753.052,1.086h0l2.074,1.944c2.7.426,11.913,1.886,20.943,3.4C1297.443,339.641,1297.4,339.6,1297.331,339.571Z" transform="translate(-1229.687 -237.636)" fill="#104c8b"/>
</svg>
