<svg xmlns="http://www.w3.org/2000/svg" width="76" height="76" viewBox="0 0 76 76">
  <g id="Grupo_58445" data-name="Grupo 58445" transform="translate(-392 -3521)">
    <g id="Rectángulo_5471" data-name="Rectángulo 5471" transform="translate(430 3559)" fill="#fff" stroke="#707070" stroke-width="1">
      <rect width="1" height="1" stroke="none"/>
      <rect x="0.5" y="0.5" fill="none"/>
    </g>
    <rect id="Rectángulo_5539" data-name="Rectángulo 5539" width="76" height="76" transform="translate(392 3521)" fill="none"/>
    <g id="hanger" transform="translate(396.187 3451.125)">
      <g id="Grupo_58454" data-name="Grupo 58454" transform="translate(2.254 85.333)">
        <path id="Trazado_102122" data-name="Trazado 102122" d="M212.69,103.367h-2.254v-1.948a6.422,6.422,0,0,1,2.422-5.04l1.635-1.309a4.2,4.2,0,0,0-2.624-7.483h-.613a4.206,4.206,0,0,0-4.2,4.2V94.35H204.8V91.789a6.463,6.463,0,0,1,6.456-6.456h.613a6.456,6.456,0,0,1,4.034,11.5l-1.635,1.309a4.186,4.186,0,0,0-1.578,3.281v1.948Z" transform="translate(-180.004 -85.333)" fill="#337ab5"/>
        <rect id="Rectángulo_5663" data-name="Rectángulo 5663" width="63.117" height="2.254" transform="translate(0 40.575)" fill="#337ab5"/>
      </g>
      <path id="Trazado_102123" data-name="Trazado 102123" d="M48.069,217.238l-.023-.038a7.962,7.962,0,0,0-6.828-3.866h0a7.962,7.962,0,0,0-6.828,3.866l-.023.038A7.964,7.964,0,0,1,31.591,220L10.748,232.313a4.509,4.509,0,0,0-2.215,3.882v4.189l32.686-19.16L73.9,240.384v-4.189a4.508,4.508,0,0,0-2.215-3.882L50.846,220A7.966,7.966,0,0,1,48.069,217.238Z" transform="translate(-7.406 -111.095)" fill="#4398d1"/>
      <path id="Trazado_102124" data-name="Trazado 102124" d="M64.857,120.249,44.014,107.932a6.865,6.865,0,0,1-2.384-2.367l-.967.58.943-.619a9.139,9.139,0,0,0-6.641-4.336,4.172,4.172,0,0,1,1.552-3.052l1.635-1.309a6.456,6.456,0,0,0-4.034-11.5h-.613A6.463,6.463,0,0,0,27.05,91.79v2.561H29.3V91.79a4.206,4.206,0,0,1,4.2-4.2h.613a4.2,4.2,0,0,1,2.626,7.483l-1.638,1.309a6.415,6.415,0,0,0-2.409,4.807,9.172,9.172,0,0,0-6.7,4.378,6.865,6.865,0,0,1-2.384,2.367L2.768,120.249A5.658,5.658,0,0,0,0,125.1v4.191a1.128,1.128,0,0,0,1.7.973l3.581-2.1H62.347l3.581,2.1a1.127,1.127,0,0,0,1.7-.971V125.1A5.658,5.658,0,0,0,64.857,120.249Zm-55.728,5.66,24.683-14.473L58.5,125.909H9.129Zm56.242,1.415L63.117,126v-.092h-.159L34.383,109.158a1.128,1.128,0,0,0-1.141,0L4.667,125.909H4.508V126l-2.254,1.322V125.1a3.391,3.391,0,0,1,1.661-2.91l20.843-12.317a9.169,9.169,0,0,0,3.193-3.187,6.835,6.835,0,0,1,11.722,0l.024.039a9.106,9.106,0,0,0,3.169,3.148L63.71,122.19a3.392,3.392,0,0,1,1.661,2.91Z" transform="translate(0 -0.001)"/>
    </g>
  </g>
</svg>
