<svg xmlns="http://www.w3.org/2000/svg" width="76" height="76" viewBox="0 0 76 76">
  <g id="Grupo_58456" data-name="Grupo 58456" transform="translate(-392 -3872)">
    <rect id="Rectángulo_5543" data-name="Rectángulo 5543" width="76" height="76" transform="translate(392 3872)" fill="none"/>
    <g id="detergente-de-lavanderia" transform="translate(399.5 3878.962)">
      <path id="Trazado_102172" data-name="Trazado 102172" d="M10.864,409.992a2.865,2.865,0,0,0,0,5.729,2.864,2.864,0,0,0,0,5.729H39.293V409.992Zm0,0" transform="translate(-6.59 -360.285)" fill="#ff938a"/>
      <path id="Trazado_102173" data-name="Trazado 102173" d="M129.476,421.45h15.294V409.992H128.028a48.225,48.225,0,0,0,1.448,11.458Zm0,0" transform="translate(-112.066 -360.285)" fill="#fb695b"/>
      <path id="Trazado_102174" data-name="Trazado 102174" d="M36.429,315.484a2.865,2.865,0,1,1,0,5.729,2.865,2.865,0,1,1,0,5.729h-22.7a5.729,5.729,0,0,1,0-11.458Zm0,0" transform="translate(-6.59 -277.235)" fill="#ffd4a3"/>
      <path id="Trazado_102175" data-name="Trazado 102175" d="M144.635,324.077a2.864,2.864,0,0,0-2.865-2.864,2.865,2.865,0,1,0,0-5.729H128.383a96.751,96.751,0,0,0-.49,11.458H141.77A2.865,2.865,0,0,0,144.635,324.077Zm0,0" transform="translate(-111.932 -277.235)" fill="#ffbe73"/>
      <path id="Trazado_102176" data-name="Trazado 102176" d="M212.534,112.914H198.185a34.947,34.947,0,0,0-11,27.8c.327,5.692.563,9.753.733,12.646a7.464,7.464,0,0,0,7.453,7.028h19.968a7.465,7.465,0,0,0,7.453-7.028c.17-2.893.405-6.954.732-12.646a34.945,34.945,0,0,0-11-27.8ZM213.3,137.7a17.443,17.443,0,0,1-5.249-5.764,3.784,3.784,0,0,1,.122-3.93l2.563-3.948a2.209,2.209,0,0,1,3.825.212,25.911,25.911,0,0,1,2.773,11.254A2.58,2.58,0,0,1,213.3,137.7Zm0,0" transform="translate(-164.001 -99.224)" fill="#c2eafb"/>
      <path id="Trazado_102177" data-name="Trazado 102177" d="M229.387,121.224c7.016.109,11.364-2.409,13.574-4.221a27.025,27.025,0,0,0-3.755-4.089H224.858a32.569,32.569,0,0,0-7.378,9.9,36.99,36.99,0,0,1,11.906-1.593Zm0,0" transform="translate(-190.674 -99.224)" fill="#91d4f2"/>
      <path id="Trazado_102178" data-name="Trazado 102178" d="M293.739,19H279.39V10.741A3.241,3.241,0,0,1,282.631,7.5H290.5a3.241,3.241,0,0,1,3.241,3.241V19Zm0,0" transform="translate(-245.077 -6.591)" fill="#fb695b"/>
      <path id="Trazado_102179" data-name="Trazado 102179" d="M273.423,86.332H258.516a2.563,2.563,0,1,1,0-5.125h14.906a2.563,2.563,0,1,1,0,5.125Zm0,0" transform="translate(-224.482 -71.361)" fill="#ff938a"/>
      <path id="Trazado_102180" data-name="Trazado 102180" d="M240.8,220.6a4.753,4.753,0,0,0-4.656,3.815,49.444,49.444,0,0,0-.964,9.757c0,3.525.187,6.6.4,8.947a5.293,5.293,0,0,0,5.275,4.815h10.066a5.3,5.3,0,0,0,5.3-5.3v-2.878a3.527,3.527,0,0,0-1.855-3.1c-2.923-1.581-8.158-5.344-8.822-11.626A4.8,4.8,0,0,0,240.8,220.6Zm0,0" transform="translate(-206.23 -193.856)" fill="#2eddda"/>
      <path id="Trazado_102184" data-name="Trazado 102184" d="M248.2,229.272c-6.889-3.728-8.134-8.88-8.35-10.922a5.657,5.657,0,0,0-11.189-.706,50.716,50.716,0,0,0-.982,9.937c0,3.023.135,6.061.4,9.028a6.17,6.17,0,0,0,6.181,5.644H244.33a6.213,6.213,0,0,0,6.206-6.206v-2.877A4.433,4.433,0,0,0,248.2,229.272Zm.512,6.776a4.393,4.393,0,0,1-4.387,4.388H234.264a4.36,4.36,0,0,1-4.369-3.987c-.261-2.914-.393-5.9-.393-8.867a48.874,48.874,0,0,1,.946-9.576,3.84,3.84,0,0,1,7.6.535c.738,6.989,6.745,10.951,9.293,12.33a2.617,2.617,0,0,1,1.379,2.3v2.877Zm0,0" transform="translate(-199.64 -187.265)"/>
      <path id="Trazado_102185" data-name="Trazado 102185" d="M359.692,202.4a26.931,26.931,0,0,0-2.871-11.65,3.118,3.118,0,0,0-5.4-.3L348.86,194.4a4.674,4.674,0,0,0-.15,4.874,18.378,18.378,0,0,0,5.527,6.066,3.7,3.7,0,0,0,3.62.19A3.439,3.439,0,0,0,359.692,202.4Zm-2.7,1.53a1.643,1.643,0,0,1-1.732-.091,16.553,16.553,0,0,1-4.971-5.463,2.862,2.862,0,0,1,.094-2.985l2.563-3.949a1.264,1.264,0,0,1,2.25.127,26,26,0,0,1,2.676,10.858,1.649,1.649,0,0,1-.88,1.5Zm0,0" transform="translate(-305.454 -166.112)"/>
      <path id="Trazado_102186" data-name="Trazado 102186" d="M51.194,15.046A3.468,3.468,0,0,0,49.571,9V4.15A4.154,4.154,0,0,0,45.421,0H37.553A4.155,4.155,0,0,0,33.4,4.15V9a3.469,3.469,0,0,0-1.764,5.924,36.262,36.262,0,0,0-9.358,26.625q.045.783.088,1.525H9.06a.909.909,0,1,0,0,1.819H22.474c.082,1.423.157,2.723.226,3.91H7.139a4.82,4.82,0,1,1,0-9.639H19.007a.909.909,0,1,0,0-1.819H7.139A6.635,6.635,0,0,0,2.881,49.066,3.771,3.771,0,0,0,1.82,55.436a3.772,3.772,0,0,0,2.454,6.638H51.343A8.382,8.382,0,0,0,59.7,54.191l.083-1.411a.909.909,0,0,0-1.816-.106l-.082,1.411a6.562,6.562,0,0,1-6.545,6.171H31.375a6.562,6.562,0,0,1-6.545-6.171c-.071-1.21-.551-9.479-.733-12.645A34.421,34.421,0,0,1,33.3,15.8c.236.051,15.983.065,16.151.04a34.3,34.3,0,0,1,9.167,25.6c-.16,2.788-.3,5.186-.418,7.246a.872.872,0,0,0,.908.962.925.925,0,0,0,.907-.857c.119-2.061.258-4.458.418-7.247a36.146,36.146,0,0,0-9.242-26.5ZM26.17,60.256H4.274a1.955,1.955,0,0,1,0-3.91.909.909,0,0,0,0-1.819,1.955,1.955,0,0,1,0-3.91H22.806c.079,1.354.225,3.8.236,3.91H9.06a.909.909,0,0,0,0,1.819H23.43a8.389,8.389,0,0,0,2.74,3.91ZM37.554,1.819h7.868A2.334,2.334,0,0,1,47.752,4.15V8.936H35.222V4.15a2.334,2.334,0,0,1,2.331-2.331ZM34.034,14.062a1.653,1.653,0,1,1,0-3.307H48.94a1.653,1.653,0,1,1,0,3.307Zm0,0"/>
    </g>
  </g>
</svg>
