<svg xmlns="http://www.w3.org/2000/svg" width="76" height="76" viewBox="0 0 76 76">
  <g id="Grupo_58446" data-name="Grupo 58446" transform="translate(-392 -3609)">
    <rect id="Rectángulo_5540" data-name="Rectángulo 5540" width="76" height="76" transform="translate(392 3609)" fill="none"/>
    <g id="adentro" transform="translate(398.999 3616)">
      <path id="Trazado_102111" data-name="Trazado 102111" d="M64,203.789l23.25,9.93,23.25-9.93V183.93L87.25,174,64,183.93Zm0,0" transform="translate(-56.249 -152.93)" fill="#ffc15a"/>
      <path id="Trazado_102112" data-name="Trazado 102112" d="M279.151,256.01v19.853l-23.25,9.93-.014-.006V265.934l23.25-9.93Zm0,0" transform="translate(-224.9 -225.004)" fill="#ffcb7c"/>
      <path id="Trazado_102113" data-name="Trazado 102113" d="M110.5,183.93h0l-23.25,9.93L64,183.93h0L87.25,174Zm0,0" transform="translate(-56.249 -152.93)" fill="#8690a6"/>
      <path id="Trazado_102114" data-name="Trazado 102114" d="M279.25,256h0L256,265.93l6.539,6.579,23.25-10.414Zm0,0" transform="translate(-224.999 -225)" fill="#ffedd1"/>
      <path id="Trazado_102115" data-name="Trazado 102115" d="M16.539,256h0l23.25,9.93-6.539,6.579L10,262.1Zm0,0" transform="translate(-8.788 -225)" fill="#ffedd1"/>
      <path id="Trazado_102116" data-name="Trazado 102116" d="M279.25,136.177h0L256,126.247l6.539-6.579,23.25,10.414Zm0,0" transform="translate(-224.999 -105.177)" fill="#ffc15a"/>
      <path id="Trazado_102117" data-name="Trazado 102117" d="M16.793,136.177h0l23.25-9.93L33.5,119.668l-23.25,10.414Zm0,0" transform="translate(-9.012 -105.177)" fill="#ffc15a"/>
      <path id="Trazado_102118" data-name="Trazado 102118" d="M182.117,31.973V10H170.976V31.973h-5.394l10.964,10.964,10.965-10.964Zm0,0" transform="translate(-145.53 -8.789)" fill="#91def5"/>
      <path id="Trazado_102119" data-name="Trazado 102119" d="M56.027,31l5.589-5.209a1.211,1.211,0,0,0-.332-1.991L37.8,13.292V1.211A1.211,1.211,0,0,0,36.586,0H25.446a1.211,1.211,0,0,0-1.211,1.211V13.292L.748,23.8a1.211,1.211,0,0,0-.331,1.991l5.574,5.2L.386,36.21A1.211,1.211,0,0,0,.717,38.2L6.54,40.809V50.86a1.21,1.21,0,0,0,.735,1.113l23.25,9.93a1.209,1.209,0,0,0,.951,0l7.159-3.057a1.211,1.211,0,0,0-.951-2.227l-5.472,2.337V43.866l4.469,4.5a1.212,1.212,0,0,0,1.354.252L53.04,41.893V50.06l-6.445,2.753a1.211,1.211,0,1,0,.951,2.227l7.18-3.067a1.211,1.211,0,0,0,.736-1.113V40.809L61.285,38.2a1.211,1.211,0,0,0,.331-1.991ZM30.16,35a1.211,1.211,0,0,0,1.713,0l8.581-8.581L51.168,31,31,39.613,10.849,31.006l10.73-4.583Zm28.468-9.74L54,29.577l-11.7-5,.538-.538a1.211,1.211,0,0,0-.856-2.067H37.8V15.945Zm-31.972-2.08V2.422h3.883V13.744a1.211,1.211,0,1,0,2.422,0V2.422h2.414V23.184A1.211,1.211,0,0,0,36.586,24.4h2.471l-8.041,8.04L22.975,24.4h2.471a1.211,1.211,0,0,0,1.211-1.211Zm-2.422-7.24v6.029H20.052a1.211,1.211,0,0,0-.857,2.067l.538.538-11.7,5L3.4,25.265ZM8,32.423l20.884,8.919-4.691,4.719L3.372,36.736Zm.962,9.47,15,6.721a1.212,1.212,0,0,0,1.354-.252l4.47-4.5V58.955L8.962,50.06ZM53.78,38.908h0L37.809,46.062l-4.691-4.719L54,32.423l4.627,4.313Zm0,0" transform="translate(0)"/>
      <path id="Trazado_102120" data-name="Trazado 102120" d="M343.152,451.109a1.213,1.213,0,1,0,.856.355A1.218,1.218,0,0,0,343.152,451.109Zm0,0" transform="translate(-300.533 -396.482)"/>
      <path id="Trazado_102121" data-name="Trazado 102121" d="M253.4,145.922a1.211,1.211,0,1,0-.856-.355A1.219,1.219,0,0,0,253.4,145.922Zm0,0" transform="translate(-221.652 -126.123)"/>
    </g>
  </g>
</svg>
