<svg xmlns="http://www.w3.org/2000/svg" width="76" height="76" viewBox="0 0 76 76">
  <g id="Grupo_58447" data-name="Grupo 58447" transform="translate(-392 -3695)">
    <rect id="Rectángulo_5541" data-name="Rectángulo 5541" width="76" height="76" transform="translate(392 3695)" fill="none"/>
    <g id="prints" transform="translate(400.001 3704)">
      <path id="Trazado_102125" data-name="Trazado 102125" d="M196.962,163.945a2.3,2.3,0,0,0,0-3.247l-.049-.05a2.282,2.282,0,0,1-.646-1.289,2.282,2.282,0,0,1-1.289-.646l-.05-.05a2.3,2.3,0,0,0-3.247,0l-.05.05a2.3,2.3,0,0,1-3.247,0l-.049-.05a2.3,2.3,0,0,0-3.247,0l-.05.05a2.3,2.3,0,0,1-3.247,0l-.05-.05a2.3,2.3,0,0,0-3.247,0l-.05.05a2.3,2.3,0,0,1-3.247,0l-.05-.05a2.3,2.3,0,0,0-3.247,0l-.05.05a2.3,2.3,0,0,1-3.247,0l-.05-.05a2.3,2.3,0,0,0-3.247,0l-.05.05a2.3,2.3,0,0,1-3.247,0l-.05-.05a2.3,2.3,0,0,0-3.247,0l-.05.05a2.3,2.3,0,0,0,0,3.247l.05.05a2.3,2.3,0,0,1,0,3.247l-.05.05a2.3,2.3,0,0,0,0,3.247l.05.05a2.3,2.3,0,0,1,0,3.247l-.05.05a2.3,2.3,0,0,0,0,3.247l.05.05a2.3,2.3,0,0,1,0,3.247l-.05.05a2.3,2.3,0,0,0,0,3.247l.05.05a2.3,2.3,0,0,1,0,3.247l-.05.05a2.3,2.3,0,0,0,0,3.247l.05.05a2.3,2.3,0,0,1,0,3.247l-.05.05a2.3,2.3,0,0,0,0,3.247l.05.049a2.284,2.284,0,0,1,.645,1.289,2.28,2.28,0,0,1,1.289.645l.049.049a2.3,2.3,0,0,0,3.248,0l.049-.049a2.3,2.3,0,0,1,3.248,0l.049.049a2.3,2.3,0,0,0,3.248,0l.049-.049a2.3,2.3,0,0,1,3.248,0l.049.049a2.3,2.3,0,0,0,3.248,0l.049-.049a2.3,2.3,0,0,1,3.248,0l.049.049a2.3,2.3,0,0,0,3.248,0l.049-.049a2.3,2.3,0,0,1,3.248,0l.049.049a2.3,2.3,0,0,0,3.248,0l.049-.049a2.3,2.3,0,0,1,3.248,0l.049.049a2.3,2.3,0,0,0,3.248,0l.049-.049a2.3,2.3,0,0,0,0-3.248l-.049-.049a2.3,2.3,0,0,1,0-3.248l.049-.049a2.3,2.3,0,0,0,0-3.247l-.049-.05a2.3,2.3,0,0,1,0-3.247l.049-.05a2.3,2.3,0,0,0,0-3.247l-.049-.05a2.3,2.3,0,0,1,0-3.247l.049-.05a2.3,2.3,0,0,0,0-3.247l-.049-.05a2.3,2.3,0,0,1,0-3.247l.049-.05a2.3,2.3,0,0,0,0-3.247l-.049-.05a2.3,2.3,0,0,1,0-3.247Zm0,0" transform="translate(-139.787 -139.787)" fill="#ade5ff"/>
      <path id="Trazado_102126" data-name="Trazado 102126" d="M87.783,50.521l-.05-.05a2.287,2.287,0,0,1-.67-1.579,2.289,2.289,0,0,1-1.418-.663l-.049-.05a2.3,2.3,0,0,0-3.248,0l-.049.05a2.3,2.3,0,0,1-3.248,0L79,48.18a2.3,2.3,0,0,0-3.248,0l-.049.05a2.3,2.3,0,0,1-3.248,0l-.049-.05a2.3,2.3,0,0,0-3.248,0l-.049.05a2.3,2.3,0,0,1-3.248,0l-.049-.05a2.3,2.3,0,0,0-3.248,0l-.049.05a2.3,2.3,0,0,1-3.248,0l-.049-.05a2.3,2.3,0,0,0-3.248,0l-.049.05a2.3,2.3,0,0,1-3.248,0l-.049-.05a2.3,2.3,0,0,0-3.247,0l-.05.05a2.3,2.3,0,0,0,0,3.247l.05.05a2.3,2.3,0,0,1,0,3.247l-.05.05a2.3,2.3,0,0,0,0,3.247l.05.05a2.3,2.3,0,0,1,0,3.247l-.05.05a2.3,2.3,0,0,0,0,3.247l.05.05a2.3,2.3,0,0,1,0,3.247l-.05.05a2.3,2.3,0,0,0,0,3.247l.05.05a2.3,2.3,0,0,1,0,3.247l-.05.05a2.3,2.3,0,0,0,0,3.247l.05.05a2.3,2.3,0,0,1,0,3.247l-.05.05a2.3,2.3,0,0,0,0,3.247l.05.05a2.284,2.284,0,0,1,.67,1.579,2.286,2.286,0,0,1,1.418.663l.049.05a2.3,2.3,0,0,0,3.248,0l.049-.05a2.3,2.3,0,0,1,3.216-.029,2.284,2.284,0,0,0-.583-.992l-.05-.049a2.3,2.3,0,0,1,0-3.247l.05-.05a2.3,2.3,0,0,0,0-3.247l-.05-.05a2.3,2.3,0,0,1,0-3.247l.05-.05a2.3,2.3,0,0,0,0-3.247l-.05-.05a2.3,2.3,0,0,1,0-3.247l.05-.05a2.3,2.3,0,0,0,0-3.247l-.05-.05a2.3,2.3,0,0,1,0-3.247l.05-.05a2.3,2.3,0,0,0,0-3.247l-.05-.05a2.3,2.3,0,0,1,0-3.247l.05-.05A2.3,2.3,0,0,1,60.7,56l.05.05a2.3,2.3,0,0,0,3.247,0l.05-.05a2.3,2.3,0,0,1,3.247,0l.05.05a2.3,2.3,0,0,0,3.247,0l.05-.05a2.3,2.3,0,0,1,3.247,0l.05.05a2.3,2.3,0,0,0,3.247,0l.049-.05a2.3,2.3,0,0,1,3.248,0l.049.05a2.3,2.3,0,0,0,3.248,0l.049-.05a2.3,2.3,0,0,1,3.248,0l.049.05.032.028a2.293,2.293,0,0,1,.583-2.256l.049-.05a2.3,2.3,0,0,0,0-3.247Zm0,0" transform="translate(-43.053 -42.034)" fill="#36d28f"/>
      <g id="Grupo_58455" data-name="Grupo 58455" transform="translate(20.05 19.819)">
        <path id="Trazado_102127" data-name="Trazado 102127" d="M174,395.23,177.223,392l3.226,3.227-3.226,3.227Zm0,0" transform="translate(-173.996 -366.652)" fill="#ff5d5d"/>
        <path id="Trazado_102128" data-name="Trazado 102128" d="M282,395.231,285.226,392l3.227,3.227-3.227,3.227Zm0,0" transform="translate(-269.554 -366.652)" fill="#ff5d5d"/>
        <path id="Trazado_102129" data-name="Trazado 102129" d="M390,395.234l3.227-3.227,3.227,3.227-3.227,3.227Zm0,0" transform="translate(-365.113 -366.656)" fill="#ff5d5d"/>
        <path id="Trazado_102130" data-name="Trazado 102130" d="M174,285.226,177.223,282l3.226,3.226-3.226,3.227Zm0,0" transform="translate(-173.996 -269.324)" fill="#ff5d5d"/>
        <path id="Trazado_102131" data-name="Trazado 102131" d="M282,285.226,285.226,282l3.227,3.226-3.227,3.227Zm0,0" transform="translate(-269.554 -269.324)" fill="#ff5d5d"/>
        <path id="Trazado_102132" data-name="Trazado 102132" d="M390,285.227,393.23,282l3.227,3.227-3.227,3.227Zm0,0" transform="translate(-365.113 -269.324)" fill="#ff5d5d"/>
        <path id="Trazado_102133" data-name="Trazado 102133" d="M174,175.223,177.223,172l3.227,3.227-3.227,3.226Zm0,0" transform="translate(-173.996 -171.996)" fill="#ff5d5d"/>
        <path id="Trazado_102134" data-name="Trazado 102134" d="M282,175.223,285.226,172l3.227,3.227-3.227,3.227Zm0,0" transform="translate(-269.554 -171.996)" fill="#ff5d5d"/>
        <path id="Trazado_102135" data-name="Trazado 102135" d="M390,175.223,393.23,172l3.227,3.227-3.227,3.227Zm0,0" transform="translate(-365.113 -171.996)" fill="#ff5d5d"/>
      </g>
      <path id="Trazado_102136" data-name="Trazado 102136" d="M57.991,24.973a3.452,3.452,0,0,0,0-4.877l-.05-.05a1.145,1.145,0,0,1,0-1.618l.05-.05a3.452,3.452,0,0,0,0-4.877l-.05-.05a3.453,3.453,0,0,0-4.877,0l-.049.05a1.145,1.145,0,0,1-1.618,0l-.05-.05a3.453,3.453,0,0,0-4.877,0l-.049.05a1.145,1.145,0,0,1-1.209.262,1.063,1.063,0,0,0-.021-.111,1.139,1.139,0,0,1,.3-1.077l.05-.05a3.453,3.453,0,0,0,0-4.877L45.5,7.6a1.145,1.145,0,0,1,0-1.618l.05-.05a3.453,3.453,0,0,0,0-4.877l-.05-.05a3.453,3.453,0,0,0-4.877,0l-.05.05a1.143,1.143,0,0,1-1.618,0L38.9,1.008a3.453,3.453,0,0,0-4.877,0l-.05.05a1.145,1.145,0,0,1-1.617,0l-.05-.05a3.453,3.453,0,0,0-4.877,0l-.049.05a1.143,1.143,0,0,1-1.618,0l-.05-.05a3.453,3.453,0,0,0-4.877,0l-.05.05a1.143,1.143,0,0,1-1.617,0l-.05-.05a3.453,3.453,0,0,0-4.877,0l-.05.05a1.144,1.144,0,0,1-1.617,0l-.05-.05a3.453,3.453,0,0,0-4.877,0l-.049.05a1.145,1.145,0,0,1-1.618,0l-.05-.05a3.453,3.453,0,0,0-4.877,0l-.049.05a3.452,3.452,0,0,0,0,4.874l.052.052a1.145,1.145,0,0,1,0,1.617l-.05.05a3.453,3.453,0,0,0,0,4.877l.05.05a1.145,1.145,0,0,1,0,1.617l-.05.05a3.453,3.453,0,0,0,0,4.877l.05.05a1.144,1.144,0,0,1,0,1.617l-.05.05a3.453,3.453,0,0,0,0,4.877l.05.05a1.144,1.144,0,0,1,0,1.617l-.05.05a3.453,3.453,0,0,0,0,4.877l.05.05a1.145,1.145,0,0,1,0,1.617l-.05.05a3.452,3.452,0,0,0,0,4.876l.05.05a1.144,1.144,0,0,1,0,1.617l-.05.05a3.453,3.453,0,0,0,0,4.877l.05.05a3.453,3.453,0,0,0,4.877,0l.049-.05a1.145,1.145,0,0,1,1.618,0l.05.05a3.453,3.453,0,0,0,4.877,0l.049-.05a1.142,1.142,0,0,1,1.192-.269,1.144,1.144,0,0,1-.266,1.195l-.05.049a3.453,3.453,0,0,0,0,4.877l.05.05a1.145,1.145,0,0,1,0,1.618l-.05.049a3.453,3.453,0,0,0,0,4.877l.05.05a3.452,3.452,0,0,0,4.877,0l.05-.05a1.145,1.145,0,0,1,1.617,0l.05.05a3.452,3.452,0,0,0,4.877,0l.05-.05a1.145,1.145,0,0,1,1.617,0l.05.05a3.453,3.453,0,0,0,4.877,0l.049-.05a1.144,1.144,0,0,1,1.618,0l.05.05a3.453,3.453,0,0,0,4.877,0l.05-.05a1.144,1.144,0,0,1,1.617,0l.05.05a3.452,3.452,0,0,0,4.877,0l.05-.05a1.145,1.145,0,0,1,1.617,0l.05.05a3.453,3.453,0,0,0,4.877,0l.049-.05a1.146,1.146,0,0,1,1.618,0l.05.05a3.453,3.453,0,0,0,4.877,0l.049-.05a3.452,3.452,0,0,0,0-4.877l-.049-.049a1.145,1.145,0,0,1,0-1.618l.049-.05a3.452,3.452,0,0,0,0-4.877l-.049-.049a1.145,1.145,0,0,1,0-1.618l.049-.05a3.451,3.451,0,0,0,0-4.877l-.049-.05a1.143,1.143,0,0,1,0-1.618l.049-.05a3.452,3.452,0,0,0,0-4.877l-.049-.05a1.143,1.143,0,0,1,0-1.618l.049-.05a3.451,3.451,0,0,0,0-4.877l-.049-.05a1.145,1.145,0,0,1,0-1.618ZM10.9,43.914a1.145,1.145,0,0,1-1.617,0l-.05-.05a3.453,3.453,0,0,0-4.877,0l-.05.05a1.145,1.145,0,0,1-1.617,0l-.05-.05a1.145,1.145,0,0,1,0-1.617l.05-.05a3.452,3.452,0,0,0,0-4.876l-.05-.05a1.145,1.145,0,0,1,0-1.617l.05-.05a3.453,3.453,0,0,0,0-4.877l-.05-.05a1.145,1.145,0,0,1,0-1.617l.05-.05a3.453,3.453,0,0,0,0-4.877l-.05-.049a1.145,1.145,0,0,1,0-1.618l.05-.05a3.453,3.453,0,0,0,0-4.877l-.05-.049a1.145,1.145,0,0,1,0-1.618l.05-.05a3.452,3.452,0,0,0,0-4.877l-.05-.05a1.145,1.145,0,0,1,0-1.617l.05-.05a3.451,3.451,0,0,0,0-4.874L2.639,4.3a1.145,1.145,0,0,1,0-1.617l.05-.05a1.145,1.145,0,0,1,1.617,0l.05.05a3.454,3.454,0,0,0,4.877,0l.05-.05a1.145,1.145,0,0,1,1.617,0l.05.05a3.453,3.453,0,0,0,4.877,0l.049-.05a1.145,1.145,0,0,1,1.618,0l.05.05a3.453,3.453,0,0,0,4.877,0l.05-.05a1.145,1.145,0,0,1,1.618,0l.05.05a3.452,3.452,0,0,0,4.877,0l.05-.05a1.145,1.145,0,0,1,1.618,0l.049.05a3.453,3.453,0,0,0,4.877,0l.05-.05a1.144,1.144,0,0,1,1.618,0l.049.049a3.453,3.453,0,0,0,4.877,0l.05-.05a1.145,1.145,0,0,1,1.617,0l.05.05a1.145,1.145,0,0,1,0,1.617l-.05.05a3.453,3.453,0,0,0,0,4.877l.05.05a1.145,1.145,0,0,1,0,1.617l-.05.05a3.441,3.441,0,0,0-.9,1.559,3.448,3.448,0,0,0-3.09.947l-.05.05a1.143,1.143,0,0,1-1.618,0l-.05-.05a3.453,3.453,0,0,0-4.877,0l-.05.05a1.143,1.143,0,0,1-1.618,0l-.05-.05a3.453,3.453,0,0,0-4.877,0l-.05.05a1.144,1.144,0,0,1-1.617,0l-.05-.05a3.453,3.453,0,0,0-4.877,0l-.05.05a1.145,1.145,0,0,1-1.617,0l-.05-.05a3.453,3.453,0,0,0-4.877,0l-.05.05a3.452,3.452,0,0,0,0,4.874l.052.052a1.145,1.145,0,0,1,0,1.617l-.05.05a3.453,3.453,0,0,0,0,4.877l.05.05a1.145,1.145,0,0,1,0,1.617l-.05.05a3.453,3.453,0,0,0,0,4.877l.05.05a1.144,1.144,0,0,1,0,1.617l-.05.05a3.453,3.453,0,0,0,0,4.877l.05.05a1.144,1.144,0,0,1,0,1.617l-.05.05a3.448,3.448,0,0,0-.946,3.093,3.449,3.449,0,0,0-1.56.9ZM56.311,21.677l.05.049a1.145,1.145,0,0,1,0,1.618l-.05.05a3.452,3.452,0,0,0,0,4.877l.05.05a1.145,1.145,0,0,1,0,1.617l-.05.05a3.453,3.453,0,0,0,0,4.877l.05.05a1.145,1.145,0,0,1,0,1.617l-.05.05a3.453,3.453,0,0,0,0,4.877l.05.05a1.145,1.145,0,0,1,0,1.617l-.05.05a3.453,3.453,0,0,0,0,4.877l.05.05a1.145,1.145,0,0,1,0,1.617l-.05.05a3.453,3.453,0,0,0,0,4.877l.05.049a1.145,1.145,0,0,1,0,1.618l-.05.05a1.145,1.145,0,0,1-1.617,0l-.05-.05a3.453,3.453,0,0,0-4.877,0l-.05.05a1.145,1.145,0,0,1-1.617,0l-.05-.05a3.452,3.452,0,0,0-4.877,0l-.049.05a1.146,1.146,0,0,1-1.618,0l-.05-.05a3.452,3.452,0,0,0-4.877,0l-.05.05a1.146,1.146,0,0,1-1.618,0l-.05-.05a3.452,3.452,0,0,0-4.877,0l-.05.05a1.145,1.145,0,0,1-1.617,0l-.05-.05a3.453,3.453,0,0,0-4.877,0l-.05.05a1.145,1.145,0,0,1-1.617,0l-.05-.05a3.453,3.453,0,0,0-4.877,0l-.05.05a1.145,1.145,0,0,1-1.617,0l-.05-.05a1.145,1.145,0,0,1,0-1.618l.05-.049a3.453,3.453,0,0,0,0-4.877l-.05-.05a1.145,1.145,0,0,1,0-1.617l.05-.05a3.453,3.453,0,0,0,0-4.877l-.05-.05a1.145,1.145,0,0,1,0-1.617l.05-.05a3.453,3.453,0,0,0,0-4.877l-.05-.049a1.145,1.145,0,0,1,0-1.618l.05-.05a3.453,3.453,0,0,0,0-4.877l-.05-.05a1.145,1.145,0,0,1,0-1.617l.05-.05a3.452,3.452,0,0,0,0-4.877l-.05-.05a1.145,1.145,0,0,1,0-1.618l.05-.05a3.451,3.451,0,0,0,0-4.874l-.052-.052a1.145,1.145,0,0,1,0-1.618l.05-.049a1.145,1.145,0,0,1,1.617,0l.05.049a3.453,3.453,0,0,0,4.877,0l.05-.049a1.145,1.145,0,0,1,1.617,0l.05.049a3.452,3.452,0,0,0,4.877,0l.05-.049a1.145,1.145,0,0,1,1.617,0l.05.049a3.452,3.452,0,0,0,4.877,0l.05-.049a1.145,1.145,0,0,1,1.618,0l.05.049a3.451,3.451,0,0,0,4.877,0l.05-.049a1.145,1.145,0,0,1,1.618,0l.049.049a3.452,3.452,0,0,0,4.877,0l.05-.049a1.144,1.144,0,0,1,1.617,0l.05.049a3.452,3.452,0,0,0,4.877,0l.05-.049a1.144,1.144,0,0,1,1.617,0l.05.049a1.145,1.145,0,0,1,0,1.618l-.05.05a3.453,3.453,0,0,0,0,4.877Zm0,0"/>
      <path id="Trazado_102137" data-name="Trazado 102137" d="M169.192,382.342a1.152,1.152,0,0,0-1.629,0l-3.227,3.227a1.153,1.153,0,0,0,0,1.63l3.227,3.226a1.152,1.152,0,0,0,1.629,0l3.227-3.226a1.152,1.152,0,0,0,0-1.63Zm-.815,5.638-1.6-1.6,1.6-1.6,1.6,1.6Zm0,0" transform="translate(-145.101 -337.986)"/>
      <path id="Trazado_102138" data-name="Trazado 102138" d="M277.2,382.342a1.153,1.153,0,0,0-1.63,0l-3.226,3.227a1.153,1.153,0,0,0,0,1.63l3.226,3.226a1.152,1.152,0,0,0,1.629,0l3.227-3.226a1.153,1.153,0,0,0,0-1.63Zm-.815,5.638-1.6-1.6,1.6-1.6,1.6,1.6Zm0,0" transform="translate(-240.66 -337.986)"/>
      <path id="Trazado_102139" data-name="Trazado 102139" d="M385.2,382.342a1.153,1.153,0,0,0-1.63,0l-3.227,3.227a1.152,1.152,0,0,0,0,1.63l3.227,3.226a1.152,1.152,0,0,0,1.63,0l3.227-3.226a1.152,1.152,0,0,0,0-1.63Zm-.815,5.638-1.6-1.6,1.6-1.6,1.6,1.6Zm0,0" transform="translate(-336.219 -337.986)"/>
      <path id="Trazado_102140" data-name="Trazado 102140" d="M169.192,272.338a1.152,1.152,0,0,0-1.629,0l-3.227,3.226a1.153,1.153,0,0,0,0,1.63l3.227,3.227a1.152,1.152,0,0,0,1.629,0l3.227-3.227a1.152,1.152,0,0,0,0-1.63Zm-.815,5.638-1.6-1.6,1.6-1.6,1.6,1.6Zm0,0" transform="translate(-145.101 -240.658)"/>
      <path id="Trazado_102141" data-name="Trazado 102141" d="M277.2,272.338a1.152,1.152,0,0,0-1.63,0l-3.226,3.226a1.152,1.152,0,0,0,0,1.63l3.226,3.227a1.152,1.152,0,0,0,1.629,0l3.227-3.227a1.153,1.153,0,0,0,0-1.63Zm-.815,5.638-1.6-1.6,1.6-1.6,1.6,1.6Zm0,0" transform="translate(-240.66 -240.658)"/>
      <path id="Trazado_102142" data-name="Trazado 102142" d="M385.2,272.338a1.152,1.152,0,0,0-1.63,0l-3.227,3.226a1.152,1.152,0,0,0,0,1.63l3.227,3.227a1.152,1.152,0,0,0,1.63,0l3.227-3.227a1.152,1.152,0,0,0,0-1.63Zm-.815,5.638-1.6-1.6,1.6-1.6,1.6,1.6Zm0,0" transform="translate(-336.219 -240.658)"/>
      <path id="Trazado_102143" data-name="Trazado 102143" d="M169.192,162.332a1.153,1.153,0,0,0-1.629,0l-3.227,3.227a1.153,1.153,0,0,0,0,1.629l3.227,3.227a1.152,1.152,0,0,0,1.629,0l3.227-3.227a1.152,1.152,0,0,0,0-1.629Zm-.815,5.639-1.6-1.6,1.6-1.6,1.6,1.6Zm0,0" transform="translate(-145.101 -143.329)"/>
      <path id="Trazado_102144" data-name="Trazado 102144" d="M277.2,162.332a1.153,1.153,0,0,0-1.63,0l-3.226,3.227a1.152,1.152,0,0,0,0,1.629l3.226,3.227a1.152,1.152,0,0,0,1.629,0l3.227-3.227a1.152,1.152,0,0,0,0-1.629Zm-.815,5.639-1.6-1.6,1.6-1.6,1.6,1.6Zm0,0" transform="translate(-240.66 -143.329)"/>
      <path id="Trazado_102145" data-name="Trazado 102145" d="M385.2,162.332a1.153,1.153,0,0,0-1.63,0l-3.227,3.227a1.152,1.152,0,0,0,0,1.629l3.227,3.227a1.152,1.152,0,0,0,1.63,0l3.227-3.227a1.152,1.152,0,0,0,0-1.629Zm-.815,5.639-1.6-1.6,1.6-1.6,1.6,1.6Zm0,0" transform="translate(-336.219 -143.329)"/>
      <path id="Trazado_102146" data-name="Trazado 102146" d="M63.719,59.328l-1.382,1.382a1.153,1.153,0,1,0,1.63,1.63l1.382-1.382a1.153,1.153,0,0,0-1.63-1.63Zm0,0" transform="translate(-54.855 -52.194)"/>
      <path id="Trazado_102147" data-name="Trazado 102147" d="M63.719,135.336l-1.382,1.382a1.153,1.153,0,1,0,1.63,1.63l1.382-1.382a1.153,1.153,0,0,0-1.63-1.63Zm0,0" transform="translate(-54.855 -119.444)"/>
      <path id="Trazado_102148" data-name="Trazado 102148" d="M63.152,214.695a1.149,1.149,0,0,0,.815-.338l1.382-1.382a1.152,1.152,0,1,0-1.63-1.629l-1.382,1.382a1.152,1.152,0,0,0,.815,1.967Zm0,0" transform="translate(-54.855 -186.694)"/>
      <path id="Trazado_102149" data-name="Trazado 102149" d="M63.719,287.353l-1.382,1.382a1.153,1.153,0,0,0,1.63,1.63l1.382-1.382a1.153,1.153,0,1,0-1.63-1.63Zm0,0" transform="translate(-54.855 -253.942)"/>
      <path id="Trazado_102150" data-name="Trazado 102150" d="M142.82,62.678a1.151,1.151,0,0,0,.815-.338l1.382-1.382a1.152,1.152,0,1,0-1.629-1.63l-1.382,1.382a1.153,1.153,0,0,0,.815,1.967Zm0,0" transform="translate(-125.343 -52.194)"/>
      <path id="Trazado_102151" data-name="Trazado 102151" d="M222.492,62.677a1.148,1.148,0,0,0,.815-.338l1.382-1.382a1.153,1.153,0,0,0-1.63-1.63l-1.382,1.382a1.153,1.153,0,0,0,.815,1.967Zm0,0" transform="translate(-195.835 -52.193)"/>
      <path id="Trazado_102152" data-name="Trazado 102152" d="M302.16,62.678a1.151,1.151,0,0,0,.815-.338l1.382-1.382a1.153,1.153,0,0,0-1.63-1.63l-1.382,1.382a1.153,1.153,0,0,0,.815,1.967Zm0,0" transform="translate(-266.322 -52.194)"/>
    </g>
  </g>
</svg>
