<svg xmlns="http://www.w3.org/2000/svg" width="76" height="76" viewBox="0 0 76 76">
  <g id="Grupo_58448" data-name="Grupo 58448" transform="translate(-392 -3785)">
    <rect id="Rectángulo_5542" data-name="Rectángulo 5542" width="76" height="76" transform="translate(392 3785)" fill="none"/>
    <g id="hilo" transform="translate(342.832 3789.972)">
      <path id="Trazado_102155" data-name="Trazado 102155" d="M106.36,71.617,102.6,11.5a3.765,3.765,0,1,1,7.515,0Z" transform="translate(-35.221 -6.534)" fill="#f0f6ff"/>
      <path id="Trazado_102156" data-name="Trazado 102156" d="M287.089,473.5h16.029V477.5H287.089Z" transform="translate(-195.914 -412.413)" fill="#f9e487"/>
      <path id="Trazado_102157" data-name="Trazado 102157" d="M287.087,473.5h2.58v4.007h-2.58Z" transform="translate(-195.913 -412.416)" fill="#f9bf6c"/>
      <path id="Trazado_102158" data-name="Trazado 102158" d="M287.089,7.5h16.029v4.007H287.089Z" transform="translate(-195.914 -6.534)" fill="#f9e487"/>
      <path id="Trazado_102159" data-name="Trazado 102159" d="M287.087,7.5h2.58v4.007h-2.58Z" transform="translate(-195.913 -6.532)" fill="#f9bf6c"/>
      <path id="Trazado_102160" data-name="Trazado 102160" d="M256.027,38.564H280.07v56.1H256.027Z" transform="translate(-168.86 -33.589)" fill="#aee097"/>
      <path id="Trazado_102161" data-name="Trazado 102161" d="M256.027,38.56h2.58v56.1h-2.58Z" transform="translate(-168.86 -33.586)" fill="#83d167"/>
      <path id="Trazado_102162" data-name="Trazado 102162" d="M256.027,52.584,280.07,44.57V38.564l-24.043,8.014Z" transform="translate(-168.86 -33.589)" fill="#83d167"/>
      <path id="Trazado_102163" data-name="Trazado 102163" d="M258.607,94.02v6.005l-2.58.86V94.88Z" transform="translate(-168.86 -81.891)" fill="#54c032"/>
      <path id="Trazado_102164" data-name="Trazado 102164" d="M256.027,146.261l24.043-8.014v-6.5l-24.043,8.014Z" transform="translate(-168.86 -114.754)" fill="#83d167"/>
      <path id="Trazado_102165" data-name="Trazado 102165" d="M258.607,187.21v6.5l-2.58.86v-6.5Z" transform="translate(-168.86 -163.059)" fill="#54c032"/>
      <path id="Trazado_102166" data-name="Trazado 102166" d="M256.027,232.952l24.043-8.014v6.019l-24.043,8.014Z" transform="translate(-168.86 -195.92)" fill="#83d167"/>
      <path id="Trazado_102167" data-name="Trazado 102167" d="M258.607,280.39v6.019l-2.58.86V281.25Z" transform="translate(-168.86 -244.218)" fill="#54c032"/>
      <path id="Trazado_102168" data-name="Trazado 102168" d="M256.027,332.145l24.043-8.014v-6.005l-24.043,8.014Z" transform="translate(-168.86 -277.085)" fill="#83d167"/>
      <path id="Trazado_102169" data-name="Trazado 102169" d="M258.607,373.58v6.005l-2.58.86V374.44Z" transform="translate(-168.86 -325.386)" fill="#54c032"/>
      <path id="Trazado_102170" data-name="Trazado 102170" d="M256.027,419.325l24.043-8.014v8.014Z" transform="translate(-168.86 -358.249)" fill="#83d167"/>
      <path id="Trazado_102171" data-name="Trazado 102171" d="M112.178,4.994a.98.98,0,0,0-.988-.987h-3.019V.968A.968.968,0,0,0,107.2,0H101.3a.968.968,0,0,0,0,1.935h4.938V4.007H92.142V1.935H97.08A.968.968,0,1,0,97.08,0H91.174a.968.968,0,0,0-.968.968v3.04H87.167a.968.968,0,0,0-.968.968V18.4l-2.366,1.187a2.953,2.953,0,0,0-1.64,2.656V35.029a1.036,1.036,0,1,1-2.072,0V10.986a2.975,2.975,0,0,0-2.972-2.971H75.675l.187-2.988A4.781,4.781,0,0,0,71.138,0a4.632,4.632,0,0,0-4.723,5.027L66.6,8.015H65.128a2.974,2.974,0,0,0-2.971,2.971V21a.968.968,0,1,0,1.935,0V10.986A1.037,1.037,0,0,1,65.128,9.95h1.6l3.45,55.193a.967.967,0,0,0,1.931,0L75.554,9.95h1.6a1.038,1.038,0,0,1,1.037,1.036V35.029a2.971,2.971,0,1,0,5.942,0V22.241a1.029,1.029,0,0,1,.572-.926l1.5-.752V61.057a.987.987,0,0,0,.989.987h3.019v3.048a.968.968,0,0,0,.968.968H107.2a.968.968,0,0,0,.968-.968V62.043h3.04a.968.968,0,0,0,.968-.968ZM73.93,4.907l-.194,3.108h-1.63V4.975a.968.968,0,1,0-1.935,0V13.02a.968.968,0,1,0,1.935,0V9.95h1.509L71.138,49.572,68.347,4.907a2.8,2.8,0,1,1,5.583,0Zm14.2,1.036h17.113l-17.113,5.7Zm18.1,58.181H92.142V62.051h14.094Zm4.007-4.015H93.13l17.113-5.7v5.7Zm0-13.76L96.552,50.911a.949.949,0,0,0-.612,1.224.9.9,0,0,0,1.224.612l13.079-4.359v3.976L88.135,59.734V55.757l5.026-1.676a.968.968,0,0,0-.612-1.836l-4.414,1.472V49.752l22.108-7.369Zm0-6.006L88.135,47.712V43.749l22.108-7.369Zm0-6L88.135,41.709V37.73l22.108-7.369Zm0-11.545-4.907,1.636a.968.968,0,0,0-.612,1.224q.485.844,1.224.612l4.295-1.432v3.487L88.135,35.69V32.2l13.812-4.6a.968.968,0,1,0-.612-1.836l-13.2,4.4V25.709l22.108-7.369Zm0-6.5L88.135,23.669V19.692l22.108-7.369Zm0-6.016L88.135,17.653V13.687l22.108-7.369Z" transform="translate(0)"/>
    </g>
  </g>
</svg>
