<svg xmlns="http://www.w3.org/2000/svg" width="76" height="76" viewBox="0 0 76 76">
  <g id="Grupo_58449" data-name="Grupo 58449" transform="translate(-392 -3872)">
    <rect id="Rectángulo_5543" data-name="Rectángulo 5543" width="76" height="76" transform="translate(392 3872)" fill="none"/>
    <g id="aguja" transform="translate(398 3878)">
      <path id="Trazado_102153" data-name="Trazado 102153" d="M56.8,16.72,55.36,18.3a11.363,11.363,0,0,1-3.79,2.74A11.483,11.483,0,0,1,47,22L4.41,61.62a1.437,1.437,0,0,1-2.03-2.03L42,17a11.286,11.286,0,0,1,3.7-8.36l5.51-5.02a6.254,6.254,0,0,1,8.62.21l.34.34a6.254,6.254,0,0,1,.21,8.62Zm-1.63-4.13,2.25-2.49A2.26,2.26,0,0,0,58,8.59,2.223,2.223,0,0,0,57.34,7L57,6.66A2.224,2.224,0,0,0,55.41,6a2.26,2.26,0,0,0-1.51.58l-2.43,2.2-2.48,2.23A5.31,5.31,0,0,0,47,15.24,1.68,1.68,0,0,0,48.76,17a5.31,5.31,0,0,0,4.23-1.99Z" fill="#fcd770"/>
      <path id="Trazado_102154" data-name="Trazado 102154" d="M48.05,56.536l-2.272,2.272A7.439,7.439,0,0,1,40.485,61h-1a7.485,7.485,0,0,1-5.293-12.778L54.207,28.207A12.935,12.935,0,0,0,58.02,19a13.263,13.263,0,0,0-.161-1.959l3.257-3.583a7.242,7.242,0,0,0-.238-9.994l-.343-.343a7.243,7.243,0,0,0-9.994-.237l-3.59,3.264a14.465,14.465,0,0,0-11.658,4.145L16.536,29.05A3.243,3.243,0,0,1,11,26.757V22H9v4.757a5.242,5.242,0,0,0,8.95,3.707L36.7,11.709a13.033,13.033,0,0,1,8.16-3.649A12.327,12.327,0,0,0,41.007,16.6L1.652,58.906a2.436,2.436,0,0,0,3.443,3.442L47.4,22.994a12.324,12.324,0,0,0,8.612-3.931,10.981,10.981,0,0,1-3.22,7.73L32.778,46.808A9.485,9.485,0,0,0,39.485,63h1a9.423,9.423,0,0,0,6.707-2.778l2.272-2.272a5,5,0,0,1,7.072,0l4.757,4.757,1.414-1.414L57.95,56.536a7.007,7.007,0,0,0-9.9,0ZM47,21h-.393L3.732,60.883A.451.451,0,0,1,3,60.564a.433.433,0,0,1,.117-.3L43,17.393V17a10.324,10.324,0,0,1,3.373-7.624l5.514-5.013a5.244,5.244,0,0,1,7.235.173l.343.343a5.244,5.244,0,0,1,.172,7.234L57.283,14.7a12.858,12.858,0,0,0-.878-1.984l1.752-1.946a3.248,3.248,0,0,0-.108-4.479l-.343-.343A3.33,3.33,0,0,0,53.23,5.84l-4.916,4.427A6.309,6.309,0,0,0,46,15.188a2.7,2.7,0,0,0,.775,2.032h0a2.7,2.7,0,0,0,1.9.779c.043,0,.087,0,.13,0a6.316,6.316,0,0,0,4.925-2.315l1.227-1.363a10.938,10.938,0,0,1,.74,2.121l-1.08,1.188A10.323,10.323,0,0,1,47,21Zm4.486-10.9a11.166,11.166,0,0,1,1.307,1.1,11,11,0,0,1,1.1,1.308l-1.642,1.824A4.335,4.335,0,0,1,48.717,16,.663.663,0,0,1,48,15.283a4.324,4.324,0,0,1,1.656-3.532Zm2.721-.311A13.245,13.245,0,0,0,53,8.74l1.572-1.416a1.275,1.275,0,0,1,1.72.041l.343.343a1.246,1.246,0,0,1,.037,1.724L55.26,11A13.035,13.035,0,0,0,54.207,9.793Z"/>
    </g>
  </g>
</svg>
