<svg xmlns="http://www.w3.org/2000/svg" width="434.883" height="250.333" viewBox="0 0 434.883 250.333">
  <g id="Grupo_58892" data-name="Grupo 58892" transform="translate(-2316.199 -318.529)">
    <path id="Trazado_108852" data-name="Trazado 108852" d="M2991.238,371.872c-45.657-1.845-28.373,71.123,24.59,67.718S3028.691,373.386,2991.238,371.872Z" transform="translate(-373.112 -30.661)" fill="#ff8a5b" opacity="0.25"/>
    <g id="Grupo_58910" data-name="Grupo 58910" transform="translate(2626.438 341.282)">
      <g id="Grupo_58909" data-name="Grupo 58909" transform="translate(0)">
        <g id="Grupo_58895" data-name="Grupo 58895" transform="translate(41.348 7.276)">
          <g id="Grupo_58892-2" data-name="Grupo 58892" transform="translate(24.768 14.513)">
            <path id="Trazado_108853" data-name="Trazado 108853" d="M3203.339,425.343a.286.286,0,0,0,.237-.446c-.32-.475-.656-.95-1-1.41a.286.286,0,1,0-.458.341c.337.453.667.92.983,1.388A.286.286,0,0,0,3203.339,425.343Z" transform="translate(-3202.063 -423.373)" fill="#b5ac84"/>
          </g>
          <g id="Grupo_58893" data-name="Grupo 58893" transform="translate(4.715 0.918)">
            <path id="Trazado_108854" data-name="Trazado 108854" d="M3173.043,403.046c-.672-.762-1.386-1.505-2.12-2.209a.286.286,0,0,1,.4-.413c.746.715,1.47,1.47,2.153,2.243a.286.286,0,0,1-.428.378Zm-4.418-4.232c-.792-.64-1.618-1.254-2.459-1.824a.286.286,0,0,1,.322-.472c.853.579,1.693,1.2,2.5,1.853a.286.286,0,1,1-.359.444Zm-5.061-3.436c-.887-.5-1.805-.965-2.729-1.387a.285.285,0,1,1,.237-.52c.939.428,1.872.9,2.772,1.408a.286.286,0,0,1-.14.535A.281.281,0,0,1,3163.564,395.378ZM3158,392.841c-.958-.342-1.941-.647-2.923-.906a.286.286,0,0,1,.146-.553c1,.263,2,.573,2.969.921a.286.286,0,1,1-.193.538Z" transform="translate(-3154.863 -391.373)" fill="#b5ac84"/>
          </g>
          <g id="Grupo_58894" data-name="Grupo 58894">
            <path id="Trazado_108855" data-name="Trazado 108855" d="M3145.746,390.039a.286.286,0,0,0,.049-.567c-.564-.1-1.139-.186-1.708-.258a.286.286,0,1,0-.072.567c.561.071,1.126.157,1.682.254A.287.287,0,0,0,3145.746,390.039Z" transform="translate(-3143.764 -389.211)" fill="#b5ac84"/>
          </g>
        </g>
        <g id="Grupo_58899" data-name="Grupo 58899" transform="translate(0 7.936)">
          <g id="Grupo_58896" data-name="Grupo 58896" transform="translate(26.66)">
            <path id="Trazado_108856" data-name="Trazado 108856" d="M3109.477,391.764a.293.293,0,0,0,.078-.011c.545-.154,1.1-.3,1.647-.425a.286.286,0,0,0-.129-.557c-.557.13-1.12.275-1.674.431a.286.286,0,0,0,.078.561Z" transform="translate(-3109.192 -390.764)" fill="#b5ac84"/>
          </g>
          <g id="Grupo_58897" data-name="Grupo 58897" transform="translate(0 1.537)">
            <path id="Trazado_108857" data-name="Trazado 108857" d="M3082.884,465.8c-1.169-.016-2.348-.087-3.5-.212a.286.286,0,1,1,.061-.568c1.138.123,2.3.193,3.45.209a.286.286,0,0,1,0,.571Zm3.2-.378a.285.285,0,0,1,.262-.308c1.147-.092,2.3-.24,3.429-.44a.286.286,0,1,1,.1.563c-1.146.2-2.318.353-3.483.447h-.023A.286.286,0,0,1,3086.086,465.423Zm-10.174-.377c-1.143-.235-2.288-.529-3.4-.871a.286.286,0,1,1,.167-.546c1.1.337,2.224.626,3.349.857a.286.286,0,0,1-.058.566A.3.3,0,0,1,3075.911,465.046Zm17.038-.783a.285.285,0,0,1,.2-.351c1.106-.308,2.211-.672,3.282-1.083a.286.286,0,1,1,.205.533c-1.089.418-2.211.788-3.335,1.1a.29.29,0,0,1-.077.011A.286.286,0,0,1,3092.949,464.263Zm-23.742-1.281c-1.076-.447-2.143-.953-3.173-1.5a.286.286,0,1,1,.268-.5c1.015.541,2.066,1.039,3.125,1.479a.286.286,0,1,1-.22.528Zm30.261-1.162a.285.285,0,0,1,.128-.383c1.027-.512,2.042-1.08,3.018-1.687a.286.286,0,0,1,.3.485c-.991.618-2.022,1.194-3.065,1.714a.286.286,0,0,1-.383-.129Zm-36.451-2.138c-.972-.644-1.925-1.342-2.833-2.075a.286.286,0,1,1,.359-.444c.894.722,1.832,1.41,2.79,2.044a.286.286,0,1,1-.316.476Zm42.388-1.5a.286.286,0,0,1,.054-.4c.912-.7,1.8-1.445,2.646-2.226a.286.286,0,0,1,.388.42c-.857.793-1.761,1.554-2.687,2.261a.285.285,0,0,1-.4-.054Zm-47.845-2.912c-.834-.816-1.639-1.681-2.392-2.571a.286.286,0,0,1,.437-.369c.741.876,1.534,1.728,2.355,2.532a.286.286,0,1,1-.4.409Zm52.991-1.777a.286.286,0,0,1-.022-.4c.766-.857,1.5-1.76,2.18-2.684a.286.286,0,0,1,.46.339c-.691.939-1.436,1.855-2.214,2.726a.286.286,0,0,1-.4.023Zm-57.522-3.58c-.666-.958-1.293-1.959-1.865-2.976a.286.286,0,0,1,.5-.28c.563,1,1.181,1.987,1.836,2.93a.286.286,0,0,1-.469.326Zm61.7-1.993a.286.286,0,0,1-.1-.392c.591-.985,1.141-2.01,1.635-3.046a.286.286,0,0,1,.516.246c-.5,1.053-1.061,2.094-1.66,3.095a.287.287,0,0,1-.392.1ZM3049.59,443.8c-.473-1.067-.9-2.17-1.268-3.276a.286.286,0,0,1,.542-.181c.362,1.089.782,2.174,1.247,3.225a.286.286,0,1,1-.522.232Zm68.178-2.139a.286.286,0,0,1-.171-.366c.393-1.079.738-2.19,1.026-3.3a.286.286,0,0,1,.554.143c-.293,1.129-.643,2.258-1.042,3.353a.286.286,0,0,1-.269.188A.281.281,0,0,1,3117.768,441.662Zm-70.394-4.519c-.26-1.135-.469-2.3-.621-3.456a.286.286,0,0,1,.566-.074c.149,1.14.355,2.285.611,3.4a.286.286,0,1,1-.557.127Zm72.191-2.206a.286.286,0,0,1-.237-.327c.18-1.132.308-2.288.381-3.436a.286.286,0,1,1,.57.036c-.073,1.166-.2,2.34-.386,3.49a.285.285,0,0,1-.282.24A.278.278,0,0,1,3119.565,434.938Zm-73.1-4.749c-.016-.444-.024-.9-.024-1.341,0-.721.021-1.451.063-2.17a.286.286,0,1,1,.571.033c-.041.707-.062,1.426-.062,2.137,0,.439.008.883.024,1.321a.287.287,0,0,1-.276.3h-.01A.285.285,0,0,1,3046.463,430.189Zm.646-6.677a.286.286,0,0,1-.239-.326c.177-1.153.413-2.312.7-3.442a.286.286,0,0,1,.554.141c-.282,1.113-.513,2.253-.688,3.388a.285.285,0,0,1-.281.243A.306.306,0,0,1,3047.109,423.511Zm1.656-6.762a.285.285,0,0,1-.172-.365c.393-1.1.844-2.189,1.34-3.244a.286.286,0,0,1,.517.243c-.488,1.039-.932,2.114-1.319,3.194a.285.285,0,0,1-.365.172Zm2.911-6.32a.286.286,0,0,1-.1-.391c.594-1,1.244-1.989,1.931-2.933a.286.286,0,1,1,.462.336c-.677.929-1.316,1.9-1.9,2.887a.286.286,0,0,1-.392.1Zm4.055-5.657a.286.286,0,0,1-.025-.4c.772-.873,1.6-1.72,2.448-2.517a.286.286,0,1,1,.39.417c-.839.785-1.65,1.619-2.411,2.479a.286.286,0,0,1-.4.025Zm5.048-4.8a.285.285,0,0,1,.051-.4c.924-.713,1.893-1.39,2.879-2.012a.286.286,0,0,1,.3.483c-.971.613-1.925,1.279-2.834,1.981a.285.285,0,0,1-.4-.052Zm5.861-3.759a.286.286,0,0,1,.126-.384c1.042-.526,2.121-1.008,3.209-1.431a.286.286,0,0,1,.208.532c-1.07.417-2.133.891-3.158,1.409a.282.282,0,0,1-.129.031A.285.285,0,0,1,3066.642,396.217Z" transform="translate(-3046.439 -394.382)" fill="#b5ac84"/>
          </g>
          <g id="Grupo_58898" data-name="Grupo 58898" transform="translate(73.23 32.813)">
            <path id="Trazado_108858" data-name="Trazado 108858" d="M3219.187,470.281h.009a.286.286,0,0,0,.277-.295c-.018-.573-.05-1.153-.095-1.725a.286.286,0,1,0-.57.045c.044.563.075,1.134.094,1.7A.285.285,0,0,0,3219.187,470.281Z" transform="translate(-3218.807 -467.998)" fill="#b5ac84"/>
          </g>
        </g>
        <g id="Grupo_58903" data-name="Grupo 58903" transform="translate(41.348 7.276)">
          <g id="Grupo_58900" data-name="Grupo 58900" transform="translate(24.768 14.513)">
            <path id="Trazado_108859" data-name="Trazado 108859" d="M3203.339,425.343a.286.286,0,0,0,.237-.446c-.32-.475-.656-.95-1-1.41a.286.286,0,1,0-.458.341c.337.453.667.92.983,1.388A.286.286,0,0,0,3203.339,425.343Z" transform="translate(-3202.063 -423.373)" fill="#b5ac84"/>
          </g>
          <g id="Grupo_58901" data-name="Grupo 58901" transform="translate(4.715 0.918)">
            <path id="Trazado_108860" data-name="Trazado 108860" d="M3173.043,403.046c-.672-.762-1.386-1.505-2.12-2.209a.286.286,0,0,1,.4-.413c.746.715,1.47,1.47,2.153,2.243a.286.286,0,0,1-.428.378Zm-4.418-4.232c-.792-.64-1.618-1.254-2.459-1.824a.286.286,0,0,1,.322-.472c.853.579,1.693,1.2,2.5,1.853a.286.286,0,1,1-.359.444Zm-5.061-3.436c-.887-.5-1.805-.965-2.729-1.387a.285.285,0,1,1,.237-.52c.939.428,1.872.9,2.772,1.408a.286.286,0,0,1-.14.535A.281.281,0,0,1,3163.564,395.378ZM3158,392.841c-.958-.342-1.941-.647-2.923-.906a.286.286,0,0,1,.146-.553c1,.263,2,.573,2.969.921a.286.286,0,1,1-.193.538Z" transform="translate(-3154.863 -391.373)" fill="#b5ac84"/>
          </g>
          <g id="Grupo_58902" data-name="Grupo 58902">
            <path id="Trazado_108861" data-name="Trazado 108861" d="M3145.746,390.039a.286.286,0,0,0,.049-.567c-.564-.1-1.139-.186-1.708-.258a.286.286,0,1,0-.072.567c.561.071,1.126.157,1.682.254A.287.287,0,0,0,3145.746,390.039Z" transform="translate(-3143.764 -389.211)" fill="#b5ac84"/>
          </g>
        </g>
        <g id="Grupo_58904" data-name="Grupo 58904" transform="translate(28.726)">
          <path id="Trazado_108862" data-name="Trazado 108862" d="M3118.589,380.709l-4.535-3.295h5.605l1.732-5.33,1.731,5.33h5.6l-4.534,3.295,1.732,5.33-4.534-3.294-4.534,3.294Zm6.25,3.834-1.317-4.053,3.447-2.5h-4.261l-1.317-4.053-1.317,4.053h-4.261l3.447,2.5-1.317,4.053,3.448-2.5Z" transform="translate(-3114.054 -372.084)" fill="#b5ac84"/>
        </g>
        <g id="Grupo_58908" data-name="Grupo 58908" transform="translate(63.518 23.963)">
          <g id="Grupo_58905" data-name="Grupo 58905">
            <path id="Trazado_108863" data-name="Trazado 108863" d="M3195.947,436.5a8.012,8.012,0,1,1,8.013,8.012A8.021,8.021,0,0,1,3195.947,436.5Zm.843,0a7.169,7.169,0,1,0,7.169-7.169A7.177,7.177,0,0,0,3196.79,436.5Z" transform="translate(-3195.947 -428.487)" fill="#b5ac84"/>
          </g>
          <g id="Grupo_58906" data-name="Grupo 58906" transform="translate(9.657 6.906)">
            <path id="Trazado_108864" data-name="Trazado 108864" d="M3218.677,445.849a1.106,1.106,0,1,1,1.106,1.106A1.107,1.107,0,0,1,3218.677,445.849Zm.562,0a.544.544,0,1,0,.544-.544A.544.544,0,0,0,3219.239,445.849Z" transform="translate(-3218.677 -444.743)" fill="#b5ac84"/>
          </g>
          <g id="Grupo_58907" data-name="Grupo 58907" transform="translate(4.315 6.906)">
            <path id="Trazado_108865" data-name="Trazado 108865" d="M3206.1,445.849a1.106,1.106,0,1,1,1.106,1.106A1.107,1.107,0,0,1,3206.1,445.849Zm.563,0a.544.544,0,1,0,.544-.544A.544.544,0,0,0,3206.666,445.849Z" transform="translate(-3206.103 -444.743)" fill="#b5ac84"/>
          </g>
        </g>
      </g>
    </g>
    <path id="Trazado_108866" data-name="Trazado 108866" d="M2403.9,570.392c-48.425-22.793-87.391-153.312-5.675-207.41s173.646-19.294,193.318,10.593,30.915,56.193,65.827,51.829c39.344-4.918,97.794,92.119,2.742,144.989Z" transform="translate(-19.953 -9.286)" fill="#ff8a5b" opacity="0.25"/>
    <g id="Grupo_58912" data-name="Grupo 58912" transform="translate(2352.956 332.506)">
      <g id="Grupo_58911" data-name="Grupo 58911" transform="translate(0 0)">
        <path id="Trazado_108867" data-name="Trazado 108867" d="M2430.579,420.062a.372.372,0,0,1,.078-.739,34.415,34.415,0,0,0,4.406.177.38.38,0,0,1,.38.363.372.372,0,0,1-.362.381q-.425.01-.853.01A34.9,34.9,0,0,1,2430.579,420.062Zm8.564-.531a.372.372,0,0,1,.31-.424,33.494,33.494,0,0,0,4.3-.964.372.372,0,1,1,.21.713,34.29,34.29,0,0,1-4.4.985.379.379,0,0,1-.058,0A.373.373,0,0,1,2439.143,419.531Zm-13-.234a34.364,34.364,0,0,1-4.3-1.342.372.372,0,0,1,.268-.694,33.479,33.479,0,0,0,4.206,1.312.372.372,0,0,1-.087.733A.393.393,0,0,1,2426.139,419.3Zm21.566-2.185a.372.372,0,0,1,.189-.491,33.77,33.77,0,0,0,3.9-2.052.372.372,0,1,1,.389.634,34.472,34.472,0,0,1-3.99,2.1.367.367,0,0,1-.151.032A.372.372,0,0,1,2447.7,417.111Zm-29.952-1.052a34.481,34.481,0,0,1-3.8-2.414.372.372,0,0,1,.438-.6,33.779,33.779,0,0,0,3.722,2.363.372.372,0,0,1-.356.653Zm37.59-3.513a.372.372,0,0,1,.055-.523,33.978,33.978,0,0,0,3.239-2.991.372.372,0,0,1,.539.512,34.686,34.686,0,0,1-3.31,3.057.372.372,0,0,1-.523-.055Zm-44.851-1.79a34.712,34.712,0,0,1-3.053-3.315.372.372,0,0,1,.579-.467,34.032,34.032,0,0,0,2.987,3.243.372.372,0,0,1-.512.538Zm51.049-4.59a.372.372,0,0,1-.081-.519,33.886,33.886,0,0,0,2.356-3.723.372.372,0,0,1,.653.356,34.6,34.6,0,0,1-2.408,3.805.372.372,0,0,1-.52.082Zm-56.7-2.408a34.456,34.456,0,0,1-2.092-3.991.372.372,0,1,1,.68-.3,33.671,33.671,0,0,0,2.047,3.905.372.372,0,0,1-.124.511.368.368,0,0,1-.193.054A.372.372,0,0,1,2404.842,403.757Zm61.034-5.352a.372.372,0,0,1-.214-.481,33.437,33.437,0,0,0,1.308-4.209.372.372,0,1,1,.723.173,34.279,34.279,0,0,1-1.337,4.3.372.372,0,0,1-.347.239A.367.367,0,0,1,2465.877,398.405Zm2.168-8.626a.372.372,0,0,1-.331-.408,34.217,34.217,0,0,0,.183-3.531q0-.438-.011-.874a.372.372,0,0,1,.362-.381.368.368,0,0,1,.381.362q.011.445.011.893a35.012,35.012,0,0,1-.187,3.608.372.372,0,0,1-.37.333Zm-.558-9.2a33.508,33.508,0,0,0-.969-4.3.372.372,0,0,1,.713-.211,34.317,34.317,0,0,1,.99,4.4.371.371,0,0,1-.309.425.391.391,0,0,1-.059,0A.372.372,0,0,1,2467.487,380.576Zm-2.5-8.437a33.8,33.8,0,0,0-2.057-3.9.372.372,0,0,1,.633-.389,34.4,34.4,0,0,1,2.1,3.987.372.372,0,0,1-.188.491.376.376,0,0,1-.151.032A.372.372,0,0,1,2464.992,372.139Zm-60.894-2.157a.372.372,0,0,1-.15-.5,34.637,34.637,0,0,1,2.4-3.813.372.372,0,0,1,.6.436,33.823,33.823,0,0,0-2.349,3.731.371.371,0,0,1-.5.15Zm56.288-5.341a34.021,34.021,0,0,0-3-3.235.372.372,0,1,1,.511-.54,34.8,34.8,0,0,1,3.061,3.306.372.372,0,0,1-.577.469Zm-51.146-1.919a.372.372,0,0,1-.014-.526,34.73,34.73,0,0,1,3.3-3.065.372.372,0,0,1,.469.577,34.1,34.1,0,0,0-3.232,3,.372.372,0,0,1-.525.015ZM2454,358.587a33.755,33.755,0,0,0-3.727-2.352.372.372,0,0,1,.355-.653,34.566,34.566,0,0,1,3.808,2.4.372.372,0,0,1-.437.6Zm-37.921-1.554a.371.371,0,0,1,.122-.512,34.436,34.436,0,0,1,3.983-2.107.372.372,0,0,1,.3.678,33.7,33.7,0,0,0-3.9,2.062.372.372,0,0,1-.511-.121Zm30.194-2.642a33.451,33.451,0,0,0-4.21-1.3.372.372,0,0,1,.172-.723,34.232,34.232,0,0,1,4.305,1.331.372.372,0,0,1-.267.694Zm-22.114-1.08a.372.372,0,0,1,.251-.462,34.309,34.309,0,0,1,4.4-1,.372.372,0,0,1,.116.735,33.55,33.55,0,0,0-4.3.974.364.364,0,0,1-.106.016A.372.372,0,0,1,2424.161,353.311Zm13.558-.96a34.5,34.5,0,0,0-4.406-.167.372.372,0,0,1-.02-.743,34.9,34.9,0,0,1,4.5.17.372.372,0,0,1-.038.742Z" transform="translate(-2402.718 -351.428)" fill="#b5ac84"/>
      </g>
    </g>
    <g id="Grupo_58919" data-name="Grupo 58919" transform="translate(2338.639 353.569)">
      <g id="Grupo_58918" data-name="Grupo 58918" transform="translate(0)">
        <g id="Grupo_58913" data-name="Grupo 58913">
          <path id="Trazado_108868" data-name="Trazado 108868" d="M2369.019,411.43a10.426,10.426,0,1,1,10.426,10.425A10.437,10.437,0,0,1,2369.019,411.43Zm1.1,0a9.328,9.328,0,1,0,9.328-9.328A9.338,9.338,0,0,0,2370.117,411.43Z" transform="translate(-2369.019 -401.005)" fill="#b5ac84"/>
        </g>
        <g id="Grupo_58914" data-name="Grupo 58914" transform="translate(13.296 8.986)">
          <path id="Trazado_108869" data-name="Trazado 108869" d="M2400.316,423.6a1.439,1.439,0,1,1,1.44,1.439A1.441,1.441,0,0,1,2400.316,423.6Zm.732,0a.708.708,0,1,0,.708-.708A.708.708,0,0,0,2401.047,423.6Z" transform="translate(-2400.316 -422.156)" fill="#b5ac84"/>
        </g>
        <g id="Grupo_58915" data-name="Grupo 58915" transform="translate(4.883 8.986)">
          <path id="Trazado_108870" data-name="Trazado 108870" d="M2380.512,423.6a1.439,1.439,0,1,1,1.439,1.439A1.441,1.441,0,0,1,2380.512,423.6Zm.732,0a.708.708,0,1,0,.708-.708A.709.709,0,0,0,2381.244,423.6Z" transform="translate(-2380.512 -422.156)" fill="#b5ac84"/>
        </g>
        <g id="Grupo_58916" data-name="Grupo 58916" transform="translate(9.09 4.78)">
          <path id="Trazado_108871" data-name="Trazado 108871" d="M2391.853,415.133a1.439,1.439,0,1,1,1.439-1.439A1.441,1.441,0,0,1,2391.853,415.133Zm0-.732a.708.708,0,1,0-.708-.708A.709.709,0,0,0,2391.853,414.4Z" transform="translate(-2390.414 -412.255)" fill="#b5ac84"/>
        </g>
        <g id="Grupo_58917" data-name="Grupo 58917" transform="translate(9.09 13.193)">
          <path id="Trazado_108872" data-name="Trazado 108872" d="M2391.853,434.937a1.439,1.439,0,1,1,1.439-1.439A1.441,1.441,0,0,1,2391.853,434.937Zm0-.732a.708.708,0,1,0-.708-.708A.709.709,0,0,0,2391.853,434.205Z" transform="translate(-2390.414 -432.058)" fill="#b5ac84"/>
        </g>
      </g>
    </g>
    <g id="Grupo_58920" data-name="Grupo 58920" transform="translate(2318.459 521.871)">
      <path id="Trazado_108873" data-name="Trazado 108873" d="M2353.6,797.783c-16.263-3.263-32.083,7.236-32.083,7.236s10.547,15.788,26.809,19.051,32.083-7.235,32.083-7.235S2369.864,801.045,2353.6,797.783Z" transform="translate(-2321.518 -797.154)" fill="#8f8b66"/>
      <path id="Trazado_108874" data-name="Trazado 108874" d="M2416.481,842.972a.726.726,0,0,0,.351-1.248,107.763,107.763,0,0,0-25.862-16.1,136.876,136.876,0,0,0-49.292-11.326.725.725,0,1,0-.053,1.449,137.37,137.37,0,0,1,48.75,11.2,106.266,106.266,0,0,1,25.48,15.85A.725.725,0,0,0,2416.481,842.972Z" transform="translate(-2332.681 -807.014)" fill="#b3ae7f"/>
      <path id="Trazado_108875" data-name="Trazado 108875" d="M2379.165,811.865a.725.725,0,0,0,.289-1.3l-9.773-7.1a.725.725,0,1,0-.853,1.173l9.773,7.1A.723.723,0,0,0,2379.165,811.865Z" transform="translate(-2348.557 -800.705)" fill="#b3ae7f"/>
      <path id="Trazado_108876" data-name="Trazado 108876" d="M2385.918,834.613a.729.729,0,0,0,.234-.089l12.155-7.233a.725.725,0,0,0-.742-1.246l-12.154,7.233a.725.725,0,0,0,.507,1.336Z" transform="translate(-2358.062 -813.712)" fill="#b3ae7f"/>
      <path id="Trazado_108877" data-name="Trazado 108877" d="M2430.455,823.772a.726.726,0,0,0,.42-1.176l-6.849-8.219a.725.725,0,1,0-1.114.928l6.849,8.22A.726.726,0,0,0,2430.455,823.772Z" transform="translate(-2379.739 -806.909)" fill="#b3ae7f"/>
    </g>
    <g id="Grupo_58942" data-name="Grupo 58942" transform="translate(2316.199 463.461)">
      <path id="Trazado_108878" data-name="Trazado 108878" d="M2321.936,678.532c2.4,1.031,11.649-.04,11.649-.04s-5.516-7.619-7.916-8.65-9.47.889-9.47.889S2319.537,677.5,2321.936,678.532Z" transform="translate(-2316.199 -665.345)" fill="#7d6871"/>
      <g id="Grupo_58922" data-name="Grupo 58922" transform="translate(13.367 11.389)">
        <g id="Grupo_58921" data-name="Grupo 58921">
          <path id="Trazado_108879" data-name="Trazado 108879" d="M2411.7,753.886l.7-.186c-13.593-51.265-64.1-67.125-64.593-67.224l-.142.711C2348.152,687.285,2398.207,703.011,2411.7,753.886Z" transform="translate(-2347.662 -686.476)" fill="#54464c"/>
        </g>
      </g>
      <g id="Grupo_58925" data-name="Grupo 58925" transform="translate(7.531 19.054)">
        <path id="Trazado_108880" data-name="Trazado 108880" d="M2343.479,715.783c2.438-.938,8.31-8.164,8.31-8.164s-9.27-1.6-11.707-.663-6.157,7.25-6.157,7.25S2341.042,716.721,2343.479,715.783Z" transform="translate(-2333.925 -705.751)" fill="#7d6871"/>
        <g id="Grupo_58924" data-name="Grupo 58924" transform="translate(5.483)">
          <g id="Grupo_58923" data-name="Grupo 58923">
            <path id="Trazado_108881" data-name="Trazado 108881" d="M2347.142,710.6c4.259-2.016,16.931-5.352,17.058-5.385l-.184-.7c-.523.138-12.864,3.387-17.185,5.431Z" transform="translate(-2346.832 -704.518)" fill="#54464c"/>
          </g>
        </g>
      </g>
      <g id="Grupo_58928" data-name="Grupo 58928" transform="translate(22.569 29.268)">
        <path id="Trazado_108882" data-name="Trazado 108882" d="M2378.875,739.826c2.437-.938,8.309-8.164,8.309-8.164s-9.269-1.6-11.707-.663-6.157,7.25-6.157,7.25S2376.437,740.764,2378.875,739.826Z" transform="translate(-2369.321 -729.794)" fill="#7d6871"/>
        <g id="Grupo_58927" data-name="Grupo 58927" transform="translate(5.483)">
          <g id="Grupo_58926" data-name="Grupo 58926">
            <path id="Trazado_108883" data-name="Trazado 108883" d="M2382.538,734.648c4.259-2.016,16.931-5.352,17.058-5.385l-.184-.7c-.523.138-12.864,3.387-17.184,5.431Z" transform="translate(-2382.228 -728.561)" fill="#54464c"/>
          </g>
        </g>
      </g>
      <g id="Grupo_58931" data-name="Grupo 58931" transform="translate(34.911 41.469)">
        <path id="Trazado_108884" data-name="Trazado 108884" d="M2407.927,768.544c2.438-.938,8.31-8.164,8.31-8.164s-9.27-1.6-11.707-.663-6.157,7.25-6.157,7.25S2405.49,769.482,2407.927,768.544Z" transform="translate(-2398.373 -758.512)" fill="#7d6871"/>
        <g id="Grupo_58930" data-name="Grupo 58930" transform="translate(5.483)">
          <g id="Grupo_58929" data-name="Grupo 58929">
            <path id="Trazado_108885" data-name="Trazado 108885" d="M2411.59,763.365c4.26-2.016,16.931-5.351,17.058-5.385l-.184-.7c-.523.137-12.865,3.386-17.185,5.431Z" transform="translate(-2411.28 -757.279)" fill="#54464c"/>
          </g>
        </g>
      </g>
      <g id="Grupo_58934" data-name="Grupo 58934" transform="translate(44.227 53.717)">
        <path id="Trazado_108886" data-name="Trazado 108886" d="M2429.855,797.373c2.438-.938,8.309-8.164,8.309-8.164s-9.269-1.6-11.706-.663-6.157,7.25-6.157,7.25S2427.417,798.311,2429.855,797.373Z" transform="translate(-2420.301 -787.341)" fill="#7d6871"/>
        <g id="Grupo_58933" data-name="Grupo 58933" transform="translate(5.483)">
          <g id="Grupo_58932" data-name="Grupo 58932">
            <path id="Trazado_108887" data-name="Trazado 108887" d="M2433.518,792.194c4.259-2.015,16.931-5.351,17.059-5.385l-.185-.7c-.523.138-12.864,3.387-17.184,5.431Z" transform="translate(-2433.208 -786.108)" fill="#54464c"/>
          </g>
        </g>
      </g>
      <g id="Grupo_58938" data-name="Grupo 58938" transform="translate(28.849 0)">
        <g id="Grupo_58936" data-name="Grupo 58936">
          <g id="Grupo_58935" data-name="Grupo 58935">
            <path id="Trazado_108888" data-name="Trazado 108888" d="M2384.194,669c.671,2.524,7.226,9.137,7.226,9.137s2.586-9.044,1.914-11.568-6.549-6.9-6.549-6.9S2383.522,666.475,2384.194,669Z" transform="translate(-2384.103 -659.669)" fill="#7d6871"/>
          </g>
        </g>
        <g id="Grupo_58937" data-name="Grupo 58937" transform="translate(4.417 5.776)">
          <path id="Trazado_108889" data-name="Trazado 108889" d="M2398.024,691.04l.717-.108c-.081-.535-1.988-13.154-3.558-17.668l-.685.238C2396.046,677.954,2398,690.91,2398.024,691.04Z" transform="translate(-2394.499 -673.265)" fill="#54464c"/>
        </g>
      </g>
      <g id="Grupo_58941" data-name="Grupo 58941" transform="translate(47.517 12.437)">
        <path id="Trazado_108890" data-name="Trazado 108890" d="M2428.05,697.642c.2,2.6,5.435,10.3,5.435,10.3s4.194-8.42,4-11.023-5.178-7.979-5.178-7.979S2427.852,695.038,2428.05,697.642Z" transform="translate(-2428.044 -688.943)" fill="#7d6871"/>
        <g id="Grupo_58940" data-name="Grupo 58940" transform="translate(4.865 6.121)">
          <g id="Grupo_58939" data-name="Grupo 58939">
            <path id="Trazado_108891" data-name="Trazado 108891" d="M2440.482,721.37c.019-.541.449-13.3-.269-18.02l-.716.109c.708,4.658.266,17.754.261,17.886Z" transform="translate(-2439.496 -703.35)" fill="#54464c"/>
          </g>
        </g>
      </g>
    </g>
    <g id="Grupo_58970" data-name="Grupo 58970" transform="translate(2638.588 371.588)">
      <path id="Trazado_108892" data-name="Trazado 108892" d="M3155.393,453.225c-1.248.536-6.056-.02-6.056-.02s2.868-3.961,4.115-4.5,4.924.463,4.924.463S3156.64,452.689,3155.393,453.225Z" transform="translate(-3117.771 -446.37)" fill="#8f8b66"/>
      <g id="Grupo_58944" data-name="Grupo 58944" transform="translate(0 5.921)">
        <g id="Grupo_58943" data-name="Grupo 58943">
          <path id="Trazado_108893" data-name="Trazado 108893" d="M3075.4,492.4l-.365-.1c7.068-26.652,33.325-34.9,33.582-34.949l.074.37C3108.438,457.776,3082.415,465.952,3075.4,492.4Z" transform="translate(-3075.037 -457.356)" fill="#b3ae7f"/>
        </g>
      </g>
      <g id="Grupo_58948" data-name="Grupo 58948" transform="translate(24.809 9.906)">
        <path id="Trazado_108894" data-name="Trazado 108894" d="M3143.857,472.592c-1.267-.488-4.32-4.244-4.32-4.244s4.819-.833,6.086-.345,3.2,3.77,3.2,3.77S3145.124,473.079,3143.857,472.592Z" transform="translate(-3136.944 -467.376)" fill="#8f8b66"/>
        <g id="Grupo_58947" data-name="Grupo 58947">
          <g id="Grupo_58946" data-name="Grupo 58946">
            <g id="Grupo_58945" data-name="Grupo 58945">
              <path id="Trazado_108895" data-name="Trazado 108895" d="M3142.3,469.9a82.744,82.744,0,0,0-8.868-2.8l.1-.365a80.987,80.987,0,0,1,8.934,2.824Z" transform="translate(-3133.433 -466.736)" fill="#b3ae7f"/>
            </g>
          </g>
        </g>
      </g>
      <g id="Grupo_58952" data-name="Grupo 58952" transform="translate(16.991 15.216)">
        <path id="Trazado_108896" data-name="Trazado 108896" d="M3125.454,485.091c-1.267-.487-4.32-4.244-4.32-4.244s4.819-.832,6.087-.345,3.2,3.769,3.2,3.769S3126.721,485.579,3125.454,485.091Z" transform="translate(-3118.541 -479.876)" fill="#8f8b66"/>
        <g id="Grupo_58951" data-name="Grupo 58951">
          <g id="Grupo_58950" data-name="Grupo 58950">
            <g id="Grupo_58949" data-name="Grupo 58949">
              <path id="Trazado_108897" data-name="Trazado 108897" d="M3123.9,482.4a82.755,82.755,0,0,0-8.868-2.8l.1-.365a80.954,80.954,0,0,1,8.934,2.824Z" transform="translate(-3115.031 -479.235)" fill="#b3ae7f"/>
            </g>
          </g>
        </g>
      </g>
      <g id="Grupo_58956" data-name="Grupo 58956" transform="translate(10.574 21.559)">
        <path id="Trazado_108898" data-name="Trazado 108898" d="M3110.351,500.022c-1.267-.488-4.32-4.245-4.32-4.245s4.819-.832,6.086-.345,3.2,3.77,3.2,3.77S3111.618,500.509,3110.351,500.022Z" transform="translate(-3103.437 -494.806)" fill="#8f8b66"/>
        <g id="Grupo_58955" data-name="Grupo 58955">
          <g id="Grupo_58954" data-name="Grupo 58954">
            <g id="Grupo_58953" data-name="Grupo 58953">
              <path id="Trazado_108899" data-name="Trazado 108899" d="M3108.795,497.33a82.718,82.718,0,0,0-8.868-2.8l.1-.365a81.1,81.1,0,0,1,8.934,2.824Z" transform="translate(-3099.926 -494.165)" fill="#b3ae7f"/>
            </g>
          </g>
        </g>
      </g>
      <g id="Grupo_58960" data-name="Grupo 58960" transform="translate(5.731 27.927)">
        <path id="Trazado_108900" data-name="Trazado 108900" d="M3098.95,515.01c-1.267-.488-4.321-4.245-4.321-4.245s4.819-.832,6.087-.345,3.2,3.77,3.2,3.77S3100.218,515.5,3098.95,515.01Z" transform="translate(-3092.036 -509.794)" fill="#8f8b66"/>
        <g id="Grupo_58959" data-name="Grupo 58959">
          <g id="Grupo_58958" data-name="Grupo 58958">
            <g id="Grupo_58957" data-name="Grupo 58957">
              <path id="Trazado_108901" data-name="Trazado 108901" d="M3097.395,512.318a82.7,82.7,0,0,0-8.869-2.8l.1-.365a80.957,80.957,0,0,1,8.934,2.824Z" transform="translate(-3088.526 -509.154)" fill="#b3ae7f"/>
            </g>
          </g>
        </g>
      </g>
      <g id="Grupo_58965" data-name="Grupo 58965" transform="translate(20.749)">
        <g id="Grupo_58963" data-name="Grupo 58963">
          <g id="Grupo_58962" data-name="Grupo 58962">
            <g id="Grupo_58961" data-name="Grupo 58961">
              <path id="Trazado_108902" data-name="Trazado 108902" d="M3128.687,448.269c-.349,1.312-3.757,4.75-3.757,4.75s-1.344-4.7-1-6.014,3.4-3.587,3.4-3.587S3129.036,446.957,3128.687,448.269Z" transform="translate(-3123.877 -443.419)" fill="#8f8b66"/>
            </g>
          </g>
        </g>
        <g id="Grupo_58964" data-name="Grupo 58964" transform="translate(0.356 3.003)">
          <path id="Trazado_108903" data-name="Trazado 108903" d="M3125.087,459.728l-.372-.056a80.707,80.707,0,0,1,1.849-9.185l.356.124A82.833,82.833,0,0,0,3125.087,459.728Z" transform="translate(-3124.715 -450.487)" fill="#b3ae7f"/>
        </g>
      </g>
      <g id="Grupo_58969" data-name="Grupo 58969" transform="translate(10.991 6.466)">
        <path id="Trazado_108904" data-name="Trazado 108904" d="M3105.815,463.161c-.1,1.354-2.825,5.357-2.825,5.357s-2.181-4.377-2.077-5.731,2.692-4.149,2.692-4.149S3105.919,461.807,3105.815,463.161Z" transform="translate(-3100.909 -458.638)" fill="#8f8b66"/>
        <g id="Grupo_58968" data-name="Grupo 58968" transform="translate(1.792 3.182)">
          <g id="Grupo_58967" data-name="Grupo 58967">
            <g id="Grupo_58966" data-name="Grupo 58966">
              <path id="Trazado_108905" data-name="Trazado 108905" d="M3105.2,475.5a80.966,80.966,0,0,1,.14-9.369l.373.057a82.647,82.647,0,0,0-.136,9.3Z" transform="translate(-3105.128 -466.128)" fill="#b3ae7f"/>
            </g>
          </g>
        </g>
      </g>
    </g>
    <g id="Grupo_58971" data-name="Grupo 58971" transform="translate(2648.354 444.377)">
      <path id="Trazado_108906" data-name="Trazado 108906" d="M3179.055,614.749c-30.151,6.168-45.407,32.745-43.156,51.91,0,0,17.988-4.214,22.348-7.688s7.315-19.973,7.957-22.737,4.153-12.377,4.153-12.377Z" transform="translate(-3119.683 -614.749)" fill="#25ced1"/>
      <path id="Trazado_108907" data-name="Trazado 108907" d="M3179.35,614.749c-19.333,11.009-12.4,25.318-18.249,35.961s-24.906,15.949-24.906,15.949c34.862-1.114,31.468-20.291,33.077-32.578A32.367,32.367,0,0,1,3179.35,614.749Z" transform="translate(-3119.979 -614.749)" fill="#0075a4"/>
      <path id="Trazado_108908" data-name="Trazado 108908" d="M3098.087,725.79q2.635-5.994,4.914-11.218c5.808-13.284,10.128-23.162,14.121-31.056l-1.732-5.216a.725.725,0,0,1,1.376-.457l1.282,3.864a100.74,100.74,0,0,1,8.425-13.786.721.721,0,0,1-.072-.306l.011-9.464a.725.725,0,0,1,1.45,0l-.01,7.965a77.639,77.639,0,0,1,7.985-8.623.725.725,0,1,1,.99,1.059,74.721,74.721,0,0,0-14.062,17.544l13.882-4.009a.725.725,0,0,1,.575,1.318.738.738,0,0,1-.173.075l-15.266,4.409c-.018.005-.036,0-.055,0-1.01,1.784-2.023,3.686-3.062,5.732a.718.718,0,0,1-.329.746.619.619,0,0,1-.062.029c-3.87,7.712-8.135,17.463-13.945,30.751q-2.29,5.238-4.916,11.221a.725.725,0,1,1-1.328-.584Z" transform="translate(-3098.026 -639.221)" fill="#0075a4"/>
    </g>
    <g id="Grupo_58974" data-name="Grupo 58974" transform="translate(2659.064 479.224)">
      <path id="Trazado_108909" data-name="Trazado 108909" d="M3232.244,697.663c-2.12,1.525-5.969,10-5.969,10s9.372-.8,11.492-2.326a4.729,4.729,0,1,0-5.523-7.677Z" transform="translate(-3182.498 -696.773)" fill="#7d6871"/>
      <path id="Trazado_108910" data-name="Trazado 108910" d="M3123.668,769.884a.434.434,0,0,0,.4-.252c.14-.3,14.352-30.474,47.916-56.206a.435.435,0,1,0-.529-.69c-33.743,25.87-48.036,56.228-48.176,56.531a.434.434,0,0,0,.394.618Z" transform="translate(-3123.234 -705.902)" fill="#54464c"/>
      <g id="Grupo_58972" data-name="Grupo 58972" transform="translate(31.731 18.667)">
        <path id="Trazado_108911" data-name="Trazado 108911" d="M3212.188,740.759c-2.569-.469-11.346,2.637-11.346,2.637s7.077,6.2,9.646,6.667a4.729,4.729,0,1,0,1.7-9.3Z" transform="translate(-3199.601 -740.71)" fill="#7d6871"/>
        <path id="Trazado_108912" data-name="Trazado 108912" d="M3209.565,748.622a.435.435,0,0,0,.083-.862c-7.847-1.541-11.166-2.261-11.2-2.268a.435.435,0,1,0-.185.85c.032.007,3.358.728,11.216,2.272A.449.449,0,0,0,3209.565,748.622Z" transform="translate(-3197.922 -743.455)" fill="#54464c"/>
      </g>
      <g id="Grupo_58973" data-name="Grupo 58973" transform="translate(16.377 15.464)">
        <path id="Trazado_108913" data-name="Trazado 108913" d="M3161.813,738.43c.292,2.6,5.8,10.1,5.8,10.1s3.889-8.565,3.6-11.16a4.729,4.729,0,0,0-9.4,1.059Z" transform="translate(-3161.783 -733.171)" fill="#7d6871"/>
        <path id="Trazado_108914" data-name="Trazado 108914" d="M3173.524,755.723h.035a.435.435,0,0,0,.4-.468c0-.033-.273-3.425-1.065-11.394a.435.435,0,1,0-.865.086c.791,7.958,1.06,11.344,1.063,11.377A.435.435,0,0,0,3173.524,755.723Z" transform="translate(-3167.674 -739.093)" fill="#54464c"/>
      </g>
    </g>
    <g id="Grupo_58975" data-name="Grupo 58975" transform="translate(2630.245 512.662)">
      <path id="Trazado_108915" data-name="Trazado 108915" d="M3179.272,776.388c23.35-4.7,46.079,10.356,46.079,10.356s-15.128,22.683-38.479,27.386-46.079-10.356-46.079-10.356S3155.922,781.09,3179.272,776.388Z" transform="translate(-3104.515 -775.478)" fill="#25ced1"/>
      <path id="Trazado_108916" data-name="Trazado 108916" d="M3055.705,841.307a.725.725,0,0,0,.909-.055c.137-.124,13.939-12.592,36.657-22.841,20.481-9.24,46.691-15.282,70.112-16.162a.725.725,0,1,0-.055-1.449c-23.6.887-50.01,6.976-70.653,16.289-22.941,10.35-36.9,22.966-37.038,23.092a.725.725,0,0,0-.046,1.024A.7.7,0,0,0,3055.705,841.307Z" transform="translate(-3055.401 -790.042)" fill="#0075a4"/>
      <path id="Trazado_108917" data-name="Trazado 108917" d="M3235.436,796.6a.726.726,0,0,0,.848,0l14.026-10.207a.725.725,0,0,0-.853-1.173l-14.026,10.207a.724.724,0,0,0-.16,1.013A.735.735,0,0,0,3235.436,796.6Z" transform="translate(-3158.773 -780.998)" fill="#0075a4"/>
      <path id="Trazado_108918" data-name="Trazado 108918" d="M3203.863,819.058c.016.012.033.023.052.034l17.462,10.374a.725.725,0,0,0,.74-1.247l-17.462-10.374a.725.725,0,0,0-.792,1.213Z" transform="translate(-3140.615 -799.787)" fill="#0075a4"/>
      <path id="Trazado_108919" data-name="Trazado 108919" d="M3167.484,813.753a.724.724,0,0,0,.978-.127l9.826-11.811a.725.725,0,1,0-1.114-.927l-9.827,11.811a.725.725,0,0,0,.094,1.021C3167.455,813.731,3167.469,813.742,3167.484,813.753Z" transform="translate(-3119.69 -789.943)" fill="#0075a4"/>
    </g>
    <path id="Rectángulo_6559" data-name="Rectángulo 6559" d="M8.228,0H352.6a8.228,8.228,0,0,1,8.228,8.228v0a0,0,0,0,1,0,0H0a0,0,0,0,1,0,0v0A8.228,8.228,0,0,1,8.228,0Z" transform="translate(2331.776 560.634)" fill="#d4c99b"/>
    <path id="Trazado_108920" data-name="Trazado 108920" d="M2478.825,451.484a4.657,4.657,0,0,1,8.516-2.731c18.879,28.034,52.805,31.1,74.284,26.553,25.661-5.428,64.152-27.141,113.005-24.674s60.2,26.154,60.2,26.154V634.2H2475.761v-12.83a12.337,12.337,0,0,1,12.337-12.337h156.43a9.869,9.869,0,0,0,9.87-9.869V544.392a9.87,9.87,0,0,0-9.87-9.87h-108.07c-16.36,1.128-33.306,14.35-43.492,25.47a7.434,7.434,0,0,1-12.893-4.854Z" transform="translate(-91.773 -73.712)" fill="#0075a4"/>
    <g id="Grupo_58982" data-name="Grupo 58982" transform="translate(2593.745 498.93)">
      <path id="Trazado_108921" data-name="Trazado 108921" d="M3027.077,773.186a34.831,34.831,0,0,0-34.831,34.831h69.662A34.831,34.831,0,0,0,3027.077,773.186Z" transform="translate(-2982.576 -760.428)" fill="#ff8a5b"/>
      <path id="Trazado_108922" data-name="Trazado 108922" d="M3020.227,774.775a34.841,34.841,0,0,0-27.981,34.156h49.623C3032.831,802.737,3019.036,790.594,3020.227,774.775Z" transform="translate(-2982.576 -761.342)" fill="#dedede" style="mix-blend-mode: multiply;isolation: isolate"/>
      <rect id="Rectángulo_6560" data-name="Rectángulo 6560" width="89.001" height="13.973" transform="translate(0 47.319)" fill="#54494d"/>
      <g id="Grupo_58976" data-name="Grupo 58976" transform="translate(59.644 0)">
        <path id="Trazado_108923" data-name="Trazado 108923" d="M3111.43,771.617l-.035,0a.26.26,0,0,1-.221-.292l2.329-17.112a.259.259,0,0,1,.513.07l-2.329,17.112A.259.259,0,0,1,3111.43,771.617Z" transform="translate(-3110.62 -749.386)" fill="#54494d"/>
        <circle id="Elipse_4107" data-name="Elipse 4107" cx="3.24" cy="3.24" r="3.24" fill="#54494d"/>
        <path id="Trazado_108924" data-name="Trazado 108924" d="M3114.643,743.288a3.233,3.233,0,0,1-3.129,5.187,3.238,3.238,0,1,0,3.129-5.187Z" transform="translate(-3110.817 -743.232)" fill="#ab8f9a"/>
      </g>
      <g id="Grupo_58977" data-name="Grupo 58977" transform="translate(60.699 22.283)">
        <path id="Trazado_108925" data-name="Trazado 108925" d="M3112.422,814.947a.292.292,0,0,1-.022-.028.259.259,0,0,1,.072-.359l14.386-9.553a.259.259,0,1,1,.286.431l-14.386,9.554A.258.258,0,0,1,3112.422,814.947Z" transform="translate(-3112.357 -800.988)" fill="#54494d"/>
        <path id="Trazado_108926" data-name="Trazado 108926" d="M3147.6,801.279a3.24,3.24,0,1,1,.293-4.573A3.24,3.24,0,0,1,3147.6,801.279Z" transform="translate(-3129.535 -795.607)" fill="#d97096"/>
        <path id="Trazado_108927" data-name="Trazado 108927" d="M3148.244,799.318a3.233,3.233,0,0,1-5.962,1.077,3.238,3.238,0,1,0,5.962-1.077Z" transform="translate(-3129.538 -797.741)" fill="#f27da7"/>
      </g>
      <g id="Grupo_58978" data-name="Grupo 58978" transform="translate(36.099 7.501)">
        <path id="Trazado_108928" data-name="Trazado 108928" d="M3066.354,788.923l-.034.009a.259.259,0,0,1-.306-.2l-3.492-16.913a.259.259,0,0,1,.507-.1l3.491,16.913A.258.258,0,0,1,3066.354,788.923Z" transform="translate(-3059.092 -766.964)" fill="#54494d"/>
        <path id="Trazado_108929" data-name="Trazado 108929" d="M3060.752,762.976a3.24,3.24,0,1,1-4.133-1.979A3.24,3.24,0,0,1,3060.752,762.976Z" transform="translate(-3054.455 -760.812)" fill="#d97096"/>
        <path id="Trazado_108930" data-name="Trazado 108930" d="M3059.232,760.859a3.233,3.233,0,0,1-1.227,5.933,3.238,3.238,0,1,0,1.227-5.933Z" transform="translate(-3056.497 -760.816)" fill="#f27da7"/>
      </g>
      <g id="Grupo_58979" data-name="Grupo 58979" transform="translate(26.176 34.434)">
        <path id="Trazado_108931" data-name="Trazado 108931" d="M3037.4,826.371a3.24,3.24,0,1,1-4.133-1.979A3.24,3.24,0,0,1,3037.4,826.371Z" transform="translate(-3031.099 -824.207)" fill="#fff4c5"/>
        <path id="Trazado_108932" data-name="Trazado 108932" d="M3035.876,824.254a3.237,3.237,0,0,1-.656,5.791,3.19,3.19,0,0,1-.571.142,3.238,3.238,0,1,0,1.227-5.933Z" transform="translate(-3033.141 -824.211)" fill="#fff8d9"/>
      </g>
      <g id="Grupo_58980" data-name="Grupo 58980" transform="translate(52.953 24.828)">
        <path id="Trazado_108933" data-name="Trazado 108933" d="M3100.423,803.76a3.24,3.24,0,1,1-4.133-1.979A3.24,3.24,0,0,1,3100.423,803.76Z" transform="translate(-3094.126 -801.596)" fill="#fff4c5"/>
        <path id="Trazado_108934" data-name="Trazado 108934" d="M3098.9,801.643a3.237,3.237,0,0,1-.656,5.791,3.3,3.3,0,0,1-.571.142,3.238,3.238,0,1,0,1.227-5.933Z" transform="translate(-3096.168 -801.6)" fill="#fff8d9"/>
      </g>
      <g id="Grupo_58981" data-name="Grupo 58981" transform="translate(68.546 37.383)">
        <path id="Trazado_108935" data-name="Trazado 108935" d="M3137.125,833.313a3.24,3.24,0,1,1-4.133-1.978A3.239,3.239,0,0,1,3137.125,833.313Z" transform="translate(-3130.829 -831.149)" fill="#54494d"/>
        <path id="Trazado_108936" data-name="Trazado 108936" d="M3135.605,831.2a3.234,3.234,0,0,1-1.227,5.933,3.239,3.239,0,1,0,1.227-5.933Z" transform="translate(-3132.87 -831.153)" fill="#ab8f9a"/>
      </g>
      <path id="Trazado_108937" data-name="Trazado 108937" d="M3113.464,868.873h-32.806a3.038,3.038,0,0,1-3.038-3.037h0a3.038,3.038,0,0,1,3.038-3.038h32.806a3.037,3.037,0,0,1,3.037,3.038h0A3.037,3.037,0,0,1,3113.464,868.873Z" transform="translate(-3031.679 -811.969)" fill="#212121" style="mix-blend-mode: screen;isolation: isolate"/>
    </g>
    <path id="Trazado_108938" data-name="Trazado 108938" d="M2582.226,511.515c13.81,29.421,5.448,57.728-4.274,65.415a46.376,46.376,0,0,1,17.281-5.123h14.253c.47-5.124.946-10.52,1.26-11.461.554-1.662-6.467-38.418-8.4-46.047A80.468,80.468,0,0,1,2582.226,511.515Z" transform="translate(-150.549 -110.997)" fill="#c4c4c4" style="mix-blend-mode: multiply;isolation: isolate"/>
    <rect id="Rectángulo_6561" data-name="Rectángulo 6561" width="25.516" height="75.636" rx="12.758" transform="translate(2644.883 407.735)" fill="#0075a4"/>
    <rect id="Rectángulo_6562" data-name="Rectángulo 6562" width="25.516" height="25.516" rx="12.758" transform="translate(2644.883 432.795)" fill="#004b6a"/>
    <rect id="Rectángulo_6563" data-name="Rectángulo 6563" width="102.974" height="37.666" rx="18.833" transform="translate(2514.571 409.254)" fill="#004b6a"/>
    <rect id="Rectángulo_6564" data-name="Rectángulo 6564" width="9.923" height="84.85" rx="4.961" transform="translate(2392.966 392.952)" fill="#004b6a"/>
    <rect id="Rectángulo_6565" data-name="Rectángulo 6565" width="4.556" height="58.625" transform="translate(2606.508 327.948)" fill="#78646c"/>
    <g id="Grupo_58985" data-name="Grupo 58985" transform="translate(2594.156 333.112)">
      <g id="Grupo_58983" data-name="Grupo 58983" transform="translate(0 0)">
        <rect id="Rectángulo_6566" data-name="Rectángulo 6566" width="28.71" height="1.552" fill="#ffc49d"/>
        <path id="Trazado_108939" data-name="Trazado 108939" d="M3000.066,356.507h-23.618l4.833,6.68h13.951Z" transform="translate(-2973.901 -354.955)" fill="#e6b18e"/>
      </g>
      <g id="Grupo_58984" data-name="Grupo 58984" transform="translate(0 34.445)">
        <rect id="Rectángulo_6567" data-name="Rectángulo 6567" width="28.71" height="1.552" transform="translate(0 6.681)" fill="#ffc49d"/>
        <path id="Trazado_108940" data-name="Trazado 108940" d="M3000.066,440.612h-23.618l4.833-6.681h13.951Z" transform="translate(-2973.901 -433.931)" fill="#e6b18e"/>
      </g>
      <rect id="Rectángulo_6568" data-name="Rectángulo 6568" width="17.556" height="26.286" transform="translate(5.626 8.051)" fill="#c46588"/>
      <path id="Trazado_108941" data-name="Trazado 108941" d="M2983.869,397.9a.744.744,0,0,1-.18-1.465l13.372-3.343-13.424-2.957a.744.744,0,0,1,0-1.453l13.089-2.863-13.1-3.07a.743.743,0,0,1,.02-1.452l12.717-2.612-12.824-2.587a.744.744,0,1,1,.294-1.458l16.4,3.31a.744.744,0,0,1,0,1.457l-12.981,2.666,13,3.047a.744.744,0,0,1-.011,1.45l-12.985,2.84,13.2,2.909a.744.744,0,0,1,.02,1.448l-16.44,4.11A.739.739,0,0,1,2983.869,397.9Z" transform="translate(-2977.638 -365.377)" fill="#d97096"/>
    </g>
    <path id="Trazado_108942" data-name="Trazado 108942" d="M2650.317,615.025c.405-41.311,6.075-93.558-12.961-103.683h-49.423c19.036,10.125,13.366,62.372,12.96,103.683s-4.86,55.082,5.671,56.3h49.423C2645.457,670.107,2649.912,656.336,2650.317,615.025Z" transform="translate(-156.289 -110.897)" fill="#25ced1"/>
    <g id="Grupo_58986" data-name="Grupo 58986" transform="translate(2433.549 329.365)">
      <path id="Trazado_108943" data-name="Trazado 108943" d="M2625.687,353.831c-2.242-6.249,1.908-8.968,3.2-8.968.811-1.527,4.818-.668,6.3.381s2.432.763,2.623,1.1-.334,1.145-.191,1.24c.811,1.431-.382,3.816-.859,4.436a51.015,51.015,0,0,1-5.152,3.673,27.96,27.96,0,0,1-3.386.572c-.191-.048-1.622-.525-1.765-.859S2625.687,353.831,2625.687,353.831Z" transform="translate(-2611.177 -344.035)" fill="#2b1710"/>
      <path id="Trazado_108944" data-name="Trazado 108944" d="M2702.47,411.679a2.335,2.335,0,0,1,2.274-2.146c1.041.024,3.879,1.836,3.879,1.908s-2.7,1.455-3.029,1.24S2702.47,411.679,2702.47,411.679Z" transform="translate(-2655.715 -381.706)" fill="#f5d5df"/>
      <path id="Trazado_108945" data-name="Trazado 108945" d="M2715.481,584.649c-.1.644.634,4.191.682,4.865a18.225,18.225,0,0,0,.981,4.493l19.016-3.591c-5.067-2.989-11.554-4.219-12.258-4.519s-1.629-2.185-1.629-2.185Z" transform="translate(-2663.193 -481.886)" fill="#ff8762"/>
      <path id="Trazado_108946" data-name="Trazado 108946" d="M2724.962,588.942a2.906,2.906,0,0,0-1.116,1.988c-1.545,2.143-4.879,2.049-6.708,1.808a18.42,18.42,0,0,0,.964,4.277l19.016-3.59C2732.239,590.545,2726.043,589.3,2724.962,588.942Z" transform="translate(-2664.151 -484.895)" fill="#2b1710"/>
      <path id="Trazado_108947" data-name="Trazado 108947" d="M2644.571,472.408s29.384,4.484,31.292,8.3,1.812,39.782,1.812,39.782c-3.53,2.767-9.063,1.908-9.063,1.908-2.194-5.151-5.152-27.57-5.152-27.57s-8.4-5.247-9.54-5.915-17.268-2.1-17.363-3.052-.668-11.925-.668-11.925Z" transform="translate(-2617.421 -417.87)" fill="#6daab0"/>
      <path id="Trazado_108948" data-name="Trazado 108948" d="M2674.657,589.959a15.486,15.486,0,0,0-1.939,6.265l18.73,4.865c-3.308-4.865-8.65-8.745-9.159-9.317s-.541-2.671-.541-2.671Z" transform="translate(-2638.603 -484.985)" fill="#ff8762"/>
      <path id="Trazado_108949" data-name="Trazado 108949" d="M2598.053,482.416s-.048,9.969,4.054,11.019,27.476,1.812,27.476,2.1c-1.05,7.155-.1,30.337.191,30.337a20.957,20.957,0,0,0,11.066-.381s3.911-37.874,2.29-39.5-24.136-3.148-25.281-4.484-2.194-4.293-2.671-4.389S2598.673,481.318,2598.053,482.416Z" transform="translate(-2595.659 -420.579)" fill="#86bec4"/>
      <path id="Trazado_108950" data-name="Trazado 108950" d="M2608.24,381.853c-1.288-.1-2.123,3.053-2.528,3.53s-8.729,2.934-10.948,5.772-2.957,10.995-1.812,17.292c-.429,12.02,1.861,19.175,1.861,19.175,1.86-.715,15.6-3.005,16.886-3.434s.143-.715,3.148-.859,16.027-11.305,16.027-11.305c-.143-.429-2.147-4.15-2.147-4.15l5.724-1.431s2.862-2.146,1.717-2.719-14.215-13.737-16.313-14.31-3.625-1.526-4.007-2.576a3.309,3.309,0,0,0-2-2.194C2612.89,384.358,2608.24,381.853,2608.24,381.853Z" transform="translate(-2592.418 -365.785)" fill="#ffad54"/>
      <path id="Trazado_108951" data-name="Trazado 108951" d="M2634.186,351.373c-1.1,1.145-3.53.954-4.675.954s-1.479,1.908-1.241,3.053.62,2.433.143,2.957-1.574.668-1.86.382c-.906-1.67-2.719-1.24-2.575.572s1.574,2.815,2.289,2.528a5.54,5.54,0,0,1-.286,3.1c.43,2.433,5.629,4.341,6.773,2.957-.191-.859-.1-1.193.716-1.145s1.526-.811,1.622-2.48a39.449,39.449,0,0,0,1.1-6.964c.191-.763.811-1.956,0-3.244A26.435,26.435,0,0,0,2634.186,351.373Z" transform="translate(-2610.565 -348.256)" fill="#ff8762"/>
      <ellipse id="Elipse_4108" data-name="Elipse 4108" cx="0.584" cy="0.954" rx="0.584" ry="0.954" transform="translate(20.21 8.961)" fill="#2b1710"/>
      <ellipse id="Elipse_4109" data-name="Elipse 4109" cx="0.584" cy="0.954" rx="0.584" ry="0.954" transform="translate(24.074 9.08)" fill="#2b1710"/>
      <path id="Trazado_108952" data-name="Trazado 108952" d="M2646.331,369.049l-.007-.122a8.546,8.546,0,0,0,1.528-.186c.115-.052-.264-.946-.446-1.375a9.912,9.912,0,0,1-.375-.961,3.761,3.761,0,0,1,.118-1.809c.052-.246.109-.526.167-.842l.12.022c-.058.318-.116.6-.167.845a3.622,3.622,0,0,0-.12,1.75,9.97,9.97,0,0,0,.37.947c.413.974.585,1.442.384,1.534A8.995,8.995,0,0,1,2646.331,369.049Z" transform="translate(-2623.422 -355.377)" fill="#2b1710"/>
      <path id="Trazado_108953" data-name="Trazado 108953" d="M2626.66,370.385a.734.734,0,0,1,.3-1.424,1.63,1.63,0,0,0-.868-.87.658.658,0,0,0-.548.117l-.069-.1a.775.775,0,0,1,.647-.135c.464.118.806.659.973.982h.008l.032.1-.052.024a.055.055,0,0,1-.041,0c-.416.014-.693.2-.745.5a.641.641,0,0,0,.4.695Z" transform="translate(-2611.433 -357.79)" fill="#e0b3a8" style="mix-blend-mode: multiply;isolation: isolate"/>
      <path id="Trazado_108954" data-name="Trazado 108954" d="M2642.178,379.047a3.978,3.978,0,0,1-2.455-.63l.083-.09c.861.794,3.531.68,3.876.358l.083.089A3.22,3.22,0,0,1,2642.178,379.047Z" transform="translate(-2619.625 -363.758)" fill="#2b1710"/>
      <path id="Trazado_108955" data-name="Trazado 108955" d="M2645.077,381.655a2.825,2.825,0,0,1-.57-.057l.024-.119a2.816,2.816,0,0,0,1.444-.093l.045.113A2.777,2.777,0,0,1,2645.077,381.655Z" transform="translate(-2622.377 -365.518)" fill="#e0b3a8" style="mix-blend-mode: multiply;isolation: isolate"/>
      <path id="Trazado_108956" data-name="Trazado 108956" d="M2632.574,369.629h-.036l0-.122a.789.789,0,0,0,.673-.286.986.986,0,0,0,.2-.711c-.031.029-.079.083-.123.132a1.425,1.425,0,0,1-1.486.627l.035-.117a1.323,1.323,0,0,0,1.36-.591c.121-.138.182-.207.255-.189a.1.1,0,0,1,.073.084,1.09,1.09,0,0,1-.22.841A.906.906,0,0,1,2632.574,369.629Z" transform="translate(-2615.073 -358.031)" fill="#2b1710"/>
      <path id="Trazado_108957" data-name="Trazado 108957" d="M2634.091,371.706l-.015-.121c.734-.089.882-.347.884-.349l.108.056C2635.062,371.3,2634.9,371.608,2634.091,371.706Z" transform="translate(-2616.378 -359.68)" fill="#2b1710"/>
      <path id="Trazado_108958" data-name="Trazado 108958" d="M2606.877,408.836a9.911,9.911,0,0,0-7.9-4.864l.01-.121a10.033,10.033,0,0,1,8,4.931Z" transform="translate(-2596.19 -378.439)" fill="#c4c4c4" style="mix-blend-mode: multiply;isolation: isolate"/>
      <path id="Trazado_108959" data-name="Trazado 108959" d="M2630.824,395.486c-2.061,0-4.837-.589-6.494-2.435l.091-.081c2.206,2.458,6.434,2.651,8.208,2.208l.03.118A7.86,7.86,0,0,1,2630.824,395.486Z" transform="translate(-2610.773 -372.18)" fill="#c4c4c4" style="mix-blend-mode: multiply;isolation: isolate"/>
      <path id="Trazado_108960" data-name="Trazado 108960" d="M2625.826,439.524c-.063,0-.228-.138-1.336-1.556-.79-1.009-1.783-2.326-2.727-3.614a60.584,60.584,0,0,1-4.642-7.016l.112-.048c1.045,2.481,8.14,11.745,8.6,12.106.516-.154,8.23-2.316,8.565-2.411l.033.118c-.084.023-8.4,2.354-8.583,2.416A.058.058,0,0,1,2625.826,439.524Z" transform="translate(-2606.625 -391.92)" fill="#c4c4c4" style="mix-blend-mode: multiply;isolation: isolate"/>
      <path id="Trazado_108961" data-name="Trazado 108961" d="M2658.2,430.025l-.122-.009a54.214,54.214,0,0,0-.7-12.7l.119-.025A54.366,54.366,0,0,1,2658.2,430.025Z" transform="translate(-2629.782 -386.167)" fill="#c4c4c4" style="mix-blend-mode: multiply;isolation: isolate"/>
      <path id="Trazado_108962" data-name="Trazado 108962" d="M2636.372,458.217h-.008c-.135-.01-.2-.262-.319-.744a3.147,3.147,0,0,0-.244-.766c-.027-.041-.042-.047-.042-.047a2.035,2.035,0,0,0-.128.529,2.3,2.3,0,0,1-.171.661c-.044.073-.093.1-.145.085-.221-.072-.109-1.373-.1-1.521s-.016-.184-.016-.185a2.42,2.42,0,0,0-.755,1.351l-.117-.031c.177-.666.644-1.483.9-1.439.141.025.121.243.115.315a5.157,5.157,0,0,0,.007,1.373l.007-.011a2.356,2.356,0,0,0,.156-.619c.068-.395.109-.6.229-.627.085-.018.144.07.163.1a3.079,3.079,0,0,1,.261.805,2.2,2.2,0,0,0,.212.651.653.653,0,0,0,.055-.11,3.029,3.029,0,0,0-.065-1.613l.116-.037a3.087,3.087,0,0,1,.062,1.694C2636.509,458.117,2636.458,458.217,2636.372,458.217Z" transform="translate(-2616.524 -408.493)" fill="#c4c4c4" style="mix-blend-mode: multiply;isolation: isolate"/>
      <path id="Trazado_108963" data-name="Trazado 108963" d="M2615.481,460.731c-4.667-1.451-15-12.183-15.1-12.291l.088-.084c.1.108,10.41,10.817,15.047,12.259Z" transform="translate(-2596.999 -404.036)" fill="#c4c4c4" style="mix-blend-mode: multiply;isolation: isolate"/>
      <path id="Trazado_108964" data-name="Trazado 108964" d="M2643.291,497.48c-.089-.129-.171-.242-.245-.345-.506-.7-.6-.822.363-1.674a.188.188,0,0,0,.066-.211c-.4-1.221-16.561-3.793-22.235-4.284a15.584,15.584,0,0,1-4.207-.834,2.91,2.91,0,0,0,2.056-1.6,3.511,3.511,0,0,0-.346-3.323l-.1.062a3.393,3.393,0,0,1,.34,3.209,2.812,2.812,0,0,1-2.14,1.571,3.979,3.979,0,0,1-1.567-1.086,3.475,3.475,0,0,1-.527-2.764l-.121-.015a3.578,3.578,0,0,0,.553,2.855c.9,1.1,2.875,1.771,6.053,2.047,6.877.6,21.787,3.165,22.13,4.2.007.02.008.046-.032.082-1.006.895-.926,1.085-.38,1.837.073.1.155.214.243.342a1.487,1.487,0,0,1,.18,1.5,4.551,4.551,0,0,0-.191,1.266c0,1.383.063,28.852.063,29.129h.122c0-.277-.064-27.746-.064-29.129a4.454,4.454,0,0,1,.187-1.234A1.618,1.618,0,0,0,2643.291,497.48Z" transform="translate(-2605.151 -425.232)" fill="#c4c4c4" style="mix-blend-mode: multiply;isolation: isolate"/>
      <path id="Trazado_108965" data-name="Trazado 108965" d="M2636.143,360.5a6.892,6.892,0,0,1,3.064-.62A1.7,1.7,0,0,0,2636.143,360.5Z" transform="translate(-2617.566 -352.72)" fill="#2b1710"/>
      <path id="Trazado_108966" data-name="Trazado 108966" d="M2649.223,361.058a1.746,1.746,0,0,1,1.49.656C2650.689,360.27,2649.461,360.39,2649.223,361.058Z" transform="translate(-2625.09 -353.552)" fill="#2b1710"/>
      <path id="Trazado_108967" data-name="Trazado 108967" d="M2635.775,382.037a8.2,8.2,0,0,1-4.874-3.654l.1-.062a8.074,8.074,0,0,0,4.794,3.6Z" transform="translate(-2614.552 -363.755)" fill="#e0b3a8" style="mix-blend-mode: multiply;isolation: isolate"/>
      <path id="Trazado_108968" data-name="Trazado 108968" d="M2700.177,438.985h-21.847l9.731-25.186h21.846Z" transform="translate(-2641.831 -384.16)" fill="#8c757e"/>
      <path id="Trazado_108969" data-name="Trazado 108969" d="M2703.333,438.985h-21.847l9.731-25.186h21.847Z" transform="translate(-2643.646 -384.16)" fill="#54494d"/>
      <path id="Trazado_108970" data-name="Trazado 108970" d="M2677.881,438.647a19.433,19.433,0,0,1,4.961-2.719,5.745,5.745,0,0,0,1.336-.573s-.286.954-.286,1.1c1.288.572,6.917,1,6.726,1.288s-1.669.763-1.431.811c.477.429-.477.954-.334,1.049.429.572-1.717,2.433-3.482,2.91a23.48,23.48,0,0,1-5.342.286C2678.072,442.034,2677.881,438.647,2677.881,438.647Z" transform="translate(-2641.572 -396.559)" fill="#ff8762"/>
      <path id="Trazado_108971" data-name="Trazado 108971" d="M2693.6,442.92c-.467,0-.758-.025-.765-.026l.011-.121a12.059,12.059,0,0,0,4.11-.443l.036.116A11.772,11.772,0,0,1,2693.6,442.92Z" transform="translate(-2650.176 -400.57)" fill="#e0b3a8" style="mix-blend-mode: multiply;isolation: isolate"/>
      <path id="Trazado_108972" data-name="Trazado 108972" d="M2694.644,446.3l-.022-.12a8.006,8.006,0,0,0,3.4-1.575l.082.091A8.133,8.133,0,0,1,2694.644,446.3Z" transform="translate(-2651.201 -401.879)" fill="#e0b3a8" style="mix-blend-mode: multiply;isolation: isolate"/>
      <path id="Trazado_108973" data-name="Trazado 108973" d="M2682.365,595.57a2.906,2.906,0,0,0-1.858,1.322c-2.311,1.279-5.286-.228-6.838-1.227a18.4,18.4,0,0,0-.952,4.279l18.73,4.865C2688.262,600.124,2683.191,596.354,2682.365,595.57Z" transform="translate(-2638.603 -488.707)" fill="#2b1710"/>
      <path id="Trazado_108974" data-name="Trazado 108974" d="M2725.567,420.981c1.4-2.862,2.861-9.222-1.781-10.939l-15.964-.509c4.643,1.717,3.18,8.077,1.78,10.939s.128,5.6,2.036,5.851l15.963.509C2725.693,426.578,2724.167,423.843,2725.567,420.981Z" transform="translate(-2658.793 -381.707)" fill="#fff2f6"/>
    </g>
    <g id="Grupo_59001" data-name="Grupo 59001" transform="translate(2373.177 405.204)">
      <rect id="Rectángulo_6569" data-name="Rectángulo 6569" width="4.658" height="88.09" transform="translate(18.825 66.321)" fill="#3b3336"/>
      <g id="Grupo_59000" data-name="Grupo 59000">
        <path id="Trazado_108975" data-name="Trazado 108975" d="M2492.614,541.377c-.3-5.468-2.734-10.328-8.5-10.631s-7.617,1.215-7.921-8.2h-9.444c-.3,9.417-2.149,7.9-7.92,8.2s-8.2,5.164-8.5,10.631,9.72,17.618,7.9,24.6-7.9,9.113-7.29,25.516h41.079c.607-16.4-5.468-18.529-7.29-25.516S2492.918,546.845,2492.614,541.377Z" transform="translate(-2450.313 -522.544)" fill="#54494d"/>
        <g id="Grupo_58999" data-name="Grupo 58999" transform="translate(8.122 0.855)">
          <g id="Grupo_58990" data-name="Grupo 58990" transform="translate(5.667)">
            <g id="Grupo_58987" data-name="Grupo 58987" transform="translate(6.18)">
              <path id="Trazado_108976" data-name="Trazado 108976" d="M2497.63,526.626a.259.259,0,0,1-.259-.25l-.055-1.552a.259.259,0,1,1,.517-.018l.056,1.552a.259.259,0,0,1-.25.268Z" transform="translate(-2497.317 -524.557)" fill="#fff"/>
            </g>
            <g id="Grupo_58988" data-name="Grupo 58988" transform="translate(0 4.709)">
              <path id="Trazado_108977" data-name="Trazado 108977" d="M2485.933,593.495h-.009a.259.259,0,0,1-.25-.268c.034-.988.1-2.054.207-3.168a.259.259,0,0,1,.515.048c-.1,1.1-.171,2.161-.2,3.139A.259.259,0,0,1,2485.933,593.495Zm.564-6.3a.231.231,0,0,1-.034,0,.259.259,0,0,1-.223-.291c.129-.972.28-2,.461-3.134a.259.259,0,0,1,.511.081c-.181,1.133-.331,2.153-.459,3.12A.259.259,0,0,1,2486.5,587.2Zm.983-6.244a.273.273,0,0,1-.045,0,.259.259,0,0,1-.21-.3q.138-.789.272-1.553.139-.8.272-1.56a.259.259,0,0,1,.51.088q-.133.764-.273,1.561-.134.764-.271,1.553A.259.259,0,0,1,2487.479,580.955Zm1.057-6.233a.249.249,0,0,1-.039,0,.259.259,0,0,1-.218-.294q.033-.223.065-.44a9.046,9.046,0,0,0-.005-2.628.259.259,0,0,1,.512-.075,9.586,9.586,0,0,1,.006,2.776q-.032.219-.065.444A.259.259,0,0,1,2488.537,574.722Zm-.809-6.171a.259.259,0,0,1-.24-.162c-.353-.876-.776-1.763-1.224-2.7l-.075-.158a.259.259,0,1,1,.467-.223l.075.158c.452.947.878,1.841,1.237,2.732a.259.259,0,0,1-.143.337A.269.269,0,0,1,2487.728,568.551Zm-2.611-5.752a.259.259,0,0,1-.239-.16,29.719,29.719,0,0,1-1.069-3,.259.259,0,0,1,.5-.146,29.152,29.152,0,0,0,1.051,2.947.259.259,0,0,1-.14.338A.255.255,0,0,1,2485.117,562.8Zm-1.766-6.049a.259.259,0,0,1-.255-.217,27.9,27.9,0,0,1-.322-2.917q0-.071,0-.148c0-.042,0-.084,0-.127a.259.259,0,1,1,.517.022c0,.036,0,.071,0,.105s0,.079,0,.117a27.237,27.237,0,0,0,.316,2.863.258.258,0,0,1-.213.3A.241.241,0,0,1,2483.351,556.75Zm.526-6.176a.259.259,0,0,1-.24-.355c.34-.844.783-1.82,1.319-2.9a.259.259,0,0,1,.464.23c-.53,1.068-.968,2.032-1.3,2.863A.258.258,0,0,1,2483.877,550.575Zm2.777-5.687a.259.259,0,0,1-.227-.383c.486-.89,1.012-1.82,1.562-2.764a.259.259,0,1,1,.447.26c-.547.94-1.071,1.866-1.554,2.751A.259.259,0,0,1,2486.654,544.887Zm2.835-5.571a.259.259,0,0,1-.258-.249l-.113-3.158a.259.259,0,0,1,.518-.018l.112,3.158a.258.258,0,0,1-.249.268Z" transform="translate(-2482.77 -535.642)" fill="#fff"/>
            </g>
            <g id="Grupo_58989" data-name="Grupo 58989" transform="translate(2.92 65.178)">
              <path id="Trazado_108978" data-name="Trazado 108978" d="M2490.023,680.037a.259.259,0,0,1-.257-.231c-.054-.5-.095-1.024-.122-1.562a.259.259,0,0,1,.517-.026c.027.529.067,1.045.12,1.533a.26.26,0,0,1-.23.285Z" transform="translate(-2489.643 -677.972)" fill="#fff"/>
            </g>
          </g>
          <g id="Grupo_58994" data-name="Grupo 58994" transform="translate(0 8.201)">
            <g id="Grupo_58991" data-name="Grupo 58991" transform="translate(0 0.101)">
              <path id="Trazado_108979" data-name="Trazado 108979" d="M2471.086,545.3a.261.261,0,0,1-.1-.022c-.482-.213-.958-.444-1.414-.688a.259.259,0,0,1,.244-.456c.445.238.909.464,1.379.671a.259.259,0,0,1-.105.5Z" transform="translate(-2469.432 -544.099)" fill="#fff"/>
            </g>
            <g id="Grupo_58992" data-name="Grupo 58992" transform="translate(4.65 1.677)">
              <path id="Trazado_108980" data-name="Trazado 108980" d="M2488.242,549.522c-.263,0-.527,0-.792-.009a.259.259,0,1,1,.012-.517c.264.006.531.013.788.009.862,0,1.75-.033,2.636-.1a.259.259,0,1,1,.038.516c-.9.065-1.8.1-2.673.1Zm-4.225-.274-.035,0a26.864,26.864,0,0,1-3.415-.681.259.259,0,0,1,.135-.5,26.425,26.425,0,0,0,3.349.668.259.259,0,0,1-.034.515Zm10.314-.225a.259.259,0,0,1-.041-.514c1.142-.184,2.271-.417,3.357-.691a.259.259,0,1,1,.127.5c-1.1.278-2.245.514-3.4.7A.227.227,0,0,1,2494.331,549.023Z" transform="translate(-2480.376 -547.809)" fill="#fff"/>
            </g>
            <g id="Grupo_58993" data-name="Grupo 58993" transform="translate(25.02)">
              <path id="Trazado_108981" data-name="Trazado 108981" d="M2528.583,545.029a.259.259,0,0,1-.094-.5,9.467,9.467,0,0,0,1.368-.631.259.259,0,1,1,.267.444,10.015,10.015,0,0,1-1.447.67A.259.259,0,0,1,2528.583,545.029Z" transform="translate(-2528.323 -543.861)" fill="#fff"/>
            </g>
          </g>
          <g id="Grupo_58998" data-name="Grupo 58998" transform="translate(1.418 40.602)">
            <g id="Grupo_58995" data-name="Grupo 58995">
              <path id="Trazado_108982" data-name="Trazado 108982" d="M2474.58,620.643h-1.552a.259.259,0,0,1,0-.517h1.552a.259.259,0,1,1,0,.517Z" transform="translate(-2472.769 -620.126)" fill="#fff"/>
            </g>
            <g id="Grupo_58996" data-name="Grupo 58996" transform="translate(5.062)">
              <path id="Trazado_108983" data-name="Trazado 108983" d="M2495.474,620.643h-3.51a.259.259,0,1,1,0-.517h3.51a.259.259,0,1,1,0,.517Zm-7.02,0h-3.51a.259.259,0,0,1,0-.517h3.51a.259.259,0,1,1,0,.517Z" transform="translate(-2484.685 -620.126)" fill="#fff"/>
            </g>
            <g id="Grupo_58997" data-name="Grupo 58997" transform="translate(19.103)">
              <path id="Trazado_108984" data-name="Trazado 108984" d="M2519.544,620.643h-1.553a.259.259,0,1,1,0-.517h1.553a.259.259,0,1,1,0,.517Z" transform="translate(-2517.733 -620.126)" fill="#fff"/>
            </g>
          </g>
        </g>
        <path id="Trazado_108985" data-name="Trazado 108985" d="M2458.217,591.477c-1.823,6.987-7.9,9.113-7.29,25.516h13.8a15.627,15.627,0,0,1-2.046-16.673c4.725-10.125,4.32-14.311-.945-19.171s-10.4-8.775-11.412-14.277C2450.016,572.341,2460.04,584.491,2458.217,591.477Z" transform="translate(-2450.313 -548.04)" fill="#c4c4c4" style="mix-blend-mode: multiply;isolation: isolate"/>
      </g>
      <path id="Trazado_108986" data-name="Trazado 108986" d="M2491.56,876.939h-18.428a4.759,4.759,0,0,0-4.759,4.759h27.946A4.759,4.759,0,0,0,2491.56,876.939Z" transform="translate(-2460.7 -726.376)" fill="#3b3336"/>
    </g>
    <g id="Grupo_59002" data-name="Grupo 59002" transform="translate(2344.961 447.865)">
      <path id="Trazado_108987" data-name="Trazado 108987" d="M2494.051,625.135H2465.7a1.035,1.035,0,1,1,0-2.07h28.351a1.035,1.035,0,0,1,0,2.07Z" transform="translate(-2430.352 -623.02)" fill="#d97096"/>
      <path id="Trazado_108988" data-name="Trazado 108988" d="M2566.2,735.172a.518.518,0,0,1-.516-.481,321.156,321.156,0,0,0-6.417-41.479c-4.649-20.98-13.467-49.945-29.072-68.8a.518.518,0,0,1,.8-.66c6.956,8.4,13.162,19.465,18.447,32.88A243.733,243.733,0,0,1,2560.278,693a322.255,322.255,0,0,1,6.437,41.614.518.518,0,0,1-.48.553Z" transform="translate(-2467.971 -623.31)" fill="#d97096"/>
      <path id="Trazado_108989" data-name="Trazado 108989" d="M2384.417,735.172a.518.518,0,0,0,.516-.481,321.031,321.031,0,0,1,6.418-41.479c4.649-20.98,13.467-49.945,29.072-68.8a.518.518,0,0,0-.8-.66c-6.956,8.4-13.163,19.465-18.447,32.88A243.733,243.733,0,0,0,2390.336,693a322.169,322.169,0,0,0-6.436,41.614.518.518,0,0,0,.479.553Z" transform="translate(-2383.899 -623.31)" fill="#d97096"/>
      <path id="Trazado_108990" data-name="Trazado 108990" d="M2421.444,735.172a.457.457,0,0,0,.391-.481c.011-.184,1.041-18.717,4.863-41.479,3.523-20.98,10.2-49.945,22.029-68.8a.637.637,0,0,0-.052-.729.332.332,0,0,0-.552.068c-5.271,8.4-9.974,19.465-13.978,32.88A304.786,304.786,0,0,0,2425.929,693c-3.833,22.833-4.867,41.429-4.876,41.614a.49.49,0,0,0,.363.553Z" transform="translate(-2405.268 -623.31)" fill="#d97096"/>
      <path id="Trazado_108991" data-name="Trazado 108991" d="M2451.988,735.077c-.3-.039-.5-.384-.482-.82.007-.185.739-18.789,3.454-41.635,1.595-13.423,3.553-25.667,5.819-36.39,2.838-13.432,6.173-24.512,9.911-32.932a.506.506,0,0,1,.451-.341.463.463,0,0,1,.394.237,1.111,1.111,0,0,1,.057.974c-8.357,18.822-13.082,47.76-15.573,68.722-2.7,22.711-3.434,41.273-3.441,41.458-.015.423-.241.729-.535.729C2452.031,735.081,2452,735.079,2451.988,735.077Z" transform="translate(-2422.783 -622.96)" fill="#d97096"/>
      <path id="Trazado_108992" data-name="Trazado 108992" d="M2452.392,735.172c.144,0,.266-.208.276-.48.007-.185.737-18.717,3.442-41.479,2.494-20.979,7.224-49.945,15.594-68.8a.856.856,0,0,0-.037-.729c-.118-.182-.293-.152-.391.068-3.731,8.4-7.06,19.465-9.895,32.88-2.264,10.716-4.221,22.952-5.815,36.367-2.713,22.833-3.445,41.429-3.452,41.614-.011.285.1.532.257.553Z" transform="translate(-2423.133 -623.31)" fill="#d97096"/>
      <path id="Trazado_108993" data-name="Trazado 108993" d="M2545.663,735.172a.457.457,0,0,1-.391-.481c-.01-.184-1.041-18.717-4.863-41.479-3.523-20.98-10.2-49.945-22.029-68.8a.635.635,0,0,1,.052-.729.331.331,0,0,1,.552.068c5.271,8.4,9.974,19.465,13.979,32.88A304.793,304.793,0,0,1,2541.177,693c3.833,22.833,4.867,41.429,4.877,41.614a.49.49,0,0,1-.363.553Z" transform="translate(-2461.194 -623.31)" fill="#d97096"/>
      <path id="Trazado_108994" data-name="Trazado 108994" d="M2525.346,735.081c-.294,0-.519-.307-.535-.729-.007-.185-.739-18.729-3.44-41.458-2.492-20.961-7.216-49.9-15.573-68.722a1.11,1.11,0,0,1,.056-.974.464.464,0,0,1,.394-.237.5.5,0,0,1,.45.341c3.739,8.419,7.073,19.5,9.912,32.932,2.266,10.724,4.224,22.967,5.819,36.39,2.715,22.846,3.447,41.45,3.454,41.635.017.435-.186.78-.482.82Z" transform="translate(-2453.959 -622.96)" fill="#d97096"/>
      <path id="Trazado_108995" data-name="Trazado 108995" d="M2525.7,735.172c-.144,0-.266-.208-.276-.48-.007-.185-.736-18.717-3.442-41.479-2.494-20.979-7.223-49.945-15.594-68.8a.855.855,0,0,1,.037-.729c.118-.182.293-.152.391.068,3.731,8.4,7.06,19.465,9.895,32.88,2.264,10.716,4.221,22.952,5.815,36.367,2.713,22.833,3.445,41.429,3.452,41.614.01.285-.1.532-.258.553Z" transform="translate(-2454.31 -623.31)" fill="#d97096"/>
    </g>
    <rect id="Rectángulo_6570" data-name="Rectángulo 6570" width="66.692" height="1.215" transform="translate(2360.903 484.417)" fill="#d97096"/>
    <rect id="Rectángulo_6571" data-name="Rectángulo 6571" width="86.386" height="1.215" transform="translate(2351.056 520.902)" fill="#d97096"/>
    <g id="Grupo_59005" data-name="Grupo 59005" transform="translate(2397.366 516.018)">
      <g id="Grupo_59003" data-name="Grupo 59003" transform="translate(53.192 0.034)">
        <rect id="Rectángulo_6572" data-name="Rectángulo 6572" width="44.477" height="2.404" transform="translate(12.753 0) rotate(90)" fill="#ffbc8f"/>
        <path id="Trazado_108996" data-name="Trazado 108996" d="M2642.8,829.329V792.741l-10.349,7.488v21.612Z" transform="translate(-2632.453 -788.796)" fill="#ff8a5b"/>
      </g>
      <g id="Grupo_59004" data-name="Grupo 59004" transform="translate(0 0)">
        <rect id="Rectángulo_6573" data-name="Rectángulo 6573" width="44.477" height="2.404" transform="translate(2.404 0) rotate(90)" fill="#ffbc8f"/>
        <path id="Trazado_108997" data-name="Trazado 108997" d="M2512.908,829.249V792.661l10.349,7.488v21.612Z" transform="translate(-2510.504 -788.717)" fill="#ff8a5b"/>
      </g>
      <rect id="Rectángulo_6574" data-name="Rectángulo 6574" width="27.197" height="40.72" transform="translate(53.474 8.749) rotate(90)" fill="#ff9696"/>
      <path id="Trazado_108998" data-name="Trazado 108998" d="M2543.87,804.238a1.152,1.152,0,0,1,2.27-.278l5.179,20.714,4.581-20.8a1.152,1.152,0,0,1,2.25,0l4.436,20.276,4.756-20.293a1.152,1.152,0,0,1,2.25.031l4.046,19.7,4.008-19.865a1.152,1.152,0,1,1,2.258.455l-5.127,25.413a1.152,1.152,0,0,1-2.258,0l-4.129-20.11-4.721,20.141a1.152,1.152,0,0,1-2.247-.016l-4.4-20.117-4.506,20.456a1.152,1.152,0,0,1-2.243.031l-6.367-25.469A1.156,1.156,0,0,1,2543.87,804.238Z" transform="translate(-2528.312 -794.551)" fill="#eb7c7c"/>
    </g>
    <g id="Grupo_59007" data-name="Grupo 59007" transform="translate(2521.827 456.235)">
      <g id="Grupo_59006" data-name="Grupo 59006" transform="translate(17.954 29.541)">
        <path id="Trazado_108999" data-name="Trazado 108999" d="M2883.28,753.707h-29.349a1.971,1.971,0,0,0-1.972,1.971h33.292A1.971,1.971,0,0,0,2883.28,753.707Z" transform="translate(-2847.926 -736.071)" fill="#54494d"/>
        <path id="Trazado_109000" data-name="Trazado 109000" d="M2851.959,754.877v.8h11.664v-1.971h-10.495A1.17,1.17,0,0,0,2851.959,754.877Z" transform="translate(-2847.926 -736.071)" fill="#6e5f65"/>
        <rect id="Rectángulo_6575" data-name="Rectángulo 6575" width="1.078" height="0.499" transform="translate(8.054 17.137)" fill="#54494d"/>
        <rect id="Rectángulo_6576" data-name="Rectángulo 6576" width="1.078" height="0.499" transform="translate(28.339 17.137)" fill="#54494d"/>
        <path id="Trazado_109001" data-name="Trazado 109001" d="M2869.486,712.2h-27.019l4.03,17.066h27.019Z" transform="translate(-2842.467 -712.195)" fill="#6e5f65"/>
        <path id="Trazado_109002" data-name="Trazado 109002" d="M2870.75,712.2h-27.019l4.03,17.066h27.019Z" transform="translate(-2843.194 -712.195)" fill="#54494d"/>
        <path id="Trazado_109003" data-name="Trazado 109003" d="M2849.057,729.445l-3.786-16.032h25.956l3.786,16.032Z" transform="translate(-2844.08 -712.896)" fill="#b1dee3"/>
      </g>
      <path id="Trazado_109004" data-name="Trazado 109004" d="M2923.38,697.842c-1.927,1.893-9.812,16.085-10.969,16.3-5.993,1.682-12.931,6.834-14.719,6.728s-3.259-1.051-4.625-1.261-4.206,1.577-4.206,1.577l-1.577,2.734s2.733-1.472,4.626-1.052a27,27,0,0,0,6.623.736c1.157-.21,16.4-2.733,17.873-3.784s8.936-7.359,8.936-7.359l1.577-12.827Z" transform="translate(-2850.29 -674.399)" fill="#ff8762"/>
      <path id="Trazado_109005" data-name="Trazado 109005" d="M2988.971,845.644h-.958l-5.373-31.33h3.645Z" transform="translate(-2905.134 -741.388)" fill="#54494d"/>
      <path id="Trazado_109006" data-name="Trazado 109006" d="M2863.912,816.5h-.958l-8.994-52.917h3.644Z" transform="translate(-2831.123 -712.211)" fill="#453c3f"/>
      <path id="Trazado_109007" data-name="Trazado 109007" d="M2800.206,816.5h.958l8.995-52.917h-3.645Z" transform="translate(-2800.206 -712.211)" fill="#54494d"/>
      <path id="Trazado_109008" data-name="Trazado 109008" d="M2947.857,845.644h.958l5.374-31.33h-3.645Z" transform="translate(-2885.128 -741.388)" fill="#54494d"/>
      <path id="Trazado_109009" data-name="Trazado 109009" d="M3017.745,845.644h-.958l-5.373-31.33h3.645Z" transform="translate(-2921.683 -741.388)" fill="#54494d"/>
      <path id="Trazado_109010" data-name="Trazado 109010" d="M2913.616,867.61c-.911,2.243.35,2.576.946,4.748a11.7,11.7,0,0,1,.456,3.75h-18.784c.771-1.542,6.378-3.084,8.691-4.661s1.5-3.189,1.641-3.82S2913.616,867.61,2913.616,867.61Z" transform="translate(-2855.437 -771.887)" fill="#ff8762"/>
      <path id="Trazado_109011" data-name="Trazado 109011" d="M2914.791,877.408a12.653,12.653,0,0,1-8.253-.023,9.271,9.271,0,0,0-.517-2.948,10.539,10.539,0,0,1-1.1,1.091c-2.313,1.577-7.92,3.119-8.691,4.661h18.784A10.883,10.883,0,0,0,2914.791,877.408Z" transform="translate(-2855.437 -775.968)" fill="#2b1710"/>
      <path id="Trazado_109012" data-name="Trazado 109012" d="M2913.185,809.228c1.052,4.7,2.453,18.643,2.594,18.994,3.365,1.752,8.551-.491,8.551-.491.07-3.785-1.472-31.4-1.472-31.4l-8.06,2.453Z" transform="translate(-2865.186 -731.046)" fill="#67a4ab"/>
      <path id="Trazado_109013" data-name="Trazado 109013" d="M2879.149,867.992c-.911,2.243-.28,2.278.316,4.451a11.709,11.709,0,0,1,.455,3.75h-18.783c.771-1.542,6.378-3.084,8.691-4.661a6.956,6.956,0,0,0,3.119-3.82C2873.086,867.081,2879.149,867.992,2879.149,867.992Z" transform="translate(-2835.25 -771.972)" fill="#ff8762"/>
      <path id="Trazado_109014" data-name="Trazado 109014" d="M2920.044,770.926s-23.9.21-26.563,4.275-6.167,36.657-5.887,37.147c3.084,1.892,7.149.841,7.149.841l8.761-28.666s8.691,1.052,8.831,1.261,9.953,2.1,10.864,2.1,8.621-1.052,9.6-1.542,5.607-5.537,5.607-6.658.07-6.869-.21-7.079S2920.044,770.926,2920.044,770.926Z" transform="translate(-2850.458 -716.433)" fill="#86bec4"/>
      <path id="Trazado_109015" data-name="Trazado 109015" d="M2970.2,694.854a7.788,7.788,0,0,0-2.7.946c.14,1.4-.7,11.425-1.752,13.107s1.4,4.7,2.032,7.78-1.822,9.672-3.785,10.163c11.144,6.868,19.485,6.728,20.116,5.607s4.065-20.116,4.065-20.326-1.857-16.541-3.417-17.224a6.056,6.056,0,0,0-2.576-.613s-6.132,1.227-6.413,1.227S2970.2,694.854,2970.2,694.854Z" transform="translate(-2894.411 -672.356)" fill="#3b4b5e"/>
      <path id="Trazado_109016" data-name="Trazado 109016" d="M2988.509,695.723c-3.522,2.1-2.839,8.516-2.208,9.567s4.573,8.674,4.573,8.674c-2.733,1.156-7.307,4.941-8.778,5.1s-4.731-.21-5.625-.052a38,38,0,0,0-3.838,1.314s-2.12,3.171-2.12,3.276.351,1.753.525,1.753c.176.841.14,1.752.421,1.717a.856.856,0,0,0,.736.21c.316.35,1.016.14,1.927-.456s.911-2.173,2.593-2.313,6.063-2.348,6.238-2.558c5.447-.2,12.089-.759,17.385-4.519a1.01,1.01,0,0,0,.316-1.268c-1.341-2.737-5.023-8.429-7.048-13.207C2991.365,697.668,2990.419,695.53,2988.509,695.723Z" transform="translate(-2898.159 -673.173)" fill="#ff8762"/>
      <path id="Trazado_109017" data-name="Trazado 109017" d="M2977.156,643.4c-5.327-.385-6.343,4.24-5.187,6.168s-.07,2.979-.385,3.96.631,2.243,1.261,3.259-.175,2.208-.1,2.908,1.577.981,1.787,1.857a2.861,2.861,0,0,0,3.714,2.138c2.453-.7,6.413.876,7.569-.946s-.14-2.979,1.718-3.68-.666-2.979.49-3.96-.1-1.227.561-3.434-1.962-3.785-3.119-4.8-.876-1.857-2.032-3.084S2978.908,642.2,2977.156,643.4Z" transform="translate(-2898.739 -642.661)" fill="#2b1710"/>
      <path id="Trazado_109018" data-name="Trazado 109018" d="M2979.407,649.505c.141,4.451,5.607,5.257,6.308,4.906a5.946,5.946,0,0,0,.07,1.823c1.016-1.227,1.928-.771,2.032.42s-.911,2.909-2.488,2.348c-1.192,3.5-1.367,8.516.63,9.112a8.633,8.633,0,0,0,3.294.421s-3.084,7.569-8.621,8.2c-3.189-1.927-3.364-7.64-3.364-7.64,2.383.035,3.153-.841,3.153-1.577a17.251,17.251,0,0,0-.42-2.523,11.041,11.041,0,0,1-1.927-.876,8.993,8.993,0,0,1-1.787-4.521c0-1.4.245-5.467.245-6.763A4.058,4.058,0,0,1,2979.407,649.505Z" transform="translate(-2901.481 -646.597)" fill="#ff8762"/>
      <path id="Trazado_109019" data-name="Trazado 109019" d="M2981.907,676.445c.526-1.038,1.893-.631,3.246.013C2984.115,677.943,2982.3,678.206,2981.907,676.445Z" transform="translate(-2904.712 -661.728)" fill="#ff5757"/>
      <path id="Trazado_109020" data-name="Trazado 109020" d="M2990.308,666.008c0,.435-.211.789-.473.789s-.473-.353-.473-.789.212-.789.473-.789S2990.308,665.572,2990.308,666.008Z" transform="translate(-2909 -655.635)" fill="#2b1710"/>
      <path id="Trazado_109021" data-name="Trazado 109021" d="M2980.7,665.719c0,.435-.212.789-.473.789s-.473-.353-.473-.789.212-.788.473-.788S2980.7,665.283,2980.7,665.719Z" transform="translate(-2903.472 -655.469)" fill="#2b1710"/>
      <path id="Trazado_109022" data-name="Trazado 109022" d="M2983.346,668.327a2.422,2.422,0,0,1-1.118-.243.33.33,0,0,1-.166-.216l-.007-.039.031-.024c1.256-.985.812-2.668.435-3.584l.125-.051c.387.942.84,2.668-.44,3.711a.288.288,0,0,0,.1.09,2.4,2.4,0,0,0,1.369.189l.035.13A1.439,1.439,0,0,1,2983.346,668.327Z" transform="translate(-2904.798 -655.032)" fill="#2b1710"/>
      <path id="Trazado_109023" data-name="Trazado 109023" d="M2982.958,677.358a6.627,6.627,0,0,1-2.016-.315l.04-.128a6.168,6.168,0,0,0,4.138-.084l.06.12A5.8,5.8,0,0,1,2982.958,677.358Z" transform="translate(-2904.157 -662.315)" fill="#2b1710"/>
      <path id="Trazado_109024" data-name="Trazado 109024" d="M2986.8,682.775l-.024-.132a4,4,0,0,0,3.173-2.217l.126.045A4.129,4.129,0,0,1,2986.8,682.775Z" transform="translate(-2907.513 -664.382)" fill="#e0b3a8" style="mix-blend-mode: multiply;isolation: isolate"/>
      <path id="Trazado_109025" data-name="Trazado 109025" d="M2998.712,666.815c-.041,0-.083,0-.126-.006l.013-.134c.419.04.695-.145.737-.494a.667.667,0,0,0-.436-.728l0,.006-.063-.017c-.064-.02-.048-.08-.034-.133.032-.122.342-1.183,1.208-.979l-.031.131a.675.675,0,0,0-.551.091,1.472,1.472,0,0,0-.493.773.8.8,0,0,1,.534.874A.692.692,0,0,1,2998.712,666.815Z" transform="translate(-2914.304 -655.109)" fill="#e0b3a8" style="mix-blend-mode: multiply;isolation: isolate"/>
      <path id="Trazado_109026" data-name="Trazado 109026" d="M2972.882,762.612l-.132-.025c.014-.074.353-1.832.493-2.251a22.178,22.178,0,0,1,1.975-2.546l.1.088a20.1,20.1,0,0,0-1.949,2.5C2973.234,760.789,2972.886,762.594,2972.882,762.612Z" transform="translate(-2899.446 -708.878)" fill="#e0b3a8" style="mix-blend-mode: multiply;isolation: isolate"/>
      <rect id="Rectángulo_6577" data-name="Rectángulo 6577" width="4.017" height="0.134" transform="matrix(0.584, -0.811, 0.811, 0.584, 74.263, 53.858)" fill="#e0b3a8" style="mix-blend-mode: multiply;isolation: isolate"/>
      <path id="Trazado_109027" data-name="Trazado 109027" d="M2972.388,759.92l-.134-.008.079-1.185,1.3-2.313.117.066-1.289,2.3Z" transform="translate(-2899.16 -708.086)" fill="#e0b3a8" style="mix-blend-mode: multiply;isolation: isolate"/>
      <path id="Trazado_109028" data-name="Trazado 109028" d="M3023.456,738.435a8.006,8.006,0,0,0-4.445-.172l-.03-.131a8.15,8.15,0,0,1,4.526.178Z" transform="translate(-2926.035 -697.442)" fill="#e0b3a8" style="mix-blend-mode: multiply;isolation: isolate"/>
      <path id="Trazado_109029" data-name="Trazado 109029" d="M2916.732,800.217l-.014-.133c.015,0,1.482-.159,2.263-.21a.619.619,0,0,0,.1-.013,8.259,8.259,0,0,0-1.315-.571c-.323-.123-.628-.239-.855-.339s-.3-.145-.277-.224.128-.087.755-.009a10.517,10.517,0,0,0,1.178.1c.23,0,.258-.044.258-.045.022-.094-.339-.4-2.181-1.353l.062-.119c1.944,1,2.3,1.31,2.25,1.5-.031.13-.224.147-.388.147a10.691,10.691,0,0,1-1.194-.1c-.167-.021-.347-.043-.474-.053l.065.029c.225.1.528.214.85.336,1.121.427,1.443.574,1.42.725-.014.091-.13.111-.242.119C2918.211,800.059,2916.747,800.216,2916.732,800.217Z" transform="translate(-2867.167 -731.605)" fill="#c4c4c4" style="mix-blend-mode: multiply;isolation: isolate"/>
      <path id="Trazado_109030" data-name="Trazado 109030" d="M2987.692,662.015a6.757,6.757,0,0,1,3.233.263C2989.505,660.674,2987.692,660.937,2987.692,662.015Z" transform="translate(-2908.039 -653.29)" fill="#2b1710"/>
      <path id="Trazado_109031" data-name="Trazado 109031" d="M2977.3,662.5a3.229,3.229,0,0,1,2.287-.131C2978.875,661.453,2977.482,661.505,2977.3,662.5Z" transform="translate(-2902.061 -653.621)" fill="#2b1710"/>
      <path id="Trazado_109032" data-name="Trazado 109032" d="M2969.277,782.155c2.755.428,9.283.044,12.937.044.816,0,1.63-.012,2.428-.037,5.45-.168,9.133-.859,10.946-2.054,1.325-.873,3.012-2.945,5.482-11.691,1.287-4.558,2.175-8.789,2.213-8.967a2.419,2.419,0,0,0-1.873-2.862l-12.579-.016-1.332,8.341-2.944,7.289-4.346,5.887a15.447,15.447,0,0,1-3.434,1.893C2975.374,780.4,2969.277,782.155,2969.277,782.155Z" transform="translate(-2897.448 -708.178)" fill="#fa924d"/>
      <path id="Trazado_109033" data-name="Trazado 109033" d="M2954.475,782.152a70.282,70.282,0,0,1-10.126-.669,2.418,2.418,0,0,1,.743-4.779,70.2,70.2,0,0,0,11.662.577c5.312-.164,7.76-.845,8.4-1.238.158-.154,1.458-1.606,3.6-9.271,1.2-4.286,2.045-8.319,2.053-8.36a2.418,2.418,0,0,1,4.734.99c-.038.178-.926,4.41-2.213,8.967-2.469,8.746-4.157,10.818-5.481,11.691-1.814,1.2-5.5,1.886-10.946,2.054C2956.1,782.139,2955.291,782.152,2954.475,782.152Z" transform="translate(-2881.933 -708.13)" fill="#ffad54"/>
      <path id="Trazado_109034" data-name="Trazado 109034" d="M2879.692,877.671a12.653,12.653,0,0,1-8.253-.023,7.777,7.777,0,0,0-.464-2.753,10.88,10.88,0,0,1-1.148.9c-2.313,1.577-7.92,3.119-8.691,4.661h18.783A10.87,10.87,0,0,0,2879.692,877.671Z" transform="translate(-2835.25 -776.232)" fill="#2b1710"/>
      <rect id="Rectángulo_6578" data-name="Rectángulo 6578" width="67.39" height="2.733" transform="translate(3.353 49.201)" fill="#54494d"/>
      <rect id="Rectángulo_6579" data-name="Rectángulo 6579" width="17.767" height="2.733" transform="translate(3.353 49.201)" fill="#6e5f65"/>
    </g>
    <g id="Grupo_59012" data-name="Grupo 59012" transform="translate(2357.131 442.937)">
      <g id="Grupo_59011" data-name="Grupo 59011" transform="translate(0)">
        <g id="Grupo_59008" data-name="Grupo 59008">
          <path id="Trazado_109035" data-name="Trazado 109035" d="M2412.545,615.981a4.621,4.621,0,1,1,4.621,4.621A4.626,4.626,0,0,1,2412.545,615.981Zm.487,0a4.134,4.134,0,1,0,4.134-4.134A4.139,4.139,0,0,0,2413.032,615.981Z" transform="translate(-2412.545 -611.361)" fill="#b5ac84"/>
        </g>
        <g id="Grupo_59009" data-name="Grupo 59009" transform="translate(5.893 3.982)">
          <path id="Trazado_109036" data-name="Trazado 109036" d="M2426.416,621.373a.638.638,0,1,1,.638.638A.639.639,0,0,1,2426.416,621.373Zm.324,0a.314.314,0,1,0,.314-.313A.315.315,0,0,0,2426.74,621.373Z" transform="translate(-2426.416 -620.735)" fill="#b5ac84"/>
        </g>
        <g id="Grupo_59010" data-name="Grupo 59010" transform="translate(2.164 3.982)">
          <path id="Trazado_109037" data-name="Trazado 109037" d="M2417.639,621.373a.638.638,0,1,1,.638.638A.639.639,0,0,1,2417.639,621.373Zm.325,0a.313.313,0,1,0,.313-.313A.314.314,0,0,0,2417.963,621.373Z" transform="translate(-2417.639 -620.735)" fill="#b5ac84"/>
        </g>
      </g>
    </g>
    <g id="Grupo_59017" data-name="Grupo 59017" transform="translate(2502.058 517.328)">
      <g id="Grupo_59016" data-name="Grupo 59016">
        <g id="Grupo_59013" data-name="Grupo 59013">
          <path id="Trazado_109038" data-name="Trazado 109038" d="M2753.674,791.082a4.62,4.62,0,1,1,4.621,4.62A4.626,4.626,0,0,1,2753.674,791.082Zm.486,0a4.134,4.134,0,1,0,4.135-4.134A4.139,4.139,0,0,0,2754.16,791.082Z" transform="translate(-2753.674 -786.461)" fill="#b5ac84"/>
        </g>
        <g id="Grupo_59014" data-name="Grupo 59014" transform="translate(5.893 3.983)">
          <path id="Trazado_109039" data-name="Trazado 109039" d="M2767.545,796.473a.638.638,0,1,1,.638.638A.639.639,0,0,1,2767.545,796.473Zm.324,0a.313.313,0,1,0,.313-.313A.314.314,0,0,0,2767.869,796.473Z" transform="translate(-2767.545 -795.835)" fill="#b5ac84"/>
        </g>
        <g id="Grupo_59015" data-name="Grupo 59015" transform="translate(2.164 3.983)">
          <path id="Trazado_109040" data-name="Trazado 109040" d="M2758.768,796.473a.638.638,0,1,1,.638.638A.638.638,0,0,1,2758.768,796.473Zm.324,0a.313.313,0,1,0,.314-.313A.314.314,0,0,0,2759.092,796.473Z" transform="translate(-2758.768 -795.835)" fill="#b5ac84"/>
        </g>
      </g>
    </g>
    <g id="Grupo_59026" data-name="Grupo 59026" transform="translate(2343.999 409.193)">
      <g id="Grupo_59025" data-name="Grupo 59025">
        <g id="Grupo_59018" data-name="Grupo 59018" transform="translate(0 2.164)">
          <path id="Trazado_109041" data-name="Trazado 109041" d="M2381.634,537.028h9.681v15.065h-9.681Zm8.943.737h-8.206v13.591h8.206Z" transform="translate(-2381.634 -537.028)" fill="#b5ac84"/>
        </g>
        <g id="Grupo_59019" data-name="Grupo 59019" transform="translate(2.692)">
          <path id="Trazado_109042" data-name="Trazado 109042" d="M2387.971,531.934h4.3v2.853h-4.3Zm3.558.738h-2.821v1.378h2.821Z" transform="translate(-2387.971 -531.934)" fill="#b5ac84"/>
        </g>
        <g id="Grupo_59020" data-name="Grupo 59020" transform="translate(2.692 16.514)">
          <path id="Trazado_109043" data-name="Trazado 109043" d="M2387.971,570.8h4.3v2.853h-4.3Zm3.558.737h-2.821v1.378h2.821Z" transform="translate(-2387.971 -570.804)" fill="#b5ac84"/>
        </g>
        <g id="Grupo_59021" data-name="Grupo 59021" transform="translate(1.106 3.35)">
          <path id="Trazado_109044" data-name="Trazado 109044" d="M2384.6,545a.382.382,0,0,0,.1-.013c1.336-.361,5.5-2.12,7.1-4.6a.369.369,0,1,0-.619-.4c-1.468,2.268-5.465,3.958-6.678,4.285a.369.369,0,0,0,.1.725Z" transform="translate(-2384.236 -539.819)" fill="#b5ac84"/>
        </g>
        <g id="Grupo_59022" data-name="Grupo 59022" transform="translate(1.106 5.706)">
          <path id="Trazado_109045" data-name="Trazado 109045" d="M2384.6,550.542a.362.362,0,0,0,.1-.013c1.336-.36,5.5-2.119,7.1-4.6a.369.369,0,0,0-.619-.4c-1.468,2.268-5.465,3.958-6.678,4.285a.369.369,0,0,0,.1.725Z" transform="translate(-2384.236 -545.364)" fill="#b5ac84"/>
        </g>
        <g id="Grupo_59023" data-name="Grupo 59023" transform="translate(1.106 8.061)">
          <path id="Trazado_109046" data-name="Trazado 109046" d="M2384.6,556.086a.377.377,0,0,0,.1-.013c1.336-.361,5.5-2.12,7.1-4.6a.369.369,0,1,0-.619-.4c-1.467,2.268-5.465,3.958-6.678,4.285a.369.369,0,0,0,.1.725Z" transform="translate(-2384.236 -550.908)" fill="#b5ac84"/>
        </g>
        <g id="Grupo_59024" data-name="Grupo 59024" transform="translate(1.106 10.417)">
          <path id="Trazado_109047" data-name="Trazado 109047" d="M2384.6,561.631a.362.362,0,0,0,.1-.013c1.336-.36,5.5-2.119,7.1-4.6a.368.368,0,1,0-.619-.4c-1.467,2.268-5.465,3.958-6.678,4.285a.369.369,0,0,0,.1.725Z" transform="translate(-2384.236 -556.453)" fill="#b5ac84"/>
        </g>
      </g>
    </g>
    <path id="Trazado_109048" data-name="Trazado 109048" d="M2793.626,401.36a2.187,2.187,0,0,0,1.18,1.513c.742.421,2.391.941,5.1-.3,2.028-.927,3.844-1.038,4.984-.306a2.222,2.222,0,0,1,.756.809,1.205,1.205,0,0,0-.6,1.042c0,.668.542,16.054,1.21,16.054s1.21-15.386,1.21-16.054a1.21,1.21,0,0,0-1.21-1.21c-.019,0-.037.005-.056.006a2.768,2.768,0,0,0-1-1.119c-1.3-.838-3.317-.741-5.522.267-2.484,1.135-3.942.688-4.591.32a1.661,1.661,0,0,1-.9-1.086.281.281,0,0,0-.559.062Zm12.272,2.44a2.8,2.8,0,0,1,.048.5.281.281,0,0,0,.562,0,3.386,3.386,0,0,0-.052-.571.658.658,0,1,1-.558.071Z" transform="translate(-274.593 -47.461)" fill="#b5ac84"/>
    <g id="Grupo_59031" data-name="Grupo 59031" transform="translate(2509.208 478.043)">
      <g id="Grupo_59030" data-name="Grupo 59030" transform="translate(0 0)">
        <g id="Grupo_59027" data-name="Grupo 59027" transform="translate(0.003)">
          <path id="Trazado_109049" data-name="Trazado 109049" d="M2781.223,696.887c6.051-2.7,12.957-4.053,14.04-1.629s-4.528,6.67-10.578,9.374-12.957,4.053-14.04,1.629S2775.173,699.591,2781.223,696.887Zm.229.513c-7.056,3.154-11.019,7.009-10.294,8.631s6.241,1.241,13.3-1.913,11.02-7.009,10.294-8.631S2788.509,694.247,2781.453,697.4Z" transform="translate(-2770.51 -693.994)" fill="#b5ac84"/>
        </g>
        <g id="Grupo_59028" data-name="Grupo 59028" transform="translate(0 7.721)">
          <path id="Trazado_109050" data-name="Trazado 109050" d="M2773.434,712.747c2.134-.954,4.25-.706,4.818.565s-.659,3.013-2.793,3.966-4.25.706-4.818-.564S2771.3,713.7,2773.434,712.747Zm.229.514c-1.785.8-2.934,2.274-2.509,3.223s2.291,1.078,4.075.281,2.934-2.274,2.509-3.224S2775.447,712.462,2773.663,713.26Z" transform="translate(-2770.502 -712.167)" fill="#b5ac84"/>
        </g>
        <g id="Grupo_59029" data-name="Grupo 59029" transform="translate(16.622 0.278)">
          <path id="Trazado_109051" data-name="Trazado 109051" d="M2813.219,697.664a1.685,1.685,0,0,0-2.186-.868,7.959,7.959,0,0,0-1.407-1.366c4.1-1.108,7.257-1.071,7.878.319s-1.437,3.744-4.971,6.053a7.658,7.658,0,0,0-.1-1.943A1.685,1.685,0,0,0,2813.219,697.664Z" transform="translate(-2809.626 -694.648)" fill="#b5ac84"/>
        </g>
      </g>
    </g>
    <g id="Grupo_59033" data-name="Grupo 59033" transform="translate(2727.099 482.698)">
      <g id="Grupo_59032" data-name="Grupo 59032" transform="translate(0)">
        <path id="Trazado_109052" data-name="Trazado 109052" d="M3287.908,713.574l-4.534-3.294h5.6l1.732-5.33,1.732,5.33h5.6l-4.535,3.294,1.732,5.331-4.534-3.294-4.535,3.294Zm6.25,3.835-1.317-4.053,3.448-2.5h-4.261l-1.316-4.053-1.317,4.053h-4.261l3.447,2.5-1.316,4.053,3.448-2.5Z" transform="translate(-3283.374 -704.95)" fill="#b5ac84"/>
      </g>
    </g>
    <g id="Grupo_59035" data-name="Grupo 59035" transform="translate(2570.214 339.259)">
      <g id="Grupo_59034" data-name="Grupo 59034">
        <path id="Trazado_109053" data-name="Trazado 109053" d="M2918.632,375.948l-4.534-3.294h5.6l1.732-5.331,1.732,5.331h5.6l-4.534,3.294,1.732,5.331-4.534-3.294-4.534,3.294Zm6.25,3.834-1.317-4.052,3.448-2.5h-4.261l-1.317-4.053-1.317,4.053h-4.262l3.448,2.5-1.316,4.052,3.447-2.5Z" transform="translate(-2914.098 -367.323)" fill="#b5ac84"/>
      </g>
    </g>
    <g id="Grupo_59037" data-name="Grupo 59037" transform="translate(2420.354 318.529)">
      <g id="Grupo_59036" data-name="Grupo 59036" transform="translate(0)">
        <path id="Trazado_109054" data-name="Trazado 109054" d="M2565.895,327.153l-4.534-3.294h5.6l1.732-5.33,1.732,5.33h5.6l-4.534,3.294,1.732,5.331-4.534-3.294-4.534,3.294Zm6.25,3.835-1.317-4.053,3.448-2.5h-4.261l-1.317-4.053-1.317,4.053h-4.261l3.447,2.5-1.317,4.053,3.447-2.5Z" transform="translate(-2561.36 -318.529)" fill="#b5ac84"/>
      </g>
    </g>
  </g>
</svg>
