<svg xmlns="http://www.w3.org/2000/svg" width="129" height="129" viewBox="0 0 129 129">
  <g id="Grupo_58535" data-name="Grupo 58535" transform="translate(-384 -4015)">
    <g id="vestir" transform="translate(395.003 4014.867)">
      <g id="Grupo_58528" data-name="Grupo 58528" transform="translate(1.561 15.711)">
        <path id="Trazado_102317" data-name="Trazado 102317" d="M232.956,58.93s15.411,15.946,15.411,40.388c0,0-13.413,4.9-33.834,4.9a123.851,123.851,0,0,1-20.446-1.676A82.966,82.966,0,0,1,180.7,99.318c0-24.442,15.411-40.388,15.411-40.388V48.961l-8.31-6.824-7.1-5.831L194.261,24.15a9.641,9.641,0,0,1,12.932.048l1.446,1.317a8.754,8.754,0,0,0,11.789,0l1.446-1.317a9.639,9.639,0,0,1,12.93-.048l13.561,12.157L232.956,48.961Z" transform="translate(-144.499 -21.685)" fill="#80b4fb"/>
        <g id="Grupo_58526" data-name="Grupo 58526" transform="translate(36.201 0.022)">
          <path id="Trazado_102318" data-name="Trazado 102318" d="M200.866,108.134v18.188s-6.291,19.11-6.291,28.456c0,3.72-.222,9.081-.487,14.184a82.967,82.967,0,0,1-13.388-3.221c0-24.442,15.411-40.388,15.411-40.388v-19.7h2.28a2.474,2.474,0,0,1,2.475,2.475Z" transform="translate(-180.7 -88.131)" fill="#61a2f9"/>
          <path id="Trazado_102319" data-name="Trazado 102319" d="M200.058,21.788c-4.723,4.4-10.2,13.656-12.255,20.431l-7.1-5.831,13.561-12.157a9.626,9.626,0,0,1,5.8-2.443Z" transform="translate(-180.701 -21.788)" fill="#61a2f9"/>
          <path id="Trazado_102320" data-name="Trazado 102320" d="M310.348,22.958c-.5,2.351-4.416,19.637-11.58,22.147-7.164-2.51-11.079-19.8-11.578-22.147a9.618,9.618,0,0,1,4.238,2.247l1.446,1.317a8.754,8.754,0,0,0,11.789,0L306.11,25.2a9.618,9.618,0,0,1,4.238-2.247Z" transform="translate(-264.934 -22.713)" fill="#61a2f9"/>
        </g>
        <g id="Grupo_58527" data-name="Grupo 58527" transform="translate(0 60.213)">
          <path id="Trazado_102321" data-name="Trazado 102321" d="M64.866,310.451a479.135,479.135,0,0,0-50.013,0,7.017,7.017,0,0,0-6.6,6.111,95.129,95.129,0,0,0,0,24.209,7.017,7.017,0,0,0,6.6,6.111,479.118,479.118,0,0,0,50.013,0,7.017,7.017,0,0,0,6.6-6.111,95.128,95.128,0,0,0,0-24.209A7.017,7.017,0,0,0,64.866,310.451Z" transform="translate(-7.48 -309.798)" fill="#db5b6f"/>
          <path id="Trazado_102322" data-name="Trazado 102322" d="M17.9,348.942q-1.52-.069-3.041-.148a7.018,7.018,0,0,1-6.6-6.113,95.178,95.178,0,0,1,0-24.207,7.016,7.016,0,0,1,6.6-6.111q1.52-.078,3.041-.148a7.345,7.345,0,0,0-4.034,5.655,99.852,99.852,0,0,0,0,25.415A7.352,7.352,0,0,0,17.9,348.942Z" transform="translate(-7.482 -311.709)" fill="#d54653"/>
          <path id="Trazado_102323" data-name="Trazado 102323" d="M71.475,373.183a7.014,7.014,0,0,1-6.6,6.11,478.118,478.118,0,0,1-50.013,0,7.014,7.014,0,0,1-6.6-6.11q-.339-2.657-.531-5.314a94.859,94.859,0,0,0-.019,13.181,7.4,7.4,0,0,0,5.8,3.317,504.026,504.026,0,0,0,52.717,0,7.4,7.4,0,0,0,5.8-3.32,94.864,94.864,0,0,0-.02-13.189q-.191,2.662-.532,5.324Z" transform="translate(-7.49 -355.725)" fill="#d54653"/>
          <path id="Trazado_102324" data-name="Trazado 102324" d="M129.23,382.959a138.23,138.23,0,0,1-15.115,0,4.409,4.409,0,0,1-4.14-4.067,56.324,56.324,0,0,1,0-9.064,4.409,4.409,0,0,1,4.14-4.067,138.215,138.215,0,0,1,15.115,0,4.409,4.409,0,0,1,4.14,4.067,56.322,56.322,0,0,1,0,9.064A4.409,4.409,0,0,1,129.23,382.959Z" transform="translate(-88.41 -353.902)" fill="#ffd064"/>
          <path id="Trazado_102325" data-name="Trazado 102325" d="M142.754,398.675c-2.062,0-4.148-.049-6.217-.146a50.92,50.92,0,0,1,0-6.181c2.069-.1,4.155-.146,6.217-.146s4.148.049,6.216.146a50.914,50.914,0,0,1,0,6.181C146.9,398.626,144.815,398.675,142.754,398.675Z" transform="translate(-109.491 -374.98)" fill="#db5b6f"/>
        </g>
      </g>
      <g id="Grupo_58529" data-name="Grupo 58529" transform="translate(-0.003 14.133)">
        <path id="Trazado_102326" data-name="Trazado 102326" d="M99.1,63.232a59.78,59.78,0,0,0-7.513-10.887V43.728l14.838-12.184a1.568,1.568,0,0,0,.051-2.379L95.249,19.1a1.567,1.567,0,1,0-2.092,2.334l9.867,8.844L91.587,39.671v-6.41a1.567,1.567,0,1,0-3.135,0v18.37a105.236,105.236,0,0,1-33.71,0V33.261a1.567,1.567,0,1,0-3.135,0v6.411L40.169,30.281l12.2-10.938a8.054,8.054,0,0,1,6.344-2.014,77.384,77.384,0,0,0,3.134,10.236c2.662,6.776,5.767,10.826,9.229,12.039a1.566,1.566,0,0,0,1.036,0c3.462-1.213,6.567-5.263,9.23-12.039a77.393,77.393,0,0,0,3.132-10.222,8.06,8.06,0,0,1,4.133.587,1.567,1.567,0,0,0,1.234-2.882,11.238,11.238,0,0,0-11.961,2.017l-1.446,1.317a7.156,7.156,0,0,1-9.679,0l-1.446-1.317a11.181,11.181,0,0,0-15.034-.056L36.716,29.166a1.568,1.568,0,0,0,.051,2.379L51.605,43.728v8.615A57.457,57.457,0,0,0,45.122,61.4c-2.384-1.27-4.9-2.524-7.458-3.794-2.232-1.11-4.479-2.227-6.637-3.362a21.37,21.37,0,0,0,4.448-9.134c1.089-5.355-.5-10.138-4.371-13.124a12.23,12.23,0,0,0-12.564-1.57c-2.063,1.014-5.524,3.644-5.524,9.873,0,3.943,2.5,7.67,7.655,11.4a59.827,59.827,0,0,0,5.351,3.395A80.775,80.775,0,0,1,18.3,61.5c-5.58,4.256-10.874,8.3-11.011,13.742A8.574,8.574,0,0,0,.779,82.491a97.183,97.183,0,0,0,0,24.6,8.582,8.582,0,0,0,8.073,7.479c8.324.434,16.706.651,25.088.651s16.765-.217,25.089-.651A8.577,8.577,0,0,0,67.1,107.1q.468-3.661.655-7.347c1.275.038,2.561.059,3.841.059,20.462,0,33.813-4.788,34.371-4.992A1.568,1.568,0,0,0,107,93.344a63.286,63.286,0,0,0-7.9-30.113ZM64.647,20.7a10.277,10.277,0,0,0,13.9,0l1.446-1.316a8.035,8.035,0,0,1,.929-.728,70.932,70.932,0,0,1-2.5,7.763c-2.613,6.649-5.08,9.14-6.83,10.008-1.751-.868-4.217-3.359-6.83-10.008a70.975,70.975,0,0,1-2.5-7.766,8.212,8.212,0,0,1,.93.731Zm-48.5,19.589c0-3.406,1.3-5.847,3.772-7.06a7.772,7.772,0,0,1,3.425-.753,9.7,9.7,0,0,1,5.841,1.991c1.7,1.309,4.368,4.351,3.215,10.017a18.708,18.708,0,0,1-4.195,8.232c-6.774-3.8-12.059-7.827-12.059-12.427ZM9.015,78.143c2.794-.145,5.589-.266,8.308-.36a1.567,1.567,0,0,0-.109-3.133c-2.217.077-4.485.172-6.761.283.4-3.815,4.77-7.148,9.744-10.942a77.714,77.714,0,0,0,8.691-7.335c2.4,1.28,4.91,2.527,7.38,3.756s4.965,2.469,7.329,3.73a66.182,66.182,0,0,0-4.344,10.252c-5.273-.059-10.537-.036-15.762.079a1.567,1.567,0,1,0,.069,3.134c11.685-.256,23.564-.075,35.307.538a5.441,5.441,0,0,1,5.124,4.745q.33,2.58.514,5.174c-.127,1.735-.3,3.457-.514,5.123a5.441,5.441,0,0,1-5.127,4.742c-3.549.185-7.114.33-10.63.435a58.138,58.138,0,0,0-.151-6.637,6,6,0,0,0-5.617-5.506,140.367,140.367,0,0,0-15.286,0,6,6,0,0,0-5.617,5.506,58.165,58.165,0,0,0-.149,6.688c-4.128-.11-8.289-.271-12.4-.486a5.44,5.44,0,0,1-5.126-4.742c-.21-1.646-.383-3.363-.514-5.1q.186-2.6.514-5.193a5.444,5.444,0,0,1,5.126-4.745Zm37.34-12.481c5.078,2.906,9.181,5.946,10.56,9.25q-7.168-.342-14.37-.472A62.9,62.9,0,0,1,46.356,65.662Zm-1.4,35.126a2.855,2.855,0,0,1-2.663,2.628h0a137.3,137.3,0,0,1-14.944,0,2.855,2.855,0,0,1-2.663-2.628,55.029,55.029,0,0,1,0-8.812,2.855,2.855,0,0,1,2.664-2.628c2.479-.136,4.975-.2,7.472-.2s4.993.068,7.472.2a2.855,2.855,0,0,1,2.663,2.628,55.029,55.029,0,0,1,0,8.812Zm13.907,10.656a480.628,480.628,0,0,1-49.85,0A5.449,5.449,0,0,1,3.889,106.7q-.519-4.061-.679-8.152a8.579,8.579,0,0,0,5.642,2.511c4.234.222,8.524.387,12.776.5a6,6,0,0,0,5.552,4.992c2.536.139,5.09.208,7.643.208s5.107-.069,7.643-.208a6,6,0,0,0,5.56-5.042c3.635-.107,7.327-.255,11-.447a8.581,8.581,0,0,0,5.644-2.513q-.163,4.087-.68,8.154a5.445,5.445,0,0,1-5.125,4.746ZM98.718,93.618a120.645,120.645,0,0,0-1.777-13.983,1.567,1.567,0,1,0-3.081.578A117.6,117.6,0,0,1,95.619,94.3c-1.207.247-2.575.5-4.09.754a121.383,121.383,0,0,0-2.007-18.684,1.567,1.567,0,1,0-3.081.578A118.314,118.314,0,0,1,88.408,95.53,124.114,124.114,0,0,1,71.6,96.673c-1.243,0-2.492-.02-3.731-.057A96.994,96.994,0,0,0,67.1,82.492a8.569,8.569,0,0,0-6.807-7.317c-1.151-4.79-6.068-8.637-12.407-12.254a56.944,56.944,0,0,1,5.872-8.274A108.6,108.6,0,0,0,71.6,56.125a108.59,108.59,0,0,0,17.836-1.479A58.159,58.159,0,0,1,96.4,64.831a60.331,60.331,0,0,1,7.45,27.386c-1.019.322-2.767.836-5.132,1.4Z" transform="translate(0.003 -14.133)"/>
        <path id="Trazado_102327" data-name="Trazado 102327" d="M143.112,384.849c-2.094-.1-4.21-.148-6.29-.148s-4.2.05-6.29.148a1.568,1.568,0,0,0-1.491,1.471,52.686,52.686,0,0,0,0,6.372,1.568,1.568,0,0,0,1.491,1.47c2.092.1,4.208.148,6.29.148s4.2-.05,6.29-.148a1.568,1.568,0,0,0,1.491-1.47,52.686,52.686,0,0,0,0-6.372A1.568,1.568,0,0,0,143.112,384.849Zm-1.572,6.24c-3.151.113-6.285.113-9.435,0-.034-1.054-.034-2.113,0-3.167,3.152-.113,6.283-.113,9.435,0C141.573,388.976,141.573,390.035,141.539,391.09Z" transform="translate(-101.995 -307.256)"/>
      </g>
    </g>
    <g id="Grupo_58534" data-name="Grupo 58534" transform="translate(-8 143)">
      <rect id="Rectángulo_5543" data-name="Rectángulo 5543" width="129" height="129" transform="translate(392 3872)" fill="none"/>
    </g>
  </g>
</svg>
