<svg xmlns="http://www.w3.org/2000/svg" width="129" height="129" viewBox="0 0 129 129">
  <g id="Grupo_58533" data-name="Grupo 58533" transform="translate(-1137 -4055)">
    <g id="descuento" transform="translate(1150.001 4067.499)">
      <path id="Trazado_102363" data-name="Trazado 102363" d="M103.728,69.989l-3.219-34.366a6.7,6.7,0,0,0-6.043-6.043L60.1,26.361a6.7,6.7,0,0,0-5.36,1.932L9.447,73.587a6.7,6.7,0,0,0,0,9.471l37.584,37.584a6.7,6.7,0,0,0,9.471,0L101.8,75.349a6.7,6.7,0,0,0,1.932-5.36Zm-10.933-24.3a5.936,5.936,0,1,1,0-8.394A5.935,5.935,0,0,1,92.795,45.689Zm0,0" transform="translate(-5.98 -20.635)" fill="#fd747f"/>
      <path id="Trazado_102364" data-name="Trazado 102364" d="M244.388,222.348,193.534,273.2a6.7,6.7,0,0,1-9.471,0l4.023,4.023a6.7,6.7,0,0,0,9.471,0l45.293-45.293a6.7,6.7,0,0,0,1.932-5.36Zm0,0" transform="translate(-147.035 -177.218)" fill="#f25759"/>
      <path id="Trazado_102365" data-name="Trazado 102365" d="M138.5,132.879l-36.942,36.943L69.816,138.079l36.942-36.942Zm0,0" transform="translate(-55.772 -80.391)" fill="#efedee"/>
      <path id="Trazado_102366" data-name="Trazado 102366" d="M422.7,8.993a3.878,3.878,0,0,0-5.483,0L404.649,21.558a3.877,3.877,0,0,0,5.483,5.482L422.7,14.474A3.877,3.877,0,0,0,422.7,8.993Zm0,0" transform="translate(-322.339 -5.877)" fill="#4f648f"/>
      <path id="Trazado_102367" data-name="Trazado 102367" d="M99.712,94.116,62.77,131.058a1.521,1.521,0,0,0,0,2.133l31.743,31.743a1.534,1.534,0,0,0,2.134,0l36.942-36.943a1.521,1.521,0,0,0,0-2.134L101.846,94.116a1.508,1.508,0,0,0-2.134,0ZM95.58,161.734,65.97,132.125l34.809-34.808,29.609,29.609Zm0,0" transform="translate(-49.794 -74.429)"/>
      <path id="Trazado_102368" data-name="Trazado 102368" d="M300.421,83.744l2.01-2.01A1.509,1.509,0,0,0,300.3,79.6l-2.01,2.01a1.509,1.509,0,0,0,2.133,2.134Zm0,0" transform="translate(-237.928 -62.834)"/>
      <path id="Trazado_102369" data-name="Trazado 102369" d="M410.836,194.157l2.01-2.01a1.509,1.509,0,0,0-2.133-2.134l-2.01,2.01a1.509,1.509,0,0,0,2.134,2.134Zm0,0" transform="translate(-326.13 -151.035)"/>
      <path id="Trazado_102370" data-name="Trazado 102370" d="M341.69,130.037a1.508,1.508,0,0,0-1.606,1.4,6.756,6.756,0,0,0,6.664,7.1q.212,0,.425-.014a1.509,1.509,0,0,0-.2-3.01,3.731,3.731,0,0,1-3.876-3.877A1.509,1.509,0,0,0,341.69,130.037Zm0,0" transform="translate(-271.658 -103.474)"/>
      <path id="Trazado_102371" data-name="Trazado 102371" d="M164.3,250.427c-1.055,1.067.117,3.391,1.647,2.779l27.937-9.416a1.7,1.7,0,0,0,.438-2.8,1.417,1.417,0,0,0-1.466-.386l-28.014,9.492a1.378,1.378,0,0,0-.541.334Zm0,0" transform="translate(-130.922 -191.743)"/>
      <path id="Trazado_102372" data-name="Trazado 102372" d="M218.117,288.506l-3.73,3.729c-2.444,2.444-1.723,4.914.361,7,2.057,2.058,4.527,2.778,6.971.334l3.73-3.73c2.418-2.419,1.723-4.914-.335-6.972-2.084-2.084-4.579-2.778-7-.36Zm5.145,5.145-3.73,3.73a1.815,1.815,0,0,1-2.855-.077,1.789,1.789,0,0,1-.052-2.831l3.73-3.73a1.788,1.788,0,0,1,2.83.051A1.816,1.816,0,0,1,223.262,293.651Zm0,0" transform="translate(-170.028 -228.844)"/>
      <path id="Trazado_102373" data-name="Trazado 102373" d="M202.814,188.508l-3.73,3.73c-2.419,2.419-1.723,4.914.36,7,2.058,2.058,4.553,2.753,6.972.335l3.73-3.73c2.419-2.418,1.724-4.914-.334-6.971-2.084-2.084-4.579-2.779-7-.361Zm5.068,2.29a1.816,1.816,0,0,1,.077,2.856l-3.73,3.73a1.814,1.814,0,0,1-2.855-.077,1.788,1.788,0,0,1-.052-2.83l3.73-3.73A1.788,1.788,0,0,1,207.882,190.8Zm0,0" transform="translate(-157.811 -148.962)"/>
      <path id="Trazado_102374" data-name="Trazado 102374" d="M39.984,272.419a8.3,8.3,0,0,0,11.6,0l35.17-35.17a1.509,1.509,0,0,0-2.134-2.134l-35.17,35.17a5.247,5.247,0,0,1-7.336,0L4.533,232.7a5.194,5.194,0,0,1,0-7.337l7.8-7.8a1.509,1.509,0,0,0-2.134-2.134l-7.8,7.8a8.215,8.215,0,0,0,0,11.6Zm0,0" transform="translate(0 -171.337)"/>
      <path id="Trazado_102375" data-name="Trazado 102375" d="M157.127,2.058a5.437,5.437,0,0,0-7.616,0l-5.376,5.376-34.172-3.2A8.18,8.18,0,0,0,103.394,6.6L70.171,39.823A1.509,1.509,0,0,0,72.3,41.958L105.529,8.734a5.175,5.175,0,0,1,4.152-1.5L141.363,10.2l-3.222,3.222a7.444,7.444,0,1,0,7.617,7.615l3.221-3.221L151.947,49.5a5.172,5.172,0,0,1-1.5,4.152L144.6,59.51a1.509,1.509,0,0,0,0,2.134,1.528,1.528,0,0,0,2.134,0l5.855-5.855a8.181,8.181,0,0,0,2.368-6.568l-3.2-34.172,5.376-5.375a5.392,5.392,0,0,0,0-7.616ZM141.45,24a4.427,4.427,0,1,1-6.261-6.261c.084-.084.171-.163.259-.24,0,.013,0,.025,0,.039a5.385,5.385,0,0,0,6.207,6.207l.039,0q-.114.133-.24.259ZM154.992,7.539,142.427,20.1a2.367,2.367,0,0,1-3.348-3.348L151.645,4.191a2.367,2.367,0,1,1,3.348,3.348Zm0,0" transform="translate(-55.702 0)"/>
    </g>
    <g id="Grupo_58532" data-name="Grupo 58532" transform="translate(745 183)">
      <rect id="Rectángulo_5543" data-name="Rectángulo 5543" width="129" height="129" transform="translate(392 3872)" fill="none"/>
    </g>
  </g>
</svg>
