<svg xmlns="http://www.w3.org/2000/svg" width="85" height="92" viewBox="0 0 85 92">
  <g id="Grupo_985937" data-name="Grupo 985937" transform="translate(-377 -2637)">
    <rect id="Rectángulo_338875" data-name="Rectángulo 338875" width="85" height="92" rx="10" transform="translate(377 2637)" fill="#ff6e33"/>
    <g id="felicidad" transform="translate(389.667 2651.771)">
      <path id="Trazado_736920" data-name="Trazado 736920" d="M27.026,114.117a1.062,1.062,0,0,1-1.062-1.062v-5.234H13.754a6.226,6.226,0,0,1-5.846-6.266V93.412a1.079,1.079,0,0,0-.171-.461H3.156a3.155,3.155,0,0,1-2.7-1.307,2.652,2.652,0,0,1-.13-2.561L5.682,77.008c.033-6.864,1.56-12.512,4.539-16.79a1.062,1.062,0,0,1,1.744,1.213c-2.76,3.963-4.159,9.279-4.159,15.8a1.051,1.051,0,0,1-.092.431L2.267,89.945a.569.569,0,0,0-.03.541,1.094,1.094,0,0,0,.92.34H7.932c1.3,0,2.1,1.506,2.1,2.586v8.143a4.1,4.1,0,0,0,3.722,4.141H27.026a1.062,1.062,0,0,1,1.062,1.062v6.3A1.062,1.062,0,0,1,27.026,114.117Zm0,0" transform="translate(0 -50.463)"/>
      <path id="Trazado_736921" data-name="Trazado 736921" d="M143.613,63.654a1.062,1.062,0,0,1-1.062-1.062V51.4a1.062,1.062,0,0,1,.3-.737c.225-.233,22.288-23.5,6.232-40.544a26.552,26.552,0,0,0-20.029-7.982A29.989,29.989,0,0,0,117,4.683a1.062,1.062,0,1,1-.9-1.923A32.064,32.064,0,0,1,129,.012a28.577,28.577,0,0,1,21.625,8.649c16.361,17.372-3.254,40.182-5.952,43.154V62.593A1.063,1.063,0,0,1,143.613,63.654Zm0,0" transform="translate(-97.468 0)"/>
      <path id="Trazado_736922" data-name="Trazado 736922" d="M138.311,88.585a15.23,15.23,0,1,1-15.23-15.23A15.23,15.23,0,0,1,138.311,88.585Zm0,0" transform="translate(-91.021 -61.941)" fill="#ffe600"/>
      <path id="Trazado_736923" data-name="Trazado 736923" d="M117.315,99.115a16.292,16.292,0,1,1,16.292-16.292A16.31,16.31,0,0,1,117.315,99.115Zm0-30.46a14.167,14.167,0,1,0,14.167,14.167A14.183,14.183,0,0,0,117.315,68.655Zm0,0" transform="translate(-85.255 -56.179)" fill="#1448d3"/>
      <path id="Trazado_736924" data-name="Trazado 736924" d="M38.473,32.715a5.4,5.4,0,1,1-5.4-5.4A5.4,5.4,0,0,1,38.473,32.715Zm0,0" transform="translate(-23.32 -23.065)" fill="#0ce6ea"/>
      <path id="Trazado_736925" data-name="Trazado 736925" d="M311.543,237.516a5.4,5.4,0,1,1-5.4-5.4A5.4,5.4,0,0,1,311.543,237.516Zm0,0" transform="translate(-253.904 -196.002)" fill="#fee7dd"/>
      <path id="Trazado_736926" data-name="Trazado 736926" d="M300.378,238.214a6.46,6.46,0,1,1,6.461-6.461A6.468,6.468,0,0,1,300.378,238.214Zm0-10.8a4.336,4.336,0,1,0,4.336,4.336A4.341,4.341,0,0,0,300.378,227.417Zm0,0" transform="translate(-248.138 -190.24)" fill="#9f0925"/>
      <path id="Trazado_736927" data-name="Trazado 736927" d="M221.211,137.21a1.062,1.062,0,0,1-1.062-1.062,2.161,2.161,0,0,0-4.322,0,1.062,1.062,0,0,1-2.125,0,4.285,4.285,0,1,1,8.571,0A1.062,1.062,0,0,1,221.211,137.21Zm0,0" transform="translate(-180.404 -111.346)" fill="#1448d3"/>
      <path id="Trazado_736928" data-name="Trazado 736928" d="M182.48,190.48a4.29,4.29,0,0,1-4.285-4.285,1.062,1.062,0,0,1,2.124,0,2.161,2.161,0,0,0,4.322,0,1.062,1.062,0,0,1,2.124,0A4.29,4.29,0,0,1,182.48,190.48Zm0,0" transform="translate(-150.42 -156.328)" fill="#ea3457"/>
      <path id="Trazado_736929" data-name="Trazado 736929" d="M150.192,137.21a1.062,1.062,0,0,1-1.062-1.062,2.161,2.161,0,0,0-4.322,0,1.062,1.062,0,0,1-2.124,0,4.285,4.285,0,1,1,8.57,0A1.062,1.062,0,0,1,150.192,137.21Zm0,0" transform="translate(-120.434 -111.346)" fill="#1448d3"/>
    </g>
  </g>
</svg>
