<svg xmlns="http://www.w3.org/2000/svg" width="141" height="164.06" viewBox="0 0 141 164.06">
  <g id="efficiency" transform="translate(0)">
    <path id="Trazado_102551" data-name="Trazado 102551" d="M397.7,328.2a2.411,2.411,0,0,0-.7.064v8.908a4.515,4.515,0,0,0,1.474-8.908A3.7,3.7,0,0,0,397.7,328.2Zm0,0" transform="translate(-269.789 -223.034)" fill="#f9d0b4"/>
    <path id="Trazado_102552" data-name="Trazado 102552" d="M317.9,336.482v-8.2A4.566,4.566,0,0,0,312.645,332a4.518,4.518,0,0,0,3.716,5.255,6.086,6.086,0,0,0,1.538,0v-.769Zm0,0" transform="translate(-212.415 -223.049)" fill="#f9d0b4"/>
    <path id="Trazado_102553" data-name="Trazado 102553" d="M341.7,312.45c-3.973,5-9.8,4.293-11.792,3.845a.59.59,0,0,0-.7.448v8.844a10.831,10.831,0,0,0,21.662,0v-9.87a.575.575,0,0,0-.577-.577c-4.486-.128-6.857-1.923-7.818-2.819-.129-.193-.513-.193-.77.128h0Zm0,0" transform="translate(-223.714 -212.155)" fill="#f9d0b4"/>
    <path id="Trazado_102554" data-name="Trazado 102554" d="M352.671,385.083a10.872,10.872,0,0,1-4.87-1.154v4.038l1.73,4.934a.789.789,0,0,0,.7.449h5.256a.787.787,0,0,0,.7-.449l1.73-4.934V383.8a11.574,11.574,0,0,1-5.255,1.282Zm0,0" transform="translate(-236.355 -260.819)" fill="#f9d0b4"/>
    <path id="Trazado_102555" data-name="Trazado 102555" d="M254.306,328.2a2.407,2.407,0,0,0-.7.064v8.908a4.515,4.515,0,1,0,1.473-8.908,3.394,3.394,0,0,0-.769-.064Zm0,0" transform="translate(-172.34 -223.034)" fill="#f9d0b4"/>
    <path id="Trazado_102556" data-name="Trazado 102556" d="M174.5,336.482v-8.2A4.568,4.568,0,0,0,169.244,332a4.519,4.519,0,0,0,3.718,5.255,6.086,6.086,0,0,0,1.538,0v-.769Zm0,0" transform="translate(-114.964 -223.049)" fill="#f9d0b4"/>
    <path id="Trazado_102557" data-name="Trazado 102557" d="M198.3,312.45c-3.974,5-9.806,4.293-11.792,3.845a.59.59,0,0,0-.7.448v8.844a10.83,10.83,0,1,0,21.66,0v-9.87a.574.574,0,0,0-.576-.577c-4.486-.128-6.858-1.923-7.819-2.819-.128-.193-.512-.193-.769.128h0Zm0,0" transform="translate(-126.265 -212.155)" fill="#f9d0b4"/>
    <path id="Trazado_102558" data-name="Trazado 102558" d="M209.472,385.083a10.868,10.868,0,0,1-4.87-1.154v4.038l1.73,4.934a.787.787,0,0,0,.7.449h5.256a.789.789,0,0,0,.7-.449l1.73-4.934V383.8A11.988,11.988,0,0,1,209.472,385.083Zm0,0" transform="translate(-139.041 -260.819)" fill="#f9d0b4"/>
    <path id="Trazado_102559" data-name="Trazado 102559" d="M110.9,328.2a2.415,2.415,0,0,0-.7.064v8.908a4.515,4.515,0,0,0,1.474-8.908,3.4,3.4,0,0,0-.77-.064Zm0,0" transform="translate(-74.888 -223.034)" fill="#f9d0b4"/>
    <path id="Trazado_102560" data-name="Trazado 102560" d="M31.1,336.482v-8.2A4.566,4.566,0,0,0,25.846,332a4.519,4.519,0,0,0,3.718,5.255,6.076,6.076,0,0,0,1.537,0v-.769Zm0,0" transform="translate(-17.515 -223.049)" fill="#f9d0b4"/>
    <path id="Trazado_102561" data-name="Trazado 102561" d="M54.9,312.45c-3.973,5-9.8,4.293-11.791,3.845a.592.592,0,0,0-.706.448v8.844a10.831,10.831,0,1,0,21.662,0v-9.87a.575.575,0,0,0-.577-.577c-4.486-.128-6.857-1.923-7.818-2.819-.129-.193-.513-.193-.77.128h0Zm0,0" transform="translate(-28.813 -212.155)" fill="#f9d0b4"/>
    <path id="Trazado_102562" data-name="Trazado 102562" d="M66.069,385.083a10.872,10.872,0,0,1-4.87-1.154v4.038L62.93,392.9a.787.787,0,0,0,.7.449H68.89a.787.787,0,0,0,.7-.449l1.731-4.934V383.8a11.993,11.993,0,0,1-5.256,1.282Zm0,0" transform="translate(-41.589 -260.819)" fill="#f9d0b4"/>
    <path id="Trazado_102563" data-name="Trazado 102563" d="M337.872,427.562l-1.218-22.239a4.312,4.312,0,0,0-3.2-3.909l-8.395-2.114-5.063-2.5-1.73,4.934a.787.787,0,0,1-.7.449H312.3a.789.789,0,0,1-.7-.449l-1.73-4.934-5.063,2.5-8.4,2.114a4.235,4.235,0,0,0-3.2,3.909l-1.218,22.239a4.246,4.246,0,0,0,4.038,4.486h37.618a4.294,4.294,0,0,0,4.293-4.294c-.064,0-.064-.064-.064-.192Zm0,0" transform="translate(-198.421 -269.654)" fill="#e9e9ea"/>
    <path id="Trazado_102564" data-name="Trazado 102564" d="M194.336,427.562l-1.218-22.239a4.312,4.312,0,0,0-3.2-3.909l-8.4-2.114-5.063-2.5-1.73,4.934a.791.791,0,0,1-.706.449h-5.255a.787.787,0,0,1-.7-.449l-1.731-4.934-5.062,2.5-8.46,2.114a4.236,4.236,0,0,0-3.2,3.909l-1.218,22.239a4.247,4.247,0,0,0,4.038,4.486h37.618a4.294,4.294,0,0,0,4.295-4.294v-.192Zm0,0" transform="translate(-100.834 -269.654)" fill="#e9e9ea"/>
    <path id="Trazado_102565" data-name="Trazado 102565" d="M50.935,427.562l-1.217-22.239a4.315,4.315,0,0,0-3.2-3.909l-8.46-2.114-5.063-2.5-1.73,4.934a.787.787,0,0,1-.7.449H25.3a.789.789,0,0,1-.7-.449l-1.73-4.934L17.8,399.3l-8.4,2.114a4.235,4.235,0,0,0-3.2,3.909L4.986,427.562a4.246,4.246,0,0,0,4.038,4.486H46.642a4.294,4.294,0,0,0,4.293-4.294c.065,0,0-.064,0-.192Zm0,0" transform="translate(-3.384 -269.654)" fill="#e9e9ea"/>
    <path id="Trazado_102566" data-name="Trazado 102566" d="M146.7,68.8H39.807a6.409,6.409,0,1,0,0,12.817h106.96A6.409,6.409,0,1,0,146.7,68.8Zm0,0" transform="translate(-22.697 -46.755)" fill="#306191"/>
    <path id="Trazado_102567" data-name="Trazado 102567" d="M161.2,75.345H63.914A2.134,2.134,0,0,1,61.8,73.229V69h101.64v4.293a2.241,2.241,0,0,1-2.243,2.052Zm0,0" transform="translate(-41.998 -46.89)" fill="#457ba8"/>
    <path id="Trazado_102568" data-name="Trazado 102568" d="M70.011,163.716a6.185,6.185,0,0,1,5.32,3.012,6.135,6.135,0,0,1,3.14-.9,6.223,6.223,0,0,1,6.216,6.217v8.138h16.535a1.113,1.113,0,0,1,.32-.257v-5a11.267,11.267,0,0,1,11.215-11.215h3.2a6.183,6.183,0,0,1,5.318,3.012,6.138,6.138,0,0,1,3.14-.9,6.223,6.223,0,0,1,6.217,6.217v8.138h16.533a1.148,1.148,0,0,1,.32-.257v-5a11.268,11.268,0,0,1,11.215-11.215h3.2a6.166,6.166,0,0,1,5,2.563V108.6H67v55.049h3.012Zm0,0" transform="translate(-45.531 -73.802)" fill="#acdef9"/>
    <path id="Trazado_102569" data-name="Trazado 102569" d="M129,234.5v19.419h9.933V233.6c-3.268.448-6.6.769-9.933.9Zm0,0" transform="translate(-87.665 -158.748)" fill="#60bae2"/>
    <path id="Trazado_102570" data-name="Trazado 102570" d="M293.292,161.776A91.818,91.818,0,0,1,284,168.953v35.824h9.933V161.2Zm0,0" transform="translate(-192.998 -109.546)" fill="#ea4647"/>
    <path id="Trazado_102571" data-name="Trazado 102571" d="M226.749,231.621a6.118,6.118,0,0,1,5.383-.448V204a91.852,91.852,0,0,1-9.933,4.422v20.251A6.114,6.114,0,0,1,226.749,231.621Zm0,0" transform="translate(-151 -138.632)" fill="#ffae2c"/>
    <path id="Trazado_102572" data-name="Trazado 102572" d="M197.16,237.789h3.2a3.128,3.128,0,0,1,.769.064V217.6a89.342,89.342,0,0,1-9.933,3.139v18.842a10.86,10.86,0,0,1,5.961-1.794Zm0,0" transform="translate(-129.934 -147.876)" fill="#ffcd29"/>
    <path id="Trazado_102573" data-name="Trazado 102573" d="M169.933,246.24V227.4A87.938,87.938,0,0,1,160,229.386V249.7h6.472a11.89,11.89,0,0,1,3.461-3.461Zm0,0" transform="translate(-108.731 -154.533)" fill="#55acd5"/>
    <path id="Trazado_102574" data-name="Trazado 102574" d="M256.34,221.159h6.793V185.4a103.8,103.8,0,0,1-9.933,5.9v27.173a6.716,6.716,0,0,1,3.14,2.691Zm0,0" transform="translate(-172.067 -125.991)" fill="#f75c64"/>
    <path id="Trazado_102575" data-name="Trazado 102575" d="M321.155,296.124a2.637,2.637,0,0,1,.7.064v-.512a.575.575,0,0,1,.577-.577h.128c1.988.384,7.819,1.089,11.792-3.845a.607.607,0,0,1,.834-.128.063.063,0,0,1,.064.064c.9.9,3.268,2.691,7.818,2.82a.574.574,0,0,1,.577.576v1.667a4.685,4.685,0,0,1,3.845,1.217v-8.138a6.221,6.221,0,0,0-6.216-6.216,5.975,5.975,0,0,0-3.141.9,6.188,6.188,0,0,0-5.32-3.012h-3.2A11.27,11.27,0,0,0,318.4,292.215v5a3.768,3.768,0,0,1,2.756-1.09Zm0,0" transform="translate(-216.374 -190.959)" fill="#6d6c6b"/>
    <path id="Trazado_102576" data-name="Trazado 102576" d="M177.757,296.124a2.641,2.641,0,0,1,.7.064v-.512a.575.575,0,0,1,.577-.577h.128c1.986.384,7.818,1.089,11.792-3.845a.606.606,0,0,1,.832-.128.063.063,0,0,1,.065.064c.9.9,3.268,2.691,7.818,2.82a.574.574,0,0,1,.577.576v1.667a4.686,4.686,0,0,1,3.845,1.217v-8.138a6.222,6.222,0,0,0-6.217-6.216,5.97,5.97,0,0,0-3.139.9A6.189,6.189,0,0,0,189.42,281h-3.2A11.269,11.269,0,0,0,175,292.215v5a3.764,3.764,0,0,1,2.756-1.09Zm0,0" transform="translate(-118.925 -190.959)" fill="#6d6c6b"/>
    <path id="Trazado_102577" data-name="Trazado 102577" d="M34.356,296.124a2.632,2.632,0,0,1,.7.064v-.512a.575.575,0,0,1,.577-.577h.129c1.986.384,7.818,1.089,11.791-3.845a.607.607,0,0,1,.834-.128.063.063,0,0,1,.064.064c.9.9,3.268,2.691,7.819,2.82a.573.573,0,0,1,.576.576v1.667a4.685,4.685,0,0,1,3.845,1.217v-8.138a6.221,6.221,0,0,0-6.216-6.216,5.978,5.978,0,0,0-3.14.9A6.187,6.187,0,0,0,46.021,281h-3.2A11.268,11.268,0,0,0,31.6,292.215v5a3.763,3.763,0,0,1,2.755-1.09Zm0,0" transform="translate(-21.476 -190.959)" fill="#6d6c6b"/>
    <path id="Trazado_102578" data-name="Trazado 102578" d="M143.305,79.823H36.409a8.011,8.011,0,1,1,0-16.022h106.96a8.011,8.011,0,1,1-.064,16.022ZM36.345,67.005a4.806,4.806,0,1,0,0,9.613h106.96a4.806,4.806,0,1,0,0-9.613Zm0,0" transform="translate(-19.299 -43.357)" fill="#231f20"/>
    <path id="Trazado_102579" data-name="Trazado 102579" d="M143.909,178.589H127.375a1.586,1.586,0,0,1-1.6-1.6v-8.138a4.624,4.624,0,0,0-4.551-4.615,4.4,4.4,0,0,0-2.371.641,1.581,1.581,0,0,1-2.179-.576,4.542,4.542,0,0,0-3.973-2.243h-3.2a9.6,9.6,0,0,0-9.613,9.613v5a1.614,1.614,0,0,1-.577,1.282c-.064.064-.128.129-.193.193a1.815,1.815,0,0,1-1.089.448h-16.6a1.586,1.586,0,0,1-1.6-1.6v-8.138a4.623,4.623,0,0,0-4.55-4.615,4.4,4.4,0,0,0-2.371.641,1.581,1.581,0,0,1-2.179-.576,4.544,4.544,0,0,0-3.974-2.243H63.8a1.587,1.587,0,0,1-1.6-1.6V105.4a1.586,1.586,0,0,1,1.6-1.6h99.847a1.586,1.586,0,0,1,1.6,1.6V163.08a1.6,1.6,0,0,1-2.884.961,4.5,4.5,0,0,0-3.717-1.923h-3.2a9.6,9.6,0,0,0-9.613,9.613v5a1.61,1.61,0,0,1-.577,1.282l-.192.193a2.244,2.244,0,0,1-1.154.384Zm-14.931-3.2h13.65v-3.716a12.814,12.814,0,0,1,12.817-12.817h3.2a7.743,7.743,0,0,1,3.4.769V107H65.339v51.846h1.346a7.775,7.775,0,0,1,5.832,2.627,7.428,7.428,0,0,1,2.692-.449,7.85,7.85,0,0,1,7.818,7.819v6.536H96.678v-3.716A12.814,12.814,0,0,1,109.5,158.851h3.2a7.777,7.777,0,0,1,5.832,2.627,7.422,7.422,0,0,1,2.691-.449,7.85,7.85,0,0,1,7.819,7.819Zm0,0" transform="translate(-42.269 -70.54)" fill="#231f20"/>
    <path id="Trazado_102580" data-name="Trazado 102580" d="M382.177,33.2H376.6a1.6,1.6,0,0,1,0-3.2h5.575a1.586,1.586,0,0,1,1.6,1.6A1.627,1.627,0,0,1,382.177,33.2Zm0,0" transform="translate(-254.839 -20.387)" fill="#ffcd29"/>
    <path id="Trazado_102581" data-name="Trazado 102581" d="M385.2,30.179a1.586,1.586,0,0,1-1.6-1.6V23a1.6,1.6,0,1,1,3.2,0v5.576A1.587,1.587,0,0,1,385.2,30.179Zm0,0" transform="translate(-260.684 -14.542)" fill="#ffcd29"/>
    <path id="Trazado_102582" data-name="Trazado 102582" d="M10.381,181.2H3.2a1.6,1.6,0,1,1,0-3.2h7.177a1.6,1.6,0,1,1,0,3.2Zm0,0" transform="translate(-1.089 -120.963)" fill="#f75c64"/>
    <path id="Trazado_102583" data-name="Trazado 102583" d="M14.4,177.182a1.586,1.586,0,0,1-1.6-1.6V168.4a1.6,1.6,0,0,1,3.2,0v7.177A1.586,1.586,0,0,1,14.4,177.182Zm0,0" transform="translate(-8.699 -113.353)" fill="#f75c64"/>
    <path id="Trazado_102584" data-name="Trazado 102584" d="M27.934,238.9a.582.582,0,0,1-.32-.064c-.128,0-.192-.065-.32-.129s-.192-.064-.255-.128-.193-.129-.257-.193a1.549,1.549,0,0,1,0-2.243.872.872,0,0,1,.257-.191.478.478,0,0,1,.255-.129c.129-.064.193-.064.32-.128a1.091,1.091,0,0,1,.641,0c.129,0,.193.064.32.128s.193.064.257.129.193.128.257.191a1.548,1.548,0,0,1,0,2.243.872.872,0,0,1-.257.193.483.483,0,0,1-.257.128c-.128.064-.192.064-.32.129A.48.48,0,0,1,27.934,238.9Zm0,0" transform="translate(-17.873 -160.142)" fill="#ffcd29"/>
    <path id="Trazado_102585" data-name="Trazado 102585" d="M405.6,149.038a1.586,1.586,0,0,1-1.6-1.6,1.847,1.847,0,0,1,.448-1.154,1.67,1.67,0,0,1,2.243,0,1.548,1.548,0,0,1,0,2.243A1.465,1.465,0,0,1,405.6,149.038Zm0,0" transform="translate(-274.546 -99.114)" fill="#6dcc6d"/>
    <g id="Grupo_58710" data-name="Grupo 58710" transform="translate(0 41.913)">
      <path id="Trazado_102586" data-name="Trazado 102586" d="M113.4,173.82a1.6,1.6,0,1,1,0-3.2,93.835,93.835,0,0,0,61.843-23.264l5.959-5.191a1.589,1.589,0,0,1,2.115,2.371l-5.961,5.192a96.756,96.756,0,0,1-63.957,24.1Zm0,0" transform="translate(-75.976 -138.252)" fill="#231f20"/>
      <path id="Trazado_102587" data-name="Trazado 102587" d="M313.8,151.8a1.586,1.586,0,0,1-1.6-1.6v-5.191H307a1.6,1.6,0,0,1,0-3.2H313.8a1.587,1.587,0,0,1,1.6,1.6V150.2A1.628,1.628,0,0,1,313.8,151.8Zm0,0" transform="translate(-207.54 -138.276)" fill="#231f20"/>
      <path id="Trazado_102588" data-name="Trazado 102588" d="M113.961,134.005H109.6a1.6,1.6,0,0,1,0-3.2h4.358a1.587,1.587,0,0,1,1.6,1.6A1.628,1.628,0,0,1,113.961,134.005Zm0,0" transform="translate(-73.394 -130.801)" fill="#231f20"/>
      <path id="Trazado_102589" data-name="Trazado 102589" d="M279.021,295.2H259.6a1.6,1.6,0,1,1,0-3.2h19.419a1.6,1.6,0,0,1,0,3.2Zm0,0" transform="translate(-175.329 -240.347)" fill="#231f20"/>
      <path id="Trazado_102590" data-name="Trazado 102590" d="M135.756,295.2H116.4a1.6,1.6,0,1,1,0-3.2h19.354a1.6,1.6,0,1,1,0,3.2Zm0,0" transform="translate(-78.015 -240.347)" fill="#231f20"/>
      <path id="Trazado_102591" data-name="Trazado 102591" d="M394.3,335.42a4.868,4.868,0,0,1-.961-.064,1.554,1.554,0,0,1-1.346-1.666v-8.779a1.556,1.556,0,0,1,1.346-1.667,6.137,6.137,0,0,1,1.986,12.113,5.882,5.882,0,0,1-1.025.064Zm.9-8.907v5.575a2.942,2.942,0,0,0,1.859-3.718A2.975,2.975,0,0,0,395.194,326.513Zm0,0" transform="translate(-266.381 -261.53)" fill="#231f20"/>
      <path id="Trazado_102592" data-name="Trazado 102592" d="M313.953,335.3a6.152,6.152,0,1,1,0-12.3,4.868,4.868,0,0,1,.961.064,1.554,1.554,0,0,1,1.346,1.666v8.844a1.553,1.553,0,0,1-1.346,1.666,4.868,4.868,0,0,1-.961.064Zm-.9-8.907a2.94,2.94,0,0,0-1.859,3.716,2.836,2.836,0,0,0,1.859,1.859Zm0,0" transform="translate(-209.172 -261.413)" fill="#231f20"/>
      <path id="Trazado_102593" data-name="Trazado 102593" d="M336.632,334.768A12.446,12.446,0,0,1,324.2,322.335V313.62a2.161,2.161,0,0,1,2.179-2.179,1.092,1.092,0,0,1,.448.064c1.923.384,6.858.9,10.19-3.268a2.225,2.225,0,0,1,3.077-.384c.064.064.128.128.191.128.706.641,2.692,2.243,6.729,2.372a2.177,2.177,0,0,1,2.115,2.114v9.87A12.459,12.459,0,0,1,336.632,334.768ZM327.4,314.838v7.5a9.229,9.229,0,1,0,18.457,0v-8.844a13.221,13.221,0,0,1-7.049-2.5C335.03,315.029,330.031,315.093,327.4,314.838Zm12.113-4.679" transform="translate(-220.316 -250.816)" fill="#231f20"/>
      <path id="Trazado_102594" data-name="Trazado 102594" d="M343.9,295.339a1.667,1.667,0,0,1-1.089-.448,2.781,2.781,0,0,0-2.5-.77,1.643,1.643,0,0,1-1.859-1.346v-.9a13.221,13.221,0,0,1-7.049-2.5,13.336,13.336,0,0,1-11.6,3.845,1.633,1.633,0,0,1-1.731.9,2.951,2.951,0,0,0-2.307.577,1.553,1.553,0,0,1-2.243-.257,1.409,1.409,0,0,1-.32-1.025v-5A12.814,12.814,0,0,1,326.016,275.6h3.2a7.775,7.775,0,0,1,5.832,2.627,7.429,7.429,0,0,1,2.692-.449,7.85,7.85,0,0,1,7.818,7.819v8.138a1.729,1.729,0,0,1-1.666,1.6Zm-2.243-4.422a2.288,2.288,0,0,1,.641.129V285.6a4.623,4.623,0,0,0-4.55-4.615,4.407,4.407,0,0,0-2.372.641,1.579,1.579,0,0,1-2.178-.576,4.519,4.519,0,0,0-3.91-2.243h-3.2a9.6,9.6,0,0,0-9.613,9.613v2.563a1.951,1.951,0,0,1,.641-.065,2.112,2.112,0,0,1,2.308-1.025c1.923.384,6.857.9,10.189-3.268a2.225,2.225,0,0,1,3.077-.384c.064.064.128.128.193.128.7.641,2.691,2.243,6.729,2.372A2.181,2.181,0,0,1,341.654,290.917Zm0,0" transform="translate(-212.84 -229.203)" fill="#231f20"/>
      <path id="Trazado_102595" data-name="Trazado 102595" d="M360.2,430.461a1.586,1.586,0,0,1-1.6-1.6.582.582,0,0,1,.064-.32c0-.128.064-.191.064-.32.064-.128.064-.192.128-.257s.129-.191.193-.255a.852.852,0,0,1,.257-.193.483.483,0,0,1,.257-.128.473.473,0,0,1,.32-.065,1.524,1.524,0,0,1,1.857,1.282,1.6,1.6,0,0,1-.448,1.474A1.506,1.506,0,0,1,360.2,430.461Zm0,0" transform="translate(-243.695 -332.282)" fill="#231f20"/>
      <path id="Trazado_102596" data-name="Trazado 102596" d="M360.2,448.791h-.32c-.129,0-.193-.064-.32-.064-.129-.064-.193-.064-.257-.128s-.193-.129-.257-.193a.9.9,0,0,1-.193-.257,1.15,1.15,0,0,1-.191-.576.577.577,0,0,0-.064-.32,1.84,1.84,0,0,1,.448-1.154.9.9,0,0,1,.257-.193,1.16,1.16,0,0,1,.577-.191,1.6,1.6,0,0,1,1.473.448,1.545,1.545,0,0,1,.449,1.154.572.572,0,0,1-.065.32c0,.128-.064.192-.064.32-.064.128-.064.192-.128.257s-.129.192-.193.255A3.033,3.033,0,0,1,360.2,448.791Zm0,0" transform="translate(-243.695 -344.78)" fill="#231f20"/>
      <path id="Trazado_102597" data-name="Trazado 102597" d="M360.238,466.656a.578.578,0,0,1-.32-.064c-.129,0-.193-.064-.32-.064-.129-.064-.193-.064-.257-.128s-.193-.129-.257-.193a.9.9,0,0,1-.193-.257,1.16,1.16,0,0,1-.191-.577,1.1,1.1,0,0,1,0-.641c0-.128.064-.192.064-.32.064-.128.064-.191.128-.255s.129-.193.193-.257a.873.873,0,0,1,.257-.193,1.16,1.16,0,0,1,.577-.191,1.6,1.6,0,0,1,1.473.448.873.873,0,0,1,.193.257,1.161,1.161,0,0,1,.191.577,1.076,1.076,0,0,1,0,.641,2.276,2.276,0,0,1-.255.576c-.065.065-.129.193-.193.257A1.847,1.847,0,0,1,360.238,466.656Zm0,0" transform="translate(-243.729 -356.877)" fill="#231f20"/>
      <path id="Trazado_102598" data-name="Trazado 102598" d="M360.2,484.857a.568.568,0,0,1-.32-.065c-.129,0-.193-.064-.32-.064-.065-.064-.193-.064-.257-.128s-.193-.129-.257-.193a1.543,1.543,0,0,1-.448-1.153.577.577,0,0,1,.064-.32c0-.129.064-.193.064-.32.064-.129.064-.193.128-.257s.129-.193.193-.257a.894.894,0,0,1,.257-.193,1.161,1.161,0,0,1,.577-.191,1.6,1.6,0,0,1,1.473.448.89.89,0,0,1,.193.257,2.334,2.334,0,0,1,.257.577c0,.128.064.191.064.32a1.841,1.841,0,0,1-.449,1.153A2.712,2.712,0,0,1,360.2,484.857Zm0,0" transform="translate(-243.695 -369.245)" fill="#231f20"/>
      <path id="Trazado_102599" data-name="Trazado 102599" d="M399.8,464.944a1.586,1.586,0,0,1-1.6-1.6V447a1.6,1.6,0,1,1,3.2,0v16.342A1.586,1.586,0,0,1,399.8,464.944Zm0,0" transform="translate(-270.604 -344.591)" fill="#231f20"/>
      <path id="Trazado_102600" data-name="Trazado 102600" d="M319.6,464.944a1.586,1.586,0,0,1-1.6-1.6V447a1.6,1.6,0,0,1,3.2,0v16.342A1.586,1.586,0,0,1,319.6,464.944Zm0,0" transform="translate(-216.103 -344.591)" fill="#231f20"/>
      <path id="Trazado_102601" data-name="Trazado 102601" d="M352.229,391.527h-5.256a2.356,2.356,0,0,1-2.178-1.538l-1.731-4.935a1.412,1.412,0,0,1-.064-.512V380.5a1.586,1.586,0,0,1,1.6-1.6,1.283,1.283,0,0,1,.7.193,9.181,9.181,0,0,0,4.1.961,9.792,9.792,0,0,0,4.422-1.09,1.6,1.6,0,0,1,2.179.641,1.715,1.715,0,0,1,.191.77v4.166a1.251,1.251,0,0,1-.064.512l-1.73,4.935a2.357,2.357,0,0,1-2.179,1.538Zm-4.615-3.2h3.974L353,384.284v-1.538a12.242,12.242,0,0,1-6.793.064v1.411Zm0,0" transform="translate(-233.092 -299.306)" fill="#231f20"/>
      <path id="Trazado_102602" data-name="Trazado 102602" d="M330.258,430.367H292.9a5.88,5.88,0,0,1-5.9-5.9v-.32l1.218-22.239a5.872,5.872,0,0,1,4.422-5.383l8.266-2.05,4.935-2.436a1.589,1.589,0,0,1,2.114.706c0,.064.065.128.065.192l1.473,4.294h3.974l1.473-4.294a1.593,1.593,0,0,1,2.052-.961c.064,0,.128.064.191.064l4.935,2.436,8.266,2.05a5.872,5.872,0,0,1,4.422,5.383l1.218,22.239a5.887,5.887,0,0,1-5.575,6.216h-.193ZM305.649,395.7l-3.461,1.666c-.128.064-.191.064-.32.128l-8.4,2.115a2.659,2.659,0,0,0-2.05,2.436L290.2,424.279a2.659,2.659,0,0,0,2.5,2.82h37.491a2.708,2.708,0,0,0,2.691-2.692v-.128l-1.218-22.237a2.658,2.658,0,0,0-2.05-2.436l-8.4-2.115c-.129,0-.193-.064-.32-.128l-3.461-1.666-1.089,3.2a2.27,2.27,0,0,1-2.179,1.538h-5.256a2.356,2.356,0,0,1-2.178-1.538Zm0,0" transform="translate(-195.036 -308.219)" fill="#231f20"/>
      <path id="Trazado_102603" data-name="Trazado 102603" d="M250.9,335.42a4.869,4.869,0,0,1-.961-.064,1.552,1.552,0,0,1-1.346-1.666v-8.779a1.554,1.554,0,0,1,1.346-1.667,6.137,6.137,0,1,1,1.986,12.113,5.882,5.882,0,0,1-1.025.064Zm.9-8.907v5.575a2.941,2.941,0,0,0,1.858-3.718A2.973,2.973,0,0,0,251.8,326.513Zm0,0" transform="translate(-168.931 -261.53)" fill="#231f20"/>
      <path id="Trazado_102604" data-name="Trazado 102604" d="M170.552,335.3a6.152,6.152,0,1,1,0-12.3,4.869,4.869,0,0,1,.961.064,1.555,1.555,0,0,1,1.346,1.666v8.844a1.554,1.554,0,0,1-1.346,1.666,4.557,4.557,0,0,1-.961.064Zm-.9-8.907a2.939,2.939,0,0,0-1.859,3.716,2.836,2.836,0,0,0,1.859,1.859Zm0,0" transform="translate(-111.72 -261.413)" fill="#231f20"/>
      <path id="Trazado_102605" data-name="Trazado 102605" d="M193.433,334.768A12.445,12.445,0,0,1,181,322.335V313.62a2.161,2.161,0,0,1,2.179-2.179,1.092,1.092,0,0,1,.448.064c1.923.384,6.858.9,10.19-3.268a2.225,2.225,0,0,1,3.077-.384c.064.064.128.128.192.128.7.641,2.692,2.243,6.729,2.372a2.177,2.177,0,0,1,2.115,2.114v9.87A12.542,12.542,0,0,1,193.433,334.768Zm-9.292-19.931v7.5a9.228,9.228,0,1,0,18.456,0v-8.844a13.224,13.224,0,0,1-7.049-2.5C191.767,315.029,186.768,315.093,184.141,314.838Zm12.113-4.679" transform="translate(-123.002 -250.816)" fill="#231f20"/>
      <path id="Trazado_102606" data-name="Trazado 102606" d="M200.5,295.339a1.671,1.671,0,0,1-1.09-.448,2.781,2.781,0,0,0-2.5-.77,1.642,1.642,0,0,1-1.857-1.346v-.9a13.221,13.221,0,0,1-7.049-2.5,13.338,13.338,0,0,1-11.6,3.845,1.632,1.632,0,0,1-1.73.9,2.949,2.949,0,0,0-2.307.577,1.553,1.553,0,0,1-2.243-.257,1.409,1.409,0,0,1-.32-1.025v-5A12.814,12.814,0,0,1,182.618,275.6h3.2a7.777,7.777,0,0,1,5.832,2.627,7.422,7.422,0,0,1,2.691-.449,7.85,7.85,0,0,1,7.819,7.819v8.138a1.684,1.684,0,0,1-1.666,1.6Zm-2.243-4.422a2.3,2.3,0,0,1,.641.129V285.6a4.624,4.624,0,0,0-4.551-4.615,4.4,4.4,0,0,0-2.371.641,1.581,1.581,0,0,1-2.179-.576,4.542,4.542,0,0,0-3.973-2.243h-3.2a9.6,9.6,0,0,0-9.613,9.613v2.563a1.944,1.944,0,0,1,.641-.065,2.109,2.109,0,0,1,2.307-1.025c1.923.384,6.857.9,10.19-3.268a2.224,2.224,0,0,1,3.075-.384c.065.064.129.128.193.128.7.641,2.691,2.243,6.729,2.372a2.191,2.191,0,0,1,2.115,2.178Zm0,0" transform="translate(-115.392 -229.203)" fill="#231f20"/>
      <path id="Trazado_102607" data-name="Trazado 102607" d="M216.8,430.438a1.586,1.586,0,0,1-1.6-1.6.582.582,0,0,1,.064-.32c0-.128.065-.191.065-.32.064-.064.064-.192.128-.257s.128-.191.193-.255a1.67,1.67,0,0,1,2.243,0,.882.882,0,0,1,.192.255,2.264,2.264,0,0,1,.257.577.578.578,0,0,0,.064.32A1.586,1.586,0,0,1,216.8,430.438Zm0,0" transform="translate(-146.243 -332.259)" fill="#231f20"/>
      <path id="Trazado_102608" data-name="Trazado 102608" d="M216.8,448.638a1.586,1.586,0,0,1-1.6-1.6,1.841,1.841,0,0,1,.449-1.153,1.67,1.67,0,0,1,2.243,0,1.548,1.548,0,0,1,0,2.243A1.369,1.369,0,0,1,216.8,448.638Zm0,0" transform="translate(-146.243 -344.627)" fill="#231f20"/>
      <path id="Trazado_102609" data-name="Trazado 102609" d="M216.8,466.637a1.586,1.586,0,0,1-1.6-1.6.582.582,0,0,1,.064-.32c0-.128.065-.192.065-.32.064-.128.064-.191.128-.255s.128-.193.193-.257a1.67,1.67,0,0,1,2.243,0,.872.872,0,0,1,.192.257,1.135,1.135,0,0,1,.193.576.578.578,0,0,0,.064.32A1.5,1.5,0,0,1,216.8,466.637Zm0,0" transform="translate(-146.243 -356.859)" fill="#231f20"/>
      <path id="Trazado_102610" data-name="Trazado 102610" d="M216.8,484.839a1.587,1.587,0,0,1-1.6-1.6,1.841,1.841,0,0,1,.449-1.154,1.67,1.67,0,0,1,2.243,0,1.548,1.548,0,0,1,0,2.243A1.37,1.37,0,0,1,216.8,484.839Zm0,0" transform="translate(-146.243 -369.227)" fill="#231f20"/>
      <path id="Trazado_102611" data-name="Trazado 102611" d="M256.4,464.944a1.586,1.586,0,0,1-1.6-1.6V447a1.6,1.6,0,0,1,3.2,0v16.342A1.586,1.586,0,0,1,256.4,464.944Zm0,0" transform="translate(-173.155 -344.591)" fill="#231f20"/>
      <path id="Trazado_102612" data-name="Trazado 102612" d="M176.2,464.944a1.586,1.586,0,0,1-1.6-1.6V447a1.6,1.6,0,0,1,3.2,0v16.342A1.587,1.587,0,0,1,176.2,464.944Zm0,0" transform="translate(-118.654 -344.591)" fill="#231f20"/>
      <path id="Trazado_102613" data-name="Trazado 102613" d="M208.829,391.527h-5.255a2.357,2.357,0,0,1-2.179-1.538l-1.73-4.935a1.412,1.412,0,0,1-.064-.512V380.5a1.586,1.586,0,0,1,1.6-1.6,1.289,1.289,0,0,1,.7.193,9.177,9.177,0,0,0,4.1.961,9.787,9.787,0,0,0,4.421-1.09,1.6,1.6,0,0,1,2.179.641,1.7,1.7,0,0,1,.193.77v4.166a1.251,1.251,0,0,1-.064.512l-1.731,4.935a2.357,2.357,0,0,1-2.179,1.538Zm-4.614-3.2h3.973l1.411-4.038v-1.538a12.242,12.242,0,0,1-6.793.064v1.411Zm0,0" transform="translate(-135.643 -299.306)" fill="#231f20"/>
      <path id="Trazado_102614" data-name="Trazado 102614" d="M186.722,430.367H149.3a5.881,5.881,0,0,1-5.9-5.9v-.32l1.218-22.239a5.873,5.873,0,0,1,4.422-5.383l8.267-2.05,4.934-2.436a1.591,1.591,0,0,1,2.115.706c0,.064.064.128.064.192l1.474,4.294h3.973l1.474-4.294a1.591,1.591,0,0,1,2.05-.961c.064,0,.128.064.193.064l4.934,2.436,8.267,2.05a5.873,5.873,0,0,1,4.422,5.383l1.217,22.239a5.887,5.887,0,0,1-5.575,6.216h-.128ZM162.113,395.7l-3.461,1.666c-.128.064-.193.064-.32.128l-8.459,2.115a2.659,2.659,0,0,0-2.051,2.436L146.6,424.279a2.66,2.66,0,0,0,2.5,2.82h37.49a2.709,2.709,0,0,0,2.692-2.692v-.128l-1.218-22.237a2.659,2.659,0,0,0-2.051-2.436l-8.4-2.115c-.128,0-.191-.064-.32-.128L173.84,395.7l-1.089,3.2a2.27,2.27,0,0,1-2.179,1.538h-5.255a2.357,2.357,0,0,1-2.179-1.538Zm0,0" transform="translate(-97.449 -308.219)" fill="#231f20"/>
      <path id="Trazado_102615" data-name="Trazado 102615" d="M107.5,335.42a4.869,4.869,0,0,1-.961-.064,1.554,1.554,0,0,1-1.346-1.666v-8.779a1.556,1.556,0,0,1,1.346-1.667,6.137,6.137,0,0,1,1.988,12.113,5.9,5.9,0,0,1-1.026.064Zm.9-8.907v5.575a2.941,2.941,0,0,0,1.859-3.718A2.975,2.975,0,0,0,108.393,326.513Zm0,0" transform="translate(-71.48 -261.53)" fill="#231f20"/>
      <path id="Trazado_102616" data-name="Trazado 102616" d="M27.152,335.3a6.152,6.152,0,1,1,0-12.3,4.869,4.869,0,0,1,.961.064,1.554,1.554,0,0,1,1.346,1.666v8.844a1.552,1.552,0,0,1-1.346,1.666,4.262,4.262,0,0,1-.961.064Zm-.9-8.907a2.939,2.939,0,0,0-1.857,3.716,2.836,2.836,0,0,0,1.857,1.859Zm0,0" transform="translate(-14.271 -261.413)" fill="#231f20"/>
      <path id="Trazado_102617" data-name="Trazado 102617" d="M50.033,334.768A12.444,12.444,0,0,1,37.6,322.335V313.62a2.161,2.161,0,0,1,2.178-2.179,1.1,1.1,0,0,1,.449.064c1.923.384,6.857.9,10.19-3.268a2.224,2.224,0,0,1,3.075-.384c.064.064.129.128.193.128.7.641,2.691,2.243,6.729,2.372a2.177,2.177,0,0,1,2.114,2.114v9.87A12.541,12.541,0,0,1,50.033,334.768Zm-9.292-19.931v7.5a9.261,9.261,0,0,0,18.521,0v-8.844a13.224,13.224,0,0,1-7.049-2.5c-3.845,4.037-8.843,4.1-11.472,3.845Zm12.176-4.679" transform="translate(-25.553 -250.816)" fill="#231f20"/>
      <path id="Trazado_102618" data-name="Trazado 102618" d="M57.1,295.339a1.67,1.67,0,0,1-1.089-.448,2.964,2.964,0,0,0-2.052-.834,1.092,1.092,0,0,0-.448.064,1.643,1.643,0,0,1-1.859-1.346v-.9a13.225,13.225,0,0,1-7.049-2.5A13.336,13.336,0,0,1,33,293.225a1.632,1.632,0,0,1-1.73.9,2.952,2.952,0,0,0-2.308.577,1.553,1.553,0,0,1-2.243-.257,1.414,1.414,0,0,1-.32-1.025v-5A12.814,12.814,0,0,1,39.215,275.6h3.2a7.78,7.78,0,0,1,5.833,2.627,7.418,7.418,0,0,1,2.691-.449,7.85,7.85,0,0,1,7.818,7.819v8.138a1.684,1.684,0,0,1-1.666,1.6Zm-2.243-4.422a2.279,2.279,0,0,1,.641.129V285.6a4.623,4.623,0,0,0-4.55-4.615,4.4,4.4,0,0,0-2.371.641,1.581,1.581,0,0,1-2.179-.576,4.544,4.544,0,0,0-3.974-2.243h-3.2a9.6,9.6,0,0,0-9.613,9.613v2.563a1.951,1.951,0,0,1,.641-.065,2.112,2.112,0,0,1,2.308-1.025c1.923.384,6.857.9,10.189-3.268a2.225,2.225,0,0,1,3.077-.384c.064.064.128.128.193.128.7.641,2.691,2.243,6.729,2.372a2.177,2.177,0,0,1,2.114,2.114Zm0,0" transform="translate(-17.939 -229.203)" fill="#231f20"/>
      <path id="Trazado_102619" data-name="Trazado 102619" d="M73.538,430.438a1.84,1.84,0,0,1-1.154-.448.89.89,0,0,1-.192-.257,1.145,1.145,0,0,1-.193-.577v-.641a2.264,2.264,0,0,1,.257-.577c.064-.064.128-.191.192-.255a1.67,1.67,0,0,1,2.243,0,.861.861,0,0,1,.193.255.492.492,0,0,1,.128.257.572.572,0,0,1,.065.32v.641c0,.129-.065.193-.065.32-.064.129-.064.193-.128.257s-.128.193-.193.257A1.543,1.543,0,0,1,73.538,430.438Zm0,0" transform="translate(-48.929 -332.259)" fill="#231f20"/>
      <path id="Trazado_102620" data-name="Trazado 102620" d="M73.334,448.773a1.84,1.84,0,0,1-1.154-.448,1.548,1.548,0,0,1,0-2.243,1.67,1.67,0,0,1,2.243,0,1.57,1.57,0,0,1-1.089,2.691Zm0,0" transform="translate(-48.724 -344.762)" fill="#231f20"/>
      <path id="Trazado_102621" data-name="Trazado 102621" d="M73.3,466.637a1.84,1.84,0,0,1-1.154-.448.872.872,0,0,1-.192-.257,2.226,2.226,0,0,1-.257-.577,1.1,1.1,0,0,1,0-.641c0-.128.064-.192.064-.32.064-.128.064-.191.128-.255s.129-.193.193-.257a1.67,1.67,0,0,1,2.243,0,.9.9,0,0,1,.193.257,1.15,1.15,0,0,1,.192.576,1.1,1.1,0,0,1,0,.641c0,.129-.064.193-.064.32-.064.129-.064.193-.128.257s-.129.193-.193.257A1.291,1.291,0,0,1,73.3,466.637Zm0,0" transform="translate(-48.692 -356.859)" fill="#231f20"/>
      <path id="Trazado_102622" data-name="Trazado 102622" d="M73.4,484.839a1.587,1.587,0,0,1-1.6-1.6v-.32a2.225,2.225,0,0,1,.257-.577c.064-.064.128-.193.192-.257a1.67,1.67,0,0,1,2.243,0,1.548,1.548,0,0,1,0,2.243A1.369,1.369,0,0,1,73.4,484.839Zm0,0" transform="translate(-48.793 -369.227)" fill="#231f20"/>
      <path id="Trazado_102623" data-name="Trazado 102623" d="M113,464.944a1.587,1.587,0,0,1-1.6-1.6V447a1.6,1.6,0,0,1,3.2,0v16.342A1.586,1.586,0,0,1,113,464.944Zm0,0" transform="translate(-75.703 -344.591)" fill="#231f20"/>
      <path id="Trazado_102624" data-name="Trazado 102624" d="M32.8,464.944a1.586,1.586,0,0,1-1.6-1.6V447a1.6,1.6,0,0,1,3.2,0v16.342A1.586,1.586,0,0,1,32.8,464.944Zm0,0" transform="translate(-21.202 -344.591)" fill="#231f20"/>
      <path id="Trazado_102625" data-name="Trazado 102625" d="M65.428,391.527H60.173a2.357,2.357,0,0,1-2.179-1.538l-1.731-4.935a1.412,1.412,0,0,1-.064-.512V380.5a1.586,1.586,0,0,1,1.6-1.6,1.283,1.283,0,0,1,.7.193,9.181,9.181,0,0,0,4.1.961,9.788,9.788,0,0,0,4.422-1.09,1.6,1.6,0,0,1,2.179.641,1.715,1.715,0,0,1,.192.77v4.166a1.251,1.251,0,0,1-.064.512l-1.73,4.935a2.357,2.357,0,0,1-2.179,1.538Zm-4.614-3.2h3.973l1.409-4.038v-1.538a12.242,12.242,0,0,1-6.793.064v1.411Zm0,0" transform="translate(-38.191 -299.306)" fill="#231f20"/>
      <path id="Trazado_102626" data-name="Trazado 102626" d="M43.322,430.367H5.9a5.88,5.88,0,0,1-5.9-5.9v-.32l1.218-22.239a5.872,5.872,0,0,1,4.422-5.383l8.266-2.05,4.935-2.436a1.589,1.589,0,0,1,2.114.706c0,.064.065.128.065.192l1.473,4.294h3.974l1.473-4.294a1.593,1.593,0,0,1,2.052-.961c.064,0,.128.064.192.064l4.935,2.436,8.266,2.05a5.872,5.872,0,0,1,4.422,5.383l1.218,22.239a5.888,5.888,0,0,1-5.575,6.216h-.129ZM18.712,395.7l-3.46,1.73c-.129.064-.193.064-.32.129l-8.4,2.05a2.659,2.659,0,0,0-2.05,2.436l-1.218,22.3a2.659,2.659,0,0,0,2.5,2.82H43.258a2.707,2.707,0,0,0,2.691-2.691v-.129l-1.217-22.237a2.66,2.66,0,0,0-2.052-2.436l-8.459-2.114c-.129,0-.193-.065-.32-.129l-3.461-1.73-1.089,3.2a2.27,2.27,0,0,1-2.179,1.538H21.917a2.356,2.356,0,0,1-2.178-1.538Zm0,0" transform="translate(0 -308.219)" fill="#231f20"/>
    </g>
    <path id="Trazado_102627" data-name="Trazado 102627" d="M311.5,4.486A5.612,5.612,0,0,1,307.077.064c0-.064-.064-.064-.128-.064a.063.063,0,0,0-.065.064,5.611,5.611,0,0,1-4.421,4.422c-.065,0-.065.064-.065.128a.064.064,0,0,0,.065.065A5.609,5.609,0,0,1,306.885,9.1c0,.065.065.065.129.065a.063.063,0,0,0,.064-.065A5.611,5.611,0,0,1,311.5,4.679c.064,0,.064-.065.064-.129Zm0,0" transform="translate(-205.501)" fill="#55acd5"/>
  </g>
</svg>
