<svg xmlns="http://www.w3.org/2000/svg" width="317.599" height="273.779" viewBox="0 0 317.599 273.779">
  <g id="Grupo_58664" data-name="Grupo 58664" transform="translate(3757.599 6837.684)">
    <g id="Grupo_58661" data-name="Grupo 58661" transform="translate(-3737.077 -6602.894)">
      <g id="Grupo_57452" data-name="Grupo 57452" transform="translate(0)">
        <g id="Grupo_57449" data-name="Grupo 57449" transform="translate(12.1)">
          <path id="Trazado_101675" data-name="Trazado 101675" d="M361.569,428.137h17.815a.729.729,0,1,0,0-1.458H361.569a.729.729,0,1,0,0,1.458Z" transform="translate(-360.839 -426.679)" fill="#124c64"/>
        </g>
        <g id="Grupo_57450" data-name="Grupo 57450" transform="translate(4.975)">
          <path id="Trazado_101676" data-name="Trazado 101676" d="M356.919,428.137h4.453a.729.729,0,1,0,0-1.458h-4.453a.729.729,0,0,0,0,1.458Z" transform="translate(-356.191 -426.679)" fill="#124c64"/>
        </g>
        <g id="Grupo_57451" data-name="Grupo 57451">
          <path id="Trazado_101677" data-name="Trazado 101677" d="M353.676,428.137h2.45a.729.729,0,0,0,0-1.458h-2.45a.729.729,0,1,0,0,1.458Z" transform="translate(-352.946 -426.679)" fill="#124c64"/>
        </g>
      </g>
    </g>
    <g id="Grupo_58663" data-name="Grupo 58663" transform="translate(-3505.106 -6817.645)">
      <g id="Grupo_57455" data-name="Grupo 57455" transform="translate(0 5.85)">
        <path id="Trazado_101680" data-name="Trazado 101680" d="M529.067,365.128a4.83,4.83,0,1,1,4.831,4.831A4.835,4.835,0,0,1,529.067,365.128Zm1.456,0a3.373,3.373,0,1,0,3.374-3.373A3.377,3.377,0,0,0,530.523,365.128Z" transform="translate(-529.067 -360.299)" fill="#124c64"/>
      </g>
      <g id="Grupo_57464" data-name="Grupo 57464" transform="translate(24.276)">
        <g id="Grupo_57462" data-name="Grupo 57462">
          <path id="Trazado_101685" data-name="Trazado 101685" d="M545.63,361.6a.721.721,0,0,0,.515-.213l3.665-3.665a.728.728,0,0,0-1.03-1.03l-3.665,3.665a.728.728,0,0,0,.515,1.243Z" transform="translate(-544.902 -356.483)" fill="#124c64"/>
        </g>
        <g id="Grupo_57463" data-name="Grupo 57463">
          <path id="Trazado_101686" data-name="Trazado 101686" d="M549.3,361.6a.728.728,0,0,0,.515-1.243l-3.665-3.665a.729.729,0,0,0-1.03,1.032l3.665,3.664A.721.721,0,0,0,549.3,361.6Z" transform="translate(-544.902 -356.483)" fill="#124c64"/>
        </g>
      </g>
    </g>
    <g id="Grupo_57582" data-name="Grupo 57582" transform="translate(-3726.208 -6834.073)" opacity="0.34">
      <path id="Trazado_101784" data-name="Trazado 101784" d="M537.577,268.829c3.708-21.62-5.362-43.416-21.624-57.379-21.606-18.55-53.373-23.533-76.52-40.368a80.865,80.865,0,0,1-31.618-48.921c-1.949-9.5-2.27-19.6-6.618-28.193-3.85-7.609-10.663-13.479-18.467-17.471-22.964-11.746-55.268-6.288-74.972,12.67-10.549,10.149-17.352,23.281-21.767,36.658-9.119,27.636-8.6,57.4,1.464,83.313,5.615,14.46,14.057,27.632,23.572,39.9,20.735,26.729,47.2,49.763,79.241,63.6,38.352,16.56,93.36,23.68,128.475-9.559C528.571,293.768,535.4,281.5,537.577,268.829Z" transform="translate(-279.511 -70.326)" fill="#ffcd91"/>
      <path id="Trazado_101785" data-name="Trazado 101785" d="M32.373,16.4c2.948-.376,6.463-1.274,7.565-3.953a5.061,5.061,0,0,0,.143-3.11C38.912,4.488,33.392,2.119,28.263,1.09A57.052,57.052,0,0,0,13.575.11,21.884,21.884,0,0,0,6.092,1.636,9.714,9.714,0,0,0,.736,6.827C-4.978,22.484,24.2,17.449,32.373,16.4Z" transform="matrix(0.891, 0.454, -0.454, 0.891, 217.16, 101.945)" fill="#ffcd91"/>
    </g>
    <g id="Grupo_58660" data-name="Grupo 58660" transform="translate(-3606.783 -6741.958)">
      <g id="Grupo_55823" data-name="Grupo 55823">
        <g id="Grupo_55803" data-name="Grupo 55803" transform="translate(0 69.175)">
          <g id="Grupo_55792" data-name="Grupo 55792">
            <path id="Trazado_100810" data-name="Trazado 100810" d="M-49.039,866.363c-6.473,0-17.321-1.05-22.926-7.471-3.358-3.848-4.374-9.087-3.02-15.571,1.894-9.057-1.378-11.707-5.908-15.373-1.27-1.028-2.584-2.092-3.914-3.4-6.4-6.267-5.474-9.509-3.632-15.965.822-2.892-.482-3.83-2.456-5.25-2.168-1.56-4.868-3.5-5.734-8.745a16.2,16.2,0,0,1,3.314-13.4,15.69,15.69,0,0,1,12.235-5.213h.1c7.555.036,8.915,5.547,10.009,9.973.524,2.13,1.022,4.139,2.08,5.385a7.645,7.645,0,0,0,4.278,2.262c2.768.76,5.91,1.622,8.217,7.933a27.164,27.164,0,0,1,1.418,10.583c-.072,3.9-.12,6.469,3.568,8.525a23.081,23.081,0,0,1,3.9,2.846l-.606.688a22.087,22.087,0,0,0-3.744-2.73c-4.17-2.324-4.11-5.421-4.038-9.345a26.031,26.031,0,0,0-1.362-10.251c-2.148-5.867-4.918-6.628-7.6-7.363a8.491,8.491,0,0,1-4.734-2.552c-1.2-1.41-1.72-3.524-2.272-5.762-1.122-4.544-2.282-9.241-9.121-9.275h-.1a14.786,14.786,0,0,0-11.537,4.894,15.28,15.28,0,0,0-3.1,12.655c.8,4.872,3.33,6.69,5.364,8.151s3.8,2.734,2.8,6.247c-1.794,6.3-2.612,9.171,3.392,15.057,1.3,1.274,2.6,2.324,3.852,3.34,4.6,3.726,8.235,6.669,6.227,16.273-1.292,6.188-.348,11.159,2.812,14.781,6.763,7.751,21.71,7.333,26.126,7.025l.064.916C-46.007,866.3-47.379,866.363-49.039,866.363Z" transform="translate(96.895 -775.973)" fill="#124c64"/>
          </g>
          <g id="Grupo_55797" data-name="Grupo 55797" transform="translate(12.543 20.819)">
            <g id="Grupo_55794" data-name="Grupo 55794" transform="translate(3.909)">
              <g id="Grupo_55793" data-name="Grupo 55793">
                <path id="Trazado_100811" data-name="Trazado 100811" d="M-64.786,828.9q-7.9-16.076-16.7-31.689-2.976-5.294-6.05-10.531a.608.608,0,0,0-1.048.614q9.857,16.814,18.722,34.183,2.04,4,4.022,8.035c.344.7,1.394.088,1.05-.612Z" transform="translate(88.668 -786.384)" fill="#124c64"/>
              </g>
            </g>
            <g id="Grupo_55796" data-name="Grupo 55796" transform="translate(0 18.984)">
              <g id="Grupo_55795" data-name="Grupo 55795">
                <path id="Trazado_100812" data-name="Trazado 100812" d="M-90.043,797.1l13.587,1.408,1.956.2c.776.08.772-1.136,0-1.216l-13.587-1.408-1.956-.2c-.776-.08-.77,1.136,0,1.216Z" transform="translate(90.623 -795.876)" fill="#124c64"/>
              </g>
            </g>
          </g>
          <g id="Grupo_55802" data-name="Grupo 55802" transform="translate(13.395 7.329)">
            <g id="Grupo_55798" data-name="Grupo 55798" transform="translate(0 23.33)">
              <path id="Trazado_100813" data-name="Trazado 100813" d="M-87.387,796.3a2.671,2.671,0,0,1-2.81-2.5,2.671,2.671,0,0,1,2.81-2.5,2.669,2.669,0,0,1,2.808,2.5A2.669,2.669,0,0,1-87.387,796.3Zm0-4.074a1.758,1.758,0,0,0-1.892,1.576,1.759,1.759,0,0,0,1.892,1.578A1.757,1.757,0,0,0-85.5,793.8,1.756,1.756,0,0,0-87.387,792.224Z" transform="translate(90.197 -791.304)" fill="#124c64"/>
            </g>
            <g id="Grupo_55799" data-name="Grupo 55799" transform="translate(5.549 3.534)">
              <path id="Trazado_100814" data-name="Trazado 100814" d="M-84.616,787.024a2.8,2.8,0,0,1-1.4-.374,2.8,2.8,0,0,1-1.308-1.706,2.779,2.779,0,0,1,.28-2.132,2.792,2.792,0,0,1,1.706-1.31,2.792,2.792,0,0,1,2.13.28,2.815,2.815,0,0,1,1.03,3.84h0A2.81,2.81,0,0,1-84.616,787.024Zm.008-4.7a1.9,1.9,0,0,0-.494.066,1.876,1.876,0,0,0-1.146.882,1.869,1.869,0,0,0-.19,1.432,1.88,1.88,0,0,0,.88,1.15,1.893,1.893,0,0,0,2.584-.692h0a1.9,1.9,0,0,0-.692-2.584A1.88,1.88,0,0,0-84.608,782.325Z" transform="translate(87.422 -781.405)" fill="#124c64"/>
            </g>
            <g id="Grupo_55800" data-name="Grupo 55800" transform="translate(13.541 57.843)">
              <path id="Trazado_100815" data-name="Trazado 100815" d="M-80.038,814.556a3.212,3.212,0,0,1-3.388-3,3.214,3.214,0,0,1,3.388-3,3.215,3.215,0,0,1,3.388,3A3.214,3.214,0,0,1-80.038,814.556Zm0-5.076a2.3,2.3,0,0,0-2.47,2.08,2.3,2.3,0,0,0,2.47,2.076,2.3,2.3,0,0,0,2.468-2.076A2.3,2.3,0,0,0-80.038,809.48Z" transform="translate(83.426 -808.562)" fill="#124c64"/>
            </g>
            <g id="Grupo_55801" data-name="Grupo 55801" transform="translate(3.654)">
              <path id="Trazado_100816" data-name="Trazado 100816" d="M-86.866,782.644a1.506,1.506,0,0,1-1.5-1.5,1.506,1.506,0,0,1,1.5-1.5,1.506,1.506,0,0,1,1.5,1.5A1.506,1.506,0,0,1-86.866,782.644Zm0-2.088a.584.584,0,0,0-.584.586.583.583,0,0,0,.584.584.585.585,0,0,0,.584-.584A.585.585,0,0,0-86.866,780.556Z" transform="translate(88.37 -779.638)" fill="#124c64"/>
            </g>
          </g>
        </g>
        <g id="Grupo_55807" data-name="Grupo 55807" transform="translate(88.105 77.153)">
          <g id="Grupo_55804" data-name="Grupo 55804">
            <path id="Trazado_100817" data-name="Trazado 100817" d="M-33.881,862.113c-7.089,0-13.417-.72-15.515-2.216-2.978-2.122-4.256-9-2.908-15.657.98-4.836,4.886-16.449,19.978-19.82,8.965-2,9.741-5.828,10.815-11.123a44.784,44.784,0,0,1,1.136-4.7c2.5-7.973,5.838-8.483,12.491-9.5,3-.458,3.4-2.632,3.964-5.641.584-3.132,1.312-7.031,5.546-9.847,5.076-3.37,10.751-4.5,15.175-3,3.812,1.29,6.679,4.45,8.291,9.139,2.46,7.147-1.666,11.507-4.98,15.011a16.376,16.376,0,0,0-3.212,4.111c-.664,1.556-.372,3.334-.034,5.394.578,3.518,1.3,7.9-3.274,12.443-3.368,3.348-6.8,3.934-9.551,4.4-2.962.5-4.75.808-4.794,4.308-.1,7.973-3.564,21.063-10.7,23.836C-16.26,861.129-25.591,862.111-33.881,862.113ZM12.646,780.88a19.426,19.426,0,0,0-10.509,3.5c-3.912,2.6-4.572,6.134-5.154,9.251-.558,3-1.086,5.828-4.726,6.382-6.473.988-9.425,1.44-11.757,8.869a44.382,44.382,0,0,0-1.112,4.6c-1.1,5.424-1.966,9.705-11.513,11.839-14.567,3.252-18.334,14.445-19.278,19.106-1.412,6.969.222,13.071,2.542,14.727h0c4.29,3.058,28.546,2.572,37.079-.75C-4.8,855.689-1.751,842.09-1.669,835.413c.054-4.266,2.6-4.7,5.558-5.2,2.626-.45,5.9-1.006,9.057-4.15,4.236-4.212,3.588-8.161,3.016-11.645-.348-2.108-.674-4.1.1-5.9a16.942,16.942,0,0,1,3.386-4.38c3.31-3.5,7.057-7.459,4.78-14.081-1.54-4.474-4.136-7.355-7.717-8.567A12.034,12.034,0,0,0,12.646,780.88Z" transform="translate(52.839 -779.962)" fill="#124c64"/>
          </g>
          <g id="Grupo_55806" data-name="Grupo 55806" transform="translate(10.546 21.45)">
            <g id="Grupo_55805" data-name="Grupo 55805">
              <path id="Trazado_100818" data-name="Trazado 100818" d="M-46.555,851.7c3.114-3.718,6.349-7.337,9.473-11.049q11.639-13.844,22.738-28.128,8.06-10.364,15.819-20.958c.462-.632-.592-1.238-1.05-.614q-13.04,17.831-26.956,35-8.657,10.7-17.631,21.148c-1.08,1.252-2.192,2.476-3.254,3.744-.5.594.356,1.458.86.858Z" transform="translate(47.565 -790.688)" fill="#124c64"/>
            </g>
          </g>
        </g>
        <g id="Grupo_55822" data-name="Grupo 55822" transform="translate(39.332)">
          <g id="Grupo_55808" data-name="Grupo 55808">
            <path id="Trazado_100819" data-name="Trazado 100819" d="M-22.019,900.922l-42.824-.734-.132-.128C-70.683,894.5-83,880.026-74.091,865.739c4.564-7.319,9.673-10.371,13.781-12.825,6.008-3.588,9.633-5.756,7.133-17.9l-.52-2.51c-4.052-19.492-6.283-30.231,14.277-38.869,15.339-6.443,14.923-12.527,14.4-20.228a39.288,39.288,0,0,1,.084-8.771,26.966,26.966,0,0,1,12.881-19c7.673-4.672,16.917-5.526,26.03-2.4,5.056,1.734,8.569,6.527,9.889,13.5,2.052,10.841-1.562,24.54-7.887,29.916-4.326,3.674-2.418,7.1.224,11.847,3.22,5.786,7.225,12.985,2.472,24.1C14.262,832.9,6.435,836.289.147,839.015c-6.423,2.782-11.061,4.792-10.313,12.351.228,2.328.56,4.728.908,7.267.226,1.66.46,3.346.666,5.048l-.91.11c-.208-1.694-.438-3.376-.666-5.031-.35-2.55-.68-4.958-.914-7.3-.812-8.225,4.6-10.571,10.863-13.285,6.459-2.8,13.781-5.969,18.047-15.943,4.578-10.7.692-17.679-2.432-23.286-2.638-4.74-4.914-8.833-.016-12.993,6.107-5.192,9.579-18.492,7.581-29.048-.888-4.692-3.22-10.723-9.285-12.8-8.845-3.032-17.815-2.206-25.254,2.32a26.057,26.057,0,0,0-12.451,18.351,38.837,38.837,0,0,0-.076,8.577c.528,7.747.984,14.439-14.959,21.136-19.864,8.345-17.815,18.2-13.733,37.835l.52,2.512c2.63,12.783-1.644,15.337-7.563,18.872-4.022,2.4-9.025,5.391-13.473,12.523-8.489,13.615,3.246,27.554,8.849,33.051L-22,900Z" transform="translate(77.228 -741.383)" fill="#124c64"/>
          </g>
          <g id="Grupo_55818" data-name="Grupo 55818" transform="translate(20.154 15.141)">
            <g id="Grupo_55810" data-name="Grupo 55810">
              <g id="Grupo_55809" data-name="Grupo 55809">
                <path id="Trazado_100820" data-name="Trazado 100820" d="M-66.044,892.16q2.6-6,5.214-11.989,6.434-14.765,12.915-29.509,8.261-18.8,16.621-37.555,8.1-18.146,16.371-36.211c3.884-8.429,7.751-16.887,12.009-25.136.326-.632.656-1.264.992-1.89.37-.69-.678-1.3-1.048-.614-4.074,7.6-7.655,15.483-11.281,23.3C-19.69,784.287-25,796.074-30.279,807.873q-8.462,18.913-16.8,37.883-6.827,15.512-13.6,31.047c-2.112,4.84-4.34,9.649-6.327,14.541-.028.068-.058.136-.088.2-.306.71.74,1.33,1.05.614Z" transform="translate(67.15 -748.954)" fill="#124c64"/>
              </g>
            </g>
            <g id="Grupo_55815" data-name="Grupo 55815" transform="translate(10.517 51.623)">
              <g id="Grupo_55812" data-name="Grupo 55812" transform="translate(28.862)">
                <g id="Grupo_55811" data-name="Grupo 55811">
                  <path id="Trazado_100821" data-name="Trazado 100821" d="M-46.874,777.564l25.028-1.384,3.562-.2c.778-.042.782-1.258,0-1.214q-12.515.693-25.028,1.384l-3.562.2c-.778.042-.782,1.258,0,1.214Z" transform="translate(47.458 -774.767)" fill="#124c64"/>
                </g>
              </g>
              <g id="Grupo_55814" data-name="Grupo 55814" transform="translate(0 64.159)">
                <g id="Grupo_55813" data-name="Grupo 55813">
                  <path id="Trazado_100822" data-name="Trazado 100822" d="M-61.311,810.606l19.778-2.226,2.77-.31c.768-.088.778-1.3,0-1.216l-19.778,2.226q-1.386.153-2.77.31c-.768.088-.778,1.3,0,1.216Z" transform="translate(61.891 -806.85)" fill="#124c64"/>
                </g>
              </g>
            </g>
            <g id="Grupo_55817" data-name="Grupo 55817" transform="translate(8.362 47.109)">
              <g id="Grupo_55816" data-name="Grupo 55816">
                <path id="Trazado_100823" data-name="Trazado 100823" d="M-62.91,773.439q2.841,6.381,5.684,12.761,4.512,10.127,9.023,20.252,1.044,2.349,2.092,4.7c.316.714,1.364.1,1.048-.614q-2.841-6.381-5.686-12.759-4.509-10.127-9.021-20.252l-2.092-4.7c-.318-.714-1.364-.1-1.048.612Z" transform="translate(62.968 -772.51)" fill="#124c64"/>
              </g>
            </g>
          </g>
          <g id="Grupo_55819" data-name="Grupo 55819" transform="translate(62.609 13.212)">
            <path id="Trazado_100824" data-name="Trazado 100824" d="M-42.492,757.336a3.364,3.364,0,0,1-1.91-.574c-1.812-1.234-2.034-4.076-.5-6.335a5.623,5.623,0,0,1,2.88-2.23,3.622,3.622,0,0,1,3.2.366A3.613,3.613,0,0,1-37.31,751.4a5.637,5.637,0,0,1-1.018,3.5h0a5.631,5.631,0,0,1-2.88,2.23A4.193,4.193,0,0,1-42.492,757.336Zm1.754-8.429a3.272,3.272,0,0,0-1,.166,4.677,4.677,0,0,0-2.4,1.87c-1.254,1.842-1.14,4.112.252,5.06a2.7,2.7,0,0,0,2.4.25,4.713,4.713,0,0,0,2.4-1.87h0a4.71,4.71,0,0,0,.862-2.922,2.708,2.708,0,0,0-1.114-2.138A2.446,2.446,0,0,0-40.738,748.907Z" transform="translate(45.92 -747.989)" fill="#124c64"/>
          </g>
          <g id="Grupo_55820" data-name="Grupo 55820" transform="translate(66.458 28.542)">
            <path id="Trazado_100825" data-name="Trazado 100825" d="M-41.572,760.5A2.427,2.427,0,0,1-44,758.081a2.429,2.429,0,0,1,2.424-2.426,2.431,2.431,0,0,1,2.426,2.426A2.429,2.429,0,0,1-41.572,760.5Zm0-3.93a1.506,1.506,0,0,0-1.5,1.506,1.505,1.505,0,0,0,1.5,1.506,1.508,1.508,0,0,0,1.508-1.506A1.51,1.51,0,0,0-41.572,756.575Z" transform="translate(43.996 -755.655)" fill="#124c64"/>
          </g>
          <g id="Grupo_55821" data-name="Grupo 55821" transform="translate(77.003 77.388)">
            <path id="Trazado_100826" data-name="Trazado 100826" d="M-34.445,788.637a4.284,4.284,0,0,1-4.278-4.28,4.284,4.284,0,0,1,4.278-4.277,4.284,4.284,0,0,1,4.28,4.277A4.285,4.285,0,0,1-34.445,788.637Zm0-7.639a3.364,3.364,0,0,0-3.36,3.359,3.365,3.365,0,0,0,3.36,3.362,3.364,3.364,0,0,0,3.36-3.362A3.363,3.363,0,0,0-34.445,781Z" transform="translate(38.723 -780.08)" fill="#124c64"/>
          </g>
        </g>
      </g>
    </g>
    <g id="Grupo_58658" data-name="Grupo 58658" transform="translate(-3726.208 -6825.395)">
      <g id="Grupo_58542" data-name="Grupo 58542" transform="translate(11 231.991)">
        <ellipse id="Elipse_238" data-name="Elipse 238" cx="125.249" cy="14.75" rx="125.249" ry="14.75" transform="translate(0 0)" fill="#dcbfff"/>
      </g>
      <g id="Grupo_58655" data-name="Grupo 58655" transform="translate(17.068 0)">
        <g id="Grupo_58625" data-name="Grupo 58625" transform="translate(2.639 47.395)">
          <g id="Grupo_58616" data-name="Grupo 58616" transform="translate(0 2.217)">
            <path id="Trazado_102400" data-name="Trazado 102400" d="M1319.779,472.507H1207.25a2.541,2.541,0,0,1-2.549-2.527V452.614a2.541,2.541,0,0,1,2.549-2.527h112.529a2.541,2.541,0,0,1,2.549,2.527V469.98A2.541,2.541,0,0,1,1319.779,472.507Zm-112.529-22.18a2.3,2.3,0,0,0-2.306,2.286V469.98a2.3,2.3,0,0,0,2.306,2.286h112.529a2.3,2.3,0,0,0,2.306-2.286V452.614a2.3,2.3,0,0,0-2.306-2.286Z" transform="translate(-1204.701 -450.087)" fill="#12263f"/>
          </g>
          <g id="Grupo_58620" data-name="Grupo 58620" transform="translate(0.844)">
            <path id="Trazado_102401" data-name="Trazado 102401" d="M1262.115,487.484a11.938,11.938,0,0,1-3.242,2.371,27.075,27.075,0,0,1-5.286,2.057l-.073.019s0,.024.007.075c0,.1.015.3.027.6l0,.075c.054,1.078.156,3.257.261,6.071.149,4.076,2.018,19.638,2.018,19.638a35.834,35.834,0,0,1-6.881,0c-3.664-.371-13.238.147-18.922-1.112a28.21,28.21,0,0,0-5.612-.558,56.6,56.6,0,0,0-8.225.558,29.586,29.586,0,0,1-.6-5.557,63.584,63.584,0,0,1,.973-10c.212-1.263.424-5.111.529-7.23.036-.683.058-1.186.066-1.368,0-.047,0-.073,0-.073l-.073-.059-.751-.608s-5.161-1.185-7.179-2.815-3.964-3.41-3.964-3.41.185-.491.508-1.334c1.661-4.357,6.964-18.126,9.106-22.185.034-.064.066-.127.1-.186.113-.207.215-.385.307-.527,1.407-2.188,4.394-4.345,6.8-5.816.5-.312.981-.586,1.412-.831.578-.322,1.074-.583,1.439-.764a17.117,17.117,0,0,0,9.425,3.186,12.3,12.3,0,0,0,8.825-2.815s.676.3,1.627.8c.368.195.778.424,1.207.673v0a22.529,22.529,0,0,1,2.252,1.488c2.244,1.7,4.563,4.595,6.955,10.67,1.834,4.654,4.939,13.311,6.294,17.107C1261.868,486.779,1262.115,487.484,1262.115,487.484Z" transform="translate(-1205.199 -444.799)" fill="#2ab9c4"/>
            <path id="Trazado_102402" data-name="Trazado 102402" d="M1239.057,456.351v0c-.52,2.62-1.712,7.184-3.955,10.274-2.991,4.12-10.77,4.108-14.958,1-3.68-2.734-4.762-8.787-5.02-11.523.5-.312.982-.586,1.412-.831.578-.322,1.074-.583,1.439-.764a17.118,17.118,0,0,0,9.425,3.186,12.3,12.3,0,0,0,8.825-2.815s.676.3,1.627.8C1238.218,455.873,1238.628,456.1,1239.057,456.351Z" transform="translate(-1198.304 -444.799)" fill="#95f7ff"/>
            <path id="Trazado_102403" data-name="Trazado 102403" d="M1237.271,455.678c-.574,2.378-1.764,6.518-3.422,8.315-2.393,2.593-8.827,3.928-12.64.89-3.449-2.749-4.761-7.013-5.254-9.611.578-.322,1.074-.583,1.439-.764a16.647,16.647,0,0,0,7.13,2.944,17.141,17.141,0,0,0,2.295.242,14.682,14.682,0,0,0,2.393-.1,11.62,11.62,0,0,0,6.432-2.718S1236.321,455.177,1237.271,455.678Z" transform="translate(-1197.725 -444.799)" fill="#21949d"/>
            <path id="Trazado_102404" data-name="Trazado 102404" d="M1217.24,478.987l-.074,1.63-.823-.668s-5.161-1.185-7.179-2.815-3.964-3.41-3.964-3.41.185-.491.508-1.334a25.236,25.236,0,0,0,6.6,4.076C1215.446,477.8,1215.371,478.469,1217.24,478.987Z" transform="translate(-1205.199 -432.374)" fill="#95f7ff"/>
            <path id="Trazado_102405" data-name="Trazado 102405" d="M1233.768,479.176l-.149-2.149a15.864,15.864,0,0,0,8.089-4.162c.414,1.159.661,1.864.661,1.864C1239.676,477.693,1233.768,479.176,1233.768,479.176Z" transform="translate(-1185.453 -432.044)" fill="#95f7ff"/>
            <path id="Trazado_102406" data-name="Trazado 102406" d="M1239.285,487.2a14.668,14.668,0,0,1-.469,2.995c-.748,2.668-1.047,4.966-1.869,4.966s-5.984.369-7.928,0-3.664-.371-3.515-1.483c.107-.791.517-5.644.744-8.371.09-1.1.152-1.856.152-1.856s7.928,1.927,12.865.815A21.344,21.344,0,0,1,1239.285,487.2Z" transform="translate(-1191.099 -424.687)" fill="#31d9e7"/>
            <path id="Trazado_102407" data-name="Trazado 102407" d="M1233.884,457.529h0l-3.773-2.457h-3.079c.051-.351.654-4.806-.38-5.988a.835.835,0,0,0-.644-.305,1.393,1.393,0,0,0-1.071.449,3.609,3.609,0,0,0-.581,2.4.129.129,0,0,0,.144.119.131.131,0,0,0,.119-.142,3.434,3.434,0,0,1,.515-2.2,1.124,1.124,0,0,1,.875-.363.561.561,0,0,1,.442.215c.976,1.112.324,5.75.317,5.8l0,.017h-4.2l-4.067,2.717c-.48.205-2.542,1.463-2.542,1.463l.432,1.832,2.627-1.28h14.8l2.993,1.62.463-1.766Z" transform="translate(-1197.725 -448.779)" fill="#12263f"/>
            <path id="Trazado_102408" data-name="Trazado 102408" d="M1238.976,487.2a30.185,30.185,0,0,1-13.038-1.893c.09-1.1.152-1.856.152-1.856s7.928,1.927,12.865.815A21.357,21.357,0,0,1,1238.976,487.2Z" transform="translate(-1190.79 -424.687)" fill="#95f7ff"/>
            <path id="Trazado_102409" data-name="Trazado 102409" d="M1225.7,456.39v1.678h-4.688v-1.824a17.125,17.125,0,0,0,2.295.242A14.665,14.665,0,0,0,1225.7,456.39Z" transform="translate(-1194.212 -443.592)" fill="#f9e478"/>
            <g id="Grupo_58617" data-name="Grupo 58617" transform="translate(9.614 17.646)">
              <path id="Trazado_102410" data-name="Trazado 102410" d="M1211.723,463.37a.073.073,0,0,1-.069.078h-.007a.077.077,0,0,1-.075-.069,20.092,20.092,0,0,0-.7-4c.034-.064.066-.127.1-.186A20.515,20.515,0,0,1,1211.723,463.37Z" transform="translate(-1210.872 -459.191)" fill="#21949d"/>
            </g>
            <g id="Grupo_58618" data-name="Grupo 58618" transform="translate(11.892 32.162)">
              <path id="Trazado_102411" data-name="Trazado 102411" d="M1212.291,483.911h-.005a.073.073,0,0,1-.07-.078c.009-.142.887-14.3.082-15.97a.075.075,0,1,1,.135-.064c.822,1.7-.033,15.458-.068,16.043A.074.074,0,0,1,1212.291,483.911Z" transform="translate(-1212.216 -467.756)" fill="#21949d"/>
            </g>
            <g id="Grupo_58619" data-name="Grupo 58619" transform="translate(46.47 27.641)">
              <path id="Trazado_102412" data-name="Trazado 102412" d="M1234.464,484.654a.076.076,0,0,1-.075-.069c-.005-.066-.476-6.627-.673-9.833-.21-3.449-.81-7.772-1.1-9.577a.073.073,0,0,1,.061-.085.075.075,0,0,1,.086.063c.286,1.807.886,6.137,1.1,9.591.2,3.2.668,9.765.673,9.831a.071.071,0,0,1-.069.078Z" transform="translate(-1232.619 -465.089)" fill="#21949d"/>
            </g>
          </g>
          <g id="Grupo_58624" data-name="Grupo 58624" transform="translate(63.041 0.7)">
            <path id="Trazado_102413" data-name="Trazado 102413" d="M1294.335,508.18l-.068,0,.146.9,1.82,11.267H1289.7c-1.412,0-4.416.025-7.811.07-4.706.057-10.162.156-13.177.278-1.429.058-2.7.142-3.871.225l-.107.008-.141.008a53.487,53.487,0,0,1-8.1.244c-3.93-.278-5.193-.973-5.193-.973l-.071-11.128v-.069a.427.427,0,0,0-.069-.022,30.568,30.568,0,0,0-3.861-.6c-.268-.032-.526-.066-.773-.105a18.847,18.847,0,0,1-4.632-1.215c-.212-.069,7.159-38.392,10.318-42.636a33.392,33.392,0,0,1,8.67-7.691c.876-.6,1.778-1.2,2.7-1.837l.115-.005.227-.009,14.609-.542s4.124,1.918,6.3,3.293a18.839,18.839,0,0,1,5.422,4.913,16.986,16.986,0,0,1,1.161,2.529l.066.19c1.466,3.929,2.852,9.876,3.9,13.9,1.334,5.147,6.316,28.1,6.316,28.1a29.178,29.178,0,0,1-3.371.568C1296.438,508.068,1294.694,508.163,1294.335,508.18Z" transform="translate(-1241.899 -445.608)" fill="#f9e478"/>
            <path id="Trazado_102414" data-name="Trazado 102414" d="M1270.627,455.057a50.139,50.139,0,0,1-1.68,7.083c-.271.72-.851,2.1-1.561,3.751-2.024,4.713-5.106,11.62-5.106,11.62s-2.317-6.12-4.073-10.989c-.151-.419-.3-.852-.454-1.3a73.541,73.541,0,0,1-2.852-10.33l14.609-.542A9.763,9.763,0,0,0,1270.627,455.057Z" transform="translate(-1232.864 -445.608)" fill="#afa054"/>
            <path id="Trazado_102415" data-name="Trazado 102415" d="M1247.575,480.327s3.229.347,4.632.486,1.756.695,1.685,2.017.212,4.313-.492,4.73-5.825.348-5.825.348Z" transform="translate(-1237.954 -427.56)" fill="#d4c266"/>
            <path id="Trazado_102416" data-name="Trazado 102416" d="M1275.343,479.916c-.351.141-4.14.488-6.176.7s-2.386-.069-2.457,1.53-.21,3.895.351,4.451,3.229.208,5.545,0a29.943,29.943,0,0,0,3.791-.556Z" transform="translate(-1224.707 -427.845)" fill="#d4c266"/>
            <path id="Trazado_102417" data-name="Trazado 102417" d="M1253.582,475.2a1.12,1.12,0,1,1,1.12,1.108A1.115,1.115,0,0,1,1253.582,475.2Z" transform="translate(-1233.781 -431.892)" fill="#9d73d8"/>
            <path id="Trazado_102418" data-name="Trazado 102418" d="M1256.562,480a.913.913,0,1,1,.913.905A.908.908,0,0,1,1256.562,480Z" transform="translate(-1231.71 -428.415)" fill="#9d73d8"/>
            <path id="Trazado_102419" data-name="Trazado 102419" d="M1262.319,479.754a.913.913,0,1,1,.914.9A.91.91,0,0,1,1262.319,479.754Z" transform="translate(-1227.71 -428.587)" fill="#9d73d8"/>
            <ellipse id="Elipse_240" data-name="Elipse 240" cx="0.912" cy="0.904" rx="0.912" ry="0.904" transform="translate(25.695 60.352)" fill="#9d73d8"/>
            <path id="Trazado_102420" data-name="Trazado 102420" d="M1262.319,485.308a.913.913,0,1,1,.914.9A.91.91,0,0,1,1262.319,485.308Z" transform="translate(-1227.71 -424.728)" fill="#9d73d8"/>
            <path id="Trazado_102421" data-name="Trazado 102421" d="M1266.829,455.77h-3.218c.052-.366.683-5.025-.4-6.259a.866.866,0,0,0-.673-.319,1.455,1.455,0,0,0-1.119.47,3.777,3.777,0,0,0-.608,2.508.136.136,0,0,0,.151.124.137.137,0,0,0,.125-.149,3.574,3.574,0,0,1,.537-2.3,1.173,1.173,0,0,1,.914-.38.6.6,0,0,1,.464.224c1.019,1.164.337,6.011.33,6.061v.019h-4.393l-4.25,2.569s.01,2,.039,2.376H1270.7c.046-.646.071-2.376.071-2.376Z" transform="translate(-1233.01 -449.192)" fill="#12263f"/>
            <path id="Trazado_102422" data-name="Trazado 102422" d="M1264.55,477.343l-4.493,9.6s-.034-.059-.1-.168c-.341-.569-1.491-2.52-2.547-4.428-.7-1.266-1.356-2.512-1.706-3.334-.983-2.295-4.071-10.015-4.071-10.015l3.438-1.739-2.317-.764s.646-6.816,1.371-9.918c.876-.6,2.686-1.988,2.686-1.988l7.068,20.792.547,1.607Z" transform="translate(-1235.134 -445.442)" fill="#d4c266"/>
            <path id="Trazado_102423" data-name="Trazado 102423" d="M1277.251,465.763s-12.635,18.675-15.09,21.18a44.033,44.033,0,0,1-7.088,5.283c.042-.095,1.047-2.285,2.5-5.45v0c1.266-2.766,2.869-6.278,4.469-9.782v0c3.181-6.969,6.344-13.926,6.789-15.014a27.447,27.447,0,0,0,1.68-7.384c.183.1.581.3.8.407.575.286,2.761,1.454,4.937,2.827a24.645,24.645,0,0,1-.914,3.595,13.819,13.819,0,0,1-2.573,4.034Z" transform="translate(-1232.745 -445.442)" fill="#d4c266"/>
            <g id="Grupo_58621" data-name="Grupo 58621" transform="translate(9.27 20.252)">
              <path id="Trazado_102424" data-name="Trazado 102424" d="M1247.438,504.368h0a.07.07,0,0,1-.066-.075c.012-.185,1.152-18.461,1.291-20.382.03-.412.107-1.315.213-2.568.4-4.664,1.132-13.345,1.022-15.128l-.02-.324a13,13,0,0,0-.888-4.659.068.068,0,0,1,.042-.088.07.07,0,0,1,.09.042,13.061,13.061,0,0,1,.9,4.7l.02.324c.11,1.793-.627,10.481-1.024,15.148-.1,1.2-.183,2.156-.212,2.566-.139,1.918-1.281,20.2-1.291,20.38A.072.072,0,0,1,1247.438,504.368Z" transform="translate(-1247.368 -461.142)" fill="#d4c266"/>
            </g>
            <g id="Grupo_58622" data-name="Grupo 58622" transform="translate(22.164 46.714)">
              <path id="Trazado_102425" data-name="Trazado 102425" d="M1255.652,505.368l-.141.009c-.124-2.746-.444-10.187-.441-12.762,0-.925-.017-2.559-.037-4.451-.051-4.769-.115-10.7.039-11.357a.07.07,0,0,1,.136.034c-.149.634-.081,6.813-.034,11.323.02,1.888.035,3.525.035,4.451C1255.208,495.186,1255.529,502.619,1255.652,505.368Z" transform="translate(-1254.976 -476.755)" fill="#d4c266"/>
            </g>
            <g id="Grupo_58623" data-name="Grupo 58623" transform="translate(47.454 19.477)">
              <path id="Trazado_102426" data-name="Trazado 102426" d="M1275.018,504.6a.073.073,0,0,1-.059.081h-.01a.073.073,0,0,1-.071-.059c-.019-.119-1.981-12.008-2.856-17.19-.92-5.449-2.173-16.477-2.122-19.543.044-2.735.976-4.791,2.056-7.172l.017-.037.066.19a16.832,16.832,0,0,0-2,7.02c-.051,3.059,1.2,14.074,2.119,19.521.739,4.383,2.261,13.568,2.722,16.365Z" transform="translate(-1269.898 -460.684)" fill="#d4c266"/>
            </g>
            <rect id="Rect치ngulo_5719" data-name="Rect치ngulo 5719" width="4.75" height="1.947" transform="translate(27.52 11.523)" fill="#fff"/>
          </g>
        </g>
        <g id="Grupo_58639" data-name="Grupo 58639" transform="translate(106.843 0)">
          <rect id="Rect치ngulo_5720" data-name="Rect치ngulo 5720" width="2.515" height="120.001" rx="0.475" transform="translate(46.441 123.358)" fill="#12263f"/>
          <path id="Trazado_102455" data-name="Trazado 102455" d="M1347.186,579.6c0,3.932-12.008,7.12-26.821,7.12s-26.823-3.188-26.823-7.12,12.008-7.118,26.823-7.118S1347.186,575.667,1347.186,579.6Z" transform="translate(-1271.595 -335.01)" fill="#12263f"/>
          <path id="Trazado_102456" data-name="Trazado 102456" d="M1372.121,544.454c-5.13,8.174-16.76,17.917-16.76,17.917l-.244-.766-1.722-8.1a55.407,55.407,0,0,0,3.746-8.631c1.59-4.67,4.368-10.88,5.489-14.164l.019-.031a8.291,8.291,0,0,0,.465-1.834c.105-1.887-6.182-8.94-6.182-8.94a3.246,3.246,0,0,1-.1.572l0,.012c-.68,2.56-4.194,5.947-4.194,5.947l-1.717,13.153c-2.062.654-8.2,2.268-17.771,1.935-6.953-.244-10.744-1.32-12.7-2.167-.084-.58-.34-2.534-.6-4.646a16.666,16.666,0,0,0-1.4-4.457,32.583,32.583,0,0,0-2.047-3.88c-.352-.577-.731-1.157-1.121-1.722a11.053,11.053,0,0,1-1.93-7.261s-11.63,12.083-12.466,13.234a1.109,1.109,0,0,0-.2.821v.007c.139,1.2,1.741,3.087,4.394,6.79,2.6,3.633,6.016,11.386,7.417,14.686-.654,1.729-1.293,3.664-1.9,5.8-.918-.735-4.421-3.528-8.368-6.809a157.743,157.743,0,0,1-12.346-11.026c-4.823-5.238-6.6-9.424-4.823-12.566S1297,509.986,1301.4,503.555s8.074-8.55,11.738-9.443,8.28-1.521,10.687-2.357c0,0,6.6,12.492,8.279,15.464s2.616,4.759,3.351,3.6,3.88-19.9,3.88-19.9-.22-.127-.541-.359c0,0,5.884,1.4,9.443,2.139s7.228,1.993,13.309,8.593,16.552,20.954,17.079,25.775S1377.258,536.282,1372.121,544.454Z" transform="translate(-1284.378 -449.283)" fill="#ffa06d"/>
          <path id="Trazado_102457" data-name="Trazado 102457" d="M1325.9,494.252a35.18,35.18,0,0,1-.69,4.364,20.578,20.578,0,0,1-.56,2c-2.244,6.84-6.562,7.633-6.562,7.633a.393.393,0,0,0-.031.1,4.951,4.951,0,0,0,1.475,5.154,9.327,9.327,0,0,0,1.264,1.094c.321.232.541.359.541.359s-2.112,12.59-3.276,17.771a10.855,10.855,0,0,1-.6,2.132c-.4.63-.86.391-1.464-.433a35.8,35.8,0,0,1-1.887-3.169c-1.679-2.972-8.279-15.464-8.279-15.464s3.145-1.365,3.35-3.772a7,7,0,0,0-.062-1.5,37.45,37.45,0,0,0-1.6-6.241l-.007-.014c-1.471-.841-3.88-4.929-3.88-4.929s.108.944-2.934-.52-4.4-5.451-2.616-7.544c1.7-2,2.828.206,2.922.407-.074-.22-.992-2.948.007-8.373a12.656,12.656,0,0,1,10.48-9.889C1324.71,472.056,1326.8,485.012,1325.9,494.252Z" transform="translate(-1266.381 -473.325)" fill="#e7ba8c"/>
          <path id="Trazado_102458" data-name="Trazado 102458" d="M1312.956,584.551c-2.723,1.3-17.6,7.084-18.024,6.665s-.728-.944,1.679-2.936,10.059-7.858,10.167-9.707c.067-1.226-1.2-5.312-2.189-8.418-.364-1.157-.692-2.175-.893-2.852h9.18c.019,1.123.031,2.582.043,3.966.026,1.71.038,3.307.038,4.024C1312.956,577.176,1315.677,583.25,1312.956,584.551Z" transform="translate(-1270.054 -342.232)" fill="#e7ba8c"/>
          <path id="Trazado_102459" data-name="Trazado 102459" d="M1338.83,591.334c0,.838-7.123-2.2-13.309-5.216s-4.608-6.306-4.608-9.87a11.415,11.415,0,0,0-.975-4.321,24.113,24.113,0,0,0-2.156-4.009l9.429-2.73c.34,1.1.85,2.735,1.4,4.5,1.092,3.47,2.381,7.436,2.984,8.864C1332.752,581.277,1338.83,590.5,1338.83,591.334Z" transform="translate(-1237.778 -345.181)" fill="#e7ba8c"/>
          <path id="Trazado_102460" data-name="Trazado 102460" d="M1369.093,637.143l-4.891,1.408-9.429,2.73-12.693,3.664s-6.021-31.326-7.908-42.8c-1.7-10.348-9.026-47.168-10.447-54.284-.158-.773-.239-1.2-.239-1.2s-2.043,35.362-2.673,55.007-3.224,41.938-3.224,41.938h-26.323s9.115-38.48,9.115-44.611c0-.237-.005-.508-.017-.8-.328-7.2-4.476-30.162-2.967-49.393a107.172,107.172,0,0,1,3.583-20.827c.05-.182.1-.364.156-.541.065-.22.127-.441.189-.654.5-1.664,1.025-3.2,1.552-4.6,1.818-4.8,3.741-8.047,5.257-9.594a.111.111,0,0,0,.019.05.2.2,0,0,0,.024.057.929.929,0,0,0,.131.144.414.414,0,0,0,.058.05,1.022,1.022,0,0,0,.12.1c.038.031.074.058.119.089s.106.069.163.105.139.089.221.134a18.537,18.537,0,0,0,3.734,1.49c.1.031.194.062.3.093.364.108.747.208,1.15.314.2.05.417.108.63.158.917.22,1.935.441,3.056.635.4.07.81.139,1.231.2.22.038.445.07.673.1.3.043.615.089.929.127s.649.086.975.117.635.077.963.108c.263.026.527.057.792.077s.515.05.778.067c.565.05,1.15.089,1.748.127,1.88.113,3.564.158,5.065.139.184,0,.367,0,.541-.007.894-.019,1.717-.058,2.476-.112.366-.026.711-.058,1.051-.089s.659-.069.967-.1.6-.074.887-.125c.421-.065.816-.134,1.183-.2.118-.019.237-.045.353-.065v0c.105-.019.206-.038.306-.065.591-.132,1.1-.263,1.516-.4.156-.05.306-.094.44-.144a6.849,6.849,0,0,0,1.344-.584s.266,1.308,1.051,4.608c.105.438.333,1.482.654,2.972.422,1.961,1,4.709,1.679,7.9.012.069.031.132.043.2.039.17.074.333.108.51v0c2.658,12.5,6.675,31.225,8.411,37.292,2.017,7.034,10.152,45.219,13.56,61.313v0C1368.516,634.392,1369.093,637.143,1369.093,637.143Z" transform="translate(-1274.768 -418.544)" fill="#495abf" stroke="#1f2f8d" stroke-width="1"/>
          <path id="Trazado_102461" data-name="Trazado 102461" d="M1332.26,511.55v6.6a10.893,10.893,0,0,1-3.3,1.123c-.1.026-.2.046-.306.065a47.935,47.935,0,0,1-12.523.565,59.784,59.784,0,0,1-12.926-2.031c-.108-.031-.2-.062-.3-.093-3.068-.924-4.531-1.856-4.589-2.22a41.057,41.057,0,0,1,.843-5.092,5.841,5.841,0,0,0,1.861,1.114,18.534,18.534,0,0,0,2.91.96c.1.026.2.05.309.077a48.283,48.283,0,0,0,9.479,1.13,61.412,61.412,0,0,0,13.61-.924c.105-.012.206-.036.307-.055a35.721,35.721,0,0,0,3.854-.956C1332,511.651,1332.26,511.55,1332.26,511.55Z" transform="translate(-1264.948 -421.51)" fill="#ff8a5b"/>
          <path id="Trazado_102462" data-name="Trazado 102462" d="M1314.63,503.385l.1-.572A3.282,3.282,0,0,1,1314.63,503.385Z" transform="translate(-1242.176 -432.191)" fill="#211a17"/>
          <path id="Trazado_102463" data-name="Trazado 102463" d="M1305.275,506.778c3.145-.944,7.02-1.3,7.544-.912S1305.275,506.778,1305.275,506.778Z" transform="translate(-1255.226 -428.149)" fill="#ce666e"/>
          <path id="Trazado_102464" data-name="Trazado 102464" d="M1308.308,511.413l-1.032,5.255-.019.094a.153.153,0,0,1-.043.084L1295.387,529.2c.065-.22.127-.441.189-.654l11.379-11.893.019-.081,1.025-5.238C1308.1,511.362,1308.2,511.386,1308.308,511.413Z" transform="translate(-1269.019 -420.302)" fill="#95f7ff"/>
          <path id="Trazado_102465" data-name="Trazado 102465" d="M1311.75,518v-.014l-1.327-6.5c.106-.012.206-.036.307-.055l1.327,6.5v0a38.85,38.85,0,0,0,6.685,14.353c.012.069.031.132.043.2.039.17.074.333.108.51a39.4,39.4,0,0,1-7.142-14.995Z" transform="translate(-1248.045 -420.169)" fill="#95f7ff"/>
          <path id="Trazado_102466" data-name="Trazado 102466" d="M1298.4,545.793a.157.157,0,0,1-.005-.314,9.768,9.768,0,0,0,5.046-1.281.158.158,0,0,1,.22.036.16.16,0,0,1-.036.22,9.9,9.9,0,0,1-5.221,1.339Z" transform="translate(-1265.034 -374.502)" fill="#103b52"/>
          <path id="Trazado_102467" data-name="Trazado 102467" d="M1315.136,545.979c-.357,0-.731-.012-1.128-.043a.161.161,0,0,1-.146-.17.145.145,0,0,1,.17-.144c3.964.3,5.738-1.128,5.755-1.145a.158.158,0,0,1,.22.022.156.156,0,0,1-.019.22C1319.921,544.777,1318.444,545.979,1315.136,545.979Z" transform="translate(-1243.248 -374.12)" fill="#103b52"/>
        </g>
        <g id="Grupo_58645" data-name="Grupo 58645" transform="translate(1.298 137.497)">
          <g id="Grupo_58640" data-name="Grupo 58640" transform="translate(0.061 2.951)">
            <path id="Trazado_102468" data-name="Trazado 102468" d="M1319.024,526.311H1206.5a2.553,2.553,0,0,1-2.551-2.55V506.235a2.553,2.553,0,0,1,2.551-2.551h112.527a2.553,2.553,0,0,1,2.551,2.551v17.526A2.553,2.553,0,0,1,1319.024,526.311ZM1206.5,503.926a2.311,2.311,0,0,0-2.308,2.308v17.526a2.311,2.311,0,0,0,2.308,2.308h112.527a2.309,2.309,0,0,0,2.306-2.308V506.235a2.309,2.309,0,0,0-2.306-2.308Z" transform="translate(-1203.946 -503.684)" fill="#12263f"/>
          </g>
          <g id="Grupo_58643" data-name="Grupo 58643">
            <path id="Trazado_102469" data-name="Trazado 102469" d="M1207.132,542.314l.036-.245-.033.248Z" transform="translate(-1201.672 -474.064)" fill="#7d9ff5"/>
            <path id="Trazado_102470" data-name="Trazado 102470" d="M1207.8,530.623a25.077,25.077,0,0,1-2.917-.9,34.471,34.471,0,0,0-.973,5.086,14.034,14.034,0,0,0,1.793.773c.261.093.537.181.825.259,1.42.388,2.244.239,3.066.539a5.121,5.121,0,0,0,.651.181,8.985,8.985,0,0,0,1.273.178l.769-5.072S1209.371,531,1207.8,530.623Z" transform="translate(-1203.91 -482.641)" fill="#31d9e7"/>
            <path id="Trazado_102471" data-name="Trazado 102471" d="M1209.168,530.872l-.769,5.071h0Z" transform="translate(-1200.791 -481.843)" fill="#446dd3"/>
            <path id="Trazado_102472" data-name="Trazado 102472" d="M1236.126,529.593a47.361,47.361,0,0,1-7.1,1.72l1.188,4.945s.629-.054,1.3-.037c.166,0,.336.012.5.027a5.243,5.243,0,0,0,2.917-.822,3.774,3.774,0,0,1,.98-.447,9.2,9.2,0,0,1,1.264-.3Z" transform="translate(-1186.463 -482.732)" fill="#31d9e7"/>
            <path id="Trazado_102473" data-name="Trazado 102473" d="M1249.1,541.72a17.165,17.165,0,0,1-4.529,1.326c-2.02.185-2.918-.415-4.562,0a69.861,69.861,0,0,1-8.677,1.235c-2.393.149-8.825.449-11.518-.075s-7.852-.953-9.423-1.337-2.864-.652-2.864-.652l-.051.346-.825,5.757a5.649,5.649,0,0,0,4.115,1.42,37.4,37.4,0,0,1,6.506,0,59.885,59.885,0,0,0,6.806,1.166c1.571.027,4.637.571,7.1,0a45.01,45.01,0,0,1,5.908-.795,50.524,50.524,0,0,0,8.3-.075,19.356,19.356,0,0,0,5.61-1.869Z" transform="translate(-1202.009 -474.306)" fill="#31d9e7"/>
            <path id="Trazado_102474" data-name="Trazado 102474" d="M1250.286,545.7a26.516,26.516,0,0,0,2.888-.841s-6.059-24.362-7.1-27.815-2.508-6.384-6.333-8.684l-1.256-.753a15.645,15.645,0,0,1,.109,5.09c-.447,2.993-2.468,8.079-7.927,9.354s-8.976-.976-11.2-4.715-.847-8.016,0-9.662a20.9,20.9,0,0,0-6.979,6.035c-2.917,4.149-8,31.374-8,31.374a25.07,25.07,0,0,0,2.917.9c.3.071.652.153,1.02.242,1.561.364,3.467.8,3.467.8l-.769,5.071-2.1,13.807s1.295.269,2.866.652,6.732.813,9.423,1.337,9.125.224,11.518.075a69.86,69.86,0,0,0,8.677-1.236c1.644-.41,2.542.188,4.562,0a17.162,17.162,0,0,0,4.529-1.325l-4.529-18.833S1248.178,546.215,1250.286,545.7Z" transform="translate(-1203.511 -498.004)" fill="#95f7ff"/>
            <path id="Trazado_102475" data-name="Trazado 102475" d="M1232.939,513.58c-.044.3-.1.617-.185.953-.7,3.015-2.827,7.252-7.742,8.4-5.461,1.276-8.976-.976-11.2-4.715-.13-.219-.248-.441-.353-.663-1.708-3.568-.442-7.449.353-9v0a5.59,5.59,0,0,1,2.52-1.92s-.015.295,0,.8a19.273,19.273,0,0,0,1.944,7.876c2.17,4.278,5.834,3.5,6.955,2.613s3.291-5.095,3.74-7.174a21.44,21.44,0,0,0,.392-4.278c0-.078,0-.125,0-.125l3.374,1.72s.039.153.093.422A15.691,15.691,0,0,1,1232.939,513.58Z" transform="translate(-1197.862 -498.881)" fill="#31d9e7"/>
            <path id="Trazado_102476" data-name="Trazado 102476" d="M1227.762,507.5a18.229,18.229,0,0,1-.33,2.461c-.027.12-.058.246-.1.378-.6,2.171-2.584,5.962-3.644,6.8-1.122.89-4.786,1.664-6.955-2.613a18.007,18.007,0,0,1-1.556-4.557,19.952,19.952,0,0,1-.341-2.464Z" transform="translate(-1196.317 -498.085)" fill="#2ab9c4"/>
            <path id="Trazado_102477" data-name="Trazado 102477" d="M1214.811,506.993v0Z" transform="translate(-1196.336 -498.434)" fill="#7d9ff5"/>
            <path id="Trazado_102478" data-name="Trazado 102478" d="M1222.5,506.426l0,0h0v.483C1222.5,506.7,1222.5,506.527,1222.5,506.426Z" transform="translate(-1190.996 -498.83)" fill="#7d9ff5"/>
            <path id="Trazado_102479" data-name="Trazado 102479" d="M1222.464,508.043h.058v-1.334C1222.517,507.051,1222.5,507.514,1222.464,508.043Z" transform="translate(-1191.019 -498.632)" fill="#5b413f"/>
            <path id="Trazado_102480" data-name="Trazado 102480" d="M1214.824,507.832h.032c-.024-.31-.037-.586-.044-.819C1214.809,507.34,1214.813,507.671,1214.824,507.832Z" transform="translate(-1196.336 -498.42)" fill="#5b413f"/>
            <path id="Trazado_102481" data-name="Trazado 102481" d="M1224.647,507.316h-2.6c.042-.3.552-4.1-.322-5.112a.7.7,0,0,0-.544-.261,1.173,1.173,0,0,0-.905.383,3.113,3.113,0,0,0-.493,2.049.112.112,0,0,0,.122.1.114.114,0,0,0,.1-.122,2.942,2.942,0,0,1,.435-1.878.946.946,0,0,1,.739-.31.48.48,0,0,1,.375.183c.826.951.273,4.91.268,4.95l0,.015h-3.556l-3.441,2.318s-.01.427-.012.868v.034c.007.232.02.508.044.819h12.924c.037-.529.053-.991.058-1.334v-.607Z" transform="translate(-1196.335 -501.943)" fill="#12263f"/>
            <g id="Grupo_58641" data-name="Grupo 58641" transform="translate(8.302 24.771)">
              <path id="Trazado_102482" data-name="Trazado 102482" d="M1208.884,540.891h-.014a.077.077,0,0,1-.061-.088c.031-.161,2.947-16.289,3.391-19.443.447-3.188-.007-3.915-.488-4.686a.075.075,0,1,1,.127-.08c.5.795.964,1.546.508,4.788-.444,3.156-3.361,19.285-3.391,19.448A.073.073,0,0,1,1208.884,540.891Z" transform="translate(-1208.809 -516.559)" fill="#47ecfa"/>
            </g>
            <g id="Grupo_58642" data-name="Grupo 58642" transform="translate(38.542 24.771)">
              <path id="Trazado_102483" data-name="Trazado 102483" d="M1230.667,540.443a.076.076,0,0,1-.074-.059c-.153-.717-3.766-17.573-3.915-19.156a8.6,8.6,0,0,1,1.056-4.628.075.075,0,1,1,.132.069,8.44,8.44,0,0,0-1.039,4.545c.148,1.573,3.874,18.963,3.913,19.138a.076.076,0,0,1-.057.09Z" transform="translate(-1226.652 -516.559)" fill="#47ecfa"/>
            </g>
          </g>
          <g id="Grupo_58644" data-name="Grupo 58644" transform="translate(65.797)">
            <path id="Trazado_102484" data-name="Trazado 102484" d="M1268.414,546.752c1.674-.214,2.4,1.756,2.4,1.756a9.023,9.023,0,0,0,.42-4.913c-.492-2.949-1.792-10.864-1.792-10.864l-1.047,10.664Z" transform="translate(-1224.905 -480.552)" fill="#ffb9bf"/>
            <path id="Trazado_102485" data-name="Trazado 102485" d="M1281.062,542.38l-.02-3.357-.109,1.112h-5.755c-2.176,0-6.81-.492-11.653-.492s-13.336-.28-13.336-.28l.351,4.773s4.283-.21,7.931,0,5.335.72,9.477.676,9.335-1.027,10.809-.676a4.042,4.042,0,0,0,2.317,0Z" transform="translate(-1237.554 -476.18)" fill="#ffb9bf"/>
            <path id="Trazado_102486" data-name="Trazado 102486" d="M1245.752,542.38a9.3,9.3,0,0,0-3.018-.422v3.229a10.359,10.359,0,0,0,4.071.7,40.341,40.341,0,0,1,4.493.015V542.38C1250.383,542.941,1247.506,542.872,1245.752,542.38Z" transform="translate(-1242.733 -474.143)" fill="#ffb9bf"/>
            <path id="Trazado_102487" data-name="Trazado 102487" d="M1301.695,563.8l-6.594,1.03a23.514,23.514,0,0,0-2.39.373s-1.825-9.476-2.668-12.284c-.817-2.72-1.963-9.326-2.032-9.736l0-.02-.739,7.528-1.047,10.664-.108,1.112h-5.755c-2.176,0-6.81-.492-11.653-.492s-13.336-.28-13.336-.28-.491-5.194-.983-8.915-.42-11.442-.42-11.442l-2.668,25.41c-.913.561-3.791.491-5.545,0a9.3,9.3,0,0,0-3.018-.422s1.895-19.373,2.176-25.551,1.9-19.092,3.018-23.654a8.389,8.389,0,0,1,.446-1.341,6.938,6.938,0,0,1,4.468-4.066l.354-.171,5.115-2.468,4.569-2.2s4.842,3.579,9.335,3.229,6.318-2.878,6.318-2.878,2.395.736,5.2,1.912c2.874,1.205,6.183,2.874,7.782,4.686,3.159,3.579,3.651,11.16,4.913,16.636S1301.695,563.8,1301.695,563.8Z" transform="translate(-1242.733 -498.515)" fill="#f17781"/>
            <path id="Trazado_102488" data-name="Trazado 102488" d="M1281.206,540.466a17,17,0,0,1-4.562.842c-.781.056-1.458.122-2.032.188l-2.39.373.773,3.932a6.952,6.952,0,0,1,3.157-.632c2.247-.07,4.283.015,5.054-.378l.773-.393Z" transform="translate(-1222.245 -475.178)" fill="#ffb9bf"/>
            <path id="Trazado_102489" data-name="Trazado 102489" d="M1275.664,541.308a17,17,0,0,0,4.562-.842l-6.594,1.03C1274.207,541.43,1274.883,541.364,1275.664,541.308Z" transform="translate(-1221.265 -475.178)" fill="#479d9f"/>
            <path id="Trazado_102490" data-name="Trazado 102490" d="M1277.349,509.14c-1.236,2.424-4.945,8.125-12.574,8.125-8.633,0-11.692-5.128-12.852-8.184l.846-.407,3.723-1.8s4.842,3.579,9.335,3.229,6.318-2.878,6.318-2.878,1.244.381,2.993,1.035C1275.816,508.516,1276.565,508.811,1277.349,509.14Z" transform="translate(-1236.347 -498.515)" fill="#ffb9bf"/>
            <path id="Trazado_102491" data-name="Trazado 102491" d="M1274.793,508.263a12.728,12.728,0,0,1-1.586,1.924,12.362,12.362,0,0,1-8.915,3.639c-5.566.047-8.513-1.586-10.423-3.473a15.455,15.455,0,0,1-1.446-1.679l3.724-1.8a20.053,20.053,0,0,0,2.61,1.563,13.4,13.4,0,0,0,6.725,1.666,10.276,10.276,0,0,0,4.327-1.256,6.573,6.573,0,0,0,1.991-1.622S1273.044,507.609,1274.793,508.263Z" transform="translate(-1236.001 -498.515)" fill="#e54854"/>
            <path id="Trazado_102492" data-name="Trazado 102492" d="M1274.793,511.691a12.731,12.731,0,0,1-1.586,1.924c-.654-.253-2.022-.783-3.4-1.337-.778-.314-1.556-.634-2.206-.915h-7.194c-.336.112-.71.227-1.125.349-.175.049-.348.1-.525.156a42.644,42.644,0,0,0-4.888,1.913,15.452,15.452,0,0,1-1.446-1.68l4.678-2.459,3.445-2.324h3.557V507.3c.005-.041.556-4-.269-4.954a.478.478,0,0,0-.376-.183.948.948,0,0,0-.739.31,2.947,2.947,0,0,0-.436,1.878.113.113,0,0,1-.1.124.111.111,0,0,1-.124-.1,3.1,3.1,0,0,1,.493-2.052,1.183,1.183,0,0,1,.905-.381.7.7,0,0,1,.547.261c.873,1.008.361,4.815.32,5.115h2.608l3.191,2.1Z" transform="translate(-1236.001 -501.943)" fill="#12263f"/>
          </g>
        </g>
      </g>
    </g>
    <g id="Grupo_58662" data-name="Grupo 58662" transform="translate(-3757.599 -6837.684)">
      <g id="Grupo_57453" data-name="Grupo 57453" transform="translate(20.356 117.964)">
        <path id="Trazado_101678" data-name="Trazado 101678" d="M414.74,387.8h5.409a.728.728,0,0,0,0-1.456H414.74a.728.728,0,0,0,0,1.456Z" transform="translate(-414.012 -386.341)" fill="#124c64"/>
      </g>
      <g id="Grupo_57454" data-name="Grupo 57454" transform="translate(0 97.399)">
        <path id="Trazado_101679" data-name="Trazado 101679" d="M404.478,381.232l-3.531-3.531a.727.727,0,0,1,0-1.03l3.531-3.531a.724.724,0,0,1,.515-.215h0a.729.729,0,0,1,.515.213l3.532,3.532a.729.729,0,0,1,0,1.03l-3.532,3.531a.729.729,0,0,1-1.03,0Zm.515-6.546-2.5,2.5,2.5,2.5,2.5-2.5Z" transform="translate(-400.733 -372.926)" fill="#124c64"/>
      </g>
      <g id="Grupo_57458" data-name="Grupo 57458" transform="translate(144.021 0)">
        <g id="Grupo_57456" data-name="Grupo 57456">
          <path id="Trazado_101681" data-name="Trazado 101681" d="M389.544,366.664a.733.733,0,0,0,.515-.213l3.664-3.665a.728.728,0,0,0-1.03-1.03l-3.664,3.664a.729.729,0,0,0,.515,1.245Z" transform="translate(-388.816 -361.542)" fill="#124c64"/>
        </g>
        <g id="Grupo_57457" data-name="Grupo 57457">
          <path id="Trazado_101682" data-name="Trazado 101682" d="M393.208,366.664a.729.729,0,0,0,.515-1.245l-3.664-3.664a.728.728,0,0,0-1.03,1.03l3.664,3.665A.733.733,0,0,0,393.208,366.664Z" transform="translate(-388.816 -361.542)" fill="#124c64"/>
        </g>
      </g>
      <g id="Grupo_57461" data-name="Grupo 57461" transform="translate(29.36 72.031)">
        <g id="Grupo_57459" data-name="Grupo 57459">
          <path id="Trazado_101683" data-name="Trazado 101683" d="M420.614,361.5a.726.726,0,0,0,.515-.215l3.665-3.664a.729.729,0,0,0-1.032-1.03l-3.664,3.664a.73.73,0,0,0,.515,1.245Z" transform="translate(-419.886 -356.379)" fill="#124c64"/>
        </g>
        <g id="Grupo_57460" data-name="Grupo 57460">
          <path id="Trazado_101684" data-name="Trazado 101684" d="M424.28,361.5a.73.73,0,0,0,.515-1.245l-3.665-3.664a.728.728,0,0,0-1.03,1.03l3.664,3.664A.729.729,0,0,0,424.28,361.5Z" transform="translate(-419.886 -356.379)" fill="#124c64"/>
        </g>
      </g>
    </g>
  </g>
</svg>
