<svg xmlns="http://www.w3.org/2000/svg" width="129" height="129" viewBox="0 0 129 129">
  <g id="Grupo_58531" data-name="Grupo 58531" transform="translate(-671 -4019)">
    <g id="risa" transform="translate(673.339 4030)">
      <circle id="Elipse_234" data-name="Elipse 234" cx="7" cy="7" r="7" transform="translate(13.216 74.376)" fill="#f5a871"/>
      <circle id="Elipse_235" data-name="Elipse 235" cx="7" cy="7" r="7" transform="translate(54.335 62.908)" fill="#f5a871"/>
      <path id="Trazado_102328" data-name="Trazado 102328" d="M78.784,293.95a20.1,20.1,0,0,1-36.873-4.473l-5.055-18.121-2.439-8.745,38.728-10.8,4.631,16.6,2.863,10.267A20.02,20.02,0,0,1,78.784,293.95Z" transform="translate(-18.04 -199.616)" fill="#fdd1a7"/>
      <path id="Trazado_102329" data-name="Trazado 102329" d="M77.774,268.409,61.685,272.9a13.9,13.9,0,0,1-12.192-2.347,6.6,6.6,0,0,0-3.971-1.382,5.98,5.98,0,0,0-1.6.219l-7.064,1.97-2.439-8.745,38.728-10.8Z" transform="translate(-18.038 -199.616)" fill="#ffbc8a"/>
      <path id="Trazado_102330" data-name="Trazado 102330" d="M61.35,204.01l-16.176,4.512a5.012,5.012,0,0,0-3.481,6.175,12.083,12.083,0,0,0-5.14.226l-1.235.344a6.054,6.054,0,0,0-4.205,7.458l2.23,8,7.065-1.971a9.029,9.029,0,0,1,7.9,1.612,11.242,11.242,0,0,0,9.863,1.9l16.089-4.487-5.455-19.559A6.055,6.055,0,0,0,61.35,204.01Z" transform="translate(-15.242 -161.546)" fill="#fddd45"/>
      <path id="Trazado_102331" data-name="Trazado 102331" d="M167.252,208.222l5.455,19.558-4.724,1.318-5.455-19.558a6.051,6.051,0,0,0-7.457-4.2l4.721-1.317A6.054,6.054,0,0,1,167.252,208.222Z" transform="translate(-113.684 -161.552)" fill="#f8c52d"/>
      <path id="Trazado_102332" data-name="Trazado 102332" d="M159.4,404.679a7.185,7.185,0,0,1-13.842,3.861Z" transform="translate(-106.145 -320.799)" fill="#fc7cb6"/>
      <circle id="Elipse_236" data-name="Elipse 236" cx="6.829" cy="6.829" r="6.829" transform="translate(57.671 19.382)" fill="#c47a4a"/>
      <circle id="Elipse_237" data-name="Elipse 237" cx="6.829" cy="6.829" r="6.829" transform="translate(97.735 30.759)" fill="#c47a4a"/>
      <path id="Trazado_102333" data-name="Trazado 102333" d="M260.78,60.191l-3.224,11.353A19.614,19.614,0,1,0,295.291,82.26l3.224-11.353A19.614,19.614,0,1,0,260.78,60.191Z" transform="translate(-194.331 -36.41)" fill="#e89a5e"/>
      <path id="Trazado_102334" data-name="Trazado 102334" d="M338.423,59.029a19.616,19.616,0,0,1-30.811-8.75,19.613,19.613,0,0,1,30.811,8.75Z" transform="translate(-234.608 -36.408)" fill="#688d97"/>
      <path id="Trazado_102335" data-name="Trazado 102335" d="M352.2,94.879a19.618,19.618,0,0,1-27.21-2.511,22,22,0,0,0,25.435-1.216A19.557,19.557,0,0,1,352.2,94.879Z" transform="translate(-248.383 -72.259)" fill="#557983"/>
      <path id="Trazado_102336" data-name="Trazado 102336" d="M320.973,198.223a7.01,7.01,0,1,1-13.487-3.83Z" transform="translate(-234.295 -154.1)" fill="#fc7cb6"/>
      <path id="Trazado_102337" data-name="Trazado 102337" d="M330.059,386.328l.705-2.456a1.76,1.76,0,0,1,1.946-1.255l12.063,1.763a1.759,1.759,0,0,1,1.437,2.227l-1.608,5.6a1.759,1.759,0,0,1-2.4,1.125l-11.161-4.906A1.759,1.759,0,0,1,330.059,386.328Z" transform="translate(-252.348 -303.295)" fill="#fc7cb6"/>
      <path id="Trazado_102338" data-name="Trazado 102338" d="M385.568,392.194l-1.608,5.6a1.76,1.76,0,0,1-2.4,1.124l-1.921-.844a1.745,1.745,0,0,0,1.075-1.161l1.61-5.6a1.758,1.758,0,0,0-.389-1.667l2.2.322a1.76,1.76,0,0,1,1.438,2.226Z" transform="translate(-291.705 -308.882)" fill="#fb5fa7"/>
      <path id="Trazado_102339" data-name="Trazado 102339" d="M324.022,317.681l-.177-2.549a1.759,1.759,0,0,1,1.4-1.845l11.939-2.469a1.759,1.759,0,0,1,2.112,1.6l.4,5.812a1.759,1.759,0,0,1-1.87,1.878l-12.166-.793A1.76,1.76,0,0,1,324.022,317.681Z" transform="translate(-247.472 -246.364)" fill="#fc7cb6"/>
      <path id="Trazado_102340" data-name="Trazado 102340" d="M378.795,320.107l-2.5-.164a1.74,1.74,0,0,0,.51-1.366l-.4-5.81a1.752,1.752,0,0,0-.883-1.4l2.63-.545a1.76,1.76,0,0,1,2.112,1.6l.405,5.812A1.758,1.758,0,0,1,378.795,320.107Z" transform="translate(-288.438 -246.364)" fill="#fb5fa7"/>
      <path id="Trazado_102341" data-name="Trazado 102341" d="M293.174,433.762l1.5-2.067a1.759,1.759,0,0,1,2.257-.514l10.733,5.783a1.76,1.76,0,0,1,.588,2.584l-3.426,4.712a1.759,1.759,0,0,1-2.639.236l-8.809-8.428A1.759,1.759,0,0,1,293.174,433.762Z" transform="translate(-222.896 -341.641)" fill="#fc7cb6"/>
      <path id="Trazado_102342" data-name="Trazado 102342" d="M337.424,458.866,334,463.578a1.757,1.757,0,0,1-2.638.236l-1.726-1.651a1.753,1.753,0,0,0,1.735-.7l3.426-4.711a1.753,1.753,0,0,0,.295-1.415l1.747.942A1.759,1.759,0,0,1,337.424,458.866Z" transform="translate(-252.065 -360.96)" fill="#fb5fa7"/>
      <path id="Trazado_102343" data-name="Trazado 102343" d="M114.107,63.106l-1.351,2.169a1.759,1.759,0,0,1-2.215.674l-11.118-5a1.759,1.759,0,0,1-.771-2.535l3.081-4.944a1.759,1.759,0,0,1,2.616-.425l9.389,7.777A1.759,1.759,0,0,1,114.107,63.106Z" transform="translate(-68.748 -41.729)" fill="#64e0c4"/>
      <path id="Trazado_102344" data-name="Trazado 102344" d="M111.024,53.045l9.388,7.777a1.759,1.759,0,0,1,.371,2.286l-1.351,2.168a1.513,1.513,0,0,1-.141.192,1.754,1.754,0,0,0-.482-2.075l-9.388-7.776a1.758,1.758,0,0,0-2.615.425l1.6-2.573a1.76,1.76,0,0,1,2.615-.425Z" transform="translate(-75.424 -41.73)" fill="#27d1b3"/>
      <path id="Trazado_102345" data-name="Trazado 102345" d="M107.711,135.584l-.528,2.5a1.759,1.759,0,0,1-1.851,1.391l-12.158-.9a1.759,1.759,0,0,1-1.592-2.118l1.2-5.7a1.759,1.759,0,0,1,2.313-1.294l11.483,4.1a1.76,1.76,0,0,1,1.13,2.021Z" transform="translate(-63.325 -102.55)" fill="#64e0c4"/>
      <path id="Trazado_102346" data-name="Trazado 102346" d="M97.458,129.465l11.481,4.1a1.758,1.758,0,0,1,1.13,2.021l-.528,2.5a1.532,1.532,0,0,1-.066.229,1.754,1.754,0,0,0-1.162-1.785l-11.482-4.1a1.758,1.758,0,0,0-2.312,1.294l.626-2.966a1.76,1.76,0,0,1,2.313-1.293Z" transform="translate(-65.684 -102.549)" fill="#27d1b3"/>
      <path id="Trazado_102347" data-name="Trazado 102347" d="M172.245,21.164l-2.012,1.576a1.759,1.759,0,0,1-2.312-.124l-8.738-8.5a1.759,1.759,0,0,1,.142-2.646l4.586-3.593a1.759,1.759,0,0,1,2.6.5l6.163,10.519a1.759,1.759,0,0,1-.433,2.274Z" transform="translate(-116.523 -5.946)" fill="#64e0c4"/>
      <path id="Trazado_102348" data-name="Trazado 102348" d="M177.512,8.372l6.161,10.519a1.758,1.758,0,0,1-.433,2.275l-2.011,1.576a1.519,1.519,0,0,1-.2.133,1.755,1.755,0,0,0,.257-2.114l-6.163-10.518a1.758,1.758,0,0,0-2.6-.5l2.386-1.869A1.76,1.76,0,0,1,177.512,8.372Z" transform="translate(-127.519 -5.948)" fill="#27d1b3"/>
      <path id="Trazado_102349" data-name="Trazado 102349" d="M68.786,229.713a8.552,8.552,0,0,0-9.444-12.518l-4.278-15.339a7.618,7.618,0,0,0-9.373-5.285L39.7,198.241a1.554,1.554,0,1,0,.835,2.995l5.992-1.671a4.505,4.505,0,0,1,5.543,3.126l5.037,18.062-14.592,4.07a9.638,9.638,0,0,1-8.5-1.638,10.522,10.522,0,0,0-9.264-1.873l-5.568,1.553-1.813-6.5a4.5,4.5,0,0,1,3.125-5.543l1.235-.344a10.635,10.635,0,0,1,4.4-.2,1.554,1.554,0,0,0,1.816-1.939,3.462,3.462,0,0,1,2.4-4.26l3.475-.969a1.554,1.554,0,1,0-.835-2.995l-3.475.969a6.578,6.578,0,0,0-4.792,5.947,13.253,13.253,0,0,0-3.83.453l-1.235.344a7.618,7.618,0,0,0-5.285,9.373l3.244,11.632a8.55,8.55,0,0,0,4.591,16.462l.164.59A21.659,21.659,0,1,0,64.1,234.247l-.164-.587a8.5,8.5,0,0,0,4.852-3.947Zm-53.815,8.729a5.452,5.452,0,0,1,3.482-6.614l2.92,10.471a5.452,5.452,0,0,1-6.4-3.857Zm33.247,19.49a18.571,18.571,0,0,1-22.851-12.884l-5.352-19.189,5.568-1.553a7.441,7.441,0,0,1,6.543,1.35,12.73,12.73,0,0,0,7.748,2.64,12.921,12.921,0,0,0,3.476-.479l14.592-4.07L61.1,235.081a18.571,18.571,0,0,1-12.884,22.851Zm17.86-29.746a5.4,5.4,0,0,1-2.98,2.477l-2.92-10.471a5.445,5.445,0,0,1,5.9,7.994Z" transform="translate(0 -155.604)"/>
      <path id="Trazado_102350" data-name="Trazado 102350" d="M153.039,397.235,139.2,401.1a1.555,1.555,0,0,0-1.08,1.915,8.74,8.74,0,0,0,16.837-4.7A1.555,1.555,0,0,0,153.039,397.235Zm-1.6,6.193a5.631,5.631,0,0,1-9.7.186l10.429-2.909A5.6,5.6,0,0,1,151.441,403.429Z" transform="translate(-100.2 -314.853)"/>
      <path id="Trazado_102351" data-name="Trazado 102351" d="M110.912,377.763a4.419,4.419,0,0,0-8.513,2.374,1.555,1.555,0,0,0,3-.835,1.31,1.31,0,1,1,2.523-.7,1.555,1.555,0,0,0,2.995-.836Z" transform="translate(-71.802 -296.9)"/>
      <path id="Trazado_102352" data-name="Trazado 102352" d="M193.324,350.191a4.424,4.424,0,0,0-3.07,5.443,1.555,1.555,0,1,0,3-.835,1.31,1.31,0,1,1,2.523-.7,1.555,1.555,0,0,0,2.995-.836A4.424,4.424,0,0,0,193.324,350.191Z" transform="translate(-141.446 -277.476)"/>
      <path id="Trazado_102353" data-name="Trazado 102353" d="M276.873,59.982c-.12-.034-.242-.065-.364-.093a21.174,21.174,0,0,0-39.333-11.171c-.121-.04-.244-.079-.366-.113a8.383,8.383,0,0,0-4.91,16.027l-.152.536a21.173,21.173,0,0,0,25.218,26.39,1.555,1.555,0,0,0-.715-3.026,18.061,18.061,0,0,1-21.512-22.514l1.527-5.379a1.555,1.555,0,0,0-2.991-.849l-.525,1.848a5.273,5.273,0,0,1,3.014-10.092c-.2.49-.389.986-.554,1.494a1.555,1.555,0,1,0,2.957.962,18.049,18.049,0,0,1,4.263-7.057,21.224,21.224,0,0,0,19.126,12.045A21.041,21.041,0,0,0,271.833,56.3c.382-.213.755-.441,1.123-.677a17.96,17.96,0,0,1-.249,8.912l-3.224,11.353A18.057,18.057,0,0,1,262.1,86a1.555,1.555,0,1,0,1.718,2.592,21.169,21.169,0,0,0,8.66-11.856l.153-.54a8.381,8.381,0,0,0,4.246-16.212Zm-6.555-6.4a17.931,17.931,0,0,1-13.728,1.6,18.146,18.146,0,0,1-11.7-10.341A18.088,18.088,0,0,1,271.108,50.8a18.426,18.426,0,0,1,.852,1.743A18.227,18.227,0,0,1,270.318,53.58Zm9.338,15.907a5.273,5.273,0,0,1-6.18,3.715L275.7,65.38a21.489,21.489,0,0,0,.525-2.345A5.28,5.28,0,0,1,279.657,69.487Z" transform="translate(-170.019 -30.458)"/>
      <path id="Trazado_102354" data-name="Trazado 102354" d="M305.936,198.6a8.561,8.561,0,0,0,10.579-5.9,1.555,1.555,0,0,0-1.071-1.92l-13.487-3.83a1.555,1.555,0,0,0-1.92,1.071,8.565,8.565,0,0,0,5.9,10.579Zm6.946-5.315a5.459,5.459,0,0,1-10.064-2.858Z" transform="translate(-228.341 -148.153)"/>
      <path id="Trazado_102355" data-name="Trazado 102355" d="M291.844,143.918a1.553,1.553,0,0,0,1.92-1.071,4.349,4.349,0,1,0-8.367-2.376,1.555,1.555,0,1,0,2.991.849,1.24,1.24,0,0,1,2.385.678A1.554,1.554,0,0,0,291.844,143.918Z" transform="translate(-216.95 -108.848)"/>
      <path id="Trazado_102356" data-name="Trazado 102356" d="M377.443,168.229a1.553,1.553,0,0,0,1.92-1.071A4.349,4.349,0,1,0,371,164.781a1.555,1.555,0,1,0,2.991.849,1.24,1.24,0,0,1,2.385.677A1.555,1.555,0,0,0,377.443,168.229Z" transform="translate(-284.807 -128.119)"/>
      <path id="Trazado_102357" data-name="Trazado 102357" d="M339.057,376.9l-12.063-1.763a3.325,3.325,0,0,0-3.665,2.364l-.705,2.456a3.326,3.326,0,0,0,1.852,3.949l11.161,4.906a3.314,3.314,0,0,0,4.519-2.119l1.608-5.6a3.314,3.314,0,0,0-2.706-4.194Zm-.283,3.336-1.608,5.6a.2.2,0,0,1-.279.131l-11.161-4.906a.205.205,0,0,1-.114-.244l.705-2.456a.206.206,0,0,1,.2-.148l.029,0,12.063,1.763a.2.2,0,0,1,.167.259Z" transform="translate(-246.407 -297.351)"/>
      <path id="Trazado_102358" data-name="Trazado 102358" d="M316.349,309.3l.177,2.549a3.325,3.325,0,0,0,3.09,3.077l12.166.793c.072,0,.144.007.216.007a3.314,3.314,0,0,0,3.306-3.544l-.4-5.812a3.314,3.314,0,0,0-3.977-3.015l-11.939,2.469a3.326,3.326,0,0,0-2.635,3.475Zm3.264-.431,11.939-2.469a.222.222,0,0,1,.045,0,.206.206,0,0,1,.2.191l.4,5.812a.2.2,0,0,1-.218.219l-12.166-.793a.205.205,0,0,1-.191-.19h0l-.177-2.549a.205.205,0,0,1,.163-.215Z" transform="translate(-241.527 -240.421)"/>
      <path id="Trazado_102359" data-name="Trazado 102359" d="M302.474,429.66l-10.733-5.783a3.325,3.325,0,0,0-4.252.968l-1.5,2.067h0a3.326,3.326,0,0,0,.389,4.344l8.81,8.428a3.314,3.314,0,0,0,2.29.919q.148,0,.3-.013a3.313,3.313,0,0,0,2.384-1.352l3.426-4.712a3.315,3.315,0,0,0-1.109-4.867Zm-1.406,3.038-3.426,4.712a.205.205,0,0,1-.307.028l-8.809-8.428a.206.206,0,0,1-.024-.268l1.5-2.067a.205.205,0,0,1,.263-.06L301,432.4a.205.205,0,0,1,.069.3Z" transform="translate(-216.965 -335.706)"/>
      <path id="Trazado_102360" data-name="Trazado 102360" d="M92.842,56.422l11.118,5a3.288,3.288,0,0,0,1.35.289,3.326,3.326,0,0,0,2.822-1.559l1.351-2.169h0a3.326,3.326,0,0,0-.7-4.3L99.4,45.9a3.314,3.314,0,0,0-4.927.8l-3.081,4.944a3.314,3.314,0,0,0,1.453,4.775Zm1.185-3.131,3.081-4.944a.2.2,0,0,1,.141-.094l.036,0a.2.2,0,0,1,.128.047l9.389,7.777a.205.205,0,0,1,.043.266l-1.351,2.169a.205.205,0,0,1-.258.079l-11.118-5a.2.2,0,0,1-.09-.3Z" transform="translate(-62.805 -35.785)"/>
      <path id="Trazado_102361" data-name="Trazado 102361" d="M87.116,134.186l12.158.9q.122.009.243.009a3.327,3.327,0,0,0,3.243-2.629l.528-2.5a3.326,3.326,0,0,0-2.129-3.806l-11.482-4.1a3.314,3.314,0,0,0-4.356,2.436l-1.2,5.7a3.315,3.315,0,0,0,3,3.99Zm.043-3.347,1.2-5.7a.2.2,0,0,1,.1-.136.2.2,0,0,1,.1-.027.212.212,0,0,1,.07.013l11.483,4.1a.206.206,0,0,1,.132.235l-.528,2.5a.207.207,0,0,1-.216.162l-12.158-.9a.205.205,0,0,1-.186-.247Z" transform="translate(-57.382 -96.607)"/>
      <path id="Trazado_102362" data-name="Trazado 102362" d="M160.892,17.784a3.325,3.325,0,0,0,4.355.234l2.012-1.576h0a3.326,3.326,0,0,0,.815-4.284L161.911,1.639a3.314,3.314,0,0,0-4.9-.934L152.422,4.3a3.314,3.314,0,0,0-.268,4.984ZM154.34,6.745l4.586-3.593a.2.2,0,0,1,.123-.044.2.2,0,0,1,.041,0,.2.2,0,0,1,.138.1l6.163,10.519a.206.206,0,0,1-.05.265L163.33,15.57a.205.205,0,0,1-.269-.014l-8.738-8.5a.2.2,0,0,1,.017-.308Z" transform="translate(-110.578 0)"/>
    </g>
    <g id="Grupo_58530" data-name="Grupo 58530" transform="translate(279 147)">
      <rect id="Rectángulo_5543" data-name="Rectángulo 5543" width="129" height="129" transform="translate(392 3872)" fill="none"/>
    </g>
  </g>
</svg>
