<svg xmlns="http://www.w3.org/2000/svg" width="85" height="92" viewBox="0 0 85 92">
  <g id="Grupo_985935" data-name="Grupo 985935" transform="translate(-377 -2637)">
    <rect id="Rectángulo_338875" data-name="Rectángulo 338875" width="85" height="92" rx="10" transform="translate(377 2637)" fill="#ff6e33"/>
    <g id="donacion-de-ropa" transform="translate(372.671 2649.26)">
      <g id="Grupo_1053818" data-name="Grupo 1053818" transform="translate(16.314 0.985)">
        <g id="Grupo_1053817" data-name="Grupo 1053817" transform="translate(0)">
          <path id="Trazado_736958" data-name="Trazado 736958" d="M152.889,13.344a1.446,1.446,0,0,1,1.445,1.445v8.2h4.2V11.933a.526.526,0,0,1,.525-.525h3.421V9.47a1.97,1.97,0,0,0-1.97-1.97H139.4a1.97,1.97,0,0,0-1.97,1.97v3.874Z" transform="translate(-122.38 -7.5)" fill="#ffe177"/>
          <g id="Grupo_1053806" data-name="Grupo 1053806" transform="translate(36.126)">
            <path id="Trazado_736959" data-name="Trazado 736959" d="M299.912,7.5h-2a1.958,1.958,0,0,1,.253.964V11.5a.521.521,0,0,1,.3-.091h3.421V9.47A1.97,1.97,0,0,0,299.912,7.5Z" transform="translate(-297.913 -7.5)" fill="#ffd15b"/>
          </g>
          <g id="Grupo_1053809" data-name="Grupo 1053809" transform="translate(6.477 5.713)">
            <g id="Grupo_1053807" data-name="Grupo 1053807">
              <path id="Trazado_736960" data-name="Trazado 736960" d="M97.754,75.656V52.576A1.576,1.576,0,0,0,96.178,51H73.721a1.576,1.576,0,0,0-1.576,1.576v23.08Z" transform="translate(-72.145 -51)" fill="#a2e62e"/>
            </g>
            <g id="Grupo_1053808" data-name="Grupo 1053808" transform="translate(20.337)">
              <path id="Trazado_736961" data-name="Trazado 736961" d="M230.7,51H227V75.656h5.272V52.576A1.576,1.576,0,0,0,230.7,51Z" transform="translate(-226.999 -51)" fill="#97d729"/>
            </g>
            <path id="Trazado_736962" data-name="Trazado 736962" d="M113.181,59.536A8.546,8.546,0,0,0,121.718,51H104.645A8.546,8.546,0,0,0,113.181,59.536Z" transform="translate(-100.377 -51)" fill="#fff0ad"/>
            <path id="Trazado_736963" data-name="Trazado 736963" d="M129.645,51a5.253,5.253,0,0,0,10.506,0Z" transform="translate(-122.094 -51)" fill="#97d729"/>
          </g>
          <g id="Grupo_1053811" data-name="Grupo 1053811" transform="translate(36.018 3.777)">
            <path id="Trazado_736964" data-name="Trazado 736964" d="M312.9,44.469V42.745a2.8,2.8,0,0,0-1.547-2.5L304.079,36.6a3.282,3.282,0,0,0-1.468-.347h-4.865a.657.657,0,0,0-.657.657v7.554Z" transform="translate(-297.089 -36.258)" fill="#fe646f"/>
            <g id="Grupo_1053810" data-name="Grupo 1053810" transform="translate(0 1.225)">
              <path id="Trazado_736965" data-name="Trazado 736965" d="M305.834,45.586v2.287a1.97,1.97,0,0,1-1.97,1.97h-6.776v2.729h11.473V46.949Z" transform="translate(-297.088 -45.586)" fill="#fd4755"/>
            </g>
            <path id="Trazado_736966" data-name="Trazado 736966" d="M388.79,61.59V59.866a2.8,2.8,0,0,0-1.547-2.5l-2.791-1.4V61.59Z" transform="translate(-372.979 -53.38)" fill="#f3eae6"/>
            <path id="Trazado_736967" data-name="Trazado 736967" d="M297.088,97.777H312.9v3.629H297.088Z" transform="translate(-297.088 -89.698)" fill="#e1d3ce"/>
          </g>
          <g id="Grupo_1053812" data-name="Grupo 1053812" transform="translate(29.722 15.354)">
            <path id="Trazado_736968" data-name="Trazado 736968" d="M274.19,211v-2.224a1.97,1.97,0,0,0-1.97-1.97H251.115a1.97,1.97,0,0,0-1.97,1.97V211Z" transform="translate(-249.145 -195.984)" fill="#26a6fe"/>
            <path id="Trazado_736969" data-name="Trazado 736969" d="M272.221,165.608H251.115a1.97,1.97,0,0,0-1.97,1.97v1.47a1.97,1.97,0,0,0,1.97,1.97h21.106a1.97,1.97,0,0,0,1.97-1.97v-1.47A1.97,1.97,0,0,0,272.221,165.608Z" transform="translate(-249.145 -160.198)" fill="#8ac9fe"/>
            <path id="Trazado_736970" data-name="Trazado 736970" d="M272.22,165.608H270.1v.734a1.97,1.97,0,0,1-1.97,1.97H249.145v.736a1.97,1.97,0,0,0,1.97,1.97h21.106a1.97,1.97,0,0,0,1.97-1.97v-1.47A1.97,1.97,0,0,0,272.22,165.608Z" transform="translate(-249.145 -160.198)" fill="#60b7ff"/>
            <path id="Trazado_736971" data-name="Trazado 736971" d="M272.221,129.822H251.115a1.97,1.97,0,0,1-1.97-1.97v-1.47a1.97,1.97,0,0,1,1.97-1.97h21.106a1.97,1.97,0,0,1,1.97,1.97v1.47A1.97,1.97,0,0,1,272.221,129.822Z" transform="translate(-249.145 -124.412)" fill="#60b7ff"/>
            <path id="Trazado_736972" data-name="Trazado 736972" d="M272.22,124.412H270.1v.734a1.97,1.97,0,0,1-1.97,1.97H249.145v.737a1.97,1.97,0,0,0,1.97,1.97h21.106a1.97,1.97,0,0,0,1.97-1.97v-1.47A1.97,1.97,0,0,0,272.22,124.412Z" transform="translate(-249.145 -124.412)" fill="#26a6fe"/>
          </g>
          <g id="Grupo_1053816" data-name="Grupo 1053816" transform="translate(0 30.237)">
            <g id="Grupo_1053815" data-name="Grupo 1053815" transform="translate(0 0)">
              <g id="Grupo_1053814" data-name="Grupo 1053814">
                <path id="Trazado_736973" data-name="Trazado 736973" d="M359.179,248.3a1.186,1.186,0,0,1-1.072-.683l-4.507-9.689-.233-.19h-.133v35.033h11.937a1.313,1.313,0,0,0,1.313-1.313V248.436l-.161-.131Z" transform="translate(-309.842 -237.742)" fill="#ea9b58"/>
                <g id="Grupo_1053813" data-name="Grupo 1053813" transform="translate(43.391 10.563)">
                  <path id="Trazado_736974" data-name="Trazado 736974" d="M366.322,318.171H362.4v19.02a1.313,1.313,0,0,1-1.313,1.313h-7.849v4.137H365.17a1.313,1.313,0,0,0,1.313-1.313V318.3Z" transform="translate(-353.233 -318.171)" fill="#d88a55"/>
                </g>
                <path id="Trazado_736975" data-name="Trazado 736975" d="M407.976,360.438h-6.583a.394.394,0,0,0-.394.394v7.876h6.977Z" transform="translate(-351.335 -344.324)" fill="#ffe5c2"/>
                <path id="Trazado_736976" data-name="Trazado 736976" d="M423,360.438h4.087v8.27H423Z" transform="translate(-370.445 -344.324)" fill="#fed2a4"/>
                <path id="Trazado_736977" data-name="Trazado 736977" d="M401,427.559a.394.394,0,0,0,.394.394h6.583V423.41H401Z" transform="translate(-351.335 -399.026)" fill="#a2e62e"/>
                <path id="Trazado_736978" data-name="Trazado 736978" d="M423,423.41h4.087v4.543H423Z" transform="translate(-370.445 -399.026)" fill="#97d729"/>
                <path id="Trazado_736979" data-name="Trazado 736979" d="M95.131,237.873l-4.3,9.728a1.183,1.183,0,0,1-1.081.7H56.67l-.481.131v23.026a1.313,1.313,0,0,0,1.313,1.313h37.83V237.742Z" transform="translate(-51.808 -237.742)" fill="#fed2a4"/>
                <path id="Trazado_736980" data-name="Trazado 736980" d="M95.131,237.873l-3.894,8.8v18.682a3.283,3.283,0,0,1-3.283,3.283H56.189v2.824a1.313,1.313,0,0,0,1.313,1.313h37.83V237.742Z" transform="translate(-51.808 -237.742)" fill="#ffbd86"/>
                <path id="Trazado_736981" data-name="Trazado 736981" d="M130.5,336.586a10.228,10.228,0,0,0,6.133-18.415H124.367a10.228,10.228,0,0,0,6.133,18.415Z" transform="translate(-107.472 -307.608)" fill="#fe646f"/>
                <path id="Trazado_736982" data-name="Trazado 736982" d="M148.444,336.586a10.228,10.228,0,0,0,6.133-18.415H153a10.23,10.23,0,0,1-12.07,15.121A10.2,10.2,0,0,0,148.444,336.586Z" transform="translate(-125.416 -307.608)" fill="#fd4755"/>
                <path id="Trazado_736983" data-name="Trazado 736983" d="M371.307,248.436h-11.25a1.313,1.313,0,0,1-1.191-.759l-4.622-9.935h12.447a1.051,1.051,0,0,1,.953.608L371.9,247.5A.657.657,0,0,1,371.307,248.436Z" transform="translate(-310.721 -237.742)" fill="#ffe5c2"/>
                <path id="Trazado_736984" data-name="Trazado 736984" d="M393.829,247.5l-4.258-9.153a1.051,1.051,0,0,0-.953-.608h-3.153l2.881,6.192a.657.657,0,0,1-.6.934h-8.264l1.307,2.809a1.313,1.313,0,0,0,1.191.759h11.25A.657.657,0,0,0,393.829,247.5Z" transform="translate(-332.648 -237.742)" fill="#fed2a4"/>
                <path id="Trazado_736985" data-name="Trazado 736985" d="M60.766,248.437H23.486a.657.657,0,0,1-.6-.922l4.048-9.146a1.051,1.051,0,0,1,.961-.625H66.353l-4.387,9.912A1.313,1.313,0,0,1,60.766,248.437Z" transform="translate(-22.829 -237.743)" fill="#fff3de"/>
                <path id="Trazado_736986" data-name="Trazado 736986" d="M61.776,237.741l-2.807,6.344a1.313,1.313,0,0,1-1.2.782H24.056l-1.171,2.646a.657.657,0,0,0,.6.922h37.28a1.313,1.313,0,0,0,1.2-.782l4.387-9.912H61.776Z" transform="translate(-22.829 -237.741)" fill="#ffe5c2"/>
              </g>
            </g>
          </g>
        </g>
      </g>
      <g id="Grupo_1053819" data-name="Grupo 1053819" transform="translate(15.329 0)">
        <path id="Trazado_736987" data-name="Trazado 736987" d="M169.547,385.517a.985.985,0,0,0-.985.985,2.953,2.953,0,0,1-5.905,0,.985.985,0,0,0-1.97,0,4.923,4.923,0,0,0,9.845,0A.985.985,0,0,0,169.547,385.517Z" transform="translate(-141.597 -334.888)"/>
        <path id="Trazado_736988" data-name="Trazado 736988" d="M165.484,347.893a.985.985,0,0,0,.985-.985V345.5a.985.985,0,1,0-1.97,0v1.407A.985.985,0,0,0,165.484,347.893Z" transform="translate(-144.909 -299.271)"/>
        <path id="Trazado_736989" data-name="Trazado 736989" d="M216.484,347.893a.985.985,0,0,0,.985-.985V345.5a.985.985,0,0,0-1.97,0v1.407A.985.985,0,0,0,216.484,347.893Z" transform="translate(-189.211 -299.271)"/>
        <path id="Trazado_736990" data-name="Trazado 736990" d="M78.388,40.567,74.13,31.414a2.042,2.042,0,0,0-1.846-1.177h-.219V29.129a2.943,2.943,0,0,0-.755-1.97,2.943,2.943,0,0,0,.755-1.97v-1.47a2.943,2.943,0,0,0-.755-1.97,2.943,2.943,0,0,0,.755-1.97v-1.47a2.958,2.958,0,0,0-2.938-2.954V11.248a3.763,3.763,0,0,0-2.091-3.384L59.762,4.227a4.29,4.29,0,0,0-1.909-.451h-.458V2.955A2.958,2.958,0,0,0,54.439,0H33.334a2.958,2.958,0,0,0-2.955,2.955V5.713H24.366a2.564,2.564,0,0,0-2.561,2.561V30.237h-.427a2.037,2.037,0,0,0-1.861,1.212L15.47,40.6a1.642,1.642,0,0,0,1.5,2.306H19.71V53.451a.985.985,0,1,0,1.97,0V42.9h8.952a11.215,11.215,0,1,0,17.418,0h6.2a2.3,2.3,0,0,0,2.1-1.368l2.368-5.351V65.27H22.008a.329.329,0,0,1-.328-.328V58.047a.985.985,0,0,0-1.97,0v6.895a2.3,2.3,0,0,0,2.3,2.3H71.641a2.3,2.3,0,0,0,2.3-2.3V42.9H76.9a1.642,1.642,0,0,0,1.488-2.334ZM70.1,18.309v1.47a.986.986,0,0,1-.985.985H48.005a.986.986,0,0,1-.985-.985v-1.47a.986.986,0,0,1,.985-.985H59.674a.985.985,0,1,0,0-1.97H53.316V13.826H67.157v1.528H64.271a.985.985,0,1,0,0,1.97h4.84A.986.986,0,0,1,70.1,18.309Zm0,5.41v1.47a.986.986,0,0,1-.985.985H48.005a.986.986,0,0,1-.985-.985v-1.47a.986.986,0,0,1,.985-.985H69.111A.986.986,0,0,1,70.1,23.719ZM64.79,8.944l1.365.683a1.8,1.8,0,0,1,1,1.622v.607H64.79V8.944Zm-6.937-3.2a2.309,2.309,0,0,1,1.028.243l3.939,1.97v3.9h-9.5V5.747Zm-25.5-2.792a.986.986,0,0,1,.985-.985H54.439a.986.986,0,0,1,.985.985v.822H52.988a1.643,1.643,0,0,0-1.642,1.642v9.936H49.384V8.274a2.564,2.564,0,0,0-2.561-2.561H32.349Zm7.4,4.728a4.269,4.269,0,0,1-8.307,0Zm-10.313,0a6.238,6.238,0,0,0,12.319,0h1.328a7.552,7.552,0,0,1-14.975,0ZM48.586,49.969a9.246,9.246,0,1,1-15.2-7.068H45.3A9.186,9.186,0,0,1,48.586,49.969Zm5.964-9.233a.329.329,0,0,1-.3.2H17.475l3.843-8.685a.066.066,0,0,1,.06-.039h5.464a.985.985,0,1,0,0-1.97H23.775V8.274a.592.592,0,0,1,.591-.591h1.758a9.522,9.522,0,0,0,18.941,0h1.758a.592.592,0,0,1,.591.591v7.14a2.96,2.96,0,0,0-2.364,2.9v1.47a2.943,2.943,0,0,0,.755,1.97,2.943,2.943,0,0,0-.755,1.97v1.47a2.943,2.943,0,0,0,.755,1.97,2.943,2.943,0,0,0-.755,1.97v1.108H31.439a.985.985,0,1,0,0,1.97H58.325Zm-7.53-10.5V29.129a.986.986,0,0,1,.985-.985H69.111a.986.986,0,0,1,.985.985v1.108ZM71.97,59.163H66.963V56.591H71.97Zm0-4.543H66.963v-6.3H71.97Zm0-8.27h-5.6a1.38,1.38,0,0,0-1.379,1.379V59.754a1.38,1.38,0,0,0,1.379,1.379h5.6v3.809a.329.329,0,0,1-.328.328H60.69V35.389l2.877,6.184A2.306,2.306,0,0,0,65.65,42.9H71.97v3.45Zm-6.319-5.42a.33.33,0,0,1-.3-.19l-3.97-8.534h10.9a.066.066,0,0,1,.059.038l4.041,8.686H65.65Z" transform="translate(-15.329 0)"/>
        <circle id="Elipse_8045" data-name="Elipse 8045" cx="0.985" cy="0.985" r="0.985" transform="translate(41.365 6.922)"/>
        <circle id="Elipse_8046" data-name="Elipse 8046" cx="0.985" cy="0.985" r="0.985" transform="translate(44.184 8.343)"/>
      </g>
    </g>
  </g>
</svg>
