<svg xmlns="http://www.w3.org/2000/svg" width="76" height="76" viewBox="0 0 76 76">
  <g id="Grupo_57261" data-name="Grupo 57261" transform="translate(-392 -3695)">
    <g id="disminucion-de-la-concentracion" transform="translate(402 3705.007)">
      <g id="Grupo_57245" data-name="Grupo 57245" transform="translate(5.876 1.867)">
        <g id="Grupo_57236" data-name="Grupo 57236" transform="translate(19.276 33.295)">
          <path id="Trazado_101456" data-name="Trazado 101456" d="M31.5,40.866v5.257H28V40.989l1.752-1,1.787.8Z" transform="translate(-28 -39.99)" fill="#5d9cec"/>
        </g>
        <g id="Grupo_57237" data-name="Grupo 57237" transform="translate(3.505 28.914)">
          <path id="Trazado_101457" data-name="Trazado 101457" d="M20.514,53.39l.14.149a8.239,8.239,0,0,0-1.893,5.108H16.133S10,58.647,10,50.762c0-8.079.876-15.772.876-15.772l6.133,1.752Z" transform="translate(-10 -34.99)" fill="#75b1f2"/>
        </g>
        <g id="Grupo_57238" data-name="Grupo 57238" transform="translate(10.383 26.154)">
          <path id="Trazado_101458" data-name="Trazado 101458" d="M28.5,52.124c-3.5-1.051-5.608-.28-6.869,1.025L21.486,53l-3.5-16.648-.131-.859.131-.018a20.155,20.155,0,0,0,4.416,2.55l-.035.079v4.381l4.381-2.506v5.135h3.5V39.857l.035-.079,6.1,2.707A14.7,14.7,0,0,0,33.9,34.81a13.3,13.3,0,0,0,1.139-2.97l.464.131c15.772,5.257,14.9,14.019,14.9,20.152s-6.133,6.133-6.133,6.133H28.5Z" transform="translate(-17.85 -31.84)" fill="#75b1f2"/>
        </g>
        <g id="Grupo_57239" data-name="Grupo 57239" transform="translate(21.002 29.125)">
          <path id="Trazado_101459" data-name="Trazado 101459" d="M37.882,42.905l-6.1-2.707L30,39.4l-.026-.149A7.519,7.519,0,0,0,35.4,35.23,14.7,14.7,0,0,1,37.882,42.905Z" transform="translate(-29.97 -35.23)" fill="#5d9cec"/>
        </g>
        <g id="Grupo_57240" data-name="Grupo 57240" transform="translate(14.895 32.34)">
          <path id="Trazado_101460" data-name="Trazado 101460" d="M29.133,39.855l-1.752,1L23,43.36V38.979l.035-.079a11.683,11.683,0,0,0,4.346.955,10.043,10.043,0,0,0,1.726-.149Z" transform="translate(-23 -38.9)" fill="#5d9cec"/>
        </g>
        <g id="Grupo_57241" data-name="Grupo 57241" transform="translate(12.267 45.946)">
          <path id="Trazado_101461" data-name="Trazado 101461" d="M28.762,54.921v6.133H20a8.239,8.239,0,0,1,1.893-5.108c1.262-1.306,3.365-2.077,6.869-1.025Z" transform="translate(-20 -54.429)" fill="#f0d0b4"/>
        </g>
        <g id="Grupo_57242" data-name="Grupo 57242" transform="translate(8.665 10.514)">
          <path id="Trazado_101462" data-name="Trazado 101462" d="M33.659,32.6a7.519,7.519,0,0,1-5.432,4.022,10.043,10.043,0,0,1-1.726.149,11.683,11.683,0,0,1-4.346-.955,20.155,20.155,0,0,1-4.416-2.55l-.131.018L15.986,22.752s-.876-6.133,2.629-7.01,5.257,2.629,5.257,2.629l7.01-4.381a21.143,21.143,0,0,1,2.366,3.636,16.587,16.587,0,0,1,2.015,9.507,20.839,20.839,0,0,1-.464,2.5A13.3,13.3,0,0,1,33.659,32.6Z" transform="translate(-15.889 -13.99)" fill="#f0d0b4"/>
        </g>
        <g id="Grupo_57243" data-name="Grupo 57243" transform="translate(4.151 19.276)">
          <path id="Trazado_101463" data-name="Trazado 101463" d="M16.969,34.522l.131.859-6.133-1.752a10.568,10.568,0,0,1,0-4.381,7.171,7.171,0,0,1,4.381-5.257Z" transform="translate(-10.738 -23.99)" fill="#f0d0b4"/>
        </g>
        <g id="Grupo_57244" data-name="Grupo 57244">
          <path id="Trazado_101464" data-name="Trazado 101464" d="M27.476,5.547l.429-.053,6.133.876a29.978,29.978,0,0,1-1.752,9.638l-.263.131A21.143,21.143,0,0,0,29.657,12.5a27.114,27.114,0,0,1-7.01,4.381s-1.752-3.5-5.257-2.629-2.629,7.01-2.629,7.01a7.171,7.171,0,0,0-4.381,5.257S6,23.895,6,15.133,19.143,1.99,27.029,1.99Z" transform="translate(-6 -1.99)" fill="#656d78"/>
        </g>
      </g>
      <g id="Grupo_57246" data-name="Grupo 57246" transform="translate(5 0.993)">
        <path id="Trazado_101465" data-name="Trazado 101465" d="M34.48,27.426c.118-.564.223-1.153.3-1.79a17.023,17.023,0,0,0-1.807-9.425A30.585,30.585,0,0,0,34.791,6.25v-.76l-6.67-.953L27.678.993H26.9C17.952.993,5,5.985,5,15.012c0,7.435,3.041,10.725,4.289,11.76a10.729,10.729,0,0,0,.082,4.054C9.256,31.885,8.5,39.1,8.5,46.555c0,8.662,6.939,8.762,7.01,8.762H42.676c2.424,0,7.01-1.465,7.01-7.01l0-.916c.042-6.234.094-14.757-15.21-19.966ZM6.752,15.012c0-7.884,12.04-11.978,19.381-12.252l.779,6.227L28.65,8.77l-.3-2.43,4.668.667a30.555,30.555,0,0,1-1.171,7.137A20.087,20.087,0,0,0,30.2,11.815l-1.331,1.14c.05.058,4.993,5.934,4.178,12.465-.736,5.886-3.391,8.871-7.893,8.871-3.663,0-7.437-2.724-8.1-3.227L15.506,21.022c-.008-.053-.69-5.369,1.973-6.036,2.777-.693,4.2,2.056,4.261,2.171l1.568-.784c-.715-1.43-2.95-3.914-6.253-3.086-3.512.877-3.482,5.609-3.349,7.345a7.984,7.984,0,0,0-3.889,4.232C8.65,23.612,6.752,20.7,6.752,15.012Zm14.9,20.431a12.742,12.742,0,0,0,2.141.492L21.648,37.16Zm4.381,1.231.926-.529.826.368v3.91H26.029Zm3.139-1.462A8.076,8.076,0,0,0,32.3,32.649a14.177,14.177,0,0,1,1.483,4.617ZM11.015,30.089c-.224-1.391-.534-5.438,2.943-7.605l1.359,8.834Zm4.5,23.476c-.215,0-5.257-.08-5.257-7.01,0-6.224.53-12.285.763-14.642l4.621,1.32L19,49.2a8.9,8.9,0,0,0-1.674,4.37Zm10.514,0H19.094a6.119,6.119,0,0,1,2.058-4.052c1.166-.867,2.808-1.046,4.877-.536Zm21.909-6.184,0,.927c0,5.078-4.722,5.254-5.257,5.257h-14.9V48.973l15.13-4.2-.469-1.689-1.8.5-2.376-9.5-1.7.424,2.388,9.55L26.9,47.4c-2.592-.726-4.736-.576-6.386.448L17.485,33.476A21.04,21.04,0,0,0,19.9,34.764V40.18l4.381-2.5v4.5h5.257V37.291l6.133,2.727V38.669a15.646,15.646,0,0,0-2.332-7.733,13.749,13.749,0,0,0,.7-1.811c13.986,4.8,13.944,12.255,13.9,18.256Z" transform="translate(-5 -0.993)"/>
        <path id="Trazado_101466" data-name="Trazado 101466" d="M31.081,32.106a.279.279,0,0,1-.387.078l-.879-.585a2.035,2.035,0,0,0-2.564.254L25.293,33.81l1.239,1.239,1.959-1.958a.278.278,0,0,1,.351-.034l.879.585a2.031,2.031,0,0,0,2.818-.563l1.112-1.667-1.458-.972Z" transform="translate(-7.512 -4.639)"/>
        <path id="Trazado_101467" data-name="Trazado 101467" d="M49.479,30.138l-1.638-3.275L42.8,27.871l.343,1.718,3.725-.745,1.867,3.734,6.938-3.965-.869-1.521Z" transform="translate(-9.68 -4.196)"/>
        <path id="Trazado_101468" data-name="Trazado 101468" d="M48.278,17.171l-3.173,6.345,1.568.783,2.084-4.169,2.334,2.334,5.873-4.893-1.123-1.347L51.2,20.094Z" transform="translate(-9.965 -2.879)"/>
        <path id="Trazado_101469" data-name="Trazado 101469" d="M47.338,8.823l2.527,2.527L53.888,2.3l-1.6-.711L49.3,8.307,46.571,5.578l-3.634,10.9-2.6-1.3-.783,1.568,4.408,2.2Z" transform="translate(-9.278 -1.067)"/>
        <path id="Trazado_101470" data-name="Trazado 101470" d="M20.336,23.1l-.783,1.568,2.617,1.308-1.2,1.8,1.458.973,2.3-3.455Z" transform="translate(-6.802 -3.73)"/>
        <path id="Trazado_101471" data-name="Trazado 101471" d="M29.806,23.043l3.4,1.132.554-1.661-1.859-.62.68-2.718-1.7-.424Z" transform="translate(-8.071 -3.192)"/>
        <path id="Trazado_101472" data-name="Trazado 101472" d="M27.815,14.554a11.651,11.651,0,0,0-4.632-2.531l-.426,1.7a9.917,9.917,0,0,1,3.859,2.108Z" transform="translate(-7.198 -2.359)"/>
        <path id="Trazado_101473" data-name="Trazado 101473" d="M30.961,12.885a13.6,13.6,0,0,0-4.724-2.84l-.555,1.661a11.921,11.921,0,0,1,4.038,2.417Z" transform="translate(-7.561 -2.114)"/>
      </g>
    </g>
    <rect id="Rectángulo_5541" data-name="Rectángulo 5541" width="76" height="76" transform="translate(392 3695)" fill="none"/>
  </g>
</svg>
