<svg xmlns="http://www.w3.org/2000/svg" width="85" height="92" viewBox="0 0 85 92">
  <g id="Grupo_1054218" data-name="Grupo 1054218" transform="translate(-377 -2637)">
    <rect id="Rectángulo_338875" data-name="Rectángulo 338875" width="85" height="92" rx="10" transform="translate(377 2637)" fill="#ff6e33"/>
    <g id="telassss" transform="translate(389.726 2651.771)">
      <path id="Trazado_738806" data-name="Trazado 738806" d="M201.041,125.819l-3.523-7.261a1.089,1.089,0,0,1,0-.95l2.972-6.125a1.089,1.089,0,0,0-.979-1.564H158.444v49.088h41.028a1.088,1.088,0,0,0,.979-1.564l-2.934-6.045a1.089,1.089,0,0,1,0-.95l3.523-7.259a1.089,1.089,0,0,0,0-.95l-3.523-7.26a1.089,1.089,0,0,1,0-.95l3.523-7.259A1.088,1.088,0,0,0,201.041,125.819Z" transform="translate(-139.094 -96.254)" fill="#61aff6"/>
      <path id="Trazado_738807" data-name="Trazado 738807" d="M197.517,134.98a1.089,1.089,0,0,1,0-.95l3.523-7.259a1.089,1.089,0,0,0,0-.95l-3.523-7.26a1.088,1.088,0,0,1,0-.95l2.972-6.125a1.089,1.089,0,0,0-.979-1.564h-5.617a1.088,1.088,0,0,1,.979,1.564l-2.972,6.125a1.088,1.088,0,0,0,0,.95l3.523,7.26a1.089,1.089,0,0,1,0,.95L191.9,134.03a1.089,1.089,0,0,0,0,.95l3.523,7.26a1.089,1.089,0,0,1,0,.95L191.9,150.45a1.089,1.089,0,0,0,0,.95L194.615,157H158.444v2.013h41.028a1.088,1.088,0,0,0,.979-1.564l-.324-.668h0l-2.609-5.377a1.089,1.089,0,0,1,0-.95l3.523-7.259a1.089,1.089,0,0,0,0-.95Z" transform="translate(-139.094 -96.255)" fill="#55a2f0"/>
      <path id="Trazado_738808" data-name="Trazado 738808" d="M33.7,69.1H15.819a5.76,5.76,0,0,1-5.76-5.76V13.309A6.059,6.059,0,0,1,16.118,7.25H33.7a6.059,6.059,0,0,1,6.059,6.059V63.043A6.059,6.059,0,0,1,33.7,69.1Z" transform="translate(-9.157 -6.349)" fill="#61aff6"/>
      <g id="Grupo_1054222" data-name="Grupo 1054222" transform="translate(0.902 0.901)">
        <path id="Trazado_738809" data-name="Trazado 738809" d="M160.674,7.25h-5.618a6.059,6.059,0,0,1,6.059,6.059V63.043a6.059,6.059,0,0,1-6.059,6.059h5.618a6.059,6.059,0,0,0,6.059-6.059V13.309A6.059,6.059,0,0,0,160.674,7.25Z" transform="translate(-137.029 -7.25)" fill="#55a2f0"/>
        <path id="Trazado_738810" data-name="Trazado 738810" d="M32.644,423.61H15.819a5.76,5.76,0,0,1-5.76-5.76h0a5.76,5.76,0,0,1,5.76-5.76H32.644a5.76,5.76,0,0,1,5.76,5.76h0A5.76,5.76,0,0,1,32.644,423.61Z" transform="translate(-10.059 -361.758)" fill="#55a2f0"/>
      </g>
      <path id="Trazado_738811" data-name="Trazado 738811" d="M62.036,38.329a.182.182,0,0,1,0-.159l3.523-7.258a1.983,1.983,0,0,0,0-1.741l-3.523-7.259a.182.182,0,0,1,0-.159l2.972-6.124a1.994,1.994,0,0,0-1.794-2.865H54.34a.906.906,0,0,0,0,1.812h8.873a.182.182,0,0,1,.164.262L60.406,20.96a1.983,1.983,0,0,0,0,1.741l3.523,7.26a.182.182,0,0,1,0,.159l-3.522,7.258a1.983,1.983,0,0,0,0,1.741l3.523,7.259a.182.182,0,0,1,0,.159L60.406,53.8a1.983,1.983,0,0,0,0,1.741l2.933,6.044a.182.182,0,0,1-.164.262H32.03l.006-.005q.125-.114.244-.233c.027-.027.053-.056.08-.084.053-.055.106-.11.158-.167.031-.034.06-.07.091-.1.045-.052.091-.1.134-.157.031-.038.061-.078.092-.117s.081-.1.12-.156.06-.083.089-.125.074-.1.109-.158.057-.088.085-.132.068-.107.1-.162.053-.092.079-.138.061-.11.091-.165.049-.095.073-.143.056-.113.082-.17.045-.1.067-.147.05-.116.074-.175.04-.1.059-.15.044-.12.065-.18.035-.1.052-.153.038-.124.056-.186.03-.1.044-.154.032-.128.047-.192.025-.1.036-.154.026-.134.038-.2c.009-.051.019-.1.027-.152.011-.071.02-.143.029-.214.006-.048.013-.1.018-.145.008-.08.014-.161.02-.242,0-.041.007-.081.009-.122q.01-.184.01-.369V14.575H48.705a.906.906,0,1,0,0-1.812H34.314v-5.8A6.972,6.972,0,0,0,27.35,0H9.766A6.972,6.972,0,0,0,2.8,6.964v32.02a.906.906,0,0,0,1.812,0V6.964A5.158,5.158,0,0,1,9.766,1.812H27.35A5.158,5.158,0,0,1,32.5,6.964V54.579a6.675,6.675,0,0,0-6.212-4.255H9.467a6.646,6.646,0,0,0-4.853,2.1V44.692a.906.906,0,0,0-1.812,0v12c0,.05,0,.1,0,.149s0,.1,0,.149a6.673,6.673,0,0,0,6.665,6.665H63.175a1.994,1.994,0,0,0,1.794-2.865l-2.933-6.044a.182.182,0,0,1,0-.159l3.522-7.258a1.983,1.983,0,0,0,0-1.741ZM26.29,61.843H9.766a5.157,5.157,0,0,1-5.148-5,4.858,4.858,0,0,1,4.849-4.7H26.29a4.853,4.853,0,0,1,0,9.707Z" transform="translate(-2.802)"/>
      <path id="Trazado_738812" data-name="Trazado 738812" d="M49.047,430.767H32.225a3.437,3.437,0,0,0-3.432,3.566,3.455,3.455,0,0,0,3.494,3.3h16.76a.906.906,0,0,0,0-1.812H32.287a1.669,1.669,0,0,1-1.683-1.559,1.625,1.625,0,0,1,1.621-1.686H49.047a1.624,1.624,0,0,1,1.221.556.075.075,0,0,1,.011.094.1.1,0,0,1-.1.066H42.393a.906.906,0,0,0,0,1.812H50.18a1.9,1.9,0,0,0,1.749-1.13,1.879,1.879,0,0,0-.3-2.036A3.435,3.435,0,0,0,49.047,430.767Z" transform="translate(-25.56 -377.212)"/>
    </g>
  </g>
</svg>
