<svg xmlns="http://www.w3.org/2000/svg" width="85" height="92" viewBox="0 0 85 92">
  <g id="Grupo_1054219" data-name="Grupo 1054219" transform="translate(-377 -2637)">
    <rect id="Rectángulo_338875" data-name="Rectángulo 338875" width="85" height="92" rx="10" transform="translate(377 2637)" fill="#ff6e33"/>
    <g id="textil" transform="translate(388.998 2647)">
      <g id="Grupo_1054227" data-name="Grupo 1054227" transform="translate(1.055 1.055)">
        <g id="Grupo_1054224" data-name="Grupo 1054224">
          <path id="Trazado_738832" data-name="Trazado 738832" d="M246.609,35.421h-6.187V8.2a.7.7,0,0,1,.7-.7h4.781a.7.7,0,0,1,.7.7Z" transform="translate(-211.664 -7.5)" fill="#d5cfd6"/>
          <path id="Trazado_738833" data-name="Trazado 738833" d="M170.609,35.421h-6.187V8.2a.7.7,0,0,1,.7-.7h4.781a.7.7,0,0,1,.7.7Z" transform="translate(-146.352 -7.5)" fill="#d5cfd6"/>
          <path id="Trazado_738834" data-name="Trazado 738834" d="M74.27,102.868H37.328a1.406,1.406,0,0,1-1.406-1.406V62.255a1.406,1.406,0,0,1,2.012-1.269L74.962,78.672a1.406,1.406,0,0,1,.8,1.274l-.086,21.521A1.406,1.406,0,0,1,74.27,102.868Z" transform="translate(-35.922 -53.345)" fill="#f6f3f5"/>
          <g id="Grupo_1054223" data-name="Grupo 1054223" transform="translate(18.07 5.555)">
            <path id="Trazado_738835" data-name="Trazado 738835" d="M164.422,47h6.187v5.062h-6.187Z" transform="translate(-164.422 -47)" fill="#ffe589"/>
            <path id="Trazado_738836" data-name="Trazado 738836" d="M240.422,47h6.188v5.062h-6.187Z" transform="translate(-229.735 -47)" fill="#ffe589"/>
          </g>
        </g>
        <g id="Grupo_1054226" data-name="Grupo 1054226" transform="translate(28.63 30.284)">
          <g id="Grupo_1054225" data-name="Grupo 1054225">
            <path id="Trazado_738837" data-name="Trazado 738837" d="M241.589,479.1H264.76a2.078,2.078,0,0,0,0-4.156H241.589a2.078,2.078,0,1,0,0,4.156Z" transform="translate(-239.511 -439.494)" fill="#8d818c"/>
            <path id="Trazado_738838" data-name="Trazado 738838" d="M393.28,474.944h-4.219a2.078,2.078,0,0,1,0,4.156h4.219a2.078,2.078,0,1,0,0-4.156Z" transform="translate(-368.031 -439.494)" fill="#7b727b"/>
            <path id="Trazado_738839" data-name="Trazado 738839" d="M241.589,227.007H264.76a2.078,2.078,0,0,0,0-4.156H241.589a2.078,2.078,0,1,0,0,4.156Z" transform="translate(-239.511 -222.851)" fill="#8d818c"/>
            <path id="Trazado_738840" data-name="Trazado 738840" d="M393.28,222.851h-4.219a2.078,2.078,0,0,1,0,4.156h4.219a2.078,2.078,0,1,0,0-4.156Z" transform="translate(-368.031 -222.851)" fill="#7b727b"/>
            <path id="Trazado_738841" data-name="Trazado 738841" d="M0,0H21.534V31.294H0Z" transform="translate(24.431 35.45) rotate(180)" fill="#ff6167"/>
          </g>
        </g>
      </g>
      <path id="Trazado_738842" data-name="Trazado 738842" d="M91.373,50.56a4.5,4.5,0,0,0-4.5,4.5V59.3a2.39,2.39,0,0,1-2.388,2.388h-.9V36.539a3.132,3.132,0,0,0-.236-6.256H70.361l.011-2.625a2.472,2.472,0,0,0-1.4-2.229l-3.5-1.669v-22A1.76,1.76,0,0,0,63.719,0H58.937A1.76,1.76,0,0,0,57.18,1.758V19.8l-2.391-1.142V1.758A1.76,1.76,0,0,0,53.031,0H48.25a1.76,1.76,0,0,0-1.758,1.758V14.693L31.944,7.744a2.5,2.5,0,0,0-3.522,2.221v7.8a1.055,1.055,0,0,0,2.109,0v-7.8a.352.352,0,0,1,.5-.317L68.062,27.334a.353.353,0,0,1,.2.318l-.011,2.632H60.185a3.132,3.132,0,0,0-.236,6.256V49.523H30.883a.352.352,0,0,1-.352-.352V43.409H48.813a1.055,1.055,0,0,0,0-2.109H30.531V37H48.813a1.055,1.055,0,0,0,0-2.109H30.531v-4.3H48.813a1.055,1.055,0,0,0,0-2.109H30.531V22.265a1.055,1.055,0,1,0-2.109,0V49.171a2.464,2.464,0,0,0,2.461,2.461H59.948V65.744A3.132,3.132,0,0,0,60.184,72H75.615a1.055,1.055,0,0,0,0-2.109H60.184a1.023,1.023,0,0,1,0-2.047H83.355a1.024,1.024,0,0,1,0,2.047H79.816a1.055,1.055,0,1,0,0,2.109h3.539a3.132,3.132,0,0,0,.236-6.256V63.8h.9a4.5,4.5,0,0,0,4.5-4.5V55.056a2.39,2.39,0,0,1,2.388-2.388,1.055,1.055,0,1,0,0-2.109ZM59.289,7.664h4.078v2.953H59.289Zm4.078-5.555V5.555H59.289V2.109ZM59.289,12.726h4.078V22.753l-4.078-1.948ZM48.6,7.664H52.68v2.953H48.6ZM52.68,2.109V5.555H48.6V2.109ZM48.6,12.726H52.68v4.922L48.6,15.7ZM81.482,44.46v1.759H62.057V44.46ZM62.057,42.35V40.591H81.482V42.35Zm19.425,5.978v1.759H62.057V48.328ZM62.057,52.2H81.482v1.759H62.057Zm19.425,3.868v1.759H62.057V56.064Zm0-17.582H62.057V36.549H81.482ZM62.057,59.933H81.482v1.759H62.057Zm-2.9-26.516a1.025,1.025,0,0,1,1.023-1.023H83.355a1.023,1.023,0,0,1,0,2.047H60.184A1.025,1.025,0,0,1,59.161,33.416ZM81.482,65.734H62.057V63.8H81.482Z" transform="translate(-28.422 0)"/>
    </g>
  </g>
</svg>
