<svg xmlns="http://www.w3.org/2000/svg" width="14.709" height="11.752" viewBox="0 0 14.709 11.752">
  <path id="Trazado_734725" data-name="Trazado 734725" d="M-8846.432-6027.229h-1.1l-3.64,2.868a.738.738,0,0,0-.182,1.03c.431.557,1.5,1.643,1.5,1.643s.6.29.937-.153a2.243,2.243,0,0,1,.707-.624l.355-.271v5.893s-.137,1.311,1.422,1.35,4.352,0,4.352,0,1.524.117,1.562-1.226,0-6.017,0-6.017l1.2.895a.873.873,0,0,0,1.094,0,11.124,11.124,0,0,0,1.333-1.489.832.832,0,0,0-.21-1.03c-.531-.454-3.418-2.868-3.418-2.868h-1.252s-.8,1.873-2.452,1.8A2.637,2.637,0,0,1-8846.432-6027.229Z" transform="translate(8851.504 6027.229)" fill="#ff6e33"/>
</svg>
