<svg xmlns="http://www.w3.org/2000/svg" width="60" height="60" viewBox="0 0 60 60">
  <g id="layer1" transform="translate(-0.529 -280.596)">
    <path id="path15777-4" d="M58.793,284.035h-58v44a2,2,0,0,0,2,2h54a2,2,0,0,0,2-2Z" transform="translate(0.736 9.559)" fill="#dbe9ee"/>
    <path id="rect2181-6" d="M2.794,280.86a2,2,0,0,0-2,2v10h58v-10a2,2,0,0,0-2-2Z" transform="translate(0.735 0.734)" fill="#33658a"/>
    <g id="Grupo_80233" data-name="Grupo 80233" transform="translate(5.529 285.595)">
      <path id="path2185-5" d="M5.852,283.919a2,2,0,1,1-2-2A2,2,0,0,1,5.852,283.919Z" transform="translate(-1.852 -281.919)" fill="#5b91b8"/>
      <path id="circle2187-5" d="M7.969,283.919a2,2,0,1,1-2-2,2,2,0,0,1,2,2Z" transform="translate(4.031 -281.919)" fill="#5b91b8"/>
      <path id="circle2189-2" d="M10.085,283.919a2,2,0,1,1-2-2,2,2,0,0,1,2,2Z" transform="translate(9.914 -281.919)" fill="#5b91b8"/>
    </g>
    <path id="rect2197-2" d="M9.79,281.919h20v4h-20Z" transform="translate(25.739 3.677)" fill="#dbe9ee"/>
    <path id="rect2118" d="M2.381,285.623h46v26h-46Z" transform="translate(5.148 13.973)" fill="#ff6b6b"/>
    <path id="path2126" d="M7.408,297.739l8-5-8-5Z" transform="translate(19.121 19.855)" fill="#dbe9ee"/>
    <path id="path13073-4" d="M3.527,280.6a3.011,3.011,0,0,0-3,3v54a3.019,3.019,0,0,0,3,3.006H57.533a3.017,3.017,0,0,0,3-3.006v-54a3.009,3.009,0,0,0-3-3Zm0,2H57.533a.97.97,0,0,1,1,1v9h-56v-9a.97.97,0,0,1,1-1Zm4,2a3,3,0,1,0,3.006,3A3.01,3.01,0,0,0,7.527,284.6Zm8,0a3,3,0,1,0,3,3A3.01,3.01,0,0,0,15.529,284.6Zm8,0a3,3,0,1,0,3,3A3.017,3.017,0,0,0,23.531,284.6Zm11.949,0a1.007,1.007,0,0,0-.949,1v4a1,1,0,0,0,1,1H55.533a1,1,0,0,0,1-1v-4a1,1,0,0,0-1-1Zm-27.953,2a1,1,0,1,1-1,1A.985.985,0,0,1,7.527,286.6Zm8,0a1,1,0,0,1,0,2,1,1,0,1,1,0-2Zm8,0a1,1,0,0,1,0,2,1,1,0,1,1,0-2Zm13,0h18v2h-18Zm-34,7.994h56v43a.978.978,0,0,1-1,1.006H3.527a.978.978,0,0,1-1-1.006Zm5,4a1,1,0,0,0-1,1V325.6a1,1,0,0,0,1,1h46a1,1,0,0,0,1-1V299.592a1,1,0,0,0-1-1Zm1,2h44v24h-44Zm17.961,6a1,1,0,0,0-.961,1v10a1,1,0,0,0,1.529.848l8-5a1,1,0,0,0,0-1.691l-8-5a1,1,0,0,0-.568-.149Zm1.039,2.8,5.123,3.2-5.123,3.2ZM17.512,328.582a1,1,0,0,0-.982,1.01V330.6H7.478a1,1,0,1,0,0,2h9.051v1a1,1,0,1,0,2,0v-4A1,1,0,0,0,17.512,328.582Zm4.016,4.016h32a1,1,0,1,0,0-2H21.479a1,1,0,0,0,.048,2Z" transform="translate(0)"/>
  </g>
</svg>
