<svg xmlns="http://www.w3.org/2000/svg" xmlns:xlink="http://www.w3.org/1999/xlink" width="200" height="200" viewBox="0 0 200 200">
  <defs>
    <filter id="Trazado_113938" x="0" y="0" width="200" height="200" filterUnits="userSpaceOnUse">
      <feOffset input="SourceAlpha"/>
      <feGaussianBlur stdDeviation="20" result="blur"/>
      <feFlood flood-color="#402d27" flood-opacity="0.192"/>
      <feComposite operator="in" in2="blur"/>
      <feComposite in="SourceGraphic"/>
    </filter>
    <clipPath id="clip-path">
      <rect id="Rectángulo_361860" data-name="Rectángulo 361860" width="59.839" height="45.483" fill="none"/>
    </clipPath>
  </defs>
  <g id="Grupo_80220" data-name="Grupo 80220" transform="translate(-890.333 -114)">
    <g transform="matrix(1, 0, 0, 1, 890.33, 114)" filter="url(#Trazado_113938)">
      <path id="Trazado_113938-2" data-name="Trazado 113938" d="M40,0A40,40,0,1,1,10.363,13.136,40,40,0,0,1,40,0Z" transform="translate(60 60)" fill="#9f0925"/>
    </g>
    <g id="Grupo_1054335" data-name="Grupo 1054335" transform="translate(956.064 195.572) rotate(-13)">
      <rect id="Rectángulo_361846" data-name="Rectángulo 361846" width="53.836" height="8.893" transform="translate(0 36.578)" fill="#ffcc5c"/>
      <rect id="Rectángulo_361847" data-name="Rectángulo 361847" width="0.898" height="2.447" transform="translate(4.445 36.578)" fill="#ff9000"/>
      <rect id="Rectángulo_361848" data-name="Rectángulo 361848" width="0.898" height="2.447" transform="translate(9.339 36.578)" fill="#ff9000"/>
      <rect id="Rectángulo_361849" data-name="Rectángulo 361849" width="0.898" height="2.447" transform="translate(14.234 36.578)" fill="#ff9000"/>
      <rect id="Rectángulo_361850" data-name="Rectángulo 361850" width="0.898" height="2.447" transform="translate(19.128 36.578)" fill="#ff9000"/>
      <rect id="Rectángulo_361851" data-name="Rectángulo 361851" width="0.898" height="2.447" transform="translate(24.022 36.578)" fill="#ff9000"/>
      <rect id="Rectángulo_361852" data-name="Rectángulo 361852" width="0.898" height="2.447" transform="translate(28.916 36.578)" fill="#ff9000"/>
      <rect id="Rectángulo_361853" data-name="Rectángulo 361853" width="0.898" height="2.447" transform="translate(33.81 36.578)" fill="#ff9000"/>
      <rect id="Rectángulo_361854" data-name="Rectángulo 361854" width="0.898" height="2.447" transform="translate(38.705 36.578)" fill="#ff9000"/>
      <rect id="Rectángulo_361855" data-name="Rectángulo 361855" width="0.898" height="2.447" transform="translate(43.599 36.578)" fill="#ff9000"/>
      <rect id="Rectángulo_361856" data-name="Rectángulo 361856" width="0.898" height="2.447" transform="translate(48.493 36.578)" fill="#ff9000"/>
      <rect id="Rectángulo_361857" data-name="Rectángulo 361857" width="30.996" height="43.004" transform="translate(10.669 2.468)" fill="#e3c1ba"/>
      <g id="Grupo_1054336" data-name="Grupo 1054336">
        <g id="Grupo_1054335-2" data-name="Grupo 1054335" clip-path="url(#clip-path)">
          <path id="Trazado_771716" data-name="Trazado 771716" d="M75.57,61.086H75.1v-.449h.149q.214-.611.428-1.254l.426.142q-.241.726-.484,1.411Zm-2.261,0h-1.8v-.449h1.8Zm-3.59,0h-1.8v-.449h1.8Zm-3.59,0H64.334v-.449h1.795Zm-3.59,0h-.621l.123-.308q.276-.687.551-1.4l.418.162q-.236.61-.472,1.2Zm1.109-3.226-.421-.155q.306-.828.608-1.685l.423.149q-.3.861-.611,1.691m13.008-.049-.428-.132q.258-.835.509-1.716l.431.123q-.252.886-.512,1.726M64.844,54.467l-.425-.143q.282-.839.558-1.7l.428.137q-.278.867-.561,1.709m12.8-.119-.434-.113q.222-.851.433-1.737l.436.1q-.211.892-.435,1.747m-11.7-3.307-.429-.13q.256-.848.507-1.719l.431.124q-.251.874-.508,1.725m12.537-.2-.439-.094q.185-.862.356-1.755l.441.084q-.172.9-.358,1.764M66.929,47.584l-.433-.117q.231-.856.454-1.733l.435.11q-.223.88-.456,1.74m12.221-.273-.443-.076q.148-.87.279-1.768l.444.065q-.132.9-.281,1.778M67.814,44.1l-.436-.1q.184-.778.363-1.572l.039-.173.438.1-.039.177q-.178.8-.364,1.577m11.857-.348-.445-.054q.04-.327.078-.657.066-.565.122-1.123l.446.045q-.056.562-.122,1.13-.039.331-.079.659M68.594,40.587l-.439-.091q.183-.886.349-1.757l.441.084q-.168.875-.351,1.764m11.441-.419-.447-.035q.071-.905.122-1.786l.448.025q-.051.886-.122,1.8M69.268,37.054l-.442-.077q.156-.893.3-1.767l.443.071q-.141.878-.3,1.774m10.972-.48-.449-.016q.031-.909.043-1.789l.449.006q-.012.884-.043,1.8M69.836,33.5l-.444-.064q.13-.9.243-1.775l.445.057q-.114.88-.244,1.782m10-.523q-.008-.913-.035-1.789l.449-.014q.027.881.035,1.8ZM70.3,29.936l-.446-.051q.1-.9.189-1.781l.447.044q-.087.881-.19,1.788m9.433-.534q-.049-.917-.114-1.787l.448-.033q.065.874.114,1.8ZM70.65,26.339l-.448-.021.035-.442h2v.449Zm8.77-.014H77.625v-.449H79.42Zm-3.59,0h-1.8v-.449h1.8Z" transform="translate(-46.688 -19.512)" fill="#f4dbcd"/>
          <rect id="Rectángulo_361858" data-name="Rectángulo 361858" width="22.404" height="22.404" transform="translate(0 2.468)" fill="#f4dbcd"/>
          <path id="Trazado_771717" data-name="Trazado 771717" d="M69.714,2.073v.395h-.543V2.073a1.887,1.887,0,0,0-3.738,0V7.615a1.166,1.166,0,0,0,2.311,0V2.159a.389.389,0,0,0-.13-.278.492.492,0,0,0-.619,0,.388.388,0,0,0-.135.287V7.535a.277.277,0,0,1-.543,0V2.163a.765.765,0,0,1,.283-.592,1.139,1.139,0,0,1,1.4,0,.763.763,0,0,1,.283.588V7.615a1.6,1.6,0,0,1-1.7,1.458,1.827,1.827,0,0,1-1.2-.431,1.353,1.353,0,0,1-.494-1.028V2.073a2.44,2.44,0,0,1,4.824,0" transform="translate(-48.929)" fill="#714e55"/>
          <path id="Trazado_771718" data-name="Trazado 771718" d="M26.6,24.084l2.892,2.308,2.225-2.53,1.418.389s-1.279,4.672-.723,7.341,2.363,8.4,2.363,8.4H24.346s2.558-7.564,2.5-8.676-1.335-6.563-1.335-6.563Z" transform="translate(-18.357 -17.993)" fill="#e3c1ba"/>
          <path id="Trazado_771719" data-name="Trazado 771719" d="M189.71,89.243s.218,2.726.475,6c.349,4.452.769,9.92.81,10.956.072,1.8.36,4.676.36,4.676a2.262,2.262,0,0,0,2.05.4,47.066,47.066,0,0,0,1.566-8.454l.016-.215c.324-4.424.827-13.741.827-13.741Z" transform="translate(-143.046 -67.006)" fill="#006a99"/>
          <path id="Trazado_771720" data-name="Trazado 771720" d="M189.71,89.243s.218,2.726.475,6l4.787,7.574.016-.215c.324-4.424.827-13.741.827-13.741Z" transform="translate(-143.046 -67.006)" fill="#003650"/>
          <path id="Trazado_771721" data-name="Trazado 771721" d="M193.767,86.259s3.939,9.874,6.529,14.514,3.4,5.935,3.4,5.935q.378-.171.759-.347.476-.22.942-.441c-1.128-5.335-2.1-8.96-2.807-11.352-.254-.858-.96-3.2-1.728-6.433-.366-1.538-.635-2.811-.807-3.657Z" transform="translate(-146.105 -63.699)" fill="#006a99"/>
          <path id="Trazado_771722" data-name="Trazado 771722" d="M186.372,178.362s-3.344.854-3.46,1.6h5.263l.077-1.6Z" transform="translate(-137.92 -134.489)" fill="#003650"/>
          <path id="Trazado_771723" data-name="Trazado 771723" d="M225.8,172.375a4.757,4.757,0,0,1-1.523,1.241c-.453.229-1.021.412-1.133.866a.767.767,0,0,0,.027.427h1.493l3.418-1.759-.549-1.5Z" transform="translate(-168.24 -129.426)" fill="#003650"/>
          <path id="Trazado_771724" data-name="Trazado 771724" d="M154.613,53.575a16.709,16.709,0,0,1-.5,1.81,6.772,6.772,0,0,1-1.774,3.068,1.6,1.6,0,0,1-.7.323,4.6,4.6,0,0,1-1.747-.115,15.616,15.616,0,0,1-3.6-1.448l.259-1.05s1.97.313,3.154.415a2.068,2.068,0,0,0,.865-.014c.171-.21,2.644-4.778,2.644-4.778Z" transform="translate(-110.312 -39.049)" fill="#ff2b4b"/>
          <path id="Trazado_771725" data-name="Trazado 771725" d="M93.153,95.292l-1.048.832a1.33,1.33,0,0,0,.887,2.371l1.337-.06Z" transform="translate(-69.07 -71.853)" fill="#003650"/>
          <rect id="Rectángulo_361859" data-name="Rectángulo 361859" width="2.064" height="7.741" transform="translate(49.554 11.566) rotate(-20.51)" fill="#003650"/>
          <path id="Trazado_771726" data-name="Trazado 771726" d="M103.833,88.235c-.055.006-.11.011-.164.013a2.12,2.12,0,0,1-.351-.013h-.007l-4.225-.494L97.91,84.6l2.864-3.146,0,0a2.178,2.178,0,0,1,.257-.24c.042-.034.087-.067.132-.1Z" transform="translate(-73.827 -61.159)" fill="#f4dbcd"/>
          <path id="Trazado_771727" data-name="Trazado 771727" d="M212.036,48.334l-2.713-7.252,2.3-.859a1.936,1.936,0,0,1,2.491,1.135l1.356,3.626a1.936,1.936,0,0,1-1.135,2.491Z" transform="translate(-157.835 -30.237)" fill="#ff2b4b"/>
          <path id="Trazado_771728" data-name="Trazado 771728" d="M131.364,49.452l-22.237,8.319-.348.13a.513.513,0,0,0-.349-.318l-.749-.2a.516.516,0,0,1-.294-.787l.728-1.081c.042-.034.087-.067.132-.1a2.271,2.271,0,0,1,.491-.256l21.723-8.126Z" transform="translate(-80.906 -35.466)" fill="#ffda94"/>
          <path id="Trazado_771729" data-name="Trazado 771729" d="M138.716,69.107l-21.723,8.126a2.282,2.282,0,0,1-.539.129c-.055.006-.11.011-.164.013l-1.258-.337a.516.516,0,0,1-.294-.787l.433-.643a.513.513,0,0,0,.055-.469l.348-.13,22.237-8.319Z" transform="translate(-86.449 -50.286)" fill="#ffb200"/>
          <path id="Trazado_771730" data-name="Trazado 771730" d="M134.136,56.862,111.55,65.31a.513.513,0,0,1-.055.469l-.433.643a.516.516,0,0,0,.294.787l.749.2a.512.512,0,0,1,.35.318l22.585-8.448Z" transform="translate(-83.677 -42.875)" fill="#ffcc5c"/>
          <path id="Trazado_771731" data-name="Trazado 771731" d="M173.171,36.952s-.5,1.952-2.134,2.131a9.5,9.5,0,0,1-.836-1.2l-.1-.184c-.313-.581-.5-.9-.5-.9h0c.048-.058,1.627-1.932,1.661-1.863a4.021,4.021,0,0,0,1.911,2.02" transform="translate(-127.881 -26.338)" fill="#ffb29f"/>
          <path id="Trazado_771732" data-name="Trazado 771732" d="M171.254,36.874a3.545,3.545,0,0,1-1.153,2.281c-.313-.581-.5-.9-.5-.9h0a14.587,14.587,0,0,1,1.656-1.38" transform="translate(-127.88 -27.797)" fill="#ff876f"/>
          <path id="Trazado_771733" data-name="Trazado 771733" d="M162.492,28.833s2.436-.629,2.021-2.168-.38-2.657-1.953-2.32-1.715,1.007-1.7,1.554.987,3.058,1.631,2.934" transform="translate(-121.292 -18.311)" fill="#ffb29f"/>
          <path id="Trazado_771734" data-name="Trazado 771734" d="M160.809,22.685c.462-.092,1.241-2.676-.289-3.829a2.559,2.559,0,0,0-3.136.147,2.271,2.271,0,0,0-.618.971c-.053,0-1,.036-1.16.493-.179.509.674,1.371,1.333,1.306.591-.058.745-.833,1.269-.767a1.694,1.694,0,0,1,.957.59c.121.166.241.295.606-.1s.535.531.543.72c.143.241.333.5.495.469" transform="translate(-117.313 -13.866)" fill="#003650"/>
          <path id="Trazado_771735" data-name="Trazado 771735" d="M185.321,54.094a14.894,14.894,0,0,1-7.681,1.957,9.867,9.867,0,0,0-1.183-4.612c-1.083-1.946-2.692-3.079-2.875-5.386a5.445,5.445,0,0,1,.042-1.222l2.081-1.43a1.518,1.518,0,0,1,1.683-.033,18.446,18.446,0,0,1,1.825,1.351,20.124,20.124,0,0,1,6.108,9.375" transform="translate(-130.873 -32.521)" fill="#ff2b4b"/>
          <path id="Trazado_771736" data-name="Trazado 771736" d="M184.124,65.052l1.526-3.216-.629,5.045Z" transform="translate(-138.834 -46.625)" fill="#b9425d"/>
          <path id="Trazado_771737" data-name="Trazado 771737" d="M152.27,76.813a7.079,7.079,0,0,1-.631.942,9.3,9.3,0,0,1-1.924,1.41c-1.777,1.064-3.971,2.058-3.971,2.058a1.526,1.526,0,0,1-1.407.636c-.619-.02-.454.043-.894.038a.241.241,0,0,1-.267-.279.549.549,0,0,1,.185-.389,2.174,2.174,0,0,1,1.175-.657.34.34,0,0,1-.187-.176c-.017-.079.592-.045.863-.027a12.776,12.776,0,0,0,3.114-2.635c.6-.628,1.067-1.152,1.176-1.276a6.417,6.417,0,0,0,.443-1.34,9.048,9.048,0,0,0,2.325,1.694" transform="translate(-107.958 -56.642)" fill="#ffb29f"/>
          <path id="Trazado_771738" data-name="Trazado 771738" d="M170.715,52.127c-.9,1.758-2.581,5.04-3.074,5.788a7.121,7.121,0,0,1-1.394,1.9,2.7,2.7,0,0,1-2.136-1.849c.6-.628,1.067-1.152,1.176-1.276a52.46,52.46,0,0,0,1.422-5.385s.371-2.04,1.512-2.332a2.119,2.119,0,0,1,2.2.755,2.143,2.143,0,0,1,.29,2.4" transform="translate(-123.744 -36.874)" fill="#ff2b4b"/>
        </g>
      </g>
    </g>
  </g>
</svg>
