<svg xmlns="http://www.w3.org/2000/svg" xmlns:xlink="http://www.w3.org/1999/xlink" width="216" height="216" viewBox="0 0 216 216">
  <defs>
    <filter id="Trazado_113935" x="0" y="0" width="216" height="216" filterUnits="userSpaceOnUse">
      <feOffset input="SourceAlpha"/>
      <feGaussianBlur stdDeviation="20" result="blur"/>
      <feFlood flood-color="#402d27" flood-opacity="0.263"/>
      <feComposite operator="in" in2="blur"/>
      <feComposite in="SourceGraphic"/>
    </filter>
    <clipPath id="clip-path">
      <rect id="Rectángulo_361872" data-name="Rectángulo 361872" width="78.716" height="55.011" fill="none"/>
    </clipPath>
  </defs>
  <g id="Grupo_80214" data-name="Grupo 80214" transform="translate(-844.333 -322.495)">
    <g transform="matrix(1, 0, 0, 1, 844.33, 322.5)" filter="url(#Trazado_113935)">
      <path id="Trazado_113935-2" data-name="Trazado 113935" d="M48,0A48,48,0,1,1,0,48,48,48,0,0,1,48,0Z" transform="translate(60 60)" fill="#9f0925"/>
    </g>
    <g id="Grupo_1054342" data-name="Grupo 1054342" transform="translate(917.396 390.154) rotate(11)">
      <g id="Grupo_1054341" data-name="Grupo 1054341" clip-path="url(#clip-path)">
        <path id="Trazado_771819" data-name="Trazado 771819" d="M34.985,149.417H3.693c-2.04,0-3.693-1.967-3.693-4.393s1.654-4.394,3.693-4.394H34.985c2.04,0,3.693,1.967,3.693,4.394s-1.654,4.393-3.693,4.393" transform="translate(0 -94.456)" fill="#ffb200"/>
        <path id="Trazado_771820" data-name="Trazado 771820" d="M50.013,153.453H19.581a.541.541,0,0,1,0-1.066H50.013a.541.541,0,0,1,0,1.066" transform="translate(-12.851 -102.352)" fill="#4f363b"/>
        <path id="Trazado_771821" data-name="Trazado 771821" d="M106.326,36.828v12.03H62.936v3.1a1.551,1.551,0,0,1-1.4,1.666H53.424a1.551,1.551,0,0,1-1.4-1.666V36.828a1.938,1.938,0,0,1,1.751-2.083h50.8a1.938,1.938,0,0,1,1.751,2.083" transform="translate(-34.942 -23.337)" fill="#e3c1ba"/>
        <path id="Trazado_771822" data-name="Trazado 771822" d="M177.017,66.014H157.271V34.738h18a1.939,1.939,0,0,1,1.751,2.083Z" transform="translate(-105.633 -23.332)" fill="#e3c1ba"/>
        <path id="Trazado_771823" data-name="Trazado 771823" d="M102.376,142.272H41.006V131.864a1.872,1.872,0,0,1,1.872-1.872H100.5a1.872,1.872,0,0,1,1.872,1.872Z" transform="translate(-27.542 -87.311)" fill="#e3c1ba"/>
        <path id="Trazado_771824" data-name="Trazado 771824" d="M107.873,52.271H89.338a.942.942,0,0,1,0-1.856h18.534a.942.942,0,0,1,0,1.856" transform="translate(-59.481 -33.862)" fill="#f4dbcd"/>
        <path id="Trazado_771825" data-name="Trazado 771825" d="M176.234,18.2h0a.484.484,0,0,1-.437-.52V11.819a.443.443,0,1,1,.874,0v5.865a.484.484,0,0,1-.437.52" transform="translate(-118.076 -7.59)" fill="#f4dbcd"/>
        <rect id="Rectángulo_361866" data-name="Rectángulo 361866" width="2.704" height="2.054" transform="translate(56.806 9.352)" fill="#003650"/>
        <path id="Trazado_771826" data-name="Trazado 771826" d="M58.723,129.992a16.418,16.418,0,0,1,8.267,5.2,20.966,20.966,0,0,1,4,7.08h22.3a17.374,17.374,0,0,0-3-7.352,13.184,13.184,0,0,0-6.656-4.928Z" transform="translate(-39.442 -87.311)" fill="#b9425d"/>
        <rect id="Rectángulo_361867" data-name="Rectángulo 361867" width="1.498" height="10.195" transform="translate(20.819 30.288)" fill="#f4dbcd"/>
        <rect id="Rectángulo_361868" data-name="Rectángulo 361868" width="0.957" height="5.469" transform="translate(23.044 30.287)" fill="#f4dbcd"/>
        <path id="Trazado_771827" data-name="Trazado 771827" d="M61.673,121.08h0a.506.506,0,0,1-.457.544H56.3v-.012H56.14l-.39-1.1a.541.541,0,0,1,.421-.755h.321a.463.463,0,0,1,.421.332l.041.115a.463.463,0,0,0,.421.332h3.841a.506.506,0,0,1,.457.544" transform="translate(-37.421 -80.436)" fill="#f4dbcd"/>
        <rect id="Rectángulo_361869" data-name="Rectángulo 361869" width="5.833" height="1.262" transform="translate(19.4 30.287)" fill="#f4dbcd"/>
        <path id="Trazado_771828" data-name="Trazado 771828" d="M182.9,75.812c0,2.788-1.9,5.048-4.243,5.048s-4.244-2.26-4.244-5.048,1.9-5.048,4.244-5.048,4.243,2.26,4.243,5.048" transform="translate(-117.148 -47.529)" fill="#f4dbcd"/>
        <line id="Línea_297" data-name="Línea 297" y2="2.413" transform="translate(61.511 23.235)" fill="#fff"/>
        <rect id="Rectángulo_361870" data-name="Rectángulo 361870" width="0.504" height="2.412" transform="translate(61.259 23.235)" fill="#ff5a19"/>
        <path id="Trazado_771829" data-name="Trazado 771829" d="M102.686,159.706l19.1-3.758,9.021,3.758Z" transform="translate(-68.97 -104.744)" fill="#ff2b4b"/>
        <rect id="Rectángulo_361871" data-name="Rectángulo 361871" width="12.731" height="19.205" transform="translate(63.573 32.044)" fill="#ffcc5c"/>
        <path id="Trazado_771830" data-name="Trazado 771830" d="M204.628,89.9H191.9l-.843-3.761H205.47Z" transform="translate(-128.324 -57.856)" fill="#f4dbcd"/>
        <path id="Trazado_771831" data-name="Trazado 771831" d="M204.628,156.087H191.9l-.843,3.761H205.47Z" transform="translate(-128.324 -104.838)" fill="#f4dbcd"/>
        <path id="Trazado_771832" data-name="Trazado 771832" d="M205.773,116.451l-12.731-3.832a.317.317,0,0,1,0-.58l11.766-3.542-11.766-3.541a.317.317,0,0,1,0-.58l11.766-3.542-11.766-3.541.124-.58,12.73,3.832a.316.316,0,0,1,0,.58l-11.766,3.542,11.766,3.541a.316.316,0,0,1,0,.58l-11.766,3.542,11.766,3.541Z" transform="translate(-129.532 -64.958)" fill="#ffb200"/>
        <path id="Trazado_771833" data-name="Trazado 771833" d="M211.1,1.5A3.128,3.128,0,0,1,213.63,0c1.879-.068,3.015,1.815,3.18,2.1a6.114,6.114,0,0,1,.606,4.11,7.337,7.337,0,0,1,2.6,4.671,5.977,5.977,0,0,1-.789,4.376,3.549,3.549,0,0,1-4.606.987,4.638,4.638,0,0,1-1.792-2.3c-.975-2.433.385-3.7-.492-6.1-.61-1.664-1.493-1.666-1.743-3.35a4.573,4.573,0,0,1,.5-3" transform="translate(-141.406 0)" fill="#003650"/>
        <path id="Trazado_771834" data-name="Trazado 771834" d="M194.658,44.674l4.836-4.834s.454-2.5,1-5.809c.712.312,1.324,1.052,2.037,1.357L200.708,42.2a.881.881,0,0,1-.412.554l-5.082,2.774-1.678,1.107-.507-1.326Z" transform="translate(-129.65 -22.857)" fill="#ff876f"/>
        <path id="Trazado_771835" data-name="Trazado 771835" d="M215.074,36.731a36.534,36.534,0,0,0,1.118-4.619c.1-1.272-.468-.171-1.409.018-.356.072-1.124-2.189-1.449-1.143a41.819,41.819,0,0,0-.984,4.455Z" transform="translate(-142.627 -20.627)" fill="#fff"/>
        <path id="Trazado_771836" data-name="Trazado 771836" d="M214.558,36.416a.219.219,0,0,1-.093-.021l-2.724-1.289a.314.314,0,0,1-.154-.336,41.491,41.491,0,0,1,1-4.5c.087-.28.223-.437.4-.467.345-.065.629.4.928.888a3.583,3.583,0,0,0,.358.521,2.489,2.489,0,0,0,.76-.381c.269-.178.5-.333.716-.165s.206.534.179.862a36.1,36.1,0,0,1-1.132,4.692.284.284,0,0,1-.134.171.217.217,0,0,1-.1.027m-2.435-1.775,2.285,1.082a32.226,32.226,0,0,0,1.017-4.254c.008-.094.011-.165.012-.218-.052.031-.111.07-.16.1a2.777,2.777,0,0,1-.968.458c-.284.053-.517-.305-.8-.768a3.76,3.76,0,0,0-.435-.619c-.005.014-.011.032-.018.053a39.169,39.169,0,0,0-.931,4.164" transform="translate(-142.112 -20.012)" fill="#ff5a19"/>
        <path id="Trazado_771837" data-name="Trazado 771837" d="M218.391,35.919s-.846.18-1.939.288c-1.415.138-3.243.168-4.17-.455a1.3,1.3,0,0,1-.473-.527s-.02-.509-.045-1.276c-.071-2.1-.2-6.128-.176-6.793a29.2,29.2,0,0,1,1.113-4.978,9.683,9.683,0,0,1,2.558-1.12s1.873-.437,2.729.413c.362.365.383,1.959.282,3.768v.012c-.131,2.4-.468,5.163-.468,5.876,0,1.252.589,4.792.589,4.792" transform="translate(-142.114 -14.068)" fill="#ff2b4b"/>
        <path id="Trazado_771838" data-name="Trazado 771838" d="M218.759,44.7s-.846.18-1.939.288c-1.415.138-3.243.168-4.17-.455a1.3,1.3,0,0,1-.473-.527s-.02-.509-.045-1.276l3.223-1.647,2.09-4.229,1.194-2.834v.012c-.131,2.4-.468,5.163-.468,5.876,0,1.252.589,4.792.589,4.792" transform="translate(-142.481 -22.851)" fill="#b9425d"/>
        <path id="Trazado_771839" data-name="Trazado 771839" d="M203.736,38.949l4.319-3.862s.722-3.594,1.516-6.781c.712.313,1.324,1.053,2.037,1.358l-1.822,6.807a.882.882,0,0,1-.412.554L204.292,39.8l-1.678,1.107-.507-1.326Z" transform="translate(-135.747 -19.012)" fill="#ffb29f"/>
        <path id="Trazado_771840" data-name="Trazado 771840" d="M224.152,28.576a36.528,36.528,0,0,0,1.118-4.619c.1-1.272-.9-2.763-1.846-2.574s-2,5.9-2,5.9Z" transform="translate(-148.724 -14.351)" fill="#ff2b4b"/>
        <path id="Trazado_771841" data-name="Trazado 771841" d="M219.317,10.687s.01.067.028.18a19.811,19.811,0,0,0,.633,2.845c.267.6-.915,2.512-2.052,2.279-.339-.07.286-1.757.256-1.936-.057-.342-.135-.809-.215-1.288l-.133-.8c-.122-.731-.221-1.329-.221-1.329Z" transform="translate(-146.161 -7.144)" fill="#ffb29f"/>
        <path id="Trazado_771842" data-name="Trazado 771842" d="M219.344,16.73c-.018-.114-.028-.18-.028-.18l-1.7-.051s.1.6.221,1.329c.042.256.088.528.133.8a1.513,1.513,0,0,0,.814-.484,2.631,2.631,0,0,0,.617-1.089c-.021-.128-.039-.238-.052-.322" transform="translate(-146.161 -11.082)" fill="#ff876f"/>
        <path id="Trazado_771843" data-name="Trazado 771843" d="M217.767,5.523c-.064.4-.287.689-.506.634h0a2.791,2.791,0,0,1-.725,1.605,1.634,1.634,0,0,1-1.022.5c-.859.051-1.723-1.248-1.923-2.487a3.275,3.275,0,0,1,.66-2.724,1.7,1.7,0,0,1,1.181-.42,2.264,2.264,0,0,0,.521,1.711,1.451,1.451,0,0,0,1.284.437.276.276,0,0,1,.251-.087c.219.055.347.423.283.83" transform="translate(-143.422 -1.768)" fill="#ffb29f"/>
        <path id="Trazado_771844" data-name="Trazado 771844" d="M202.027,115.94a31.558,31.558,0,0,1,1.735,2.674,11.952,11.952,0,0,1-.273,2.763c-.2.214-.807.366-.614.607a5.069,5.069,0,0,0,2.019.094c.218-.014.491-2.081.577-2.385a4.958,4.958,0,0,0,.316-1.743,2.38,2.38,0,0,0-.7-.746,24.175,24.175,0,0,1-1.9-2.794Z" transform="translate(-135.694 -76.844)" fill="#ffb29f"/>
        <path id="Trazado_771845" data-name="Trazado 771845" d="M206.312,122.875s-1.158,3.878-1.611,4.065c-.12.05-.7.176-.807.479a1.577,1.577,0,0,0,0,.4h2.413s.305-1.709.426-2.459a12.671,12.671,0,0,0,.568-2c-.071-.167-.989-.482-.989-.482" transform="translate(-136.938 -82.53)" fill="#003650"/>
        <path id="Trazado_771846" data-name="Trazado 771846" d="M158.368,120.254s-1.408,2.358-1.284,3.1c.066.4.362.922.192,1.3a.944.944,0,0,1-.363.47l-4.392.084c-.239,0-.081-.178.112-.347a8.626,8.626,0,0,1,1.579-1.037c.066-.038.305-.219.392-.281a3.276,3.276,0,0,0,.628-.659c.316-.417,1.7-3.813,1.7-3.813Z" transform="translate(-102.361 -79.977)" fill="#ffb29f"/>
        <path id="Trazado_771847" data-name="Trazado 771847" d="M153.957,132.454a3.39,3.39,0,0,0,2.5-.117,2.788,2.788,0,0,1,.2,1.241c-.106.369-.258.452-.392.457-1.061.033-3.886.078-4.7.091-.113,0-.175-.155-.1-.258a19.987,19.987,0,0,1,2.489-1.414" transform="translate(-101.714 -88.886)" fill="#003650"/>
        <path id="Trazado_771848" data-name="Trazado 771848" d="M181.223,68.931s1.743,2.367,2.188,2.742c2.515,2.12,2.223,5.034,4.712,9.722.263.495.484.894.624,1.144l-1.055,1.572c-1.256-1.761-2.338-3.317-3.22-4.6-.555-.809-1.6-2.3-3.474-5.476-1.514-2.559-.956-2.4-1.847-3.954a2.373,2.373,0,0,1,.267-2.712c.08-.086.168-.177.263-.271,1.318-1.307,10.354-2.778,10.354-2.778l5.779.673s-4.722,3.939-4.9,4.044a9.164,9.164,0,0,1-6.653,1.206,8.977,8.977,0,0,1-3.04-1.31" transform="translate(-120.124 -43.2)" fill="#003650"/>
        <path id="Trazado_771849" data-name="Trazado 771849" d="M184.135,66.053s.991,3.538-.5,5.189-10.321,1.467-13.229,1.467a40.421,40.421,0,0,1-3.572,8.376,36.387,36.387,0,0,1-4.176,5.9l-2.079.306c.921-1.985,2.274-5.01,3.772-8.8,2.3-5.819,2.413-7.058,3.94-8.713,2.542-2.756,5.834-3.239,9.12-3.721a23.167,23.167,0,0,1,6.719,0" transform="translate(-107.858 -44.201)" fill="#006a99"/>
        <path id="Trazado_771850" data-name="Trazado 771850" d="M171.85,45.969l7.257-.609a.434.434,0,0,1,.438.313l2.235,6.3,4-.335a.2.2,0,0,1,.2.224.248.248,0,0,1-.2.258l-11.387.955a.723.723,0,0,1-.725-.5l-2.25-5.774a.609.609,0,0,1,.432-.83" transform="translate(-115.107 -30.466)" fill="#fff"/>
        <path id="Trazado_771851" data-name="Trazado 771851" d="M185.026,56.546a.437.437,0,0,0,.531.324.457.457,0,0,0,.236-.588.438.438,0,0,0-.531-.324.457.457,0,0,0-.236.588" transform="translate(-124.256 -37.573)" fill="#e3c1ba"/>
      </g>
    </g>
  </g>
</svg>
