<svg xmlns="http://www.w3.org/2000/svg" xmlns:xlink="http://www.w3.org/1999/xlink" width="197" height="197" viewBox="0 0 197 197">
  <defs>
    <filter id="Trazado_113939" x="0" y="0" width="197" height="197" filterUnits="userSpaceOnUse">
      <feOffset input="SourceAlpha"/>
      <feGaussianBlur stdDeviation="20" result="blur"/>
      <feFlood flood-color="#402d27"/>
      <feComposite operator="in" in2="blur"/>
      <feComposite in="SourceGraphic"/>
    </filter>
    <clipPath id="clip-path">
      <rect id="Rectángulo_361864" data-name="Rectángulo 361864" width="63.579" height="54.021" fill="none"/>
    </clipPath>
  </defs>
  <g id="Grupo_80250" data-name="Grupo 80250" transform="translate(-1173.333 -124.355)">
    <g transform="matrix(1, 0, 0, 1, 1173.33, 124.36)" filter="url(#Trazado_113939)">
      <path id="Trazado_113939-2" data-name="Trazado 113939" d="M38.5,0A38.5,38.5,0,1,1,0,38.5,38.5,38.5,0,0,1,38.5,0Z" transform="translate(60 60)" fill="#9f0925"/>
    </g>
    <g id="Grupo_1054337" data-name="Grupo 1054337" transform="translate(1243.072 184.18) rotate(11)">
      <rect id="Rectángulo_361861" data-name="Rectángulo 361861" width="43.468" height="17.248" transform="translate(6.516 36.774)" fill="#752737"/>
      <g id="Grupo_1054338" data-name="Grupo 1054338">
        <g id="Grupo_1054337-2" data-name="Grupo 1054337" clip-path="url(#clip-path)">
          <path id="Trazado_771739" data-name="Trazado 771739" d="M15.9,149.279c0,4.768-2.559,8.634-5.717,8.634s-5.717-3.866-5.717-8.634,2.559-8.634,5.717-8.634,5.717,3.865,5.717,8.634" transform="translate(-3.302 -103.891)" fill="#752737"/>
          <path id="Trazado_771740" data-name="Trazado 771740" d="M18.564,155.5c0,3.553-1.907,6.434-4.26,6.434s-4.26-2.88-4.26-6.434,1.907-6.434,4.26-6.434,4.26,2.88,4.26,6.434" transform="translate(-7.419 -110.11)" fill="#752737"/>
          <path id="Trazado_771741" data-name="Trazado 771741" d="M17.136,161.836c0,2.313-1.24,4.192-2.776,4.192H10.622v-8.383H14.36c1.536,0,2.776,1.878,2.776,4.192" transform="translate(-7.846 -116.448)" fill="#e3c1ba"/>
          <path id="Trazado_771742" data-name="Trazado 771742" d="M5.552,161.833c0,2.315-1.243,4.192-2.776,4.192S0,164.149,0,161.833s1.243-4.192,2.776-4.192,2.776,1.877,2.776,4.192" transform="translate(0 -116.445)" fill="#f4dbcd"/>
          <rect id="Rectángulo_361862" data-name="Rectángulo 361862" width="43.468" height="17.248" transform="translate(12.302 21.706)" fill="#ff2b4b"/>
          <path id="Trazado_771743" data-name="Trazado 771743" d="M38.043,91.622c0,4.768-2.559,8.634-5.717,8.634s-5.717-3.866-5.717-8.634,2.559-8.634,5.717-8.634,5.717,3.865,5.717,8.634" transform="translate(-19.655 -61.301)" fill="#b9425d"/>
          <path id="Trazado_771744" data-name="Trazado 771744" d="M40.7,97.841c0,3.553-1.907,6.434-4.26,6.434s-4.26-2.88-4.26-6.434,1.907-6.434,4.26-6.434,4.26,2.88,4.26,6.434" transform="translate(-23.773 -67.52)" fill="#b9425d"/>
          <path id="Trazado_771745" data-name="Trazado 771745" d="M39.276,104.178c0,2.313-1.24,4.192-2.776,4.192H32.762V99.986H36.5c1.536,0,2.776,1.878,2.776,4.192" transform="translate(-24.2 -73.857)" fill="#e3c1ba"/>
          <path id="Trazado_771746" data-name="Trazado 771746" d="M27.692,104.176c0,2.315-1.243,4.192-2.776,4.192s-2.776-1.877-2.776-4.192,1.243-4.192,2.776-4.192,2.776,1.877,2.776,4.192" transform="translate(-16.354 -73.856)" fill="#f4dbcd"/>
          <rect id="Rectángulo_361863" data-name="Rectángulo 361863" width="43.468" height="17.248" transform="translate(17.52 36.774)" fill="#b9425d"/>
          <path id="Trazado_771747" data-name="Trazado 771747" d="M58.012,149.279c0,4.768-2.559,8.634-5.717,8.634s-5.717-3.866-5.717-8.634,2.559-8.634,5.717-8.634,5.717,3.865,5.717,8.634" transform="translate(-34.406 -103.891)" fill="#a03850"/>
          <path id="Trazado_771748" data-name="Trazado 771748" d="M60.673,155.5c0,3.553-1.907,6.434-4.26,6.434s-4.26-2.88-4.26-6.434,1.907-6.434,4.26-6.434,4.26,2.88,4.26,6.434" transform="translate(-38.524 -110.11)" fill="#a03850"/>
          <path id="Trazado_771749" data-name="Trazado 771749" d="M59.244,161.836c0,2.313-1.24,4.192-2.776,4.192H52.73v-8.383h3.738c1.536,0,2.776,1.878,2.776,4.192" transform="translate(-38.95 -116.448)" fill="#e3c1ba"/>
          <path id="Trazado_771750" data-name="Trazado 771750" d="M47.661,161.833c0,2.315-1.243,4.192-2.776,4.192s-2.776-1.877-2.776-4.192,1.243-4.192,2.776-4.192,2.776,1.877,2.776,4.192" transform="translate(-31.105 -116.445)" fill="#f4dbcd"/>
          <path id="Trazado_771751" data-name="Trazado 771751" d="M103.919,22.041c-.388,3.226.421,5.629.818,7.713.551,2.893,1.28,6.021,1.885,8.923h24.725a83.485,83.485,0,0,0,2.032-13.513q.06-.882.1-1.746a1.7,1.7,0,0,1,1.7-1.626l2.361-11.5,0-.017s-2.3-.959-5.176-1.836c-.015,0-.03-.01-.042-.013-.988-.3-2.041-.59-3.09-.83a24.477,24.477,0,0,0-3.187-.529c-2.811-.245-2.96-6.626-2.96-6.626a9.851,9.851,0,0,0-3.893-.43,20.572,20.572,0,0,0-3.409.43s0,5.047-2.362,6.1c-1.215.541-3.526,1.529-5.791,2.488l-.227.1-.746.316c-.326.138-.652.276-.968.407l-.464.2-.748.316-.051.021a4.33,4.33,0,0,0-2.434,5.387,28.694,28.694,0,0,0,2.2,4.668c-.083.375-.193.929-.274,1.606" transform="translate(-75.166 0)" fill="#003650"/>
          <path id="Trazado_771752" data-name="Trazado 771752" d="M225.744,45.11c-.543,3.194-.042,5.783,1.119,5.783s2.543-2.589,3.086-5.783.042-5.783-1.119-5.783-2.543,2.589-3.086,5.783" transform="translate(-166.589 -29.05)" fill="#003650"/>
          <path id="Trazado_771753" data-name="Trazado 771753" d="M143.318,29.293c-.4,13.921-.8,29.825-1.2,43.746H109.76c.315-5.59.627-13.161.942-18.751l20.4-28.516a19.321,19.321,0,0,1,12.221,3.521" transform="translate(-81.077 -19.017)" fill="#ffda94"/>
          <path id="Trazado_771754" data-name="Trazado 771754" d="M110.077,68.146a.239.239,0,0,1-.1-.454c18.85-8.944,24.612-41.62,24.668-41.949a.242.242,0,0,1,.275-.195.239.239,0,0,1,.195.275c-.056.331-5.859,33.248-24.933,42.3a.238.238,0,0,1-.1.023" transform="translate(-81.135 -18.869)" fill="#ffb200"/>
          <path id="Trazado_771755" data-name="Trazado 771755" d="M173.051,41.742a2.387,2.387,0,0,0-.542,1.178c-.047.093-.154.291-.2.232-.053-.076-.211-.279-.268-.267s.067.21.08.479.059.348.151.423.107.31.107.31h0c-.031.132-.061.243-.08.313-.12.211-.284.5-.47.809a11.8,11.8,0,0,1-1.576,2.25c-.748.523-3.1.973-4.67,1.473-.085.025-.167.051-.248.077l-.175.057a.156.156,0,0,0-.042.017c-.065.026-.125.047-.178.068-.005,0-.012,0-.018.009a4.876,4.876,0,0,0-.62.313c-.18.131-.265.267-.225.407a1.782,1.782,0,0,0,.253.428c.038.05.082.1.131.156a.434.434,0,0,0,.085.089,2.342,2.342,0,0,0,.772.513,2.907,2.907,0,0,0,.9.207,4.939,4.939,0,0,0,2.1-.463.957.957,0,0,0,.107-.043,10.39,10.39,0,0,0,3.5-2.311,8.356,8.356,0,0,0,.905-2.621c.1-.422.178-.815.234-1.107.006-.022.013-.048.021-.079a10.7,10.7,0,0,1,.465-1.239c.314-.67-.107-1.127-.217-1.44s-.292-.238-.292-.238" transform="translate(-121.194 -30.828)" fill="#ffb29f"/>
          <path id="Trazado_771756" data-name="Trazado 771756" d="M115.559,60.729a367.135,367.135,0,0,1,5.559-38.6q.866-4.356,1.814-8.584a14.671,14.671,0,0,1,2.843-4.465q-.113.719-.225,1.438-3.932,25.239-6.637,50.21Z" transform="translate(-85.361 -6.708)" fill="#ffcc5c"/>
          <path id="Trazado_771757" data-name="Trazado 771757" d="M185.415,37.5c-.189-4.586-.24-8.292-.253-10.822a101.734,101.734,0,0,0-.768-15.5c-.054-.38-.1-.693-.132-.9a6.718,6.718,0,0,1,1.254,1.094,8.346,8.346,0,0,1,1.6,3.1c.539,2,1.278,10.868,1.618,23.005l-3.315.018" transform="translate(-136.11 -7.597)" fill="#ffcc5c"/>
          <path id="Trazado_771758" data-name="Trazado 771758" d="M117.86,192.625h-1.674a.238.238,0,0,1,0-.477h1.674a.238.238,0,1,1,0,.477" transform="translate(-85.647 -141.935)" fill="#b9425d"/>
          <path id="Trazado_771759" data-name="Trazado 771759" d="M119.58,175.924h-1.674a.238.238,0,0,1,0-.477h1.674a.238.238,0,1,1,0,.477" transform="translate(-86.918 -129.598)" fill="#b9425d"/>
          <path id="Trazado_771760" data-name="Trazado 771760" d="M121.734,159.223h-1.674a.238.238,0,0,1,0-.477h1.674a.238.238,0,0,1,0,.477" transform="translate(-88.509 -117.262)" fill="#b9425d"/>
          <path id="Trazado_771761" data-name="Trazado 771761" d="M123.783,142.523h-1.674a.238.238,0,1,1,0-.477h1.674a.238.238,0,0,1,0,.477" transform="translate(-90.022 -104.926)" fill="#b9425d"/>
          <path id="Trazado_771762" data-name="Trazado 771762" d="M126.209,125.822h-1.674a.238.238,0,0,1,0-.477h1.674a.238.238,0,0,1,0,.477" transform="translate(-91.814 -92.589)" fill="#b9425d"/>
          <path id="Trazado_771763" data-name="Trazado 771763" d="M128.787,109.119h-1.674a.238.238,0,1,1,0-.477h1.674a.238.238,0,0,1,0,.477" transform="translate(-93.719 -80.251)" fill="#b9425d"/>
          <path id="Trazado_771764" data-name="Trazado 771764" d="M131.627,92.418h-1.674a.238.238,0,0,1,0-.477h1.674a.238.238,0,1,1,0,.477" transform="translate(-95.816 -67.914)" fill="#b9425d"/>
          <path id="Trazado_771765" data-name="Trazado 771765" d="M134.581,75.717h-1.675a.238.238,0,0,1,0-.477h1.675a.238.238,0,0,1,0,.477" transform="translate(-97.998 -55.578)" fill="#b9425d"/>
          <path id="Trazado_771766" data-name="Trazado 771766" d="M137.784,59.016h-1.675a.238.238,0,0,1,0-.477h1.675a.238.238,0,0,1,0,.477" transform="translate(-100.364 -43.241)" fill="#b9425d"/>
          <path id="Trazado_771767" data-name="Trazado 771767" d="M141.224,42.314h-1.674a.238.238,0,0,1,0-.477h1.674a.238.238,0,0,1,0,.477" transform="translate(-102.905 -30.904)" fill="#b9425d"/>
          <path id="Trazado_771768" data-name="Trazado 771768" d="M145.138,25.613h-1.675a.238.238,0,1,1,0-.477h1.675a.238.238,0,0,1,0,.477" transform="translate(-105.797 -18.567)" fill="#b9425d"/>
          <path id="Trazado_771769" data-name="Trazado 771769" d="M189.389,25.613h-1.674a.238.238,0,0,1,0-.477h1.674a.238.238,0,1,1,0,.477" transform="translate(-138.484 -18.567)" fill="#b9425d"/>
          <path id="Trazado_771770" data-name="Trazado 771770" d="M192.1,42.314h-1.674a.238.238,0,0,1,0-.477H192.1a.238.238,0,1,1,0,.477" transform="translate(-140.488 -30.904)" fill="#b9425d"/>
          <path id="Trazado_771771" data-name="Trazado 771771" d="M193.346,59.016h-1.674a.238.238,0,1,1,0-.477h1.674a.238.238,0,0,1,0,.477" transform="translate(-141.407 -43.241)" fill="#b9425d"/>
          <path id="Trazado_771772" data-name="Trazado 771772" d="M194.174,75.717H192.5a.238.238,0,1,1,0-.477h1.675a.238.238,0,0,1,0,.477" transform="translate(-142.018 -55.578)" fill="#b9425d"/>
          <path id="Trazado_771773" data-name="Trazado 771773" d="M195.156,92.418h-1.674a.238.238,0,1,1,0-.477h1.674a.238.238,0,1,1,0,.477" transform="translate(-142.744 -67.914)" fill="#b9425d"/>
          <path id="Trazado_771774" data-name="Trazado 771774" d="M195.7,109.119h-1.674a.238.238,0,1,1,0-.477H195.7a.238.238,0,0,1,0,.477" transform="translate(-143.146 -80.251)" fill="#b9425d"/>
          <path id="Trazado_771775" data-name="Trazado 771775" d="M139.424,35.749c-1.508.536-2.517,2.423-2.294,4.645-2.226,1.373-3.347,3.655-2.846,5.247.643,2.041,4.166,3.621,7.732,1.848q.434-4.263.867-8.525a2.889,2.889,0,0,0-.4-2.605,2.851,2.851,0,0,0-3.059-.609" transform="translate(-99.104 -26.266)" fill="#003650"/>
          <path id="Trazado_771776" data-name="Trazado 771776" d="M152.189,130.869l-.8.3s-3.483-4.83-3.912-9.08a6.455,6.455,0,0,1,.114-2.173l-.094-.538c-.027-.16-.061-.354-.1-.575-.113-.649-.269-1.537-.447-2.547-.41-2.326-.941-5.3-1.353-7.485l.216-.07,2.338-.754.483-1.534,1.741-.458s.389.761.736,4.354c.064.471.122.991.166,1.555a30.76,30.76,0,0,1-.166,6.295q-.12.936-.306,1.932a8.628,8.628,0,0,0-.067,1.908,63.852,63.852,0,0,0,1.451,8.873" transform="translate(-107.548 -78.265)" fill="#003650"/>
          <path id="Trazado_771777" data-name="Trazado 771777" d="M139.738,104.446l-.088-.751c-1.466.389-5.383-1.088-5.383-1.088s-1.42,1.248-1.234,4.241c.091,1.461.257,7.667.431,9.5.063.666.118,1.139.14,1.328v0a.26.26,0,0,1-.043.163,8.61,8.61,0,0,0-.641,1.348c-1.7,4.541.262,10.134.262,10.134l.51-.206s1.119-6.224,2.029-8.973a5.413,5.413,0,0,1,.438-1.052,11.88,11.88,0,0,0,1.1-2.921,71.855,71.855,0,0,0,1.473-7.749c.047,0,1.008-3.98,1.008-3.98" transform="translate(-97.673 -75.794)" fill="#006a99"/>
          <path id="Trazado_771778" data-name="Trazado 771778" d="M135.767,200.013h-4.039a2.218,2.218,0,0,1,.114-1.082c.2-.448.519-.652.443-1.194a1.455,1.455,0,0,0,1.259.482,4.427,4.427,0,0,0,.7.908c.264.189,1.441.122,1.522.886" transform="translate(-97.288 -146.063)" fill="#003650"/>
          <path id="Trazado_771779" data-name="Trazado 771779" d="M168.89,200.525h-4.039a1.678,1.678,0,0,1,.114-1.082.779.779,0,0,0-.029-.93,1.567,1.567,0,0,0,.68.128,1.426,1.426,0,0,0,.6-.211,14.512,14.512,0,0,0,1.151,1.209c.264.189,1.441.122,1.522.886" transform="translate(-121.74 -146.575)" fill="#003650"/>
          <path id="Trazado_771780" data-name="Trazado 771780" d="M150.9,60.472a4.563,4.563,0,0,1-1.614.634c-2.474.5-3.358-1.606-3.672-3.042a2.111,2.111,0,0,1,.84-.232c.178-.016.366-.025.521-.028a3.866,3.866,0,0,0,.846-2.4l.115.034,1.923.585a10.852,10.852,0,0,0-.166,1.194c-.022.261-.033.509-.036.745l.3.315v0a2.235,2.235,0,0,0,.676.758c.2.163.374.531.27,1.434" transform="translate(-107.561 -40.926)" fill="#ffb29f"/>
          <path id="Trazado_771781" data-name="Trazado 771781" d="M156.422,56.123s-.106.613-.166,1.194a2.339,2.339,0,0,1-1.757-1.779Z" transform="translate(-114.124 -41.025)" fill="#ff876f"/>
          <path id="Trazado_771782" data-name="Trazado 771782" d="M154.727,47.143s-2.6-.215-2.441-1.836c.014-.153.029-.3.038-.448a.961.961,0,0,1-.477-.6c-.138-.424-.038-.834.224-.92a.433.433,0,0,1,.415.129,1.116,1.116,0,0,1,1.4-.825c.39.163.328.568.718.919a1.751,1.751,0,0,0,1.289.354,6.4,6.4,0,0,1-1.168,3.228" transform="translate(-112.12 -31.458)" fill="#ffb29f"/>
          <path id="Trazado_771783" data-name="Trazado 771783" d="M147.021,68.068c-.634.157-1.254.305-1.874.439.167,1.049-.486,3.337-1,5.173l-.062.229c-.162.586-.31,1.116-.4,1.53l0,.024a2.021,2.021,0,0,0-.081.82c.234.744-4.181.882-6.465.515-1.154-.062-1.5-.558-1.449-1.216.062-1.011,1.063-2.412,1.492-3.247A10.849,10.849,0,0,0,137.3,71.1c.014-.372,0-.687-.01-.934a29,29,0,0,1-.391-3.275,2.477,2.477,0,0,1,.053-.4,4.2,4.2,0,0,1,.7-1.6,5.634,5.634,0,0,1,.777-.167,6.182,6.182,0,0,1,.686-.052,7.281,7.281,0,0,0,.415,1.921c1,1.235,3.228,1.325,3.685.544.424-.72-.715-2.107-.9-2.331a11.232,11.232,0,0,0,1.726.367,11.073,11.073,0,0,0,2.779.019c.367.882.739,1.759,1.111,2.641l-.911.229" transform="translate(-100.222 -47.776)" fill="#ff2b4b"/>
          <path id="Trazado_771784" data-name="Trazado 771784" d="M147.559,79.8l-.062.229a14.509,14.509,0,0,1-4.248-1.264,14.813,14.813,0,0,1-2.536-1.545c.014-.372,0-.687-.01-.935a28.985,28.985,0,0,1-.391-3.275l.01-.048Z" transform="translate(-103.635 -53.894)" fill="#b9425d"/>
          <path id="Trazado_771785" data-name="Trazado 771785" d="M154.116,76.61a41.118,41.118,0,0,1-6.166.513,7.97,7.97,0,0,1-3.118-1.917c-.212-.19-.417-.384-.619-.57a19.448,19.448,0,0,1-1.916-2.079,7.63,7.63,0,0,1-.738-1.075,3.15,3.15,0,0,1-.165-.324q-.043-.089-.08-.175a3.284,3.284,0,0,1,1.85-1.606l.109.089c.768.648,4.631,5.32,4.809,5.5a50.218,50.218,0,0,0,5.761.779c.459.03.275.868.275.868" transform="translate(-104.384 -51.248)" fill="#ffb29f"/>
          <path id="Trazado_771786" data-name="Trazado 771786" d="M145.66,69.724a6.293,6.293,0,0,0-2.366,1.5c-2.154-1.626-3.262-3.669-2.73-5.125a2.292,2.292,0,0,1,.6-.884,1.457,1.457,0,0,1,.4-.1c2.033-.2,3.872,4.081,4.094,4.609" transform="translate(-103.734 -48.094)" fill="#ff2b4b"/>
          <path id="Trazado_771787" data-name="Trazado 771787" d="M189.253,91.383s.324-.268.454-.412.5-.193.728-.33.295-.056.235.044-.385.337-.416.43.778-.135,1.1-.4.378-.21.347.108a1.837,1.837,0,0,1-.876,1.209,8.022,8.022,0,0,1-1.3.214Z" transform="translate(-139.796 -66.889)" fill="#ffb29f"/>
          <path id="Trazado_771788" data-name="Trazado 771788" d="M169.695,75.649l-.785-1.3,1.807,1.07Z" transform="translate(-124.77 -54.919)" fill="#b9425d"/>
        </g>
      </g>
    </g>
  </g>
</svg>
