<svg xmlns="http://www.w3.org/2000/svg" xmlns:xlink="http://www.w3.org/1999/xlink" width="213" height="213" viewBox="0 0 213 213">
  <defs>
    <filter id="Trazado_113937" x="0" y="0" width="213" height="213" filterUnits="userSpaceOnUse">
      <feOffset input="SourceAlpha"/>
      <feGaussianBlur stdDeviation="20" result="blur"/>
      <feFlood flood-color="#402d27" flood-opacity="0.455"/>
      <feComposite operator="in" in2="blur"/>
      <feComposite in="SourceGraphic"/>
    </filter>
    <clipPath id="clip-path">
      <rect id="Rectángulo_361865" data-name="Rectángulo 361865" width="72.098" height="63.424" fill="none"/>
    </clipPath>
  </defs>
  <g id="Grupo_80211" data-name="Grupo 80211" transform="translate(-1157.333 -318)">
    <g transform="matrix(1, 0, 0, 1, 1157.33, 318)" filter="url(#Trazado_113937)">
      <path id="Trazado_113937-2" data-name="Trazado 113937" d="M46.5,0A46.5,46.5,0,1,1,0,46.5,46.5,46.5,0,0,1,46.5,0Z" transform="translate(60 60)" fill="#9f0925"/>
    </g>
    <g id="Grupo_1054340" data-name="Grupo 1054340" transform="translate(1222.396 395.146) rotate(-11)">
      <g id="Grupo_1054339" data-name="Grupo 1054339" clip-path="url(#clip-path)">
        <path id="Trazado_771789" data-name="Trazado 771789" d="M73.715,58.114a22.8,22.8,0,0,0,.678,2.471,9.248,9.248,0,0,0,2.423,4.19,2.183,2.183,0,0,0,.956.441,6.291,6.291,0,0,0,2.387-.157,21.33,21.33,0,0,0,4.913-1.977l-.354-1.434s-2.691.427-4.307.566A2.822,2.822,0,0,1,79.23,62.2c-.234-.286-3.612-6.526-3.612-6.526Z" transform="translate(-48.951 -36.969)" fill="#b9425d"/>
        <line id="Línea_295" data-name="Línea 295" x2="1.082" y2="8.564" transform="translate(13.44 28.813)" fill="#fff"/>
        <path id="Trazado_771790" data-name="Trazado 771790" d="M40.483,94.031a.306.306,0,0,1-.3-.268L39.1,85.2a.306.306,0,1,1,.608-.077l1.083,8.564a.307.307,0,0,1-.266.342l-.039,0" transform="translate(-25.961 -56.347)" fill="#ff5a19"/>
        <path id="Trazado_771791" data-name="Trazado 771791" d="M38.95,83.627a1.082,1.082,0,1,1-1.082-1.082,1.083,1.083,0,0,1,1.082,1.082" transform="translate(-24.427 -54.815)" fill="#fff"/>
        <path id="Trazado_771792" data-name="Trazado 771792" d="M37.262,84.411a1.389,1.389,0,1,1,1.389-1.388,1.39,1.39,0,0,1-1.389,1.388m0-2.165a.776.776,0,1,0,.776.776.777.777,0,0,0-.776-.776" transform="translate(-23.822 -54.209)" fill="#ff5a19"/>
        <path id="Trazado_771793" data-name="Trazado 771793" d="M42.582,170.521H4.5a4.5,4.5,0,0,1,0-8.991H42.582a4.5,4.5,0,0,1,0,8.991" transform="translate(0 -107.265)" fill="#ffb200"/>
        <path id="Trazado_771794" data-name="Trazado 771794" d="M60.346,174.378H23.307a.546.546,0,1,1,0-1.091H60.346a.546.546,0,1,1,0,1.091" transform="translate(-15.115 -115.072)" fill="#4f363b"/>
        <path id="Trazado_771795" data-name="Trazado 771795" d="M42.582,143.759H4.5a4.5,4.5,0,1,1,0-8.991H42.582a4.5,4.5,0,1,1,0,8.991" transform="translate(0 -89.494)" fill="#ffb200"/>
        <path id="Trazado_771796" data-name="Trazado 771796" d="M60.346,147.616H23.307a.546.546,0,0,1,0-1.091H60.346a.546.546,0,0,1,0,1.091" transform="translate(-15.115 -97.301)" fill="#4f363b"/>
        <path id="Trazado_771797" data-name="Trazado 771797" d="M42.582,116.85H4.5a4.5,4.5,0,0,1,0-8.991H42.582a4.5,4.5,0,1,1,0,8.991" transform="translate(0 -71.624)" fill="#ffb200"/>
        <path id="Trazado_771798" data-name="Trazado 771798" d="M60.346,120.707H23.307a.546.546,0,0,1,0-1.091H60.346a.546.546,0,0,1,0,1.091" transform="translate(-15.115 -79.432)" fill="#4f363b"/>
        <path id="Trazado_771799" data-name="Trazado 771799" d="M60.6,107.859l5.547,5.9a1.279,1.279,0,0,0,1.73.123l7.535-6.026Z" transform="translate(-40.238 -71.624)" fill="#ffcc5c"/>
        <path id="Trazado_771800" data-name="Trazado 771800" d="M88.6,25.733c-.453,3.767.491,6.572.955,9,.643,3.378,1.494,7.029,2.2,10.418h28.866a97.487,97.487,0,0,0,2.372-15.777q.07-1.029.116-2.039a1.989,1.989,0,0,1,1.984-1.9l2.757-13.431.006-.02s-2.686-1.119-6.043-2.143c-.017,0-.035-.011-.049-.014-1.154-.352-2.382-.689-3.608-.969a28.607,28.607,0,0,0-3.721-.617c-3.283-.286-3.456-7.736-3.456-7.736a11.5,11.5,0,0,0-4.546-.5,24.028,24.028,0,0,0-3.98.5s0,5.893-2.757,7.119c-1.419.632-4.116,1.785-6.761,2.9l-.265.112-.871.369c-.381.162-.762.323-1.131.476-.182.078-.363.156-.542.231l-.874.369-.059.025a5.056,5.056,0,0,0-2.841,6.29,33.477,33.477,0,0,0,2.569,5.45c-.1.437-.225,1.085-.32,1.875" transform="translate(-57.157 0)" fill="#003650"/>
        <path id="Trazado_771801" data-name="Trazado 771801" d="M198.731,42.468c-.634,3.729-.049,6.751,1.307,6.751s2.969-3.022,3.6-6.751.049-6.751-1.307-6.751-2.969,3.022-3.6,6.751" transform="translate(-131.799 -23.718)" fill="#003650"/>
        <path id="Trazado_771802" data-name="Trazado 771802" d="M127.465,80.6l-34.613-.208,1.893-24.236a23.235,23.235,0,0,1-2.117-10.586,22.342,22.342,0,0,1,.628-4.39q.6-6.067,1.206-12.135a7.693,7.693,0,0,1,3.6-2.322,7.488,7.488,0,0,1,2.621-.281,8.181,8.181,0,0,0,3.015,8.156,7.324,7.324,0,0,0,4.35,1.232,14.722,14.722,0,0,0,5.562-1.039,16.321,16.321,0,0,0,8.565-8.709q1.284.3,2.664.687,1.156.33,2.219.685c-.228,2.386-.5,6-.552,10.417-.017,1.561-.025,4.874.5,12.609.912,13.5,1.926,18.1.946,26.655-.171,1.491-.356,2.7-.481,3.465" transform="translate(-61.497 -17.318)" fill="#ffda94"/>
        <line id="Línea_296" data-name="Línea 296" x1="7.632" y2="4.087" transform="translate(62.152 39.945)" fill="#fff"/>
        <path id="Trazado_771803" data-name="Trazado 771803" d="M184.4,122.69a.307.307,0,0,1-.145-.576l7.632-4.087a.306.306,0,0,1,.29.54l-7.632,4.087a.3.3,0,0,1-.145.037" transform="translate(-122.249 -78.352)" fill="#4f363b"/>
        <path id="Trazado_771804" data-name="Trazado 771804" d="M205.969,117.544a1.411,1.411,0,1,1,.573-1.649,1.252,1.252,0,0,1-.573,1.649" transform="translate(-135.737 -76.302)" fill="#ff2b4b"/>
        <path id="Trazado_771805" data-name="Trazado 771805" d="M69.7,41.575s.688,2.666,2.915,2.911a12.973,12.973,0,0,0,1.142-1.644l.135-.251c.427-.794.688-1.228.688-1.228h0c-.066-.079-2.222-2.639-2.268-2.544a5.491,5.491,0,0,1-2.61,2.758" transform="translate(-46.282 -25.775)" fill="#ffb29f"/>
        <path id="Trazado_771806" data-name="Trazado 771806" d="M77.484,40.761a4.842,4.842,0,0,0,1.575,3.115c.427-.794.688-1.229.688-1.229h0a19.959,19.959,0,0,0-2.262-1.885" transform="translate(-51.454 -27.06)" fill="#ff876f"/>
        <path id="Trazado_771807" data-name="Trazado 771807" d="M80.237,34.479s-3.465-.887-2.88-3.036.532-3.712,2.77-3.236,2.442,1.412,2.421,2.177-1.394,4.271-2.311,4.1" transform="translate(-51.325 -18.674)" fill="#ffb29f"/>
        <path id="Trazado_771808" data-name="Trazado 771808" d="M75.331,28.14c-.632-.125-1.7-3.655.395-5.229a3.5,3.5,0,0,1,4.283.2,3.1,3.1,0,0,1,.844,1.326c.072,0,1.365.049,1.584.674.244.695-.92,1.872-1.82,1.784-.807-.079-1.017-1.138-1.733-1.047a2.312,2.312,0,0,0-1.307.8c-.166.227-.329.4-.827-.138s-.731.725-.742.984c-.195.329-.455.684-.676.64" transform="translate(-49.467 -14.791)" fill="#003650"/>
        <path id="Trazado_771809" data-name="Trazado 771809" d="M47.627,93.265s-.3,3.724-.649,8.2c-.477,6.08-1.05,13.549-1.107,14.964-.1,2.457-.491,6.387-.491,6.387a3.09,3.09,0,0,1-2.8.54,64.3,64.3,0,0,1-2.139-11.546c-.007-.1-.014-.2-.022-.293-.442-6.043-1.13-18.767-1.13-18.767Z" transform="translate(-26.089 -61.591)" fill="#006a99"/>
        <path id="Trazado_771810" data-name="Trazado 771810" d="M47.627,93.265s-.3,3.724-.649,8.2L40.44,111.809c-.007-.1-.014-.2-.022-.293-.442-6.043-1.13-18.767-1.13-18.767Z" transform="translate(-26.089 -61.591)" fill="#003650"/>
        <path id="Trazado_771811" data-name="Trazado 771811" d="M28.881,90.794s-5.379,13.485-8.917,19.823-4.642,8.106-4.642,8.106-2.026-.811-2.211-1.363c1.466-7.105,2.77-11.992,3.722-15.217.358-1.215,1.316-4.4,2.361-8.786.5-2.1.867-3.839,1.1-4.994Z" transform="translate(-8.706 -58.677)" fill="#006a99"/>
        <path id="Trazado_771812" data-name="Trazado 771812" d="M51.766,182.246s4.567,1.166,4.725,2.183H49.3l-.1-2.183Z" transform="translate(-32.67 -121.022)" fill="#003650"/>
        <path id="Trazado_771813" data-name="Trazado 771813" d="M13.663,176.526a6.5,6.5,0,0,0,2.08,1.7c.619.312,1.394.563,1.547,1.183a1.048,1.048,0,0,1-.037.583H15.214l-4.668-2.4.749-2.054Z" transform="translate(-7.003 -116.562)" fill="#003650"/>
        <path id="Trazado_771814" data-name="Trazado 771814" d="M32.464,61.988a20.34,20.34,0,0,0,10.49,2.673,13.472,13.472,0,0,1,1.615-6.3c1.478-2.659,3.677-4.205,3.927-7.356a7.456,7.456,0,0,0-.057-1.669L45.6,47.384a2.073,2.073,0,0,0-2.3-.045,25.19,25.19,0,0,0-2.492,1.845,27.482,27.482,0,0,0-8.341,12.8" transform="translate(-21.558 -31.219)" fill="#ff2b4b"/>
        <path id="Trazado_771815" data-name="Trazado 771815" d="M73.671,81.316a9.631,9.631,0,0,0,.863,1.287,12.7,12.7,0,0,0,2.627,1.926c2.427,1.453,5.423,2.811,5.423,2.811a2.084,2.084,0,0,0,1.922.868c.845-.027.62.058,1.22.051a.329.329,0,0,0,.365-.381.749.749,0,0,0-.252-.531,2.969,2.969,0,0,0-1.6-.9.464.464,0,0,0,.255-.24c.024-.108-.808-.062-1.179-.036-1.012-.358-2.889-2.174-4.252-3.6-.822-.858-1.458-1.573-1.606-1.743A8.75,8.75,0,0,1,76.847,79a12.357,12.357,0,0,1-3.176,2.313" transform="translate(-48.922 -52.462)" fill="#ffb29f"/>
        <path id="Trazado_771816" data-name="Trazado 771816" d="M62.212,57.19c1.236,2.4,3.525,6.883,4.2,7.905a9.73,9.73,0,0,0,1.9,2.6,3.69,3.69,0,0,0,2.917-2.525c-.822-.857-1.458-1.573-1.606-1.743-.4-.452-1.942-7.354-1.942-7.354s-.508-2.786-2.065-3.184a2.894,2.894,0,0,0-3.01,1.032,2.927,2.927,0,0,0-.4,3.273" transform="translate(-41.095 -35.053)" fill="#ff2b4b"/>
        <path id="Trazado_771817" data-name="Trazado 771817" d="M65.955,71.15l-1.845-3.943.53,6.752Z" transform="translate(-42.572 -44.63)" fill="#b9425d"/>
        <path id="Trazado_771818" data-name="Trazado 771818" d="M187.34,79.937l-.608-.074c.084-.693.179-1.515.276-2.434l.609.064c-.1.923-.193,1.748-.277,2.444m.516-4.892-.611-.054c.069-.778.134-1.6.193-2.44l.611.043c-.059.847-.126,1.669-.194,2.451m.34-4.906-.612-.03c.038-.808.07-1.626.089-2.444l.613.014c-.02.823-.051,1.647-.09,2.46m-.5-4.918q0-.485-.014-.966-.017-.763-.042-1.475l.613-.022q.025.716.043,1.484c.007.323.012.648.014.975Zm-.175-4.88c-.053-.867-.115-1.674-.184-2.432l.61-.055c.069.765.132,1.576.185,2.45Zm-.438-4.858c-.1-.851-.208-1.648-.314-2.422l.607-.084c.107.777.214,1.579.315,2.433Zm-.648-4.849c-.1-.8-.2-1.6-.289-2.439l.609-.062c.086.835.183,1.632.288,2.422Zm-.488-4.892c-.049-.808-.081-1.612-.1-2.459l.613-.011c.017.839.048,1.634.1,2.434Zm.2-4.914-.306,0,.012-.687q.018-.905.054-1.771l.613.026c-.024.572-.042,1.159-.054,1.758l-.011.642Zm.5-4.877-.612-.042c.058-.859.126-1.678.2-2.451l.61.057q-.109,1.152-.2,2.436m.462-4.865-.608-.075c.111-.908.226-1.723.333-2.437l.606.091c-.106.709-.22,1.519-.331,2.421" transform="translate(-123.409 -18.974)" fill="#ffb200"/>
      </g>
    </g>
  </g>
</svg>
