<svg id="alert" xmlns="http://www.w3.org/2000/svg" width="72" height="72" viewBox="0 0 72 72">
  <path id="Trazado_113864" data-name="Trazado 113864" d="M193.936,52.313H193.3a7.742,7.742,0,0,1-7.721-7.283L183.421,8.186A7.734,7.734,0,0,1,191.143,0h4.948a7.735,7.735,0,0,1,7.721,8.186L201.657,45.03a7.742,7.742,0,0,1-7.721,7.283Z" transform="translate(-157.617)" fill="#ff674f"/>
  <path id="Trazado_113865" data-name="Trazado 113865" d="M256.319,52.313a7.742,7.742,0,0,0,7.721-7.283L266.2,8.186A7.734,7.734,0,0,0,258.474,0H256V52.313Z" transform="translate(-220 0)" fill="#f2472c"/>
  <path id="Trazado_113866" data-name="Trazado 113866" d="M208.734,417.47a7.734,7.734,0,1,1,7.734-7.734A7.743,7.743,0,0,1,208.734,417.47Z" transform="translate(-172.734 -345.47)" fill="#ff674f"/>
  <path id="Trazado_113867" data-name="Trazado 113867" d="M256,402V417.47A7.734,7.734,0,1,0,256,402Z" transform="translate(-220 -345.47)" fill="#f2472c"/>
  <path id="Trazado_113868" data-name="Trazado 113868" d="M124.418,271.536a2.108,2.108,0,0,1-1.824-1.047,19.093,19.093,0,0,1,0-19.215,2.109,2.109,0,0,1,3.644,2.125,14.874,14.874,0,0,0,0,14.964,2.11,2.11,0,0,1-1.82,3.172Z" transform="translate(-103.125 -215.038)" fill="#ff9300"/>
  <path id="Trazado_113869" data-name="Trazado 113869" d="M65.561,249.88a2.108,2.108,0,0,1-1.824-1.047,27.514,27.514,0,0,1,0-27.689,2.109,2.109,0,1,1,3.644,2.125,23.295,23.295,0,0,0,0,23.438,2.11,2.11,0,0,1-1.82,3.172Z" transform="translate(-51.563 -189.146)" fill="#ffb500"/>
  <path id="Trazado_113870" data-name="Trazado 113870" d="M6.694,228.191a2.109,2.109,0,0,1-1.825-1.048,36.028,36.028,0,0,1,0-36.173,2.109,2.109,0,0,1,3.646,2.123,31.808,31.808,0,0,0,0,31.928,2.11,2.11,0,0,1-1.821,3.171Z" transform="translate(0 -163.213)" fill="#ffe645"/>
  <path id="Trazado_113871" data-name="Trazado 113871" d="M347.834,271.691a2.11,2.11,0,0,1-1.823-3.169,14.876,14.876,0,0,0,0-14.911,2.109,2.109,0,0,1,3.649-2.118,19.1,19.1,0,0,1,0,19.147A2.109,2.109,0,0,1,347.834,271.691Z" transform="translate(-297.108 -215.224)" fill="#ff9300"/>
  <path id="Trazado_113872" data-name="Trazado 113872" d="M399.7,250.035a2.11,2.11,0,0,1-1.822-3.17,23.3,23.3,0,0,0,0-23.383,2.109,2.109,0,1,1,3.647-2.12,27.516,27.516,0,0,1,0,27.623A2.109,2.109,0,0,1,399.7,250.035Z" transform="translate(-341.683 -189.331)" fill="#ffb500"/>
  <path id="Trazado_113873" data-name="Trazado 113873" d="M451.645,228.347a2.11,2.11,0,0,1-1.822-3.169,31.811,31.811,0,0,0,0-31.871,2.109,2.109,0,1,1,3.648-2.119,36.029,36.029,0,0,1,0,36.108A2.109,2.109,0,0,1,451.645,228.347Z" transform="translate(-386.321 -163.399)" fill="#ffe645"/>
</svg>
