<svg id="Grupo_1052151" data-name="Grupo 1052151" xmlns="http://www.w3.org/2000/svg" xmlns:xlink="http://www.w3.org/1999/xlink" width="334.125" height="293.635" viewBox="0 0 334.125 293.635">
  <defs>
    <clipPath id="clip-path">
      <rect id="Rectángulo_360277" data-name="Rectángulo 360277" width="334.125" height="293.635" fill="none"/>
    </clipPath>
    <clipPath id="clip-path-3">
      <rect id="Rectángulo_360271" data-name="Rectángulo 360271" width="192.553" height="67.45" fill="none"/>
    </clipPath>
  </defs>
  <g id="Grupo_1052150" data-name="Grupo 1052150" clip-path="url(#clip-path)">
    <g id="Grupo_1052149" data-name="Grupo 1052149">
      <g id="Grupo_1052148" data-name="Grupo 1052148" clip-path="url(#clip-path)">
        <path id="Trazado_734749" data-name="Trazado 734749" d="M509.467,65.908S545.191,77.126,546.035,78.3s1.406,7.643.879,7.737H536.471s-1.161-2.45-2.637-3.109-23.524-3.863-24.367-3.863-1.688-13.126,0-13.157" transform="translate(-239.329 -31.02)" fill="#57cdff"/>
        <path id="Trazado_734750" data-name="Trazado 734750" d="M561.338,103.933v6.5c0,2.889,7.411,2.826,7.411,0v-6.5Z" transform="translate(-264.201 -48.917)" fill="#82daff"/>
        <path id="Trazado_734751" data-name="Trazado 734751" d="M563.118,103.933v6.5c0,2.889,7.411,2.826,7.411,0v-6.5Z" transform="translate(-265.039 -48.917)" fill="#57cdff"/>
        <path id="Trazado_734752" data-name="Trazado 734752" d="M575.994,103.042c0,4.128-2.646,7.474-5.911,7.474s-5.91-3.346-5.91-7.474,2.646-7.474,5.91-7.474,5.911,3.346,5.911,7.474" transform="translate(-265.536 -44.98)" fill="#004370"/>
        <path id="Trazado_734753" data-name="Trazado 734753" d="M581.1,103.042c0,4.128-2.646,7.474-5.911,7.474s-5.911-3.346-5.911-7.474,2.646-7.474,5.911-7.474,5.911,3.346,5.911,7.474" transform="translate(-267.936 -44.98)" fill="#005c9c"/>
        <path id="Trazado_734754" data-name="Trazado 734754" d="M588.939,103.042c0,4.128-2.646,7.474-5.911,7.474s-5.911-3.346-5.911-7.474,2.646-7.474,5.911-7.474,5.911,3.346,5.911,7.474" transform="translate(-271.628 -44.98)" fill="#004370"/>
        <path id="Trazado_734755" data-name="Trazado 734755" d="M594.041,103.042c0,4.128-2.646,7.474-5.911,7.474s-5.91-3.346-5.91-7.474,2.646-7.474,5.91-7.474,5.911,3.346,5.911,7.474" transform="translate(-274.03 -44.98)" fill="#005c9c"/>
        <path id="Trazado_734756" data-name="Trazado 734756" d="M600.428,103.042c0,4.128-2.646,7.474-5.911,7.474s-5.91-3.346-5.91-7.474,2.646-7.474,5.91-7.474,5.911,3.346,5.911,7.474" transform="translate(-277.036 -44.98)" fill="#004370"/>
        <path id="Trazado_734757" data-name="Trazado 734757" d="M605.528,103.042c0,4.128-2.646,7.474-5.911,7.474s-5.911-3.346-5.911-7.474,2.647-7.474,5.911-7.474,5.911,3.346,5.911,7.474" transform="translate(-279.436 -44.98)" fill="#005c9c"/>
        <path id="Trazado_734758" data-name="Trazado 734758" d="M605.206,106.311c0,2.1-1.345,3.8-3,3.8s-3-1.7-3-3.8,1.345-3.8,3-3.8,3,1.7,3,3.8" transform="translate(-282.022 -48.25)" fill="#004370"/>
        <path id="Trazado_734759" data-name="Trazado 734759" d="M572.147,99.258a7.232,7.232,0,0,0-1.253,3.713c-.063,1.021,1.526,1.017,1.588,0a5.657,5.657,0,0,1,1.036-2.911c.582-.843-.793-1.638-1.371-.8" transform="translate(-268.698 -46.55)" fill="#fff"/>
        <path id="Trazado_734760" data-name="Trazado 734760" d="M585.065,99.256a10.2,10.2,0,0,0-1.155,7.982.8.8,0,0,0,1.531-.422,8.569,8.569,0,0,1,.994-6.758.794.794,0,0,0-1.37-.8" transform="translate(-274.661 -46.538)" fill="#fff"/>
        <path id="Trazado_734761" data-name="Trazado 734761" d="M605.431,99.546a4.869,4.869,0,0,0-8.5.625c-.431.92.938,1.727,1.371.8a3.277,3.277,0,0,1,5.758-.625c.583.83,1.961.037,1.371-.8" transform="translate(-280.915 -45.816)" fill="#fff"/>
        <path id="Trazado_734762" data-name="Trazado 734762" d="M597.178,109.93a4.839,4.839,0,0,1-.366-1.988.794.794,0,0,0-1.588,0,6,6,0,0,0,.422,2.41.819.819,0,0,0,.977.555.8.8,0,0,0,.555-.977" transform="translate(-280.149 -50.444)" fill="#fff"/>
        <path id="Trazado_734763" data-name="Trazado 734763" d="M300.277,59.6a.335.335,0,0,1-.335-.335V13.693a.335.335,0,0,1,.67,0V59.262a.335.335,0,0,1-.335.335" transform="translate(-141.172 -6.287)" fill="#c94b1e"/>
        <path id="Trazado_734764" data-name="Trazado 734764" d="M235.023,59.6a.335.335,0,0,1-.335-.335V13.693a.335.335,0,0,1,.67,0V59.262a.335.335,0,0,1-.335.335" transform="translate(-110.459 -6.287)" fill="#f15a24"/>
        <path id="Trazado_734765" data-name="Trazado 734765" d="M167.4,59.6a.335.335,0,0,1-.335-.335V13.693a.335.335,0,0,1,.67,0V59.262a.335.335,0,0,1-.335.335" transform="translate(-78.629 -6.287)" fill="#f7931e"/>
        <path id="Trazado_734766" data-name="Trazado 734766" d="M162.494,151.094H135.9a2.076,2.076,0,0,0-2.076,2.076v1.787H164.57V153.17a2.076,2.076,0,0,0-2.076-2.076" transform="translate(-62.985 -71.114)" fill="#0071bc"/>
        <path id="Trazado_734767" data-name="Trazado 734767" d="M162.195,83.942h0a.754.754,0,0,0-.754.754v34.793h1.508V84.7a.754.754,0,0,0-.754-.754" transform="translate(-75.984 -39.508)" fill="#a6dbff"/>
        <path id="Trazado_734768" data-name="Trazado 734768" d="M163.427,120.322h-25.04c-2.362,0,4.311-31.005,5.551-31.005H157.58c1.594,0,8.681,31.005,5.847,31.005" transform="translate(-64.897 -42.038)" fill="#f7931e"/>
        <path id="Trazado_734769" data-name="Trazado 734769" d="M160.03,99.337a74.83,74.83,0,0,1-8.785,3.759c-.957.339-.544,1.874.422,1.531a78.045,78.045,0,0,0,9.164-3.919c.913-.461.11-1.832-.8-1.371" transform="translate(-70.93 -46.71)" fill="#e8840e"/>
        <path id="Trazado_734770" data-name="Trazado 734770" d="M162.123,112.732a.747.747,0,0,0-.472-.382,28.876,28.876,0,0,1-7.977-3.781q.855-.449,1.7-.922c.011.006.019.014.03.021a36.944,36.944,0,0,0,6.083,2.724c.968.333,1.384-1.2.422-1.531a34.446,34.446,0,0,1-4.922-2.147c.913-.545,1.815-1.109,2.7-1.7.846-.565.052-1.941-.8-1.371a65.423,65.423,0,0,1-12.142,6.4c-.938.374-.529,1.91.422,1.531q.948-.378,1.88-.784a28.973,28.973,0,0,0,8.935,4.053c-3.618,1.37-7.734,1.923-11.342,2.747-1,.228-.574,1.759.422,1.531,5.149-1.176,11.183-1.8,15.6-4.9.744-.521.186-1.675-.541-1.49m-2.009.981a27.807,27.807,0,0,1-9.344-3.7c.44-.2.872-.425,1.307-.638a30.273,30.273,0,0,0,8.471,4.285c-.075.041-.148.085-.222.125a.82.82,0,0,0-.211-.075" transform="translate(-68.75 -48.717)" fill="#e8840e"/>
        <path id="Trazado_734771" data-name="Trazado 734771" d="M159.52,128.078a33.632,33.632,0,0,1-16.713,4.6.794.794,0,0,0,0,1.588,34.928,34.928,0,0,0,17.514-4.82c.865-.54.069-1.915-.8-1.371" transform="translate(-66.853 -60.223)" fill="#e8840e"/>
        <path id="Trazado_734772" data-name="Trazado 734772" d="M168.563,134.627a33.735,33.735,0,0,1-9.022,2.494c-1.008.136-.579,1.666.422,1.531a35.071,35.071,0,0,0,9.4-2.655c.935-.407.127-1.775-.8-1.371" transform="translate(-74.819 -63.329)" fill="#e8840e"/>
        <path id="Trazado_734773" data-name="Trazado 734773" d="M162.092,89.106a60.214,60.214,0,0,1-12.646,6.464c-.951.351-.539,1.887.422,1.531a62.056,62.056,0,0,0,13.025-6.624c.846-.565.051-1.942-.8-1.372" transform="translate(-70.085 -41.875)" fill="#e8840e"/>
        <path id="Trazado_734774" data-name="Trazado 734774" d="M228.638,151.094h-26.6a2.076,2.076,0,0,0-2.076,2.076v1.787h30.748V153.17a2.076,2.076,0,0,0-2.076-2.076" transform="translate(-94.116 -71.114)" fill="#0071bc"/>
        <path id="Trazado_734775" data-name="Trazado 734775" d="M228.339,83.942h0a.754.754,0,0,0-.754.754v34.793h1.508V84.7a.754.754,0,0,0-.754-.754" transform="translate(-107.116 -39.508)" fill="#a6dbff"/>
        <path id="Trazado_734776" data-name="Trazado 734776" d="M229.571,120.322h-25.04c-2.362,0,4.311-31.005,5.551-31.005h13.643c1.594,0,8.681,31.005,5.847,31.005" transform="translate(-96.029 -42.038)" fill="#f15a24"/>
        <path id="Trazado_734777" data-name="Trazado 734777" d="M227.159,93.027a59.743,59.743,0,0,1-11.41,2.749c-1.008.14-.579,1.671.422,1.531a59.767,59.767,0,0,0,11.411-2.749c.959-.333.547-1.868-.422-1.531" transform="translate(-101.274 -43.762)" fill="#e64b12"/>
        <path id="Trazado_734778" data-name="Trazado 734778" d="M226.147,98.746A36.705,36.705,0,0,1,213.8,101.64c-1.015.06-1.023,1.649,0,1.588a39.016,39.016,0,0,0,13.144-3.11c.937-.4.129-1.768-.8-1.371" transform="translate(-100.27 -46.443)" fill="#e64b12"/>
        <path id="Trazado_734779" data-name="Trazado 734779" d="M226.018,103.17a52.8,52.8,0,0,1-14.312,3.407c-1.009.094-1.018,1.683,0,1.588.257-.024.512-.058.769-.085a13.984,13.984,0,0,0,2.715,2.755q-1.12.188-2.247.359c-1.007.154-.579,1.685.422,1.531a61.555,61.555,0,0,0,7.991-1.62.621.621,0,0,0,.464-.142c.6-.185,1.2-.382,1.793-.608.872-.332.59-1.661-.211-1.58a.707.707,0,0,0-.377-.747c-.811-.458-1.6-.952-2.377-1.462a53.194,53.194,0,0,0,5.791-1.867c.942-.366.533-1.9-.422-1.531m-11.694,4.681c.3-.042.6-.093.9-.14a.835.835,0,0,0,.247.3,21.18,21.18,0,0,0,3.445,2.094q-.738.172-1.482.321a11.987,11.987,0,0,1-3.114-2.571m7.654,1.4c-.206.068-.413.128-.62.191a20.007,20.007,0,0,1-4.063-2.1c.426-.083.848-.184,1.271-.278.021.017.039.037.062.053,1.083.763,2.2,1.469,3.35,2.129" transform="translate(-99.284 -48.531)" fill="#e64b12"/>
        <path id="Trazado_734780" data-name="Trazado 734780" d="M227.463,116.327c-4.938,2.321-11.244,2.876-16.607,3.221-1.015.065-1.022,1.654,0,1.588,5.7-.366,12.19-.985,17.408-3.438.924-.435.119-1.8-.8-1.372" transform="translate(-98.883 -54.712)" fill="#e64b12"/>
        <path id="Trazado_734781" data-name="Trazado 734781" d="M227.133,120.972a65.568,65.568,0,0,1-17.475,2.951c-1.02.033-1.024,1.621,0,1.588a67.2,67.2,0,0,0,17.9-3.007c.972-.3.557-1.836-.422-1.531" transform="translate(-98.318 -56.918)" fill="#e64b12"/>
        <path id="Trazado_734782" data-name="Trazado 734782" d="M230.143,132.344q-5.476-.888-10.854-2.236a.8.8,0,0,0-.422,1.531q5.381,1.35,10.854,2.237c1,.162,1.43-1.368.422-1.531" transform="translate(-102.747 -61.224)" fill="#e64b12"/>
        <path id="Trazado_734783" data-name="Trazado 734783" d="M228.865,135.8a61.093,61.093,0,0,1-15.193-3.552c-.959-.357-1.373,1.178-.422,1.531a62.791,62.791,0,0,0,15.614,3.609c1.016.1,1.009-1.486,0-1.588" transform="translate(-100.116 -62.22)" fill="#e64b12"/>
        <path id="Trazado_734784" data-name="Trazado 734784" d="M219.429,138.452a46.875,46.875,0,0,1-10.95-2.441c-.967-.339-1.382,1.195-.422,1.531a48.63,48.63,0,0,0,11.372,2.5c1.016.1,1.009-1.488,0-1.588" transform="translate(-97.669 -63.992)" fill="#e64b12"/>
        <path id="Trazado_734785" data-name="Trazado 734785" d="M294.783,151.094h-26.6a2.076,2.076,0,0,0-2.076,2.076v1.787h30.749V153.17a2.076,2.076,0,0,0-2.076-2.076" transform="translate(-125.248 -71.114)" fill="#0071bc"/>
        <path id="Trazado_734786" data-name="Trazado 734786" d="M294.484,83.942h0a.754.754,0,0,0-.754.754v34.793h1.508V84.7a.754.754,0,0,0-.754-.754" transform="translate(-138.248 -39.508)" fill="#a6dbff"/>
        <path id="Trazado_734787" data-name="Trazado 734787" d="M295.715,120.322h-25.04c-2.362,0,4.311-31.005,5.551-31.005h13.643c1.594,0,8.681,31.005,5.847,31.005" transform="translate(-127.16 -42.038)" fill="#c94b1e"/>
        <path id="Trazado_734788" data-name="Trazado 734788" d="M293.219,91.75a76.825,76.825,0,0,1-10.541,1.879c-1.006.107-1.017,1.7,0,1.588a79.9,79.9,0,0,0,10.963-1.935.8.8,0,0,0-.422-1.531" transform="translate(-132.69 -43.17)" fill="#b04017"/>
        <path id="Trazado_734789" data-name="Trazado 734789" d="M288.888,97.44a49.094,49.094,0,0,1-8.069,1.222c-1.014.068-1.022,1.657,0,1.588a51.678,51.678,0,0,0,8.491-1.278c.994-.236.573-1.767-.422-1.531" transform="translate(-131.812 -45.85)" fill="#b04017"/>
        <path id="Trazado_734790" data-name="Trazado 734790" d="M293.029,98.517c-3.771,2.492-9.325,3.109-13.718,3.2a.794.794,0,0,0,0,1.588c4.717-.093,10.492-.752,14.519-3.412.849-.561.055-1.937-.8-1.372" transform="translate(-131.101 -46.306)" fill="#b04017"/>
        <path id="Trazado_734791" data-name="Trazado 734791" d="M304.635,107.4q-1.305-.306-2.6-.637a.8.8,0,0,0-.422,1.531q1.3.33,2.6.637c.994.233,1.419-1.3.422-1.531" transform="translate(-141.69 -50.235)" fill="#b04017"/>
        <path id="Trazado_734792" data-name="Trazado 734792" d="M301.4,110.145a32.662,32.662,0,0,1-7.641-2c-.95-.375-1.363,1.16-.422,1.531a32.675,32.675,0,0,0,7.641,2c1,.136,1.431-1.394.422-1.531" transform="translate(-137.812 -50.872)" fill="#b04017"/>
        <path id="Trazado_734793" data-name="Trazado 734793" d="M292.9,112.6c-2.587-.519-6.379-1.017-8.393-2.844-.756-.685-1.882.435-1.123,1.123,2.308,2.094,6.134,2.658,9.093,3.252,1,.2,1.425-1.33.422-1.531" transform="translate(-133.259 -51.558)" fill="#b04017"/>
        <path id="Trazado_734794" data-name="Trazado 734794" d="M293.616,116.691a72.933,72.933,0,0,1-16.647,2.7c-1.018.046-1.024,1.635,0,1.588a74.843,74.843,0,0,0,17.07-2.759.8.8,0,0,0-.422-1.531" transform="translate(-129.999 -54.906)" fill="#b04017"/>
        <path id="Trazado_734795" data-name="Trazado 734795" d="M285.313,125.132a73.742,73.742,0,0,1-9.652,1.039c-1.018.042-1.023,1.631,0,1.588a76.963,76.963,0,0,0,10.074-1.1c1.005-.176.579-1.707-.422-1.531" transform="translate(-129.383 -58.888)" fill="#b04017"/>
        <path id="Trazado_734796" data-name="Trazado 734796" d="M304.736,121.451q-2.416.923-4.9,1.62a.8.8,0,0,0,.422,1.531q2.49-.7,4.9-1.62c.945-.361.535-1.9-.422-1.531" transform="translate(-140.856 -57.136)" fill="#b04017"/>
        <path id="Trazado_734797" data-name="Trazado 734797" d="M292.819,127.341a66.032,66.032,0,0,1-17.249,3.378c-1.015.061-1.023,1.649,0,1.588a67.642,67.642,0,0,0,17.671-3.434c.963-.325.549-1.86-.422-1.531" transform="translate(-129.341 -59.913)" fill="#b04017"/>
        <path id="Trazado_734798" data-name="Trazado 734798" d="M295.733,137q-5.622.526-11.265.5a.794.794,0,0,0,0,1.588q5.647.023,11.265-.5c1.009-.094,1.018-1.683,0-1.588" transform="translate(-133.528 -64.479)" fill="#b04017"/>
        <path id="Trazado_734799" data-name="Trazado 734799" d="M360.927,151.094h-26.6a2.076,2.076,0,0,0-2.076,2.076v1.787H363V153.17a2.076,2.076,0,0,0-2.076-2.076" transform="translate(-156.38 -71.114)" fill="#0071bc"/>
        <path id="Trazado_734800" data-name="Trazado 734800" d="M360.628,83.942h0a.754.754,0,0,0-.754.754v34.793h1.508V84.7a.754.754,0,0,0-.754-.754" transform="translate(-169.38 -39.508)" fill="#a6dbff"/>
        <path id="Trazado_734801" data-name="Trazado 734801" d="M361.86,120.322H336.82c-2.362,0,4.311-31.005,5.551-31.005h13.643c1.594,0,8.681,31.005,5.847,31.005" transform="translate(-158.292 -42.038)" fill="#2e3192"/>
        <path id="Trazado_734802" data-name="Trazado 734802" d="M355.023,94.5a27.994,27.994,0,0,1-7.76.646c-1.021-.056-1.018,1.533,0,1.588a29.544,29.544,0,0,0,8.182-.7c1-.226.575-1.757-.422-1.531" transform="translate(-163.084 -44.467)" fill="#272a7d"/>
        <path id="Trazado_734803" data-name="Trazado 734803" d="M359.474,98.06c-4.075,1.7-9.049,1.89-13.413,1.848a.794.794,0,0,0,0,1.588c4.456.043,9.672-.172,13.836-1.9.93-.387.522-1.924-.422-1.531" transform="translate(-162.517 -46.123)" fill="#272a7d"/>
        <path id="Trazado_734804" data-name="Trazado 734804" d="M361.392,107.22l-.1.033a.646.646,0,0,0-.545-.464,13.052,13.052,0,0,1-3.711-1.258,19.336,19.336,0,0,0,2.21-.746c.933-.383.524-1.92-.422-1.531-4.5,1.848-10.359,1.965-15.166,1.791-1.022-.037-1.021,1.551,0,1.588l.1,0a.75.75,0,0,0,.275.213c1.249.594,2.368,1.427,3.665,1.92a25.781,25.781,0,0,0,2.885.865c-.574.059-1.149.11-1.728.149-1.014.068-1.022,1.656,0,1.588a49.17,49.17,0,0,0,12.962-2.621c.959-.333.547-1.868-.422-1.531m-6.517-1.2a.822.822,0,0,0,.227.218A14.261,14.261,0,0,0,358.938,108l-.284.084a.8.8,0,0,0-.23-.088,32.978,32.978,0,0,1-5.761-1.63q1.12-.133,2.212-.337m-2.191,2.5c-1.385-.347-2.8-.674-4.148-1.136a9.57,9.57,0,0,1-1.517-.7c.836,0,1.689-.03,2.544-.071a.859.859,0,0,0,.128.088,23.837,23.837,0,0,0,5.634,2.194c-.69.143-1.383.268-2.08.381a.707.707,0,0,0-.562-.758" transform="translate(-161.387 -48.569)" fill="#272a7d"/>
        <path id="Trazado_734805" data-name="Trazado 734805" d="M362.028,116.839a114.6,114.6,0,0,1-17.612,4.466c-1.005.172-.579,1.7.422,1.531a114.6,114.6,0,0,0,17.612-4.466c.962-.327.549-1.862-.422-1.531" transform="translate(-161.834 -54.97)" fill="#272a7d"/>
        <path id="Trazado_734806" data-name="Trazado 734806" d="M348.558,129.3a45.692,45.692,0,0,1-5.952,1.431c-1.005.172-.579,1.7.422,1.531a45.734,45.734,0,0,0,5.952-1.431c.972-.3.557-1.837-.422-1.531" transform="translate(-160.982 -60.836)" fill="#272a7d"/>
        <path id="Trazado_734807" data-name="Trazado 734807" d="M367.144,123.774c-2.246.926-4.67,1.279-6.918,2.2-.933.382-.525,1.918.422,1.531,2.249-.919,4.672-1.272,6.918-2.2.932-.384.524-1.921-.422-1.531" transform="translate(-169.297 -58.226)" fill="#272a7d"/>
        <path id="Trazado_734808" data-name="Trazado 734808" d="M359.523,129.019a130.044,130.044,0,0,1-18.455,4.654c-1,.176-.579,1.707.422,1.531a130.069,130.069,0,0,0,18.455-4.654c.965-.32.552-1.854-.422-1.531" transform="translate(-160.258 -60.703)" fill="#272a7d"/>
        <path id="Trazado_734809" data-name="Trazado 734809" d="M427.071,151.094h-26.6a2.076,2.076,0,0,0-2.076,2.076v1.787h30.749V153.17a2.076,2.076,0,0,0-2.076-2.076" transform="translate(-187.511 -71.114)" fill="#0071bc"/>
        <path id="Trazado_734810" data-name="Trazado 734810" d="M426.772,83.942h0a.754.754,0,0,0-.754.754v34.793h1.508V84.7a.754.754,0,0,0-.754-.754" transform="translate(-200.511 -39.508)" fill="#a6dbff"/>
        <path id="Trazado_734811" data-name="Trazado 734811" d="M428,120.322h-25.04c-2.362,0,4.311-31.005,5.551-31.005h13.643c1.594,0,8.681,31.005,5.847,31.005" transform="translate(-189.424 -42.038)" fill="#49ad2e"/>
        <path id="Trazado_734812" data-name="Trazado 734812" d="M426.8,94.456a73.659,73.659,0,0,1-11.452-1.083c-1-.175-1.428,1.355-.422,1.531a76.335,76.335,0,0,0,11.874,1.14.794.794,0,0,0,0-1.588" transform="translate(-195.021 -43.941)" fill="#3f9628"/>
        <path id="Trazado_734813" data-name="Trazado 734813" d="M427.444,99.921a100.319,100.319,0,0,1-13.89-1.313c-1-.166-1.43,1.365-.422,1.531a103.457,103.457,0,0,0,14.313,1.37.794.794,0,0,0,0-1.588" transform="translate(-194.175 -46.405)" fill="#3f9628"/>
        <path id="Trazado_734814" data-name="Trazado 734814" d="M419.677,104.439l-7.043-.589c-1.018-.085-1.013,1.5,0,1.588l7.043.589c1.018.085,1.013-1.5,0-1.588" transform="translate(-193.853 -48.877)" fill="#3f9628"/>
        <path id="Trazado_734815" data-name="Trazado 734815" d="M436.017,105.968q-2.465-.1-4.912-.393c-1.013-.12-1,1.469,0,1.588q2.449.291,4.912.393c1.022.043,1.02-1.545,0-1.588" transform="translate(-202.549 -49.687)" fill="#3f9628"/>
        <path id="Trazado_734816" data-name="Trazado 734816" d="M412.931,109.574A17.2,17.2,0,0,1,409.98,111c-.951.35-.54,1.885.422,1.531a19.37,19.37,0,0,0,3.331-1.589.794.794,0,0,0-.8-1.371" transform="translate(-192.709 -51.516)" fill="#3f9628"/>
        <path id="Trazado_734817" data-name="Trazado 734817" d="M416.361,111.391a33.5,33.5,0,0,1-7.948,4.085c-.973.3-.558,1.836.422,1.531a35.076,35.076,0,0,0,8.327-4.245c.86-.547.064-1.922-.8-1.371" transform="translate(-191.965 -52.368)" fill="#3f9628"/>
        <path id="Trazado_734818" data-name="Trazado 734818" d="M427.258,123.536c-4.848-.871-9.644-1.961-13.9-4.449.545-.251,1.088-.5,1.63-.749.015.011.028.023.044.033a29.3,29.3,0,0,0,12.2,4c1.016.1,1.009-1.486,0-1.588a27.308,27.308,0,0,1-10.448-3.254,17.9,17.9,0,0,0,1.685-.9.843.843,0,0,0,.075.045,30.179,30.179,0,0,0,7.478,2.441c1,.185,1.428-1.345.422-1.531A28.707,28.707,0,0,1,420,115.608c.751-.538,1.482-1.111,2.213-1.694.8-.637-.332-1.755-1.123-1.123a26.806,26.806,0,0,1-7.056,4.159,51.6,51.6,0,0,1-6.235,2.583.794.794,0,0,0,.422,1.531,23.739,23.739,0,0,0,3.375-1.192c4.6,2.988,9.889,4.236,15.239,5.2,1,.179,1.428-1.351.422-1.531" transform="translate(-191.671 -52.998)" fill="#3f9628"/>
        <path id="Trazado_734819" data-name="Trazado 734819" d="M425.687,136.017q-8.293-.93-16.614-1.554c-1.019-.076-1.014,1.512,0,1.588q8.321.624,16.614,1.554c1.014.114,1.006-1.475,0-1.588" transform="translate(-192.177 -63.286)" fill="#3f9628"/>
        <path id="Trazado_734820" data-name="Trazado 734820" d="M416.9,140.765q-5.186-.124-10.372-.1a.794.794,0,0,0,0,1.588q5.187-.021,10.372.1a.794.794,0,0,0,0-1.588" transform="translate(-190.978 -66.204)" fill="#3f9628"/>
        <path id="Trazado_734821" data-name="Trazado 734821" d="M515.859,1.6h-8.509a1.06,1.06,0,0,0-1.06,1.06v146.6a1.06,1.06,0,0,0,1.06,1.06h8.509a1.06,1.06,0,0,0,1.06-1.06V2.662a1.06,1.06,0,0,0-1.06-1.06" transform="translate(-238.293 -0.754)" fill="#57cdff"/>
        <path id="Trazado_734822" data-name="Trazado 734822" d="M512.745,1.6h-8.509a1.06,1.06,0,0,0-1.06,1.06v146.6a1.06,1.06,0,0,0,1.06,1.06h8.509a1.06,1.06,0,0,0,1.06-1.06V2.662a1.06,1.06,0,0,0-1.06-1.06" transform="translate(-236.827 -0.754)" fill="#29abe2"/>
        <path id="Trazado_734823" data-name="Trazado 734823" d="M522.2,3.67a.794.794,0,0,0-1.588,0q.338,13.052-.1,26.1c-.034,1.022,1.554,1.021,1.588,0q.435-13.049.1-26.1" transform="translate(-244.989 -1.366)" fill="#fff"/>
        <path id="Trazado_734824" data-name="Trazado 734824" d="M211.924,155.128H392.471c6.029,0,36.175,67.45,23.363,67.45H211.924c-9.8,0-10.551-67.45,0-67.45" transform="translate(-96.152 -73.013)" fill="#b8d5ff"/>
        <path id="Trazado_734825" data-name="Trazado 734825" d="M514.564,155.128h31.653c6.029,0,36.174,67.45,23.363,67.45H514.564c-9.8,0-10.551-67.45,0-67.45" transform="translate(-238.594 -73.013)" fill="#f7931e"/>
        <path id="Trazado_734826" data-name="Trazado 734826" d="M493.208,155.128h31.653c6.029,0,36.174,67.45,23.363,67.45H493.208c-9.8,0-10.551-67.45,0-67.45" transform="translate(-228.542 -73.013)" fill="#99c2ff"/>
        <path id="Trazado_734827" data-name="Trazado 734827" d="M593.339,182.916a113.724,113.724,0,0,0-12.478-21.692c-.6-.816-1.976-.025-1.371.8a113.775,113.775,0,0,1,12.478,21.692c.408.934,1.776.127,1.371-.8" transform="translate(-272.674 -75.721)" fill="#fff"/>
        <path id="Trazado_734828" data-name="Trazado 734828" d="M613.15,223.5q-2.044-5.266-4.349-10.421c-.417-.931-1.785-.124-1.372.8q2.222,4.969,4.189,10.042c.366.943,1.9.533,1.532-.422" transform="translate(-285.859 -100.092)" fill="#fff"/>
        <path id="Trazado_734829" data-name="Trazado 734829" d="M619.522,269.6c-.022,1.394-.462,2.3-1.871,2.6-1.058.231-2.146.366-3.213.548-1.006.172-.579,1.7.422,1.531,1.469-.251,3.474-.241,4.722-1.122a4.235,4.235,0,0,0,1.528-3.562.794.794,0,0,0-1.588,0" transform="translate(-288.923 -126.528)" fill="#c76c00"/>
        <rect id="Rectángulo_360265" data-name="Rectángulo 360265" width="166.996" height="11.839" transform="translate(122.931 107.11)" fill="#b5e9ff"/>
        <rect id="Rectángulo_360266" data-name="Rectángulo 360266" width="166.996" height="4.302" transform="translate(122.931 110.879)" fill="#a3e3ff"/>
        <path id="Trazado_734830" data-name="Trazado 734830" d="M342.576,195.7v3.517h6.783V211.06h-6.783V215.3H357.4V195.7Z" transform="translate(-161.238 -92.111)" fill="#252752"/>
        <rect id="Rectángulo_360267" data-name="Rectángulo 360267" width="8.353" height="19.594" transform="translate(196.159 103.594)" fill="#373978"/>
        <rect id="Rectángulo_360268" data-name="Rectángulo 360268" width="4.71" height="14.35" transform="translate(190.57 123.188)" fill="#1d1e40"/>
        <path id="Trazado_734831" data-name="Trazado 734831" d="M360.016,259.832l1.79,9.326h.9l-.33-9.326Z" transform="translate(-169.447 -122.293)" fill="#1d1e40"/>
        <path id="Trazado_734832" data-name="Trazado 734832" d="M368.538,258.115v-1.931l3.415,2.237-2.92,9.02h-.918l1.531-7.49Z" transform="translate(-173.258 -120.576)" fill="#1d1e40"/>
        <path id="Trazado_734833" data-name="Trazado 734833" d="M451.254,195.7v3.517h6.783V211.06h-6.783V215.3h14.821V195.7Z" transform="translate(-212.389 -92.111)" fill="#252752"/>
        <rect id="Rectángulo_360269" data-name="Rectángulo 360269" width="8.353" height="19.594" transform="translate(253.687 103.594)" fill="#373978"/>
        <rect id="Rectángulo_360270" data-name="Rectángulo 360270" width="4.71" height="14.35" transform="translate(248.097 123.188)" fill="#1d1e40"/>
        <path id="Trazado_734834" data-name="Trazado 734834" d="M468.695,259.832l1.79,9.326h.9l-.33-9.326Z" transform="translate(-220.598 -122.293)" fill="#1d1e40"/>
        <path id="Trazado_734835" data-name="Trazado 734835" d="M477.216,258.115v-1.931l3.415,2.237-2.92,9.02h-.918l1.531-7.49Z" transform="translate(-224.409 -120.576)" fill="#1d1e40"/>
        <g id="Grupo_1052147" data-name="Grupo 1052147" transform="translate(129.007 82.115)" opacity="0.5">
          <g id="Grupo_1052146" data-name="Grupo 1052146">
            <g id="Grupo_1052145" data-name="Grupo 1052145" clip-path="url(#clip-path-3)">
              <path id="Trazado_734836" data-name="Trazado 734836" d="M409.765,155.128H243.714c6.029,0,36.174,67.45,23.363,67.45H433.128c12.812,0-17.334-67.45-23.363-67.45" transform="translate(-243.714 -155.128)" fill="#8fdeff"/>
            </g>
          </g>
        </g>
        <path id="Trazado_734837" data-name="Trazado 734837" d="M381.464,197.345q-8.273,9.666-17.146,18.787c-.713.733.409,1.857,1.123,1.123q8.871-9.12,17.146-18.788c.661-.772-.457-1.9-1.123-1.123" transform="translate(-171.364 -92.76)" fill="#fff"/>
        <path id="Trazado_734838" data-name="Trazado 734838" d="M416.911,192.3q-6.844,9.48-14.342,18.453c-.651.779.466,1.908,1.123,1.123q7.627-9.127,14.59-18.774c.6-.83-.778-1.623-1.371-.8" transform="translate(-189.382 -90.345)" fill="#fff"/>
        <path id="Trazado_734839" data-name="Trazado 734839" d="M387.986,237.593l-7.546,8.972c-.654.777.464,1.906,1.123,1.123l7.545-8.972c.654-.777-.464-1.906-1.123-1.123" transform="translate(-178.966 -111.702)" fill="#fff"/>
        <path id="Trazado_734840" data-name="Trazado 734840" d="M412.662,227.982l-6.611,7.774c-.659.774.459,1.9,1.123,1.123l6.611-7.774c.659-.774-.459-1.9-1.123-1.123" transform="translate(-191.019 -107.179)" fill="#fff"/>
        <path id="Trazado_734841" data-name="Trazado 734841" d="M437.647,189.613q-5.174,7.477-10.77,14.643c-.622.8.494,1.928,1.123,1.123q5.726-7.322,11.019-14.964c.583-.842-.793-1.637-1.371-.8" transform="translate(-200.829 -89.077)" fill="#fff"/>
        <path id="Trazado_734842" data-name="Trazado 734842" d="M547.469,229.388c-1.919,3.874-4.886,7.3-7.42,10.786-.6.828.776,1.621,1.372.8,2.533-3.488,5.5-6.91,7.419-10.786.453-.913-.917-1.718-1.371-.8" transform="translate(-254.112 -107.774)" fill="#fff"/>
        <path id="Trazado_734843" data-name="Trazado 734843" d="M550.327,241.263A120.859,120.859,0,0,1,542,253.227c-.627.793.489,1.924,1.123,1.123a124.255,124.255,0,0,0,8.579-12.285c.535-.874-.838-1.673-1.371-.8" transform="translate(-255.01 -113.377)" fill="#fff"/>
        <path id="Trazado_734844" data-name="Trazado 734844" d="M568.991,218.372q-1.871,3.432-3.978,6.723c-.553.863.821,1.66,1.372.8q2.108-3.291,3.978-6.723c.49-.9-.881-1.7-1.371-.8" transform="translate(-265.87 -102.595)" fill="#fff"/>
        <path id="Trazado_734845" data-name="Trazado 734845" d="M289.525,169.191a80.162,80.162,0,0,1-5.287,6.824c-.666.77.453,1.9,1.123,1.123a83.888,83.888,0,0,0,5.535-7.146c.583-.842-.793-1.637-1.371-.8" transform="translate(-133.684 -79.465)" fill="#fff"/>
        <path id="Trazado_734846" data-name="Trazado 734846" d="M299.529,163.176l-15.666,19.763c-.628.793.488,1.924,1.123,1.123L300.652,164.3c.628-.792-.488-1.924-1.123-1.123" transform="translate(-133.517 -76.672)" fill="#fff"/>
        <path id="Trazado_734847" data-name="Trazado 734847" d="M314.6,177.836q-2.159,2.936-4.524,5.707c-.659.774.459,1.9,1.123,1.123q2.5-2.928,4.773-6.029c.606-.824-.772-1.617-1.372-.8" transform="translate(-145.846 -83.54)" fill="#fff"/>
        <rect id="Rectángulo_360272" data-name="Rectángulo 360272" width="38.232" height="125.857" transform="translate(269.916 167.778)" fill="#00548c"/>
        <rect id="Rectángulo_360273" data-name="Rectángulo 360273" width="13.411" height="125.857" transform="translate(308.148 167.778)" fill="#0061a1"/>
        <path id="Trazado_734848" data-name="Trazado 734848" d="M599.747,328.8a.794.794,0,0,0-1.588,0q.138,34.961,2.737,69.846c.075,1.013,1.664,1.021,1.588,0q-2.6-34.865-2.737-69.846" transform="translate(-281.532 -154.392)" fill="#005187"/>
        <path id="Trazado_734849" data-name="Trazado 734849" d="M600.485,474.295q-.067,19.155-.131,38.311a.794.794,0,0,0,1.588,0q.065-19.155.131-38.311a.794.794,0,0,0-1.588,0" transform="translate(-282.565 -222.872)" fill="#005187"/>
        <path id="Trazado_734850" data-name="Trazado 734850" d="M383.172,300.765H134.332a7.631,7.631,0,0,1-7.631-7.63V282.552H390.8v10.582a7.631,7.631,0,0,1-7.63,7.63" transform="translate(-59.634 -132.987)" fill="#0071bc"/>
        <path id="Trazado_734851" data-name="Trazado 734851" d="M106.9,300.765H67.449a7.631,7.631,0,0,1-7.631-7.63V282.552h54.716v10.582a7.631,7.631,0,0,1-7.63,7.63" transform="translate(-28.154 -132.987)" fill="#0087e0"/>
        <rect id="Rectángulo_360274" data-name="Rectángulo 360274" width="38.232" height="125.857" transform="translate(39.906 167.778)" fill="#0071bc"/>
        <rect id="Rectángulo_360275" data-name="Rectángulo 360275" width="49.117" height="125.857" transform="translate(78.138 167.778)" fill="#0061a1"/>
        <path id="Trazado_734852" data-name="Trazado 734852" d="M383.066,316.959,398.488,424.98H240.4V316.959Z" transform="translate(-113.149 -149.181)" fill="#b8eaff"/>
        <path id="Trazado_734853" data-name="Trazado 734853" d="M240.4,344.428H365.469A10.8,10.8,0,0,0,376.16,332.1L374,316.96H240.4Z" transform="translate(-113.149 -149.181)" fill="#5db7de"/>
        <path id="Trazado_734854" data-name="Trazado 734854" d="M417.455,493.977H240.4V508.3H411.677Z" transform="translate(-113.149 -232.497)" fill="#78d7ff"/>
        <path id="Trazado_734855" data-name="Trazado 734855" d="M144.852,406.964c.359-9.2,1.22-18.308,1.2-27.529q-.048-28.507-.489-57.012a.794.794,0,0,0-1.588,0q.415,28.5.489,57.012c.015,9.047-.8,17.978-1.182,27-.4,9.642-.013,19.292.378,28.927.041,1.018,1.629,1.023,1.588,0-.384-9.46-.77-18.934-.4-28.4" transform="translate(-67.359 -151.391)" fill="#005187"/>
        <path id="Trazado_734856" data-name="Trazado 734856" d="M107.657,540.529l-28.783-.18a.794.794,0,0,0,0,1.588l28.783.18a.794.794,0,0,0,0-1.588" transform="translate(-36.762 -254.323)" fill="#005187"/>
        <path id="Trazado_734857" data-name="Trazado 734857" d="M198.87,529.346q-.274-3.517-.548-7.035c-.079-1.012-1.668-1.021-1.588,0l.47,6.03c.047.6.437,2.736,0,3.227-.291.329-2.738.056-3.124.063q-5.989.111-11.978.155-12.239.09-24.478-.1a.794.794,0,0,0,0,1.588q14.582.224,29.165.06,3.646-.043,7.291-.111c1.215-.023,3.5.435,4.458-.506.837-.823.411-2.33.33-3.367" transform="translate(-73.828 -245.474)" fill="#005187"/>
        <path id="Trazado_734858" data-name="Trazado 734858" d="M159.852,482.636c.036-1.022-1.552-1.021-1.588,0a215.545,215.545,0,0,0,.358,22.185c.069,1.014,1.657,1.022,1.588,0a215.54,215.54,0,0,1-.358-22.185" transform="translate(-74.426 -226.799)" fill="#005187"/>
        <path id="Trazado_734859" data-name="Trazado 734859" d="M160.518,326.928a.794.794,0,0,0-1.588,0q.533,35.43,1.306,70.855a.794.794,0,0,0,1.588,0q-.774-35.425-1.306-70.855" transform="translate(-74.802 -153.512)" fill="#005187"/>
        <path id="Trazado_734860" data-name="Trazado 734860" d="M398.274,297.512c-.547-.86-1.922-.064-1.371.8,3,4.715-3.18,7.752-6.943,8.077-3.887.336-7.863.111-11.764.121l-25.343.066-50.687.131-101.373.262-57.023.147a.794.794,0,0,0,0,1.588l107.709-.278,108.237-.279c9.771-.025,19.658.388,29.414-.117,3.041-.158,6.346-.788,8.4-3.246a6.109,6.109,0,0,0,.747-7.273" transform="translate(-67.306 -139.854)" fill="#005187"/>
        <path id="Trazado_734861" data-name="Trazado 734861" d="M85.838,307.681q-7.425-.01-14.849-.019c-4.57-.009-14.073-.674-12.155-7.807a.8.8,0,0,0-1.531-.422c-1.352,5.029,2.944,8.588,7.489,9.446,3.195.6,6.547.371,9.782.375l11.265.014a.794.794,0,0,0,0-1.588" transform="translate(-26.851 -140.668)" fill="#005187"/>
        <path id="Trazado_734862" data-name="Trazado 734862" d="M314.605,480.145q-24.128-.185-48.244-1.023c-1.022-.035-1.021,1.553,0,1.588q24.114.838,48.244,1.023a.794.794,0,0,0,0-1.588" transform="translate(-125.006 -225.505)" fill="#fff"/>
        <path id="Trazado_734863" data-name="Trazado 734863" d="M393.786,481.377q-11.018.26-22.034-.122c-1.022-.035-1.021,1.553,0,1.588q11.015.382,22.034.122a.794.794,0,0,0,0-1.588" transform="translate(-174.61 -226.509)" fill="#fff"/>
        <path id="Trazado_734864" data-name="Trazado 734864" d="M492.686,491.643c-29.307.973-58.639,1.922-87.957.811-1.022-.039-1.02,1.549,0,1.588,29.318,1.111,58.65.162,87.957-.811,1.019-.034,1.024-1.622,0-1.588" transform="translate(-190.131 -231.398)" fill="#fff"/>
        <path id="Trazado_734865" data-name="Trazado 734865" d="M419.489,492.407l-3.366,7.437c-.561,1.239-1.117,2.48-1.683,3.718a8.1,8.1,0,0,1-.709,1.524c-1.06,1.132-2.618.88-3.955.881l-17.381,0-35.288.009L286.532,506l-40.028.01a.794.794,0,0,0,0,1.588l146.946-.039,10.007,0c3.007,0,6.562.524,9.515-.072,2.271-.458,2.854-3.152,3.682-4.98l4.207-9.3c.418-.924-.95-1.732-1.371-.8" transform="translate(-115.659 -231.564)" fill="#5db7de"/>
        <path id="Trazado_734866" data-name="Trazado 734866" d="M493.133,361.9a11.026,11.026,0,0,1-9.23,8.467c-1,.13-1.012,1.72,0,1.588a12.632,12.632,0,0,0,10.761-9.633c.231-.995-1.3-1.419-1.531-.422" transform="translate(-227.401 -170.067)" fill="#5db7de"/>
        <path id="Trazado_734867" data-name="Trazado 734867" d="M479.936,387.123a19.564,19.564,0,0,1-7.31,1.03c-1.022-.049-1.019,1.539,0,1.588a20.77,20.77,0,0,0,7.733-1.087c.962-.327.549-1.861-.422-1.531" transform="translate(-222.087 -182.183)" fill="#5db7de"/>
        <path id="Trazado_734868" data-name="Trazado 734868" d="M301.631,12.614H67.251a3.015,3.015,0,1,1,0-6.029h234.38a3.015,3.015,0,1,1,0,6.029" transform="translate(-30.234 -3.099)" fill="#57cdff"/>
        <path id="Trazado_734869" data-name="Trazado 734869" d="M72.5,1.6H63.993a1.06,1.06,0,0,0-1.06,1.06v146.6a1.06,1.06,0,0,0,1.06,1.06H72.5a1.06,1.06,0,0,0,1.06-1.06V2.662A1.06,1.06,0,0,0,72.5,1.6" transform="translate(-29.62 -0.754)" fill="#57cdff"/>
        <path id="Trazado_734870" data-name="Trazado 734870" d="M69.387,1.6H60.878a1.06,1.06,0,0,0-1.06,1.06v146.6a1.06,1.06,0,0,0,1.06,1.06h8.509a1.059,1.059,0,0,0,1.059-1.06V2.662A1.059,1.059,0,0,0,69.387,1.6" transform="translate(-28.154 -0.754)" fill="#29abe2"/>
        <path id="Trazado_734871" data-name="Trazado 734871" d="M79.018,3.388a.794.794,0,0,0-1.588,0q.118,9.826.237,19.652a.794.794,0,0,0,1.588,0q-.118-9.826-.237-19.652" transform="translate(-36.443 -1.234)" fill="#fff"/>
        <path id="Trazado_734872" data-name="Trazado 734872" d="M79.426,49.421a.794.794,0,0,0-1.588,0q.03,1.588.061,3.176a.794.794,0,0,0,1.588,0q-.03-1.588-.061-3.176" transform="translate(-36.635 -22.9)" fill="#fff"/>
        <path id="Trazado_734873" data-name="Trazado 734873" d="M37.652,65.908S1.928,77.126,1.084,78.3-.323,85.942.2,86.037H10.648s1.161-2.45,2.637-3.109,23.524-3.863,24.367-3.863,1.688-13.126,0-13.157" transform="translate(0 -31.02)" fill="#57cdff"/>
        <path id="Trazado_734874" data-name="Trazado 734874" d="M3.015,103.933v6.5c0,2.889,7.411,2.826,7.411,0v-6.5Z" transform="translate(-1.419 -48.917)" fill="#82daff"/>
        <path id="Trazado_734875" data-name="Trazado 734875" d="M4.8,103.933v6.5c0,2.889,7.411,2.826,7.411,0v-6.5Z" transform="translate(-2.257 -48.917)" fill="#57cdff"/>
        <path id="Trazado_734876" data-name="Trazado 734876" d="M26.1,75.968c-4.286,1.638-8.579,3.258-12.858,4.916-2.655,1.029-6.049,1.917-7.761,4.35-.589.837.787,1.632,1.372.8,1.851-2.63,6.711-3.584,9.561-4.673L26.519,77.5c.945-.362.535-1.9-.422-1.531" transform="translate(-2.511 -35.729)" fill="#fff"/>
        <path id="Trazado_734877" data-name="Trazado 734877" d="M52.315,71.882,50.43,72.926c-.894.495-.094,1.867.8,1.371l1.885-1.044c.894-.495.094-1.867-.8-1.371" transform="translate(-23.551 -33.782)" fill="#fff"/>
        <path id="Trazado_734878" data-name="Trazado 734878" d="M280.3,318.434c-.5,2.726-5.613,43.009-5.11,45.15s3.391,9.345,2.512,11.195,8.164,2.433,8.918.876.754-7.5,2.763-8.664,5.087-30.372,6.218-30.81-1.7,22.049,0,26.575-.314,13.774,1.193,15.721,2.638,3.894,2.638,6.035,13.5,3.942,19.909,3.066,17.334-3.213,26.188-3.066,12.624-2.482,11.3-4.672-.942-13.434-.942-16.792-5.464-25.845-4.334-25.845,5.035,14.6,5.532,16.256,1.251,7.691,1.628,9.832,3.517,4.381,3.768,7.3,9.044.487,9.044-1.071a62.03,62.03,0,0,0,0-8.566c-.377-3.991-1.193-33.974-3.894-36.748a13.9,13.9,0,0,1-3.421-5.987Z" transform="translate(-129.507 -149.775)" fill="#f15a24"/>
        <path id="Trazado_734879" data-name="Trazado 734879" d="M287.366,388.822a11.155,11.155,0,0,0,4.241,1.18c.3-1.564.607-3.329.911-5.18-2.961.084-6-2.739-8.583-3.794a12.024,12.024,0,0,0-7.336-.585c-.238,2.15-.448,4.141-.617,5.87,4.223-2.252,7.486.629,11.383,2.508" transform="translate(-129.895 -178.91)" fill="#d95120"/>
        <path id="Trazado_734880" data-name="Trazado 734880" d="M314.561,366.234c2.269-1.074,4.849-.3,7.231,0,2.263.283,4.535.5,6.815.576a46.133,46.133,0,0,0,7.753-.389c2.574-.352,5.223-1.475,7.813-1.5,2.423-.025,4.733,1.473,7.042,2.073a19.9,19.9,0,0,0,6.8.656,14.679,14.679,0,0,0,5.429-1.6c1.063-.546,1.8-1.185,3.049-1.148a11.158,11.158,0,0,1,2.7.669c.546.162,1.095.323,1.647.466-.412-2.073-.782-4.007-1.042-5.572a10.25,10.25,0,0,0-4.99-.739c-1.692.295-2.974,1.292-4.513,1.968a10.866,10.866,0,0,1-6.373.494c-3.7-.685-6.877-2.829-10.747-2.48-2.07.187-4.05.891-6.084,1.274a36.244,36.244,0,0,1-6.535.569c-4.211.022-8.288-.738-12.462-1.1a9.331,9.331,0,0,0-4.345.616c-.093,1.721-.22,3.722-.34,5.8a12.524,12.524,0,0,1,1.154-.636" transform="translate(-147.509 -169.266)" fill="#d95120"/>
        <path id="Trazado_734881" data-name="Trazado 734881" d="M372.931,402.955c-4.39-.36-8.36,1.392-12.667,1.62-4.1.217-7.957-1.731-11.92-2.469a18.333,18.333,0,0,0-11.1,1.492,13.055,13.055,0,0,1-5.37,1.447,30.52,30.52,0,0,1-6.06-1.267c-4.072-.944-7.09-.232-10.947.97a40.382,40.382,0,0,1,.113,5.482c.071-.018.143-.03.214-.049,1.872-.5,3.649-1.445,5.591-1.651a16.318,16.318,0,0,1,5.729.891c3.6.924,6.944,1.289,10.488-.032,3.8-1.417,6.632-2.886,10.792-2,3.723.792,7.263,2.3,11.108,2.484,4.308.208,8.342-1.743,12.626-1.689a15.466,15.466,0,0,1,3,.336c0-2.1.033-4.043.046-5.363-.546-.087-1.1-.156-1.65-.2" transform="translate(-148.198 -189.113)" fill="#d95120"/>
        <path id="Trazado_734882" data-name="Trazado 734882" d="M376.641,430.295a10.4,10.4,0,0,1-.763-3.695,72.142,72.142,0,0,0-9.033-1.166c-4.059-.158-7.757.888-11.719,1.532-4.316.7-8.732.067-13.032-.452a47.847,47.847,0,0,0-12.076-.394,22.422,22.422,0,0,0-5.483,1.428c-1.846.744-3.648,1.851-5.642,2.158a8.43,8.43,0,0,1-1.656.085,9.083,9.083,0,0,1,2,5.175v0c.353-.039.706-.088,1.06-.16,3.821-.773,6.988-3.135,10.95-3.544,4.225-.435,8.491.273,12.678.763a44.182,44.182,0,0,0,12.129.114c4.3-.679,8.155-1.675,12.556-1.3,2.7.229,5.39.691,8.07,1.108a1.587,1.587,0,0,0-.043-1.656" transform="translate(-149.312 -200.229)" fill="#d95120"/>
        <path id="Trazado_734883" data-name="Trazado 734883" d="M282.771,327.912l.043-.015c3.505-1.389,7.4,1.5,11.137.8,1.917-.362,3.623-1.915,5.6-1.632,1.721.246,3.273,1.355,4.992,1.7a9.177,9.177,0,0,0,5.686-.845c1.98-.861,3.057-1.034,5.124-.177a15.025,15.025,0,0,0,4.78,1.549,9.663,9.663,0,0,0,5.24-1.523c3.342-1.729,7.056,1.422,10.675,1.012,1.953-.221,3.337-1.748,5.17-2.035,2.062-.323,4.27,1.081,6.47.8,2.1-.272,4.065-1.548,6.194-1.434,1.961.1,3.849,1.146,5.807,1.388a11.3,11.3,0,0,0,5.184-.791c2.5-.785,4.736-.192,7.157.535a4.593,4.593,0,0,0-.814-1.795,14.47,14.47,0,0,1-2.915-4.432,12.461,12.461,0,0,0-1.628-.042c-1.95.086-3.595,1.186-5.47,1.347-2.152.184-4.368-1.15-6.5-1.405a12.9,12.9,0,0,0-5.63.823,6.841,6.841,0,0,1-3.648.458,27.789,27.789,0,0,0-3.337-.692c-2.079-.137-3.43.617-5.23,1.461-3.591,1.684-7.456-1.837-11.384-.923-1.817.422-3.454,2.127-5.334,1.927-1.782-.19-3.426-1.554-5.174-1.978a8.5,8.5,0,0,0-5.373.451c-2.074.826-3.222,1.5-5.437.689-1.752-.641-3.431-1.458-5.344-1.455-2.231,0-3.834,1.5-5.926,1.827-1.914.3-3.9-.637-5.752-.994a12.253,12.253,0,0,0-3.624-.226c-.2,1.464-.455,3.4-.744,5.635" transform="translate(-133.09 -151.01)" fill="#d95120"/>
        <path id="Trazado_734884" data-name="Trazado 734884" d="M288.512,423.071a20.391,20.391,0,0,0-8.547-2.208,4.242,4.242,0,0,1-.05,2.226c-.879,1.849,8.164,2.434,8.918.876a3.7,3.7,0,0,0,.214-.634c-.179-.088-.358-.177-.536-.26" transform="translate(-131.718 -198.085)" fill="#d95120"/>
        <path id="Trazado_734885" data-name="Trazado 734885" d="M434.337,356.212a17.925,17.925,0,0,0-4.584.915c-1.553.612-2.78,2.11-4.469,2.171a7.8,7.8,0,0,1-2.07-.232c.566,1.679,1.166,3.643,1.711,5.5a8.139,8.139,0,0,0,1.334-.01c2.306-.216,3.594-1.831,5.641-2.6,2.264-.845,5.108-.745,7.491-1l.829-.09c-.119-1.768-.251-3.543-.4-5.262q-2.744.3-5.486.609" transform="translate(-199.191 -167.369)" fill="#d95120"/>
        <path id="Trazado_734886" data-name="Trazado 734886" d="M286.979,368.535a8.45,8.45,0,0,0,5.782.966,7.759,7.759,0,0,0,1.922-.782c.355-2.315.694-4.539,1.007-6.455-1.024.522-2.06,1.135-3.264,1.718-2.055,1-3.737-.656-5.533-1.537a16.835,16.835,0,0,0-4.855-1.566,13.6,13.6,0,0,0-3.143-.127c-.217,1.8-.43,3.606-.635,5.365,2.875-.8,6.134,1.135,8.719,2.417" transform="translate(-130.967 -169.774)" fill="#d95120"/>
        <path id="Trazado_734887" data-name="Trazado 734887" d="M275.192,402.7c.184.784.689,2.249,1.211,3.881,2.843-.6,6.5,1.916,8.891,2.824a17.833,17.833,0,0,0,2.28.684c.344-1.752.844-3.419,1.811-3.982a2.3,2.3,0,0,0,.62-1.105,39.564,39.564,0,0,1-7.652-2.628,12.621,12.621,0,0,0-7.18-.841,5.909,5.909,0,0,0,.019,1.166" transform="translate(-129.507 -188.886)" fill="#d95120"/>
        <path id="Trazado_734888" data-name="Trazado 734888" d="M367.832,338.116a8.79,8.79,0,0,0-5.067.425c-1.793.688-3.436,2.164-5.42,1.862-2.153-.328-3.84-.984-6.105-.81-4.805.369-9.584,1.37-14.412,1.424-4.294.047-9.037-2.949-12.935-.191a6.311,6.311,0,0,1-6.2,1.012c-1.919-.519-3.656-1.4-5.693-1.241s-3.62,1.281-5.716.974c-2-.294-3.861-1.106-5.905-1.22-2.226-.123-4.077.717-6.122,1.444-2.5.889-4.258.366-6.62-.667a18.872,18.872,0,0,0-6.261-1.809c-.212,1.669-.433,3.437-.658,5.257,1.566-.139,3.193.674,4.643,1.3a16.637,16.637,0,0,0,6.2,1.809c2.351.045,4.211-1.038,6.375-1.677.1-.327.2-.521.283-.554.1-.04.172.112.215.419,2.271-.52,4.2.364,6.441.8a11.523,11.523,0,0,0,6.019-.369c2.345-.742,3.927.344,6.229.85a12.578,12.578,0,0,0,6.368-.006c2.239-.684,3.271-2.614,5.75-1.954,4.847,1.291,9.3,1.111,14.252.556,2.577-.289,5.159-.666,7.745-.865,2.483-.191,4.5.978,6.906.944,1.954-.027,3.628-.986,5.333-1.812,2.367-1.149,3.645-.49,6.049.143a9.877,9.877,0,0,0,2.97.321c-.187-1.876-.394-3.632-.624-5.172a33.557,33.557,0,0,1-4.041-1.194" transform="translate(-132.122 -159.048)" fill="#d95120"/>
        <path id="Trazado_734889" data-name="Trazado 734889" d="M363.267,378.862a16.9,16.9,0,0,0-4.37,2c-2.015,1.183-3.858.988-6.039.4-3.671-.986-7.207-2.674-11.082-2.693-3.9-.02-6.846,2.094-10.382,3.328-3.638,1.27-7.124-.436-10.765-.835-3.187-.35-5.3.773-7.87,1.98-.05,2.108-.038,4.04.086,5.555a20.557,20.557,0,0,0,2.983-1.327c4.281-2.272,8.511.562,13.012.458,4.691-.109,8.335-3.832,12.936-3.866,4.922-.037,9.3,3.26,14.272,3.221a11.51,11.51,0,0,0,5.851-1.853,11.456,11.456,0,0,1,6.906-1.508c1.2.069,2.39.22,3.581.373-.338-1.706-.718-3.559-1.1-5.414a22.014,22.014,0,0,0-8.024.178" transform="translate(-147.191 -178.101)" fill="#d95120"/>
        <path id="Trazado_734890" data-name="Trazado 734890" d="M446.32,397.956c-.025-.264-.052-.645-.081-1.122a17.9,17.9,0,0,0-7.374,4.13c-.426.4-.98,1.366-1.5,1.606-.734.339-1.4-.209-2.215-.533-.36-.143-.727-.264-1.094-.386,1.016,1.747,3.021,3.631,3.219,5.943a1.179,1.179,0,0,0,.221.6,4.322,4.322,0,0,0,.928-.143c1.586-.424,2.521-1.632,3.6-2.761a12.674,12.674,0,0,1,4.451-2.961,39.382,39.382,0,0,0-.16-4.371" transform="translate(-204.295 -186.775)" fill="#d95120"/>
        <path id="Trazado_734891" data-name="Trazado 734891" d="M437.69,383.613c1.893-.29,3.778-.475,5.663-.588-.079-1.6-.171-3.415-.276-5.348-.793.05-1.585.111-2.377.2-3.873.428-7.544,1.247-11.465.865q-.388-.038-.777-.082c.389,1.376.675,2.412.787,2.785a25.7,25.7,0,0,1,.532,2.645c.278.023.557.045.836.061a33.91,33.91,0,0,0,7.077-.536" transform="translate(-201.66 -177.759)" fill="#d95120"/>
        <path id="Trazado_734892" data-name="Trazado 734892" d="M300.269,348.038c0,6.5-2.538,12.748-3.525,19.135-.468,3.033-.844,6.089-1.576,9.074-.44,1.8-1.066,3.128-3.053,2.927a12.423,12.423,0,0,0-3.673.241c-1,.195-.578,1.726.422,1.531,1.472-.286,2.922.13,4.331.137a10.326,10.326,0,0,0-1.655,4.263c-.164.989.01,2.46-1.209,2.5a29.646,29.646,0,0,0-3.288-.165c-1,.132-1.012,1.721,0,1.588a7.658,7.658,0,0,1,2.593.037,5.061,5.061,0,0,0,1.449.286,1.805,1.805,0,0,0,1.419-1.06,10.679,10.679,0,0,0,.61-3.028,8.985,8.985,0,0,1,2.2-4.594.78.78,0,0,0,.183-.685,4.091,4.091,0,0,0,.324-.575c1.428-3,1.682-6.887,2.167-10.131,1.067-7.142,3.864-14.23,3.87-21.479a.794.794,0,0,0-1.588,0" transform="translate(-134.746 -163.448)" fill="#b3431a"/>
        <path id="Trazado_734893" data-name="Trazado 734893" d="M423.015,374.527a64.157,64.157,0,0,0-1.239-10.145c-1.434-7.589-3.491-15.082-3.06-22.876.057-1.021-1.531-1.018-1.588,0-.4,7.282,1.321,14.331,2.747,21.417a68.363,68.363,0,0,1,1.551,11.6c.108,3.985-.423,7.953-.459,11.936a.794.794,0,0,0,1.588,0c.035-3.983.567-7.951.459-11.936" transform="translate(-196.299 -160.374)" fill="#b3431a"/>
        <path id="Trazado_734894" data-name="Trazado 734894" d="M426.815,433.1c-.337-.958-1.872-.545-1.531.422.2.561.613,1.467.333,2.008a3.177,3.177,0,0,1-1.5,1.113c-.926.429-.121,1.8.8,1.371a4.56,4.56,0,0,0,2.2-1.881c.467-.936.017-2.121-.3-3.033" transform="translate(-199.424 -203.587)" fill="#b3431a"/>
        <path id="Trazado_734895" data-name="Trazado 734895" d="M378.417,431.128c-3.824-.768-6.944,1.919-10.7,2.071-3.859.157-7.583-.2-11.442.4-4.657.73-9.085,2.479-13.778.937-3.742-1.23-6.987-1.825-10.877-.76a.8.8,0,0,0,.422,1.531,13.869,13.869,0,0,1,7.2-.176c1.671.422,3.224,1.188,4.925,1.5,3.6.662,7.138-.475,10.645-1.166a56.313,56.313,0,0,1,12.018-.695,13.316,13.316,0,0,0,4.461-.612c2.236-.724,4.25-2,6.7-1.5,1,.2,1.425-1.33.422-1.531" transform="translate(-155.818 -202.851)" fill="#b3431a"/>
        <path id="Trazado_734896" data-name="Trazado 734896" d="M450.419,336.232a.8.8,0,0,0-1.531.422c2.137,8.217.927,16.73,1.605,25.1.082,1.012,1.671,1.02,1.588,0-.69-8.517.512-17.157-1.662-25.521" transform="translate(-211.262 -157.986)" fill="#b3431a"/>
        <path id="Trazado_734897" data-name="Trazado 734897" d="M100.753,155.128H171.2c6.029,0,36.175,67.45,23.363,67.45H100.753c-9.8,0-10.551-67.45,0-67.45" transform="translate(-43.828 -73.013)" fill="#f7931e"/>
        <path id="Trazado_734898" data-name="Trazado 734898" d="M53.031,155.128H84.684c6.029,0,36.174,67.45,23.363,67.45H53.031c-9.8,0-10.551-67.45,0-67.45" transform="translate(-21.367 -73.013)" fill="#e88a1c"/>
        <path id="Trazado_734899" data-name="Trazado 734899" d="M84.723,181.074H68.395a4.4,4.4,0,0,1-4.4-4.4v-5.527a4.4,4.4,0,0,1,4.4-4.4H84.723a4.4,4.4,0,0,1,4.4,4.4v5.527a4.4,4.4,0,0,1-4.4,4.4" transform="translate(-30.122 -78.485)" fill="#c76c00"/>
        <path id="Trazado_734900" data-name="Trazado 734900" d="M75.353,178.409a1.955,1.955,0,1,1-1.955-1.955,1.955,1.955,0,0,1,1.955,1.955" transform="translate(-33.626 -83.05)" fill="#854c0a"/>
        <path id="Trazado_734901" data-name="Trazado 734901" d="M87.944,178.409a1.955,1.955,0,1,1-1.955-1.955,1.955,1.955,0,0,1,1.955,1.955" transform="translate(-39.552 -83.05)" fill="#854c0a"/>
        <path id="Trazado_734902" data-name="Trazado 734902" d="M100.535,178.409a1.955,1.955,0,1,1-1.955-1.955,1.955,1.955,0,0,1,1.955,1.955" transform="translate(-45.478 -83.05)" fill="#854c0a"/>
        <path id="Trazado_734903" data-name="Trazado 734903" d="M215.866,211.625h-42.2a2.514,2.514,0,0,1-2.3-1.494L155.915,175.3a1.858,1.858,0,0,1,1.7-2.611h42.2a2.514,2.514,0,0,1,2.3,1.495l15.45,34.832a1.858,1.858,0,0,1-1.7,2.611" transform="translate(-73.308 -81.277)" fill="#1a2982"/>
        <path id="Trazado_734904" data-name="Trazado 734904" d="M217.564,209.015l-15.45-34.832a2.514,2.514,0,0,0-2.3-1.494h-42.2a1.857,1.857,0,0,0-1.7,2.611l1.042,2.35H189.08a2.514,2.514,0,0,1,2.3,1.495l14.407,32.482h10.08a1.858,1.858,0,0,0,1.7-2.611" transform="translate(-73.308 -81.278)" fill="#162370"/>
        <path id="Trazado_734905" data-name="Trazado 734905" d="M223.692,205.975l-7.2-16.224a1.171,1.171,0,0,0-1.07-.7H195.769a.865.865,0,0,0-.791,1.216l7.2,16.224a1.172,1.172,0,0,0,1.07.7H222.9a.865.865,0,0,0,.791-1.216m-7.279-3.121H206.158a.611.611,0,0,1-.558-.363l-3.754-8.464a.451.451,0,0,1,.412-.634h10.255a.61.61,0,0,1,.558.363l3.754,8.464a.451.451,0,0,1-.412.635" transform="translate(-91.734 -88.981)" fill="#2337b0"/>
        <path id="Trazado_734906" data-name="Trazado 734906" d="M222.738,206.107l-2.692-6.069a.439.439,0,0,0-.4-.26h-7.353a.324.324,0,0,0-.3.455l2.692,6.069a.438.438,0,0,0,.4.26h7.353a.324.324,0,0,0,.3-.455" transform="translate(-99.766 -94.028)" fill="#2337b0"/>
        <path id="Trazado_734907" data-name="Trazado 734907" d="M173.954,185.391l-2.692-6.069a.439.439,0,0,0-.4-.26h-7.353a.324.324,0,0,0-.3.455l2.692,6.069a.438.438,0,0,0,.4.26h7.353a.324.324,0,0,0,.3-.455" transform="translate(-76.805 -84.278)" fill="#2337b0"/>
        <path id="Trazado_734908" data-name="Trazado 734908" d="M181.822,202.037l-2.692-6.069a.439.439,0,0,0-.4-.26h-7.353a.324.324,0,0,0-.3.455l2.692,6.069a.438.438,0,0,0,.4.26h7.353a.324.324,0,0,0,.3-.455" transform="translate(-80.508 -92.113)" fill="#2337b0"/>
        <path id="Trazado_734909" data-name="Trazado 734909" d="M189.69,218.682,187,212.613a.438.438,0,0,0-.4-.26h-7.353a.324.324,0,0,0-.3.455l2.692,6.069a.438.438,0,0,0,.4.26h7.353a.324.324,0,0,0,.3-.455" transform="translate(-84.212 -99.947)" fill="#2337b0"/>
        <path id="Trazado_734910" data-name="Trazado 734910" d="M197.558,235.328l-2.692-6.069a.438.438,0,0,0-.4-.26h-7.353a.324.324,0,0,0-.3.455l2.692,6.069a.437.437,0,0,0,.4.26h7.353a.324.324,0,0,0,.3-.455" transform="translate(-87.915 -107.781)" fill="#2337b0"/>
        <path id="Trazado_734911" data-name="Trazado 734911" d="M143.728,199.056c-2.735-7.273-5.88-14.375-9.025-21.477-1.637-3.7-3.214-7.424-4.919-11.09a66.738,66.738,0,0,0-5.23-8.657c-.563-.847-1.938-.053-1.371.8a66.744,66.744,0,0,1,5.048,8.268c1.638,3.47,3.126,7.018,4.679,10.526,3.229,7.294,6.477,14.581,9.286,22.051.357.948,1.892.537,1.531-.422" transform="translate(-57.915 -74.115)" fill="#fff"/>
        <path id="Trazado_734912" data-name="Trazado 734912" d="M166.7,255.812a62.2,62.2,0,0,0-1.921-9.742.8.8,0,0,0-1.531.422,59.632,59.632,0,0,1,1.864,9.32c.117,1,1.707,1.015,1.588,0" transform="translate(-76.817 -115.553)" fill="#fff"/>
        <path id="Trazado_734913" data-name="Trazado 734913" d="M193.867,171.266q-18.049-.387-36.1-.205a.794.794,0,0,0,0,1.588q18.052-.182,36.1.205a.794.794,0,0,0,0-1.588" transform="translate(-73.893 -80.485)" fill="#fff"/>
        <path id="Trazado_734914" data-name="Trazado 734914" d="M53.079,179.441c.067-1.02-1.521-1.016-1.588,0a110.642,110.642,0,0,0-.167,11.321c.037,1.018,1.626,1.023,1.588,0a110.641,110.641,0,0,1,.167-11.321" transform="translate(-24.122 -84.097)" fill="#fff"/>
        <path id="Trazado_734915" data-name="Trazado 734915" d="M145.711,271.141c-6.959.826-14.049.526-21.044.516q-10.712-.016-21.423-.1T81.822,271.3q-5.225-.078-10.449-.173c-2.864-.052-10.926,1.072-12.085-2.34-.327-.962-1.862-.549-1.531.422.722,2.124,2.465,3.013,4.617,3.28a106.659,106.659,0,0,0,11.09.263q12.277.216,24.556.337,12.017.118,24.036.147c7.85.018,15.846.416,23.656-.511,1-.119,1.015-1.708,0-1.588" transform="translate(-27.162 -126.253)" fill="#c76c00"/>
        <path id="Trazado_734916" data-name="Trazado 734916" d="M257.788,273.972q-10.522-.152-21.043.111a.794.794,0,0,0,0,1.588q10.521-.264,21.043-.111a.794.794,0,0,0,0-1.588" transform="translate(-111.067 -128.922)" fill="#c76c00"/>
        <path id="Trazado_734917" data-name="Trazado 734917" d="M284.725,9.986V.143c0-.27,5.118-.09,5.589,0s5.276,6.2,5.338,6.562.22,3.281,0,3.281Z" transform="translate(-134.01 0)" fill="#004370"/>
        <path id="Trazado_734918" data-name="Trazado 734918" d="M292.136,6.743c-.063-.359-4.867-6.472-5.338-6.562-.158-.03-.839-.07-1.672-.1-.246.023-.4.055-.4.1v9.843h7.411c.22,0,.063-2.921,0-3.281" transform="translate(-134.01 -0.038)" fill="#005087"/>
        <path id="Trazado_734919" data-name="Trazado 734919" d="M287.751,3.086c0,.7-.366,1.259-.816,1.259s-.817-.564-.817-1.259.366-1.259.817-1.259.816.564.816,1.259" transform="translate(-134.665 -0.86)" fill="#004370"/>
        <path id="Trazado_734920" data-name="Trazado 734920" d="M287.1,3.086c0,.7-.366,1.259-.816,1.259s-.817-.564-.817-1.259.366-1.259.817-1.259.816.564.816,1.259" transform="translate(-134.358 -0.86)" fill="#005c9c"/>
        <path id="Trazado_734921" data-name="Trazado 734921" d="M287.054,3.646c0,.348-.183.629-.408.629s-.408-.282-.408-.629.183-.629.408-.629.408.282.408.629" transform="translate(-134.722 -1.42)" fill="#004370"/>
        <path id="Trazado_734922" data-name="Trazado 734922" d="M288.873,12.321c0,1.037-.545,1.877-1.217,1.877s-1.217-.84-1.217-1.877.545-1.877,1.217-1.877,1.217.84,1.217,1.877" transform="translate(-134.816 -4.916)" fill="#004370"/>
        <path id="Trazado_734923" data-name="Trazado 734923" d="M287.9,12.321c0,1.037-.545,1.877-1.217,1.877s-1.217-.84-1.217-1.877.545-1.877,1.217-1.877,1.217.84,1.217,1.877" transform="translate(-134.358 -4.916)" fill="#005c9c"/>
        <path id="Trazado_734924" data-name="Trazado 734924" d="M287.833,13.156c0,.518-.273.939-.609.939s-.608-.42-.608-.939.273-.939.608-.939.609.42.609.939" transform="translate(-134.9 -5.75)" fill="#004370"/>
        <path id="Trazado_734925" data-name="Trazado 734925" d="M295.183,12.321c0,1.037-.545,1.877-1.217,1.877s-1.217-.84-1.217-1.877.545-1.877,1.217-1.877,1.217.84,1.217,1.877" transform="translate(-137.786 -4.916)" fill="#004370"/>
        <path id="Trazado_734926" data-name="Trazado 734926" d="M294.21,12.321c0,1.037-.545,1.877-1.217,1.877s-1.217-.84-1.217-1.877.545-1.877,1.217-1.877,1.217.84,1.217,1.877" transform="translate(-137.328 -4.916)" fill="#005c9c"/>
        <path id="Trazado_734927" data-name="Trazado 734927" d="M294.144,13.156c0,.518-.273.939-.609.939s-.608-.42-.608-.939.272-.939.608-.939.609.42.609.939" transform="translate(-137.87 -5.75)" fill="#004370"/>
        <path id="Trazado_734928" data-name="Trazado 734928" d="M255.578,4.243H220.566a.335.335,0,1,1,0-.67h35.012a.335.335,0,1,1,0,.67" transform="translate(-103.655 -1.682)" fill="#c94b1e"/>
        <path id="Trazado_734929" data-name="Trazado 734929" d="M218.58,9.986V.143c0-.27,5.118-.09,5.589,0s5.275,6.2,5.338,6.562.22,3.281,0,3.281Z" transform="translate(-102.878 0)" fill="#004370"/>
        <path id="Trazado_734930" data-name="Trazado 734930" d="M225.991,6.743c-.063-.359-4.867-6.472-5.338-6.562-.158-.03-.839-.07-1.672-.1-.246.023-.4.055-.4.1v9.843h7.411c.22,0,.063-2.921,0-3.281" transform="translate(-102.878 -0.038)" fill="#005087"/>
        <path id="Trazado_734931" data-name="Trazado 734931" d="M221.607,3.086c0,.7-.366,1.259-.816,1.259s-.817-.564-.817-1.259.366-1.259.817-1.259.816.564.816,1.259" transform="translate(-103.534 -0.86)" fill="#004370"/>
        <path id="Trazado_734932" data-name="Trazado 734932" d="M220.955,3.086c0,.7-.366,1.259-.816,1.259s-.817-.564-.817-1.259.366-1.259.817-1.259.816.564.816,1.259" transform="translate(-103.227 -0.86)" fill="#005c9c"/>
        <path id="Trazado_734933" data-name="Trazado 734933" d="M220.909,3.646c0,.348-.183.629-.408.629s-.408-.282-.408-.629.183-.629.408-.629.408.282.408.629" transform="translate(-103.59 -1.42)" fill="#004370"/>
        <path id="Trazado_734934" data-name="Trazado 734934" d="M222.729,12.321c0,1.037-.545,1.877-1.217,1.877s-1.217-.84-1.217-1.877.545-1.877,1.217-1.877,1.217.84,1.217,1.877" transform="translate(-103.685 -4.916)" fill="#004370"/>
        <path id="Trazado_734935" data-name="Trazado 734935" d="M221.756,12.321c0,1.037-.545,1.877-1.217,1.877s-1.217-.84-1.217-1.877.546-1.877,1.217-1.877,1.217.84,1.217,1.877" transform="translate(-103.226 -4.916)" fill="#005c9c"/>
        <path id="Trazado_734936" data-name="Trazado 734936" d="M221.689,13.156c0,.518-.273.939-.609.939s-.608-.42-.608-.939.272-.939.608-.939.609.42.609.939" transform="translate(-103.768 -5.75)" fill="#004370"/>
        <path id="Trazado_734937" data-name="Trazado 734937" d="M229.039,12.321c0,1.037-.545,1.877-1.217,1.877s-1.217-.84-1.217-1.877.545-1.877,1.217-1.877,1.217.84,1.217,1.877" transform="translate(-106.655 -4.916)" fill="#004370"/>
        <path id="Trazado_734938" data-name="Trazado 734938" d="M228.066,12.321c0,1.037-.545,1.877-1.217,1.877s-1.217-.84-1.217-1.877.545-1.877,1.217-1.877,1.217.84,1.217,1.877" transform="translate(-106.197 -4.916)" fill="#005c9c"/>
        <path id="Trazado_734939" data-name="Trazado 734939" d="M228,13.156c0,.518-.273.939-.609.939s-.608-.42-.608-.939.272-.939.608-.939.609.42.609.939" transform="translate(-106.738 -5.75)" fill="#004370"/>
        <path id="Trazado_734940" data-name="Trazado 734940" d="M191.92,4.243H159.7a.335.335,0,0,1,0-.67H191.92a.335.335,0,1,1,0,.67" transform="translate(-75.008 -1.682)" fill="#c94b1e"/>
        <path id="Trazado_734941" data-name="Trazado 734941" d="M350.869,9.986V.143c0-.27,5.118-.09,5.589,0s5.275,6.2,5.338,6.562.22,3.281,0,3.281Z" transform="translate(-165.141 0)" fill="#004370"/>
        <path id="Trazado_734942" data-name="Trazado 734942" d="M358.28,6.743c-.063-.359-4.867-6.472-5.338-6.562-.158-.03-.839-.07-1.672-.1-.246.023-.4.055-.4.1v9.843h7.411c.22,0,.063-2.921,0-3.281" transform="translate(-165.141 -0.038)" fill="#005087"/>
        <path id="Trazado_734943" data-name="Trazado 734943" d="M353.9,3.086c0,.7-.366,1.259-.816,1.259s-.817-.564-.817-1.259.366-1.259.817-1.259.816.564.816,1.259" transform="translate(-165.797 -0.86)" fill="#004370"/>
        <path id="Trazado_734944" data-name="Trazado 734944" d="M353.243,3.086c0,.7-.366,1.259-.816,1.259s-.817-.564-.817-1.259.366-1.259.817-1.259.816.564.816,1.259" transform="translate(-165.49 -0.86)" fill="#005c9c"/>
        <path id="Trazado_734945" data-name="Trazado 734945" d="M353.2,3.646c0,.348-.183.629-.408.629s-.408-.282-.408-.629.183-.629.408-.629.408.282.408.629" transform="translate(-165.853 -1.42)" fill="#004370"/>
        <path id="Trazado_734946" data-name="Trazado 734946" d="M355.017,12.321c0,1.037-.545,1.877-1.217,1.877s-1.217-.84-1.217-1.877.545-1.877,1.217-1.877,1.217.84,1.217,1.877" transform="translate(-165.948 -4.916)" fill="#004370"/>
        <path id="Trazado_734947" data-name="Trazado 734947" d="M354.044,12.321c0,1.037-.545,1.877-1.217,1.877s-1.217-.84-1.217-1.877.545-1.877,1.217-1.877,1.217.84,1.217,1.877" transform="translate(-165.49 -4.916)" fill="#005c9c"/>
        <path id="Trazado_734948" data-name="Trazado 734948" d="M353.977,13.156c0,.518-.273.939-.609.939s-.608-.42-.608-.939.273-.939.608-.939.609.42.609.939" transform="translate(-166.031 -5.75)" fill="#004370"/>
        <path id="Trazado_734949" data-name="Trazado 734949" d="M361.327,12.321c0,1.037-.545,1.877-1.217,1.877s-1.217-.84-1.217-1.877.545-1.877,1.217-1.877,1.217.84,1.217,1.877" transform="translate(-168.918 -4.916)" fill="#004370"/>
        <path id="Trazado_734950" data-name="Trazado 734950" d="M360.355,12.321c0,1.037-.545,1.877-1.217,1.877s-1.217-.84-1.217-1.877.545-1.877,1.217-1.877,1.217.84,1.217,1.877" transform="translate(-168.46 -4.916)" fill="#005c9c"/>
        <path id="Trazado_734951" data-name="Trazado 734951" d="M360.288,13.156c0,.518-.273.939-.609.939s-.608-.42-.608-.939.272-.939.608-.939.609.42.609.939" transform="translate(-169.002 -5.75)" fill="#004370"/>
        <path id="Trazado_734952" data-name="Trazado 734952" d="M417.013,9.986V.143c0-.27,5.119-.09,5.589,0s5.276,6.2,5.338,6.562.22,3.281,0,3.281Z" transform="translate(-196.273 0)" fill="#004370"/>
        <path id="Trazado_734953" data-name="Trazado 734953" d="M424.424,6.743c-.063-.359-4.867-6.472-5.338-6.562-.158-.03-.839-.07-1.672-.1-.246.023-.4.055-.4.1v9.843h7.411c.22,0,.063-2.921,0-3.281" transform="translate(-196.273 -0.038)" fill="#005087"/>
        <path id="Trazado_734954" data-name="Trazado 734954" d="M420.04,3.086c0,.7-.366,1.259-.816,1.259s-.817-.564-.817-1.259.366-1.259.817-1.259.816.564.816,1.259" transform="translate(-196.929 -0.86)" fill="#004370"/>
        <path id="Trazado_734955" data-name="Trazado 734955" d="M419.388,3.086c0,.7-.366,1.259-.816,1.259s-.817-.564-.817-1.259.366-1.259.817-1.259.816.564.816,1.259" transform="translate(-196.622 -0.86)" fill="#005c9c"/>
        <path id="Trazado_734956" data-name="Trazado 734956" d="M419.342,3.646c0,.348-.183.629-.408.629s-.408-.282-.408-.629.183-.629.408-.629.408.282.408.629" transform="translate(-196.985 -1.42)" fill="#004370"/>
        <path id="Trazado_734957" data-name="Trazado 734957" d="M421.161,12.321c0,1.037-.545,1.877-1.217,1.877s-1.217-.84-1.217-1.877.545-1.877,1.217-1.877,1.217.84,1.217,1.877" transform="translate(-197.08 -4.916)" fill="#004370"/>
        <path id="Trazado_734958" data-name="Trazado 734958" d="M420.189,12.321c0,1.037-.545,1.877-1.217,1.877s-1.217-.84-1.217-1.877.545-1.877,1.217-1.877,1.217.84,1.217,1.877" transform="translate(-196.622 -4.916)" fill="#005c9c"/>
        <path id="Trazado_734959" data-name="Trazado 734959" d="M420.122,13.156c0,.518-.273.939-.609.939s-.608-.42-.608-.939.272-.939.608-.939.609.42.609.939" transform="translate(-197.163 -5.75)" fill="#004370"/>
        <path id="Trazado_734960" data-name="Trazado 734960" d="M427.472,12.321c0,1.037-.545,1.877-1.217,1.877s-1.217-.84-1.217-1.877.545-1.877,1.217-1.877,1.217.84,1.217,1.877" transform="translate(-200.05 -4.916)" fill="#004370"/>
        <path id="Trazado_734961" data-name="Trazado 734961" d="M426.5,12.321c0,1.037-.545,1.877-1.217,1.877s-1.217-.84-1.217-1.877.545-1.877,1.217-1.877,1.217.84,1.217,1.877" transform="translate(-199.592 -4.916)" fill="#005c9c"/>
        <path id="Trazado_734962" data-name="Trazado 734962" d="M426.432,13.156c0,.518-.273.939-.609.939s-.608-.42-.608-.939.273-.939.608-.939.609.42.609.939" transform="translate(-200.133 -5.75)" fill="#004370"/>
        <path id="Trazado_734963" data-name="Trazado 734963" d="M201.069,14.027H171.193a.335.335,0,0,1,0-.67h29.876a.335.335,0,1,1,0,.67" transform="translate(-80.417 -6.287)" fill="#f15a24"/>
        <path id="Trazado_734964" data-name="Trazado 734964" d="M152.436,9.986V.143c0-.27,5.119-.09,5.589,0s5.276,6.2,5.338,6.562.22,3.281,0,3.281Z" transform="translate(-71.746 0)" fill="#004370"/>
        <path id="Trazado_734965" data-name="Trazado 734965" d="M159.847,6.743c-.063-.359-4.867-6.472-5.338-6.562-.158-.03-.839-.07-1.672-.1-.246.023-.4.055-.4.1v9.843h7.411c.22,0,.063-2.921,0-3.281" transform="translate(-71.746 -0.038)" fill="#005087"/>
        <path id="Trazado_734966" data-name="Trazado 734966" d="M155.463,3.086c0,.7-.366,1.259-.816,1.259s-.817-.564-.817-1.259.366-1.259.817-1.259.816.564.816,1.259" transform="translate(-72.402 -0.86)" fill="#004370"/>
        <path id="Trazado_734967" data-name="Trazado 734967" d="M154.81,3.086c0,.7-.366,1.259-.816,1.259s-.817-.564-.817-1.259.366-1.259.817-1.259.816.564.816,1.259" transform="translate(-72.095 -0.86)" fill="#005c9c"/>
        <path id="Trazado_734968" data-name="Trazado 734968" d="M154.765,3.646c0,.348-.183.629-.408.629s-.408-.282-.408-.629.183-.629.408-.629.408.282.408.629" transform="translate(-72.458 -1.42)" fill="#004370"/>
        <path id="Trazado_734969" data-name="Trazado 734969" d="M156.584,12.321c0,1.037-.545,1.877-1.217,1.877s-1.217-.84-1.217-1.877.545-1.877,1.217-1.877,1.217.84,1.217,1.877" transform="translate(-72.553 -4.916)" fill="#004370"/>
        <path id="Trazado_734970" data-name="Trazado 734970" d="M155.612,12.321c0,1.037-.545,1.877-1.217,1.877s-1.217-.84-1.217-1.877.545-1.877,1.217-1.877,1.217.84,1.217,1.877" transform="translate(-72.095 -4.916)" fill="#005c9c"/>
        <path id="Trazado_734971" data-name="Trazado 734971" d="M155.544,13.156c0,.518-.273.939-.609.939s-.608-.42-.608-.939.272-.939.608-.939.609.42.609.939" transform="translate(-72.636 -5.75)" fill="#004370"/>
        <path id="Trazado_734972" data-name="Trazado 734972" d="M162.895,12.321c0,1.037-.545,1.877-1.217,1.877s-1.217-.84-1.217-1.877.545-1.877,1.217-1.877,1.217.84,1.217,1.877" transform="translate(-75.523 -4.916)" fill="#004370"/>
        <path id="Trazado_734973" data-name="Trazado 734973" d="M161.922,12.321c0,1.037-.545,1.877-1.217,1.877s-1.217-.84-1.217-1.877.545-1.877,1.217-1.877,1.217.84,1.217,1.877" transform="translate(-75.065 -4.916)" fill="#005c9c"/>
        <path id="Trazado_734974" data-name="Trazado 734974" d="M161.855,13.156c0,.518-.273.939-.609.939s-.608-.42-.608-.939.272-.939.608-.939.609.42.609.939" transform="translate(-75.606 -5.75)" fill="#004370"/>
        <path id="Trazado_734975" data-name="Trazado 734975" d="M46.255,101.98a.335.335,0,0,1-.249-.111l-31.461-35a3.01,3.01,0,0,1,.57-4.518L88.6,13.413a.335.335,0,1,1,.371.558L15.486,62.913a2.34,2.34,0,0,0-.443,3.512l31.461,35a.335.335,0,0,1-.249.559" transform="translate(-6.482 -6.287)" fill="#f7931e"/>
        <path id="Trazado_734976" data-name="Trazado 734976" d="M58.128,101.98a.334.334,0,0,1-.245-.107L25.84,67.462a3.73,3.73,0,0,1,.621-5.619l70.68-48.427a.335.335,0,0,1,.378.553L26.84,62.4a3.061,3.061,0,0,0-.51,4.61l32.043,34.411a.335.335,0,0,1-.245.563" transform="translate(-11.691 -6.287)" fill="#f15a24"/>
        <path id="Trazado_734977" data-name="Trazado 734977" d="M71.931,97.375a.333.333,0,0,1-.256-.119L40.005,59.715l.234-.218L100.5,3.663a.335.335,0,0,1,.455.492L40.929,59.772,72.187,96.824a.335.335,0,0,1-.256.551" transform="translate(-18.829 -1.682)" fill="#c94b1e"/>
        <path id="Trazado_734978" data-name="Trazado 734978" d="M17.67,103.042c0,4.128-2.646,7.474-5.911,7.474s-5.911-3.346-5.911-7.474S8.5,95.568,11.76,95.568s5.911,3.346,5.911,7.474" transform="translate(-2.753 -44.98)" fill="#004370"/>
        <path id="Trazado_734979" data-name="Trazado 734979" d="M22.773,103.042c0,4.128-2.646,7.474-5.911,7.474s-5.91-3.346-5.91-7.474,2.646-7.474,5.91-7.474,5.911,3.346,5.911,7.474" transform="translate(-5.155 -44.98)" fill="#005c9c"/>
        <path id="Trazado_734980" data-name="Trazado 734980" d="M30.615,103.042c0,4.128-2.646,7.474-5.911,7.474s-5.911-3.346-5.911-7.474,2.647-7.474,5.911-7.474,5.911,3.346,5.911,7.474" transform="translate(-8.846 -44.98)" fill="#004370"/>
        <path id="Trazado_734981" data-name="Trazado 734981" d="M35.717,103.042c0,4.128-2.646,7.474-5.911,7.474s-5.911-3.346-5.911-7.474,2.647-7.474,5.911-7.474,5.911,3.346,5.911,7.474" transform="translate(-11.247 -44.98)" fill="#005c9c"/>
        <path id="Trazado_734982" data-name="Trazado 734982" d="M42.1,103.042c0,4.128-2.646,7.474-5.911,7.474s-5.91-3.346-5.91-7.474,2.646-7.474,5.91-7.474,5.911,3.346,5.911,7.474" transform="translate(-14.253 -44.98)" fill="#004370"/>
        <path id="Trazado_734983" data-name="Trazado 734983" d="M47.206,103.042c0,4.128-2.646,7.474-5.911,7.474s-5.91-3.346-5.91-7.474,2.646-7.474,5.91-7.474,5.911,3.346,5.911,7.474" transform="translate(-16.654 -44.98)" fill="#005c9c"/>
        <path id="Trazado_734984" data-name="Trazado 734984" d="M46.883,106.311c0,2.1-1.345,3.8-3,3.8s-3-1.7-3-3.8,1.345-3.8,3-3.8,3,1.7,3,3.8" transform="translate(-19.24 -48.25)" fill="#004370"/>
        <path id="Trazado_734985" data-name="Trazado 734985" d="M45.656,99.52a4.225,4.225,0,0,0-4.937-1.815c-2.087.62-2.857,2.845-3.351,4.734a.8.8,0,0,0,1.531.422c.309-1.183.632-2.693,1.758-3.388a2.663,2.663,0,0,1,3.628.849c.464.911,1.835.108,1.371-.8" transform="translate(-17.574 -45.898)" fill="#fff"/>
        <path id="Trazado_734986" data-name="Trazado 734986" d="M38.967,112.448c-.026-.02-.225-.215-.145-.113-.012-.015-.06-.1-.076-.122a.94.94,0,0,1-.04-.142,1.879,1.879,0,0,0,.011-.214.8.8,0,0,0-.794-.794.818.818,0,0,0-.794.794,1.964,1.964,0,0,0,.715,1.713.82.82,0,0,0,1.123,0,.8.8,0,0,0,0-1.123" transform="translate(-17.47 -52.273)" fill="#fff"/>
        <path id="Trazado_734987" data-name="Trazado 734987" d="M26.293,101.661a6.573,6.573,0,0,0-.792,3.3c-.037,1.022,1.551,1.021,1.588,0a4.923,4.923,0,0,1,.575-2.5c.539-.872-.834-1.67-1.371-.8" transform="translate(-12.002 -47.672)" fill="#fff"/>
        <path id="Trazado_734988" data-name="Trazado 734988" d="M14.116,100.2a9.619,9.619,0,0,0-1.294,4.119c-.087,1.018,1.5,1.012,1.588,0A7.792,7.792,0,0,1,15.487,101a.794.794,0,0,0-1.371-.8" transform="translate(-6.033 -46.98)" fill="#fff"/>
      </g>
    </g>
  </g>
</svg>
