<svg xmlns="http://www.w3.org/2000/svg" width="85" height="92" viewBox="0 0 85 92">
  <g id="Grupo_1054216" data-name="Grupo 1054216" transform="translate(-377 -2637)">
    <rect id="Rectángulo_338875" data-name="Rectángulo 338875" width="85" height="92" rx="10" transform="translate(377 2637)" fill="#ff6e33"/>
    <g id="telass" transform="translate(388 2649.258)">
      <g id="Grupo_1054220" data-name="Grupo 1054220" transform="translate(1.307 1.307)">
        <path id="Trazado_738797" data-name="Trazado 738797" d="M10,10H42.146V58.611H10Z" transform="translate(-10 -10)" fill="#ffa2c3"/>
        <path id="Trazado_738798" data-name="Trazado 738798" d="M136,82V93.761h32.146V82Z" transform="translate(-119.535 -72.591)" fill="#eefaff"/>
        <path id="Trazado_738799" data-name="Trazado 738799" d="M262,142h31.362v47.043H262Z" transform="translate(-229.07 -124.751)" fill="#ffa2c3"/>
        <path id="Trazado_738800" data-name="Trazado 738800" d="M293.362,382v15.681H262V382c3.062,0,4.779,7.84,7.84,7.84s4.779-7.84,7.84-7.84,4.779,7.84,7.84,7.84S290.3,382,293.362,382Z" transform="translate(-229.07 -333.389)" fill="#ffda8f"/>
        <path id="Trazado_738801" data-name="Trazado 738801" d="M293.362,202v11.761c-3.062,0-4.779,7.84-7.84,7.84s-4.779-7.84-7.84-7.84-4.779,7.84-7.84,7.84-4.779-7.84-7.84-7.84V202c3.062,0,4.779,7.84,7.84,7.84s4.779-7.84,7.84-7.84,4.779,7.84,7.84,7.84S290.3,202,293.362,202Z" transform="translate(-229.07 -176.911)" fill="#ffda8f"/>
        <path id="Trazado_738802" data-name="Trazado 738802" d="M152.465,363.761H136V352h16.465Z" transform="translate(-119.535 -307.31)" fill="#91def5"/>
        <path id="Trazado_738803" data-name="Trazado 738803" d="M152.465,273.761H136V262h16.465Z" transform="translate(-119.535 -229.07)" fill="#eefaff"/>
        <path id="Trazado_738804" data-name="Trazado 738804" d="M152.465,183.761H136V172h16.465Z" transform="translate(-119.535 -150.831)" fill="#91def5"/>
      </g>
      <g id="Grupo_1054221" data-name="Grupo 1054221">
        <circle id="Elipse_8054" data-name="Elipse 8054" cx="1.347" cy="1.347" r="1.347" transform="translate(48.471 64.548)"/>
        <path id="Trazado_738805" data-name="Trazado 738805" d="M65.6,17.249H51.224V10.715a1.307,1.307,0,0,0-1.307-1.307H34.759v-8.1A1.307,1.307,0,0,0,33.452,0H1.307A1.307,1.307,0,0,0,0,1.307V49.917a1.307,1.307,0,0,0,1.307,1.307H16.465v6.534a1.307,1.307,0,0,0,1.307,1.307H32.93V65.6A1.307,1.307,0,0,0,34.237,66.9h9.8a1.307,1.307,0,1,0,0-2.613H35.543V52.251a24.739,24.739,0,0,1,1.5,2.267c1.363,2.236,2.771,4.547,5.036,4.547s3.674-2.311,5.036-4.547c.847-1.39,2.007-3.294,2.8-3.294s1.957,1.9,2.8,3.294c1.363,2.236,2.771,4.547,5.036,4.547s3.674-2.311,5.036-4.547a24.737,24.737,0,0,1,1.5-2.267V64.292H55.8a1.307,1.307,0,1,0,0,2.613h9.8A1.307,1.307,0,0,0,66.9,65.6V18.556A1.307,1.307,0,0,0,65.6,17.249ZM32.93,32.93H19.078V23.783H32.93ZM19.078,35.543H32.93V44.69H19.078ZM35.543,28.73A24.738,24.738,0,0,1,37.041,31c1.363,2.236,2.771,4.547,5.036,4.547S45.75,33.232,47.113,31c.847-1.39,2.007-3.294,2.8-3.294s1.957,1.9,2.8,3.294c1.363,2.236,2.771,4.547,5.036,4.547S61.431,33.232,62.794,31a24.736,24.736,0,0,1,1.5-2.267v8.4c-1.541.679-2.65,2.5-3.729,4.268-.847,1.39-2.007,3.294-2.8,3.294s-1.957-1.9-2.8-3.294c-1.363-2.236-2.771-4.547-5.036-4.547s-3.674,2.311-5.036,4.547c-.847,1.39-2.007,3.294-2.8,3.294s-1.957-1.9-2.8-3.294c-1.08-1.771-2.189-3.589-3.729-4.268Zm28.748-3.361c-1.541.679-2.65,2.5-3.729,4.268-.847,1.39-2.007,3.294-2.8,3.294s-1.957-1.9-2.8-3.293c-1.363-2.236-2.771-4.547-5.036-4.547s-3.674,2.311-5.036,4.547c-.847,1.39-2.007,3.293-2.8,3.293s-1.957-1.9-2.8-3.293c-1.08-1.771-2.189-3.589-3.729-4.268V19.862H64.292ZM48.611,17.249H34.237a1.307,1.307,0,0,0-1.307,1.307v2.613H19.078V12.022H48.611Zm-46,31.362v-46H32.146v6.8H17.772a1.307,1.307,0,0,0-1.307,1.307v37.9Zm16.465,7.84V47.3H32.93v9.147Zm41.484-3.294c-.847,1.39-2.007,3.294-2.8,3.294s-1.957-1.9-2.8-3.294c-1.363-2.236-2.771-4.547-5.036-4.547s-3.674,2.311-5.036,4.547c-.847,1.39-2.007,3.294-2.8,3.294s-1.957-1.9-2.8-3.294c-1.08-1.771-2.189-3.589-3.729-4.268v-8.4a24.738,24.738,0,0,1,1.5,2.267C38.4,44.993,39.812,47.3,42.077,47.3s3.674-2.311,5.036-4.547c.847-1.39,2.007-3.294,2.8-3.294s1.957,1.9,2.8,3.294c1.363,2.236,2.771,4.547,5.036,4.547s3.674-2.311,5.036-4.547a24.738,24.738,0,0,1,1.5-2.267v8.4C62.751,49.568,61.642,51.386,60.562,53.158Z"/>
      </g>
    </g>
  </g>
</svg>
