<svg id="Grupo_1054680" data-name="Grupo 1054680" xmlns="http://www.w3.org/2000/svg" xmlns:xlink="http://www.w3.org/1999/xlink" width="340.276" height="227.254" viewBox="0 0 340.276 227.254">
  <defs>
    <clipPath id="clip-path">
      <rect id="Rectángulo_362053" data-name="Rectángulo 362053" width="340.276" height="227.254" fill="none"/>
    </clipPath>
    <clipPath id="clip-path-3">
      <rect id="Rectángulo_361976" data-name="Rectángulo 361976" width="14.281" height="111.885" fill="none"/>
    </clipPath>
    <clipPath id="clip-path-8">
      <rect id="Rectángulo_362019" data-name="Rectángulo 362019" width="32.984" height="122.024" fill="none"/>
    </clipPath>
    <clipPath id="clip-path-9">
      <path id="Trazado_773373" data-name="Trazado 773373" d="M200.971,197.729v26.692H322.278c8.148,0,14.816-6.005,14.816-13.346s-6.667-13.346-14.816-13.346Z" transform="translate(-200.971 -197.729)" fill="none"/>
    </clipPath>
    <clipPath id="clip-path-11">
      <rect id="Rectángulo_362032" data-name="Rectángulo 362032" width="150.22" height="17.199" fill="none"/>
    </clipPath>
    <clipPath id="clip-path-12">
      <rect id="Rectángulo_362033" data-name="Rectángulo 362033" width="4.037" height="11.073" fill="none"/>
    </clipPath>
    <clipPath id="clip-path-13">
      <path id="Trazado_773380" data-name="Trazado 773380" d="M241.423,241.061c-8.149,0-14.816,6.006-14.816,13.346s6.667,13.346,14.816,13.346H362.73V241.061Z" transform="translate(-226.607 -241.061)" fill="none"/>
    </clipPath>
    <clipPath id="clip-path-15">
      <rect id="Rectángulo_362040" data-name="Rectángulo 362040" width="150.221" height="17.199" fill="none"/>
    </clipPath>
    <clipPath id="clip-path-17">
      <rect id="Rectángulo_362042" data-name="Rectángulo 362042" width="45.635" height="21.154" fill="none"/>
    </clipPath>
    <clipPath id="clip-path-18">
      <rect id="Rectángulo_362043" data-name="Rectángulo 362043" width="45.635" height="34.851" fill="none"/>
    </clipPath>
    <clipPath id="clip-path-19">
      <rect id="Rectángulo_362044" data-name="Rectángulo 362044" width="23.038" height="44.037" fill="none"/>
    </clipPath>
    <clipPath id="clip-path-20">
      <rect id="Rectángulo_362045" data-name="Rectángulo 362045" width="27.731" height="38.314" fill="none"/>
    </clipPath>
    <clipPath id="clip-path-21">
      <rect id="Rectángulo_362046" data-name="Rectángulo 362046" width="30.508" height="128.972" fill="none"/>
    </clipPath>
    <clipPath id="clip-path-22">
      <rect id="Rectángulo_362048" data-name="Rectángulo 362048" width="39.41" height="34.652" fill="none"/>
    </clipPath>
    <clipPath id="clip-path-23">
      <rect id="Rectángulo_362051" data-name="Rectángulo 362051" width="29.843" height="36.983" fill="none"/>
    </clipPath>
  </defs>
  <g id="Grupo_1054619" data-name="Grupo 1054619" clip-path="url(#clip-path)">
    <g id="Grupo_1054577" data-name="Grupo 1054577">
      <g id="Grupo_1054576" data-name="Grupo 1054576" clip-path="url(#clip-path)">
        <path id="Trazado_773353" data-name="Trazado 773353" d="M65.744,231.831S-12.277,135.6,13.675,77.364,118.429,61.359,185.841,88.993s153.426-2.731,149.367,52.372-42.2,90.345-42.2,90.345Z" transform="translate(-1.729 -9.929)" fill="#fff"/>
        <rect id="Rectángulo_361966" data-name="Rectángulo 361966" width="340.276" height="5.253" transform="translate(0 222)" fill="#efe3d8"/>
        <rect id="Rectángulo_361967" data-name="Rectángulo 361967" width="17.617" height="116.596" transform="translate(75.94 79.949)" fill="#dfe5f2"/>
        <rect id="Rectángulo_361968" data-name="Rectángulo 361968" width="1.152" height="116.596" transform="translate(78.124 79.948)" fill="#c7d1e2"/>
        <rect id="Rectángulo_361969" data-name="Rectángulo 361969" width="1.152" height="116.596" transform="translate(82.156 79.948)" fill="#c7d1e2"/>
        <rect id="Rectángulo_361970" data-name="Rectángulo 361970" width="1.152" height="116.596" transform="translate(86.189 79.948)" fill="#c7d1e2"/>
        <rect id="Rectángulo_361971" data-name="Rectángulo 361971" width="1.152" height="116.596" transform="translate(90.221 79.948)" fill="#c7d1e2"/>
        <rect id="Rectángulo_361972" data-name="Rectángulo 361972" width="24.481" height="11.189" transform="translate(72.507 73.47)" fill="#c7d1e2"/>
        <rect id="Rectángulo_361973" data-name="Rectángulo 361973" width="24.481" height="11.189" transform="translate(72.507 196.544)" fill="#c7d1e2"/>
        <rect id="Rectángulo_361974" data-name="Rectángulo 361974" width="24.481" height="2.68" transform="translate(72.507 73.47)" fill="#b6c2d3"/>
        <rect id="Rectángulo_361975" data-name="Rectángulo 361975" width="24.481" height="2.68" transform="translate(72.507 205.053)" fill="#b6c2d3"/>
        <g id="Grupo_1054560" data-name="Grupo 1054560" transform="translate(79.276 84.659)" opacity="0.1">
          <g id="Grupo_1054559" data-name="Grupo 1054559">
            <g id="Grupo_1054558" data-name="Grupo 1054558" clip-path="url(#clip-path-3)">
              <path id="Trazado_773354" data-name="Trazado 773354" d="M114.149,106.649V218.534H99.868s8.064-59.562,8.064-111.885Z" transform="translate(-99.868 -106.649)" fill="#061726"/>
            </g>
          </g>
        </g>
        <rect id="Rectángulo_361977" data-name="Rectángulo 361977" width="17.617" height="116.596" transform="translate(107.47 79.949)" fill="#dfe5f2"/>
        <rect id="Rectángulo_361978" data-name="Rectángulo 361978" width="1.152" height="116.596" transform="translate(109.654 79.948)" fill="#c7d1e2"/>
        <rect id="Rectángulo_361979" data-name="Rectángulo 361979" width="1.152" height="116.596" transform="translate(113.686 79.948)" fill="#c7d1e2"/>
        <rect id="Rectángulo_361980" data-name="Rectángulo 361980" width="1.152" height="116.596" transform="translate(117.718 79.948)" fill="#c7d1e2"/>
        <rect id="Rectángulo_361981" data-name="Rectángulo 361981" width="1.152" height="116.596" transform="translate(121.751 79.948)" fill="#c7d1e2"/>
        <rect id="Rectángulo_361982" data-name="Rectángulo 361982" width="24.481" height="11.189" transform="translate(104.038 73.47)" fill="#c7d1e2"/>
        <rect id="Rectángulo_361983" data-name="Rectángulo 361983" width="24.481" height="11.189" transform="translate(104.038 196.544)" fill="#c7d1e2"/>
        <rect id="Rectángulo_361984" data-name="Rectángulo 361984" width="24.481" height="2.68" transform="translate(104.038 73.47)" fill="#b6c2d3"/>
        <rect id="Rectángulo_361985" data-name="Rectángulo 361985" width="24.481" height="2.68" transform="translate(104.038 205.053)" fill="#b6c2d3"/>
        <g id="Grupo_1054563" data-name="Grupo 1054563" transform="translate(110.806 84.659)" opacity="0.1">
          <g id="Grupo_1054562" data-name="Grupo 1054562">
            <g id="Grupo_1054561" data-name="Grupo 1054561" clip-path="url(#clip-path-3)">
              <path id="Trazado_773355" data-name="Trazado 773355" d="M153.869,106.649V218.534H139.588s8.064-59.562,8.064-111.885Z" transform="translate(-139.587 -106.649)" fill="#061726"/>
            </g>
          </g>
        </g>
        <rect id="Rectángulo_361987" data-name="Rectángulo 361987" width="17.617" height="116.596" transform="translate(138.999 79.949)" fill="#dfe5f2"/>
        <rect id="Rectángulo_361988" data-name="Rectángulo 361988" width="1.152" height="116.596" transform="translate(141.184 79.948)" fill="#c7d1e2"/>
        <rect id="Rectángulo_361989" data-name="Rectángulo 361989" width="1.152" height="116.596" transform="translate(145.217 79.948)" fill="#c7d1e2"/>
        <rect id="Rectángulo_361990" data-name="Rectángulo 361990" width="1.152" height="116.596" transform="translate(149.248 79.948)" fill="#c7d1e2"/>
        <rect id="Rectángulo_361991" data-name="Rectángulo 361991" width="1.152" height="116.596" transform="translate(153.281 79.948)" fill="#c7d1e2"/>
        <rect id="Rectángulo_361992" data-name="Rectángulo 361992" width="24.481" height="11.189" transform="translate(135.568 73.47)" fill="#c7d1e2"/>
        <rect id="Rectángulo_361993" data-name="Rectángulo 361993" width="24.481" height="11.189" transform="translate(135.568 196.544)" fill="#c7d1e2"/>
        <rect id="Rectángulo_361994" data-name="Rectángulo 361994" width="24.481" height="2.68" transform="translate(135.568 73.47)" fill="#b6c2d3"/>
        <rect id="Rectángulo_361995" data-name="Rectángulo 361995" width="24.481" height="2.68" transform="translate(135.568 205.053)" fill="#b6c2d3"/>
        <g id="Grupo_1054566" data-name="Grupo 1054566" transform="translate(142.336 84.659)" opacity="0.1">
          <g id="Grupo_1054565" data-name="Grupo 1054565">
            <g id="Grupo_1054564" data-name="Grupo 1054564" clip-path="url(#clip-path-3)">
              <path id="Trazado_773356" data-name="Trazado 773356" d="M193.588,106.649V218.534H179.307s8.064-59.562,8.064-111.885Z" transform="translate(-179.307 -106.649)" fill="#061726"/>
            </g>
          </g>
        </g>
        <rect id="Rectángulo_361997" data-name="Rectángulo 361997" width="17.617" height="116.596" transform="translate(170.53 79.949)" fill="#dfe5f2"/>
        <rect id="Rectángulo_361998" data-name="Rectángulo 361998" width="1.152" height="116.596" transform="translate(172.714 79.948)" fill="#c7d1e2"/>
        <rect id="Rectángulo_361999" data-name="Rectángulo 361999" width="1.152" height="116.596" transform="translate(176.746 79.948)" fill="#c7d1e2"/>
        <rect id="Rectángulo_362000" data-name="Rectángulo 362000" width="1.152" height="116.596" transform="translate(180.778 79.948)" fill="#c7d1e2"/>
        <rect id="Rectángulo_362001" data-name="Rectángulo 362001" width="1.152" height="116.596" transform="translate(184.81 79.948)" fill="#c7d1e2"/>
        <rect id="Rectángulo_362002" data-name="Rectángulo 362002" width="24.481" height="11.189" transform="translate(167.098 73.47)" fill="#c7d1e2"/>
        <rect id="Rectángulo_362003" data-name="Rectángulo 362003" width="24.481" height="11.189" transform="translate(167.098 196.544)" fill="#c7d1e2"/>
        <rect id="Rectángulo_362004" data-name="Rectángulo 362004" width="24.481" height="2.68" transform="translate(167.098 73.47)" fill="#b6c2d3"/>
        <rect id="Rectángulo_362005" data-name="Rectángulo 362005" width="24.481" height="2.68" transform="translate(167.098 205.053)" fill="#b6c2d3"/>
        <g id="Grupo_1054569" data-name="Grupo 1054569" transform="translate(173.866 84.659)" opacity="0.1">
          <g id="Grupo_1054568" data-name="Grupo 1054568">
            <g id="Grupo_1054567" data-name="Grupo 1054567" clip-path="url(#clip-path-3)">
              <path id="Trazado_773357" data-name="Trazado 773357" d="M233.308,106.649V218.534H219.027s8.064-59.562,8.064-111.885Z" transform="translate(-219.027 -106.649)" fill="#061726"/>
            </g>
          </g>
        </g>
        <rect id="Rectángulo_362007" data-name="Rectángulo 362007" width="17.617" height="116.596" transform="translate(202.06 79.949)" fill="#dfe5f2"/>
        <rect id="Rectángulo_362008" data-name="Rectángulo 362008" width="1.152" height="116.596" transform="translate(204.244 79.948)" fill="#c7d1e2"/>
        <rect id="Rectángulo_362009" data-name="Rectángulo 362009" width="1.152" height="116.596" transform="translate(208.276 79.948)" fill="#c7d1e2"/>
        <rect id="Rectángulo_362010" data-name="Rectángulo 362010" width="1.152" height="116.596" transform="translate(212.309 79.948)" fill="#c7d1e2"/>
        <rect id="Rectángulo_362011" data-name="Rectángulo 362011" width="1.152" height="116.596" transform="translate(216.34 79.948)" fill="#c7d1e2"/>
        <rect id="Rectángulo_362012" data-name="Rectángulo 362012" width="24.481" height="11.189" transform="translate(198.627 73.47)" fill="#c7d1e2"/>
        <rect id="Rectángulo_362013" data-name="Rectángulo 362013" width="24.481" height="11.189" transform="translate(198.627 196.544)" fill="#c7d1e2"/>
        <rect id="Rectángulo_362014" data-name="Rectángulo 362014" width="24.481" height="2.68" transform="translate(198.627 73.47)" fill="#b6c2d3"/>
        <rect id="Rectángulo_362015" data-name="Rectángulo 362015" width="24.481" height="2.68" transform="translate(198.627 205.053)" fill="#b6c2d3"/>
        <g id="Grupo_1054572" data-name="Grupo 1054572" transform="translate(205.396 84.659)" opacity="0.1">
          <g id="Grupo_1054571" data-name="Grupo 1054571">
            <g id="Grupo_1054570" data-name="Grupo 1054570" clip-path="url(#clip-path-3)">
              <path id="Trazado_773358" data-name="Trazado 773358" d="M273.028,106.649V218.534H258.747s8.064-59.562,8.064-111.885Z" transform="translate(-258.747 -106.649)" fill="#061726"/>
            </g>
          </g>
        </g>
        <path id="Trazado_773359" data-name="Trazado 773359" d="M82.588,69.922C79.917,72.19,80.552,74.046,84,74.046H244.99c3.449,0,4.085-1.856,1.414-4.124L169.352,4.494a7.783,7.783,0,0,0-9.712,0Z" transform="translate(-16.688 -0.576)" fill="#dfe5f2"/>
        <path id="Trazado_773360" data-name="Trazado 773360" d="M110.524,64.946c-1.951,1.657-1.487,3.012,1.031,3.012H229.14c2.519,0,2.983-1.355,1.033-3.012L173.9,17.158a5.684,5.684,0,0,0-7.094,0Z" transform="translate(-22.54 -3.282)" fill="#c7d1e2"/>
        <path id="Trazado_773361" data-name="Trazado 773361" d="M230.769,65.528H117.727c-2.518,0-2.983-1.356-1.032-3.012l54.746-46.488A5.629,5.629,0,0,0,166.8,17.16L110.524,64.948c-1.951,1.657-1.487,3.012,1.032,3.012H229.14c2.217,0,2.84-1.05,1.628-2.431" transform="translate(-22.54 -3.284)" fill="#b6c2d3"/>
        <path id="Trazado_773362" data-name="Trazado 773362" d="M193.027,46.979a9.222,9.222,0,1,1-9.222-9.222,9.222,9.222,0,0,1,9.222,9.222" transform="translate(-35.997 -7.785)" fill="#dfe5f2"/>
        <rect id="Rectángulo_362017" data-name="Rectángulo 362017" width="167.121" height="11.336" transform="translate(64.248 207.732)" fill="#dfe5f2"/>
        <rect id="Rectángulo_362018" data-name="Rectángulo 362018" width="177.135" height="5.668" transform="translate(59.241 216.234)" fill="#c7d1e2"/>
        <path id="Trazado_773363" data-name="Trazado 773363" d="M366.957,37.832s8.8.906,3.974,14.078c0,0-9-11.172-19.758-3.39,0,0,6.542-11.813,15.784-10.688" transform="translate(-72.408 -7.785)" fill="#b0bad9"/>
        <path id="Trazado_773364" data-name="Trazado 773364" d="M344.979,37.85H282.631s-26.344-1.081-26.344,24.209.806,37.317.806,37.317,6.22,57.594-12.514,61.527h62.347s26.343,1.081,26.343-24.209-2.417-37.318-2.417-37.318-4.607-57.594,14.126-61.526" transform="translate(-50.43 -7.803)" fill="#f2e4ce"/>
        <g id="Grupo_1054575" data-name="Grupo 1054575" transform="translate(261.565 30.047)" opacity="0.05">
          <g id="Grupo_1054574" data-name="Grupo 1054574">
            <g id="Grupo_1054573" data-name="Grupo 1054573" clip-path="url(#clip-path-8)">
              <path id="Trazado_773365" data-name="Trazado 773365" d="M362.489,37.852H338.426c-19.906,7.912-.343,74.328.068,98.607.227,13.361-3.473,19.532-5.582,23.417,7.7-1.938,17.869-7.467,17.869-23.18,0-25.29-2.417-37.317-2.417-37.317s-4.607-57.594,14.126-61.527" transform="translate(-329.505 -37.852)" fill="#061726"/>
            </g>
          </g>
        </g>
        <path id="Trazado_773366" data-name="Trazado 773366" d="M293.2,154.1l-.572-3.823-3.825-.554,10.083-10.13,4.4,4.376Z" transform="translate(-59.548 -28.783)" fill="#d9ae5f"/>
        <path id="Trazado_773367" data-name="Trazado 773367" d="M311.353,154.065l.554-3.825,3.823-.572L305.6,139.584l-4.377,4.4Z" transform="translate(-62.109 -28.781)" fill="#d9ae5f"/>
        <path id="Trazado_773368" data-name="Trazado 773368" d="M310.474,140.678c0,.619-1.024,1.116-1.154,1.7-.135.6.574,1.488.315,2.027s-1.4.553-1.778,1.024-.122,1.584-.595,1.963-1.5-.111-2.046.155-.791,1.373-1.388,1.511c-.579.133-1.291-.753-1.909-.752s-1.327.891-1.907.76c-.6-.135-.855-1.245-1.395-1.5s-1.575.229-2.046-.145-.225-1.488-.6-1.961-1.517-.468-1.783-1.015.444-1.431.306-2.029c-.133-.579-1.161-1.071-1.163-1.69s1.025-1.116,1.155-1.7c.135-.6-.575-1.488-.316-2.027s1.4-.552,1.778-1.024.123-1.584.6-1.963,1.5.111,2.046-.155.791-1.373,1.388-1.511c.579-.133,1.291.753,1.91.752s1.327-.891,1.906-.76c.6.135.856,1.245,1.4,1.5s1.575-.229,2.046.145.225,1.488.6,1.961,1.517.468,1.783,1.015-.444,1.431-.306,2.029c.133.579,1.161,1.071,1.162,1.69" transform="translate(-60.481 -27.283)" fill="#035aa6"/>
        <path id="Trazado_773369" data-name="Trazado 773369" d="M308.886,141.228c0,.464-.768.837-.865,1.272s.43,1.115.237,1.519-1.053.414-1.334.768-.092,1.188-.446,1.473-1.123-.083-1.534.116-.593,1.03-1.041,1.132-.968-.564-1.431-.564-1,.668-1.43.571-.641-.934-1.046-1.128-1.18.172-1.534-.109-.169-1.116-.453-1.47-1.138-.351-1.337-.761.333-1.073.23-1.521-.871-.8-.872-1.267.768-.837.865-1.272-.43-1.115-.237-1.52,1.052-.414,1.334-.768.092-1.188.446-1.472,1.122.083,1.534-.116.592-1.03,1.041-1.133c.433-.1.968.565,1.431.564s.995-.668,1.43-.57.641.934,1.046,1.128,1.18-.173,1.534.109.169,1.115.453,1.469,1.137.352,1.336.762-.332,1.072-.229,1.521c.1.433.871.8.872,1.267" transform="translate(-61.038 -27.828)" fill="#8294bf"/>
        <rect id="Rectángulo_362020" data-name="Rectángulo 362020" width="57.116" height="0.962" transform="translate(215.104 47.234) rotate(-0.133)" fill="#d9ae5f"/>
        <rect id="Rectángulo_362021" data-name="Rectángulo 362021" width="57.116" height="0.962" transform="translate(215.126 56.854) rotate(-0.133)" fill="#d9ae5f"/>
        <rect id="Rectángulo_362022" data-name="Rectángulo 362022" width="57.116" height="0.962" transform="translate(215.148 66.473) rotate(-0.133)" fill="#d9ae5f"/>
        <rect id="Rectángulo_362023" data-name="Rectángulo 362023" width="57.116" height="0.962" transform="translate(215.171 76.093) rotate(-0.133)" fill="#d9ae5f"/>
        <rect id="Rectángulo_362024" data-name="Rectángulo 362024" width="57.116" height="0.962" transform="translate(215.193 85.712) rotate(-0.133)" fill="#d9ae5f"/>
        <rect id="Rectángulo_362025" data-name="Rectángulo 362025" width="57.116" height="0.962" transform="translate(215.215 95.332) rotate(-0.133)" fill="#d9ae5f"/>
        <path id="Trazado_773370" data-name="Trazado 773370" d="M303.611,175.046H236.537c-4.83,13.172,3.974,14.078,3.974,14.078a10.318,10.318,0,0,0,2.474,0h64.6c15.855-1.412,19.824-9.995,19.824-9.995-19.824,9.995-23.8-4.083-23.8-4.083" transform="translate(-48.473 -36.093)" fill="#b0bad9"/>
        <path id="Trazado_773371" data-name="Trazado 773371" d="M200.971,227.273H332.1c10.5,0,19.094-7.74,19.094-17.2s-8.592-17.2-19.094-17.2H200.971Z" transform="translate(-41.438 -39.769)" fill="#d9ae5f"/>
        <path id="Trazado_773372" data-name="Trazado 773372" d="M200.971,224.421H322.278c8.149,0,14.816-6.005,14.816-13.346s-6.666-13.346-14.816-13.346H200.971Z" transform="translate(-41.438 -40.77)" fill="#f2e4ce"/>
      </g>
    </g>
    <g id="Grupo_1054579" data-name="Grupo 1054579" transform="translate(159.533 156.959)">
      <g id="Grupo_1054578" data-name="Grupo 1054578" clip-path="url(#clip-path-9)">
        <rect id="Rectángulo_362027" data-name="Rectángulo 362027" width="166.933" height="1.061" transform="translate(-21.989 22.512)" fill="#d9ae5f"/>
        <rect id="Rectángulo_362028" data-name="Rectángulo 362028" width="166.933" height="1.061" transform="translate(-21.989 16.149)" fill="#d9ae5f"/>
        <rect id="Rectángulo_362029" data-name="Rectángulo 362029" width="166.933" height="1.061" transform="translate(-21.989 9.784)" fill="#d9ae5f"/>
        <rect id="Rectángulo_362030" data-name="Rectángulo 362030" width="166.933" height="1.061" transform="translate(-21.989 3.42)" fill="#d9ae5f"/>
        <rect id="Rectángulo_362031" data-name="Rectángulo 362031" width="166.933" height="1.061" transform="translate(-21.989 -2.945)" fill="#d9ae5f"/>
      </g>
    </g>
    <g id="Grupo_1054587" data-name="Grupo 1054587">
      <g id="Grupo_1054586" data-name="Grupo 1054586" clip-path="url(#clip-path)">
        <path id="Trazado_773374" data-name="Trazado 773374" d="M200.971,198.907H322.278c7.292,0,13.225,5.274,13.225,11.755s-5.933,11.754-13.225,11.754H200.971V225.6H322.278c9.047,0,16.406-6.7,16.406-14.936s-7.359-14.937-16.406-14.937H200.971Z" transform="translate(-41.438 -40.356)" fill="#b78029"/>
        <g id="Grupo_1054582" data-name="Grupo 1054582" transform="translate(159.533 153.107)" opacity="0.1">
          <g id="Grupo_1054581" data-name="Grupo 1054581">
            <g id="Grupo_1054580" data-name="Grupo 1054580" clip-path="url(#clip-path-11)">
              <path id="Trazado_773375" data-name="Trazado 773375" d="M351.192,210.074c0-9.459-8.592-17.2-19.094-17.2H200.971v17.2Z" transform="translate(-200.971 -192.875)" fill="#061726"/>
            </g>
          </g>
        </g>
        <path id="Trazado_773376" data-name="Trazado 773376" d="M340.379,230.481l-4.037-3.538-4.036,3.538V219.408h8.073Z" transform="translate(-68.518 -45.24)" fill="#aa5f48"/>
        <g id="Grupo_1054585" data-name="Grupo 1054585" transform="translate(263.788 174.168)" opacity="0.1">
          <g id="Grupo_1054584" data-name="Grupo 1054584">
            <g id="Grupo_1054583" data-name="Grupo 1054583" clip-path="url(#clip-path-12)">
              <path id="Trazado_773377" data-name="Trazado 773377" d="M336.343,219.408h-4.037v11.074l4.037-3.539Z" transform="translate(-332.306 -219.408)" fill="#061726"/>
            </g>
          </g>
        </g>
        <path id="Trazado_773378" data-name="Trazado 773378" d="M359.069,270.605H227.942c-10.5,0-19.094-7.74-19.094-17.2s8.592-17.2,19.094-17.2H359.069Z" transform="translate(-43.062 -48.703)" fill="#aa5f48"/>
        <path id="Trazado_773379" data-name="Trazado 773379" d="M362.731,267.753H241.424c-8.148,0-14.816-6.006-14.816-13.346s6.667-13.346,14.816-13.346H362.731Z" transform="translate(-46.724 -49.704)" fill="#f2e4ce"/>
      </g>
    </g>
    <g id="Grupo_1054589" data-name="Grupo 1054589" transform="translate(179.883 191.357)">
      <g id="Grupo_1054588" data-name="Grupo 1054588" clip-path="url(#clip-path-13)">
        <rect id="Rectángulo_362035" data-name="Rectángulo 362035" width="166.933" height="1.061" transform="translate(-8.821 22.512)" fill="#d9ae5f"/>
        <rect id="Rectángulo_362036" data-name="Rectángulo 362036" width="166.933" height="1.061" transform="translate(-8.821 16.149)" fill="#d9ae5f"/>
        <rect id="Rectángulo_362037" data-name="Rectángulo 362037" width="166.933" height="1.061" transform="translate(-8.821 9.784)" fill="#d9ae5f"/>
        <rect id="Rectángulo_362038" data-name="Rectángulo 362038" width="166.933" height="1.061" transform="translate(-8.821 3.42)" fill="#d9ae5f"/>
        <rect id="Rectángulo_362039" data-name="Rectángulo 362039" width="166.933" height="1.061" transform="translate(-8.821 -2.944)" fill="#d9ae5f"/>
      </g>
    </g>
    <g id="Grupo_1054618" data-name="Grupo 1054618">
      <g id="Grupo_1054617" data-name="Grupo 1054617" clip-path="url(#clip-path)">
        <path id="Trazado_773381" data-name="Trazado 773381" d="M362.317,242.24H241.01c-7.292,0-13.225,5.274-13.225,11.756s5.933,11.754,13.225,11.754H362.317v3.182H241.01c-9.047,0-16.406-6.7-16.406-14.936s7.359-14.937,16.406-14.937H362.317Z" transform="translate(-46.311 -49.291)" fill="#bf7c63"/>
        <g id="Grupo_1054592" data-name="Grupo 1054592" transform="translate(165.786 187.504)" opacity="0.1">
          <g id="Grupo_1054591" data-name="Grupo 1054591">
            <g id="Grupo_1054590" data-name="Grupo 1054590" clip-path="url(#clip-path-15)">
              <path id="Trazado_773382" data-name="Trazado 773382" d="M208.848,253.407c0-9.459,8.592-17.2,19.094-17.2H359.069v17.2Z" transform="translate(-208.848 -236.208)" fill="#061726"/>
            </g>
          </g>
        </g>
        <path id="Trazado_773383" data-name="Trazado 773383" d="M255.924,273.814l-4.037-3.538-4.037,3.538V262.74h8.073Z" transform="translate(-51.104 -54.174)" fill="#d9ae5f"/>
        <g id="Grupo_1054595" data-name="Grupo 1054595" transform="translate(196.747 208.566)" opacity="0.1">
          <g id="Grupo_1054594" data-name="Grupo 1054594">
            <g id="Grupo_1054593" data-name="Grupo 1054593" clip-path="url(#clip-path-12)">
              <path id="Trazado_773384" data-name="Trazado 773384" d="M251.888,262.74h-4.037v11.074l4.037-3.539Z" transform="translate(-247.851 -262.74)" fill="#061726"/>
            </g>
          </g>
        </g>
        <path id="Trazado_773385" data-name="Trazado 773385" d="M65.1,178.753c0-11.7,13.792-16.241,22.411-26.75s2.8-37.736,2.8-37.736H32.561s-5.819,27.228,2.8,37.736,22.411,15.047,22.411,26.75S43.982,194.994,35.363,205.5s-2.8,37.736-2.8,37.736H90.313s5.818-27.228-2.8-37.736S65.1,190.456,65.1,178.753" transform="translate(-6.318 -23.561)" fill="#f2e4ce"/>
        <path id="Trazado_773386" data-name="Trazado 773386" d="M88.779,129.022s-13.951,3.99-26.131.873-26.12,3.117-26.12,3.117-.683,17.078,8.016,24.454c9.5,8.056,17.207,12.487,18.1,21.862.9-9.376,9.062-14.1,18.1-21.862,8.655-7.428,8.017-24.454,8.017-24.454Z" transform="translate(-7.529 -26.603)" fill="#d9ae5f"/>
        <path id="Trazado_773387" data-name="Trazado 773387" d="M88.774,258.7l-.014-3.99s.543-13.717-5.608-21.873c-2.954,2.482-6.654,4.448-10.038,2.93-7.125-3.2-11.356-2.816-20.264,2.013-4.731,2.566-9.492.9-12.916-1.222-3.79,8.039-3.415,18.153-3.415,18.153l-.011,3.99s-1.931,3.5,26.133,3.5,26.133-3.5,26.133-3.5" transform="translate(-7.522 -48.008)" fill="#d9ae5f"/>
        <g id="Grupo_1054598" data-name="Grupo 1054598" transform="translate(33.154 190.252)" opacity="0.48">
          <g id="Grupo_1054597" data-name="Grupo 1054597">
            <g id="Grupo_1054596" data-name="Grupo 1054596" clip-path="url(#clip-path-17)">
              <path id="Trazado_773388" data-name="Trazado 773388" d="M42.893,245.323a.564.564,0,1,1-.564-.564.564.564,0,0,1,.564.564" transform="translate(-41.766 -240.719)" fill="#c19348"/>
              <path id="Trazado_773389" data-name="Trazado 773389" d="M55.2,246.748a1.279,1.279,0,1,1-1.279-1.279,1.279,1.279,0,0,1,1.279,1.279" transform="translate(-44.008 -240.865)" fill="#c19348"/>
              <path id="Trazado_773390" data-name="Trazado 773390" d="M46.188,256.76a1.856,1.856,0,1,1-1.856-1.856,1.856,1.856,0,0,1,1.856,1.856" transform="translate(-41.913 -242.811)" fill="#c19348"/>
              <path id="Trazado_773391" data-name="Trazado 773391" d="M67.889,240.233a.564.564,0,1,1-.564-.564.564.564,0,0,1,.564.564" transform="translate(-46.92 -239.669)" fill="#c19348"/>
              <path id="Trazado_773392" data-name="Trazado 773392" d="M80.192,241.658a1.279,1.279,0,1,1-1.279-1.279,1.279,1.279,0,0,1,1.279,1.279" transform="translate(-49.162 -239.816)" fill="#c19348"/>
              <path id="Trazado_773393" data-name="Trazado 773393" d="M71.184,251.67a1.856,1.856,0,1,1-1.856-1.856,1.856,1.856,0,0,1,1.856,1.856" transform="translate(-47.066 -241.761)" fill="#c19348"/>
              <path id="Trazado_773394" data-name="Trazado 773394" d="M59.233,253.775a.564.564,0,1,1-.057-.795.563.563,0,0,1,.057.795" transform="translate(-45.164 -242.385)" fill="#c19348"/>
              <path id="Trazado_773395" data-name="Trazado 773395" d="M67.43,262.985a1.279,1.279,0,1,1-.129-1.8,1.279,1.279,0,0,1,.129,1.8" transform="translate(-46.595 -244.04)" fill="#c19348"/>
              <path id="Trazado_773396" data-name="Trazado 773396" d="M53.931,264.713a1.856,1.856,0,1,1-.187-2.618,1.856,1.856,0,0,1,.187,2.618" transform="translate(-43.602 -244.2)" fill="#c19348"/>
              <path id="Trazado_773397" data-name="Trazado 773397" d="M97.907,251.572a.563.563,0,1,1,.767.216.563.563,0,0,1-.767-.216" transform="translate(-53.327 -241.951)" fill="#c19348"/>
              <path id="Trazado_773398" data-name="Trazado 773398" d="M86.04,256.086a1.279,1.279,0,1,1,1.741.491,1.278,1.278,0,0,1-1.741-.491" transform="translate(-50.861 -242.662)" fill="#c19348"/>
              <path id="Trazado_773399" data-name="Trazado 773399" d="M88.647,242.741a1.856,1.856,0,1,1,2.527.711,1.857,1.857,0,0,1-2.527-.711" transform="translate(-51.384 -239.733)" fill="#c19348"/>
              <path id="Trazado_773400" data-name="Trazado 773400" d="M77.706,261.771a.563.563,0,1,1,.767.216.563.563,0,0,1-.767-.216" transform="translate(-49.162 -244.053)" fill="#c19348"/>
              <path id="Trazado_773401" data-name="Trazado 773401" d="M94.286,262.609a.563.563,0,1,1,.767.216.563.563,0,0,1-.767-.216" transform="translate(-52.58 -244.226)" fill="#c19348"/>
            </g>
          </g>
        </g>
        <g id="Grupo_1054601" data-name="Grupo 1054601" transform="translate(33.693 107.076)" opacity="0.48">
          <g id="Grupo_1054600" data-name="Grupo 1054600">
            <g id="Grupo_1054599" data-name="Grupo 1054599" clip-path="url(#clip-path-18)">
              <path id="Trazado_773402" data-name="Trazado 773402" d="M43.571,140.543a.564.564,0,1,1-.564-.564.564.564,0,0,1,.564.564" transform="translate(-42.444 -135.939)" fill="#c19348"/>
              <path id="Trazado_773403" data-name="Trazado 773403" d="M55.875,141.968a1.279,1.279,0,1,1-1.279-1.279,1.279,1.279,0,0,1,1.279,1.279" transform="translate(-44.686 -136.085)" fill="#c19348"/>
              <path id="Trazado_773404" data-name="Trazado 773404" d="M46.867,151.98a1.856,1.856,0,1,1-1.856-1.856,1.856,1.856,0,0,1,1.856,1.856" transform="translate(-42.591 -138.03)" fill="#c19348"/>
              <path id="Trazado_773405" data-name="Trazado 773405" d="M68.567,135.453a.564.564,0,1,1-.564-.564.564.564,0,0,1,.564.564" transform="translate(-47.598 -134.889)" fill="#c19348"/>
              <path id="Trazado_773406" data-name="Trazado 773406" d="M80.871,136.878a1.279,1.279,0,1,1-1.279-1.279,1.279,1.279,0,0,1,1.279,1.279" transform="translate(-49.84 -135.035)" fill="#c19348"/>
              <path id="Trazado_773407" data-name="Trazado 773407" d="M71.863,146.89a1.856,1.856,0,1,1-1.856-1.856,1.856,1.856,0,0,1,1.856,1.856" transform="translate(-47.745 -136.981)" fill="#c19348"/>
              <path id="Trazado_773408" data-name="Trazado 773408" d="M59.911,148.995a.564.564,0,1,1-.057-.795.563.563,0,0,1,.057.795" transform="translate(-45.842 -137.605)" fill="#c19348"/>
              <path id="Trazado_773409" data-name="Trazado 773409" d="M68.108,158.205a1.279,1.279,0,1,1-.129-1.8,1.279,1.279,0,0,1,.129,1.8" transform="translate(-47.273 -139.26)" fill="#c19348"/>
              <path id="Trazado_773410" data-name="Trazado 773410" d="M54.609,159.933a1.856,1.856,0,1,1-.187-2.618,1.856,1.856,0,0,1,.187,2.618" transform="translate(-44.281 -139.42)" fill="#c19348"/>
              <path id="Trazado_773411" data-name="Trazado 773411" d="M98.585,146.791a.563.563,0,1,1,.767.216.563.563,0,0,1-.767-.216" transform="translate(-54.005 -137.17)" fill="#c19348"/>
              <path id="Trazado_773412" data-name="Trazado 773412" d="M86.718,151.306a1.279,1.279,0,1,1,1.741.491,1.278,1.278,0,0,1-1.741-.491" transform="translate(-51.539 -137.881)" fill="#c19348"/>
              <path id="Trazado_773413" data-name="Trazado 773413" d="M89.325,137.961a1.856,1.856,0,1,1,2.527.711,1.857,1.857,0,0,1-2.527-.711" transform="translate(-52.062 -134.953)" fill="#c19348"/>
              <path id="Trazado_773414" data-name="Trazado 773414" d="M78.384,156.991a.563.563,0,1,1,.767.216.563.563,0,0,1-.767-.216" transform="translate(-49.84 -139.273)" fill="#c19348"/>
              <path id="Trazado_773415" data-name="Trazado 773415" d="M94.964,157.829a.563.563,0,1,1,.767.216.563.563,0,0,1-.767-.216" transform="translate(-53.259 -139.446)" fill="#c19348"/>
              <path id="Trazado_773416" data-name="Trazado 773416" d="M60.413,168.027a.563.563,0,1,1,.767.216.563.563,0,0,1-.767-.216" transform="translate(-46.135 -141.549)" fill="#c19348"/>
              <path id="Trazado_773417" data-name="Trazado 773417" d="M74.031,165.869a1.279,1.279,0,1,1,1.741.491,1.278,1.278,0,0,1-1.741-.491" transform="translate(-48.923 -140.884)" fill="#c19348"/>
              <path id="Trazado_773418" data-name="Trazado 773418" d="M68.387,176.879a1.856,1.856,0,1,1,2.527.711,1.857,1.857,0,0,1-2.527-.711" transform="translate(-47.745 -142.977)" fill="#c19348"/>
            </g>
          </g>
        </g>
        <g id="Grupo_1054604" data-name="Grupo 1054604" transform="translate(24.323 96.306)" opacity="0.28">
          <g id="Grupo_1054603" data-name="Grupo 1054603">
            <g id="Grupo_1054602" data-name="Grupo 1054602" clip-path="url(#clip-path-19)">
              <path id="Trazado_773419" data-name="Trazado 773419" d="M35.363,153.458c3.932,4.794,8.937,8.345,13.221,11.9a30.286,30.286,0,0,0,5.1-17.092c0-14.723-9.842-26.682-22.065-26.944-1.2,8.539-2.42,24.616,3.748,32.136" transform="translate(-30.641 -121.321)" fill="#fff"/>
            </g>
          </g>
        </g>
        <g id="Grupo_1054607" data-name="Grupo 1054607" transform="translate(24.325 169.207)" opacity="0.28">
          <g id="Grupo_1054606" data-name="Grupo 1054606">
            <g id="Grupo_1054605" data-name="Grupo 1054605" clip-path="url(#clip-path-20)">
              <path id="Trazado_773420" data-name="Trazado 773420" d="M58.375,230.546a21.228,21.228,0,0,0-8.8-17.387C45.09,217,39.6,220.726,35.363,225.893c-4.51,5.5-5.065,15.572-4.572,23.93a18.9,18.9,0,0,0,7.736,1.65c10.962,0,19.848-9.369,19.848-20.927" transform="translate(-30.643 -213.158)" fill="#fff"/>
            </g>
          </g>
        </g>
        <path id="Trazado_773421" data-name="Trazado 773421" d="M32.547,115.78H90.3c2.629,0,2.634-4.087,0-4.087H32.547c-2.63,0-2.634,4.087,0,4.087" transform="translate(-6.304 -23.03)" fill="#aa5f48"/>
        <path id="Trazado_773422" data-name="Trazado 773422" d="M32.547,278.5H90.3c2.629,0,2.634-4.087,0-4.087H32.547c-2.63,0-2.634,4.087,0,4.087" transform="translate(-6.304 -56.581)" fill="#aa5f48"/>
        <g id="Grupo_1054610" data-name="Grupo 1054610" transform="translate(55.407 90.706)" opacity="0.05">
          <g id="Grupo_1054609" data-name="Grupo 1054609">
            <g id="Grupo_1054608" data-name="Grupo 1054608" clip-path="url(#clip-path-21)">
              <path id="Trazado_773423" data-name="Trazado 773423" d="M95.585,205.5c-8.62-10.508-22.411-15.047-22.411-26.75S86.965,162.511,95.585,152s2.8-37.736,2.8-37.736H95.011s5.819,27.228-2.8,37.736S69.8,167.049,69.8,178.752,83.59,194.993,92.21,205.5s2.8,37.736,2.8,37.736h3.375s5.819-27.228-2.8-37.736" transform="translate(-69.799 -114.267)" fill="#061726"/>
            </g>
          </g>
        </g>
        <path id="Trazado_773424" data-name="Trazado 773424" d="M158.548,271.047H129.276a5.53,5.53,0,1,1,0-11.061h29.272a5.53,5.53,0,0,1,0,11.061" transform="translate(-25.515 -53.606)" fill="#d9ae5f"/>
        <rect id="Rectángulo_362047" data-name="Rectángulo 362047" width="46.167" height="12.715" transform="translate(95.313 209.098)" fill="#aa5f48"/>
        <path id="Trazado_773425" data-name="Trazado 773425" d="M119.573,272.889H165.74c2.554,0,2.558-3.969,0-3.969H119.573c-2.554,0-2.558,3.969,0,3.969" transform="translate(-24.259 -55.448)" fill="#d9ae5f"/>
        <path id="Trazado_773426" data-name="Trazado 773426" d="M198.755,265.4a2.839,2.839,0,1,1-3.684,4.268l-33.4-28.828a2.839,2.839,0,1,1,3.684-4.268Z" transform="translate(-33.092 -48.606)" fill="#8294bf"/>
        <path id="Trazado_773427" data-name="Trazado 773427" d="M201.23,274.939l2.241,1.935a2.839,2.839,0,1,0,3.684-4.268l-2.241-1.935Z" transform="translate(-41.491 -55.809)" fill="#035aa6"/>
        <g id="Grupo_1054613" data-name="Grupo 1054613" transform="translate(127.437 187.129)" opacity="0.1">
          <g id="Grupo_1054612" data-name="Grupo 1054612">
            <g id="Grupo_1054611" data-name="Grupo 1054611" clip-path="url(#clip-path-22)">
              <path id="Trazado_773428" data-name="Trazado 773428" d="M161.123,236.633a2.55,2.55,0,0,0-.585,1.357,3.258,3.258,0,0,1,2.989.718l33.4,28.828a3.258,3.258,0,0,1,1.147,2.851,2.544,2.544,0,0,0,1.257-.777,3.021,3.021,0,0,0-.562-4.208l-33.4-28.828a3.022,3.022,0,0,0-4.245.059" transform="translate(-160.538 -235.735)" fill="#061726"/>
            </g>
          </g>
        </g>
        <rect id="Rectángulo_362049" data-name="Rectángulo 362049" width="33.062" height="19.896" transform="translate(107.998 191.857) rotate(-49.198)" fill="#8294bf"/>
        <path id="Trazado_773429" data-name="Trazado 773429" d="M134.24,242.676l13.166,11.365,1.895,1.636c1.933,1.669,4.53-1.333,2.593-3l-13.165-11.365-1.9-1.636c-1.933-1.669-4.529,1.333-2.593,3" transform="translate(-27.538 -49.317)" fill="#035aa6"/>
        <path id="Trazado_773430" data-name="Trazado 773430" d="M160.553,212.193l13.166,11.365,1.895,1.636c1.934,1.669,4.53-1.333,2.593-3l-13.165-11.365-1.9-1.636c-1.933-1.669-4.529,1.333-2.593,3" transform="translate(-32.964 -43.031)" fill="#035aa6"/>
        <rect id="Rectángulo_362050" data-name="Rectángulo 362050" width="21.34" height="19.897" transform="matrix(0.653, -0.757, 0.757, 0.653, 111.47, 187.835)" fill="#035aa6"/>
        <g id="Grupo_1054616" data-name="Grupo 1054616" transform="translate(116.084 169.866)" opacity="0.1">
          <g id="Grupo_1054615" data-name="Grupo 1054615">
            <g id="Grupo_1054614" data-name="Grupo 1054614" clip-path="url(#clip-path-23)">
              <path id="Trazado_773431" data-name="Trazado 773431" d="M154.7,237.99a43.909,43.909,0,0,1-8.464,7.59l3.783,3.265,1.895,1.636c1.934,1.669,4.53-1.333,2.593-3l2.176-2.52L170.628,228.8l2.175-2.52c1.934,1.669,4.53-1.334,2.594-3l-10.763-9.292c-.106,7.766-3.481,16.527-9.934,24" transform="translate(-146.237 -213.988)" fill="#061726"/>
            </g>
          </g>
        </g>
        <path id="Trazado_773432" data-name="Trazado 773432" d="M389.531,110.9v-2.966h-2.412a8.83,8.83,0,0,0-1.517-3.667l1.7-1.7-2.1-2.1-1.7,1.7a8.841,8.841,0,0,0-3.667-1.517V98.242h-2.966v2.412a8.848,8.848,0,0,0-3.668,1.517l-1.7-1.7-2.1,2.1,1.7,1.7a8.83,8.83,0,0,0-1.517,3.667h-2.412V110.9h2.412a8.839,8.839,0,0,0,1.517,3.667l-1.7,1.7,2.1,2.1,1.7-1.7a8.839,8.839,0,0,0,3.668,1.518V120.6h2.966v-2.411a8.839,8.839,0,0,0,3.668-1.518l1.7,1.7,2.1-2.1-1.7-1.7a8.839,8.839,0,0,0,1.517-3.667Zm-11.177,4.2a5.683,5.683,0,1,1,5.684-5.684,5.684,5.684,0,0,1-5.684,5.684" transform="translate(-75.708 -20.256)" fill="#d9ae5f"/>
        <path id="Trazado_773433" data-name="Trazado 773433" d="M375.281,150.864v-5.148H371.1a15.331,15.331,0,0,0-2.633-6.365l2.957-2.956-3.64-3.64-2.956,2.956a15.337,15.337,0,0,0-6.365-2.633v-4.184h-5.147v4.184a15.337,15.337,0,0,0-6.365,2.633l-2.957-2.956-3.64,3.64,2.957,2.956a15.343,15.343,0,0,0-2.634,6.365h-4.184v5.148h4.184a15.335,15.335,0,0,0,2.634,6.364l-2.957,2.957,3.64,3.64,2.957-2.956a15.337,15.337,0,0,0,6.365,2.633v4.184h5.147V163.5a15.337,15.337,0,0,0,6.365-2.633l2.956,2.956,3.64-3.64-2.957-2.957a15.324,15.324,0,0,0,2.633-6.364Zm-19.4,7.289a9.863,9.863,0,1,1,9.862-9.862,9.863,9.863,0,0,1-9.862,9.862" transform="translate(-69.381 -26.577)" fill="#d9ae5f"/>
        <path id="Trazado_773434" data-name="Trazado 773434" d="M62.146,68.65,60.727,65.5,59.308,68.65l-2.563,1.576L59.308,71.8l1.419,3.152L62.146,71.8l2.564-1.577Z" transform="translate(-11.7 -13.505)" fill="#d9ae5f"/>
        <path id="Trazado_773435" data-name="Trazado 773435" d="M372.707,78.605l-.946-2.1-.945,2.1-1.709,1.051,1.709,1.05.945,2.1.946-2.1,1.709-1.05Z" transform="translate(-76.106 -15.774)" fill="#d9ae5f"/>
        <path id="Trazado_773436" data-name="Trazado 773436" d="M272.772,4.653,270.677,0l-2.094,4.654L264.8,6.98l3.786,2.327,2.094,4.653,2.095-4.653,3.785-2.327Z" transform="translate(-54.598 0)" fill="#d9ae5f"/>
        <path id="Trazado_773437" data-name="Trazado 773437" d="M86.443,43.415l-2.095-4.654-2.094,4.654-3.786,2.327,3.786,2.327,2.094,4.653,2.095-4.653,3.785-2.327Z" transform="translate(-16.179 -7.992)" fill="#d9ae5f"/>
        <path id="Trazado_773438" data-name="Trazado 773438" d="M48.087,33.942l-.946-2.1-.945,2.1-1.709,1.051,1.709,1.05.945,2.1.946-2.1,1.709-1.05Z" transform="translate(-9.173 -6.565)" fill="#d9ae5f"/>
        <path id="Trazado_773439" data-name="Trazado 773439" d="M254.928,23.08l-1.419-3.152L252.09,23.08l-2.563,1.576,2.563,1.577,1.419,3.152,1.419-3.152,2.564-1.577Z" transform="translate(-51.45 -4.109)" fill="#d9ae5f"/>
      </g>
    </g>
  </g>
</svg>
