<svg xmlns="http://www.w3.org/2000/svg" xmlns:xlink="http://www.w3.org/1999/xlink" width="212.163" height="259.184" viewBox="0 0 212.163 259.184">
  <defs>
    <clipPath id="clip-path">
      <rect id="Rectángulo_362071" data-name="Rectángulo 362071" width="212.163" height="259.184" fill="none"/>
    </clipPath>
    <clipPath id="clip-path-3">
      <rect id="Rectángulo_362060" data-name="Rectángulo 362060" width="6.839" height="116.896" fill="none"/>
    </clipPath>
    <clipPath id="clip-path-4">
      <rect id="Rectángulo_362061" data-name="Rectángulo 362061" width="3.688" height="28.611" fill="none"/>
    </clipPath>
    <clipPath id="clip-path-5">
      <rect id="Rectángulo_362062" data-name="Rectángulo 362062" width="2.598" height="25.801" fill="none"/>
    </clipPath>
    <clipPath id="clip-path-6">
      <rect id="Rectángulo_362063" data-name="Rectángulo 362063" width="6.84" height="116.896" fill="none"/>
    </clipPath>
    <clipPath id="clip-path-9">
      <rect id="Rectángulo_362066" data-name="Rectángulo 362066" width="13.668" height="132.813" fill="none"/>
    </clipPath>
    <clipPath id="clip-path-10">
      <rect id="Rectángulo_362067" data-name="Rectángulo 362067" width="21.933" height="146.439" fill="none"/>
    </clipPath>
    <clipPath id="clip-path-11">
      <rect id="Rectángulo_362068" data-name="Rectángulo 362068" width="13.669" height="132.813" fill="none"/>
    </clipPath>
    <clipPath id="clip-path-12">
      <rect id="Rectángulo_362069" data-name="Rectángulo 362069" width="25.992" height="15.738" fill="none"/>
    </clipPath>
  </defs>
  <g id="Grupo_1054682" data-name="Grupo 1054682" transform="translate(-367.342 -5368.408)">
    <g id="Grupo_1054632" data-name="Grupo 1054632" transform="translate(367.342 5368.408)">
      <g id="Grupo_1054665" data-name="Grupo 1054665" clip-path="url(#clip-path)">
        <g id="Grupo_1054664" data-name="Grupo 1054664">
          <g id="Grupo_1054663" data-name="Grupo 1054663" clip-path="url(#clip-path)">
            <path id="Trazado_773440" data-name="Trazado 773440" d="M215.5,229.93l-4.447,17.851a3.823,3.823,0,0,1-2.029,1.855c-19.795,5.51-27.817-3.022-27.817-3.022,1.406-8.477,4.019-19.226,4.019-19.226s27.176,3.845,30.274,2.542" transform="translate(-7.125 -8.94)" fill="#f7941d"/>
            <path id="Trazado_773441" data-name="Trazado 773441" d="M214.993,230l-2.541,10.2-1.515,6.08c-.466,1.871-.8,2.865-3.068,3.449-6.524,1.684-13.7,2.333-20.184.112a18.864,18.864,0,0,1-4.539-2.215c-.354-.241-1.326-.753-1.487-1.194-.081-.219.193-.915.241-1.192q.148-.844.3-1.689.316-1.711.659-3.415.627-3.126,1.318-6.239c.486-2.2.985-4.4,1.517-6.6l-.8.306a256.43,256.43,0,0,0,25.823,2.773c1.558.06,3.452.275,4.944-.312.648-.255.045-.454-.36-.295-1.228.482-3.056.193-4.338.135-2.45-.11-4.9-.326-7.336-.565-4.959-.485-9.906-1.092-14.844-1.748q-1.633-.216-3.262-.444c-.2-.028-.744.061-.8.3-1.47,6.058-2.8,12.166-3.863,18.31-.114.664-.249.787.064,1.2a4.527,4.527,0,0,0,.955.771,18.507,18.507,0,0,0,4.354,2.286c5.993,2.259,12.711,2,18.892.74,2.193-.448,5.521-.709,6.435-3.191a45.49,45.49,0,0,0,1.158-4.648q1.628-6.542,3.259-13.085c.068-.272-.909-.127-.979.155" transform="translate(-7.106 -8.931)" fill="#070707"/>
            <path id="Trazado_773442" data-name="Trazado 773442" d="M215,232.151s-22.577,3.218-27.994-2.009" transform="translate(-7.353 -9.049)" fill="#f7941d"/>
            <path id="Trazado_773443" data-name="Trazado 773443" d="M215,232.151s-22.577,3.218-27.994-2.009" transform="translate(-7.353 -9.049)" fill="none" stroke="#221e1f" stroke-width="0.182" stroke-dasharray="1.092 0.728"/>
            <path id="Trazado_773444" data-name="Trazado 773444" d="M166.582,36.931l19.508,2.443s.741-13.72,30.408,106.993c0,0,4.751,66.982-1.573,76.075-23.516,4.016-31.041-3.705-31.041-3.705.976-8.518-3.667-15.342-2.543-51.561v-6.867s-1.3-3.783-4.515-26.423c-3.89-27.382-6.547-48.341-6.547-48.341Z" transform="translate(-6.55 -1.452)" fill="#f7941d"/>
            <path id="Trazado_773445" data-name="Trazado 773445" d="M166.582,36.931l19.508,2.443s.741-13.72,30.408,106.993c0,0,4.751,66.982-1.573,76.075-23.516,4.016-31.041-3.705-31.041-3.705.976-8.518-3.667-15.342-2.543-51.561v-6.867s-1.3-3.783-4.515-26.423c-3.89-27.382-6.547-48.341-6.547-48.341Z" transform="translate(-6.55 -1.452)" fill="none" stroke="#020303" stroke-width="1.045"/>
            <g id="Grupo_1054634" data-name="Grupo 1054634" transform="translate(177.259 41.699)" opacity="0.25" style="mix-blend-mode: multiply;isolation: isolate">
              <g id="Grupo_1054633" data-name="Grupo 1054633">
                <g id="Grupo_1054632-2" data-name="Grupo 1054632" clip-path="url(#clip-path-3)">
                  <path id="Trazado_773446" data-name="Trazado 773446" d="M191.353,43.406s-1.041,107.841-6.839,116.9" transform="translate(-184.514 -43.406)" fill="#f7941d"/>
                </g>
              </g>
            </g>
            <g id="Grupo_1054637" data-name="Grupo 1054637" transform="translate(202.104 193.738)" opacity="0.25" style="mix-blend-mode: multiply;isolation: isolate">
              <g id="Grupo_1054636" data-name="Grupo 1054636">
                <g id="Grupo_1054635" data-name="Grupo 1054635" clip-path="url(#clip-path-4)">
                  <path id="Trazado_773447" data-name="Trazado 773447" d="M214.063,201.667s-5.854,31.448-2.81,28.4" transform="translate(-210.375 -201.667)" fill="#f7941d"/>
                </g>
              </g>
            </g>
            <g id="Grupo_1054640" data-name="Grupo 1054640" transform="translate(198.25 196.509)" opacity="0.25" style="mix-blend-mode: multiply;isolation: isolate">
              <g id="Grupo_1054639" data-name="Grupo 1054639">
                <g id="Grupo_1054638" data-name="Grupo 1054638" clip-path="url(#clip-path-5)">
                  <path id="Trazado_773448" data-name="Trazado 773448" d="M208.962,204.552s-4.124,27.827-1.98,25.683" transform="translate(-206.364 -204.552)" fill="#f7941d"/>
                </g>
              </g>
            </g>
            <path id="Trazado_773449" data-name="Trazado 773449" d="M3.942,229.93l4.447,17.851a3.823,3.823,0,0,0,2.029,1.855c19.8,5.51,27.818-3.022,27.818-3.022-1.407-8.477-4.019-19.226-4.019-19.226S7.04,231.233,3.942,229.93" transform="translate(-0.155 -8.94)" fill="#f7941d"/>
            <path id="Trazado_773450" data-name="Trazado 773450" d="M3.428,230.05l2.8,11.23q.733,2.945,1.468,5.892c.516,2.074,2.155,2.711,4.137,3.2,6.5,1.6,13.614,2.176,20.074.059a20.661,20.661,0,0,0,4.892-2.29,5.773,5.773,0,0,0,1.809-1.419c.232-.423-.036-1.074-.116-1.537q-.316-1.8-.665-3.588-.674-3.474-1.436-6.931c-.542-2.479-1.1-4.954-1.7-7.419-.04-.167-.3-.194-.435-.175-8.268,1.168-16.608,2.307-24.951,2.733-1.534.079-3.606.4-5.086-.178-.351-.137-1.151.366-.592.586a11.007,11.007,0,0,0,4.137.265c2.474-.074,4.944-.284,7.407-.517,5.165-.487,10.316-1.118,15.457-1.8,1.171-.156,2.341-.312,3.51-.477l-.435-.175c1.336,5.507,2.546,11.054,3.564,16.627q.137.748.268,1.5c.031.182.282.836.275.867-.012.049-.106.084-.131.128a2.819,2.819,0,0,1-.734.613,16.879,16.879,0,0,1-3.843,2.129c-5.85,2.382-12.526,2.129-18.606.884-2.169-.445-5.157-.7-5.78-3.2L7.407,241.8l-2.992-12.01c-.1-.386-1.086-.128-.988.264" transform="translate(-0.135 -8.927)" fill="#070707"/>
            <path id="Trazado_773451" data-name="Trazado 773451" d="M4.7,232.151s22.578,3.218,28-2.009" transform="translate(-0.185 -9.049)" fill="#f7941d"/>
            <path id="Trazado_773452" data-name="Trazado 773452" d="M4.7,232.151s22.578,3.218,28-2.009" transform="translate(-0.185 -9.049)" fill="none" stroke="#221e1f" stroke-width="0.182" stroke-dasharray="1.092 0.728"/>
            <path id="Trazado_773453" data-name="Trazado 773453" d="M52.151,36.931,32.643,39.374S31.9,25.654,2.236,146.367c0,0-4.751,66.982,1.571,76.075,23.517,4.016,31.042-3.705,31.042-3.705-.976-8.518,3.668-15.342,2.544-51.561v-6.867s1.3-3.783,4.515-26.423C45.8,106.5,48.454,85.545,48.454,85.545Z" transform="translate(-0.021 -1.452)" fill="#f7941d"/>
            <path id="Trazado_773454" data-name="Trazado 773454" d="M52.151,36.931,32.643,39.374S31.9,25.654,2.236,146.367c0,0-4.751,66.982,1.571,76.075,23.517,4.016,31.042-3.705,31.042-3.705-.976-8.518,3.668-15.342,2.544-51.561v-6.867s1.3-3.783,4.515-26.423C45.8,106.5,48.454,85.545,48.454,85.545Z" transform="translate(-0.021 -1.452)" fill="none" stroke="#020303" stroke-width="1.045"/>
            <g id="Grupo_1054643" data-name="Grupo 1054643" transform="translate(28.065 41.699)" opacity="0.25" style="mix-blend-mode: multiply;isolation: isolate">
              <g id="Grupo_1054642" data-name="Grupo 1054642">
                <g id="Grupo_1054641" data-name="Grupo 1054641" clip-path="url(#clip-path-6)">
                  <path id="Trazado_773455" data-name="Trazado 773455" d="M29.213,43.406s1.042,107.841,6.84,116.9" transform="translate(-29.213 -43.406)" fill="#f7941d"/>
                </g>
              </g>
            </g>
            <g id="Grupo_1054646" data-name="Grupo 1054646" transform="translate(6.372 193.738)" opacity="0.25" style="mix-blend-mode: multiply;isolation: isolate">
              <g id="Grupo_1054645" data-name="Grupo 1054645">
                <g id="Grupo_1054644" data-name="Grupo 1054644" clip-path="url(#clip-path-4)">
                  <path id="Trazado_773456" data-name="Trazado 773456" d="M6.633,201.667s5.855,31.448,2.81,28.4" transform="translate(-6.633 -201.667)" fill="#f7941d"/>
                </g>
              </g>
            </g>
            <g id="Grupo_1054649" data-name="Grupo 1054649" transform="translate(11.315 196.509)" opacity="0.25" style="mix-blend-mode: multiply;isolation: isolate">
              <g id="Grupo_1054648" data-name="Grupo 1054648">
                <g id="Grupo_1054647" data-name="Grupo 1054647" clip-path="url(#clip-path-5)">
                  <path id="Trazado_773457" data-name="Trazado 773457" d="M11.778,204.552s4.125,27.827,1.98,25.683" transform="translate(-11.778 -204.552)" fill="#f7941d"/>
                </g>
              </g>
            </g>
            <path id="Trazado_773458" data-name="Trazado 773458" d="M113.974,27.689V192.5c.959,45.851-4.031,66.891-4.031,66.891-13.872,0-31.858-2.418-39.968-5.244s-14.087-11.288-18.783-18.55-18.571-16.07-18.571-16.07c2.348-10.281,4.557-40.17,5.838-53.277s2.487-34.883,2.487-35.892.854-14.922-.641-20.568-5.762-33.675-6.829-43.554.137-26.278.137-26.278l-.081-1.98S71.255,20.614,78.619,17.993c0,0,7.759,11.468,25.984,12.036,1.142.036,2.326-.318,3.551-2.34" transform="translate(-1.283 -0.707)" fill="#f7941d"/>
            <path id="Trazado_773459" data-name="Trazado 773459" d="M113.974,27.689V192.5c.959,45.851-4.031,66.891-4.031,66.891-13.872,0-31.858-2.418-39.968-5.244s-14.087-11.288-18.783-18.55-18.571-16.07-18.571-16.07c2.348-10.281,4.557-40.17,5.838-53.277s2.487-34.883,2.487-35.892.854-14.922-.641-20.568-5.762-33.675-6.829-43.554.137-26.278.137-26.278l-.081-1.98S71.255,20.614,78.619,17.993c0,0,7.759,11.468,25.984,12.036,1.142.036,2.326-.318,3.551-2.34" transform="translate(-1.283 -0.707)" fill="none" stroke="#020303" stroke-width="1.045"/>
            <path id="Trazado_773460" data-name="Trazado 773460" d="M110.456,264.423s-30.915-.051-45.112-8.684c-3.119-1.9-9.712-11.4-12.447-15.344,0,0-11.162-10.019-15.9-12.542-3.239-1.724-3.946-2.783-3.946-2.783" transform="translate(-1.299 -8.849)" fill="#f7941d"/>
            <path id="Trazado_773461" data-name="Trazado 773461" d="M110.456,264.423s-30.915-.051-45.112-8.684c-3.119-1.9-9.712-11.4-12.447-15.344,0,0-11.162-10.019-15.9-12.542-3.239-1.724-3.946-2.783-3.946-2.783" transform="translate(-1.299 -8.849)" fill="none" stroke="#020303" stroke-linecap="round" stroke-linejoin="round" stroke-width="0.261" stroke-dasharray="1.045 1.045"/>
            <path id="Trazado_773462" data-name="Trazado 773462" d="M101.4,36.025V196.276c.768,36.6-2.257,53.2-3.509,63.067" transform="translate(-3.849 -1.416)" fill="#f7941d"/>
            <path id="Trazado_773463" data-name="Trazado 773463" d="M101.4,36.025V196.276c.768,36.6-2.257,53.2-3.509,63.067" transform="translate(-3.849 -1.416)" fill="none" stroke="#070707" stroke-width="0.532"/>
            <path id="Trazado_773464" data-name="Trazado 773464" d="M103.289,35.45V195.7c.766,36.592-2.258,53.2-3.51,63.065" transform="translate(-3.923 -1.394)" fill="#f7941d"/>
            <path id="Trazado_773465" data-name="Trazado 773465" d="M103.289,35.45V195.7c.766,36.592-2.258,53.2-3.51,63.065" transform="translate(-3.923 -1.394)" fill="none" stroke="#020303" stroke-linecap="round" stroke-linejoin="round" stroke-width="0.261" stroke-dasharray="1.045 1.045"/>
            <path id="Trazado_773466" data-name="Trazado 773466" d="M116.645,36.025V196.276c.766,36.6-2.258,53.2-3.51,63.067" transform="translate(-4.448 -1.416)" fill="#f7941d"/>
            <path id="Trazado_773467" data-name="Trazado 773467" d="M116.645,36.025V196.276c.766,36.6-2.258,53.2-3.51,63.067" transform="translate(-4.448 -1.416)" fill="none" stroke="#020303" stroke-linecap="round" stroke-linejoin="round" stroke-width="0.261" stroke-dasharray="1.045 1.045"/>
            <g id="Grupo_1054652" data-name="Grupo 1054652" transform="translate(163.322 51.323)" opacity="0.25" style="mix-blend-mode: multiply;isolation: isolate">
              <g id="Grupo_1054651" data-name="Grupo 1054651">
                <g id="Grupo_1054650" data-name="Grupo 1054650" clip-path="url(#clip-path-9)">
                  <path id="Trazado_773468" data-name="Trazado 773468" d="M170.006,186.235c14-15.143,8.667-56.849,7.666-57.841s-.667-29.541,2.667-39.72,3.335-35.251,3.335-35.251-3.927,33.067-6.34,41.072c0,0-3.069,21.729-1.316,34.8,0,0,2.413,36.917-4.169,51.455Z" transform="translate(-170.006 -53.423)" fill="#f7941d"/>
                </g>
              </g>
            </g>
            <path id="Trazado_773469" data-name="Trazado 773469" d="M101.793,27.642V192.45c-.959,45.851,4.03,66.891,4.03,66.891,13.873,0,33.022-2.418,41.134-5.244s14.086-11.288,18.782-18.55,18.571-16.07,18.571-16.07c-2.348-10.281-4.557-40.17-5.839-53.277s-2.486-34.883-2.486-35.892-.854-14.922.641-20.568,5.762-33.675,6.829-43.554-.138-26.278-.138-26.278l.083-1.98S145.676,19.4,138.311,16.782c0,0-7.76,12.631-25.985,13.2-1.141.036-2.326-.318-3.551-2.34" transform="translate(-3.997 -0.66)" fill="#f7941d"/>
            <path id="Trazado_773470" data-name="Trazado 773470" d="M101.793,27.642V192.45c-.959,45.851,4.03,66.891,4.03,66.891,13.873,0,33.022-2.418,41.134-5.244s14.086-11.288,18.782-18.55,18.571-16.07,18.571-16.07c-2.348-10.281-4.557-40.17-5.839-53.277s-2.486-34.883-2.486-35.892-.854-14.922.641-20.568,5.762-33.675,6.829-43.554-.138-26.278-.138-26.278l.083-1.98S145.676,19.4,138.311,16.782c0,0-7.76,12.631-25.985,13.2-1.141.036-2.326-.318-3.551-2.34" transform="translate(-3.997 -0.66)" fill="none" stroke="#020303" stroke-width="1.045"/>
            <line id="Línea_299" data-name="Línea 299" x1="19.262" y2="8.2" transform="translate(143.839 112.489)" fill="#f7941d"/>
            <path id="Trazado_773471" data-name="Trazado 773471" d="M106.945,264.423s30.915-.051,45.112-8.684c3.119-1.9,9.712-11.4,12.447-15.344,0,0,11.162-10.019,15.9-12.542,3.241-1.724,3.946-2.783,3.946-2.783" transform="translate(-4.205 -8.849)" fill="#f7941d"/>
            <path id="Trazado_773472" data-name="Trazado 773472" d="M106.945,264.423s30.915-.051,45.112-8.684c3.119-1.9,9.712-11.4,12.447-15.344,0,0,11.162-10.019,15.9-12.542,3.241-1.724,3.946-2.783,3.946-2.783" transform="translate(-4.205 -8.849)" fill="none" stroke="#020303" stroke-linecap="round" stroke-linejoin="round" stroke-width="0.261" stroke-dasharray="1.045 1.045"/>
            <path id="Trazado_773473" data-name="Trazado 773473" d="M95.012,12.484s18.636-1.755,33.833-.421" transform="translate(-3.736 -0.455)" fill="#f7941d"/>
            <path id="Trazado_773474" data-name="Trazado 773474" d="M95.012,12.484s18.636-1.755,33.833-.421" transform="translate(-3.736 -0.455)" fill="none" stroke="#020303" stroke-linecap="round" stroke-linejoin="round" stroke-width="0.261" stroke-dasharray="1.045 1.045"/>
            <path id="Trazado_773475" data-name="Trazado 773475" d="M95.84,13.866c14.7-.821,16.7-1.088,32.149-.294" transform="translate(-3.768 -0.515)" fill="#f7941d"/>
            <path id="Trazado_773476" data-name="Trazado 773476" d="M95.84,13.866c14.7-.821,16.7-1.088,32.149-.294" transform="translate(-3.768 -0.515)" fill="none" stroke="#020303" stroke-linecap="round" stroke-linejoin="round" stroke-width="0.261" stroke-dasharray="1.045 1.045"/>
            <g id="Grupo_1054655" data-name="Grupo 1054655" transform="translate(154.217 67.921)" opacity="0.25" style="mix-blend-mode: multiply;isolation: isolate">
              <g id="Grupo_1054654" data-name="Grupo 1054654">
                <g id="Grupo_1054653" data-name="Grupo 1054653" clip-path="url(#clip-path-10)">
                  <path id="Trazado_773477" data-name="Trazado 773477" d="M175.319,200.636c8.136-6.041,2.555-61.783,4.6-59.926-.984-.9-1.768-26.711.855-36.493S182.181,70.7,182.181,70.7s-1.458,28.153-3.042,31.655-2.663,26.921-1.459,34.709c0,0,1.8,21.916,1.781,23.764s1.369,20.911-1.046,29.759a32.818,32.818,0,0,1-3.14,5.895L160.529,217.14Z" transform="translate(-160.529 -70.701)" fill="#f7941d"/>
                </g>
              </g>
            </g>
            <line id="Línea_300" data-name="Línea 300" x1="19.262" y2="8.201" transform="translate(142.447 123.351)" fill="#f7941d"/>
            <g id="Grupo_1054659" data-name="Grupo 1054659" transform="translate(34.845 51.323)" opacity="0.25" style="mix-blend-mode: multiply;isolation: isolate">
              <g id="Grupo_1054658" data-name="Grupo 1054658">
                <g id="Grupo_1054657" data-name="Grupo 1054657" clip-path="url(#clip-path-11)">
                  <path id="Trazado_773478" data-name="Trazado 773478" d="M49.941,186.235c-14-15.143-8.669-56.849-7.668-57.841s.667-29.541-2.665-39.72-3.336-35.251-3.336-35.251S40.2,86.49,42.612,94.5c0,0,3.068,21.729,1.315,34.8,0,0-2.413,36.917,4.168,51.455Z" transform="translate(-36.271 -53.423)" fill="#f7941d"/>
                </g>
              </g>
            </g>
            <path id="Trazado_773479" data-name="Trazado 773479" d="M112.614,217.911s-1,5.816.264,6.488-.264-6.488-.264-6.488" transform="translate(-4.413 -8.568)" fill="#f7941d"/>
            <path id="Trazado_773480" data-name="Trazado 773480" d="M112.614,217.911s-1,5.816.264,6.488S112.614,217.911,112.614,217.911Z" transform="translate(-4.413 -8.568)" fill="none" stroke="#221e1f" stroke-width="0.76"/>
            <path id="Trazado_773481" data-name="Trazado 773481" d="M114.672,221.082a2.15,2.15,0,1,1-2.56-1.534,2.109,2.109,0,0,1,2.56,1.534" transform="translate(-4.342 -8.63)" fill="#f7941d"/>
            <path id="Trazado_773482" data-name="Trazado 773482" d="M114.849,220.584a2.218,2.218,0,1,1-2.676-1.724,2.25,2.25,0,0,1,2.676,1.724" transform="translate(-4.343 -8.603)" fill="#f7941d"/>
            <path id="Trazado_773483" data-name="Trazado 773483" d="M112.285,222.8a.265.265,0,0,1-.516.118.258.258,0,0,1,.2-.306.262.262,0,0,1,.317.188" transform="translate(-4.394 -8.752)" fill="#f7941d"/>
            <path id="Trazado_773484" data-name="Trazado 773484" d="M113.149,222.6a.265.265,0,0,1-.517.119.265.265,0,0,1,.517-.119" transform="translate(-4.428 -8.744)" fill="#f7941d"/>
            <path id="Trazado_773485" data-name="Trazado 773485" d="M113.33,223.383a.26.26,0,0,1-.2.308.264.264,0,0,1-.316-.19.266.266,0,0,1,.518-.118" transform="translate(-4.435 -8.775)" fill="#f7941d"/>
            <path id="Trazado_773486" data-name="Trazado 773486" d="M112.464,223.581a.265.265,0,0,1-.515.12.256.256,0,0,1,.2-.308.26.26,0,0,1,.317.188" transform="translate(-4.401 -8.783)" fill="#f7941d"/>
            <path id="Trazado_773487" data-name="Trazado 773487" d="M114.922,220.641a2.472,2.472,0,1,1-2.944-1.764,2.427,2.427,0,0,1,2.944,1.764" transform="translate(-4.327 -8.603)" fill="#f7941d"/>
            <path id="Trazado_773488" data-name="Trazado 773488" d="M114.922,220.641a2.472,2.472,0,1,1-2.944-1.764A2.427,2.427,0,0,1,114.922,220.641Z" transform="translate(-4.327 -8.603)" fill="none" stroke="#221e1f" stroke-width="0.209"/>
            <path id="Trazado_773489" data-name="Trazado 773489" d="M114.448,220.773a1.964,1.964,0,1,1-2.337-1.4,1.924,1.924,0,0,1,2.337,1.4" transform="translate(-4.348 -8.623)" fill="#f7941d"/>
            <path id="Trazado_773490" data-name="Trazado 773490" d="M114.448,220.773a1.964,1.964,0,1,1-2.337-1.4A1.924,1.924,0,0,1,114.448,220.773Z" transform="translate(-4.348 -8.623)" fill="none" stroke="#221e1f" stroke-width="0.209"/>
            <path id="Trazado_773491" data-name="Trazado 773491" d="M112.3,220.883a.3.3,0,0,1-.594.137.3.3,0,0,1,.23-.354.3.3,0,0,1,.364.216" transform="translate(-4.392 -8.676)" fill="#f7941d"/>
            <path id="Trazado_773492" data-name="Trazado 773492" d="M112.3,220.883a.3.3,0,0,1-.594.137.3.3,0,0,1,.23-.354A.3.3,0,0,1,112.3,220.883Z" transform="translate(-4.392 -8.676)" fill="none" stroke="#221e1f" stroke-width="0.209"/>
            <path id="Trazado_773493" data-name="Trazado 773493" d="M113.3,220.652a.306.306,0,0,1-.6.137.3.3,0,0,1,.229-.354.3.3,0,0,1,.367.216" transform="translate(-4.431 -8.667)" fill="#f7941d"/>
            <path id="Trazado_773494" data-name="Trazado 773494" d="M113.3,220.652a.306.306,0,0,1-.6.137.3.3,0,0,1,.229-.354A.3.3,0,0,1,113.3,220.652Z" transform="translate(-4.431 -8.667)" fill="none" stroke="#221e1f" stroke-width="0.209"/>
            <path id="Trazado_773495" data-name="Trazado 773495" d="M113.5,221.546a.307.307,0,1,1-.365-.216.3.3,0,0,1,.365.216" transform="translate(-4.439 -8.702)" fill="#f7941d"/>
            <path id="Trazado_773496" data-name="Trazado 773496" d="M113.5,221.546a.307.307,0,1,1-.365-.216A.3.3,0,0,1,113.5,221.546Z" transform="translate(-4.439 -8.702)" fill="none" stroke="#221e1f" stroke-width="0.209"/>
            <path id="Trazado_773497" data-name="Trazado 773497" d="M112.1,221.941s.729-1.038.987-1.435m-1.236.354a11.067,11.067,0,0,1,1.435.807m-.782.068a.305.305,0,1,1-.363-.216.3.3,0,0,1,.363.216" transform="translate(-4.398 -8.67)" fill="#f7941d"/>
            <path id="Trazado_773498" data-name="Trazado 773498" d="M112.1,221.941s.729-1.038.987-1.435m-1.236.354a11.067,11.067,0,0,1,1.435.807m-.782.068a.305.305,0,1,1-.363-.216A.3.3,0,0,1,112.5,221.736Z" transform="translate(-4.398 -8.67)" fill="none" stroke="#221e1f" stroke-width="0.209"/>
            <path id="Trazado_773499" data-name="Trazado 773499" d="M112.614,176.86s-1,5.816.264,6.488-.264-6.488-.264-6.488" transform="translate(-4.413 -6.954)" fill="#f7941d"/>
            <path id="Trazado_773500" data-name="Trazado 773500" d="M112.614,176.86s-1,5.816.264,6.488S112.614,176.86,112.614,176.86Z" transform="translate(-4.413 -6.954)" fill="none" stroke="#221e1f" stroke-width="0.76"/>
            <path id="Trazado_773501" data-name="Trazado 773501" d="M114.672,180.032a2.15,2.15,0,1,1-2.56-1.533,2.111,2.111,0,0,1,2.56,1.533" transform="translate(-4.342 -7.016)" fill="#f7941d"/>
            <path id="Trazado_773502" data-name="Trazado 773502" d="M114.849,179.534a2.218,2.218,0,1,1-2.676-1.725,2.25,2.25,0,0,1,2.676,1.725" transform="translate(-4.343 -6.989)" fill="#f7941d"/>
            <path id="Trazado_773503" data-name="Trazado 773503" d="M112.285,181.754a.265.265,0,0,1-.516.118.258.258,0,0,1,.2-.307.262.262,0,0,1,.317.189" transform="translate(-4.394 -7.138)" fill="#f7941d"/>
            <path id="Trazado_773504" data-name="Trazado 773504" d="M113.149,181.552a.266.266,0,1,1-.317-.187.26.26,0,0,1,.317.187" transform="translate(-4.428 -7.13)" fill="#f7941d"/>
            <path id="Trazado_773505" data-name="Trazado 773505" d="M113.33,182.332a.266.266,0,1,1-.318-.19.259.259,0,0,1,.318.19" transform="translate(-4.435 -7.161)" fill="#f7941d"/>
            <path id="Trazado_773506" data-name="Trazado 773506" d="M112.464,182.532a.264.264,0,0,1-.515.119.257.257,0,0,1,.2-.309.261.261,0,0,1,.317.19" transform="translate(-4.401 -7.169)" fill="#f7941d"/>
            <path id="Trazado_773507" data-name="Trazado 773507" d="M114.922,179.591a2.472,2.472,0,1,1-2.944-1.764,2.428,2.428,0,0,1,2.944,1.764" transform="translate(-4.327 -6.989)" fill="#f7941d"/>
            <path id="Trazado_773508" data-name="Trazado 773508" d="M114.922,179.591a2.472,2.472,0,1,1-2.944-1.764A2.428,2.428,0,0,1,114.922,179.591Z" transform="translate(-4.327 -6.989)" fill="none" stroke="#221e1f" stroke-width="0.209"/>
            <path id="Trazado_773509" data-name="Trazado 773509" d="M114.448,179.724a1.964,1.964,0,1,1-2.337-1.4,1.926,1.926,0,0,1,2.337,1.4" transform="translate(-4.348 -7.009)" fill="#f7941d"/>
            <path id="Trazado_773510" data-name="Trazado 773510" d="M114.448,179.724a1.964,1.964,0,1,1-2.337-1.4A1.926,1.926,0,0,1,114.448,179.724Z" transform="translate(-4.348 -7.009)" fill="none" stroke="#221e1f" stroke-width="0.209"/>
            <path id="Trazado_773511" data-name="Trazado 773511" d="M112.3,179.834a.3.3,0,1,1-.364-.218.3.3,0,0,1,.364.218" transform="translate(-4.392 -7.062)" fill="#f7941d"/>
            <path id="Trazado_773512" data-name="Trazado 773512" d="M112.3,179.834a.3.3,0,1,1-.364-.218A.3.3,0,0,1,112.3,179.834Z" transform="translate(-4.392 -7.062)" fill="none" stroke="#221e1f" stroke-width="0.209"/>
            <path id="Trazado_773513" data-name="Trazado 773513" d="M113.3,179.6a.306.306,0,0,1-.6.137.3.3,0,0,1,.229-.354.3.3,0,0,1,.367.216" transform="translate(-4.431 -7.053)" fill="#f7941d"/>
            <path id="Trazado_773514" data-name="Trazado 773514" d="M113.3,179.6a.306.306,0,0,1-.6.137.3.3,0,0,1,.229-.354A.3.3,0,0,1,113.3,179.6Z" transform="translate(-4.431 -7.053)" fill="none" stroke="#221e1f" stroke-width="0.209"/>
            <path id="Trazado_773515" data-name="Trazado 773515" d="M113.5,180.5a.306.306,0,0,1-.6.137.306.306,0,0,1,.6-.137" transform="translate(-4.439 -7.088)" fill="#f7941d"/>
            <path id="Trazado_773516" data-name="Trazado 773516" d="M113.5,180.5a.306.306,0,0,1-.6.137.306.306,0,0,1,.6-.137Z" transform="translate(-4.439 -7.088)" fill="none" stroke="#221e1f" stroke-width="0.209"/>
            <path id="Trazado_773517" data-name="Trazado 773517" d="M112.1,180.892s.729-1.039.987-1.435m-1.236.354a11,11,0,0,1,1.435.806m-.782.069a.3.3,0,1,1-.363-.218.3.3,0,0,1,.363.218" transform="translate(-4.398 -7.056)" fill="#f7941d"/>
            <path id="Trazado_773518" data-name="Trazado 773518" d="M112.1,180.892s.729-1.039.987-1.435m-1.236.354a11,11,0,0,1,1.435.806m-.782.069a.3.3,0,1,1-.363-.218A.3.3,0,0,1,112.5,180.687Z" transform="translate(-4.398 -7.056)" fill="none" stroke="#221e1f" stroke-width="0.209"/>
            <path id="Trazado_773519" data-name="Trazado 773519" d="M112.614,127.44s-1,5.816.264,6.488-.264-6.488-.264-6.488" transform="translate(-4.413 -5.011)" fill="#f7941d"/>
            <path id="Trazado_773520" data-name="Trazado 773520" d="M112.614,127.44s-1,5.816.264,6.488S112.614,127.44,112.614,127.44Z" transform="translate(-4.413 -5.011)" fill="none" stroke="#221e1f" stroke-width="0.76"/>
            <path id="Trazado_773521" data-name="Trazado 773521" d="M114.672,130.611a2.15,2.15,0,1,1-2.56-1.533,2.109,2.109,0,0,1,2.56,1.533" transform="translate(-4.342 -5.073)" fill="#f7941d"/>
            <path id="Trazado_773522" data-name="Trazado 773522" d="M114.849,130.113a2.218,2.218,0,1,1-2.676-1.724,2.249,2.249,0,0,1,2.676,1.724" transform="translate(-4.343 -5.046)" fill="#f7941d"/>
            <path id="Trazado_773523" data-name="Trazado 773523" d="M112.285,132.332a.265.265,0,0,1-.516.118.258.258,0,0,1,.2-.306.262.262,0,0,1,.317.188" transform="translate(-4.394 -5.195)" fill="#f7941d"/>
            <path id="Trazado_773524" data-name="Trazado 773524" d="M113.149,132.132a.266.266,0,1,1-.317-.188.262.262,0,0,1,.317.188" transform="translate(-4.428 -5.187)" fill="#f7941d"/>
            <path id="Trazado_773525" data-name="Trazado 773525" d="M113.33,132.912a.266.266,0,1,1-.318-.192.26.26,0,0,1,.318.192" transform="translate(-4.435 -5.218)" fill="#f7941d"/>
            <path id="Trazado_773526" data-name="Trazado 773526" d="M112.464,133.111a.264.264,0,0,1-.515.119.257.257,0,0,1,.2-.308.26.26,0,0,1,.317.189" transform="translate(-4.401 -5.226)" fill="#f7941d"/>
            <path id="Trazado_773527" data-name="Trazado 773527" d="M114.922,130.17a2.472,2.472,0,1,1-2.944-1.764,2.427,2.427,0,0,1,2.944,1.764" transform="translate(-4.327 -5.046)" fill="#f7941d"/>
            <path id="Trazado_773528" data-name="Trazado 773528" d="M114.922,130.17a2.472,2.472,0,1,1-2.944-1.764A2.427,2.427,0,0,1,114.922,130.17Z" transform="translate(-4.327 -5.046)" fill="none" stroke="#221e1f" stroke-width="0.209"/>
            <path id="Trazado_773529" data-name="Trazado 773529" d="M114.448,130.3a1.964,1.964,0,1,1-2.337-1.4,1.924,1.924,0,0,1,2.337,1.4" transform="translate(-4.348 -5.066)" fill="#f7941d"/>
            <path id="Trazado_773530" data-name="Trazado 773530" d="M114.448,130.3a1.964,1.964,0,1,1-2.337-1.4A1.924,1.924,0,0,1,114.448,130.3Z" transform="translate(-4.348 -5.066)" fill="none" stroke="#221e1f" stroke-width="0.209"/>
            <path id="Trazado_773531" data-name="Trazado 773531" d="M112.3,130.412a.3.3,0,1,1-.364-.217.3.3,0,0,1,.364.217" transform="translate(-4.392 -5.119)" fill="#f7941d"/>
            <path id="Trazado_773532" data-name="Trazado 773532" d="M112.3,130.412a.3.3,0,1,1-.364-.217A.3.3,0,0,1,112.3,130.412Z" transform="translate(-4.392 -5.119)" fill="none" stroke="#221e1f" stroke-width="0.209"/>
            <path id="Trazado_773533" data-name="Trazado 773533" d="M113.3,130.182a.306.306,0,1,1-.367-.216.3.3,0,0,1,.367.216" transform="translate(-4.431 -5.11)" fill="#f7941d"/>
            <path id="Trazado_773534" data-name="Trazado 773534" d="M113.3,130.182a.306.306,0,1,1-.367-.216A.3.3,0,0,1,113.3,130.182Z" transform="translate(-4.431 -5.11)" fill="none" stroke="#221e1f" stroke-width="0.209"/>
            <path id="Trazado_773535" data-name="Trazado 773535" d="M113.5,131.076a.307.307,0,1,1-.365-.216.3.3,0,0,1,.365.216" transform="translate(-4.439 -5.145)" fill="#f7941d"/>
            <path id="Trazado_773536" data-name="Trazado 773536" d="M113.5,131.076a.307.307,0,1,1-.365-.216A.3.3,0,0,1,113.5,131.076Z" transform="translate(-4.439 -5.145)" fill="none" stroke="#221e1f" stroke-width="0.209"/>
            <path id="Trazado_773537" data-name="Trazado 773537" d="M112.1,131.471s.729-1.038.987-1.434m-1.236.354a11.06,11.06,0,0,1,1.435.805m-.782.07a.305.305,0,1,1-.363-.217.3.3,0,0,1,.363.217" transform="translate(-4.398 -5.113)" fill="#f7941d"/>
            <path id="Trazado_773538" data-name="Trazado 773538" d="M112.1,131.471s.729-1.038.987-1.434m-1.236.354a11.06,11.06,0,0,1,1.435.805m-.782.07a.305.305,0,1,1-.363-.217A.3.3,0,0,1,112.5,131.266Z" transform="translate(-4.398 -5.113)" fill="none" stroke="#221e1f" stroke-width="0.209"/>
            <path id="Trazado_773539" data-name="Trazado 773539" d="M112.614,78.018s-1,5.815.264,6.488-.264-6.488-.264-6.488" transform="translate(-4.413 -3.067)" fill="#f7941d"/>
            <path id="Trazado_773540" data-name="Trazado 773540" d="M112.614,78.018s-1,5.815.264,6.488S112.614,78.018,112.614,78.018Z" transform="translate(-4.413 -3.067)" fill="none" stroke="#221e1f" stroke-width="0.76"/>
            <path id="Trazado_773541" data-name="Trazado 773541" d="M114.672,81.19a2.15,2.15,0,1,1-2.56-1.533,2.111,2.111,0,0,1,2.56,1.533" transform="translate(-4.342 -3.13)" fill="#f7941d"/>
            <path id="Trazado_773542" data-name="Trazado 773542" d="M114.849,80.692a2.218,2.218,0,1,1-2.676-1.725,2.249,2.249,0,0,1,2.676,1.725" transform="translate(-4.343 -3.103)" fill="#f7941d"/>
            <path id="Trazado_773543" data-name="Trazado 773543" d="M112.285,82.912a.265.265,0,0,1-.516.118.258.258,0,0,1,.2-.307.263.263,0,0,1,.317.189" transform="translate(-4.394 -3.252)" fill="#f7941d"/>
            <path id="Trazado_773544" data-name="Trazado 773544" d="M113.149,82.71a.266.266,0,0,1-.517.121.266.266,0,0,1,.517-.121" transform="translate(-4.428 -3.244)" fill="#f7941d"/>
            <path id="Trazado_773545" data-name="Trazado 773545" d="M113.33,83.49a.266.266,0,1,1-.318-.191.26.26,0,0,1,.318.191" transform="translate(-4.435 -3.275)" fill="#f7941d"/>
            <path id="Trazado_773546" data-name="Trazado 773546" d="M112.464,83.69a.261.261,0,0,1-.2.308.256.256,0,1,1-.115-.5.261.261,0,0,1,.317.19" transform="translate(-4.401 -3.283)" fill="#f7941d"/>
            <path id="Trazado_773547" data-name="Trazado 773547" d="M114.922,80.749a2.472,2.472,0,1,1-2.944-1.764,2.429,2.429,0,0,1,2.944,1.764" transform="translate(-4.327 -3.103)" fill="#f7941d"/>
            <path id="Trazado_773548" data-name="Trazado 773548" d="M114.922,80.749a2.472,2.472,0,1,1-2.944-1.764A2.429,2.429,0,0,1,114.922,80.749Z" transform="translate(-4.327 -3.103)" fill="none" stroke="#221e1f" stroke-width="0.209"/>
            <path id="Trazado_773549" data-name="Trazado 773549" d="M114.448,80.883a1.964,1.964,0,1,1-2.337-1.4,1.924,1.924,0,0,1,2.337,1.4" transform="translate(-4.348 -3.123)" fill="#f7941d"/>
            <path id="Trazado_773550" data-name="Trazado 773550" d="M114.448,80.883a1.964,1.964,0,1,1-2.337-1.4A1.924,1.924,0,0,1,114.448,80.883Z" transform="translate(-4.348 -3.123)" fill="none" stroke="#221e1f" stroke-width="0.209"/>
            <path id="Trazado_773551" data-name="Trazado 773551" d="M112.3,80.992a.3.3,0,1,1-.364-.217.3.3,0,0,1,.364.217" transform="translate(-4.392 -3.176)" fill="#f7941d"/>
            <path id="Trazado_773552" data-name="Trazado 773552" d="M112.3,80.992a.3.3,0,1,1-.364-.217A.3.3,0,0,1,112.3,80.992Z" transform="translate(-4.392 -3.176)" fill="none" stroke="#221e1f" stroke-width="0.209"/>
            <path id="Trazado_773553" data-name="Trazado 773553" d="M113.3,80.761a.306.306,0,1,1-.367-.216.3.3,0,0,1,.367.216" transform="translate(-4.431 -3.166)" fill="#f7941d"/>
            <path id="Trazado_773554" data-name="Trazado 773554" d="M113.3,80.761a.306.306,0,1,1-.367-.216A.3.3,0,0,1,113.3,80.761Z" transform="translate(-4.431 -3.166)" fill="none" stroke="#221e1f" stroke-width="0.209"/>
            <path id="Trazado_773555" data-name="Trazado 773555" d="M113.5,81.655a.306.306,0,1,1-.365-.216.3.3,0,0,1,.365.216" transform="translate(-4.439 -3.202)" fill="#f7941d"/>
            <path id="Trazado_773556" data-name="Trazado 773556" d="M113.5,81.655a.306.306,0,1,1-.365-.216A.3.3,0,0,1,113.5,81.655Z" transform="translate(-4.439 -3.202)" fill="none" stroke="#221e1f" stroke-width="0.209"/>
            <path id="Trazado_773557" data-name="Trazado 773557" d="M112.1,82.05s.729-1.038.987-1.435m-1.236.354a11,11,0,0,1,1.435.806m-.782.069a.3.3,0,0,1-.594.137.3.3,0,0,1,.594-.137" transform="translate(-4.398 -3.17)" fill="#f7941d"/>
            <path id="Trazado_773558" data-name="Trazado 773558" d="M112.1,82.05s.729-1.038.987-1.435m-1.236.354a11,11,0,0,1,1.435.806m-.782.069a.3.3,0,0,1-.594.137.3.3,0,0,1,.594-.137Z" transform="translate(-4.398 -3.17)" fill="none" stroke="#221e1f" stroke-width="0.209"/>
            <path id="Trazado_773559" data-name="Trazado 773559" d="M109.21,34.275s5.78,1.2,6.494-.048-6.494.048-6.494.048" transform="translate(-4.294 -1.325)" fill="#f7941d"/>
            <path id="Trazado_773560" data-name="Trazado 773560" d="M109.21,34.275s5.78,1.2,6.494-.048S109.21,34.275,109.21,34.275Z" transform="translate(-4.294 -1.325)" fill="none" stroke="#221e1f" stroke-width="0.76"/>
            <path id="Trazado_773561" data-name="Trazado 773561" d="M112.453,32.191a2.15,2.15,0,1,1-1.618,2.507,2.112,2.112,0,0,1,1.618-2.507" transform="translate(-4.356 -1.264)" fill="#f7941d"/>
            <path id="Trazado_773562" data-name="Trazado 773562" d="M111.961,31.99a2.219,2.219,0,1,1-1.814,2.618,2.251,2.251,0,0,1,1.814-2.618" transform="translate(-4.329 -1.256)" fill="#f7941d"/>
            <path id="Trazado_773563" data-name="Trazado 773563" d="M114.091,34.786a.264.264,0,0,1,.1.519.256.256,0,0,1-.3-.208.26.26,0,0,1,.2-.31" transform="translate(-4.478 -1.367)" fill="#f7941d"/>
            <path id="Trazado_773564" data-name="Trazado 773564" d="M113.918,33.915a.266.266,0,1,1-.2.31.258.258,0,0,1,.2-.31" transform="translate(-4.471 -1.333)" fill="#f7941d"/>
            <path id="Trazado_773565" data-name="Trazado 773565" d="M114.7,33.761a.265.265,0,1,1-.2.31.259.259,0,0,1,.2-.31" transform="translate(-4.502 -1.327)" fill="#f7941d"/>
            <path id="Trazado_773566" data-name="Trazado 773566" d="M114.875,34.632a.264.264,0,1,1-.2.311.259.259,0,0,1,.2-.311" transform="translate(-4.508 -1.361)" fill="#f7941d"/>
            <path id="Trazado_773567" data-name="Trazado 773567" d="M112.022,31.9a2.472,2.472,0,1,1-1.863,2.882,2.427,2.427,0,0,1,1.863-2.882" transform="translate(-4.329 -1.253)" fill="#f7941d"/>
            <path id="Trazado_773568" data-name="Trazado 773568" d="M112.022,31.9a2.472,2.472,0,1,1-1.863,2.882A2.427,2.427,0,0,1,112.022,31.9Z" transform="translate(-4.329 -1.253)" fill="none" stroke="#221e1f" stroke-width="0.209"/>
            <path id="Trazado_773569" data-name="Trazado 773569" d="M112.137,32.42a1.964,1.964,0,1,1-1.478,2.29,1.925,1.925,0,0,1,1.478-2.29" transform="translate(-4.349 -1.273)" fill="#f7941d"/>
            <path id="Trazado_773570" data-name="Trazado 773570" d="M112.137,32.42a1.964,1.964,0,1,1-1.478,2.29A1.925,1.925,0,0,1,112.137,32.42Z" transform="translate(-4.349 -1.273)" fill="none" stroke="#221e1f" stroke-width="0.209"/>
            <path id="Trazado_773571" data-name="Trazado 773571" d="M112.172,34.7a.3.3,0,0,1,.346.243.293.293,0,1,1-.575.112.3.3,0,0,1,.23-.355" transform="translate(-4.401 -1.364)" fill="#f7941d"/>
            <path id="Trazado_773572" data-name="Trazado 773572" d="M112.172,34.7a.3.3,0,0,1,.346.243.293.293,0,1,1-.575.112A.3.3,0,0,1,112.172,34.7Z" transform="translate(-4.401 -1.364)" fill="none" stroke="#221e1f" stroke-width="0.209"/>
            <path id="Trazado_773573" data-name="Trazado 773573" d="M111.975,33.7a.306.306,0,1,1-.229.358.3.3,0,0,1,.229-.358" transform="translate(-4.393 -1.325)" fill="#f7941d"/>
            <path id="Trazado_773574" data-name="Trazado 773574" d="M111.975,33.7a.306.306,0,1,1-.229.358A.3.3,0,0,1,111.975,33.7Z" transform="translate(-4.393 -1.325)" fill="none" stroke="#221e1f" stroke-width="0.209"/>
            <path id="Trazado_773575" data-name="Trazado 773575" d="M112.875,33.523a.306.306,0,1,1-.228.358.3.3,0,0,1,.228-.358" transform="translate(-4.429 -1.318)" fill="#f7941d"/>
            <path id="Trazado_773576" data-name="Trazado 773576" d="M112.875,33.523a.306.306,0,1,1-.228.358A.3.3,0,0,1,112.875,33.523Z" transform="translate(-4.429 -1.318)" fill="none" stroke="#221e1f" stroke-width="0.209"/>
            <path id="Trazado_773577" data-name="Trazado 773577" d="M113.226,34.9s-1.014-.762-1.4-1.034m.313,1.248a11.057,11.057,0,0,1,.853-1.407m.043.784a.3.3,0,0,1,.349.242.294.294,0,1,1-.577.113.3.3,0,0,1,.229-.355" transform="translate(-4.397 -1.325)" fill="#f7941d"/>
            <path id="Trazado_773578" data-name="Trazado 773578" d="M113.226,34.9s-1.014-.762-1.4-1.034m.313,1.248a11.057,11.057,0,0,1,.853-1.407m.043.784a.3.3,0,0,1,.349.242.294.294,0,1,1-.577.113A.3.3,0,0,1,113.034,34.494Z" transform="translate(-4.397 -1.325)" fill="none" stroke="#221e1f" stroke-width="0.209"/>
            <path id="Trazado_773579" data-name="Trazado 773579" d="M121.182,36.025V196.276c-.767,36.6,2.258,53.2,3.51,63.067" transform="translate(-4.76 -1.416)" fill="#f7941d"/>
            <path id="Trazado_773580" data-name="Trazado 773580" d="M121.182,36.025V196.276c-.767,36.6,2.258,53.2,3.51,63.067" transform="translate(-4.76 -1.416)" fill="none" stroke="#070707" stroke-width="0.532"/>
            <path id="Trazado_773581" data-name="Trazado 773581" d="M119.3,35.45V195.7c-.766,36.592,2.258,53.2,3.51,63.065" transform="translate(-4.686 -1.394)" fill="#f7941d"/>
            <path id="Trazado_773582" data-name="Trazado 773582" d="M119.3,35.45V195.7c-.766,36.592,2.258,53.2,3.51,63.065" transform="translate(-4.686 -1.394)" fill="none" stroke="#020303" stroke-linecap="round" stroke-linejoin="round" stroke-width="0.261" stroke-dasharray="1.045 1.045"/>
            <path id="Trazado_773583" data-name="Trazado 773583" d="M104.729,36.025V196.276c-.766,36.6,2.258,53.2,3.51,63.067" transform="translate(-4.113 -1.416)" fill="#f7941d"/>
            <path id="Trazado_773584" data-name="Trazado 773584" d="M104.729,36.025V196.276c-.766,36.6,2.258,53.2,3.51,63.067" transform="translate(-4.113 -1.416)" fill="none" stroke="#020303" stroke-linecap="round" stroke-linejoin="round" stroke-width="0.261" stroke-dasharray="1.045 1.045"/>
            <path id="Trazado_773585" data-name="Trazado 773585" d="M102.868,36.956a29.777,29.777,0,0,0,17.6,0" transform="translate(-4.044 -1.453)" fill="#f7941d"/>
            <path id="Trazado_773586" data-name="Trazado 773586" d="M102.868,36.956a29.777,29.777,0,0,0,17.6,0" transform="translate(-4.044 -1.453)" fill="none" stroke="#070707" stroke-width="0.532"/>
            <path id="Trazado_773587" data-name="Trazado 773587" d="M102.868,35.935a29.777,29.777,0,0,0,17.6,0" transform="translate(-4.044 -1.413)" fill="#f7941d"/>
            <path id="Trazado_773588" data-name="Trazado 773588" d="M102.868,35.935a29.777,29.777,0,0,0,17.6,0" transform="translate(-4.044 -1.413)" fill="none" stroke="#020303" stroke-linecap="round" stroke-linejoin="round" stroke-width="0.261" stroke-dasharray="1.045 1.045"/>
            <path id="Trazado_773589" data-name="Trazado 773589" d="M102.868,30.429a29.777,29.777,0,0,0,17.6,0" transform="translate(-4.044 -1.196)" fill="#f7941d"/>
            <path id="Trazado_773590" data-name="Trazado 773590" d="M102.868,30.429a29.777,29.777,0,0,0,17.6,0" transform="translate(-4.044 -1.196)" fill="none" stroke="#020303" stroke-linecap="round" stroke-linejoin="round" stroke-width="0.261" stroke-dasharray="1.045 1.045"/>
            <path id="Trazado_773591" data-name="Trazado 773591" d="M91.556,5.457s31.161-3.159,39.985,0l-1.851,8.24s-27.892-.823-35.29.55Z" transform="translate(-3.6 -0.159)" fill="#f7941d"/>
            <path id="Trazado_773592" data-name="Trazado 773592" d="M91.556,5.457s31.161-3.159,39.985,0l-1.851,8.24s-27.892-.823-35.29.55Z" transform="translate(-3.6 -0.159)" fill="none" stroke="#070707" stroke-width="0.377"/>
            <path id="Trazado_773593" data-name="Trazado 773593" d="M129.49,3.154s5.125-.994,2,6.1" transform="translate(-5.091 -0.122)" fill="#f7941d"/>
            <path id="Trazado_773594" data-name="Trazado 773594" d="M129.49,3.154s5.125-.994,2,6.1" transform="translate(-5.091 -0.122)" fill="none" stroke="#070707" stroke-linecap="round" stroke-width="0.377"/>
            <path id="Trazado_773595" data-name="Trazado 773595" d="M92.734,6.872s24.53-1.686,37.821-.19" transform="translate(-3.646 -0.238)" fill="#f7941d"/>
            <path id="Trazado_773596" data-name="Trazado 773596" d="M92.734,6.872s24.53-1.686,37.821-.19" transform="translate(-3.646 -0.238)" fill="none" stroke="#020303" stroke-linecap="round" stroke-linejoin="round" stroke-width="0.261" stroke-dasharray="1.045 1.045"/>
            <path id="Trazado_773597" data-name="Trazado 773597" d="M91.977,13.532s24.53-1.686,37.82-.19" transform="translate(-3.616 -0.5)" fill="#f7941d"/>
            <path id="Trazado_773598" data-name="Trazado 773598" d="M91.977,13.532s24.53-1.686,37.82-.19" transform="translate(-3.616 -0.5)" fill="none" stroke="#020303" stroke-linecap="round" stroke-linejoin="round" stroke-width="0.261" stroke-dasharray="1.045 1.045"/>
            <path id="Trazado_773599" data-name="Trazado 773599" d="M95.216,3.153S90.363,1.9,93.49,8.994" transform="translate(-3.634 -0.121)" fill="#f7941d"/>
            <path id="Trazado_773600" data-name="Trazado 773600" d="M95.216,3.153S90.363,1.9,93.49,8.994" transform="translate(-3.634 -0.121)" fill="none" stroke="#070707" stroke-linecap="round" stroke-width="0.377"/>
            <path id="Trazado_773601" data-name="Trazado 773601" d="M111.887,4.451c15.711,0,18.632,1.2,18.632,1.2L111.86,28.388s1.016-.169,4.834,4.835L125.6,47.217s.672.76,1.267.164c0,0,15.629-29.17,15.629-30.358L132.545,1.882a4.212,4.212,0,0,1-1.038.055S122.446.783,111.744.523h-1.4c-10.7.26-19.763,1.414-19.763,1.414a4.2,4.2,0,0,1-1.037-.055L79.595,17.024c0,1.187,15.631,30.358,15.631,30.358.594.6,1.266-.164,1.266-.164L105.4,33.223c3.818-5,4.834-4.835,4.834-4.835L91.573,5.652s2.921-1.2,18.632-1.2Z" transform="translate(-3.129 -0.021)" fill="#f7941d"/>
            <path id="Trazado_773602" data-name="Trazado 773602" d="M111.887,4.451c15.711,0,18.632,1.2,18.632,1.2L111.86,28.388s1.016-.169,4.834,4.835L125.6,47.217s.672.76,1.267.164c0,0,15.629-29.17,15.629-30.358L132.545,1.882a4.212,4.212,0,0,1-1.038.055S122.446.783,111.744.523h-1.4c-10.7.26-19.763,1.414-19.763,1.414a4.2,4.2,0,0,1-1.037-.055L79.595,17.024c0,1.187,15.631,30.358,15.631,30.358.594.6,1.266-.164,1.266-.164L105.4,33.223c3.818-5,4.834-4.835,4.834-4.835L91.573,5.652s2.921-1.2,18.632-1.2Z" transform="translate(-3.129 -0.021)" fill="none" stroke="#020303" stroke-width="1.045"/>
            <g id="Grupo_1054662" data-name="Grupo 1054662" transform="translate(95.009 13.418)" opacity="0.25">
              <g id="Grupo_1054661" data-name="Grupo 1054661">
                <g id="Grupo_1054660" data-name="Grupo 1054660" clip-path="url(#clip-path-12)">
                  <path id="Trazado_773603" data-name="Trazado 773603" d="M98.9,14.179,110.992,29.7l13.9-15.738Z" transform="translate(-98.898 -13.967)" fill="#f7941d"/>
                </g>
              </g>
            </g>
            <path id="Trazado_773604" data-name="Trazado 773604" d="M92.48,6.61S89.061,2.863,91.316,3.3" transform="translate(-3.56 -0.128)" fill="#f7941d"/>
            <path id="Trazado_773605" data-name="Trazado 773605" d="M92.48,6.61S89.061,2.863,91.316,3.3" transform="translate(-3.56 -0.128)" fill="none" stroke="#020303" stroke-width="1.045"/>
            <path id="Trazado_773606" data-name="Trazado 773606" d="M132.2,6.568s3.418-3.747,1.163-3.31" transform="translate(-5.198 -0.127)" fill="#f7941d"/>
            <path id="Trazado_773607" data-name="Trazado 773607" d="M132.2,6.568s3.418-3.747,1.163-3.31" transform="translate(-5.198 -0.127)" fill="none" stroke="#020303" stroke-width="1.045"/>
          </g>
        </g>
      </g>
    </g>
  </g>
</svg>
