<svg xmlns="http://www.w3.org/2000/svg" width="76" height="76" viewBox="0 0 76 76">
  <g id="Grupo_57263" data-name="Grupo 57263" transform="translate(-392 -3872)">
    <g id="ansiedad" transform="translate(404.999 3885)">
      <g id="Grupo_57209" data-name="Grupo 57209" transform="translate(0.719 0.67)">
        <path id="Trazado_101367" data-name="Trazado 101367" d="M146.009,40.562A6.994,6.994,0,0,0,144.777,36,6.943,6.943,0,0,0,133.11,43.29a7.442,7.442,0,0,0,1.629,2.027,6.537,6.537,0,0,0,4.828,1.76A6.177,6.177,0,0,0,146.009,40.562Z" transform="translate(-120.532 -30.963)" fill="#b3e59f"/>
        <path id="Trazado_101368" data-name="Trazado 101368" d="M144.669,47.819a6.959,6.959,0,0,1,.354,4.454.476.476,0,0,1-.394.354,9.749,9.749,0,0,0-4.838,2.076.48.48,0,0,1-.4.1,5.257,5.257,0,0,0-1.034-.108h-.05a6.344,6.344,0,0,0-3.81,1.256l-.009,0a.4.4,0,0,1-.42-.637,8.565,8.565,0,0,0,1.381-8.607,6.94,6.94,0,0,0-2.38,8.428l0,0c.021.043.017.048.072.159a6.942,6.942,0,1,0,11.531-7.475Z" transform="translate(-120.531 -42.907)" fill="#95d6a4"/>
        <path id="Trazado_101369" data-name="Trazado 101369" d="M21.1,13.894a6.586,6.586,0,0,0-1.762-4.876,6.943,6.943,0,0,0-10.83,8.524,6.928,6.928,0,0,0,6.09,3.013,6.344,6.344,0,0,0,6.5-6.661Z" transform="translate(-7.501 -7)" fill="#df646e"/>
        <path id="Trazado_101370" data-name="Trazado 101370" d="M30.572,30.652A6.942,6.942,0,0,1,17.661,34.2a6.942,6.942,0,0,0,10.6-8.717A6.922,6.922,0,0,1,30.572,30.652Z" transform="translate(-16.688 -23.711)" fill="#dc4955"/>
        <path id="Trazado_101371" data-name="Trazado 101371" d="M361.082,202.442a6.684,6.684,0,0,0-2.259-5.386,6.943,6.943,0,0,0-10.048,9.4c1.258,1.774,3.71,2.34,6.05,2.34C358.659,208.792,361.082,206.276,361.082,202.442Z" transform="translate(-314.945 -177.451)" fill="#df646e"/>
        <path id="Trazado_101372" data-name="Trazado 101372" d="M370.6,218.191a5.788,5.788,0,0,0,.562-.7,6.939,6.939,0,0,0-1.813-9.775,6.94,6.94,0,0,1-.259,8.074.476.476,0,0,1-.486.173,8.622,8.622,0,0,0-1.963-.225,8.529,8.529,0,0,0-5.537,2.035.479.479,0,0,1-.515.067,6.891,6.891,0,0,1-.869-.495A6.936,6.936,0,0,0,370.6,218.191Z" transform="translate(-325.995 -188.501)" fill="#dc4955"/>
        <path id="Trazado_101373" data-name="Trazado 101373" d="M373.1,315.394a6.586,6.586,0,0,0-1.762-4.876,6.908,6.908,0,1,0-4.74,11.537A6.344,6.344,0,0,0,373.1,315.394Z" transform="translate(-325.797 -279.631)" fill="#faf8f8"/>
        <path id="Trazado_101374" data-name="Trazado 101374" d="M382.572,332.152a6.942,6.942,0,0,1-12.911,3.545,6.942,6.942,0,0,0,10.6-8.717A6.922,6.922,0,0,1,382.572,332.152Z" transform="translate(-334.984 -296.341)" fill="#f0e9e6"/>
        <path id="Trazado_101375" data-name="Trazado 101375" d="M373.1,13.894a6.586,6.586,0,0,0-1.762-4.876,6.943,6.943,0,0,0-10.83,8.524,6.927,6.927,0,0,0,6.09,3.013,6.344,6.344,0,0,0,6.5-6.661Z" transform="translate(-325.796 -7)" fill="#faf8f8"/>
        <path id="Trazado_101376" data-name="Trazado 101376" d="M382.572,30.652A6.942,6.942,0,0,1,369.661,34.2a6.942,6.942,0,0,0,10.6-8.717A6.922,6.922,0,0,1,382.572,30.652Z" transform="translate(-334.984 -23.711)" fill="#f0e9e6"/>
        <path id="Trazado_101377" data-name="Trazado 101377" d="M197.125,407.37,193.132,405l-8.774-.021-1.521.461-1.258,5.079,3.446,3.99h7.437Z" transform="translate(-164.911 -366.876)" fill="#faf8f8"/>
        <path id="Trazado_101378" data-name="Trazado 101378" d="M211.712,360.555l-1.221,2.214-.235,2.032a2.9,2.9,0,0,0,.608,2.159,5.36,5.36,0,0,0,7.584,0,2.83,2.83,0,0,0,.531-1.056c.094-.356-.377-.859-.42-1.231l.009-4.268Z" transform="translate(-190.823 -326.566)" fill="#f2d1a5"/>
        <path id="Trazado_101379" data-name="Trazado 101379" d="M212.9,362.771l.256-2.214,7.822-.15.476,4.289.342.693-.408.517-.693-.208c-.423-.094-.38-.68-.427-1l-.077-.693a.442.442,0,0,0-.607-.36,6.729,6.729,0,0,1-2.518.512,7.6,7.6,0,0,1-4.166-1.382Z" transform="translate(-193.231 -326.568)" fill="#f2bb88"/>
        <path id="Trazado_101380" data-name="Trazado 101380" d="M294.022,414.2a21,21,0,0,0,1.878-6.789.662.662,0,0,0-.467-.715l-.934-.281a2.972,2.972,0,0,0,.077-1.1l-.012-.106,1.515.456,4.524,1.361c1.868.562,1.03,6.227,1.03,6.227L295,414.712h-1.247Z" transform="translate(-266.344 -367.075)" fill="#f0e9e6"/>
        <path id="Trazado_101381" data-name="Trazado 101381" d="M109.986,415.216l.836,2.859,8.361.787h1.247l-.269-.513a23.349,23.349,0,0,1-2.03-8.326,1.807,1.807,0,0,0-.031-.229l-4.531,1.373A5.154,5.154,0,0,0,109.986,415.216Z" transform="translate(-100.173 -371.226)" fill="#f0e9e6"/>
        <path id="Trazado_101382" data-name="Trazado 101382" d="M93.716,414.038a.736.736,0,0,1-.725-.866l.528-2.962a6.225,6.225,0,0,1,4.363-4.922l2.633-.792a.883.883,0,0,1,1.136.781,24.084,24.084,0,0,0,2.154,8.76Z" transform="translate(-84.795 -366.402)" fill="#f5de46"/>
        <path id="Trazado_101383" data-name="Trazado 101383" d="M157.4,261.42h.493a2.139,2.139,0,0,1,2.135,2.143,2.95,2.95,0,0,1-2.945,2.956h-17.01a2.95,2.95,0,0,1-2.945-2.956,2.139,2.139,0,0,1,2.135-2.143H157.4Z" transform="translate(-124.717 -237.059)" fill="#f2bb88"/>
        <path id="Trazado_101384" data-name="Trazado 101384" d="M173.81,180.185c0,3.749-.072,4.98-1.6,7.1-2.1,2.923-4.724,4.908-7.225,4.908s-5.121-1.985-7.225-4.908c-1.274-1.77-1.534-2.921-1.585-5.437-.01-.5.337-1.262.337-1.879l-1.24-8.385,19.366,2.594Z" transform="translate(-141.125 -155.824)" fill="#f2d1a5"/>
        <path id="Trazado_101385" data-name="Trazado 101385" d="M175.179,174.828l-.824,5.955a4.969,4.969,0,0,0-1.862-2.3c-2.775-1.814-5.694.652-10.163-3.317h0l-.2-.178a.369.369,0,0,0-.6.148c-.079.224-.161.442-.25.653a5.125,5.125,0,0,1-2.085,2.607c-1.217.719-2.244,3.438-2.482,4.107-.01-.5-.012-1.046-.012-1.663l-.834-8.051.454-.482Z" transform="translate(-141.663 -156.474)" fill="#f2bb88"/>
        <path id="Trazado_101386" data-name="Trazado 101386" d="M144.356,127.563c-.133.419-.155,1.368-.313,1.747a5.125,5.125,0,0,1-2.085,2.608c-1.391.821-2.2,3.7-2.2,3.7-1.818,0-2.628-2.717-2.628-4.581,0-4.348,2.651-6.576,5.4-6.555a3.72,3.72,0,0,1,1.032.149c.191.056.416.3.61.392.162-.172.3-.5.473-.655a8.673,8.673,0,0,1,5.877-2.072,10.672,10.672,0,0,1,2.632.508c6.7,1.711,7.895,11.14,4.213,12.467a6.047,6.047,0,0,0-.159-.694,4.953,4.953,0,0,0-1.957-2.567c-2.775-1.814-5.694.653-10.163-3.317C144.887,128.509,144.564,127.769,144.356,127.563Z" transform="translate(-124.717 -111.252)" fill="#7a6d79"/>
        <path id="Trazado_101387" data-name="Trazado 101387" d="M276.458,135.613s-.006-.088-.017-.2a3.922,3.922,0,0,0-.177-.84c1.981-2.943.367-10.448-5.378-11.916a11.716,11.716,0,0,0-2.094-.34,11.224,11.224,0,0,1,3.567.34C279.057,124.369,280.14,134.285,276.458,135.613Z" transform="translate(-243.774 -111.252)" fill="#685e68"/>
        <g id="Grupo_57207" data-name="Grupo 57207" transform="translate(0.383 23.986)">
          <path id="Trazado_101388" data-name="Trazado 101388" d="M25.009,264.562A6.994,6.994,0,0,0,23.777,260,6.943,6.943,0,0,0,12.11,267.29a7.442,7.442,0,0,0,1.629,2.027,6.537,6.537,0,0,0,4.828,1.76,6.177,6.177,0,0,0,6.442-6.515Z" transform="translate(-11.501 -257.5)" fill="#b3e59f"/>
          <path id="Trazado_101389" data-name="Trazado 101389" d="M30.729,286.867a6.943,6.943,0,0,1-13.318,2.748,6.943,6.943,0,0,0,11.6-7.315A6.914,6.914,0,0,1,30.729,286.867Z" transform="translate(-16.845 -279.925)" fill="#95d6a4"/>
          <g id="Grupo_57206" data-name="Grupo 57206" transform="translate(6.99 10.943)">
            <g id="Grupo_57205" data-name="Grupo 57205">
              <path id="Trazado_101390" data-name="Trazado 101390" d="M84.5,371.836v-.048" transform="translate(-84.504 -371.788)" fill="#faf8f8"/>
            </g>
          </g>
        </g>
        <g id="Grupo_57208" data-name="Grupo 57208" transform="translate(28.661 38.057)">
          <path id="Trazado_101391" data-name="Trazado 101391" d="M316.6,418.544a.736.736,0,0,0,.722-.867l-.852-2.666a5.315,5.315,0,0,0-4.05-4.471l-2.218-.568c-.541-.161-.674-.412-.714.152-.01.144-.554.261-.568.427a23.43,23.43,0,0,1-2.1,8.294l9.352-.022Z" transform="translate(-306.824 -409.266)" fill="#f5de46"/>
          <path id="Trazado_101392" data-name="Trazado 101392" d="M328.709,405.745l2.407.718a6.221,6.221,0,0,1,4.371,4.908l.478,2.646.729,0a.736.736,0,0,0,.723-.866l-.534-2.959a6.221,6.221,0,0,0-4.371-4.908l-2.633-.785a.882.882,0,0,0-1.133.783c-.01.144-.022.3-.037.465Z" transform="translate(-326.613 -404.46)" fill="#f3d332"/>
        </g>
      </g>
      <g id="Grupo_57210" data-name="Grupo 57210" transform="translate(0.001)">
        <path id="Trazado_101393" data-name="Trazado 101393" d="M395.887,221.223a.718.718,0,0,0,.718-.718.983.983,0,0,1,.009-.136.969.969,0,0,1,.96-.833h.02a.969.969,0,0,1,.682,1.636.961.961,0,0,1-.7.3.718.718,0,0,0-.718.718v1.764a.718.718,0,1,0,1.436,0V222.8a2.415,2.415,0,0,0,1.026-.639,2.387,2.387,0,0,0,.658-1.783,2.405,2.405,0,0,0-4.808.127A.718.718,0,0,0,395.887,221.223Z" transform="translate(-357.331 -197.217)"/>
        <path id="Trazado_101394" data-name="Trazado 101394" d="M198.719,62.607a.718.718,0,0,0,.718-.718V56.718a.718.718,0,0,0-1.436,0v5.171A.718.718,0,0,0,198.719,62.607Z" transform="translate(-179.042 -50.638)"/>
        <path id="Trazado_101395" data-name="Trazado 101395" d="M359.661,15.32A7.66,7.66,0,1,0,352,7.66,7.669,7.669,0,0,0,359.661,15.32Zm0-13.884a6.224,6.224,0,1,1-6.224,6.224A6.231,6.231,0,0,1,359.661,1.436Z" transform="translate(-318.296)"/>
        <path id="Trazado_101396" data-name="Trazado 101396" d="M59.977,32.378A2.413,2.413,0,0,0,57.624,30.1h-.049a2.4,2.4,0,0,0-2.405,2.405.718.718,0,1,0,1.436,0,.987.987,0,0,1,.009-.136.969.969,0,0,1,.96-.833h.02a.969.969,0,0,1,.683,1.636.961.961,0,0,1-.7.3.718.718,0,0,0-.718.718v1.764a.718.718,0,0,0,1.436,0V34.8a2.415,2.415,0,0,0,1.026-.639A2.387,2.387,0,0,0,59.977,32.378Z" transform="translate(-49.887 -27.218)"/>
        <path id="Trazado_101397" data-name="Trazado 101397" d="M73.723,114.288a.718.718,0,0,0-.718.718v.048a.718.718,0,0,0,1.436,0v-.048A.718.718,0,0,0,73.723,114.288Z" transform="translate(-66.015 -103.345)"/>
        <path id="Trazado_101398" data-name="Trazado 101398" d="M77.723,364.288a.718.718,0,0,0-.718.718v.048a.718.718,0,0,0,1.436,0v-.048A.718.718,0,0,0,77.723,364.288Z" transform="translate(-69.632 -329.407)"/>
        <path id="Trazado_101399" data-name="Trazado 101399" d="M77.719,286.607a.718.718,0,0,0,.718-.718v-5.171a.718.718,0,1,0-1.436,0v5.171A.718.718,0,0,0,77.719,286.607Z" transform="translate(-69.628 -253.19)"/>
        <path id="Trazado_101400" data-name="Trazado 101400" d="M48.269,35.45a.718.718,0,0,0-.686.749c0,.094.006.188.006.282A6.227,6.227,0,0,1,39.8,42.505a6.946,6.946,0,0,0-4.181-3.639,6.225,6.225,0,0,1,5.75-8.608,6.254,6.254,0,0,1,5.369,3.073.718.718,0,0,0,1.238-.728,7.642,7.642,0,0,0-1.821-2.1A7.66,7.66,0,0,0,36.037,19.243a10.14,10.14,0,0,0-2.952-5.879.718.718,0,1,0-.989,1.042,8.926,8.926,0,0,1,2.49,7.719,3.9,3.9,0,0,1-.652,1.586,5.079,5.079,0,0,0-2.31-2.909,6.989,6.989,0,0,0-3.876-.926,8.507,8.507,0,0,1-6.615-2.7l-.273-2.663A8.606,8.606,0,0,1,29.1,12.744c.137.035.272.074.4.116a.718.718,0,0,0,.44-1.367c-.159-.051-.323-.1-.488-.141a12.447,12.447,0,0,0-2.213-.36,7.663,7.663,0,0,0-7.614-8.5,7.646,7.646,0,0,0-5.045,1.9A7.66,7.66,0,1,0,1.867,12.671a.718.718,0,1,0,1.086-.94,6.205,6.205,0,1,1,2.465,1.737.718.718,0,0,0-.518,1.34,7.654,7.654,0,0,0,7.8-1.387,7.67,7.67,0,0,0,1.277,1.9,7.882,7.882,0,0,0-1.6,5.109,7.128,7.128,0,0,0,1.351,4.3,2.879,2.879,0,0,0-.9.888,7.576,7.576,0,0,0-4.783-1.677A7.66,7.66,0,1,0,15.7,31.6a7.736,7.736,0,0,0-.04-.783l.059,0a9.655,9.655,0,0,0,1.016,1.718,16.438,16.438,0,0,0,3.043,3.269l-.279,2.4-1.5.452a1.6,1.6,0,0,0-1.778-.622l-2.636.8a7.327,7.327,0,0,0-3.219,2.06,7.007,7.007,0,0,0-1.646,3.444l-.682,3.844a.718.718,0,0,0,.581.833.73.73,0,0,0,.126.011.718.718,0,0,0,.706-.593l.683-3.847a5.575,5.575,0,0,1,1.3-2.737,5.878,5.878,0,0,1,2.562-1.64l2.635-.8a.16.16,0,0,1,.141.022.163.163,0,0,1,.072.126,23.215,23.215,0,0,0,.418,2.925.718.718,0,1,0,1.408-.286c-.154-.759-.267-1.476-.338-2.142l1.107-.334a3.607,3.607,0,0,0,.751,1.76,5.277,5.277,0,0,0,4.355,1.846,5.277,5.277,0,0,0,4.355-1.847A3.61,3.61,0,0,0,29.66,39.7l1.11.338a29.949,29.949,0,0,1-.54,3.578l-.682,2.462a14.109,14.109,0,0,1-.806,1.891.718.718,0,1,0,1.273.665,15.584,15.584,0,0,0,.9-2.108c0-.014.009-.029.014-.043l.693-2.5c0-.013.007-.026.01-.039a31.772,31.772,0,0,0,.621-4.385.162.162,0,0,1,.072-.126.159.159,0,0,1,.141-.022l2.635.795a5.531,5.531,0,0,1,3.867,4.381l.682,3.844a.718.718,0,0,0,1.414-.251c-.172-.945-.564-3.221-.735-4.111a7.657,7.657,0,0,0,8.7-7.589c0-.114,0-.23-.008-.345a.721.721,0,0,0-.749-.686ZM46.44,25.661a6.173,6.173,0,0,1-1.5,4.051,7.631,7.631,0,0,0-8.492.9,6.2,6.2,0,0,1-.861-.794,3.67,3.67,0,0,0,1.142-2.662,2.866,2.866,0,0,0-1.645-2.592,5.324,5.324,0,0,0,.909-2.157,8.289,8.289,0,0,0,.153-1.455A6.223,6.223,0,0,1,46.44,25.661Zm-12.344.09a1.425,1.425,0,0,1,1.2,1.407,2.243,2.243,0,0,1-1.424,2.088A19.623,19.623,0,0,0,34.1,25.751ZM15.321,7.66a7.645,7.645,0,0,0-.213-1.787A6.224,6.224,0,0,1,25.854,10.15a6.3,6.3,0,0,1-.057.832A9.222,9.222,0,0,0,19.944,13.4a4.852,4.852,0,0,0-1.484-.246,5.665,5.665,0,0,0-3.452,1.167,6.225,6.225,0,0,1-1.232-2.05A7.621,7.621,0,0,0,15.321,7.66Zm.121,8.179a4.261,4.261,0,0,1,3.051-1.252,2.971,2.971,0,0,1,.945.156l.275,2.685A5.377,5.377,0,0,1,17.56,20.7a4.672,4.672,0,0,0-2.478,3.353,5.292,5.292,0,0,1-1.271-3.62,6.29,6.29,0,0,1,1.632-4.59ZM13.811,27.158a1.425,1.425,0,0,1,1.2-1.407,19.623,19.623,0,0,0,.228,3.495A2.243,2.243,0,0,1,13.811,27.158Zm.457,4.44a6.224,6.224,0,1,1-6.224-6.224,6.161,6.161,0,0,1,4.331,1.755c0,.01,0,.019,0,.029a3.679,3.679,0,0,0,1.756,3.136A6.264,6.264,0,0,1,14.268,31.6Zm3.637.1c-1.405-1.953-1.463-3-1.463-6.685a3.229,3.229,0,0,1,1.848-3.08,6,6,0,0,0,2.469-3.159,9.793,9.793,0,0,0,6.94,2.537A5.626,5.626,0,0,1,30.837,22a3.327,3.327,0,0,1,1.826,3.009c0,3.687-.058,4.733-1.463,6.685-2.11,2.932-4.533,4.613-6.647,4.613S20.015,34.63,17.9,31.7Zm9.882,8.886a3.916,3.916,0,0,1-3.235,1.31,3.917,3.917,0,0,1-3.235-1.31,2.215,2.215,0,0,1-.455-1.637l.259-2.222a6.9,6.9,0,0,0,3.431,1.022,6.9,6.9,0,0,0,3.432-1.022l.258,2.223A2.216,2.216,0,0,1,27.787,40.585Zm3.721-2.333a1.6,1.6,0,0,0-.4.393l-1.51-.46-.276-2.379a16.438,16.438,0,0,0,3.042-3.268,9.656,9.656,0,0,0,1.016-1.718,3.631,3.631,0,0,0,.979-.223,7.64,7.64,0,0,0,1.073,1.047,7.668,7.668,0,0,0-1.5,6.714l-1.058-.319a1.593,1.593,0,0,0-1.37.214Z" transform="translate(-0.001 0)"/>
        <path id="Trazado_101401" data-name="Trazado 101401" d="M190.216,469.009a.718.718,0,1,0-1.375.414c.489,1.625.928,2.739.947,2.786a.718.718,0,1,0,1.336-.528C191.119,471.67,190.688,470.577,190.216,469.009Z" transform="translate(-170.731 -423.638)"/>
        <path id="Trazado_101402" data-name="Trazado 101402" d="M273.4,272.191l1.907,1.1a.718.718,0,0,0,.718-1.244l-.83-.479.83-.479a.718.718,0,1,0-.718-1.244l-1.907,1.1a.718.718,0,0,0,0,1.244Z" transform="translate(-246.898 -243.921)"/>
        <path id="Trazado_101403" data-name="Trazado 101403" d="M207.025,270.946l-1.907-1.1a.718.718,0,1,0-.718,1.244l.83.479-.83.479a.718.718,0,1,0,.718,1.244l1.907-1.1a.718.718,0,0,0,0-1.244Z" transform="translate(-184.504 -243.92)"/>
        <path id="Trazado_101404" data-name="Trazado 101404" d="M243.469,340.718a.718.718,0,0,0-.718-.718h-1.532a.718.718,0,1,0,0,1.436h1.532A.718.718,0,0,0,243.469,340.718Z" transform="translate(-217.473 -307.444)"/>
        <path id="Trazado_101405" data-name="Trazado 101405" d="M241.32,308.349a2.034,2.034,0,0,0,2.233,0,.718.718,0,1,0-.8-1.2.607.607,0,0,1-.64,0,.718.718,0,1,0-.8,1.2Z" transform="translate(-217.924 -277.634)"/>
        <circle id="Elipse_32" data-name="Elipse 32" cx="0.718" cy="0.718" r="0.718" transform="translate(37.822 6.894)"/>
        <circle id="Elipse_33" data-name="Elipse 33" cx="0.718" cy="0.718" r="0.718" transform="translate(43.567 6.894)"/>
        <circle id="Elipse_34" data-name="Elipse 34" cx="0.718" cy="0.718" r="0.718" transform="translate(40.694 6.894)"/>
        <circle id="Elipse_35" data-name="Elipse 35" cx="0.718" cy="0.718" r="0.718" transform="translate(37.726 35.715)"/>
        <circle id="Elipse_36" data-name="Elipse 36" cx="0.718" cy="0.718" r="0.718" transform="translate(43.471 35.715)"/>
        <circle id="Elipse_37" data-name="Elipse 37" cx="0.718" cy="0.718" r="0.718" transform="translate(40.599 35.715)"/>
      </g>
    </g>
    <rect id="Rectángulo_5543" data-name="Rectángulo 5543" width="76" height="76" transform="translate(392 3872)" fill="none"/>
  </g>
</svg>
