<svg xmlns="http://www.w3.org/2000/svg" width="76" height="76" viewBox="0 0 76 76">
  <g id="Grupo_57262" data-name="Grupo 57262" transform="translate(-392 -3785)">
    <g id="decrease" transform="translate(403 3796)">
      <g id="Grupo_57213" data-name="Grupo 57213" transform="translate(10.229 16.94)">
        <path id="Trazado_101433" data-name="Trazado 101433" d="M17.034,55.237V20H12V55.237" transform="translate(-12 -20)" fill="#f5b953"/>
      </g>
      <g id="Grupo_57214" data-name="Grupo 57214" transform="translate(27.008 33.72)">
        <path id="Trazado_101434" data-name="Trazado 101434" d="M37.034,58.457V40H32V58.457" transform="translate(-32 -40)" fill="#f5b953"/>
      </g>
      <g id="Grupo_57215" data-name="Grupo 57215" transform="translate(18.618 25.33)">
        <path id="Trazado_101435" data-name="Trazado 101435" d="M27.034,56.847V30H22V56.847" transform="translate(-22 -30)" fill="#78b75b"/>
      </g>
      <g id="Grupo_57216" data-name="Grupo 57216" transform="translate(35.398 42.11)">
        <path id="Trazado_101436" data-name="Trazado 101436" d="M47.034,60.068V50H42V60.068" transform="translate(-42 -50)" fill="#78b75b"/>
      </g>
      <g id="Grupo_57217" data-name="Grupo 57217" transform="translate(27.008 1.839)">
        <path id="Trazado_101437" data-name="Trazado 101437" d="M32,23.8a3.371,3.371,0,0,0,3.371,3.371H53.8a3.371,3.371,0,0,0,2.991-4.926L47.037,3.488a2.764,2.764,0,0,0-4.9,0L32.38,22.243A3.365,3.365,0,0,0,32,23.8Z" transform="translate(-32 -2)" fill="#f5b953"/>
      </g>
      <g id="Grupo_57218" data-name="Grupo 57218" transform="translate(37.915 20.296)">
        <path id="Trazado_101438" data-name="Trazado 101438" d="M45,24h3.356v3.356H45Z" transform="translate(-45 -24)" fill="#fff"/>
      </g>
      <g id="Grupo_57219" data-name="Grupo 57219" transform="translate(37.915 6.873)">
        <path id="Trazado_101439" data-name="Trazado 101439" d="M45,8h3.356V18.068H45Z" transform="translate(-45 -8)" fill="#fff"/>
      </g>
      <g id="Grupo_57220" data-name="Grupo 57220" transform="translate(1 1)">
        <path id="Trazado_101440" data-name="Trazado 101440" d="M53.016,53.016H1.839A.838.838,0,0,1,1,52.177V1H2.678V51.338H53.016Z" transform="translate(-1 -1)"/>
      </g>
      <g id="Grupo_57221" data-name="Grupo 57221" transform="translate(1.839 46.304)">
        <path id="Trazado_101441" data-name="Trazado 101441" d="M2,55H7.873v1.678H2Z" transform="translate(-2 -55)"/>
      </g>
      <g id="Grupo_57222" data-name="Grupo 57222" transform="translate(1.839 41.271)">
        <path id="Trazado_101442" data-name="Trazado 101442" d="M2,49H7.873v1.678H2Z" transform="translate(-2 -49)"/>
      </g>
      <g id="Grupo_57223" data-name="Grupo 57223" transform="translate(1.839 36.237)">
        <path id="Trazado_101443" data-name="Trazado 101443" d="M2,43H7.873v1.678H2Z" transform="translate(-2 -43)"/>
      </g>
      <g id="Grupo_57224" data-name="Grupo 57224" transform="translate(1.839 31.203)">
        <path id="Trazado_101444" data-name="Trazado 101444" d="M2,37H7.873v1.678H2Z" transform="translate(-2 -37)"/>
      </g>
      <g id="Grupo_57225" data-name="Grupo 57225" transform="translate(1.839 26.169)">
        <path id="Trazado_101445" data-name="Trazado 101445" d="M2,31H7.873v1.678H2Z" transform="translate(-2 -31)"/>
      </g>
      <g id="Grupo_57226" data-name="Grupo 57226" transform="translate(1.839 21.135)">
        <path id="Trazado_101446" data-name="Trazado 101446" d="M2,25H7.873v1.678H2Z" transform="translate(-2 -25)"/>
      </g>
      <g id="Grupo_57227" data-name="Grupo 57227" transform="translate(1.839 16.101)">
        <path id="Trazado_101447" data-name="Trazado 101447" d="M2,19H7.873v1.678H2Z" transform="translate(-2 -19)"/>
      </g>
      <g id="Grupo_57228" data-name="Grupo 57228" transform="translate(1.839 11.068)">
        <path id="Trazado_101448" data-name="Trazado 101448" d="M2,13H7.873v1.678H2Z" transform="translate(-2 -13)"/>
      </g>
      <g id="Grupo_57229" data-name="Grupo 57229" transform="translate(9.39 16.101)">
        <path id="Trazado_101449" data-name="Trazado 101449" d="M17.712,55.076H16.034v-34.4H12.678v34.4H11V19.839A.838.838,0,0,1,11.839,19h5.034a.838.838,0,0,1,.839.839Z" transform="translate(-11 -19)"/>
      </g>
      <g id="Grupo_57230" data-name="Grupo 57230" transform="translate(17.779 24.491)">
        <path id="Trazado_101450" data-name="Trazado 101450" d="M27.712,56.686H26.034V30.678H22.678V56.686H21V29.839A.838.838,0,0,1,21.839,29h5.034a.838.838,0,0,1,.839.839Z" transform="translate(-21 -29)"/>
      </g>
      <g id="Grupo_57231" data-name="Grupo 57231" transform="translate(26.169 32.881)">
        <path id="Trazado_101451" data-name="Trazado 101451" d="M37.712,58.3H36.034V40.678H32.678V58.3H31V39.839A.838.838,0,0,1,31.839,39h5.034a.838.838,0,0,1,.839.839Z" transform="translate(-31 -39)"/>
      </g>
      <g id="Grupo_57232" data-name="Grupo 57232" transform="translate(34.559 41.271)">
        <path id="Trazado_101452" data-name="Trazado 101452" d="M47.712,59.907H46.034V50.678H42.678v9.229H41V49.839A.838.838,0,0,1,41.839,49h5.034a.838.838,0,0,1,.839.839Z" transform="translate(-41 -49)"/>
      </g>
      <g id="Grupo_57233" data-name="Grupo 57233" transform="translate(26.169 1)">
        <path id="Trazado_101453" data-name="Trazado 101453" d="M53.637,27.847H35.21a4.21,4.21,0,0,1-3.735-6.152L41.226,2.941a3.6,3.6,0,0,1,6.394,0l9.753,18.755a4.211,4.211,0,0,1-3.736,6.152ZM44.424,2.678a1.921,1.921,0,0,0-1.708,1.037L32.964,22.469a2.531,2.531,0,0,0,2.246,3.7H53.638a2.532,2.532,0,0,0,2.246-3.7L46.131,3.714a1.92,1.92,0,0,0-1.707-1.036Z" transform="translate(-31 -1)"/>
      </g>
      <g id="Grupo_57234" data-name="Grupo 57234" transform="translate(37.076 19.457)">
        <path id="Trazado_101454" data-name="Trazado 101454" d="M48.195,28.034H44.839A.838.838,0,0,1,44,27.195V23.839A.838.838,0,0,1,44.839,23h3.356a.838.838,0,0,1,.839.839v3.356A.838.838,0,0,1,48.195,28.034Zm-2.517-1.678h1.678V24.678H45.678Z" transform="translate(-44 -23)"/>
      </g>
      <g id="Grupo_57235" data-name="Grupo 57235" transform="translate(37.076 6.034)">
        <path id="Trazado_101455" data-name="Trazado 101455" d="M48.195,18.746H44.839A.838.838,0,0,1,44,17.907V7.839A.838.838,0,0,1,44.839,7h3.356a.838.838,0,0,1,.839.839V17.907A.838.838,0,0,1,48.195,18.746Zm-2.517-1.678h1.678V8.678H45.678Z" transform="translate(-44 -7)"/>
      </g>
    </g>
    <rect id="Rectángulo_5542" data-name="Rectángulo 5542" width="76" height="76" transform="translate(392 3785)" fill="none"/>
  </g>
</svg>
