<svg xmlns="http://www.w3.org/2000/svg" width="85" height="92" viewBox="0 0 85 92">
  <g id="Grupo_988199" data-name="Grupo 988199" transform="translate(-810 -4071)">
    <rect id="Rectángulo_338875" data-name="Rectángulo 338875" width="85" height="92" rx="10" transform="translate(810 4071)" fill="#ff6e33"/>
    <g id="seguro-de-calidad" transform="translate(821.445 4084.002)">
      <g id="Grupo_1053783" data-name="Grupo 1053783" transform="translate(0.895 0.895)">
        <g id="Grupo_1053775" data-name="Grupo 1053775" transform="translate(4.605)">
          <path id="Trazado_736901" data-name="Trazado 736901" d="M195.078,39.676a2.425,2.425,0,0,0-.5,2.161,6.917,6.917,0,0,1-7.124,8.648,6.448,6.448,0,0,1-.207,2.392c-13.856.855-26.973-9.2-26.973-21.512,0-6.657,3.98-15.787,13.562-21.2a7.6,7.6,0,0,1,2.687,1.482,2.376,2.376,0,0,0,2.153.475,7.174,7.174,0,0,1,8.707,5.516,2.4,2.4,0,0,0,1.881,1.921,6.926,6.926,0,0,1,5.536,6.764v.02a6.91,6.91,0,0,1-.224,1.745,2.424,2.424,0,0,0,.5,2.161A7.2,7.2,0,0,1,195.078,39.676Z" transform="translate(-146.603 -9.846)" fill="#7fb0e4"/>
          <path id="Trazado_736902" data-name="Trazado 736902" d="M86.64,50.531a7.114,7.114,0,0,1-9.781,4.464,7.391,7.391,0,0,1-11.484,0,7.05,7.05,0,0,1-9.988-6.856,6.915,6.915,0,0,1-7.347-6.884v-.019a6.91,6.91,0,0,1,.224-1.745,2.424,2.424,0,0,0-.5-2.161,7.2,7.2,0,0,1,0-9.427,2.424,2.424,0,0,0,.5-2.161,6.924,6.924,0,0,1,5.313-8.529,2.4,2.4,0,0,0,1.881-1.921,7.174,7.174,0,0,1,8.707-5.516A2.376,2.376,0,0,0,66.317,9.3a7.291,7.291,0,0,1,6.912-1.482A26.089,26.089,0,0,0,86.64,50.531Z" transform="translate(-46 -7.5)" fill="#68a2df"/>
        </g>
        <g id="Grupo_1053778" data-name="Grupo 1053778" transform="translate(14.684 5.048)">
          <g id="Grupo_1053776" data-name="Grupo 1053776" transform="translate(8.826)">
            <path id="Trazado_736903" data-name="Trazado 736903" d="M222.54,76.432a2.517,2.517,0,0,1-2.516,2.467h-5.1a23.5,23.5,0,0,1-3.4-.249A17.543,17.543,0,0,1,204.062,63.8a5.416,5.416,0,0,1,1.883-4.367,2.686,2.686,0,0,0,2.318-1.64l2.878-6.851a2.01,2.01,0,0,1,2.544-1.112,4.122,4.122,0,0,1,2.464,5.283l-1,2.754a.671.671,0,0,0,.631.9h3.681v15.1h.517A2.557,2.557,0,0,1,222.54,76.432Z" transform="translate(-204.062 -49.71)" fill="#ffddcf"/>
            <path id="Trazado_736904" data-name="Trazado 736904" d="M311.853,127.97a2.516,2.516,0,0,1-2.516,2.516h-4.361a2.516,2.516,0,0,1,0-5.032h4.361A2.516,2.516,0,0,1,311.853,127.97Z" transform="translate(-290.691 -116.395)" fill="#ffddcf"/>
            <path id="Trazado_736905" data-name="Trazado 736905" d="M311.182,170.046a2.516,2.516,0,0,1-2.516,2.516h-3.69a2.516,2.516,0,0,1,0-5.032h3.69A2.516,2.516,0,0,1,311.182,170.046Z" transform="translate(-290.691 -153.438)" fill="#ffddcf"/>
            <path id="Trazado_736906" data-name="Trazado 736906" d="M305.572,212.121a2.516,2.516,0,0,1-2.516,2.516h-3.69a2.516,2.516,0,1,1,0-5.032h3.69A2.516,2.516,0,0,1,305.572,212.121Z" transform="translate(-285.751 -190.481)" fill="#ffddcf"/>
          </g>
          <path id="Trazado_736907" data-name="Trazado 736907" d="M191.508,150.235a22.813,22.813,0,0,1-6.436-1.9,2.029,2.029,0,0,0-.878-.2H181.32l1.07-17.11h3.376c.053,0,.105,0,.157,0a26.427,26.427,0,0,0-.158,2.886A25.973,25.973,0,0,0,191.508,150.235Z" transform="translate(-175.214 -121.295)" fill="#ffcbbe"/>
          <g id="Grupo_1053777" data-name="Grupo 1053777" transform="translate(0 9.73)">
            <path id="Trazado_736908" data-name="Trazado 736908" d="M137.446,131.06v17.256a1.2,1.2,0,0,1-1.2,1.2h-3.588a2.392,2.392,0,0,1-2.392-2.392V133.452a2.392,2.392,0,0,1,2.392-2.392Z" transform="translate(-130.27 -131.06)" fill="#ffeab7"/>
          </g>
        </g>
        <g id="Grupo_1053782" data-name="Grupo 1053782" transform="translate(0 38.307)">
          <g id="Grupo_1053779" data-name="Grupo 1053779" transform="translate(41.864 5.754)">
            <path id="Trazado_736909" data-name="Trazado 736909" d="M377.3,384.072a2.394,2.394,0,0,0-.638,2.378l.943,3.3a1.2,1.2,0,0,1-1.459,1.484l-11.823-3.168a2.371,2.371,0,0,1-.848-.421l1.32-2.694-1.563-2.056,1.875-7,14.133,3.787a1.2,1.2,0,0,1,.523,2.015Z" transform="translate(-362.547 -375.889)" fill="#fdc072"/>
            <path id="Trazado_736910" data-name="Trazado 736910" d="M365.114,434.887l-6.667,2.419a2.392,2.392,0,0,1-.843-2.509l.6-2.24,3.738-.255Z" transform="translate(-357.522 -425.555)" fill="#ffb25a"/>
          </g>
          <g id="Grupo_1053780" data-name="Grupo 1053780" transform="translate(0 5.754)">
            <path id="Trazado_736911" data-name="Trazado 736911" d="M20.683,384.943l3.471,2.7a2.371,2.371,0,0,1-.848.421l-11.823,3.168a1.2,1.2,0,0,1-1.459-1.484l.942-3.3a2.393,2.393,0,0,0-.637-2.378l-2.464-2.381a1.2,1.2,0,0,1,.523-2.015l14.133-3.787,1.875,7Z" transform="translate(-7.5 -375.889)" fill="#ffb25a"/>
            <path id="Trazado_736912" data-name="Trazado 736912" d="M91,434.887l6.667,2.419a2.392,2.392,0,0,0,.843-2.509l-.6-2.24-3.738-.255Z" transform="translate(-81.013 -425.555)" fill="#ff9a5c"/>
          </g>
          <g id="Grupo_1053781" data-name="Grupo 1053781" transform="translate(6.925)">
            <path id="Trazado_736913" data-name="Trazado 736913" d="M248.49,333.829q-1.473,4.53-2.945,9.062a63.772,63.772,0,0,0-16.613-3.05c-3.86-1-7.223-3.742-7.223-6.884,0-2,1.883-4,4.586-5.149a75.8,75.8,0,0,1,20.58,2.982A2.394,2.394,0,0,1,248.49,333.829Z" transform="translate(-203.014 -327.805)" fill="#f8ea69"/>
            <path id="Trazado_736914" data-name="Trazado 736914" d="M91.315,339.818a63.839,63.839,0,0,0-22.856,3.05l-2.945-9.062a2.394,2.394,0,0,1,1.615-3.039,75.837,75.837,0,0,1,21.55-2.983,7.369,7.369,0,0,0,2.636,12.034Z" transform="translate(-65.396 -327.782)" fill="#f6ca56"/>
          </g>
        </g>
      </g>
      <g id="Grupo_1053785" data-name="Grupo 1053785" transform="translate(-0.002 -0.002)">
        <g id="Grupo_1053784" data-name="Grupo 1053784" transform="translate(22.252 42.493)">
          <path id="Trazado_736915" data-name="Trazado 736915" d="M186.948,355.286a.9.9,0,0,0-.9.9v1.435a.9.9,0,1,0,1.794,0v-1.435A.9.9,0,0,0,186.948,355.286Z" transform="translate(-186.051 -355.286)"/>
          <path id="Trazado_736916" data-name="Trazado 736916" d="M311.845,355.286a.9.9,0,0,0-.9.9v1.435a.9.9,0,1,0,1.794,0v-1.435A.9.9,0,0,0,311.845,355.286Z" transform="translate(-296.01 -355.286)"/>
          <path id="Trazado_736917" data-name="Trazado 736917" d="M227.584,374.441a.9.9,0,0,0-.9.9.832.832,0,1,1-1.664,0,.9.9,0,0,0-1.794,0,.832.832,0,0,1-1.664,0,.9.9,0,0,0-1.794,0,2.625,2.625,0,0,0,4.355,1.975,2.625,2.625,0,0,0,4.355-1.975A.9.9,0,0,0,227.584,374.441Z" transform="translate(-215.738 -372.15)"/>
        </g>
        <path id="Trazado_736918" data-name="Trazado 736918" d="M153.883,59.714a3.4,3.4,0,0,0-.818-2.215,3.412,3.412,0,0,0-1.924-6.231h-6.609l.893-2.45a5.025,5.025,0,0,0-3-6.433,2.907,2.907,0,0,0-3.677,1.608l-2.878,6.851a1.783,1.783,0,0,1-1.648,1.095h-8.16a3.293,3.293,0,0,0-3.289,3.289V68.9a3.293,3.293,0,0,0,3.289,3.289h3.588a2.1,2.1,0,0,0,1.954-1.342h1.046a1.135,1.135,0,0,1,.488.112,24.223,24.223,0,0,0,10.224,2.237h5.1a3.431,3.431,0,0,0,3.413-3.348,3.343,3.343,0,0,0-.621-2.009,3.41,3.41,0,0,0,1.145-5.3,3.412,3.412,0,0,0,1.489-2.818ZM151.141,56.3h-3.69a.9.9,0,0,0,0,1.794h3.019a1.619,1.619,0,0,1,0,3.238h-3.69a.9.9,0,0,0,0,1.794H149.8a1.619,1.619,0,1,1,0,3.238h-3.69a.9.9,0,0,0,0,1.794h2.317a1.7,1.7,0,0,1,1.187.509,1.582,1.582,0,0,1,.463,1.142,1.628,1.628,0,0,1-1.62,1.588h-5.1a22.706,22.706,0,0,1-9.447-2.06,2.942,2.942,0,0,0-1.266-.289h-.907V62.368a.9.9,0,1,0-1.794,0v7.724a.3.3,0,0,1-.3.3h-3.588a1.5,1.5,0,0,1-1.5-1.5V55.228a1.5,1.5,0,0,1,1.5-1.5h3.887v4.449a.9.9,0,1,0,1.794,0V53.733h2.479a3.573,3.573,0,0,0,3.3-2.194l2.878-6.851a1.113,1.113,0,0,1,1.41-.616,3.229,3.229,0,0,1,1.928,4.133l-1,2.754a1.568,1.568,0,0,0,1.474,2.1h6.931a1.619,1.619,0,1,1,0,3.238Z" transform="translate(-108.088 -37.16)"/>
        <path id="Trazado_736919" data-name="Trazado 736919" d="M61.166,49.372a2.069,2.069,0,0,0-1.485-1.5l-5.8-1.554.266-.819a3.291,3.291,0,0,0-2.218-4.178q-.382-.111-.765-.217a7.832,7.832,0,0,0,3.174-8.447,1.526,1.526,0,0,1,.323-1.359,8.109,8.109,0,0,0,0-10.581,1.526,1.526,0,0,1-.323-1.358,7.825,7.825,0,0,0,.253-1.971v-.02a7.787,7.787,0,0,0-.195-1.731.9.9,0,0,0-1.749.4,5.992,5.992,0,0,1,.15,1.331v.02a6.027,6.027,0,0,1-.195,1.52,3.323,3.323,0,0,0,.686,2.964,6.265,6.265,0,0,1,0,8.273,3.323,3.323,0,0,0-.686,2.965,6.029,6.029,0,0,1-4.123,7.3,76.744,76.744,0,0,0-15.745-2.078.9.9,0,0,0-.049,1.793,74.93,74.93,0,0,1,18.747,2.919,1.5,1.5,0,0,1,1.01,1.9l-2.669,8.215a64.756,64.756,0,0,0-38.314,0L8.79,44.948a1.5,1.5,0,0,1,1.011-1.9,74.926,74.926,0,0,1,18.747-2.919.9.9,0,1,0-.049-1.793,76.747,76.747,0,0,0-15.741,2.077,6.008,6.008,0,0,1-4.322-5.764v-.019a6.027,6.027,0,0,1,.195-1.52,3.323,3.323,0,0,0-.686-2.964,6.265,6.265,0,0,1,0-8.273,3.323,3.323,0,0,0,.686-2.965,6.027,6.027,0,0,1,4.623-7.423,3.279,3.279,0,0,0,2.586-2.64,6.1,6.1,0,0,1,2.8-4.015,6.059,6.059,0,0,1,4.792-.8A3.273,3.273,0,0,0,26.4,3.379a6.431,6.431,0,0,1,8.441,0,3.271,3.271,0,0,0,2.966.656,6.059,6.059,0,0,1,4.792.8,6.105,6.105,0,0,1,2.8,4.016,3.279,3.279,0,0,0,2.586,2.639A6.02,6.02,0,0,1,50.793,12.9a.9.9,0,0,0,1.2-1.337,7.816,7.816,0,0,0-3.654-1.84,1.493,1.493,0,0,1-1.177-1.2,7.9,7.9,0,0,0-3.6-5.211A7.856,7.856,0,0,0,37.335,2.3,1.477,1.477,0,0,1,36,2.01a8.2,8.2,0,0,0-10.758,0A1.477,1.477,0,0,1,23.9,2.3a7.858,7.858,0,0,0-6.219,1.011,7.9,7.9,0,0,0-3.6,5.211,1.493,1.493,0,0,1-1.177,1.2,7.821,7.821,0,0,0-6,9.633,1.526,1.526,0,0,1-.323,1.359,8.109,8.109,0,0,0,0,10.581,1.526,1.526,0,0,1,.323,1.358,7.819,7.819,0,0,0-.253,1.971v.019a7.8,7.8,0,0,0,3.429,6.459q-.384.107-.768.218A3.291,3.291,0,0,0,7.084,45.5l.266.819-5.8,1.554A2.093,2.093,0,0,0,.637,51.4L3.1,53.784a1.493,1.493,0,0,1,.4,1.487l-.942,3.293a2.1,2.1,0,0,0,2,2.671,2.137,2.137,0,0,0,.552-.073l11.823-3.168a3.292,3.292,0,0,0,2.325-4.028l-.223-.833a63.018,63.018,0,0,1,23.16,0l-.223.833A3.293,3.293,0,0,0,44.3,57.993l11.823,3.168a2.137,2.137,0,0,0,.552.073,2.1,2.1,0,0,0,2-2.671l-.942-3.293a1.493,1.493,0,0,1,.4-1.487L60.6,51.4a2.068,2.068,0,0,0,.57-2.029ZM4.647,59.428a.3.3,0,0,1-.365-.371l.943-3.294a3.284,3.284,0,0,0-.877-3.27L1.885,50.112a.3.3,0,0,1,.131-.5l5.89-1.578,2.123,6.535a.9.9,0,0,0,.547.566l4.292,1.558Zm12.664-3.761-3.584-1.3q1.762-.491,3.547-.878l.252.941A1.492,1.492,0,0,1,17.311,55.667Zm26.611,0a1.492,1.492,0,0,1-.216-1.238l.252-.941q1.784.387,3.547.878Zm15.426-5.556-2.463,2.382a3.284,3.284,0,0,0-.877,3.27l.943,3.294a.3.3,0,0,1-.365.371L46.364,56.689l4.284-1.555a.9.9,0,0,0,.556-.569l2.123-6.535,5.89,1.578a.3.3,0,0,1,.131.5Z" transform="translate(0.002 0.002)"/>
      </g>
    </g>
  </g>
</svg>
