<svg xmlns="http://www.w3.org/2000/svg" width="85" height="92" viewBox="0 0 85 92">
  <g id="Grupo_988198" data-name="Grupo 988198" transform="translate(-285 -3924)">
    <rect id="Rectángulo_338875" data-name="Rectángulo 338875" width="85" height="92" rx="10" transform="translate(285 3924)" fill="#ff6e33"/>
    <g id="vestirse" transform="translate(294.99 3933.027)">
      <g id="Grupo_1053770" data-name="Grupo 1053770" transform="translate(0.953 12.953)">
        <g id="Grupo_1053769" data-name="Grupo 1053769" transform="translate(0 0)">
          <g id="Grupo_1053764" data-name="Grupo 1053764" transform="translate(0 20.239)">
            <path id="Trazado_736844" data-name="Trazado 736844" d="M13.43,316.012a16.61,16.61,0,0,1,.777-9.483l.245-3.566-2.159.477a6.114,6.114,0,0,0-4.774,6.471l1.432,17.413a.635.635,0,0,0,.633.583H13.07l2.262-4.082Z" transform="translate(-7.498 -293.218)" fill="#fec0b7"/>
            <path id="Trazado_736845" data-name="Trazado 736845" d="M179.274,303.66l-2.014-.445-.123,3.722a16.173,16.173,0,0,1,1.2,9.3l-1.929,7.8,2.075,4.082h3.5a.635.635,0,0,0,.633-.583l1.432-17.413A6.114,6.114,0,0,0,179.274,303.66Z" transform="translate(-154.959 -293.438)" fill="#fec0b7"/>
            <path id="Trazado_736846" data-name="Trazado 736846" d="M84.16,240.7a5.541,5.541,0,0,0,5.434-4.733l-.38-.564-.22-.049a2.28,2.28,0,0,1-1.788-2.226v-6.18l-6.08-.726v6.906a2.28,2.28,0,0,1-1.788,2.226l-.22.049-.471.907C78.93,238.846,81.551,240.7,84.16,240.7Z" transform="translate(-69.612 -226.224)" fill="#fec0b7"/>
          </g>
          <path id="Trazado_736847" data-name="Trazado 736847" d="M42.879,312.143l1.653,7.8,8.048,1.43,5.588-1.43,3.577-7.818a15.983,15.983,0,0,0-.566-9.311l-1.2-3.355-2.309-.942v0a5.074,5.074,0,0,1-10.1.124v-.128l-2.553.564-1.369,3.574A16.611,16.611,0,0,0,42.879,312.143Z" transform="translate(-38.071 -269.102)" fill="#eaf6ff"/>
          <path id="Trazado_736848" data-name="Trazado 736848" d="M52.261,467.241l-.889,4.082H66.786l1.681-1.33-2.57-2.752Z" transform="translate(-45.8 -416.395)" fill="#d8ecfe"/>
          <g id="Grupo_1053765" data-name="Grupo 1053765" transform="translate(19.603 29.42)">
            <path id="Trazado_736849" data-name="Trazado 736849" d="M165.769,302.66l-1.212-3.543-2.7-.6,1.369,4.139a16.61,16.61,0,0,1,.777,9.483l-1.653,7.8,1.354,1.025,1.186-1.025,1.653-7.8A16.609,16.609,0,0,0,165.769,302.66Z" transform="translate(-161.859 -298.521)" fill="#d8ecfe"/>
          </g>
          <path id="Trazado_736850" data-name="Trazado 736850" d="M168.289,467.241h-2.54l.889,4.082h2.54Z" transform="translate(-145.652 -416.395)" fill="#c4e2ff"/>
          <path id="Trazado_736851" data-name="Trazado 736851" d="M223.144,324.335l-5.307-3.793a.381.381,0,0,1,0-.62l5.307-3.793a.381.381,0,0,1,.6.31v1.489a.381.381,0,0,0,.381.381h5.051a6.029,6.029,0,0,0,6.029-6.029v-7.418a.663.663,0,0,1,.663-.663h2.519a.663.663,0,0,1,.663.663v7.418a9.874,9.874,0,0,1-9.874,9.874h-5.051a.381.381,0,0,0-.381.381v1.489A.381.381,0,0,1,223.144,324.335Z" transform="translate(-190.987 -274.058)" fill="#f28cc4"/>
          <g id="Grupo_1053768" data-name="Grupo 1053768" transform="translate(28.357 4.393)">
            <g id="Grupo_1053767" data-name="Grupo 1053767">
              <path id="Trazado_736852" data-name="Trazado 736852" d="M337.433,103.028c0,2.3-2.431,4.6-4.894,4.6s-4.934-2.305-4.934-4.6c0-.554.913-1.535.913-1.535a1.285,1.285,0,0,1,.6.077l.505.17.018.006a8.185,8.185,0,0,0,2.668.406l.567,0a8.19,8.19,0,0,0,2.7-.464l.023-.009.244-.088a1.8,1.8,0,0,1,.831-.1,3.9,3.9,0,0,1,.756,1.536Z" transform="translate(-315.311 -101.475)" fill="#ffd15b"/>
              <path id="Trazado_736853" data-name="Trazado 736853" d="M265.176,139.44l-.08-.181q-.279-.63-.541-1.266a58.8,58.8,0,0,1-2.569-7.642l-.707-2.708a4.462,4.462,0,0,0-.212-.623s-.906-.906-1.386-1.342l-.214.381a12.208,12.208,0,0,0-1.944,4.19l-.028.108a9.189,9.189,0,0,0-.288,1.765l-8.984,3.3-9.378-3.3h0a9.188,9.188,0,0,0-.287-1.765l-.029-.108a12.192,12.192,0,0,0-1.944-4.19l-.382-.5a2.576,2.576,0,0,1-1.211,1.452,4.669,4.669,0,0,0-.217.636l-.707,2.708a58.857,58.857,0,0,1-2.558,7.618q-.267.648-.551,1.291l-.081.181a.909.909,0,0,0,.648,1.258l4.707.964,1.736-.153,20.119-.048,1.736.2,4.707-.964A.909.909,0,0,0,265.176,139.44Z" transform="translate(-230.798 -122.494)" fill="#f28cc4"/>
              <path id="Trazado_736854" data-name="Trazado 736854" d="M288.453,134.354a13.584,13.584,0,0,1,1.439-8.172,4.521,4.521,0,0,0-1.124-1.585l-.817.376c-.414.547-5.755,3.365-11.119,3.321-5.417-.045-10.859-2.959-11.278-3.511l-.618-.187a4.532,4.532,0,0,0-1.119,1.574,13.444,13.444,0,0,1,1.439,8.123l-.342,3.855-.238,2.677,2.117.355h20.119l2.117-.355-.236-2.656Z" transform="translate(-259.623 -121.656)" fill="#ed74b7"/>
              <path id="Trazado_736855" data-name="Trazado 736855" d="M293.029,113.953c-.335-3.358.129-7.273,2.453-9.848a6.238,6.238,0,0,1-.453-.605q-.131-.05-.266-.093l-5.735-1.871a1.809,1.809,0,0,0-.348-.077,3.91,3.91,0,0,1,.321,1.553,4.47,4.47,0,0,1-8.918,0,4.02,4.02,0,0,1,.422-1.57,2.54,2.54,0,0,0-.537.092l-5.646,1.874a4.521,4.521,0,0,0-1.7.975l.475.626a12.193,12.193,0,0,1,1.944,4.19l.029.108a9.152,9.152,0,0,1,.213,1.056s.437.472.452.709l-.436.665-1.983,22.34a.265.265,0,0,0,.263.288H293.79l1.291-.289a.264.264,0,0,0,.263-.288S293.689,119.836,293.029,113.953Z" transform="translate(-267.315 -101.442)" fill="#ffe177"/>
              <path id="Trazado_736856" data-name="Trazado 736856" d="M425.434,123.453l.028-.108a12.208,12.208,0,0,1,1.944-4.19l.475-.625a4.515,4.515,0,0,0-1.43-.883,15.625,15.625,0,0,0-3.014,5.7c-.011.042-.024.085-.035.13a7.767,7.767,0,0,0-.2,2.62l2.013,22.415h1.713a.264.264,0,0,0,.263-.288l-1.984-22.339-.49-.64.5-.712A8.715,8.715,0,0,1,425.434,123.453Z" transform="translate(-398.737 -115.589)" fill="#ffd15b"/>
              <g id="Grupo_1053766" data-name="Grupo 1053766" transform="translate(24.43 8.941)">
                <path id="Trazado_736857" data-name="Trazado 736857" d="M425.182,172.913l.026.288-1.986.444-.02-.232a8.088,8.088,0,0,1-.022-1.114l1.826-.409.017,0,.2-.039A4.567,4.567,0,0,0,425.182,172.913Z" transform="translate(-423.17 -171.848)" fill="#ffc344"/>
              </g>
            </g>
          </g>
          <path id="Trazado_736858" data-name="Trazado 736858" d="M44.228,83.348a5.773,5.773,0,0,0-.378-4.991l-1.378-3.111c-1.931-4.361-5.18-7.142-9.95-7.142-.6,0-1.97-.16-1.97-.16a11.954,11.954,0,0,0-9.2,7.036l-1.385,3.129a7.587,7.587,0,0,0-.151,5.777v0a7.587,7.587,0,0,0,7.1,4.882l10.933-.021.139,0a8.279,8.279,0,0,0,6.237-5.4Z" transform="translate(-17.817 -67.805)" fill="#e19974"/>
          <path id="Trazado_736859" data-name="Trazado 736859" d="M122.16,82.911a7.587,7.587,0,0,1-6.936,4.88,7.846,7.846,0,0,0,3.329-4.078,8.337,8.337,0,0,0-.151-6.064l-1.379-3.266a12.149,12.149,0,0,0-9.238-7.393,12.054,12.054,0,0,1,12.844,7.034l1.378,3.112A7.582,7.582,0,0,1,122.16,82.911Z" transform="translate(-95.049 -66.851)" fill="#dc8758"/>
          <path id="Trazado_736860" data-name="Trazado 736860" d="M66.749,145.6l3.329-.02a5.454,5.454,0,0,0,5.2-3.91h3.675a1.516,1.516,0,0,1,1.516,1.516v4.55a9.888,9.888,0,0,1-6.216,9.181,2.364,2.364,0,0,1-1.756,0,9.888,9.888,0,0,1-6.216-9.181v-1.662A.472.472,0,0,1,66.749,145.6Z" transform="translate(-58.814 -132.173)" fill="#fecec8"/>
        </g>
      </g>
      <g id="Grupo_1053771" data-name="Grupo 1053771" transform="translate(0 5.113)">
        <path id="Trazado_736861" data-name="Trazado 736861" d="M100.27,214.914a4.759,4.759,0,0,0,4.7,0,.952.952,0,0,0-.944-1.655,2.845,2.845,0,0,1-2.808,0,.952.952,0,1,0-.944,1.655Z" transform="translate(-87.117 -186.717)"/>
        <path id="Trazado_736862" data-name="Trazado 736862" d="M64.86,34.155c-.285-.635-.567-1.42-1.138-3.036a.952.952,0,1,0-1.8.631c.407,1.154.862,2.442,1.176,3.135l-5.414,1.107-.8-8.841a11.658,11.658,0,0,1,1.85-5.215,3.664,3.664,0,0,1,.389.934c.4,1.549.853,3.107,1.353,4.647a.952.952,0,0,0,1.812-.587c-.489-1.5-.929-3.028-1.323-4.545a5.5,5.5,0,0,0-3.692-3.88c-.034-.009-5.8-1.892-5.831-1.9l-.794-1.341a2.728,2.728,0,0,0-2.337-1.331H47.6V12.622a3.815,3.815,0,1,0-4.767-3.694.952.952,0,1,0,1.9,0,1.91,1.91,0,1,1,1.91,1.91.952.952,0,0,0-.952.952v2.146h-.715a2.728,2.728,0,0,0-2.337,1.331l-.794,1.34c-.023,0-5.794,1.887-5.821,1.894a5.51,5.51,0,0,0-3.7,3.884c-.51,1.951-1.1,3.909-1.747,5.821-1.069,3.13-1.744,5.058-2.143,5.947a1.87,1.87,0,0,0,1.335,2.59L35.434,37.9l-1.11,12.281a.952.952,0,0,0,.949,1.038h3.316a.952.952,0,1,0,0-1.9H36.315l1.869-20.671a19.875,19.875,0,0,0,16.925,0l1.87,20.671H43.033a.952.952,0,1,0,0,1.9H44.22a5.082,5.082,0,0,1-5.076,5.032h-4.48V54.594a.952.952,0,0,0-1.506-.775l-2.64,1.887.472-5.742a7.092,7.092,0,0,0-5.518-7.479L20.541,41.4A1.336,1.336,0,0,1,19.5,40.1V36.976a10.753,10.753,0,0,0,2.032-2.145A8.535,8.535,0,0,0,28.77,22.857l-1.378-3.111a13,13,0,0,0-20.849-4.16.952.952,0,0,0,1.312,1.381,11.1,11.1,0,0,1,17.8,3.551l1.378,3.112a6.636,6.636,0,0,1-4.318,9.085,10.873,10.873,0,0,0,.835-4.19V23.975a2.47,2.47,0,0,0-2.468-2.468H17.4a2.955,2.955,0,0,1-2.96-2.869.952.952,0,0,0-1.9,0,4.8,4.8,0,0,0,3.5,4.583,4.469,4.469,0,0,1-3.84,2.2l-3.8.023a.952.952,0,0,0-.947.952v2.132A10.872,10.872,0,0,0,8.3,32.738,6.611,6.611,0,0,1,3.837,28.7L3.83,28.68a6.586,6.586,0,0,1,.138-5.033l1.385-3.131c.031-.071.063-.142.1-.212a.952.952,0,1,0-1.709-.842c.011-.05-1.477,3.331-1.516,3.414a8.48,8.48,0,0,0-.17,6.5l.008.02a8.512,8.512,0,0,0,7.422,5.458,10.761,10.761,0,0,0,2.029,2.132V40.1a1.336,1.336,0,0,1-1.041,1.3l-4.932,1.09A7.092,7.092,0,0,0,.024,49.964l1.48,18A.952.952,0,1,0,3.4,67.8l-1.48-18a5.18,5.18,0,0,1,4.03-5.463l.447-.1-.75,1.92a17.442,17.442,0,0,0-1.184,7.192.952.952,0,0,0,.951.909h.045a.952.952,0,0,0,.907-1,15.547,15.547,0,0,1,1.056-6.411c.059-.206,1.185-3.1,1.185-3.1l1.077-.238a6.027,6.027,0,0,0,11.628,0l1.077.238,1.186,3.1a15.617,15.617,0,0,1,.733,8.939l-1.494,7.05H8.186l-1.127-5.32a.952.952,0,0,0-1.864.395L6.439,63.8l-.846,3.883a.952.952,0,1,0,1.861.405l.726-3.332H22.822l.726,3.332a.952.952,0,1,0,1.861-.405L24.563,63.8l1.611-7.6a17.516,17.516,0,0,0-.822-10.026L24.6,44.243l.46.1a5.18,5.18,0,0,1,4.03,5.463l-.6,7.35-1.672,1.2a.952.952,0,0,0,0,1.55l1.366.976-.57,6.925a.952.952,0,1,0,1.9.156l.476-5.791,3.172,2.267a.952.952,0,0,0,1.506-.775V62h4.48A10.839,10.839,0,0,0,49.971,51.22h8.051a.952.952,0,0,0,.949-1.038L57.859,37.9l5.667-1.158a1.871,1.871,0,0,0,1.335-2.587Zm-55.5-6.817,2.852-.017a6.362,6.362,0,0,0,5.86-3.909h3a.563.563,0,0,1,.563.563v4.548a8.89,8.89,0,0,1-5.615,8.294,1.406,1.406,0,0,1-1.048,0,8.89,8.89,0,0,1-5.615-8.294ZM15.5,46.054a4.115,4.115,0,0,1-3.972-3.019A3.255,3.255,0,0,0,13.42,40.1V38.2c.276.138.559.267.85.384a3.3,3.3,0,0,0,2.463,0c.3-.118.582-.249.862-.39v1.9a3.255,3.255,0,0,0,1.878,2.93A4.153,4.153,0,0,1,15.5,46.054ZM39.145,60.1H33.712a.952.952,0,0,0-.952.952v.759l-3.752-2.682,3.752-2.682V57.2a.952.952,0,0,0,.952.952h5.432a6.989,6.989,0,0,0,6.98-6.937h1.94A8.932,8.932,0,0,1,39.145,60.1ZM50.2,19.012a3.572,3.572,0,0,1-7.114,0,3,3,0,0,1,.046-.519,11.864,11.864,0,0,0,3.511.628,11.882,11.882,0,0,0,3.511-.628A3,3,0,0,1,50.2,19.012Zm-5.224-3.171h3.335a.815.815,0,0,1,.7.4l.313.528a10.514,10.514,0,0,1-2.678.449,10.51,10.51,0,0,1-2.679-.449l.313-.528A.815.815,0,0,1,44.979,15.841ZM30.193,34.885c.5-1.093,1.657-4.514,2.187-6.066.664-1.954,1.265-3.957,1.786-5.951a3.652,3.652,0,0,1,.389-.933,11.661,11.661,0,0,1,1.85,5.21l-.8,8.847Zm8.071-8.33A13.661,13.661,0,0,0,35.943,20.6c.274-.218,4.811-1.607,5.247-1.774a5.458,5.458,0,0,0,10.914,0c.444.169,4.97,1.555,5.247,1.773a13.659,13.659,0,0,0-2.322,5.958,17.964,17.964,0,0,1-16.765,0Z" transform="translate(0 -5.113)"/>
      </g>
    </g>
  </g>
</svg>
