<svg xmlns="http://www.w3.org/2000/svg" width="85" height="92" viewBox="0 0 85 92">
  <g id="Grupo_988196" data-name="Grupo 988196" transform="translate(-285 -3777)">
    <rect id="Rectángulo_338875" data-name="Rectángulo 338875" width="85" height="92" rx="10" transform="translate(285 3777)" fill="#ff6e33"/>
    <g id="layer1" transform="translate(295.471 3511.4)">
      <path id="path3770-0" d="M5,298.832c2.092-2.092,4.184-4.184,8.367-4.184H35.333a4.1,4.1,0,0,1,4.049,3.3l9.248-9.272a3.9,3.9,0,0,1,5.525,0c1.531,1.531,1.247,3.757,0,5.525-1.99,2.823-6.471,9.305-8.867,12.775a9.233,9.233,0,0,1-7.863,4.409H19.645a5.434,5.434,0,0,0-4.184,2.092L2.91,300.923Z" transform="translate(7.032 20.462)" fill="#fdd5a6"/>
      <path id="path3772-0" d="M.794,296.661l6.275-6.275L23.8,307.12l-6.275,6.275Z" transform="translate(0.781 28.909)" fill="#ff6b6b"/>
      <path id="circle11079" d="M32.22,294.457a13.6,13.6,0,1,1-13.6-13.6,13.6,13.6,0,0,1,13.6,13.6Z" transform="translate(13.282 0.782)" fill="#ffbc42"/>
      <path id="path2372-0" d="M31.906,280.6a14.645,14.645,0,0,0-9.346,3.37,1.046,1.046,0,1,0,1.336,1.61,12.546,12.546,0,1,1-2.562,2.9,1.046,1.046,0,1,0-1.761-1.127A14.642,14.642,0,1,0,31.906,280.6Zm0,4.18a1,1,0,0,0-1.046,1.046v2.255a4.175,4.175,0,0,0,1.05,8.218,2.093,2.093,0,1,1-2.092,2.092,1.047,1.047,0,0,0-2.094,0,4.2,4.2,0,0,0,3.136,4.034v2.235a1.046,1.046,0,1,0,2.092,0v-2.233a4.176,4.176,0,0,0-1.042-8.22,2.093,2.093,0,1,1,2.084-2.092,1.046,1.046,0,1,0,2.092,0,4.19,4.19,0,0,0-3.134-4.036v-2.253a1,1,0,0,0-1.046-1.046Zm26.519,22.178a4.936,4.936,0,0,0-3.5,1.446l-6.132,6.132a1.046,1.046,0,1,0,1.479,1.479l6.132-6.132a2.833,2.833,0,0,1,4.047,0,2.385,2.385,0,0,1,.735,1.9,4.4,4.4,0,0,1-.85,2.288c-2,2.835-6.477,9.313-8.874,12.784-1.837,2.661-4.066,3.957-7,3.957H26.678a6.034,6.034,0,0,0-4.161,1.681L8.588,318.554a1.04,1.04,0,0,0-1.475,0L.837,324.832a1.046,1.046,0,0,0,0,1.483l16.738,16.73a1.046,1.046,0,0,0,1.475,0l6.275-6.277a1.046,1.046,0,0,0,0-1.475l-1.344-1.344a3.558,3.558,0,0,1,2.7-1.054h17.78a10.4,10.4,0,0,0,8.723-4.86c2.4-3.469,6.88-9.957,8.861-12.767a6.393,6.393,0,0,0,1.234-3.417,4.618,4.618,0,0,0-1.348-3.45,4.941,4.941,0,0,0-3.5-1.446ZM20.4,314.068a11.218,11.218,0,0,0-8.22,3.614,1.046,1.046,0,1,0,1.45,1.508c1.777-1.711,3.465-3.029,6.77-3.029H42.367a3.138,3.138,0,0,1,0,6.275h-11.5a1.046,1.046,0,1,0,0,2.092h11.5a5.229,5.229,0,1,0,0-10.459Zm-12.549,6.71,15.257,15.255-4.794,4.794L3.06,325.573Z"/>
    </g>
  </g>
</svg>
