<svg xmlns="http://www.w3.org/2000/svg" width="85" height="92" viewBox="0 0 85 92">
  <g id="Grupo_988203" data-name="Grupo 988203" transform="translate(-285 -4071)">
    <rect id="Rectángulo_338875" data-name="Rectángulo 338875" width="85" height="92" rx="10" transform="translate(285 4071)" fill="#ff6e33"/>
    <g id="normas" transform="translate(294.043 4041.816)">
      <path id="Trazado_736885" data-name="Trazado 736885" d="M286.517,100.5a1.96,1.96,0,0,1,1.96,1.96V141.8a5.228,5.228,0,0,1-5.228,5.228H258.614A2.614,2.614,0,0,1,256,144.412V100.5Z" transform="translate(-222.543 -45.639)" fill="#ccad76"/>
      <path id="Trazado_736886" data-name="Trazado 736886" d="M443.648,102.46V141.8a5.228,5.228,0,0,1-5.228,5.228H434.5a5.228,5.228,0,0,0,5.228-5.228V102.46a1.961,1.961,0,0,0-1.96-1.96h3.921A1.961,1.961,0,0,1,443.648,102.46Z" transform="translate(-377.714 -45.639)" fill="#b5884d"/>
      <path id="Trazado_736887" data-name="Trazado 736887" d="M9.46,100.5a1.96,1.96,0,0,0-1.96,1.96V141.8a5.228,5.228,0,0,0,5.228,5.228H37.363a2.614,2.614,0,0,0,2.614-2.614V100.5Z" transform="translate(-6.52 -45.639)" fill="#ccad76"/>
      <path id="Trazado_736888" data-name="Trazado 736888" d="M64.1,117.036H39.46a1.96,1.96,0,0,1-1.96-1.96V72.46a1.96,1.96,0,0,1,1.96-1.96H64.1a1.96,1.96,0,0,1,1.96,1.96v42.615A1.96,1.96,0,0,1,64.1,117.036Z" transform="translate(-32.599 -19.559)" fill="#f2f2f2"/>
      <path id="Trazado_736889" data-name="Trazado 736889" d="M282.6,117.034H257.96a1.96,1.96,0,0,1-1.96-1.96V72.459a1.96,1.96,0,0,1,1.96-1.96H282.6a1.96,1.96,0,0,1,1.96,1.96v42.615A1.96,1.96,0,0,1,282.6,117.034Z" transform="translate(-222.543 -19.558)" fill="#fff"/>
      <path id="Trazado_736890" data-name="Trazado 736890" d="M429.5,117.033h3.921a1.96,1.96,0,0,0,1.96-1.96V72.458a1.961,1.961,0,0,0-1.96-1.96H429.5a1.961,1.961,0,0,1,1.96,1.96v42.615A1.96,1.96,0,0,1,429.5,117.033Z" transform="translate(-373.368 -19.558)" fill="#e8e8e8"/>
      <path id="Trazado_736891" data-name="Trazado 736891" d="M88.6,66.84l-2.081-1.816a.653.653,0,0,0-.859,0L83.582,66.84a.653.653,0,0,1-1.083-.492V56.153a.654.654,0,0,1,.653-.653h5.881a.654.654,0,0,1,.653.653V66.347A.653.653,0,0,1,88.6,66.84Z" transform="translate(-71.717 -6.52)" fill="#f7aa74"/>
      <path id="Trazado_736892" data-name="Trazado 736892" d="M332.194,176.219l1.479-1.479a1.96,1.96,0,1,0-2.772-2.772l-1.479,1.479a1.307,1.307,0,0,1-1.848,0L326,171.876a1.96,1.96,0,1,0-2.772,2.772l1.571,1.571a1.307,1.307,0,0,1,0,1.848l-1.571,1.571A1.96,1.96,0,1,0,326,182.411l1.571-1.571a1.307,1.307,0,0,1,1.848,0l1.479,1.479a1.96,1.96,0,1,0,2.772-2.772l-1.479-1.479A1.307,1.307,0,0,1,332.194,176.219Z" transform="translate(-280.487 -107.187)" fill="#f49595"/>
      <path id="Trazado_736893" data-name="Trazado 736893" d="M90.091,175.4l2.125,2.125a.653.653,0,0,0,.924,0l6.007-6.007a1.96,1.96,0,0,1,2.772,2.772l-7.855,7.855a1.96,1.96,0,0,1-2.772,0l-3.974-3.974a1.96,1.96,0,1,1,2.772-2.772Z" transform="translate(-75.408 -106.879)" fill="#90d399"/>
      <path id="Trazado_736894" data-name="Trazado 736894" d="M65.934,89.952a.98.98,0,0,0,.98-.98V56.822a2.944,2.944,0,0,0-2.941-2.941h-.98V52.9a2.944,2.944,0,0,0-2.941-2.941H35.417a2.929,2.929,0,0,0-1.96.751,2.929,2.929,0,0,0-1.96-.751H22.544a.98.98,0,1,0,0,1.96H31.5a.981.981,0,0,1,.98.98v2.548h-.457a.98.98,0,0,0,0,1.96h.457v5.1h-.588a.98.98,0,1,0,0,1.96h.588v5.228h-.588a.98.98,0,1,0,0,1.96h.588v5.228h-.588a.98.98,0,1,0,0,1.96h.588v5.228h-.588a.98.98,0,1,0,0,1.96h.588v5.228h-.588a.98.98,0,1,0,0,1.96h.588v2.3a.981.981,0,0,1-.98.98H6.861a.981.981,0,0,1-.98-.98V52.9a.981.981,0,0,1,.98-.98H9.8v7.907a1.616,1.616,0,0,0,.958,1.487,1.644,1.644,0,0,0,.681.149,1.621,1.621,0,0,0,1.069-.406l1.866-1.629,1.866,1.629a1.634,1.634,0,0,0,2.708-1.231V49.634A1.635,1.635,0,0,0,17.317,48H11.436A1.635,1.635,0,0,0,9.8,49.634v.327H6.861A2.944,2.944,0,0,0,3.921,52.9v.98h-.98A2.944,2.944,0,0,0,0,56.822V96.16a6.215,6.215,0,0,0,6.208,6.208H30.843a3.583,3.583,0,0,0,2.614-1.131,3.584,3.584,0,0,0,2.614,1.131H60.706a6.215,6.215,0,0,0,6.208-6.208V93.546a.98.98,0,1,0-1.96,0V96.16a4.252,4.252,0,0,1-4.247,4.247H36.071a1.635,1.635,0,0,1-1.634-1.634v-.486a2.925,2.925,0,0,0,.98.169H60.053a2.944,2.944,0,0,0,2.941-2.941V55.842h.98a.981.981,0,0,1,.98.98v32.15a.98.98,0,0,0,.98.98ZM11.762,49.96H16.99v9.148l-1.54-1.344a1.64,1.64,0,0,0-2.148,0l-1.54,1.344Zm19.081,50.447H6.208A4.252,4.252,0,0,1,1.96,96.16V56.822a.981.981,0,0,1,.98-.98h.98V95.516a2.944,2.944,0,0,0,2.941,2.941H31.5a2.928,2.928,0,0,0,.98-.169v.486A1.635,1.635,0,0,1,30.843,100.407Zm30.19-4.892a.981.981,0,0,1-.98.98H35.417a.981.981,0,0,1-.98-.98v-2.3h.457a.98.98,0,0,0,0-1.96h-.457V86.031h.457a.98.98,0,0,0,0-1.96h-.457V78.843h.457a.98.98,0,0,0,0-1.96h-.457V71.655h.457a.98.98,0,0,0,0-1.96h-.457V64.467h.457a.98.98,0,1,0,0-1.96h-.457v-5.1h.588a.98.98,0,1,0,0-1.96h-.588V52.9a.981.981,0,0,1,.98-.98H60.053a.981.981,0,0,1,.98.98Z"/>
      <path id="Trazado_736895" data-name="Trazado 736895" d="M316.025,172.436a2.941,2.941,0,0,0,4.159,4.159l1.571-1.571a.327.327,0,0,1,.462,0L323.7,176.5a2.941,2.941,0,0,0,4.159-4.159l-1.479-1.479a.327.327,0,0,1,0-.462l1.479-1.479a2.941,2.941,0,0,0-4.159-4.159l-1.479,1.479a.327.327,0,0,1-.462,0l-1.571-1.571a2.941,2.941,0,0,0-4.159,4.159L317.6,170.4a.327.327,0,0,1,0,.462Zm2.957-3.419-1.571-1.571a.98.98,0,0,1,1.386-1.386l1.571,1.571a2.29,2.29,0,0,0,3.234,0l1.479-1.479a.98.98,0,0,1,1.386,1.386l-1.479,1.479a2.29,2.29,0,0,0,0,3.234l1.479,1.479a.98.98,0,0,1-1.386,1.386l-1.479-1.479a2.29,2.29,0,0,0-3.234,0l-1.571,1.571a.98.98,0,0,1-1.386-1.386l1.571-1.571A2.289,2.289,0,0,0,318.982,169.017Z" transform="translate(-273.976 -100.678)"/>
      <path id="Trazado_736896" data-name="Trazado 736896" d="M96.1,164.319a2.944,2.944,0,0,0-4.158,0l-5.776,5.776L84.275,168.2a2.941,2.941,0,0,0-4.159,4.158l3.974,3.974a2.944,2.944,0,0,0,4.159,0l7.855-7.855A2.944,2.944,0,0,0,96.1,164.319Zm-1.386,2.772-7.855,7.855a.98.98,0,0,1-1.386,0L81.5,170.973a.98.98,0,1,1,1.386-1.386l2.126,2.125a1.634,1.634,0,0,0,2.31,0l6.007-6.007a.98.98,0,1,1,1.386,1.386Z" transform="translate(-68.898 -100.369)"/>
      <path id="Trazado_736897" data-name="Trazado 736897" d="M104.53,294.98a.98.98,0,0,0-.98-.98H90.48a.98.98,0,1,0,0,1.96h13.069A.98.98,0,0,0,104.53,294.98Z" transform="translate(-77.803 -213.85)"/>
      <path id="Trazado_736898" data-name="Trazado 736898" d="M110.48,324a.98.98,0,1,0,0,1.96h7.841a.98.98,0,1,0,0-1.96Z" transform="translate(-95.189 -239.929)"/>
      <path id="Trazado_736899" data-name="Trazado 736899" d="M323.549,294H310.48a.98.98,0,1,0,0,1.96h13.069a.98.98,0,1,0,0-1.96Z" transform="translate(-269.051 -213.85)"/>
      <path id="Trazado_736900" data-name="Trazado 736900" d="M338.322,324H330.48a.98.98,0,1,0,0,1.96h7.842a.98.98,0,1,0,0-1.96Z" transform="translate(-286.437 -239.929)"/>
    </g>
  </g>
</svg>
