<svg xmlns="http://www.w3.org/2000/svg" width="85" height="92" viewBox="0 0 85 92">
  <g id="Grupo_988197" data-name="Grupo 988197" transform="translate(-810 -3777)">
    <rect id="Rectángulo_338875" data-name="Rectángulo 338875" width="85" height="92" rx="10" transform="translate(810 3777)" fill="#ff6e33"/>
    <g id="proceso" transform="translate(816 3785.5)">
      <path id="Trazado_736818" data-name="Trazado 736818" d="M177.54,183.767l2.292-6.888,2.853,1.076a4.65,4.65,0,0,1,3.04,4.374v4.946H160v-4.946a4.65,4.65,0,0,1,3.04-4.374l2.853-1.076,2.292,6.888,4.677-2.339Zm0,0" transform="translate(-136.613 -151.025)" fill="#48cfad"/>
      <path id="Trazado_736819" data-name="Trazado 736819" d="M254.969,169.3l-2.292,6.888L248,173.847,251.508,168Zm0,0" transform="translate(-211.75 -143.444)" fill="#e6e9ed"/>
      <path id="Trazado_736820" data-name="Trazado 736820" d="M203.782,168l3.508,5.847-4.677,2.339L200.32,169.3Zm0,0" transform="translate(-171.04 -143.444)" fill="#e6e9ed"/>
      <g id="Grupo_1053763" data-name="Grupo 1053763" transform="translate(26.895 9.355)">
        <path id="Trazado_736821" data-name="Trazado 736821" d="M227.508,153.169c.725,0,1.415-.128,3.508-1.169v2.339l-3.508,5.847L224,154.339V152A5.779,5.779,0,0,0,227.508,153.169Zm0,0" transform="translate(-218.153 -139.137)" fill="#f0d0b4"/>
        <path id="Trazado_736822" data-name="Trazado 736822" d="M290.824,83.508a3.5,3.5,0,0,1-3.508,3.508L287.2,87a5.384,5.384,0,0,0,.117-1.158V80a3.513,3.513,0,0,1,3.508,3.508Zm0,0" transform="translate(-272.115 -77.661)" fill="#f0d0b4"/>
        <path id="Trazado_736823" data-name="Trazado 736823" d="M219.694,66.339v5.847a5.384,5.384,0,0,1-.117,1.158,5.845,5.845,0,0,1-1.59,2.982,5.51,5.51,0,0,1-.631.538c-2.093,1.041-2.783,1.169-3.508,1.169a5.779,5.779,0,0,1-3.508-1.169,5.863,5.863,0,0,1-2.222-3.519A5.383,5.383,0,0,1,208,72.185V66.339h.2A7.994,7.994,0,0,0,213.847,64a7.994,7.994,0,0,0,5.648,2.339Zm0,0" transform="translate(-204.492 -64)" fill="#f0d0b4"/>
        <path id="Trazado_736824" data-name="Trazado 736824" d="M187.508,85.847A5.383,5.383,0,0,0,187.625,87l-.117.011a3.508,3.508,0,0,1,0-7.016Zm0,0" transform="translate(-184 -77.661)" fill="#f0d0b4"/>
      </g>
      <path id="Trazado_736825" data-name="Trazado 736825" d="M202.71,17.355v4.677a3.513,3.513,0,0,0-3.508-3.508H199a7.994,7.994,0,0,1-5.648-2.339,7.994,7.994,0,0,1-5.648,2.339h-.2A3.5,3.5,0,0,0,184,22.032V17.355a9.355,9.355,0,0,1,18.71,0Zm0,0" transform="translate(-157.105 -6.831)" fill="#b27946"/>
      <path id="Trazado_736826" data-name="Trazado 736826" d="M310.4,291.694v7.016l-3.087.783c-.152.421-.327.83-.514,1.24l1.626,2.736-4.958,4.958-2.736-1.626c-.409.187-.819.363-1.24.514l-.783,3.087h-7.016l-.783-3.087c-.421-.152-.83-.327-1.24-.514l-2.736,1.626-4.958-4.958,1.626-2.736c-.187-.409-.363-.819-.514-1.24L280,298.71v-7.016l3.087-.783c.152-.421.327-.83.514-1.24l-1.626-2.736,4.958-4.958,2.736,1.626c.409-.187.819-.363,1.24-.514l.783-3.087h7.016l.783,3.087c.421.152.83.327,1.24.514l2.736-1.626,4.958,4.958-1.626,2.736c.187.409.363.819.514,1.24Zm-7.016,3.508a8.185,8.185,0,1,0-8.185,8.185A8.179,8.179,0,0,0,303.387,295.2Zm0,0" transform="translate(-239.073 -239.073)" fill="#fcd770"/>
      <path id="Trazado_736827" data-name="Trazado 736827" d="M336.186,328A8.185,8.185,0,1,1,328,336.186,8.179,8.179,0,0,1,336.186,328Zm3.508,8.186a3.508,3.508,0,1,0-3.508,3.508A3.5,3.5,0,0,0,339.694,336.186Zm0,0" transform="translate(-280.056 -280.056)" fill="#ffeaa7"/>
      <path id="Trazado_736828" data-name="Trazado 736828" d="M8,296H29.048v28.065H8Zm0,0" transform="translate(-6.831 -252.734)" fill="#e6e9ed"/>
      <path id="Trazado_736829" data-name="Trazado 736829" d="M304.742,292.786v-8.832l-3.383-.864c-.023-.057-.047-.114-.071-.171l1.781-3-6.245-6.245-3,1.781-.171-.071L292.786,272h-8.832l-.864,3.383-.171.071-3-1.781-6.245,6.245,1.781,3c-.025.058-.048.115-.071.171l-3.382.864v8.832l3.383.864c.023.057.047.114.071.171l-1.781,3,6.245,6.245,3-1.781.171.071.864,3.382h8.832l.864-3.383.171-.071,3,1.781,6.245-6.245-1.781-3c.025-.058.048-.115.071-.171Zm-4.611,3.669-3.676,3.676-2.5-1.483-.562.269a11.7,11.7,0,0,1-1.115.462l-.589.209-.718,2.815h-5.2l-.718-2.815-.589-.209a11.023,11.023,0,0,1-1.115-.462l-.562-.269-2.5,1.483-3.677-3.676,1.483-2.5-.269-.562a11.7,11.7,0,0,1-.462-1.115l-.209-.589-2.816-.718v-5.2l2.815-.718.209-.589a11.023,11.023,0,0,1,.462-1.115l.269-.562-1.483-2.5,3.677-3.677,2.5,1.483.562-.269a11.7,11.7,0,0,1,1.115-.462l.589-.209.718-2.816h5.2l.718,2.815.589.209a11.029,11.029,0,0,1,1.115.462l.562.269,2.5-1.483,3.677,3.677-1.483,2.5.269.562a11.713,11.713,0,0,1,.462,1.115l.209.589,2.816.718v5.2l-2.815.718-.209.589a11.029,11.029,0,0,1-.462,1.115l-.269.562Zm0,0" transform="translate(-232.242 -232.242)"/>
      <path id="Trazado_736830" data-name="Trazado 736830" d="M329.355,320a9.355,9.355,0,1,0,9.355,9.355A9.366,9.366,0,0,0,329.355,320Zm0,16.371a7.016,7.016,0,1,1,7.016-7.016A7.023,7.023,0,0,1,329.355,336.371Zm0,0" transform="translate(-273.226 -273.226)"/>
      <path id="Trazado_736831" data-name="Trazado 736831" d="M356.677,352a4.677,4.677,0,1,0,4.677,4.677A4.682,4.682,0,0,0,356.677,352Zm0,7.016a2.339,2.339,0,1,1,2.339-2.339A2.341,2.341,0,0,1,356.677,359.016Zm0,0" transform="translate(-300.548 -300.548)"/>
      <path id="Trazado_736832" data-name="Trazado 736832" d="M159.4,19.8a7.028,7.028,0,0,0,1.958,2.956v.992l-5.56,2.085A5.872,5.872,0,0,0,152,31.306v6.113h28.065V31.306a5.876,5.876,0,0,0-3.794-5.475l-5.561-2.085v-.991a7.014,7.014,0,0,0,1.958-2.956,4.676,4.676,0,0,0,3.888-4.6V10.524a10.524,10.524,0,1,0-21.048,0V15.2A4.676,4.676,0,0,0,159.4,19.8Zm8.975,4.433-2.339,3.9-2.339-3.9v-.086a6.885,6.885,0,0,0,4.677,0Zm-6.349,1.761,2.358,3.928-2.342,1.17-1.513-4.537Zm15.7,5.312v3.775H154.339V31.306a3.524,3.524,0,0,1,2.276-3.285l1.719-.644,2.338,7.014,5.36-2.68,5.36,2.68,2.338-7.014,1.72.645A3.522,3.522,0,0,1,177.726,31.306Zm-6.186-4.751-1.513,4.538-2.342-1.17,2.358-3.929Zm-5.508-4.337a4.682,4.682,0,0,1-4.677-4.677V12.784a9.052,9.052,0,0,0,4.677-1.867,9.042,9.042,0,0,0,4.677,1.867V17.54A4.682,4.682,0,0,1,166.032,22.218Zm7.016-5V13.189a2.318,2.318,0,0,1,0,4.027ZM166.032,2.339a8.2,8.2,0,0,1,8.185,8.185v.65a4.626,4.626,0,0,0-2.339-.65h-.2a6.767,6.767,0,0,1-4.819-2l-.827-.828-.827.828a6.769,6.769,0,0,1-4.819,2h-.2a4.626,4.626,0,0,0-2.339.65v-.65A8.2,8.2,0,0,1,166.032,2.339Zm-7.016,10.849v4.027a2.318,2.318,0,0,1,0-4.027Zm0,0" transform="translate(-129.782)"/>
      <path id="Trazado_736833" data-name="Trazado 736833" d="M0,318.4H23.387V288H0Zm2.339-28.065h18.71v25.726H2.339Zm0,0" transform="translate(0 -245.903)"/>
      <path id="Trazado_736834" data-name="Trazado 736834" d="M32,320H46.032v2.339H32Zm0,0" transform="translate(-27.323 -273.226)"/>
      <path id="Trazado_736835" data-name="Trazado 736835" d="M32,352h2.339v2.339H32Zm0,0" transform="translate(-27.323 -300.548)"/>
      <path id="Trazado_736836" data-name="Trazado 736836" d="M64,352h9.355v2.339H64Zm0,0" transform="translate(-54.645 -300.548)"/>
      <path id="Trazado_736837" data-name="Trazado 736837" d="M32,384H46.032v2.339H32Zm0,0" transform="translate(-27.323 -327.871)"/>
      <path id="Trazado_736838" data-name="Trazado 736838" d="M32,416H46.032v2.339H32Zm0,0" transform="translate(-27.323 -355.194)"/>
      <path id="Trazado_736839" data-name="Trazado 736839" d="M112,448h2.339v2.339H112Zm0,0" transform="translate(-95.629 -382.516)"/>
      <path id="Trazado_736840" data-name="Trazado 736840" d="M32,448h9.355v2.339H32Zm0,0" transform="translate(-27.323 -382.516)"/>
      <path id="Trazado_736841" data-name="Trazado 736841" d="M171.845,348l-1.654-1.654-5.5,5.5,5.5,5.5,1.654-1.654-2.681-2.681h8.871v-2.339h-8.871Zm0,0" transform="translate(-140.615 -295.719)"/>
      <path id="Trazado_736842" data-name="Trazado 736842" d="M74.339,82.187a1.171,1.171,0,0,1,1.169-1.169h5.363L78.189,83.7l1.654,1.654,5.5-5.5-5.5-5.5L78.189,76l2.681,2.681H75.508A3.513,3.513,0,0,0,72,82.187v21.048h2.339Zm0,0" transform="translate(-61.476 -63.477)"/>
      <path id="Trazado_736843" data-name="Trazado 736843" d="M343.016,107.508v14.717l-2.681-2.681-1.654,1.654,5.5,5.5,5.5-5.5-1.654-1.654-2.681,2.681V107.508A3.513,3.513,0,0,0,341.847,104H336v2.339h5.847A1.171,1.171,0,0,1,343.016,107.508Zm0,0" transform="translate(-286.887 -88.798)"/>
    </g>
  </g>
</svg>
