<svg xmlns="http://www.w3.org/2000/svg" width="97.08" height="156" viewBox="0 0 97.08 156">
  <g id="Grupo_58470" data-name="Grupo 58470" transform="translate(-1060.385 -225.292)">
    <rect id="Rectángulo_5679" data-name="Rectángulo 5679" width="44.793" height="3.59" transform="translate(1112.673 305.983)" fill="#ffca1a"/>
    <path id="Trazado_102280" data-name="Trazado 102280" d="M1115.885,321.4h-41.747v-.1h-.023l-7.189-46.724L1065.04,263h-4.187l7.535,49.258c.057.424.111.841.166,1.255.356,2.866.656,5.493.885,7.806v48.161h4.7V349.018h41.747v21.109h4.14V321.4Zm0,18.608v2.636h-41.747V329.9h41.747Z" transform="translate(0.138 11.165)" fill="#ffca1a"/>
    <path id="Trazado_102281" data-name="Trazado 102281" d="M1141.86,371.622c-6.829-1.7-9.735-3.634-9.735-3.634l-.8-.08c.563-1.686,4.381-14.227,4.381-43.963,0-3.888-3.83-7.465-7.251-8.088-7.39-1.344-33.777-6.808-33.777-6.808l-.283-1.945a49.269,49.269,0,0,1-.36-7.223,105.909,105.909,0,0,0,13.3,1.062c2.99.054,6.618-1.443,8.145-.6,4.929,2.726,8.4-.4,9.372-.96,2.79-1.616-.841-4.29-2.19-5.411s-6.406,2.12-9.566,1.423-15.929-4.539-15.929-4.539h-.752l.349-1.481a8.463,8.463,0,0,1,.924-1.085c5.778-5.659,6.894-15.644,6.5-18.846l.633-1.767a4.9,4.9,0,0,1,.984-1.226c.788-.7,1.761-1.484,2.566-2.113a5.08,5.08,0,0,0,.6.258c2.57.907,4.532,1.752,4.687.564a2.852,2.852,0,0,1,1.363-2.433c.639-.284.279-.741.106-1.059,1.878-.349.5-.927.78-1.395a2.089,2.089,0,0,1,1.2-.906c.4-.121,1.926-.638,1.681-1.122a14.881,14.881,0,0,0-.992-1.659,9.275,9.275,0,0,1-1.2-2.7c.01-.016,1.259-1.169,1.386-1.295a1.643,1.643,0,0,0,.339-1.7c-.114-.478-.368-1.5-.6-2.448,1.376-.408,3.49-2.231,2.692-3.936-.832-1.778-4.725-3.562-5.721-4.217-3.112-2.054-9.029-6.237-14.692,1.125-5.835,7.581-1.245,12.661.152,14.511a4.981,4.981,0,0,1,.789,1.864c-1.177,1.056-2.7,2.4-4.513,3.95l-1.826.931s-8.382,1.156-12.326,7.879-8.676,18.1-8.676,27.709a67.338,67.338,0,0,0,.708,10.956l.32,1.916s.84,9.165,4.028,14.078c2.815,4.335,7.1,6.159,13.411,6.32,5.161.132,28.549-1.995,29.455-2.017-1.555,9.543.247,32.193.7,37.483l-.024,0s-1.148,4.068-1.452,6.163a7.323,7.323,0,0,0,.057,3.133l23.153-.416S1143.923,372.138,1141.86,371.622Z" transform="translate(3.908 3.536)" fill="#104c8b"/>
    <g id="Grupo_58469" data-name="Grupo 58469" transform="translate(1060.385 225.292)">
      <path id="Trazado_102282" data-name="Trazado 102282" d="M1102.181,236.751l-3.121,2.215a.746.746,0,0,1-.867,0l-3.121-2.215a.748.748,0,0,1-.316-.61v-10.1a.75.75,0,0,1,.749-.749h6.242a.749.749,0,0,1,.749.749v10.1A.747.747,0,0,1,1102.181,236.751Z" transform="translate(-1050.209 -225.292)" fill="#ea526f"/>
      <path id="Trazado_102283" data-name="Trazado 102283" d="M1113.63,247.565l-2.215-3.121a.744.744,0,0,1,0-.867l2.215-3.121a.746.746,0,0,1,.61-.315h10.1a.749.749,0,0,1,.749.749v6.242a.749.749,0,0,1-.749.749h-10.1A.747.747,0,0,1,1113.63,247.565Z" transform="translate(-1045.317 -220.896)" fill="#ea526f"/>
      <path id="Trazado_102284" data-name="Trazado 102284" d="M1125.7,304.073l-2.215-3.121a.75.75,0,0,1,0-.867l2.215-3.121a.747.747,0,0,1,.611-.315h10.1a.748.748,0,0,1,.749.749v6.242a.749.749,0,0,1-.749.749h-10.1A.748.748,0,0,1,1125.7,304.073Z" transform="translate(-1041.743 -204.165)" fill="#ea526f"/>
      <path id="Trazado_102285" data-name="Trazado 102285" d="M1125.7,325.906l-2.215-3.121a.75.75,0,0,1,0-.867l2.215-3.121a.748.748,0,0,1,.611-.316h10.1a.749.749,0,0,1,.749.749v6.242a.749.749,0,0,1-.749.749h-10.1A.75.75,0,0,1,1125.7,325.906Z" transform="translate(-1041.743 -197.701)" fill="#ea526f"/>
      <path id="Trazado_102286" data-name="Trazado 102286" d="M1078.023,313.164l3.121-2.215a.75.75,0,0,1,.867,0l3.121,2.215a.748.748,0,0,1,.316.61v10.1a.749.749,0,0,1-.749.749h-6.242a.748.748,0,0,1-.749-.749v-10.1A.746.746,0,0,1,1078.023,313.164Z" transform="translate(-1055.256 -199.972)" fill="#ea526f"/>
      <path id="Trazado_102287" data-name="Trazado 102287" d="M1071.927,289.018l2.215,3.121a.749.749,0,0,1,0,.867l-2.215,3.121a.747.747,0,0,1-.61.316h-10.1a.749.749,0,0,1-.749-.749v-6.242a.749.749,0,0,1,.749-.749h10.1A.75.75,0,0,1,1071.927,289.018Z" transform="translate(-1060.361 -206.517)" fill="#ea526f"/>
      <path id="Trazado_102288" data-name="Trazado 102288" d="M1071.844,264.791l2.215,3.121a.75.75,0,0,1,0,.867l-2.215,3.121a.746.746,0,0,1-.61.315h-10.1a.747.747,0,0,1-.748-.748v-6.243a.747.747,0,0,1,.748-.748h10.1A.746.746,0,0,1,1071.844,264.791Z" transform="translate(-1060.385 -213.69)" fill="#ea526f"/>
      <path id="Trazado_102289" data-name="Trazado 102289" d="M1080.371,253.322l-.268,3.818a.752.752,0,0,1-.551.67l-3.691,1.007a.75.75,0,0,1-.672-.144l-7.806-6.408a.749.749,0,0,1-.1-1.055l3.961-4.824a.747.747,0,0,1,1.054-.1l7.806,6.408A.748.748,0,0,1,1080.371,253.322Z" transform="translate(-1058.395 -219.128)" fill="#ea526f"/>
      <path id="Trazado_102290" data-name="Trazado 102290" d="M1091.825,247.35l-.268,3.818a.749.749,0,0,1-.55.67l-3.693,1.007a.747.747,0,0,1-.671-.144l-7.806-6.408a.749.749,0,0,1-.1-1.055l3.96-4.824a.749.749,0,0,1,1.055-.1l7.806,6.408A.749.749,0,0,1,1091.825,247.35Z" transform="translate(-1055.003 -220.896)" fill="#ea526f"/>
    </g>
  </g>
</svg>
