<svg xmlns="http://www.w3.org/2000/svg" width="118.494" height="112.824" viewBox="0 0 118.494 112.824">
  <g id="Grupo_1042728" data-name="Grupo 1042728" transform="translate(-741 -1368)">
    <path id="Trazado_771857" data-name="Trazado 771857" d="M10,0h98.494a10,10,0,0,1,10,10v92.823a10,10,0,0,1-10,10H10a10,10,0,0,1-10-10V10A10,10,0,0,1,10,0Z" transform="translate(741 1368)" fill="#9f0925"/>
    <g id="telarrrr" transform="translate(755.902 1379.727)">
      <path id="Trazado_771368" data-name="Trazado 771368" d="M30.561,21.638V73.649h0a10.869,10.869,0,0,0-21.734-.281V21.638a10.869,10.869,0,0,1,21.737,0Z" transform="translate(-1.731 -2.728)" fill="#f0c020"/>
      <path id="Trazado_771369" data-name="Trazado 771369" d="M30.544,188.028a10.869,10.869,0,1,1-10.869-10.869A10.87,10.87,0,0,1,30.544,188.028Z" transform="translate(-1.717 -117.107)" fill="#e8a61e"/>
      <circle id="Elipse_8055" data-name="Elipse 8055" cx="3.123" cy="3.123" r="3.123" transform="translate(14.837 67.797)" fill="#eee"/>
      <path id="Trazado_771370" data-name="Trazado 771370" d="M107.231,47.1v59.754a1.563,1.563,0,0,1-1.563,1.563H43.589A10.87,10.87,0,0,0,54.458,97.549V45.538h51.211A1.563,1.563,0,0,1,107.231,47.1Z" transform="translate(-25.629 -26.629)" fill="#f0c020"/>
      <path id="Trazado_771371" data-name="Trazado 771371" d="M56.646,45.538V97.549a13.06,13.06,0,0,1-5.827,10.869h-7.23A10.87,10.87,0,0,0,54.458,97.549V45.538Z" transform="translate(-25.629 -26.629)" fill="#e8a61e"/>
      <g id="Grupo_1054252" data-name="Grupo 1054252" transform="translate(7.091 19.135)">
        <path id="Trazado_771372" data-name="Trazado 771372" d="M78.359,81.034h52.774v9.315H78.359Z" transform="translate(-56.622 -70.165)" fill="#fc5d3d"/>
        <path id="Trazado_771373" data-name="Trazado 771373" d="M19.688,46.263A10.868,10.868,0,0,0,8.819,57.132v9.317a10.869,10.869,0,1,1,21.737,0V57.132A10.87,10.87,0,0,0,19.688,46.263Z" transform="translate(-8.819 -46.263)" fill="#fc5d3d"/>
        <path id="Trazado_771374" data-name="Trazado 771374" d="M78.359,155.124h52.774v9.318H78.359Z" transform="translate(-56.622 -121.096)" fill="#fc5d3d"/>
        <path id="Trazado_771375" data-name="Trazado 771375" d="M19.688,120.356A10.868,10.868,0,0,0,8.819,131.225v9.317a10.869,10.869,0,0,1,21.737,0v-9.317A10.87,10.87,0,0,0,19.688,120.356Z" transform="translate(-8.819 -97.196)" fill="#fc5d3d"/>
      </g>
      <path id="Trazado_771376" data-name="Trazado 771376" d="M78.359,81.034h2.188v9.315H78.359Z" transform="translate(-49.53 -51.03)" fill="#b25035"/>
      <path id="Trazado_771377" data-name="Trazado 771377" d="M78.359,155.124h2.188v9.318H78.359Z" transform="translate(-49.53 -101.96)" fill="#b25035"/>
      <path id="Trazado_771378" data-name="Trazado 771378" d="M93.845,12.8c-1.151-.38-2.34-.713-3.008-3.589-.615,2.649-1.6,3.123-3.008,3.589,2.3.759,2.643,2.015,3.008,3.589C91.466,13.678,92.507,13.244,93.845,12.8Z" transform="translate(-56.04 -1.659)" fill="#f0c020"/>
      <path id="Trazado_771379" data-name="Trazado 771379" d="M88.387,14.923c-.334-1.438-.554-2.387-2.5-3.029a.774.774,0,0,1,0-1.468c1.17-.387,1.943-.642,2.5-3.03a.774.774,0,0,1,1.506,0c.567,2.442,1.414,2.672,2.5,3.029a.774.774,0,0,1,0,1.468c-1.128.373-1.944.642-2.5,3.029A.773.773,0,0,1,88.387,14.923Zm-.442-3.746a4.015,4.015,0,0,1,1.21,1.28,3.825,3.825,0,0,1,1.144-1.29,3.943,3.943,0,0,1-1.156-1.338A3.831,3.831,0,0,1,87.945,11.177Z" transform="translate(-54.343)"/>
      <path id="Trazado_771380" data-name="Trazado 771380" d="M49.614,67.932a.781.781,0,0,1-.781-.781V26.792a6.994,6.994,0,0,0-3.476-6.024.781.781,0,0,1,.785-1.351A8.561,8.561,0,0,1,50.4,26.792V67.151A.781.781,0,0,1,49.614,67.932ZM42.807,19.888a.756.756,0,0,1-.1-.006,7.04,7.04,0,0,0-.841-.051.781.781,0,0,1,0-1.563,8.55,8.55,0,0,1,1.029.062.782.782,0,0,1-.093,1.558Z" transform="translate(-23.911 -7.883)" fill="#f8e5b0"/>
      <path id="Trazado_771381" data-name="Trazado 771381" d="M131.1,111.229H83.642a.781.781,0,1,1,0-1.563H130.32V57.883a.781.781,0,1,1,1.563,0v52.564A.781.781,0,0,1,131.1,111.229Zm0-55.69a.781.781,0,0,1-.781-.781v-.938a.781.781,0,0,1,1.563,0v.938A.781.781,0,0,1,131.1,55.539Z" transform="translate(-52.625 -31.785)" fill="#f8e5b0"/>
      <path id="Trazado_771382" data-name="Trazado 771382" d="M235.47,89.416a.781.781,0,0,1-.781-.781V79.319a.781.781,0,0,1,1.563,0v9.315A.781.781,0,0,1,235.47,89.416Z" transform="translate(-156.994 -49.314)" fill="#ffcbc3"/>
      <path id="Trazado_771383" data-name="Trazado 771383" d="M66.645,65.017a.781.781,0,0,1-.781-.781V54.92a.781.781,0,0,1,1.563,0v9.315A.781.781,0,0,1,66.645,65.017Z" transform="translate(-40.941 -32.542)" fill="#ffcbc3"/>
      <path id="Trazado_771384" data-name="Trazado 771384" d="M235.47,163.505a.781.781,0,0,1-.781-.781v-9.318a.781.781,0,0,1,1.563,0v9.318A.781.781,0,0,1,235.47,163.505Z" transform="translate(-156.994 -100.242)" fill="#ffcbc3"/>
      <path id="Trazado_771385" data-name="Trazado 771385" d="M66.645,139.117a.781.781,0,0,1-.781-.781V129.02a.781.781,0,1,1,1.563,0v9.315A.781.781,0,0,1,66.645,139.117Z" transform="translate(-40.941 -83.479)" fill="#ffcbc3"/>
      <path id="Trazado_771386" data-name="Trazado 771386" d="M27.183,205.464a.781.781,0,0,1,1.1-1.1,5.471,5.471,0,0,0,9.28-4.6.782.782,0,0,1,1.549-.208,7.036,7.036,0,0,1-11.934,5.916Zm9.372-8.215a5.549,5.549,0,0,0-.536-.622.782.782,0,0,1,1.106-1.1,7.111,7.111,0,0,1,.687.8.782.782,0,0,1-1.257.929Z" transform="translate(-14.194 -129.573)" fill="#f8e5b0"/>
      <path id="Trazado_771387" data-name="Trazado 771387" d="M35,199.438a3.9,3.9,0,1,0,3.9,3.9A3.909,3.909,0,0,0,35,199.438Zm0,6.245a2.341,2.341,0,1,1,2.341-2.341A2.344,2.344,0,0,1,35,205.683Z" transform="translate(-17.043 -132.422)"/>
      <circle id="Elipse_8056" data-name="Elipse 8056" cx="0.781" cy="0.781" r="0.781" transform="translate(54.471 81.007)"/>
      <path id="Trazado_771388" data-name="Trazado 771388" d="M178.2,78.529a.781.781,0,1,0,.781.785A.786.786,0,0,0,178.2,78.529Z" transform="translate(-117.629 -49.308)"/>
      <path id="Trazado_771389" data-name="Trazado 771389" d="M42.8,147.677a.78.78,0,1,0-.038,1.56h.019a.78.78,0,0,0,.019-1.56Z" transform="translate(-24.538 -96.841)"/>
      <path id="Trazado_771390" data-name="Trazado 771390" d="M17.961,8.269a11.663,11.663,0,0,0-11.65,11.65v51.73h0A11.655,11.655,0,0,0,17.958,83.58H52.127a.781.781,0,0,0,0-1.563H23.776a11.654,11.654,0,0,0,5.831-10.042c0-.015,0-.029,0-.044V64.274h51.21V81.236a.786.786,0,0,1-.781.781H58.378a.781.781,0,0,0,0,1.563H80.041a2.351,2.351,0,0,0,2.344-2.344V21.482a2.351,2.351,0,0,0-2.344-2.344H29.583A11.664,11.664,0,0,0,17.961,8.269ZM7.874,30.954c.078-13.3,20.156-13.231,20.172.048,0,.005,0,.01,0,.015V34.5a11.651,11.651,0,0,0-20.171,0V30.954Zm10.09,51.063h-.006a10.084,10.084,0,1,1,.006,0ZM28.049,66.112a11.678,11.678,0,0,0-20.174-.061v-2.72a10.094,10.094,0,0,1,7.48-9.587.785.785,0,0,0,.553-.957.794.794,0,0,0-.957-.553,11.677,11.677,0,0,0-7.077,5.418v-3.6c.188-13.247,20.13-13.124,20.174.111,0,0,0,.006,0,.009v3.485a11.667,11.667,0,0,0-6.491-5.253.793.793,0,0,0-.985.5.785.785,0,0,0,.5.985,10.06,10.06,0,0,1,6.973,9.566v.032c0,.005,0,.01,0,.015Zm0-17.768a11.661,11.661,0,0,0-20.174-.007V40.27C7.953,27.033,27.951,27,28.045,40.259v.072c0,.011,0,.022,0,.033Zm0-23.145a11.644,11.644,0,0,0-20.174-.005V19.919a10.087,10.087,0,0,1,20.174-.026c0,.009,0,.018,0,.026s0,.022,0,.033Zm1.563,6.6H57.45a.781.781,0,1,0,0-1.563H29.612V20.7H80.041a.786.786,0,0,1,.781.781v8.749H63.7a.781.781,0,1,0,0,1.563H80.822v7.752H29.612Zm0,9.315h51.21V53.392H29.612Zm0,13.846H80.821V62.71H29.612Z" transform="translate(0 -1.01)"/>
    </g>
  </g>
</svg>
