<svg xmlns="http://www.w3.org/2000/svg" width="172.599" height="256.795" viewBox="0 0 172.599 256.795">
  <g id="Grupo_1052094" data-name="Grupo 1052094" transform="translate(0)">
    <path id="Trazado_102291" data-name="Trazado 102291" d="M1373.155,370.126V459.5h-7.593V420.777h-76.573v37.531h-8.62V369.97c-.421-4.243-.97-9.062-1.624-14.319-.1-.758-.2-1.524-.3-2.3L1264.62,263h7.681l3.459,21.246,13.187,85.7h.043v.178h84.166Zm-7.593,15.588h-76.573v23.379h76.573V385.714Z" transform="translate(-1264.62 -202.702)" fill="#ffca1a"/>
    <path id="Trazado_102292" data-name="Trazado 102292" d="M1249.918,275.124a8.591,8.591,0,0,0-2.353-2.591c-3.3-2.182-13.589-7.752-8.508-23.286,4.933-15.082,16.843-11.715,23.027-10.18,1.975.492,9.262,1.148,11.615,3.537,2.247,2.285-.088,6.376-2.068,7.833.906,1.379,1.876,2.846,2.325,3.54a2.8,2.8,0,0,1,.421,2.934c-.131.276-1.486,2.843-1.493,2.874a15.825,15.825,0,0,0,3.466,3.661,25.179,25.179,0,0,1,2.541,2.109c.672.642-1.5,2.344-2.068,2.765a3.566,3.566,0,0,0-1.41,2.14c-.192.915,2.363,1.06-.461,2.691.457.414,1.3.944.43,1.766-1.4,1.327-1.094,3.369-.811,4.7.428,2-3.214,1.759-7.871,1.762-.243,0-.5-.031-.761-.052a31.192,31.192,0,0,0,.25,3.616c.333,2.147.965,4.928,1.483,7.056h0l1.648,3.226h0a143.657,143.657,0,0,1,12.759,27.472c1.854,5.622,3.15,15.419,4.025,24.779l1.376.155,1.015,2.582s39.009,17.243,42.6,21.591a48.2,48.2,0,0,1,4.883,7.11c1.624.3,3.112.59,4.412.851a30.563,30.563,0,0,1,9.441,3.2c.009-.093.023-.181.031-.276,2.826,1.743,12.856,3.162,15.186,17.326,5.82,35.377,3.266,66.158,9.659,73.654a114.744,114.744,0,0,0,20.625,7.638c4.215,1.134,4.118,8.787,4.118,8.787h-47.494s-.7-2.14,0-6.424c.245-1.51,2.275-8.035,2.782-10l-3.554-18.762a115.349,115.349,0,0,0-3.45-13.567c-2.13-6.683-5.216-18.947-4.322-31.856a1.937,1.937,0,0,0-2.032-2.1c-4.362.261-13.586.675-13.586.675s-32.609,1.167-44.745,1.735c-10.776.5-25.963-.682-28.416-9.167-1.583-5.482-1.471-15.051-1.2-21.151h0s-.245-1.819-.447-3.366l-.083,0s-.06-.754-.171-2.059l0-.012h0c-.606-7.094-2.732-30.453-5.087-38.6-4.415-15.267-4.714-25.306-3.94-30.446.6-3.968,3.811-11.468,5.249-14.694l.63-2.137.155.064c.252-1.6.5-3.483.587-5.057.141-2.641.074-5.717-.057-8.475C1250.061,274.953,1249.918,275.124,1249.918,275.124Zm68.59,100.632c-6.949-2.682-22.594-6.416-31.016-8.58.028.537.052,1.02.071,1.471h0l2.81,2.634c3.658.578,16.141,2.556,28.378,4.61C1318.66,375.85,1318.608,375.793,1318.508,375.755Z" transform="translate(-1226.852 -237.636)" fill="#104c8b"/>
  </g>
</svg>
