<svg xmlns="http://www.w3.org/2000/svg" width="118.494" height="112.824" viewBox="0 0 118.494 112.824">
  <g id="Grupo_1042732" data-name="Grupo 1042732" transform="translate(-426 -1381)">
    <path id="Trazado_771856" data-name="Trazado 771856" d="M10,0h98.494a10,10,0,0,1,10,10v92.823a10,10,0,0,1-10,10H10a10,10,0,0,1-10-10V10A10,10,0,0,1,10,0Z" transform="translate(426 1381)" fill="#9f0925"/>
    <g id="_091---Dressmaking" data-name="091---Dressmaking" transform="translate(444.667 1395.158)">
      <path id="Rectangle-path" d="M10,25H35.7v7.139H10Z" transform="translate(4.277 10.694)" fill="#1448d3"/>
      <path id="Rectangle-path-2" data-name="Rectangle-path" d="M10,25H31.416v7.139H10Z" transform="translate(4.277 10.694)" fill="#abf6f8"/>
      <path id="Shape" d="M55.422,11c-.443,6.472.377-3.985-4.183,61.393a1.531,1.531,0,0,1-3.055,0C42.585-7.846,44.484,18.07,44,11h1.456a7.243,7.243,0,0,0,2.113,4.826C50.358,18.3,53.64,15.3,53.966,11Z" transform="translate(18.821 4.705)" fill="#7f8e94"/>
      <path id="Shape-2" data-name="Shape" d="M52.9,11c-.166,2.193-1.184,4.647-3.2,5.5C46.344,65.69,46.49,63.24,46.5,63.384l.614,9.009a1.531,1.531,0,0,0,3.055,0c4.612-66.1,3.675-53.96,4.183-61.393Z" transform="translate(19.889 4.705)" fill="#545c60"/>
      <path id="Shape-3" data-name="Shape" d="M52.143,59.241a1.428,1.428,0,0,1-2.07,1.385,5.842,5.842,0,0,0-2.272-.871A4.873,4.873,0,0,0,45,60.2a5.308,5.308,0,0,1-3,.942c-2.57,0-2.553-1.428-5.14-1.428s-2.554,1.428-5.14,1.428-2.553-1.428-5.14-1.428-2.554,1.428-5.14,1.428-2.553-1.428-5.14-1.428-2.554,1.428-5.14,1.428-2.553-1.428-5.14-1.428a5.187,5.187,0,0,0-2.941.914A1.441,1.441,0,0,1,1,59.241c.1-1.314.228-2.584.385-3.841a6.1,6.1,0,0,0,2.5-.914A4.309,4.309,0,0,1,6.027,54c2.587,0,2.57,1.428,5.14,1.428S13.737,54,16.307,54s2.57,1.428,5.14,1.428S24.016,54,26.586,54s2.57,1.428,5.14,1.428S34.3,54,36.866,54s2.57,1.428,5.14,1.428c2.67,0,2.427-1.465,5.283-1.428,2.156.029,2.427,1.142,4.258,1.371a.447.447,0,0,0,.214.029c.154,1.242.283,2.527.383,3.841Z" transform="translate(0.426 23.098)" fill="#1448d3"/>
      <path id="Shape-4" data-name="Shape" d="M38.574,55.4a.447.447,0,0,1-.214-.029c-1.828-.228-2.1-1.314-4.258-1.371a4.693,4.693,0,0,0-2.284.49,5.978,5.978,0,0,0,2.263.881.447.447,0,0,0,.214.029c.157,1.242.286,2.527.385,3.841a1.358,1.358,0,0,1-.059.514,5.772,5.772,0,0,1,2.272.871,1.428,1.428,0,0,0,2.07-1.385C38.86,57.927,38.731,56.642,38.574,55.4Z" transform="translate(13.61 23.097)" fill="#6a1b9a"/>
      <path id="Shape-5" data-name="Shape" d="M51.642,65.665c-1.6,0-2.3-1.371-4.472-1.4-2.873-.037-2.6,1.428-5.283,1.428-2.57,0-2.553-1.428-5.14-1.428s-2.554,1.428-5.14,1.428-2.553-1.428-5.14-1.428-2.554,1.428-5.14,1.428-2.553-1.428-5.14-1.428-2.554,1.428-5.14,1.428S8.5,64.266,5.908,64.266a4.309,4.309,0,0,0-2.142.485,6.091,6.091,0,0,1-2.5.914C3.161,50.056,9.078,36.252,13.735,30h25.7s9.523,13.064,12.207,35.665Z" transform="translate(0.542 12.832)" fill="#0ce6ea"/>
      <path id="Shape-6" data-name="Shape" d="M29.283,30H25s9.115,12.541,12.019,34.266c2.142,0,2.8,1.4,4.472,1.4C38.806,43.064,29.283,30,29.283,30Z" transform="translate(10.693 12.832)" fill="#1448d3"/>
      <path id="Shape-7" data-name="Shape" d="M41.708,19.794a24.714,24.714,0,0,0-4.469,14.163H11.54A24.376,24.376,0,0,0,6.814,19.794,2.81,2.81,0,0,1,6.8,16.881c1.5-2.327,1.728-5.868,1.756-8.167a2.9,2.9,0,0,1,.828-1.97L12.068,4.06l.029.014,1.8,4.772a1.428,1.428,0,0,0,2.055.728L18.993,7.8c.975,1.983,3.074,2.627,5.268,2.627,3.3,0,4.683-1.428,5.268-2.627l3.054,1.773a1.428,1.428,0,0,0,2.056-.728l1.8-4.786h.014l2.684,2.684a2.856,2.856,0,0,1,.842,1.97c.029,2.3.257,5.84,1.742,8.167a2.748,2.748,0,0,1-.014,2.913Z" transform="translate(2.737 1.737)" fill="#0ce6ea"/>
      <path id="Shape-8" data-name="Shape" d="M33.766,16.881c-1.485-2.327-1.713-5.868-1.742-8.167a2.856,2.856,0,0,0-.842-1.97L28.5,4.06h-.014l-1.2,3.178a2.831,2.831,0,0,1,.457,1.476c.029,2.3.257,5.84,1.742,8.167a2.748,2.748,0,0,1-.014,2.913A24.714,24.714,0,0,0,25,33.957h4.283a24.714,24.714,0,0,1,4.469-14.163,2.748,2.748,0,0,0,.014-2.913Z" transform="translate(10.693 1.737)" fill="#1448d3"/>
      <path id="Shape-9" data-name="Shape" d="M13.462,1.242l-2.7,1.74a1.428,1.428,0,0,0-.543,1.692L12.3,10.155a1.428,1.428,0,0,0,2.055.728l3.508-2.04A1.428,1.428,0,0,0,18.4,6.922L15.512,1.74a1.428,1.428,0,0,0-2.05-.5Z" transform="translate(4.333 0.427)" fill="#ffe0b2"/>
      <path id="Shape-10" data-name="Shape" d="M26.893,1.241l2.7,1.74a1.428,1.428,0,0,1,.541,1.692l-2.075,5.481A1.428,1.428,0,0,1,26,10.883l-3.508-2.04a1.428,1.428,0,0,1-.533-1.922l2.887-5.181a1.428,1.428,0,0,1,2.045-.5Z" transform="translate(9.318 0.428)" fill="#ffe0b2"/>
      <path id="Shape-11" data-name="Shape" d="M75.528,13.125c-.668-4.226-3.551-7.414-7-7.414-3.6,0-6.568,3.478-7.06,7.981-5.361,3.514-8.554,10.6-9.486,16.862-1.478,9.966.768,21.131-3.451,26.315A68.05,68.05,0,0,0,41.4,42.384c0-9.542-.5-12.246,4.27-20.121a4.15,4.15,0,0,0-.009-4.413c-1.451-2.262-1.5-6.139-1.523-7.424a4.259,4.259,0,0,0-1.252-2.961L40.84,5.425a2.847,2.847,0,0,0-1.156-3.21L36.994.474a2.856,2.856,0,0,0-4.073,1L30.029,6.659a2.836,2.836,0,0,0,.247,3.131,6.1,6.1,0,0,1-6.545,0,2.84,2.84,0,0,0,.243-3.141L21.09,1.475a2.856,2.856,0,0,0-4.076-1L14.3,2.224a2.836,2.836,0,0,0-1.142,3.2L11.117,7.467a4.249,4.249,0,0,0-1.252,2.955c-.019,1.276-.074,5.16-1.525,7.424a4.165,4.165,0,0,0,0,4.413c.15.251.33.534.53.848,4.542,7.146,3.979,10.38,3.979,19.266C11.085,44.9,1.856,59.079.01,82.238A2.856,2.856,0,0,0,4.161,85a3.972,3.972,0,0,1,2.292-.762c1.892,0,2.292,1.428,5.147,1.428,2.9,0,3.181-1.428,5.14-1.428,1.936,0,2.253,1.428,5.14,1.428s3.178-1.428,5.14-1.428a3.2,3.2,0,0,1,1.876.534,5.971,5.971,0,0,0,3.258.894c2.9,0,3.181-1.428,5.14-1.428a3.208,3.208,0,0,1,1.876.534,5.971,5.971,0,0,0,3.262.894c2.9,0,3.17-1.428,5.14-1.428a3.926,3.926,0,0,1,2.272.748A2.856,2.856,0,0,0,54,82.227a96.594,96.594,0,0,0-4.42-22.333c6.6-5.751,3.649-18.265,5.228-28.916.632-4.249,2.77-10.147,6.689-13.675l4.085,59.9a2.955,2.955,0,0,0,5.9,0L75.62,16.39a22.13,22.13,0,0,1,7.4,7.212,1.428,1.428,0,1,0,2.416-1.519,24.542,24.542,0,0,0-9.911-8.958ZM15.7,41.4V37.121H38.549V41.4Zm-.681,2.856h3.712a14.429,14.429,0,0,0-4.582,9.994,1.428,1.428,0,1,0,2.856,0,11.355,11.355,0,0,1,3.131-7.282c-.613,2.923-1.057,6.6-.2,9.16a1.429,1.429,0,0,0,2.713-.9c-.921-2.766.307-8.178,1.125-10.971H39.22c1.725,2.631,8.648,14.1,11.252,32.114a5.774,5.774,0,0,0-2.908-.7c-2.9,0-3.155,1.428-5.126,1.428a3.2,3.2,0,0,1-1.876-.534,5.977,5.977,0,0,0-3.264-.894c-2.9,0-3.182,1.428-5.14,1.428-1.983,0-2.207-1.428-5.14-1.428-2.9,0-3.181,1.428-5.14,1.428s-2.249-1.428-5.14-1.428S13.556,77.1,11.6,77.1c-1.983,0-2.207-1.428-5.14-1.428a5.808,5.808,0,0,0-2.913.7c2.634-18.03,9.732-29.5,11.478-32.11Zm20.393-41.4,2.7,1.74L36.039,10.08,32.527,8.044Zm-16.825.009,2.884,5.174L17.968,10.08l-2.1-5.47c3.726-2.4,2.443-1.563,2.72-1.748ZM11.279,21.576c-.45-.7-1.017-1.428-.528-2.184,1.272-1.983,1.917-4.9,1.976-8.923.009-.692.306-.871,1.542-2.109L15.3,11.092a2.856,2.856,0,0,0,2.666,1.843c.937,0,1.234-.27,3.355-1.506A7.192,7.192,0,0,0,27,13.589a7.19,7.19,0,0,0,5.678-2.16c1.776,1.034,2.343,1.506,3.355,1.506a2.855,2.855,0,0,0,2.671-1.843l1.035-2.733c1.008,1.008,1.532,1.349,1.543,2.11.128,8.976,3.014,8.549,1.937,10.326a26.216,26.216,0,0,0-4.609,13.471H15.633a25.1,25.1,0,0,0-4.355-12.69ZM47.569,81.382c-2.9,0-3.17,1.428-5.14,1.428a3.208,3.208,0,0,1-1.876-.534,5.971,5.971,0,0,0-3.26-.894c-2.9,0-3.171,1.428-5.14,1.428a3.2,3.2,0,0,1-1.875-.534,5.977,5.977,0,0,0-3.264-.894c-2.9,0-3.168,1.428-5.14,1.428s-2.207-1.428-5.14-1.428c-2.9,0-3.182,1.428-5.14,1.428-1.887,0-2.287-1.428-5.143-1.428a6.362,6.362,0,0,0-3.6,1.077c.076-.939.167-1.856.267-2.767,1.536-.464,1.812-1.165,3.337-1.165,1.94,0,2.249,1.428,5.14,1.428s3.181-1.428,5.14-1.428c1.982,0,2.207,1.428,5.14,1.428,2.9,0,3.182-1.428,5.14-1.428s2.249,1.428,5.14,1.428,3.18-1.428,5.14-1.428a3.2,3.2,0,0,1,1.876.534,5.972,5.972,0,0,0,3.264.894c2.89,0,3.2-1.428,5.126-1.428,1.541,0,1.725.684,3.328,1.166.1.907.19,1.823.266,2.76A6.335,6.335,0,0,0,47.569,81.382Zm24.7-69.409a13.447,13.447,0,0,0-7.534.143C66.339,7.483,70.573,7.35,72.272,11.973Zm.543,3.131c-.05,3.432-1.987,6.312-4.283,6.312-2.237,0-4.122-2.738-4.258-6.054a10.869,10.869,0,0,1,8.541-.258Zm-4.183,61.9c-.3,0,.09,4.266-3.893-54.167a5.735,5.735,0,0,0,7.587,0Z" transform="translate(0 0)"/>
    </g>
  </g>
</svg>
