<svg xmlns="http://www.w3.org/2000/svg" width="118.494" height="112.822" viewBox="0 0 118.494 112.822">
  <g id="Grupo_1054271" data-name="Grupo 1054271" transform="translate(-741 -1368)">
    <rect id="Rectángulo_338875" data-name="Rectángulo 338875" width="118.494" height="112.823" rx="10" transform="translate(741 1368)" fill="#9f0925"/>
    <g id="colgar-la-ropa" transform="translate(743.438 1367.602)">
      <g id="Grupo_1054281" data-name="Grupo 1054281" transform="translate(28.242 17.36)">
        <path id="Trazado_771507" data-name="Trazado 771507" d="M440,24h5.441a2.721,2.721,0,1,1,0,5.441H440Z" transform="translate(-380.146 -24)" fill="#f29a49"/>
        <path id="Trazado_771508" data-name="Trazado 771508" d="M90.721,456h2.721v2.721A2.721,2.721,0,1,1,90.721,456Z" transform="translate(-88 -382.543)" fill="#f29a49"/>
        <path id="Trazado_771509" data-name="Trazado 771509" d="M2.721,0A2.721,2.721,0,0,1,5.441,2.721V5.441H2.721A2.721,2.721,0,1,1,2.721,0Z" transform="translate(57.133 78.899) rotate(180)" fill="#f29a49"/>
      </g>
      <path id="Trazado_771510" data-name="Trazado 771510" d="M105.7,24h19.725a1.7,1.7,0,0,1,1.7,1.7V56.648H104V25.7A1.7,1.7,0,0,1,105.7,24Z" transform="translate(-73.037 -6.64)" fill="#79d8eb"/>
      <path id="Trazado_771511" data-name="Trazado 771511" d="M104,152h23.125v5.441H104Z" transform="translate(-73.037 -112.875)" fill="#fed672"/>
      <g id="Grupo_1054282" data-name="Grupo 1054282" transform="translate(59.53 28.243)">
        <path id="Trazado_771512" data-name="Trazado 771512" d="M298.592,90.386a3.391,3.391,0,0,0-.947-1.488,1.7,1.7,0,0,0-1.5-.9H280.5a1.7,1.7,0,0,0-1.5.9,3.391,3.391,0,0,0-.947,1.488L272,109.765h6.8v9.522h19.044v-9.522h6.8Z" transform="translate(-272 -88)" fill="#fed672"/>
        <path id="Trazado_771513" data-name="Trazado 771513" d="M343.019,93.047l-1.577.394-1.577-.394A5.1,5.1,0,0,1,336,88.1V88h10.883v.1a5.1,5.1,0,0,1-3.864,4.949Z" transform="translate(-325.117 -88)" fill="#f29a49"/>
      </g>
      <g id="Grupo_1054283" data-name="Grupo 1054283" transform="translate(59.53 77.214)">
        <path id="Trazado_771514" data-name="Trazado 771514" d="M272,385.522v-1.293a3.4,3.4,0,0,1,2.734-3.335l4.068-.814V376h6.8v9.522Z" transform="translate(-272 -376)" fill="#fa5d3f"/>
        <path id="Trazado_771515" data-name="Trazado 771515" d="M272,432h13.6v2.381a1.7,1.7,0,0,1-1.7,1.7H273.7a1.7,1.7,0,0,1-1.7-1.7Z" transform="translate(-272 -422.478)" fill="#fed672"/>
      </g>
      <g id="Grupo_1054284" data-name="Grupo 1054284" transform="translate(37.765 63.611)">
        <path id="Trazado_771516" data-name="Trazado 771516" d="M145.7,296h12.923a1.7,1.7,0,0,1,1.7,1.7v20.065H144V297.7A1.7,1.7,0,0,1,145.7,296Z" transform="translate(-144 -296)" fill="#f29a49"/>
        <path id="Trazado_771517" data-name="Trazado 771517" d="M144,392h16.324v5.441H144Z" transform="translate(-144 -375.676)" fill="#fed672"/>
      </g>
      <path id="Trazado_771518" data-name="Trazado 771518" d="M0,0H5.441a2.721,2.721,0,1,1,0,5.441H0Z" transform="translate(25.522 22.802) rotate(180)" fill="#f29a49"/>
      <path id="Trazado_771519" data-name="Trazado 771519" d="M28.761,216l-1.683,3.078L24,220.761l3.078,1.683,1.683,3.078,1.683-3.078,3.078-1.683-3.078-1.683Z" transform="translate(-6.64 -165.992)" fill="#fed672"/>
      <path id="Trazado_771520" data-name="Trazado 771520" d="M436.761,360l-1.683,3.078L432,364.761l3.078,1.683,1.683,3.078,1.683-3.078,3.078-1.683-3.078-1.683Z" transform="translate(-345.264 -285.506)" fill="#fed672"/>
      <g id="Grupo_1054285" data-name="Grupo 1054285" transform="translate(16 16)">
        <path id="Trazado_771521" data-name="Trazado 771521" d="M82.656,89.457V60.891h2.721a1.36,1.36,0,0,0,1.36-1.36V51.368h5.441a1.36,1.36,0,0,0,1.3-1.766L87.42,30.224a4.766,4.766,0,0,0-1.191-1.966,3.06,3.06,0,0,0-2.553-1.375H77.214V24.639l2.423-3.028a1.36,1.36,0,0,0,.116-.17h6.984V22.8a1.36,1.36,0,0,0,1.36,1.36h5.441a4.081,4.081,0,1,0,0-8.162H88.1a1.36,1.36,0,0,0-1.36,1.36v1.36H79.475a4.76,4.76,0,0,0-8.6,0H55.43A3.065,3.065,0,0,0,52.389,16H32.664a3.065,3.065,0,0,0-3.042,2.721H26.883V17.36A1.36,1.36,0,0,0,25.522,16H20.081a4.081,4.081,0,1,0,0,8.162h5.441a1.36,1.36,0,0,0,1.36-1.36v-1.36H29.6v2.721h2.721v-5.1a.34.34,0,0,1,.34-.34H52.389a.34.34,0,0,1,.34.34v18.7h-20.4V26.883H29.6V50.008a1.36,1.36,0,0,0,1.36,1.36h4.081v2.769a4.768,4.768,0,0,0-4.081,4.713V89.457a4.081,4.081,0,1,0,4.081,4.081v-1.36h43.53v1.36a4.081,4.081,0,1,0,4.081-4.081Zm6.8-70.737h4.081a1.36,1.36,0,1,1,0,2.721H89.457Zm-65.3,2.721H20.081a1.36,1.36,0,1,1,0-2.721h4.081ZM79.717,29.6A3.736,3.736,0,0,1,77.1,31.97l-1.247.312-1.247-.312A3.736,3.736,0,0,1,71.991,29.6ZM32.324,40.486h20.4v2.721h-20.4Zm0,5.441h20.4v2.721h-20.4Zm21.765,5.441a1.36,1.36,0,0,0,1.36-1.36V21.441H73.133v-.68a2.041,2.041,0,0,1,4.037-.422l-2.379,2.973a1.36,1.36,0,0,0-.3.85v2.721H68.032a3.06,3.06,0,0,0-2.553,1.375,4.767,4.767,0,0,0-1.191,1.966L58.232,49.6a1.36,1.36,0,0,0,1.3,1.766h5.441v2.721H37.765V51.368ZM35.725,56.81H64.972V59.53a1.36,1.36,0,0,0,1.36,1.36h4.081V58.17H67.692V50.208L71.716,36.8l-2.606-.782L65.32,48.648H61.38l5.5-17.613A2.032,2.032,0,0,1,68.832,29.6h.344a6.452,6.452,0,0,0,4.771,5.006L75.524,35a1.36,1.36,0,0,0,.66,0l1.577-.394A6.452,6.452,0,0,0,82.532,29.6h.344a2.032,2.032,0,0,1,1.948,1.432l5.5,17.613H86.388L82.6,36.014l-2.606.782,4.024,13.412V58.17H73.133v2.721h6.8v2.721h-25a3.06,3.06,0,0,0-2.544-1.36H39.466a3.06,3.06,0,0,0-2.544,1.36H33.684V58.85a2.043,2.043,0,0,1,2.04-2.04Zm3.4,24.486h13.6v2.721h-13.6ZM33.684,66.332H36.4V85.376a1.36,1.36,0,0,0,1.36,1.36H54.089a1.36,1.36,0,0,0,1.36-1.36V75.854H52.729v2.721h-13.6V65.312a.34.34,0,0,1,.34-.34H52.389a.34.34,0,0,1,.34.34v7.822h2.721v-6.8H79.935V89.457h-5.46a3.082,3.082,0,0,0,.019-.34V78.575h1.36V75.854H63.611v2.721h1.36V80.18L62,80.775a4.774,4.774,0,0,0-3.827,4.669v3.674a3.081,3.081,0,0,0,.019.34h-24.5ZM67.692,81.3V78.575h4.081v6.8H60.892a2.046,2.046,0,0,1,1.639-1.933l4.068-.814A1.36,1.36,0,0,0,67.692,81.3ZM32.324,93.538a1.36,1.36,0,1,1-1.36-1.36h1.36Zm28.907-4.081a.34.34,0,0,1-.34-.34V88.1H71.773v1.02a.34.34,0,0,1-.34.34ZM82.656,94.9a1.362,1.362,0,0,1-1.36-1.36v-1.36h1.36a1.36,1.36,0,1,1,0,2.721Z" transform="translate(-16 -16)"/>
        <path id="Trazado_771522" data-name="Trazado 771522" d="M376,232h4.081v2.721H376Z" transform="translate(-314.786 -195.271)"/>
        <path id="Trazado_771523" data-name="Trazado 771523" d="M168,320h2.721v8.162H168Z" transform="translate(-142.154 -268.308)"/>
        <path id="Trazado_771524" data-name="Trazado 771524" d="M28.242,214.121a1.36,1.36,0,0,0-.708-1.194l-2.728-1.492-1.492-2.728a1.36,1.36,0,0,0-2.387,0l-1.492,2.728-2.728,1.492a1.36,1.36,0,0,0,0,2.387l2.728,1.492,1.492,2.728a1.36,1.36,0,0,0,2.387,0l1.492-2.728,2.728-1.492a1.36,1.36,0,0,0,.708-1.194Zm-5.091.49a1.361,1.361,0,0,0-.541.541l-.49.9-.49-.9a1.361,1.361,0,0,0-.541-.541l-.9-.49.9-.49a1.361,1.361,0,0,0,.541-.541l.49-.9.49.9a1.361,1.361,0,0,0,.541.541l.9.49Z" transform="translate(-16 -175.352)"/>
        <path id="Trazado_771525" data-name="Trazado 771525" d="M435.535,356.928l-2.728-1.492-1.492-2.728a1.36,1.36,0,0,0-2.387,0l-1.492,2.728-2.728,1.492a1.36,1.36,0,0,0,0,2.387l2.728,1.492,1.492,2.728a1.36,1.36,0,0,0,2.387,0l1.492-2.728,2.728-1.492a1.36,1.36,0,0,0,0-2.387Zm-4.383,1.683a1.361,1.361,0,0,0-.541.541l-.49.9-.49-.9a1.361,1.361,0,0,0-.541-.541l-.9-.49.9-.49a1.361,1.361,0,0,0,.541-.541l.49-.9.49.9a1.361,1.361,0,0,0,.541.541l.9.49Z" transform="translate(-354.623 -294.866)"/>
      </g>
    </g>
  </g>
</svg>
