<svg xmlns="http://www.w3.org/2000/svg" width="118.494" height="112.823" viewBox="0 0 118.494 112.823">
  <g id="Grupo_1054244" data-name="Grupo 1054244" transform="translate(-7171 10324)">
    <path id="Trazado_771860" data-name="Trazado 771860" d="M10,0h98.494a10,10,0,0,1,10,10v92.823a10,10,0,0,1-10,10H10a10,10,0,0,1-10-10V10A10,10,0,0,1,10,0Z" transform="translate(7171 -10324)" fill="#9f0925"/>
    <g id="bosquejo" transform="translate(7169.303 -10307.068)">
      <g id="Grupo_1054261" data-name="Grupo 1054261" transform="translate(26.535 1.157)">
        <g id="Grupo_1054260" data-name="Grupo 1054260" transform="translate(0)">
          <g id="Grupo_1054256" data-name="Grupo 1054256" transform="translate(11.999 4.14)">
            <path id="Trazado_771420" data-name="Trazado 771420" d="M167.5,36.2a1.851,1.851,0,0,0-1.851-1.851H112.534a1.851,1.851,0,0,0-1.851,1.851v6.913H167.5Z" transform="translate(-110.683 -34.345)" fill="#ffe270"/>
            <path id="Trazado_771421" data-name="Trazado 771421" d="M110.683,91.172v61.891a1.851,1.851,0,0,0,1.851,1.851h53.118a1.851,1.851,0,0,0,1.851-1.851V91.172Z" transform="translate(-110.683 -82.408)" fill="#eaf6ff"/>
          </g>
          <g id="Grupo_1054257" data-name="Grupo 1054257" transform="translate(11.999 4.14)">
            <path id="Trazado_771422" data-name="Trazado 771422" d="M116.389,34.345h-3.855a1.851,1.851,0,0,0-1.851,1.851v6.913h3.855V36.2A1.851,1.851,0,0,1,116.389,34.345Z" transform="translate(-110.683 -34.345)" fill="#ffd15b"/>
            <path id="Trazado_771423" data-name="Trazado 771423" d="M114.538,153.063V91.172h-3.855v61.891a1.851,1.851,0,0,0,1.851,1.851h3.855A1.851,1.851,0,0,1,114.538,153.063Z" transform="translate(-110.683 -82.408)" fill="#d8ecfe"/>
          </g>
          <path id="Trazado_771424" data-name="Trazado 771424" d="M39.807,80.948v47.423a1.943,1.943,0,0,1-1.942,1.943H34.823a1.943,1.943,0,0,1-1.943-1.943V80.948a2.9,2.9,0,0,1,.015-.307,3.018,3.018,0,0,1,.147-.689l2.494-7.416a.853.853,0,0,1,1.616,0l2.494,7.416a3.018,3.018,0,0,1,.147.689A2.9,2.9,0,0,1,39.807,80.948Z" transform="translate(-32.88 -62.015)" fill="#8ac9fe"/>
          <path id="Trazado_771425" data-name="Trazado 771425" d="M36.733,128.367V80.943a3.126,3.126,0,0,1,.163-1l1.373-4.086-1.12-3.332a.852.852,0,0,0-1.615,0l-2.493,7.417a3.122,3.122,0,0,0-.163,1v47.424a1.943,1.943,0,0,0,1.943,1.943h3.043a1.949,1.949,0,0,0,.406-.043A1.943,1.943,0,0,1,36.733,128.367Z" transform="translate(-32.878 -62.011)" fill="#60b7ff"/>
          <path id="Trazado_771426" data-name="Trazado 771426" d="M39.877,80.641h-6.9a.119.119,0,0,1,0-.023c0-.046.009-.094.017-.14s.017-.106.028-.159c.006-.032.014-.065.022-.1s.02-.082.031-.122.029-.1.046-.15l2.494-7.416a.853.853,0,0,1,1.616,0l1.12,3.331,1.374,4.085A3.018,3.018,0,0,1,39.877,80.641Z" transform="translate(-32.964 -62.015)" fill="#eaf6ff"/>
          <path id="Trazado_771427" data-name="Trazado 771427" d="M39.807,411.38v4.071a1.944,1.944,0,0,1-1.536,1.9h0a1.941,1.941,0,0,1-.4.043H34.823a1.943,1.943,0,0,1-1.943-1.943V411.38Z" transform="translate(-32.88 -349.095)" fill="#ffe270"/>
          <path id="Trazado_771428" data-name="Trazado 771428" d="M212.313,190.047h-18.17a.653.653,0,0,1-.653-.653v-15a1.963,1.963,0,0,1,.561-1.373c1.209-1.236,2.064-2.2,3.3-3.451a.654.654,0,0,1,.9-.032l3.679,3.262a1.96,1.96,0,0,0,2.6,0l3.679-3.262a.654.654,0,0,1,.9.032c1.234,1.255,2.088,2.215,3.3,3.451a1.964,1.964,0,0,1,.561,1.373v15A.654.654,0,0,1,212.313,190.047Z" transform="translate(-168.721 -144.41)" fill="#f58a97"/>
          <path id="Trazado_771429" data-name="Trazado 771429" d="M190.968,305.427H171.014a.447.447,0,0,0-.442.383l-3.365,23.125a.808.808,0,0,0,.8.924h4.984a.808.808,0,0,0,.756-.524l1.633-4.352a.808.808,0,0,1,1.5-.04l1.941,4.432a.808.808,0,0,0,.74.484h14.419a.808.808,0,0,0,.8-.924l-3.365-23.126A.447.447,0,0,0,190.968,305.427Z" transform="translate(-146.484 -259.482)" fill="#f58a97"/>
          <path id="Trazado_771430" data-name="Trazado 771430" d="M197.345,174.391v15a.654.654,0,0,0,.654.654h-3.855a.654.654,0,0,1-.654-.654v-15a1.962,1.962,0,0,1,.561-1.373c1.209-1.237,2.063-2.2,3.3-3.451a.654.654,0,0,1,.9-.031l1.612,1.43c-.629.666-1.228,1.309-1.954,2.053a1.962,1.962,0,0,0-.561,1.373Z" transform="translate(-168.721 -144.408)" fill="#f07281"/>
          <g id="Grupo_1054258" data-name="Grupo 1054258" transform="translate(20.714 45.945)">
            <path id="Trazado_771431" data-name="Trazado 771431" d="M171.062,328.934l3.365-23.125a.447.447,0,0,1,.442-.383h-3.855a.447.447,0,0,0-.442.383l-3.365,23.125a.808.808,0,0,0,.8.924h3.855A.808.808,0,0,1,171.062,328.934Z" transform="translate(-167.198 -305.426)" fill="#f07281"/>
          </g>
          <path id="Trazado_771432" data-name="Trazado 771432" d="M38.27,417.351a1.941,1.941,0,0,1-.4.043H34.823a1.943,1.943,0,0,1-1.943-1.943V411.38h3.855v4.071A1.942,1.942,0,0,0,38.27,417.351Z" transform="translate(-32.88 -349.095)" fill="#ffd15b"/>
          <path id="Trazado_771433" data-name="Trazado 771433" d="M36.835,80.641H32.98a.119.119,0,0,1,0-.023c0-.046.009-.094.017-.14s.017-.106.028-.159c.006-.032.014-.065.022-.1s.02-.082.031-.122.029-.1.046-.15l2.494-7.416a.853.853,0,0,1,1.616,0l1.12,3.331-1.374,4.085a3.018,3.018,0,0,0-.147.689Z" transform="translate(-32.964 -62.015)" fill="#d8ecfe"/>
          <path id="Trazado_771434" data-name="Trazado 771434" d="M201.961,291.794h-20.62a1.234,1.234,0,0,1-1.234-1.234v-2.4a1.234,1.234,0,0,1,1.234-1.234h20.62a1.234,1.234,0,0,1,1.234,1.234v2.4A1.234,1.234,0,0,1,201.961,291.794Z" transform="translate(-157.402 -243.831)" fill="#b6c4cf"/>
          <path id="Trazado_771435" data-name="Trazado 771435" d="M183.961,290.561v-2.4a1.234,1.234,0,0,1,1.234-1.234H181.34a1.234,1.234,0,0,0-1.234,1.234v2.4a1.234,1.234,0,0,0,1.234,1.234H185.2A1.234,1.234,0,0,1,183.961,290.561Z" transform="translate(-157.401 -243.832)" fill="#9facba"/>
          <g id="Grupo_1054259" data-name="Grupo 1054259" transform="translate(19.094)">
            <path id="Trazado_771436" data-name="Trazado 771436" d="M158.849,15.894h-.228a1.928,1.928,0,0,1-1.928-1.928V9.428A1.928,1.928,0,0,1,158.622,7.5h.228a1.928,1.928,0,0,1,1.928,1.928v4.538A1.928,1.928,0,0,1,158.849,15.894Z" transform="translate(-156.694 -7.5)" fill="#c5d3dd"/>
            <path id="Trazado_771437" data-name="Trazado 771437" d="M221.335,15.894h-.228a1.928,1.928,0,0,1-1.928-1.928V9.428A1.928,1.928,0,0,1,221.107,7.5h.228a1.928,1.928,0,0,1,1.928,1.928v4.538A1.928,1.928,0,0,1,221.335,15.894Z" transform="translate(-209.543 -7.5)" fill="#c5d3dd"/>
            <path id="Trazado_771438" data-name="Trazado 771438" d="M283.819,15.894h-.228a1.928,1.928,0,0,1-1.928-1.928V9.428A1.928,1.928,0,0,1,283.592,7.5h.228a1.928,1.928,0,0,1,1.928,1.928v4.538A1.928,1.928,0,0,1,283.819,15.894Z" transform="translate(-262.392 -7.5)" fill="#c5d3dd"/>
            <path id="Trazado_771439" data-name="Trazado 771439" d="M346.3,15.894h-.228a1.928,1.928,0,0,1-1.928-1.928V9.428A1.928,1.928,0,0,1,346.076,7.5h.228a1.928,1.928,0,0,1,1.928,1.928v4.538A1.928,1.928,0,0,1,346.3,15.894Z" transform="translate(-315.24 -7.5)" fill="#c5d3dd"/>
            <path id="Trazado_771440" data-name="Trazado 771440" d="M408.789,15.894h-.228a1.928,1.928,0,0,1-1.928-1.928V9.428A1.928,1.928,0,0,1,408.561,7.5h.228a1.928,1.928,0,0,1,1.928,1.928v4.538A1.928,1.928,0,0,1,408.789,15.894Z" transform="translate(-368.088 -7.5)" fill="#c5d3dd"/>
          </g>
        </g>
      </g>
      <g id="Grupo_1054262" data-name="Grupo 1054262" transform="translate(25.379 0)">
        <path id="Trazado_771441" data-name="Trazado 771441" d="M31.9,65.819a2.009,2.009,0,0,0-3.808,0L25.6,73.236a4.269,4.269,0,0,0-.223,1.365v47.424a3.1,3.1,0,0,0,3.1,3.1h3.043a3.1,3.1,0,0,0,3.1-3.1V74.6a4.271,4.271,0,0,0-.223-1.364ZM27.692,75.45h4.615V116.8H27.692ZM30,67.415l1.924,5.723H28.076Zm1.521,55.4H28.478a.787.787,0,0,1-.786-.786v-2.916h4.615v2.916A.787.787,0,0,1,31.521,122.81Z" transform="translate(-25.379 -54.511)"/>
        <path id="Trazado_771442" data-name="Trazado 771442" d="M159.307,4.139h-4.088V3.2a3.2,3.2,0,1,0-6.4,0v.941h-3.24V3.2a3.2,3.2,0,0,0-6.4,0v.941h-3.24V3.2a3.2,3.2,0,0,0-6.4,0v.941h-3.24V3.2a3.2,3.2,0,0,0-6.4,0v.941h-3.24V3.2a3.2,3.2,0,0,0-6.4,0v.941h-4.089a3.011,3.011,0,0,0-3.007,3.007V75.952a3.011,3.011,0,0,0,3.007,3.007h53.118a3.011,3.011,0,0,0,3.007-3.007V41.743a1.157,1.157,0,0,0-2.313,0V75.952a.7.7,0,0,1-.694.694H106.188a.7.7,0,0,1-.694-.694V15.217H160V36.346a1.157,1.157,0,0,0,2.313,0V7.146a3.011,3.011,0,0,0-3.007-3.007ZM151.135,3.2a.885.885,0,1,1,1.77,0v4.31a.885.885,0,1,1-1.77,0Zm-9.636,0a.885.885,0,0,1,1.77,0v4.31a.885.885,0,0,1-1.77,0Zm-9.636,0a.885.885,0,1,1,1.77,0V5.293s0,0,0,0V7.508a.885.885,0,1,1-1.77,0Zm-9.636,0a.885.885,0,0,1,1.77,0v4.31a.885.885,0,0,1-1.77,0Zm-9.636,0a.885.885,0,0,1,1.77,0V5.293s0,0,0,0V7.508a.885.885,0,0,1-1.77,0Zm-7.1,9.706V7.146a.7.7,0,0,1,.694-.694h4.089V7.509a3.2,3.2,0,0,0,6.4,0V6.452h3.24V7.509a3.2,3.2,0,0,0,6.4,0V6.452h3.24V7.509a3.2,3.2,0,1,0,6.4,0V6.452h3.24V7.509a3.2,3.2,0,1,0,6.4,0V6.452h3.24V7.509a3.2,3.2,0,1,0,6.4,0V6.452h4.088a.7.7,0,0,1,.694.694V12.9Z" transform="translate(-91.183 0)"/>
        <path id="Trazado_771443" data-name="Trazado 771443" d="M160.173,176.55a1.964,1.964,0,0,0,1.487.68h4.984a1.975,1.975,0,0,0,1.839-1.273l1.331-3.548,1.6,3.644a1.963,1.963,0,0,0,1.8,1.176h14.418a1.964,1.964,0,0,0,1.945-2.247l-3.058-21.011a2.378,2.378,0,0,0,.571-1.547v-2.4a2.392,2.392,0,0,0-1.548-2.234V135.679a3.1,3.1,0,0,0-.891-2.181c-.575-.588-2.651-2.794-3.3-3.453-.034-.035-.07-.067-.106-.1v-5.189a1.157,1.157,0,1,0-2.313,0V129.9c-.025.02-.05.038-.074.059l-3.677,3.26a.809.809,0,0,1-1.068,0l-3.678-3.261c-.024-.021-.049-.04-.074-.059v-5.142a1.157,1.157,0,1,0-2.313,0v5.189c-.036.031-.072.063-.106.1-.648.66-2.725,2.866-3.3,3.453a3.1,3.1,0,0,0-.891,2.182v3.74a1.157,1.157,0,1,0,2.313,0v-3.74a.8.8,0,0,1,.232-.564c.59-.6,2.469-2.6,2.961-3.108l3.321,2.945a3.125,3.125,0,0,0,4.135,0l3.32-2.944c.493.508,2.372,2.5,2.962,3.108a.8.8,0,0,1,.231.563v11.952H166.063v-2.815a1.157,1.157,0,1,0-2.313,0v2.84a2.392,2.392,0,0,0-2.064,2.365v2.4a2.388,2.388,0,0,0,1.026,1.96l-3,20.6a1.963,1.963,0,0,0,.458,1.567Zm3.9-24.047a.077.077,0,0,1-.077-.077v-2.4a.077.077,0,0,1,.077-.077H184.7a.077.077,0,0,1,.077.077v2.4a.077.077,0,0,1-.077.077Zm.911,2.313H184.3l2.925,20.1H173.438l-1.849-4.22a1.964,1.964,0,0,0-3.639.1l-1.548,4.124h-4.34Z" transform="translate(-138.981 -104.54)"/>
        <path id="Trazado_771444" data-name="Trazado 771444" d="M386.617,174.916a1.157,1.157,0,0,0,0,2.313h3.646a2.084,2.084,0,0,0,2.082-2.082V125.682a2.084,2.084,0,0,0-2.082-2.082h-3.646a1.157,1.157,0,0,0,0,2.313h3.414v2.975h-3.415a1.157,1.157,0,1,0,0,2.313h3.415v3.021h-3.415a1.157,1.157,0,1,0,0,2.313h3.415v11.1h-3.415a1.157,1.157,0,1,0,0,2.313h3.415V152.5h-3.415a1.157,1.157,0,1,0,0,2.313h3.415v20.1Z" transform="translate(-329.93 -104.539)"/>
      </g>
    </g>
  </g>
</svg>
