<svg xmlns="http://www.w3.org/2000/svg" width="118.494" height="112.823" viewBox="0 0 118.494 112.823">
  <g id="Grupo_1054243" data-name="Grupo 1054243" transform="translate(-7171 10324)">
    <path id="Trazado_771859" data-name="Trazado 771859" d="M10,0h98.494a10,10,0,0,1,10,10v92.823a10,10,0,0,1-10,10H10a10,10,0,0,1-10-10V10A10,10,0,0,1,10,0Z" transform="translate(7171 -10324)" fill="#9f0925"/>
    <g id="sastre" transform="translate(7191 -10307)">
      <g id="Grupo_1054254" data-name="Grupo 1054254" transform="translate(1.153 1.153)">
        <path id="Trazado_771391" data-name="Trazado 771391" d="M19.838,454.275H10.575l-1.346-.662A1.23,1.23,0,0,1,8,452.382l-.5-7.232,5.792,1.658a14.875,14.875,0,0,1,6.807,7.154Z" transform="translate(-7.5 -377.863)" fill="#ffd2c0"/>
        <path id="Trazado_771392" data-name="Trazado 771392" d="M58.7,325.245v9.992l-11.992,2.128H19.838l-.038-.077a13.1,13.1,0,0,0-6.613-6.471L7.5,328.24l.767-2.843c0-5.682,3.421-10.517,8.947-11.848l.191-.048,6.883-1.989a3.076,3.076,0,0,0,2.354-2.99V307H39.556v1.522a3.076,3.076,0,0,0,2.354,2.99l7.369,1.776A12.3,12.3,0,0,1,58.7,325.245Z" transform="translate(-7.5 -260.953)" fill="#fcc4ae"/>
        <path id="Trazado_771393" data-name="Trazado 771393" d="M10.575,442.274v7.732H8.73a1.23,1.23,0,0,1-1.23-1.23v-7.895l1.343-.775Z" transform="translate(-7.5 -373.594)" fill="#fcc4ae"/>
        <path id="Trazado_771394" data-name="Trazado 771394" d="M25.007,335.632l-7.165,1.725-.2.051a9.2,9.2,0,0,0-7.065,8.968v4.388L7.5,349.371v-2.995a12.3,12.3,0,0,1,9.419-11.957l.191-.048,7.178-1.728a3.062,3.062,0,0,0,1.3-.673C25.865,333.91,25.845,335.429,25.007,335.632Z" transform="translate(-7.5 -282.084)" fill="#f2ad97"/>
        <path id="Trazado_771395" data-name="Trazado 771395" d="M102.37,56.631l.914-9.107a13.4,13.4,0,0,0-.813-6.114,14.19,14.19,0,0,0-13.258-9.134H84.163a12.6,12.6,0,0,0-5.173,1,14.122,14.122,0,0,0-7.256,8.131,12.747,12.747,0,0,0-.824,6.105l1.143,9.115Z" transform="translate(-61.089 -28.468)" fill="#99e6fc"/>
        <path id="Trazado_771396" data-name="Trazado 771396" d="M69.674,45.384a14.48,14.48,0,0,0-.735,6.527l1.144,9.741H67.162l-1.144-9.116a12.712,12.712,0,0,1,.735-6.105,14.189,14.189,0,0,1,8.253-8.221A15.027,15.027,0,0,0,69.674,45.384Z" transform="translate(-56.938 -33.488)" fill="#62dbfb"/>
        <path id="Trazado_771397" data-name="Trazado 771397" d="M128.926,7.5a7.6,7.6,0,0,0-3.967,1.117l-1.181.723a6.362,6.362,0,0,0-1.606,9.451l.75,1.01h11.933l.822-1.01a6.362,6.362,0,0,0-1.606-9.451l-1.181-.723A7.6,7.6,0,0,0,128.926,7.5Z" transform="translate(-103.327 -7.5)" fill="#62dbfb"/>
        <path id="Trazado_771398" data-name="Trazado 771398" d="M91.481,168.751H66.112a4.612,4.612,0,0,1-4.612-4.612,3.075,3.075,0,0,1,3.075-3.075H93.018a3.075,3.075,0,0,1,3.075,3.075A4.612,4.612,0,0,1,91.481,168.751Z" transform="translate(-53.198 -137.454)" fill="#d37562"/>
        <path id="Trazado_771399" data-name="Trazado 771399" d="M112.017,110.535l-3.573,1.876a4.612,4.612,0,0,1-4.288,0l-3.573-1.876A12.3,12.3,0,0,1,94,99.645V90.167a9.225,9.225,0,0,1,9.225-9.225h6.15a9.225,9.225,0,0,1,9.225,9.225v9.478A12.3,12.3,0,0,1,112.017,110.535Z" transform="translate(-80.701 -69.651)" fill="#e08369"/>
        <path id="Trazado_771400" data-name="Trazado 771400" d="M101.979,276.317l-5.839,2.211a28.637,28.637,0,0,1-20.257.01L70,276.317c2.83-1.138,3.394-5.66,2.437-8.649l-.864-1.531c-.438-1.369,2.214-2.258,2.214-2.258.738.22.94-.014,1.685.167a44.547,44.547,0,0,0,23.259-.6,1.788,1.788,0,0,1,2.214,2.258l-.616,1.924A9.273,9.273,0,0,0,101.979,276.317Z" transform="translate(-60.391 -224.029)" fill="#ffd2c0"/>
        <path id="Trazado_771401" data-name="Trazado 771401" d="M76.819,271.772a13.141,13.141,0,0,1-1.705,6.474L70,276.315a9.272,9.272,0,0,0,1.648-8.69l-.615-1.923a1.788,1.788,0,0,1,2.214-2.259q1.107.33,2.226.6l1.059,5A13.1,13.1,0,0,1,76.819,271.772Z" transform="translate(-60.391 -224.027)" fill="#fcc4ae"/>
        <g id="Grupo_1054253" data-name="Grupo 1054253" transform="translate(38.437 44.851)">
          <path id="Trazado_771402" data-name="Trazado 771402" d="M470.981,333.063,468.814,333l-1.942-3.538,1.942-3.83h2.309a1.535,1.535,0,0,1,1.535,1.535v3.05l-.142,1.314A1.535,1.535,0,0,1,470.981,333.063Z" transform="translate(-434.682 -321.569)" fill="#e6e7e8"/>
          <path id="Trazado_771403" data-name="Trazado 771403" d="M477.267,355.45v1.541a1.535,1.535,0,0,1-1.534,1.534h-2.309l-1.1-1.537,1.1-1.537Z" transform="translate(-439.291 -346.805)" fill="#d2d4d5"/>
          <path id="Trazado_771404" data-name="Trazado 771404" d="M297.556,332.793v13.668l-.842,3.075H284.544l-.957-3.075v-7.538a1.544,1.544,0,0,0-1.551-1.537h-7.174a1.55,1.55,0,0,0-1.441.967l-.929,2.3a.931.931,0,0,1-.864.581h-4.1l-1.658-.44a.927.927,0,0,1-.932-.922l-.443-7.075,15.91-1.453Z" transform="translate(-263.424 -326.402)" fill="#918f8e"/>
          <path id="Trazado_771405" data-name="Trazado 771405" d="M402.618,429.69v3.075l-6.207,1.981-7.761-1.981V429.69Z" transform="translate(-368.486 -409.631)" fill="#7f7f7f"/>
          <path id="Trazado_771406" data-name="Trazado 771406" d="M297.556,300.142v5.469H264.5l.384-5.017a.927.927,0,0,1,.932-.923l1.717-.452h29.09A.927.927,0,0,1,297.556,300.142Z" transform="translate(-263.424 -299.22)" fill="#f1f2f2"/>
          <path id="Trazado_771407" data-name="Trazado 771407" d="M267.533,335.17v8.438h-2.1a.927.927,0,0,1-.932-.922V335.17l1.517-1.021Z" transform="translate(-263.424 -328.779)" fill="#7f7f7f"/>
          <path id="Trazado_771408" data-name="Trazado 771408" d="M267.533,299.22v6.391H264.5v-5.469a.927.927,0,0,1,.932-.922Z" transform="translate(-263.424 -299.22)" fill="#e6e7e8"/>
          <ellipse id="Elipse_8057" data-name="Elipse 8057" cx="2.312" cy="2.291" rx="2.312" ry="2.291" transform="translate(24.837 13.927)" fill="#f1f2f2"/>
          <ellipse id="Elipse_8058" data-name="Elipse 8058" cx="2.312" cy="2.291" rx="2.312" ry="2.291" transform="translate(24.837 4.711)" fill="#e6e7e8"/>
          <path id="Trazado_771409" data-name="Trazado 771409" d="M299.234,449.693H278.1l-1.486.855-.82-.855H265.1l-1.484.471a.769.769,0,0,0-.769.769v5.774a.769.769,0,0,0,.769.769l35.336.218a.769.769,0,0,0,.769-.769l.28-1.879v-4.583a.769.769,0,0,0-.769-.769Z" transform="translate(-262.027 -426.558)" fill="#918f8e"/>
          <path id="Trazado_771410" data-name="Trazado 771410" d="M295.476,455.042v2.306a.769.769,0,0,1-.769.769H273.577l-1.153-1.3-1.153,1.3h-13a.769.769,0,0,1-.769-.769v-6.889a.769.769,0,0,1,.769-.769h2.306v4.737a.615.615,0,0,0,.615.615Z" transform="translate(-257.5 -426.556)" fill="#7f7f7f"/>
        </g>
      </g>
      <g id="Grupo_1054255" data-name="Grupo 1054255" transform="translate(0 0)">
        <path id="Trazado_771411" data-name="Trazado 771411" d="M191.5,144.724a3.444,3.444,0,0,1,2.652,0,1.153,1.153,0,0,0,.883-2.131,5.732,5.732,0,0,0-4.417,0,1.153,1.153,0,0,0,.883,2.131Z" transform="translate(-160.709 -120.295)"/>
        <path id="Trazado_771412" data-name="Trazado 771412" d="M202.557,167.46a1.153,1.153,0,0,0-1.153,1.153v1.537a1.153,1.153,0,0,0,2.306,0v-1.537A1.153,1.153,0,0,0,202.557,167.46Z" transform="translate(-170.439 -141.714)"/>
        <path id="Trazado_771413" data-name="Trazado 771413" d="M124.346,144.724a1.153,1.153,0,1,0,.883-2.131,5.732,5.732,0,0,0-4.417,0,1.153,1.153,0,0,0,.883,2.131A3.443,3.443,0,0,1,124.346,144.724Z" transform="translate(-101.634 -120.295)"/>
        <path id="Trazado_771414" data-name="Trazado 771414" d="M133.9,168.613a1.153,1.153,0,1,0-2.306,0v1.537a1.153,1.153,0,0,0,2.306,0Z" transform="translate(-111.363 -141.714)"/>
        <path id="Trazado_771415" data-name="Trazado 771415" d="M156.688,197.79a4.7,4.7,0,0,0,4.257,0,1.153,1.153,0,1,0-1.047-2.055,2.391,2.391,0,0,1-2.164,0,1.153,1.153,0,0,0-1.047,2.055Z" transform="translate(-132.064 -165.535)"/>
        <path id="Trazado_771416" data-name="Trazado 771416" d="M153.135,230.555a4.064,4.064,0,0,1-4.79,0,1.153,1.153,0,0,0-1.356,1.866,6.365,6.365,0,0,0,7.5,0,1.153,1.153,0,0,0-1.356-1.866Z" transform="translate(-123.988 -194.921)"/>
        <path id="Trazado_771417" data-name="Trazado 771417" d="M63.476,471.066a1.153,1.153,0,1,0-1.591,1.669,11.9,11.9,0,0,1,2.59,3.611,1.153,1.153,0,0,0,2.091-.972A14.19,14.19,0,0,0,63.476,471.066Z" transform="translate(-52.067 -398.371)"/>
        <path id="Trazado_771418" data-name="Trazado 771418" d="M415.007,382.305a3.444,3.444,0,1,0,3.465,3.444A3.458,3.458,0,0,0,415.007,382.305Zm0,4.582a1.138,1.138,0,1,1,1.159-1.138A1.15,1.15,0,0,1,415.007,386.887Z" transform="translate(-348.269 -323.527)"/>
        <path id="Trazado_771419" data-name="Trazado 771419" d="M76.031,58.878a2.691,2.691,0,0,0,2.688-2.688V51.6a2.691,2.691,0,0,0-2.688-2.688H74.875V46.928a2.083,2.083,0,0,0-2.084-2.076h-4.9V42.61a1.153,1.153,0,1,0-2.306,0v2.242H58.666v-.707a1.153,1.153,0,0,0-2.306,0v.707H54.054V42.61a1.153,1.153,0,1,0-2.306,0v2.242H42.272l.535-1.673a2.941,2.941,0,0,0-3.643-3.715q-1.177.351-2.366.634a13.4,13.4,0,0,0,3.185-6.521A5.773,5.773,0,0,0,45.2,27.838a4.212,4.212,0,0,0-1.168-2.913l.461-4.6a14.461,14.461,0,0,0-.691-6.107,1.153,1.153,0,1,0-2.185.738,12.166,12.166,0,0,1,.582,5.139l-.362,3.6a4.234,4.234,0,0,0-.865-.089H40.2V21.669a10.385,10.385,0,0,0-5.372-9.087,7.51,7.51,0,0,0,1.249-4.547,13.078,13.078,0,0,1,3.145,2.692,1.153,1.153,0,0,0,1.76-1.49,15.408,15.408,0,0,0-5.7-4.2A7.512,7.512,0,0,0,32.5,2.009L31.32,1.287a8.752,8.752,0,0,0-9.137,0L21,2.01a7.51,7.51,0,0,0-2.784,3.025,15.38,15.38,0,0,0-8.327,8.65,13.9,13.9,0,0,0-.8,6.66l.553,4.409A4.217,4.217,0,0,0,8.3,27.838a5.773,5.773,0,0,0,5.217,5.739A13.4,13.4,0,0,0,16.705,40.1q-1.188-.283-2.366-.634A2.941,2.941,0,0,0,10.7,43.179l.616,1.924a8.088,8.088,0,0,1-1.221,7.32A13.41,13.41,0,0,0,0,65.446v12.12a1.153,1.153,0,0,0,2.306,0V70.286L5.62,71.741a1.153,1.153,0,1,0,.927-2.112L2.306,67.767V65.446a11.112,11.112,0,0,1,8.387-10.8l5.1,1.926a1.153,1.153,0,0,0,.815-2.158l-4.054-1.531a10.385,10.385,0,0,0,.955-8.486l-.616-1.924a.635.635,0,0,1,.786-.8,45.578,45.578,0,0,0,26.145,0,.635.635,0,0,1,.786.8L40,44.4a10.444,10.444,0,0,0-.442,2.128,2.062,2.062,0,0,0-.04.4v6.5l-3.019,1.143A27.472,27.472,0,0,1,21.563,55.86a1.153,1.153,0,0,0-.436,2.264,29.772,29.772,0,0,0,16.184-1.393l2.2-.834V59.91A2.083,2.083,0,0,0,41.6,61.986h2.1v2.4a1.153,1.153,0,1,0,2.306,0v-2.4H47.8a2.075,2.075,0,0,0,1.934-1.3l.177-.438a11.19,11.19,0,0,1,1.292,5.2v2.54H39.59a1.153,1.153,0,0,0-1.153,1.153v8.427a1.153,1.153,0,0,0,1.153,1.153H77.565a1.153,1.153,0,0,0,1.153-1.153V69.139a1.153,1.153,0,0,0-1.153-1.153H74.875V58.878ZM40.974,25.916A1.924,1.924,0,0,1,42.9,27.838,3.465,3.465,0,0,1,40.2,31.21c0-.021,0-.042,0-.063V25.916h.769ZM22.207,3.977l1.181-.723a6.445,6.445,0,0,1,6.729,0l1.181.723a5.208,5.208,0,0,1,1.341,7.7,10.346,10.346,0,0,0-2.812-.39h-6.15a10.342,10.342,0,0,0-2.811.39,5.208,5.208,0,0,1,1.341-7.7ZM11.378,20.058a11.591,11.591,0,0,1,.668-5.551,13.066,13.066,0,0,1,5.375-6.468,7.511,7.511,0,0,0,1.249,4.544A10.385,10.385,0,0,0,13.3,21.669V23.61H12.53a4.23,4.23,0,0,0-.7.059Zm-.77,7.78a1.924,1.924,0,0,1,1.922-1.922H13.3v5.231c0,.021,0,.042,0,.063a3.464,3.464,0,0,1-2.692-3.372ZM21.459,40.955a11.115,11.115,0,0,1-5.854-9.808V21.669A8.081,8.081,0,0,1,23.677,13.6h6.15A8.081,8.081,0,0,1,37.9,21.669v9.478a11.115,11.115,0,0,1-5.854,9.808A43.193,43.193,0,0,1,21.459,40.955ZM76.031,51.218a.382.382,0,0,1,.382.382V56.19a.382.382,0,0,1-.382.382H74.875V51.217h1.156ZM51.344,58.14H58.2a.393.393,0,0,1,.4.385v9.46H53.5v-2.54a13.512,13.512,0,0,0-2.16-7.305Zm-10.6,12.152H53.361v6.12H40.743Zm35.669,6.12H55.668v-6.12H76.412Zm-15.5-8.427v-9.46A2.7,2.7,0,0,0,58.2,55.834H51.028a2.693,2.693,0,0,0-2.51,1.688l-.871,2.157H41.819V53.549H51.878a1.153,1.153,0,1,0,0-2.306H41.819V47.158H72.569v4.085H69.712a3.473,3.473,0,0,0-5.949,0h-6.5a1.153,1.153,0,1,0,0,2.306h6.057a3.468,3.468,0,0,0,6.843,0h2.409V67.986H60.908Zm5.83-16.117a1.138,1.138,0,1,1-1.158,1.138A1.15,1.15,0,0,1,66.738,51.868Z" transform="translate(0 0)"/>
      </g>
    </g>
  </g>
</svg>
