<svg xmlns="http://www.w3.org/2000/svg" width="118.494" height="112.823" viewBox="0 0 118.494 112.823">
  <g id="Grupo_1054242" data-name="Grupo 1054242" transform="translate(-6848 10324)">
    <path id="Trazado_771858" data-name="Trazado 771858" d="M10,0h98.494a10,10,0,0,1,10,10v92.823a10,10,0,0,1-10,10H10a10,10,0,0,1-10-10V10A10,10,0,0,1,10,0Z" transform="translate(6848 -10324)" fill="#9f0925"/>
    <g id="XMLID_1262_" transform="translate(6836.431 -10311.32)">
      <g id="XMLID_1263_" transform="translate(35.358 1.24)">
        <g id="XMLID_1264_" transform="translate(12.262 51.872)">
          <path id="XMLID_1265_" d="M121.521,321.125v5.053a1.729,1.729,0,0,1-1.729,1.729h-2.306a1.729,1.729,0,0,1-1.729-1.729v-5.053Z" transform="translate(-115.757 -321.125)" fill="#82807f"/>
          <rect id="XMLID_1266_" width="5.764" height="3.938" transform="translate(0)" fill="#6d6d6d"/>
        </g>
        <path id="XMLID_1267_" d="M310.977,9.587V35.85H306.8V9.587a2.087,2.087,0,1,1,4.174,0Z" transform="translate(-262.942 -7.5)" fill="#6d6d6d"/>
        <rect id="XMLID_1268_" width="4.175" height="4.681" transform="translate(43.86 23.67)" fill="#565656"/>
        <path id="XMLID_1269_" d="M306.8,9.587v3.247h4.174V9.587A2.087,2.087,0,0,0,308.892,7.5h0A2.087,2.087,0,0,0,306.8,9.587Z" transform="translate(-262.945 -7.5)" fill="#f1eded"/>
        <g id="XMLID_1270_" transform="translate(20.98 13.898)">
          <g id="XMLID_1271_">
            <path id="XMLID_1272_" d="M194.856,120.791h-11.9a.571.571,0,0,1-.569-.62l2.372-28.119a.572.572,0,0,1,.569-.523h7.157a.572.572,0,0,1,.569.523l2.372,28.119A.572.572,0,0,1,194.856,120.791Z" transform="translate(-180.082 -91.529)" fill="#cf8671"/>
            <path id="XMLID_1273_" d="M186.1,133.782,183.641,116a1.739,1.739,0,0,0-1.723-1.5h-9.254a1.739,1.739,0,0,0-1.723,1.5l-2.457,17.785a1.739,1.739,0,0,0,1.723,1.977h14.169A1.739,1.739,0,0,0,186.1,133.782Z" transform="translate(-168.467 -110.697)" fill="#4fb4ff"/>
            <path id="XMLID_1274_" d="M234.464,135.761h-3.524a1.74,1.74,0,0,0,1.724-1.978L230.207,116a1.739,1.739,0,0,0-1.724-1.5h3.526a1.738,1.738,0,0,1,1.722,1.5l2.458,17.784A1.74,1.74,0,0,1,234.464,135.761Z" transform="translate(-218.557 -110.699)" fill="#368df6"/>
          </g>
          <g id="XMLID_1275_" transform="translate(32.287 0)">
            <path id="XMLID_1276_" d="M390.068,120.791h-11.9a.571.571,0,0,1-.569-.62l2.372-28.119a.572.572,0,0,1,.569-.523H387.7a.571.571,0,0,1,.569.523l2.372,28.119A.571.571,0,0,1,390.068,120.791Z" transform="translate(-375.293 -91.529)" fill="#cf8671"/>
            <path id="XMLID_1277_" d="M381.31,133.782,378.852,116a1.739,1.739,0,0,0-1.723-1.5h-9.254a1.739,1.739,0,0,0-1.723,1.5l-2.458,17.784a1.739,1.739,0,0,0,1.723,1.977h14.169A1.739,1.739,0,0,0,381.31,133.782Z" transform="translate(-363.678 -110.698)" fill="#fc4830"/>
            <path id="XMLID_1278_" d="M430.014,135.761h-3.458a1.74,1.74,0,0,0,1.724-1.978L425.823,116a1.738,1.738,0,0,0-1.724-1.5h3.458a1.741,1.741,0,0,1,1.724,1.5l2.458,17.784A1.74,1.74,0,0,1,430.014,135.761Z" transform="translate(-414.106 -110.7)" fill="#e81610"/>
          </g>
        </g>
        <path id="XMLID_1279_" d="M422.85,269.234a2.475,2.475,0,0,1-2.476,2.476h-6.943v-4.95h6.943a2.473,2.473,0,0,1,2.476,2.474Z" transform="translate(-351.935 -223.88)" fill="#c1bab8"/>
        <rect id="XMLID_1280_" width="3.655" height="4.95" transform="translate(61.496 42.88)" fill="#a89f9d"/>
        <path id="XMLID_1281_" d="M122.6,164.348v53.068a1.74,1.74,0,0,1-1.739,1.739H64.7a1.739,1.739,0,0,1-1.739-1.739v-6.964H87.711v-19.9H64.7a1.739,1.739,0,0,1-1.739-1.739V164.348a1.739,1.739,0,0,1,1.739-1.739H120.86A1.74,1.74,0,0,1,122.6,164.348Z" transform="translate(-59.433 -136.955)" fill="#f1eded"/>
        <path id="XMLID_1282_" d="M395.384,164.348v53.068a1.74,1.74,0,0,1-1.739,1.739h-3.839a1.74,1.74,0,0,0,1.739-1.739V164.348a1.74,1.74,0,0,0-1.739-1.739h3.839A1.74,1.74,0,0,1,395.384,164.348Z" transform="translate(-332.218 -136.955)" fill="#dad0cd"/>
        <path id="XMLID_1283_" d="M82.952,176.686v1.958a3.123,3.123,0,0,1-1.425,2.618v.783a3.823,3.823,0,0,1-3.089,3.746v4.757H64.7a1.739,1.739,0,0,1-1.739-1.739V164.348a1.739,1.739,0,0,1,1.739-1.739H78.439v6.844a3.82,3.82,0,0,1,3.089,3.745v.871A3.123,3.123,0,0,1,82.952,176.686Z" transform="translate(-59.433 -136.955)" fill="#dad0cd"/>
        <path id="XMLID_1284_" d="M84.13,451.879v.687a3.831,3.831,0,0,1-3.826,3.826H62.963v-4.513Z" transform="translate(-59.433 -378.381)" fill="#dad0cd"/>
        <path id="XMLID_2276_" d="M357.923,428.1h-2.4v-7.42h2.4a1.312,1.312,0,0,1,1.312,1.312v4.8A1.311,1.311,0,0,1,357.923,428.1Z" transform="translate(-303.607 -352.34)" fill="#dad0cd"/>
        <path id="XMLID_2275_" d="M76.349,190.547H64.7a1.739,1.739,0,0,1-1.739-1.739V164.346a1.739,1.739,0,0,1,1.739-1.739h11.65Z" transform="translate(-59.43 -136.953)" fill="#a89f9d"/>
        <path id="XMLID_1285_" d="M62.488,417.94H43.357a1.739,1.739,0,0,1-1.739-1.739v-6.154a1.739,1.739,0,0,1,1.739-1.739H62.488a1.739,1.739,0,0,1,1.739,1.739V416.2A1.739,1.739,0,0,1,62.488,417.94Z" transform="translate(-41.618 -342.016)" fill="#f1eded"/>
        <g id="XMLID_1286_" transform="translate(28.279 36.351)">
          <path id="XMLID_2273_" d="M216.449,236.151H212.6v-8.87h3.851a1.739,1.739,0,0,1,1.739,1.739v5.392A1.739,1.739,0,0,1,216.449,236.151Z" transform="translate(-212.598 -227.281)" fill="#4fb4ff"/>
        </g>
        <g id="XMLID_1287_" transform="translate(38.819 36.351)">
          <path id="XMLID_2271_" d="M280.173,236.151h-3.851v-8.87h3.851a1.739,1.739,0,0,1,1.739,1.739v5.392A1.739,1.739,0,0,1,280.173,236.151Z" transform="translate(-276.322 -227.281)" fill="#fc4830"/>
        </g>
        <g id="XMLID_1288_" transform="translate(12.406 34.514)">
          <path id="XMLID_2269_" d="M129.68,228.485h-2.722a1.729,1.729,0,0,1-1.729-1.729v-8.848a1.729,1.729,0,0,1,1.729-1.729h2.722a1.729,1.729,0,0,1,1.729,1.729v8.848A1.729,1.729,0,0,1,129.68,228.485Z" transform="translate(-123.806 -216.179)" fill="#82807f"/>
          <path id="XMLID_2268_" d="M124.613,245.483h-6.952a1.037,1.037,0,0,1-1.037-1.037v-1.959a1.037,1.037,0,0,1,1.037-1.037h6.952a1.037,1.037,0,0,1,1.037,1.037v1.959A1.037,1.037,0,0,1,124.613,245.483Z" transform="translate(-116.624 -237.269)" fill="#fc4830"/>
        </g>
      </g>
      <g id="XMLID_1289_" transform="translate(34.118)">
        <path id="XMLID_1290_" d="M105.16,43.139l-.147-1.742a2.972,2.972,0,0,0,2.472-3.344l-2.457-17.785a2.992,2.992,0,0,0-2-2.411l-.194-2.3a1.8,1.8,0,0,0-1.806-1.659H98.617V5.37h5.822a1.24,1.24,0,0,0,0-2.481H84.6a3.324,3.324,0,0,0-6.59,0H59.576a1.24,1.24,0,0,0,0,2.481h4.345V13.9H61.584a1.823,1.823,0,0,0-1.806,1.66l-.194,2.3a2.992,2.992,0,0,0-2,2.411l-.744,5.386H40.628a2.983,2.983,0,0,0-2.98,2.98v5.229a1.24,1.24,0,0,0,2.481,0V28.634a.5.5,0,0,1,.5-.5H51.037v6.379h-.12a2.973,2.973,0,0,0-2.969,2.969v1.378a2.28,2.28,0,0,0-1.423,2.11v1.96a2.28,2.28,0,0,0,1.423,2.11v1.29A2.973,2.973,0,0,0,50.916,49.3h.12v4.292H40.628a.5.5,0,0,1-.5-.5V39.572a1.24,1.24,0,0,0-2.481,0V53.094a2.983,2.983,0,0,0,2.98,2.98h1.95v2.559a1.24,1.24,0,0,0,2.481,0V56.074H46.38v2.091a2.971,2.971,0,0,0,2.882,2.965v2.028a1.24,1.24,0,1,0,2.481,0V61.13a2.971,2.971,0,0,0,2.882-2.965V56.074H62.4V73.5H59.209V69.271a2.983,2.983,0,0,0-2.98-2.98H37.1a2.983,2.983,0,0,0-2.98,2.98v6.154A2.983,2.983,0,0,0,37.1,78.4h.55v3.3a2.983,2.983,0,0,0,2.98,2.98H69.119a1.24,1.24,0,1,0,0-2.481H40.628a.5.5,0,0,1-.5-.5V78.4h16.1a2.983,2.983,0,0,0,2.926-2.426h4.483a1.24,1.24,0,0,0,1.24-1.24V56.074H97.284V63.8a1.24,1.24,0,1,0,2.481,0V50.311H103.8a3.715,3.715,0,0,0,1.362-7.171ZM56.728,75.425a.5.5,0,0,1-.5.5H37.1a.5.5,0,0,1-.5-.5V69.271a.5.5,0,0,1,.5-.5H56.229a.5.5,0,0,1,.5.5v6.154ZM99.765,41.44h2.762l.121,1.439H99.765V41.44Zm5.262-3.048a.5.5,0,0,1-.494.567H99.765V28.634a2.983,2.983,0,0,0-2.98-2.98H91.631l.7-5.046a.5.5,0,0,1,.494-.431h9.254a.5.5,0,0,1,.494.431Zm-4.5-20.7h-6.15l.111-1.318h5.927Zm-4.389-3.8H93.871a1.823,1.823,0,0,0-1.806,1.66l-.194,2.3a2.992,2.992,0,0,0-2,2.411l-.744,5.386H84.633V23.678L93.861,5.37h2.275ZM77.978,18.136,71.544,5.37h6.434ZM80.459,7.815h1.693V25.654H80.459ZM84.633,5.37h6.449l-6.449,12.8ZM81.306,2.481a.848.848,0,0,1,.847.847V5.334H80.459V3.328A.848.848,0,0,1,81.306,2.481ZM66.4,5.37h2.363l9.212,18.278v2.005H73.485l-.744-5.386a2.992,2.992,0,0,0-2-2.411l-.194-2.3a1.823,1.823,0,0,0-1.806-1.66H66.4V5.37Zm9.015,37.212h.511a1.24,1.24,0,1,0,0-2.481h-.511v-1.27h2.611a.5.5,0,0,1,.5.5v5.392a.5.5,0,0,1-.5.5H75.418ZM72.937,53.593H64.878V47.7h2.611a2.983,2.983,0,0,0,2.98-2.98V39.33a2.983,2.983,0,0,0-2.98-2.98H64.878V28.135h8.059ZM64.878,42.582h.511a1.24,1.24,0,0,0,0-2.481h-.511v-1.27h2.611a.5.5,0,0,1,.5.5v5.392a.5.5,0,0,1-.5.5H64.878Zm3.248-26.2.111,1.318h-6.15l.111-1.318Zm-8.085,4.229a.5.5,0,0,1,.494-.431h9.254a.5.5,0,0,1,.494.431l.7,5.046H59.344ZM50.916,37h2.722a.489.489,0,0,1,.489.489v1.21h-3.7v-1.21A.489.489,0,0,1,50.916,37ZM49,42.728V41.175H55.55v1.553Zm1.423,3.6V45.209h3.7v1.123a.489.489,0,0,1-.489.489H50.916A.489.489,0,0,1,50.428,46.331Zm1.716,11.834a.489.489,0,0,1-.489.489H49.35a.489.489,0,0,1-.489-.489V56.074h3.282Zm1.374-4.572V49.3h.12a2.973,2.973,0,0,0,2.969-2.969v-1.29a2.28,2.28,0,0,0,1.423-2.11v-1.96a2.28,2.28,0,0,0-1.423-2.11V37.484a2.973,2.973,0,0,0-2.969-2.969h-.12V28.135H62.4V53.593Zm21.9,0V47.7h2.611a2.983,2.983,0,0,0,2.98-2.98V39.33a2.983,2.983,0,0,0-2.98-2.98H75.418V28.135H96.785a.5.5,0,0,1,.5.5v24.96H75.418ZM103.8,47.83H99.765V45.36H103.8a1.235,1.235,0,1,1,0,2.469Z" transform="translate(-34.118)"/>
        <path id="XMLID_1314_" d="M297.7,412.761a1.24,1.24,0,0,0-1.24,1.24v12.193a.5.5,0,0,1-.5.5H274a1.241,1.241,0,0,0,0,2.481H295.96a2.983,2.983,0,0,0,2.98-2.98V414A1.241,1.241,0,0,0,297.7,412.761Z" transform="translate(-233.292 -344.493)"/>
        <path id="XMLID_1315_" d="M338.209,420.6h-5.065a1.24,1.24,0,1,0,0,2.481h5.065a2.555,2.555,0,0,0,2.552-2.552v-4.8a2.555,2.555,0,0,0-2.552-2.552h-5.065a1.24,1.24,0,1,0,0,2.481h5.065a.071.071,0,0,1,.071.071v4.8A.071.071,0,0,1,338.209,420.6Z" transform="translate(-282.652 -344.84)"/>
        <path id="XMLID_1316_" d="M361.228,355.795a1.24,1.24,0,1,0,0-2.481h-3.808a1.24,1.24,0,1,0,0,2.481Z" transform="translate(-302.912 -294.878)"/>
        <path id="XMLID_1317_" d="M232,422.214h-.018a1.24,1.24,0,1,0,0,2.481H232a1.24,1.24,0,1,0,0-2.481Z" transform="translate(-198.219 -352.382)"/>
        <path id="XMLID_1318_" d="M231.984,443.948h-.006a1.24,1.24,0,0,0-.006,2.481H232a1.24,1.24,0,0,0,.006-2.481Z" transform="translate(-198.218 -370.522)"/>
      </g>
    </g>
  </g>
</svg>
