<svg xmlns="http://www.w3.org/2000/svg" width="118.494" height="112.823" viewBox="0 0 118.494 112.823">
  <g id="Grupo_1054269" data-name="Grupo 1054269" transform="translate(-6848 10324)">
    <rect id="Rectángulo_338875" data-name="Rectángulo 338875" width="118.494" height="112.823" rx="10" transform="translate(6848 -10324)" fill="#9f0925"/>
    <g id="patron" transform="translate(6869.375 -10305.46)">
      <g id="Grupo_1054306" data-name="Grupo 1054306" transform="translate(1.11 1.11)">
        <g id="Grupo_1054286" data-name="Grupo 1054286" transform="translate(36.762)">
          <path id="Trazado_771589" data-name="Trazado 771589" d="M292.762,44.262V11.938A4.438,4.438,0,0,0,288.324,7.5H256V44.262Z" transform="translate(-256 -7.5)" fill="#01d0fb"/>
        </g>
        <g id="Grupo_1054287" data-name="Grupo 1054287" transform="translate(0 36.762)">
          <path id="Trazado_771590" data-name="Trazado 771590" d="M7.5,256v32.324a4.438,4.438,0,0,0,4.438,4.438H44.262V256Z" transform="translate(-7.5 -256)" fill="#01d0fb"/>
        </g>
        <g id="Grupo_1054288" data-name="Grupo 1054288">
          <path id="Trazado_771591" data-name="Trazado 771591" d="M76.586,7.5V72.148a4.438,4.438,0,0,1-4.438,4.438H7.5a4.438,4.438,0,0,0,4.438,4.438H76.586a4.438,4.438,0,0,0,4.438-4.438V11.938A4.438,4.438,0,0,0,76.586,7.5Z" transform="translate(-7.5 -7.5)" fill="#01c0fa"/>
        </g>
        <g id="Grupo_1054289" data-name="Grupo 1054289" transform="translate(36.762 36.762)">
          <path id="Trazado_771592" data-name="Trazado 771592" d="M256,256v36.762h32.324a4.438,4.438,0,0,0,4.438-4.438V256Z" transform="translate(-256 -256)" fill="#0182fc"/>
        </g>
        <g id="Grupo_1054290" data-name="Grupo 1054290" transform="translate(36.762 36.762)">
          <path id="Trazado_771593" data-name="Trazado 771593" d="M292.762,256h-4.438v27.886a4.438,4.438,0,0,1-4.438,4.438H256v4.438h32.324a4.419,4.419,0,0,0,2.655-.882q.085-.064.168-.132a4.429,4.429,0,0,0,1.615-3.425Z" transform="translate(-256 -256)" fill="#0170f7"/>
        </g>
        <g id="Grupo_1054291" data-name="Grupo 1054291">
          <path id="Trazado_771594" data-name="Trazado 771594" d="M44.262,7.5H11.938A4.438,4.438,0,0,0,7.5,11.938V44.262H44.262Z" transform="translate(-7.5 -7.5)" fill="#0182fc"/>
        </g>
        <g id="Grupo_1054292" data-name="Grupo 1054292" transform="translate(23.16 23.16)">
          <path id="Trazado_771595" data-name="Trazado 771595" d="M177.655,191.259a13.6,13.6,0,1,1,13.6-13.6A13.6,13.6,0,0,1,177.655,191.259Z" transform="translate(-164.053 -164.055)" fill="#fbf9f9"/>
        </g>
        <g id="Grupo_1054293" data-name="Grupo 1054293" transform="translate(30.717 30.717)">
          <path id="Trazado_771596" data-name="Trazado 771596" d="M226.9,221.977l-4.921,4.921a1.124,1.124,0,0,1-1.59,0l-4.921-4.921a1.124,1.124,0,0,1,0-1.59l4.921-4.921a1.124,1.124,0,0,1,1.59,0l4.921,4.921A1.124,1.124,0,0,1,226.9,221.977Z" transform="translate(-215.136 -215.137)" fill="#0182fc"/>
        </g>
        <g id="Grupo_1054294" data-name="Grupo 1054294" transform="translate(4.894 20.736)">
          <path id="Trazado_771597" data-name="Trazado 771597" d="M53.695,148.011v4.308a.341.341,0,0,1-.236.325L41.03,156.688a.341.341,0,0,1-.447-.325v-4.308a.341.341,0,0,1,.236-.325l12.429-4.045A.342.342,0,0,1,53.695,148.011Z" transform="translate(-40.583 -147.669)" fill="#fe7701"/>
        </g>
        <g id="Grupo_1054295" data-name="Grupo 1054295" transform="translate(20.736 4.894)">
          <path id="Trazado_771598" data-name="Trazado 771598" d="M148.011,53.695h4.308a.341.341,0,0,0,.325-.236l4.045-12.429a.341.341,0,0,0-.325-.447h-4.308a.341.341,0,0,0-.325.236l-4.045,12.429A.341.341,0,0,0,148.011,53.695Z" transform="translate(-147.669 -40.583)" fill="#fe7701"/>
        </g>
        <g id="Grupo_1054296" data-name="Grupo 1054296" transform="translate(4.937 6.121)">
          <path id="Trazado_771599" data-name="Trazado 771599" d="M49.779,59.509l-6.5-1.182a1.487,1.487,0,0,1-1.2-1.2l-1.182-6.5A1.486,1.486,0,0,1,42.626,48.9l6.5,1.182a1.487,1.487,0,0,1,1.2,1.2l1.182,6.5A1.486,1.486,0,0,1,49.779,59.509Z" transform="translate(-40.873 -48.874)" fill="#01d0fb"/>
        </g>
        <g id="Grupo_1054297" data-name="Grupo 1054297" transform="translate(42.756 4.894)">
          <path id="Trazado_771600" data-name="Trazado 771600" d="M305.559,54.22h-4.48a.355.355,0,0,1-.338-.245l-4.207-12.926a.355.355,0,0,1,.338-.465h4.48a.355.355,0,0,1,.338.245L305.9,53.755a.355.355,0,0,1-.338.465Z" transform="translate(-296.516 -40.583)" fill="#fe7701"/>
        </g>
        <g id="Grupo_1054298" data-name="Grupo 1054298" transform="translate(54.993 21.37)">
          <path id="Trazado_771601" data-name="Trazado 771601" d="M379.236,152.311v4.48a.355.355,0,0,0,.245.338l12.926,4.207a.355.355,0,0,0,.465-.338v-4.48a.355.355,0,0,0-.245-.338L379.7,151.974A.355.355,0,0,0,379.236,152.311Z" transform="translate(-379.236 -151.956)" fill="#fe7701"/>
        </g>
        <g id="Grupo_1054299" data-name="Grupo 1054299" transform="translate(56.269 4.939)">
          <path id="Trazado_771602" data-name="Trazado 771602" d="M387.884,50.147l1.23-6.762a1.546,1.546,0,0,1,1.245-1.245l6.762-1.23a1.546,1.546,0,0,1,1.8,1.8l-1.23,6.762a1.546,1.546,0,0,1-1.245,1.245l-6.762,1.23A1.546,1.546,0,0,1,387.884,50.147Z" transform="translate(-387.859 -40.885)" fill="#0182fc"/>
        </g>
        <g id="Grupo_1054300" data-name="Grupo 1054300" transform="translate(54.993 42.756)">
          <path id="Trazado_771603" data-name="Trazado 771603" d="M379.236,305.559v-4.48a.355.355,0,0,1,.245-.338l12.926-4.207a.355.355,0,0,1,.465.338v4.48a.355.355,0,0,1-.245.338L379.7,305.9A.355.355,0,0,1,379.236,305.559Z" transform="translate(-379.236 -296.516)" fill="#fe7701"/>
        </g>
        <g id="Grupo_1054301" data-name="Grupo 1054301" transform="translate(42.61 54.993)">
          <path id="Trazado_771604" data-name="Trazado 771604" d="M304.575,379.236h-4.48a.355.355,0,0,0-.338.245l-4.207,12.926a.355.355,0,0,0,.338.465h4.48a.355.355,0,0,0,.338-.245l4.207-12.926A.355.355,0,0,0,304.575,379.236Z" transform="translate(-295.532 -379.236)" fill="#fe7701"/>
        </g>
        <g id="Grupo_1054302" data-name="Grupo 1054302" transform="translate(57.354 56.269)">
          <path id="Trazado_771605" data-name="Trazado 771605" d="M397.018,387.884l6.762,1.23a1.546,1.546,0,0,1,1.245,1.245l1.23,6.762a1.546,1.546,0,0,1-1.8,1.8l-6.762-1.23a1.546,1.546,0,0,1-1.245-1.245l-1.23-6.762A1.546,1.546,0,0,1,397.018,387.884Z" transform="translate(-395.195 -387.859)" fill="#01d0fb"/>
        </g>
        <g id="Grupo_1054303" data-name="Grupo 1054303" transform="translate(21.37 54.993)">
          <path id="Trazado_771606" data-name="Trazado 771606" d="M152.311,379.236h4.48a.355.355,0,0,1,.338.245l4.207,12.926a.355.355,0,0,1-.338.465h-4.48a.355.355,0,0,1-.338-.245L151.973,379.7A.355.355,0,0,1,152.311,379.236Z" transform="translate(-151.955 -379.236)" fill="#fe7701"/>
        </g>
        <g id="Grupo_1054304" data-name="Grupo 1054304" transform="translate(4.894 42.61)">
          <path id="Trazado_771607" data-name="Trazado 771607" d="M54.22,304.575v-4.48a.355.355,0,0,0-.245-.338L41.048,295.55a.355.355,0,0,0-.465.338v4.48a.355.355,0,0,0,.245.338l12.926,4.207a.355.355,0,0,0,.465-.338Z" transform="translate(-40.583 -295.532)" fill="#fe7701"/>
        </g>
        <g id="Grupo_1054305" data-name="Grupo 1054305" transform="translate(6.17 57.354)">
          <path id="Trazado_771608" data-name="Trazado 771608" d="M60.265,397.019l-1.23,6.762a1.546,1.546,0,0,1-1.245,1.245l-6.762,1.23a1.546,1.546,0,0,1-1.8-1.8l1.23-6.762a1.546,1.546,0,0,1,1.245-1.245l6.762-1.23A1.546,1.546,0,0,1,60.265,397.019Z" transform="translate(-49.205 -395.195)" fill="#0182fc"/>
        </g>
      </g>
      <g id="Grupo_1054307" data-name="Grupo 1054307">
        <path id="Trazado_771609" data-name="Trazado 771609" d="M70.2,0H5.548A5.554,5.554,0,0,0,0,5.548V70.2a5.554,5.554,0,0,0,5.548,5.548H70.2A5.554,5.554,0,0,0,75.743,70.2V5.548A5.554,5.554,0,0,0,70.2,0Zm3.329,5.548V36.762H52.542A14.735,14.735,0,0,0,38.981,23.2V2.219H70.2a3.332,3.332,0,0,1,3.329,3.329ZM5.548,2.219H36.762V23.2a14.553,14.553,0,0,0-4.942,1.257,1.11,1.11,0,0,0,.914,2.022A12.5,12.5,0,1,1,27.5,30.912a1.11,1.11,0,1,0-1.842-1.238A14.623,14.623,0,0,0,23.2,36.762H2.219V5.548A3.332,3.332,0,0,1,5.548,2.219ZM2.219,70.2V38.981H23.2A14.735,14.735,0,0,0,36.762,52.542V73.524H5.548A3.332,3.332,0,0,1,2.219,70.2ZM70.2,73.524H38.981V52.542A14.735,14.735,0,0,0,52.542,38.981H73.524V70.2A3.332,3.332,0,0,1,70.2,73.524Z"/>
        <path id="Trazado_771610" data-name="Trazado 771610" d="M33.68,151.15a1.455,1.455,0,0,0,1.3.206l12.429-4.045a1.448,1.448,0,0,0,1-1.38v-4.308a1.451,1.451,0,0,0-1.9-1.38l-12.429,4.045a1.448,1.448,0,0,0-1,1.38v4.308a1.456,1.456,0,0,0,.6,1.174Zm1.621-4.924,10.893-3.545v2.693L35.3,148.918Z" transform="translate(-28.188 -119.436)"/>
        <path id="Trazado_771611" data-name="Trazado 771611" d="M141.623,48.413h4.308a1.448,1.448,0,0,0,1.38-1l4.045-12.429a1.451,1.451,0,0,0-1.38-1.9h-4.308a1.448,1.448,0,0,0-1.38,1l-4.045,12.429a1.451,1.451,0,0,0,1.38,1.9Zm4.6-13.112h2.693l-3.545,10.893H142.68Z" transform="translate(-119.435 -28.188)"/>
        <path id="Trazado_771612" data-name="Trazado 771612" d="M34.6,50.94a2.609,2.609,0,0,0,2.09,2.09l6.5,1.182a2.6,2.6,0,0,0,3.019-3.019l-1.182-6.5a2.609,2.609,0,0,0-2.09-2.09l-6.5-1.182a2.6,2.6,0,0,0-3.019,3.019Zm1.105-7.233a.369.369,0,0,1,.262-.111.4.4,0,0,1,.072.007l6.5,1.182a.379.379,0,0,1,.3.3l1.182,6.5a.377.377,0,0,1-.438.438h0l-6.5-1.182a.379.379,0,0,1-.3-.3l-1.182-6.5A.368.368,0,0,1,35.708,43.707Z" transform="translate(-28.441 -35.256)"/>
        <path id="Trazado_771613" data-name="Trazado 771613" d="M289.092,35,293.3,47.926a1.461,1.461,0,0,0,1.393,1.012h4.48a1.465,1.465,0,0,0,1.393-1.918l-4.207-12.927a1.461,1.461,0,0,0-1.393-1.011h-4.48A1.465,1.465,0,0,0,289.092,35Zm5.325.3,3.716,11.418H295.24L291.524,35.3Z" transform="translate(-246.264 -28.188)"/>
        <path id="Trazado_771614" data-name="Trazado 771614" d="M372.747,151.8,385.674,156a1.465,1.465,0,0,0,1.918-1.393v-4.48a1.461,1.461,0,0,0-1.011-1.393l-12.926-4.207a1.465,1.465,0,0,0-1.918,1.393v4.48a1.462,1.462,0,0,0,1.011,1.393Zm1.208-4.834,11.418,3.716v2.894l-11.418-3.716Z" transform="translate(-316.743 -123.089)"/>
        <path id="Trazado_771615" data-name="Trazado 771615" d="M383.02,46.694a2.659,2.659,0,0,0,.475-.043l6.762-1.23a2.668,2.668,0,0,0,2.138-2.138l1.23-6.762a2.656,2.656,0,0,0-3.088-3.088l-6.762,1.23a2.668,2.668,0,0,0-2.138,2.138l-1.23,6.762a2.656,2.656,0,0,0,2.613,3.131Zm-.43-2.734,1.23-6.762a.439.439,0,0,1,.351-.351l6.762-1.23a.437.437,0,0,1,.508.508l-1.23,6.762a.439.439,0,0,1-.351.351l-6.762,1.23a.436.436,0,0,1-.508-.508Z" transform="translate(-324.095 -28.451)"/>
        <path id="Trazado_771616" data-name="Trazado 771616" d="M386.988,289.3a1.47,1.47,0,0,0-1.314-.208L372.747,293.3a1.461,1.461,0,0,0-1.011,1.393v4.48a1.466,1.466,0,0,0,1.918,1.393l12.926-4.207a1.461,1.461,0,0,0,1.012-1.393v-4.48A1.469,1.469,0,0,0,386.988,289.3Zm-1.615,5.118-11.418,3.716V295.24l11.418-3.716Z" transform="translate(-316.743 -246.264)"/>
        <path id="Trazado_771617" data-name="Trazado 771617" d="M298.187,371.736h-4.48a1.461,1.461,0,0,0-1.393,1.011l-4.207,12.927a1.465,1.465,0,0,0,1.393,1.918h4.48a1.461,1.461,0,0,0,1.393-1.011l4.207-12.927a1.465,1.465,0,0,0-1.393-1.918Zm-4.755,13.637h-2.894l3.716-11.418h2.894Z" transform="translate(-245.425 -316.743)"/>
        <path id="Trazado_771618" data-name="Trazado 771618" d="M399.729,383.775a2.669,2.669,0,0,0-2.138-2.138,1.11,1.11,0,0,0-.4,2.183.439.439,0,0,1,.352.352l1.23,6.762a.437.437,0,0,1-.508.508l-6.762-1.23a.439.439,0,0,1-.351-.351l-1.23-6.762a.437.437,0,0,1,.508-.508l.81.147a1.11,1.11,0,0,0,.4-2.183l-.81-.147a2.656,2.656,0,0,0-3.088,3.088l1.23,6.762a2.668,2.668,0,0,0,2.138,2.138l6.762,1.23a2.656,2.656,0,0,0,3.088-3.088Z" transform="translate(-330.344 -324.095)"/>
        <path id="Trazado_771619" data-name="Trazado 771619" d="M156,385.674,151.8,372.748a1.461,1.461,0,0,0-1.393-1.012h-4.48a1.465,1.465,0,0,0-1.393,1.918l4.207,12.927a1.461,1.461,0,0,0,1.393,1.011h4.48A1.465,1.465,0,0,0,156,385.674Zm-5.325-.3-3.716-11.418h2.894l3.716,11.418Z" transform="translate(-123.089 -316.743)"/>
        <path id="Trazado_771620" data-name="Trazado 771620" d="M47.927,292.315,35,288.108a1.465,1.465,0,0,0-1.918,1.393v4.48a1.461,1.461,0,0,0,1.011,1.393l12.926,4.207a1.465,1.465,0,0,0,1.918-1.393v-4.48A1.46,1.46,0,0,0,47.927,292.315Zm-1.208,4.834L35.3,293.433V290.54l11.418,3.716Z" transform="translate(-28.188 -245.426)"/>
        <path id="Trazado_771621" data-name="Trazado 771621" d="M51.883,387.743l-6.762,1.23a2.669,2.669,0,0,0-2.138,2.138l-1.23,6.762a2.655,2.655,0,0,0,3.088,3.088l6.762-1.23a2.668,2.668,0,0,0,2.138-2.138l1.23-6.762a2.656,2.656,0,0,0-3.088-3.088Zm.9,2.691-1.23,6.763a.439.439,0,0,1-.351.351l-6.762,1.23a.436.436,0,0,1-.508-.508l1.23-6.762a.439.439,0,0,1,.351-.352l6.762-1.23a.464.464,0,0,1,.083-.008.438.438,0,0,1,.424.515Z" transform="translate(-35.54 -330.345)"/>
        <path id="Trazado_771622" data-name="Trazado 771622" d="M208.3,216.37l4.921,4.921a2.234,2.234,0,0,0,3.159,0l4.921-4.921h0a2.236,2.236,0,0,0,0-3.159l-4.921-4.921a2.234,2.234,0,0,0-3.159,0l-4.921,4.921a2.236,2.236,0,0,0,0,3.159Zm1.569-1.59,4.921-4.921a.015.015,0,0,1,.01,0,.015.015,0,0,1,.01,0l4.921,4.921a.015.015,0,0,1,0,.021l-4.921,4.921a.015.015,0,0,1-.021,0l-4.921-4.921A.014.014,0,0,1,209.866,214.781Z" transform="translate(-176.926 -176.919)"/>
      </g>
    </g>
  </g>
</svg>
