<svg xmlns="http://www.w3.org/2000/svg" width="60.016" height="60.016" viewBox="0 0 60.016 60.016">
  <g id="fatiga" transform="translate(-1 -1)">
    <g id="Grupo_57256" data-name="Grupo 57256" transform="translate(17.456 1.968)">
      <g id="Grupo_57247" data-name="Grupo 57247" transform="translate(4.298 0)">
        <path id="Trazado_101474" data-name="Trazado 101474" d="M43.31,14.584H41.374V12.648a15.96,15.96,0,0,1-4.637-.687,16.256,16.256,0,0,1-4.23-1.994,7.073,7.073,0,0,0-3.92-1.191h-.281a7.985,7.985,0,0,0-4.395,1.316,2.779,2.779,0,0,0-.378-1.036L22.44,7.237l1.51-1.365a11.561,11.561,0,0,1,6.4-1.936H33.4a9.17,9.17,0,0,0,4.1-.968l.01-.01A9.168,9.168,0,0,1,41.587,2a7.529,7.529,0,0,1,5.324,12.855L45.246,16.52a1.942,1.942,0,0,0-1.936-1.936Z" transform="translate(-22.44 -2)" fill="#b27946"/>
      </g>
      <g id="Grupo_57248" data-name="Grupo 57248" transform="translate(0 24.694)">
        <path id="Trazado_101475" data-name="Trazado 101475" d="M18,41.585A19.027,19.027,0,0,1,24.2,27.52l.01-.01a6.557,6.557,0,0,0,.494.542,9.666,9.666,0,0,0,14.181-.542l.01.01a19.027,19.027,0,0,1,6.2,14.065,19.329,19.329,0,0,1-.368,3.736l-1.568,7.831H35.424V49.28H27.68v3.872H19.936l-1.568-7.831A19.328,19.328,0,0,1,18,41.585Z" transform="translate(-18 -27.51)" fill="#5cd6b3"/>
      </g>
      <g id="Grupo_57249" data-name="Grupo 57249" transform="translate(17.424 50.336)">
        <path id="Trazado_101476" data-name="Trazado 101476" d="M43.744,54v4.84a2.9,2.9,0,0,1-5.808,0v-.968A1.95,1.95,0,0,1,36,55.936V54Z" transform="translate(-36 -54)" fill="#f0d0b4"/>
      </g>
      <g id="Grupo_57250" data-name="Grupo 57250" transform="translate(1.936 50.336)">
        <path id="Trazado_101477" data-name="Trazado 101477" d="M27.744,54v1.936a1.95,1.95,0,0,1-1.936,1.936v.968a2.9,2.9,0,0,1-5.808,0V54Z" transform="translate(-20 -54)" fill="#f0d0b4"/>
      </g>
      <g id="Grupo_57251" data-name="Grupo 57251" transform="translate(23.232 12.584)">
        <path id="Trazado_101478" data-name="Trazado 101478" d="M43.936,15a1.942,1.942,0,0,1,1.936,1.936,1.95,1.95,0,0,1-1.936,1.936H42V15Z" transform="translate(-42 -15)" fill="#f0d0b4"/>
      </g>
      <g id="Grupo_57252" data-name="Grupo 57252" transform="translate(3.872 6.776)">
        <path id="Trazado_101479" data-name="Trazado 101479" d="M22,18.68V13.666a2.747,2.747,0,0,0,1.084-.678,2.9,2.9,0,0,0,.852-2.052v-.165a2.341,2.341,0,0,0-.039-.455A7.985,7.985,0,0,1,28.292,9h.281a7.073,7.073,0,0,1,3.92,1.191,16.256,16.256,0,0,0,4.23,1.994,15.96,15.96,0,0,0,4.637.687v7.744A9.679,9.679,0,0,1,24.836,27.46a6.557,6.557,0,0,1-.494-.542A9.6,9.6,0,0,1,22,20.616Z" transform="translate(-22 -9)" fill="#f0d0b4"/>
      </g>
      <g id="Grupo_57253" data-name="Grupo 57253" transform="translate(0 12.584)">
        <path id="Trazado_101480" data-name="Trazado 101480" d="M21.872,15v3.872H19.936A1.95,1.95,0,0,1,18,16.936,1.942,1.942,0,0,1,19.936,15Z" transform="translate(-18 -15)" fill="#f0d0b4"/>
      </g>
      <g id="Grupo_57254" data-name="Grupo 57254" transform="translate(0 2.904)">
        <path id="Trazado_101481" data-name="Trazado 101481" d="M18.416,9.153,20.9,5,22.3,7.333l1.094,1.82a2.779,2.779,0,0,1,.378,1.036,2.341,2.341,0,0,1,.039.455v.165a2.9,2.9,0,0,1-.852,2.052,2.747,2.747,0,0,1-1.084.678,2.683,2.683,0,0,1-.968.174,2.9,2.9,0,0,1-2.9-2.9v-.165A2.886,2.886,0,0,1,18.416,9.153Z" transform="translate(-18 -5)" fill="#69d6f4"/>
      </g>
      <g id="Grupo_57255" data-name="Grupo 57255" transform="translate(9.68 20.328)">
        <path id="Trazado_101482" data-name="Trazado 101482" d="M32.84,23a2.9,2.9,0,0,1,2.9,2.9.971.971,0,0,1-.968.968H28.968A.971.971,0,0,1,28,25.9,2.908,2.908,0,0,1,30.9,23Z" transform="translate(-28 -23)" fill="#ff826e"/>
      </g>
    </g>
    <g id="Grupo_57257" data-name="Grupo 57257" transform="translate(1 1)">
      <path id="Trazado_101483" data-name="Trazado 101483" d="M32.808,22H30.872A3.876,3.876,0,0,0,27,25.872a1.938,1.938,0,0,0,1.936,1.936h5.808a1.938,1.938,0,0,0,1.936-1.936A3.876,3.876,0,0,0,32.808,22Zm-3.872,3.872a1.938,1.938,0,0,1,1.936-1.936h1.936a1.941,1.941,0,0,1,1.938,1.936Z" transform="translate(-1.832 -1.672)"/>
      <path id="Trazado_101484" data-name="Trazado 101484" d="M42.168,19.392h.968a2.9,2.9,0,0,0,2.859-2.458l1.428-1.428A8.5,8.5,0,0,0,41.415,1,10.147,10.147,0,0,0,36.9,2.07a8.252,8.252,0,0,1-3.668.866H30.171a12.458,12.458,0,0,0-6.931,2.1l1.074,1.611A10.53,10.53,0,0,1,30.17,4.872h3.057A10.208,10.208,0,0,0,37.772,3.8a8.186,8.186,0,0,1,3.643-.86,6.561,6.561,0,0,1,4.64,11.2l-.609.609a2.9,2.9,0,0,0-2.31-1.162h-.968v-.178a2.9,2.9,0,0,0-.968-5.63h-.167a2.887,2.887,0,0,0-2.053.851l-.4.4L39.948,10.4l.4-.4a.973.973,0,0,1,.684-.284H41.2a.968.968,0,0,1,0,1.936,14.97,14.97,0,0,1-8.33-2.522,8.006,8.006,0,0,0-4.459-1.35h-.28a8.944,8.944,0,0,0-3.87.885c-.025-.045-.044-.093-.071-.137L20.872,2.991l-3.32,5.533A3.868,3.868,0,0,0,17,10.516v.164a3.865,3.865,0,0,0,1.679,3.185A2.9,2.9,0,0,0,19.9,19.392h.968v.968a10.581,10.581,0,0,0,2.013,6.207,20.013,20.013,0,0,0-5.5,18.1L18.936,52.4v4.744a3.872,3.872,0,1,0,7.744,0v-.166a2.91,2.91,0,0,0,1.936-2.738V49.4h5.808v4.84a2.91,2.91,0,0,0,1.936,2.738v.166a3.872,3.872,0,1,0,7.744,0V52.4l1.548-7.735a20.013,20.013,0,0,0-5.5-18.1,10.581,10.581,0,0,0,2.013-6.207Zm.968-3.872a.968.968,0,1,1,0,1.936h-.968V15.52Zm-24.2-5a1.94,1.94,0,0,1,.276-1l1.66-2.768,1.66,2.767a1.946,1.946,0,0,1,.276,1v.164a1.936,1.936,0,1,1-3.872,0Zm.968,6.94a.968.968,0,1,1,0-1.936h.968v1.936Zm5.808,37.752h-.968v1.936a1.936,1.936,0,0,1-3.872,0V53.272H26.68v.968A.968.968,0,0,1,25.712,55.208Zm14.52,3.872A1.938,1.938,0,0,1,38.3,57.144V55.208h-.968a.968.968,0,0,1-.968-.968v-.968h5.823l-.015,3.872A1.938,1.938,0,0,1,40.232,59.08ZM44.1,40.738a18.176,18.176,0,0,1-.35,3.546l-1.411,7.052H36.36V38.185a4.244,4.244,0,0,0-1.252-3.021L33.74,36.532a2.323,2.323,0,0,1,.684,1.652v9.279H28.616V38.185a2.321,2.321,0,0,1,.684-1.652l-1.369-1.369a4.244,4.244,0,0,0-1.252,3.021V51.336h-6l-1.394-7.052a18.02,18.02,0,0,1,4.886-16.236,10.6,10.6,0,0,0,14.7,0A18.112,18.112,0,0,1,44.1,40.738ZM31.52,29.072a8.721,8.721,0,0,1-8.712-8.712V14.014a3.859,3.859,0,0,0,1.936-3.334V10.6a6.991,6.991,0,0,1,3.388-.892h.28A6.075,6.075,0,0,1,31.8,10.737a16.9,16.9,0,0,0,8.436,2.812V20.36A8.721,8.721,0,0,1,31.52,29.072Z" transform="translate(-1.512 -1)"/>
      <path id="Trazado_101485" data-name="Trazado 101485" d="M0,0H2.164V1.936H0Z" transform="translate(22.353 18.934) rotate(-63.435)"/>
      <path id="Trazado_101486" data-name="Trazado 101486" d="M0,0H2.164V1.936H0Z" transform="translate(25.257 18.935) rotate(-63.435)"/>
      <path id="Trazado_101487" data-name="Trazado 101487" d="M0,0H2.164V1.936H0Z" transform="translate(32.031 18.937) rotate(-63.435)"/>
      <path id="Trazado_101488" data-name="Trazado 101488" d="M0,0H2.164V1.936H0Z" transform="translate(34.935 18.938) rotate(-63.435)"/>
      <path id="Trazado_101489" data-name="Trazado 101489" d="M0,0H5.213V1.936H0Z" transform="translate(22.88 14.595) rotate(-21.77)"/>
      <path id="Trazado_101490" data-name="Trazado 101490" d="M0,0H1.936V5.213H0Z" transform="translate(31.578 14.427) rotate(-68.23)"/>
      <path id="Trazado_101491" data-name="Trazado 101491" d="M61.337,26.721a1.369,1.369,0,0,1,0-1.936l.567-.567a3.3,3.3,0,0,0,0-4.674l-1.252-1.252-1.369,1.369,1.252,1.252a1.369,1.369,0,0,1,0,1.936l-.567.567a3.3,3.3,0,0,0,0,4.674l.567.567a1.369,1.369,0,0,1,0,1.936l-1.252,1.252,1.369,1.369L61.9,31.962a3.3,3.3,0,0,0,0-4.674Z" transform="translate(-2.856 -1.553)"/>
      <path id="Trazado_101492" data-name="Trazado 101492" d="M56.9,24.218a3.3,3.3,0,0,0,0-4.674l-1.252-1.252-1.369,1.369,1.252,1.252a1.369,1.369,0,0,1,0,1.936l-.567.567a3.3,3.3,0,0,0,0,4.674l.567.567a1.369,1.369,0,0,1,0,1.936l-1.252,1.252,1.369,1.369L56.9,31.962a3.3,3.3,0,0,0,0-4.674l-.567-.567a1.369,1.369,0,0,1,0-1.936Z" transform="translate(-2.696 -1.553)"/>
      <path id="Trazado_101493" data-name="Trazado 101493" d="M51.9,24.218a3.3,3.3,0,0,0,0-4.674l-1.252-1.252-1.369,1.369,1.252,1.252a1.369,1.369,0,0,1,0,1.936l-.567.567a3.3,3.3,0,0,0,0,4.674l.567.567a1.369,1.369,0,0,1,0,1.936l-1.252,1.252,1.369,1.369L51.9,31.962a3.3,3.3,0,0,0,0-4.674l-.567-.567a1.369,1.369,0,0,1,0-1.936Z" transform="translate(-2.536 -1.553)"/>
      <path id="Trazado_101494" data-name="Trazado 101494" d="M13.9,24.218a3.3,3.3,0,0,0,0-4.674l-1.252-1.252-1.369,1.369,1.252,1.252a1.369,1.369,0,0,1,0,1.936l-.567.567a3.3,3.3,0,0,0,0,4.674l.567.567a1.369,1.369,0,0,1,0,1.936l-1.252,1.252,1.369,1.369L13.9,31.962a3.3,3.3,0,0,0,0-4.674l-.567-.567a1.369,1.369,0,0,1,0-1.936Z" transform="translate(-1.32 -1.553)"/>
      <path id="Trazado_101495" data-name="Trazado 101495" d="M8.9,24.218a3.3,3.3,0,0,0,0-4.674L7.652,18.293,6.284,19.662l1.252,1.252a1.369,1.369,0,0,1,0,1.936l-.567.567a3.3,3.3,0,0,0,0,4.674l.567.567a1.369,1.369,0,0,1,0,1.936L6.284,31.845l1.369,1.369L8.9,31.962a3.3,3.3,0,0,0,0-4.674l-.567-.567a1.369,1.369,0,0,1,0-1.936Z" transform="translate(-1.16 -1.553)"/>
      <path id="Trazado_101496" data-name="Trazado 101496" d="M3.9,24.218a3.3,3.3,0,0,0,0-4.674L2.652,18.293,1.284,19.662l1.252,1.252a1.369,1.369,0,0,1,0,1.936l-.567.567a3.3,3.3,0,0,0,0,4.674l.567.567a1.369,1.369,0,0,1,0,1.936L1.284,31.845l1.369,1.369L3.9,31.962a3.3,3.3,0,0,0,0-4.674l-.567-.567a1.369,1.369,0,0,1,0-1.936Z" transform="translate(-1 -1.553)"/>
    </g>
  </g>
</svg>
