<svg xmlns="http://www.w3.org/2000/svg" width="118.494" height="112.822" viewBox="0 0 118.494 112.822">
  <g id="Grupo_1054270" data-name="Grupo 1054270" transform="translate(-1059 -1368)">
    <path id="Trazado_732493" data-name="Trazado 732493" d="M10,0h98.494a10,10,0,0,1,10,10v92.823a10,10,0,0,1-10,10H10a10,10,0,0,1-10-10V10A10,10,0,0,1,10,0Z" transform="translate(1059 1368)" fill="#9f0925"/>
    <g id="ropa_caja" data-name="ropa caja" transform="translate(1080.764 1387.674)">
      <path id="Trazado_771526" data-name="Trazado 771526" d="M2,2V61.947L15.834,71.17V11.223Z" transform="translate(0.153 0.153)" fill="#e56d13"/>
      <path id="Trazado_771527" data-name="Trazado 771527" d="M14,10H69.336V69.947H14Z" transform="translate(1.987 1.375)" fill="#ec8329"/>
      <path id="Trazado_771528" data-name="Trazado 771528" d="M14,10l1.607,7.07A69.861,69.861,0,0,0,69.336,69.947V10Z" transform="translate(1.987 1.375)" fill="#f79b31"/>
      <path id="Trazado_771529" data-name="Trazado 771529" d="M6,51.764l4.611,3.458V49.458L6,46Z" transform="translate(0.764 6.877)" fill="#006bdb"/>
      <path id="Trazado_771530" data-name="Trazado 771530" d="M14,10l6.32,6.6A86.913,86.913,0,0,0,69.336,42.279V10Z" transform="translate(1.987 1.375)" fill="#f9a048"/>
      <path id="Trazado_771531" data-name="Trazado 771531" d="M71.17,11.223,57.336,2H2l13.834,9.223Z" transform="translate(0.153 0.153)" fill="#ec8329"/>
      <path id="Trazado_771532" data-name="Trazado 771532" d="M34,10V20.375l4.611-3.458,4.611,3.458V10Z" transform="translate(5.043 1.375)" fill="#4fd3fc"/>
      <path id="Trazado_771533" data-name="Trazado 771533" d="M22,2l13.834,9.223h9.223L31.223,2Z" transform="translate(3.209 0.153)" fill="#3693cf"/>
      <path id="Trazado_771534" data-name="Trazado 771534" d="M52.279,60.585V37.528l5.764,2.306,3.458-8.07L47.668,26l-1.68,2.8a6.108,6.108,0,0,1-10.474,0L33.834,26,20,31.764l3.458,8.07,5.764-2.306V60.585Z" transform="translate(2.904 3.821)" fill="#0059be"/>
      <path id="Trazado_771535" data-name="Trazado 771535" d="M44.46,28.8a6.11,6.11,0,0,1-10.475,0L32.306,26l-1.187.495A23.831,23.831,0,0,0,50.751,57.341V37.528l5.764,2.306,3.458-8.07L46.14,26Z" transform="translate(4.432 3.821)" fill="#006bdb"/>
      <path id="Trazado_771536" data-name="Trazado 771536" d="M62.1,30.853,48.265,25.089a1.153,1.153,0,0,0-1.432.472l-1.679,2.8a4.957,4.957,0,0,1-8.5,0l-1.679-2.8a1.153,1.153,0,0,0-1.432-.472L19.709,30.852a1.153,1.153,0,0,0-.616,1.518l3.458,8.07a1.153,1.153,0,0,0,1.487.617l4.184-1.673V60.738a1.153,1.153,0,0,0,1.153,1.153H52.432a1.153,1.153,0,0,0,1.153-1.153V39.384l4.184,1.674a1.153,1.153,0,0,0,1.487-.617l3.458-8.07a1.153,1.153,0,0,0-.616-1.518ZM57.579,38.5,52.86,36.61a1.153,1.153,0,0,0-1.581,1.071v21.9H30.528v-21.9a1.153,1.153,0,0,0-1.581-1.071L24.228,38.5l-2.557-5.965L33.511,27.6l1.168,1.945a7.263,7.263,0,0,0,12.451,0L48.3,27.6l11.84,4.934Z" transform="translate(2.751 3.668)"/>
      <path id="Trazado_771537" data-name="Trazado 771537" d="M71.962,10.416,58.128,1.194A1.16,1.16,0,0,0,57.489,1H2.153A1.153,1.153,0,0,0,1,2.153V62.1a1.153,1.153,0,0,0,.513.959l13.834,9.223a1.16,1.16,0,0,0,.64.194H71.323a1.153,1.153,0,0,0,1.153-1.153V11.375a1.153,1.153,0,0,0-.513-.959Zm-4.444-.194H48.612L38.236,3.306H57.143Zm-51.186,0L5.957,3.306H24.864l10.375,6.917Zm23.057,0L29.014,3.306h5.072l10.375,6.917Zm.807,2.306h6.917v6.917L44.346,17.37a1.153,1.153,0,0,0-1.383,0L40.2,19.445ZM3.306,4.306l11.528,7.686v57.18L3.306,61.483ZM17.14,70.17V12.528H37.89v9.223a1.153,1.153,0,0,0,1.845.922l3.92-2.94,3.92,2.94a1.153,1.153,0,0,0,1.845-.922V12.528H70.17V70.17Z" transform="translate(0)"/>
      <path id="Trazado_771538" data-name="Trazado 771538" d="M11.456,48.689,6.845,45.231A1.153,1.153,0,0,0,5,46.153v5.764a1.153,1.153,0,0,0,.461.922L10.072,56.3a1.153,1.153,0,0,0,1.845-.922V49.611a1.153,1.153,0,0,0-.461-.922ZM9.611,53.07,7.306,51.341V48.458l2.306,1.729Z" transform="translate(0.611 6.724)"/>
    </g>
  </g>
</svg>
