<svg xmlns="http://www.w3.org/2000/svg" width="118.494" height="112.823" viewBox="0 0 118.494 112.823">
  <g id="Grupo_1054267" data-name="Grupo 1054267" transform="translate(-7171 10324)">
    <rect id="Rectángulo_338875" data-name="Rectángulo 338875" width="118.494" height="112.823" rx="10" transform="translate(7171 -10324)" fill="#9f0925"/>
    <g id="aro-de-bordado" transform="translate(7181.332 -10307.301)">
      <g id="Grupo_1054317" data-name="Grupo 1054317" transform="translate(12.056 1.163)">
        <g id="Grupo_1054316" data-name="Grupo 1054316" transform="translate(0)">
          <g id="Grupo_1054312" data-name="Grupo 1054312">
            <g id="Grupo_1054311" data-name="Grupo 1054311">
              <g id="Grupo_1054308" data-name="Grupo 1054308" transform="translate(25.2)">
                <path id="Trazado_771623" data-name="Trazado 771623" d="M266.094,23.293h-5.465V10.233a2.733,2.733,0,0,1,5.465,0v13.06Z" transform="translate(-248.253 -7.5)" fill="#fbc980"/>
                <path id="Trazado_771624" data-name="Trazado 771624" d="M186.31,23.293h-5.465V10.233a2.733,2.733,0,1,1,5.465,0v13.06Z" transform="translate(-180.845 -7.5)" fill="#fbc980"/>
              </g>
              <g id="Grupo_1054310" data-name="Grupo 1054310" transform="translate(0 8.855)">
                <g id="Grupo_1054309" data-name="Grupo 1054309" transform="translate(0 0)">
                  <circle id="Elipse_8067" data-name="Elipse 8067" cx="34.121" cy="34.121" r="34.121" fill="#f9bc66"/>
                  <circle id="Elipse_8068" data-name="Elipse 8068" cx="28.56" cy="28.56" r="28.56" transform="translate(5.561 5.561)" fill="#f1faff"/>
                  <path id="Trazado_771625" data-name="Trazado 771625" d="M210.751,100.433a28.739,28.739,0,0,0-5.067.448,28.565,28.565,0,0,1,0,56.223,28.562,28.562,0,1,0,5.067-56.671Z" transform="translate(-176.631 -94.872)" fill="#dcf5ff"/>
                </g>
              </g>
            </g>
          </g>
          <g id="Grupo_1054315" data-name="Grupo 1054315" transform="translate(15.655 24.51)">
            <g id="Grupo_1054314" data-name="Grupo 1054314" transform="translate(3.865)">
              <path id="Trazado_771626" data-name="Trazado 771626" d="M209.661,177.84a6.1,6.1,0,0,1,3.067.824,20.861,20.861,0,0,0,2.2-7.895,5.268,5.268,0,0,0-10.535,0,20.859,20.859,0,0,0,2.2,7.895A6.1,6.1,0,0,1,209.661,177.84Z" transform="translate(-195.06 -165.501)" fill="#ff79b3"/>
              <path id="Trazado_771627" data-name="Trazado 771627" d="M209.66,319.556a6.1,6.1,0,0,1-3.067-.824,20.86,20.86,0,0,0-2.2,7.895,5.268,5.268,0,1,0,10.535,0,20.861,20.861,0,0,0-2.2-7.895A6.1,6.1,0,0,1,209.66,319.556Z" transform="translate(-195.059 -294.962)" fill="#ff79b3"/>
              <path id="Trazado_771628" data-name="Trazado 771628" d="M280.437,250.583a20.859,20.859,0,0,0-7.895,2.2,6.122,6.122,0,0,1,0,6.135,20.858,20.858,0,0,0,7.895,2.2,5.268,5.268,0,0,0,0-10.536Z" transform="translate(-252.638 -237.385)" fill="#ff79b3"/>
              <g id="Grupo_1054313" data-name="Grupo 1054313" transform="translate(0 3.865)">
                <path id="Trazado_771629" data-name="Trazado 771629" d="M268.109,191.962a5.268,5.268,0,0,0-7.45,0c-.115.115-.237.249-.363.4a21.859,21.859,0,0,1-2.179,7.358,6.155,6.155,0,0,1,2.238,2.238,21.86,21.86,0,0,1,7.358-2.179c.146-.126.28-.247.4-.363A5.268,5.268,0,0,0,268.109,191.962Z" transform="translate(-240.451 -190.419)" fill="#fca2cd"/>
                <path id="Trazado_771630" data-name="Trazado 771630" d="M155.765,199.716a21.853,21.853,0,0,1-2.179-7.358c-.125-.146-.247-.28-.363-.4a5.268,5.268,0,1,0-7.45,7.45c.115.115.249.237.4.363a21.86,21.86,0,0,1,7.358,2.179A6.154,6.154,0,0,1,155.765,199.716Z" transform="translate(-144.23 -190.42)" fill="#fca2cd"/>
                <path id="Trazado_771631" data-name="Trazado 771631" d="M268.109,306.85c-.115-.115-.249-.237-.4-.363a21.855,21.855,0,0,1-7.358-2.179,6.155,6.155,0,0,1-2.238,2.238A21.858,21.858,0,0,1,260.3,313.9c.125.146.247.28.363.4a5.268,5.268,0,1,0,7.45-7.45Z" transform="translate(-240.451 -286.641)" fill="#fca2cd"/>
                <path id="Trazado_771632" data-name="Trazado 771632" d="M153.526,304.309a21.858,21.858,0,0,1-7.358,2.179c-.146.126-.28.247-.4.363a5.268,5.268,0,1,0,7.45,7.45c.115-.115.237-.249.363-.4a21.86,21.86,0,0,1,2.179-7.358A6.156,6.156,0,0,1,153.526,304.309Z" transform="translate(-144.23 -286.642)" fill="#fca2cd"/>
              </g>
            </g>
            <circle id="Elipse_8069" data-name="Elipse 8069" cx="6.128" cy="6.128" r="6.128" transform="translate(12.338 12.339)" fill="#ffdaea"/>
            <path id="Trazado_771633" data-name="Trazado 771633" d="M131.65,255.851a6.1,6.1,0,0,1,.824-3.067,20.859,20.859,0,0,0-7.895-2.2,5.268,5.268,0,0,0,0,10.536,20.861,20.861,0,0,0,7.895-2.2A6.1,6.1,0,0,1,131.65,255.851Z" transform="translate(-119.311 -237.385)" fill="#ff79b3"/>
          </g>
        </g>
        <path id="Trazado_771634" data-name="Trazado 771634" d="M423.834,46.96a2.846,2.846,0,0,1,0-4.025l5.263-5.263a2.846,2.846,0,0,1,4.025,4.025l-5.263,5.263A2.846,2.846,0,0,1,423.834,46.96Z" transform="translate(-360.236 -32.288)" fill="#97e4f9"/>
      </g>
      <g id="Grupo_1054318" data-name="Grupo 1054318" transform="translate(10.893)">
        <path id="Trazado_771635" data-name="Trazado 771635" d="M73.7,23.937a1.164,1.164,0,0,0-.3,1.617,32.962,32.962,0,1,1-7.239-7.626,1.163,1.163,0,0,0,1.412-1.849,35.049,35.049,0,0,0-11.31-5.77V6.7h3.454a1.163,1.163,0,0,0,0-2.327H56.261V3.9a3.9,3.9,0,0,0-7.792,0v.477H43.885V3.9a3.9,3.9,0,1,0-7.792,0v.477H32.639a1.163,1.163,0,0,0,0,2.327h3.454v3.611A35.294,35.294,0,1,0,75.319,24.24a1.163,1.163,0,0,0-1.617-.3ZM52.365,2.327A1.571,1.571,0,0,1,53.935,3.9V9.7q-1.55-.346-3.138-.551V3.9a1.571,1.571,0,0,1,1.569-1.569ZM48.47,6.7V8.928q-1.139-.072-2.292-.073c-.768,0-1.532.027-2.292.075V6.7ZM38.42,3.9a1.569,1.569,0,1,1,3.138,0V9.155q-1.587.206-3.138.551V3.9Z" transform="translate(-10.893 0)"/>
        <path id="Trazado_771636" data-name="Trazado 771636" d="M94.062,100.129A1.164,1.164,0,0,0,93.8,98.5a29.705,29.705,0,1,0,7.754,8.2,1.163,1.163,0,1,0-1.962,1.251,27.4,27.4,0,1,1-7.15-7.56,1.164,1.164,0,0,0,1.624-.266Z" transform="translate(-41.183 -78.517)"/>
        <path id="Trazado_771637" data-name="Trazado 771637" d="M367.228,30.508a4.007,4.007,0,0,0-5.67,0L356.3,35.771a4.01,4.01,0,0,0-.7,4.727L344.376,51.715a1.163,1.163,0,1,0,1.645,1.645L357.24,42.141a4.015,4.015,0,0,0,4.725-.7l5.263-5.263a4.014,4.014,0,0,0,0-5.67Zm-1.645,4.025L360.32,39.8a1.683,1.683,0,1,1-2.38-2.38l5.263-5.263a1.683,1.683,0,1,1,2.38,2.38Z" transform="translate(-292.357 -24.783)"/>
        <path id="Trazado_771638" data-name="Trazado 771638" d="M151.068,177.63a6.441,6.441,0,0,0-4.688-6.189,6.429,6.429,0,0,0-8.753-8.753,6.429,6.429,0,0,0-12.378,0,6.429,6.429,0,0,0-8.753,8.753,6.429,6.429,0,0,0,0,12.378,6.431,6.431,0,0,0,8.753,8.753,6.43,6.43,0,0,0,12.378,0,6.429,6.429,0,0,0,8.753-8.753A6.441,6.441,0,0,0,151.068,177.63Zm-7.395-12.235a4.109,4.109,0,0,1-.066,5.869,23.732,23.732,0,0,0-6.475,1.819,7.357,7.357,0,0,0-1.147-1.147,23.731,23.731,0,0,0,1.819-6.475A4.109,4.109,0,0,1,143.674,165.395Zm-17.2,12.235a4.964,4.964,0,1,1,4.964,4.964,4.97,4.97,0,0,1-4.964-4.964Zm4.964-17.3a4.109,4.109,0,0,1,4.1,4.1,19.518,19.518,0,0,1-1.594,6.353,7.295,7.295,0,0,0-5.021,0,19.523,19.523,0,0,1-1.594-6.353A4.109,4.109,0,0,1,131.439,160.327ZM119.2,165.395a4.109,4.109,0,0,1,5.8,0l.065.068a23.738,23.738,0,0,0,1.819,6.474,7.357,7.357,0,0,0-1.147,1.147,23.735,23.735,0,0,0-6.474-1.819l-.068-.065A4.109,4.109,0,0,1,119.2,165.395Zm-5.068,12.235a4.109,4.109,0,0,1,4.1-4.1,19.862,19.862,0,0,1,6.353,1.594,7.295,7.295,0,0,0,0,5.021,19.522,19.522,0,0,1-6.353,1.594A4.109,4.109,0,0,1,114.136,177.63Zm5.068,12.235a4.109,4.109,0,0,1,0-5.8l.068-.065a23.734,23.734,0,0,0,6.473-1.819,7.355,7.355,0,0,0,1.147,1.147,23.733,23.733,0,0,0-1.819,6.475A4.109,4.109,0,0,1,119.2,189.865Zm12.235,5.068a4.109,4.109,0,0,1-4.1-4.1,19.519,19.519,0,0,1,1.594-6.353,7.3,7.3,0,0,0,5.021,0,19.524,19.524,0,0,1,1.594,6.353A4.109,4.109,0,0,1,131.439,194.932Zm12.235-5.068a4.107,4.107,0,0,1-5.869-.068,23.735,23.735,0,0,0-1.819-6.473,7.353,7.353,0,0,0,1.147-1.147A23.727,23.727,0,0,0,143.606,184,4.107,4.107,0,0,1,143.674,189.865Zm.964-8.131a19.518,19.518,0,0,1-6.353-1.594,7.294,7.294,0,0,0,0-5.021,19.915,19.915,0,0,1,6.353-1.594,4.1,4.1,0,0,1,0,8.209Z" transform="translate(-96.155 -133.49)"/>
      </g>
    </g>
  </g>
</svg>
