<svg xmlns="http://www.w3.org/2000/svg" width="118.494" height="112.823" viewBox="0 0 118.494 112.823">
  <g id="Grupo_1054268" data-name="Grupo 1054268" transform="translate(-7171 10324)">
    <rect id="Rectángulo_338875" data-name="Rectángulo 338875" width="118.494" height="112.823" rx="10" transform="translate(7171 -10324)" fill="#9f0925"/>
    <g id="apliques" transform="translate(7178.369 -10333.342)">
      <path id="Trazado_771539" data-name="Trazado 771539" d="M81.386,31.916H11.592A1.652,1.652,0,0,0,9.94,33.568v67.523a1.652,1.652,0,0,0,1.652,1.652H81.386a1.652,1.652,0,0,0,1.652-1.652V33.568A1.652,1.652,0,0,0,81.386,31.916Z" transform="translate(-1.575 -1.576)" fill="#fc5d3d"/>
      <path id="Trazado_771540" data-name="Trazado 771540" d="M233.76,114.009a3.588,3.588,0,1,1-7.177,0c0-1.982,3.588-23.741,3.588-23.741S233.76,112.027,233.76,114.009Z" transform="translate(-138.371 -38.421)" fill="#efefef"/>
      <path id="Trazado_771541" data-name="Trazado 771541" d="M233.789,57.534c-1.357-.449-2.759-.841-3.547-4.232-.725,3.123-1.886,3.683-3.547,4.232,2.708.895,3.116,2.376,3.547,4.231C230.985,58.567,232.212,58.055,233.789,57.534Z" transform="translate(-138.442 -15.08)" fill="#f0c020"/>
      <path id="Trazado_771542" data-name="Trazado 771542" d="M227.8,60.467c-.393-1.7-.653-2.815-2.945-3.572a.912.912,0,0,1,0-1.731c1.38-.456,2.291-.757,2.945-3.572a.912.912,0,0,1,1.776,0c.668,2.879,1.667,3.151,2.944,3.572a.912.912,0,0,1,0,1.731c-1.33.439-2.292.757-2.944,3.572A.912.912,0,0,1,227.8,60.467Zm-.521-4.417a4.735,4.735,0,0,1,1.427,1.509,4.51,4.51,0,0,1,1.349-1.521,4.649,4.649,0,0,1-1.363-1.577,4.513,4.513,0,0,1-1.412,1.59Z" transform="translate(-136.884 -13.556)"/>
      <path id="Trazado_771543" data-name="Trazado 771543" d="M82.714,111.691l-8.91-3.23-8.91,3.23a3.994,3.994,0,0,1-5.352-3.825l.174-9.641-5.692-7.386A3.994,3.994,0,0,1,55.963,84.6l9.135-2.94,5.457-7.652a3.994,3.994,0,0,1,6.5,0l5.457,7.652,9.135,2.94a3.994,3.994,0,0,1,1.939,6.237l-5.692,7.386.174,9.641A4,4,0,0,1,82.714,111.691Z" transform="translate(-28.887 -27.099)" fill="#efefef"/>
      <path id="Trazado_771544" data-name="Trazado 771544" d="M84.088,213.427H82.983a.921.921,0,0,1,0-1.843h1.106a.921.921,0,0,1,0,1.843Zm-4.791,0H18.361a.921.921,0,1,1,0-1.843H79.3a.921.921,0,1,1,0,1.843Z" transform="translate(-6.311 -115.024)" fill="#ffcbc3"/>
      <path id="Trazado_771545" data-name="Trazado 771545" d="M84.088,41.259H23.153a.921.921,0,1,1,0-1.843H84.088a.921.921,0,0,1,0,1.843Zm-64.621,0H18.361a.921.921,0,1,1,0-1.843h1.106a.921.921,0,1,1,0,1.843Z" transform="translate(-6.311 -6.312)" fill="#ffcbc3"/>
      <path id="Trazado_771546" data-name="Trazado 771546" d="M152.834,199.051a.921.921,0,1,0,0,1.843h1.473a.921.921,0,0,0,0-1.843Z" transform="translate(-91.222 -107.11)"/>
      <path id="Trazado_771547" data-name="Trazado 771547" d="M97.352,199.051a.921.921,0,0,0,0,1.843h2.728a.921.921,0,0,0,0-1.843Z" transform="translate(-56.189 -107.11)"/>
      <path id="Trazado_771548" data-name="Trazado 771548" d="M115.852,199.051a.921.921,0,0,0,0,1.843h2.727a.921.921,0,0,0,0-1.843Z" transform="translate(-67.87 -107.11)"/>
      <path id="Trazado_771549" data-name="Trazado 771549" d="M134.348,199.051a.921.921,0,1,0,0,1.843h2.727a.921.921,0,1,0,0-1.843Z" transform="translate(-79.549 -107.11)"/>
      <path id="Trazado_771550" data-name="Trazado 771550" d="M60.357,199.051a.921.921,0,1,0,0,1.843h2.727a.921.921,0,0,0,0-1.843Z" transform="translate(-32.829 -107.11)"/>
      <path id="Trazado_771551" data-name="Trazado 771551" d="M78.855,199.051a.921.921,0,1,0,0,1.843h2.727a.921.921,0,1,0,0-1.843Z" transform="translate(-44.509 -107.11)"/>
      <path id="Trazado_771552" data-name="Trazado 771552" d="M46,196.546q-.034-.354-.093-.7a.922.922,0,0,0-1.817.31,7.832,7.832,0,0,1,.111,1.313.921.921,0,0,0,.921.921h1.474a.921.921,0,0,0,0-1.843Z" transform="translate(-23.128 -104.605)"/>
      <path id="Trazado_771553" data-name="Trazado 771553" d="M35.156,181.723a7.785,7.785,0,0,1,1.68,1.68.922.922,0,1,0,1.487-1.089,9.625,9.625,0,0,0-2.078-2.077.922.922,0,0,0-1.089,1.487Z" transform="translate(-17.26 -95.118)"/>
      <path id="Trazado_771554" data-name="Trazado 771554" d="M20.886,173.929a.921.921,0,0,0,.921.921,11.469,11.469,0,0,1,1.47.124.922.922,0,0,0,.154-1.83c-.232-.039-.467-.07-.7-.093v-.6a.921.921,0,0,0-1.843,0Z" transform="translate(-8.487 -89.74)"/>
      <path id="Trazado_771555" data-name="Trazado 771555" d="M20.886,95.357a.921.921,0,0,0,1.843,0v-2.95a.921.921,0,1,0-1.843,0Z" transform="translate(-8.487 -39.19)"/>
      <path id="Trazado_771556" data-name="Trazado 771556" d="M20.886,115.366a.921.921,0,0,0,1.843,0v-2.95a.921.921,0,0,0-1.843,0Z" transform="translate(-8.487 -51.825)"/>
      <path id="Trazado_771557" data-name="Trazado 771557" d="M20.886,135.374a.921.921,0,0,0,1.843,0v-2.95a.921.921,0,1,0-1.843,0Z" transform="translate(-8.487 -64.458)"/>
      <path id="Trazado_771558" data-name="Trazado 771558" d="M20.886,155.383a.921.921,0,0,0,1.843,0v-2.95a.921.921,0,1,0-1.843,0Z" transform="translate(-8.487 -77.093)"/>
      <path id="Trazado_771559" data-name="Trazado 771559" d="M22.729,77.659v-.6q.354-.034.7-.093a.922.922,0,0,0-.31-1.817,7.808,7.808,0,0,1-1.314.111.921.921,0,0,0-.921.921v1.474a.921.921,0,0,0,1.843,0Z" transform="translate(-8.487 -28.867)"/>
      <path id="Trazado_771560" data-name="Trazado 771560" d="M36.839,66.22a7.78,7.78,0,0,1-1.68,1.681.922.922,0,0,0,1.089,1.487,9.631,9.631,0,0,0,2.077-2.078.922.922,0,0,0-1.486-1.09Z" transform="translate(-17.262 -22.999)"/>
      <path id="Trazado_771561" data-name="Trazado 771561" d="M46.6,51.949H45.121a.921.921,0,0,0-.921.921,7.837,7.837,0,0,1-.111,1.314.922.922,0,0,0,1.817.31c.039-.232.071-.467.093-.7h.6A.921.921,0,0,0,46.6,51.949Z" transform="translate(-23.128 -14.226)"/>
      <path id="Trazado_771562" data-name="Trazado 771562" d="M64.87,53.792a.921.921,0,1,0,0-1.843H61.806a.921.921,0,0,0,0,1.843Z" transform="translate(-33.744 -14.226)"/>
      <path id="Trazado_771563" data-name="Trazado 771563" d="M127.216,53.792a.921.921,0,1,0,0-1.843h-3.064a.921.921,0,1,0,0,1.843Z" transform="translate(-73.111 -14.226)"/>
      <path id="Trazado_771564" data-name="Trazado 771564" d="M148,53.792a.921.921,0,0,0,0-1.843h-3.064a.921.921,0,1,0,0,1.843Z" transform="translate(-86.233 -14.226)"/>
      <path id="Trazado_771565" data-name="Trazado 771565" d="M85.652,53.792a.921.921,0,0,0,0-1.843H82.588a.921.921,0,1,0,0,1.843Z" transform="translate(-46.866 -14.226)"/>
      <path id="Trazado_771566" data-name="Trazado 771566" d="M106.434,53.792a.921.921,0,0,0,0-1.843H103.37a.921.921,0,1,0,0,1.843Z" transform="translate(-59.989 -14.226)"/>
      <path id="Trazado_771567" data-name="Trazado 771567" d="M168.124,52.87a.921.921,0,0,0-.921-.921h-1.474a.921.921,0,0,0,0,1.843h.6q.034.353.093.7a.921.921,0,1,0,1.816-.309,7.9,7.9,0,0,1-.11-1.314Z" transform="translate(-99.368 -14.226)"/>
      <path id="Trazado_771568" data-name="Trazado 771568" d="M173.512,67.311a9.631,9.631,0,0,0,2.078,2.077.922.922,0,0,0,1.089-1.487A7.779,7.779,0,0,1,175,66.221a.922.922,0,1,0-1.486,1.09Z" transform="translate(-104.747 -22.999)"/>
      <path id="Trazado_771569" data-name="Trazado 771569" d="M190.731,77.111a.921.921,0,1,0,0-1.843,7.8,7.8,0,0,1-1.313-.111.921.921,0,0,0-.31,1.816A9.626,9.626,0,0,0,190.731,77.111Z" transform="translate(-114.224 -28.871)"/>
      <path id="Trazado_771570" data-name="Trazado 771570" d="M240.087,121.932a.929.929,0,0,0-.77,1.054,0,0,0,0,1,0,0,.92.92,0,0,0,1.817-.287A.926.926,0,0,0,240.087,121.932Z" transform="translate(-146.404 -58.408)"/>
      <path id="Trazado_771571" data-name="Trazado 771571" d="M106.421,86.437a.922.922,0,0,0,1.392-1.2l-.642-.9a.922.922,0,0,0-1.5,0l-.642.9a.922.922,0,0,0,1.392,1.2Z" transform="translate(-61.503 -34.435)"/>
      <path id="Trazado_771572" data-name="Trazado 771572" d="M116.668,99.267a.921.921,0,0,0,1.5-1.07l-1.474-2.067a.921.921,0,0,0-1.5,1.07Z" transform="translate(-67.928 -41.879)"/>
      <path id="Trazado_771573" data-name="Trazado 771573" d="M128.548,109.453l2.416.778a.922.922,0,1,0,.565-1.754l-2.416-.778a.922.922,0,0,0-.565,1.754Z" transform="translate(-76.064 -49.4)"/>
      <path id="Trazado_771574" data-name="Trazado 771574" d="M145.864,115.008a.921.921,0,0,0,1.555.972l.675-.876a.922.922,0,0,0-.447-1.44l-1.053-.339a.922.922,0,0,0-.73,1.683Z" transform="translate(-87.103 -52.952)"/>
      <path id="Trazado_771575" data-name="Trazado 771575" d="M135.489,129.405a.921.921,0,0,0,1.292-.168l1.56-2.024a.921.921,0,1,0-1.46-1.124l-1.56,2.024A.921.921,0,0,0,135.489,129.405Z" transform="translate(-80.625 -60.813)"/>
      <path id="Trazado_771576" data-name="Trazado 771576" d="M132.925,146.054h.017a.922.922,0,0,0,.9-.938l-.046-2.555a.921.921,0,0,0-.921-.9h-.017a.922.922,0,0,0-.9.938L132,145.15A.922.922,0,0,0,132.925,146.054Z" transform="translate(-78.621 -70.87)"/>
      <path id="Trazado_771577" data-name="Trazado 771577" d="M130.567,160.877a.922.922,0,0,0-.431,1.781l1.039.377a.922.922,0,0,0,1.235-.883l-.02-1.106A.922.922,0,0,0,130.567,160.877Z" transform="translate(-77.089 -82.542)"/>
      <path id="Trazado_771578" data-name="Trazado 771578" d="M95.223,156.72a.921.921,0,1,0,.628,1.732l2.412-.875a.921.921,0,1,0-.628-1.732Z" transform="translate(-55.042 -79.794)"/>
      <path id="Trazado_771579" data-name="Trazado 771579" d="M112.125,156.4a.922.922,0,0,0,.552,1.181l2.412.875a.922.922,0,0,0,.628-1.733l-2.412-.875A.922.922,0,0,0,112.125,156.4Z" transform="translate(-66.064 -79.795)"/>
      <path id="Trazado_771580" data-name="Trazado 771580" d="M82.731,160.879a.922.922,0,0,0-1.824.169l-.02,1.106a.922.922,0,0,0,1.235.883l1.039-.377A.922.922,0,0,0,82.731,160.879Z" transform="translate(-46.373 -82.544)"/>
      <path id="Trazado_771581" data-name="Trazado 771581" d="M75.621,129.239a.921.921,0,0,0,1.46-1.124l-1.559-2.024a.921.921,0,1,0-1.46,1.125Z" transform="translate(-41.943 -60.814)"/>
      <path id="Trazado_771582" data-name="Trazado 771582" d="M82.054,146.054h.017a.922.922,0,0,0,.921-.9l.046-2.555a.921.921,0,1,0-1.842-.033l-.046,2.555A.921.921,0,0,0,82.054,146.054Z" transform="translate(-46.539 -70.869)"/>
      <path id="Trazado_771583" data-name="Trazado 771583" d="M65.852,115.97A.922.922,0,0,0,67.408,115a.922.922,0,0,0-.73-1.683l-1.053.339a.922.922,0,0,0-.447,1.44Z" transform="translate(-36.333 -52.943)"/>
      <path id="Trazado_771584" data-name="Trazado 771584" d="M79.971,110.231l2.416-.778a.922.922,0,0,0-.565-1.754l-2.416.778a.922.922,0,0,0,.565,1.754Z" transform="translate(-45.035 -49.399)"/>
      <path id="Trazado_771585" data-name="Trazado 771585" d="M94.6,99.481a.922.922,0,0,0,1.285-.215L97.357,97.2a.921.921,0,1,0-1.5-1.07L94.382,98.2A.921.921,0,0,0,94.6,99.481Z" transform="translate(-54.787 -41.878)"/>
      <path id="Trazado_771586" data-name="Trazado 771586" d="M7.445,99.514a2.575,2.575,0,0,0,2.573,2.573h69.8c3.244,0,2.573-3.535,2.573-8.3h1.155A9.192,9.192,0,0,0,92.722,84.6V80a4.519,4.519,0,0,0,3.588-4.415c-.008-1.116-.835-6.478-1.01-7.637a.938.938,0,0,0-1.05-.774.926.926,0,0,0-.774,1.05,0,0,0,0,0,0,0c.11.732,1,6.6.988,7.357a2.679,2.679,0,0,1-1.746,2.5V75.567a.921.921,0,0,0-1.843,0v2.519a2.675,2.675,0,0,1-1.745-2.5C89.1,74.214,91.734,58,91.8,57.579c.2,1.224.376,2.322.538,3.35a.922.922,0,0,0,1.821-.287c-.709-4.449-1.448-8.945-1.448-8.945a.924.924,0,0,0-1.832.085c-.653,3.992-3.562,21.709-3.586,23.806A4.519,4.519,0,0,0,90.879,80v4.6a7.346,7.346,0,0,1-7.338,7.338H82.386V31.993a2.58,2.58,0,0,0-2.573-2.573h-69.8a2.575,2.575,0,0,0-2.573,2.573V37a.92.92,0,1,0,1.839,0V31.993a.737.737,0,0,1,.733-.73h69.8a.734.734,0,0,1,.73.73V91.941H67.456a.921.921,0,0,0,0,1.843H80.543v5.731a.734.734,0,0,1-.73.73h-69.8a.737.737,0,0,1-.733-.73V44.373a.92.92,0,1,0-1.839,0Z" transform="translate(0 0)"/>
      <path id="Trazado_771587" data-name="Trazado 771587" d="M8.363,59.333a.921.921,0,1,0-.918-.921A.922.922,0,0,0,8.363,59.333Z" transform="translate(0 -17.724)"/>
      <path id="Trazado_771588" data-name="Trazado 771588" d="M51.709,89.814,57.2,96.945l-.168,9.318a4.918,4.918,0,0,0,6.587,4.708l8.6-3.116,8.6,3.116a4.918,4.918,0,0,0,6.587-4.707l-.168-9.318,5.495-7.131a4.915,4.915,0,0,0-2.386-7.676L81.5,79.291l-5.28-7.4a4.909,4.909,0,0,0-8,0l-5.279,7.4L54.1,82.138a4.917,4.917,0,0,0-2.386,7.676ZM63.8,80.952a.923.923,0,0,0,.468-.342l5.457-7.652a3.07,3.07,0,0,1,5,0l5.457,7.652a.923.923,0,0,0,.468.342l9.135,2.94a3.069,3.069,0,0,1,1.491,4.8l-5.692,7.386a.922.922,0,0,0-.191.579l.174,9.641a3.07,3.07,0,0,1-4.117,2.942l-8.91-3.23a.924.924,0,0,0-.628,0L63,109.238a3.069,3.069,0,0,1-4.117-2.942l.174-9.641a.923.923,0,0,0-.191-.579L53.169,88.69a3.07,3.07,0,0,1,1.491-4.8Z" transform="translate(-27.302 -25.512)"/>
    </g>
  </g>
</svg>
