<svg xmlns="http://www.w3.org/2000/svg" width="118.494" height="112.823" viewBox="0 0 118.494 112.823">
  <g id="Grupo_1054273" data-name="Grupo 1054273" transform="translate(-7171 10324)">
    <rect id="Rectángulo_338875" data-name="Rectángulo 338875" width="118.494" height="112.823" rx="10" transform="translate(7171 -10324)" fill="#9f0925"/>
    <g id="lavadoras" transform="translate(7188.886 -10308.949)">
      <g id="Grupo_1054331" data-name="Grupo 1054331" transform="translate(2.302 2.302)">
        <g id="Grupo_1054319" data-name="Grupo 1054319" transform="translate(59.89)">
          <path id="Trazado_771639" data-name="Trazado 771639" d="M61.02,3.3V17.624H48V3.3A1.306,1.306,0,0,1,49.3,2H59.718A1.306,1.306,0,0,1,61.02,3.3Z" transform="translate(-48 -2)" fill="#ecc19c"/>
        </g>
        <g id="Grupo_1054320" data-name="Grupo 1054320" transform="translate(26.039 10.416)">
          <path id="Trazado_771640" data-name="Trazado 771640" d="M48.039,10a2.612,2.612,0,0,1,2.6,2.6,2.623,2.623,0,0,1-2.6,2.6H24.6A2.612,2.612,0,0,1,22,12.6,2.623,2.623,0,0,1,24.6,10Z" transform="translate(-22 -10)" fill="#fcd770"/>
        </g>
        <g id="Grupo_1054321" data-name="Grupo 1054321" transform="translate(26.039)">
          <path id="Trazado_771641" data-name="Trazado 771641" d="M50.643,4.6V9.812a2.612,2.612,0,0,1-2.6,2.6H24.6a2.612,2.612,0,0,1-2.6-2.6V4.6A2.612,2.612,0,0,1,24.6,2H48.039A2.612,2.612,0,0,1,50.643,4.6Z" transform="translate(-22 -2)" fill="#ef7385"/>
        </g>
        <g id="Grupo_1054322" data-name="Grupo 1054322" transform="translate(20.831 15.624)">
          <path id="Trazado_771642" data-name="Trazado 771642" d="M75.286,16.6v7.812H18V16.6A2.612,2.612,0,0,1,20.6,14H72.682A2.612,2.612,0,0,1,75.286,16.6Z" transform="translate(-18 -14)" fill="#ccd1d9"/>
        </g>
        <g id="Grupo_1054323" data-name="Grupo 1054323" transform="translate(20.831 26.039)">
          <path id="Trazado_771643" data-name="Trazado 771643" d="M18,22V71.475a2.612,2.612,0,0,0,2.6,2.6H72.682a2.612,2.612,0,0,0,2.6-2.6V22Z" transform="translate(-18 -22)" fill="#e6e9ed"/>
        </g>
        <g id="Grupo_1054324" data-name="Grupo 1054324" transform="translate(33.851 49.475)">
          <path id="Trazado_771644" data-name="Trazado 771644" d="M30.6,40a13.019,13.019,0,0,0,4.739,10.051L34.887,56A18.354,18.354,0,0,1,28,49.387,18.122,18.122,0,0,0,30.6,40Z" transform="translate(-28 -40)" fill="#aab2bd"/>
        </g>
        <g id="Grupo_1054325" data-name="Grupo 1054325" transform="translate(33.851 31.247)">
          <path id="Trazado_771645" data-name="Trazado 771645" d="M61.851,44.227A18.163,18.163,0,0,1,56.435,57.2l-1.51-6.51a12.9,12.9,0,0,0,1.719-6.458,13.02,13.02,0,0,0-26.039,0A18.157,18.157,0,0,0,28,34.84a18.227,18.227,0,0,1,33.851,9.387Z" transform="translate(-28 -26)" fill="#aab2bd"/>
        </g>
        <g id="Grupo_1054326" data-name="Grupo 1054326" transform="translate(0.716 31.247)">
          <path id="Trazado_771646" data-name="Trazado 771646" d="M35.685,34.84a18.252,18.252,0,0,0-13.02-8.658,19.008,19.008,0,0,0-2.6-.182A18.227,18.227,0,0,0,2.55,39.163a1.3,1.3,0,0,1,.586-.143h2.6a1.306,1.306,0,0,1,1.3,1.3v7.812a1.306,1.306,0,0,1-1.3,1.3h-2.6a1.3,1.3,0,0,1-.586-.143A18.227,18.227,0,0,0,20.061,62.455a19.009,19.009,0,0,0,2.6-.182A18.23,18.23,0,0,0,35.685,34.84Z" transform="translate(-2.55 -26)" fill="#aab2bd"/>
        </g>
        <g id="Grupo_1054327" data-name="Grupo 1054327" transform="translate(0 44.267)">
          <path id="Trazado_771647" data-name="Trazado 771647" d="M5.906,36a1.306,1.306,0,0,1,1.3,1.3v7.812a1.306,1.306,0,0,1-1.3,1.3H3.3a1.3,1.3,0,0,1-.586-.143A1.281,1.281,0,0,1,2,45.114V37.3a1.281,1.281,0,0,1,.716-1.159A1.3,1.3,0,0,1,3.3,36Z" transform="translate(-2 -36)" fill="#969faa"/>
        </g>
        <g id="Grupo_1054328" data-name="Grupo 1054328" transform="translate(5.46 36.833)">
          <ellipse id="Elipse_8070" data-name="Elipse 8070" cx="13.183" cy="12.712" rx="13.183" ry="12.712" transform="translate(0 0)" fill="#69d6f4"/>
        </g>
        <g id="Grupo_1054329" data-name="Grupo 1054329" transform="translate(36.455 36.455)">
          <path id="Trazado_771648" data-name="Trazado 771648" d="M56.039,43.02a12.9,12.9,0,0,1-1.719,6.458l-.456-1.966a4.084,4.084,0,0,0-4.01-3.19,8.078,8.078,0,0,0-3.125.638l-3.971,1.706L41.34,45.246a3.143,3.143,0,0,0-4.453,0A6.443,6.443,0,0,0,35.026,49.3l-.286,3.776a13.021,13.021,0,1,1,21.3-10.051Z" transform="translate(-30 -30)" fill="#69d6f4"/>
        </g>
        <g id="Grupo_1054330" data-name="Grupo 1054330" transform="translate(40.361 50.777)">
          <path id="Trazado_771649" data-name="Trazado 771649" d="M48.624,60.529l-3.4,2.265a2,2,0,0,1-3.112-1.667v-.6a8.091,8.091,0,0,0-8.1-.508L33,60.529l.378-4.83.456-5.95.286-3.776a6.443,6.443,0,0,1,1.862-4.049,3.143,3.143,0,0,1,4.453,0l1.419,1.419,3.971-1.706A8.078,8.078,0,0,1,48.949,41a4.084,4.084,0,0,1,4.01,3.19l.456,1.966,1.51,6.51,1.432,6.21a3.232,3.232,0,0,1,.078.7A3.137,3.137,0,0,1,54.3,62.547l-1.263.417a3.2,3.2,0,0,1-1.055.169A3.342,3.342,0,0,1,49,61.285Z" transform="translate(-33 -41)" fill="#ef7385"/>
        </g>
      </g>
      <g id="Grupo_1054332" data-name="Grupo 1054332" transform="translate(1 1)">
        <path id="Trazado_771650" data-name="Trazado 771650" d="M77.816,16.624h-1.3V3.6A2.607,2.607,0,0,0,73.91,1H63.494a2.607,2.607,0,0,0-2.6,2.6v13.02H58.047a3.786,3.786,0,0,0-.776-3.906,3.881,3.881,0,0,0,1.016-2.6V4.906A3.911,3.911,0,0,0,54.38,1H30.945a3.911,3.911,0,0,0-3.906,3.906v5.208a3.881,3.881,0,0,0,1.016,2.6,3.786,3.786,0,0,0-.776,3.906H25.737a3.911,3.911,0,0,0-3.906,3.906V32.314c-.432-.029-.862-.066-1.3-.066A19.613,19.613,0,0,0,1.911,45.907,2.592,2.592,0,0,0,1,47.871v7.812a2.587,2.587,0,0,0,.913,1.963,19.611,19.611,0,0,0,18.617,13.66c.44,0,.87-.038,1.3-.066v6.576a3.911,3.911,0,0,0,3.906,3.906H77.816a3.911,3.911,0,0,0,3.906-3.906V20.529a3.911,3.911,0,0,0-3.906-3.906ZM63.494,3.6H73.91v13.02H71.845L67.019,11.8l-1.841,1.841,2.985,2.985H63.494Zm-33.851,1.3a1.3,1.3,0,0,1,1.3-1.3H54.38a1.3,1.3,0,0,1,1.3,1.3v5.208a1.3,1.3,0,0,1-1.3,1.3H30.945a1.3,1.3,0,0,1-1.3-1.3Zm0,10.416a1.3,1.3,0,0,1,1.3-1.3H54.38a1.3,1.3,0,0,1,0,2.6H30.945A1.3,1.3,0,0,1,29.643,15.322Zm-3.906,3.906H77.816a1.3,1.3,0,0,1,1.3,1.3v6.51H24.435v-6.51A1.3,1.3,0,0,1,25.737,19.227ZM6.209,51.8v3.881H3.6V47.871h2.6v3.881c0,.008,0,.017,0,.025s0,.017,0,.025ZM4.916,58.286H6.208a2.568,2.568,0,0,0,1.384-.408,14.322,14.322,0,1,0,0-12.2,2.568,2.568,0,0,0-1.384-.408H4.916a16.926,16.926,0,1,1,0,13.02ZM20.529,40.059A11.718,11.718,0,1,1,8.812,51.777,11.73,11.73,0,0,1,20.529,40.059ZM59.554,72.233,58.279,60.747l-2.588.288L56.9,71.965l-2.743,1.829a.721.721,0,0,1-1.083-.581V58.286h-2.6V70.508a9.4,9.4,0,0,0-6.343-.013l.949-12.339a5.138,5.138,0,0,1,1.489-3.237,1.889,1.889,0,0,1,2.6,0l.064.064-1.877.8,1.025,2.393L56,54.918a6.593,6.593,0,0,1,2.617-.538,2.819,2.819,0,0,1,2.743,2.182l3.39,14.691a1.859,1.859,0,0,1,.046.406,1.816,1.816,0,0,1-1.243,1.725l-1.262.419a2.063,2.063,0,0,1-2.461-1.022ZM63.19,54.345a5.394,5.394,0,0,0-2.148-2,5.465,5.465,0,0,0-2.424-.572,9.19,9.19,0,0,0-3.645.749l-3.157,1.353-.8-.8a4.553,4.553,0,0,0-6.286,0,7.754,7.754,0,0,0-2.245,4.877l-.066.862A11.745,11.745,0,1,1,63.19,54.345Zm-21.044,8L41.9,65.514A17,17,0,0,1,37.687,61.1a19.433,19.433,0,0,0,1.28-2.939A14.3,14.3,0,0,0,42.146,62.348Zm22.308-3.958A14.3,14.3,0,1,0,38.97,45.4a19.344,19.344,0,0,0-1.285-2.95,16.776,16.776,0,0,1,14.091-7.6A16.945,16.945,0,0,1,68.7,51.777a16.764,16.764,0,0,1-3.425,10.18ZM77.816,79.118H25.737a1.3,1.3,0,0,1-1.3-1.3v-6.9a19.54,19.54,0,0,0,11.718-7.468,19.56,19.56,0,0,0,5.523,5.006L41.188,74.8l3.067-1.536a6.789,6.789,0,0,1,6.234.1,3.291,3.291,0,0,0,5.117,2.592l2.209-1.474a4.634,4.634,0,0,0,5.3,1.789l1.259-.419a4.421,4.421,0,0,0,2.91-5.188l-1.281-5.549a19.352,19.352,0,0,0,5.3-13.341A19.524,19.524,0,0,0,36.139,40.089a19.543,19.543,0,0,0-11.7-7.449v-3H79.118V77.816a1.3,1.3,0,0,1-1.3,1.3Z" transform="translate(-1 -1)"/>
        <path id="Trazado_771651" data-name="Trazado 771651" d="M28,5H44.926V7.6H28Z" transform="translate(7.153 0.208)"/>
        <path id="Trazado_771652" data-name="Trazado 771652" d="M0,0H2.6V9.206H0Z" transform="translate(64.17 6.135) rotate(-45)"/>
        <path id="Trazado_771653" data-name="Trazado 771653" d="M23,17h2.6v2.6H23Z" transform="translate(5.643 3.831)"/>
        <path id="Trazado_771654" data-name="Trazado 771654" d="M27,17h2.6v2.6H27Z" transform="translate(6.851 3.831)"/>
        <path id="Trazado_771655" data-name="Trazado 771655" d="M31,17h2.6v2.6H31Z" transform="translate(8.059 3.831)"/>
        <path id="Trazado_771656" data-name="Trazado 771656" d="M39,17h7.812v2.6H39Z" transform="translate(10.475 3.831)"/>
        <path id="Trazado_771657" data-name="Trazado 771657" d="M47,17H57.416v2.6H47Z" transform="translate(12.89 3.831)"/>
      </g>
    </g>
  </g>
</svg>
