<svg id="Grupo_58664" data-name="Grupo 58664" xmlns="http://www.w3.org/2000/svg" width="400" height="368.425" viewBox="0 0 400 368.425">
  <g id="Grupo_58661" data-name="Grupo 58661" transform="translate(357.556 315.957)">
    <g id="Grupo_57452" data-name="Grupo 57452" transform="translate(0)">
      <g id="Grupo_57449" data-name="Grupo 57449">
        <path id="Trazado_101675" data-name="Trazado 101675" d="M385.795,428.641H361.821a.981.981,0,1,1,0-1.962h23.974a.981.981,0,1,1,0,1.962Z" transform="translate(-360.839 -426.679)" fill="#124c64"/>
      </g>
      <g id="Grupo_57450" data-name="Grupo 57450" transform="translate(27.572)">
        <path id="Trazado_101676" data-name="Trazado 101676" d="M363.166,428.641h-5.993a.981.981,0,1,1,0-1.962h5.993a.981.981,0,0,1,0,1.962Z" transform="translate(-356.191 -426.679)" fill="#124c64"/>
      </g>
      <g id="Grupo_57451" data-name="Grupo 57451" transform="translate(36.962)">
        <path id="Trazado_101677" data-name="Trazado 101677" d="M357.223,428.641h-3.3a.981.981,0,0,1,0-1.962h3.3a.981.981,0,1,1,0,1.962Z" transform="translate(-352.946 -426.679)" fill="#124c64"/>
      </g>
    </g>
  </g>
  <g id="Grupo_58663" data-name="Grupo 58663" transform="translate(48.054 26.968)">
    <g id="Grupo_57455" data-name="Grupo 57455" transform="translate(26.56 7.872)">
      <path id="Trazado_101680" data-name="Trazado 101680" d="M542.066,366.8a6.5,6.5,0,1,0-6.5,6.5A6.506,6.506,0,0,0,542.066,366.8Zm-1.96,0a4.54,4.54,0,1,1-4.541-4.539A4.545,4.545,0,0,1,540.106,366.8Z" transform="translate(-529.067 -360.299)" fill="#124c64"/>
    </g>
    <g id="Grupo_57464" data-name="Grupo 57464">
      <g id="Grupo_57462" data-name="Grupo 57462">
        <path id="Trazado_101685" data-name="Trazado 101685" d="M550.814,363.375a.971.971,0,0,1-.693-.287l-4.933-4.932a.98.98,0,0,1,1.386-1.386l4.933,4.933a.98.98,0,0,1-.693,1.673Z" transform="translate(-544.902 -356.483)" fill="#124c64"/>
      </g>
      <g id="Grupo_57463" data-name="Grupo 57463">
        <path id="Trazado_101686" data-name="Trazado 101686" d="M545.882,363.375a.98.98,0,0,1-.693-1.673l4.933-4.933a.981.981,0,1,1,1.386,1.388l-4.933,4.93A.971.971,0,0,1,545.882,363.375Z" transform="translate(-544.902 -356.483)" fill="#124c64"/>
      </g>
    </g>
  </g>
  <g id="Grupo_57582" data-name="Grupo 57582" transform="translate(36.761 4.86)">
    <path id="Trazado_101784" data-name="Trazado 101784" d="M280.621,337.451c-4.99-29.094,7.216-58.425,29.1-77.214,29.075-24.963,71.824-31.668,102.973-54.324a108.819,108.819,0,0,0,42.549-65.833c2.623-12.784,3.055-26.378,8.905-37.939C469.328,91.9,478.5,84,489,78.63c30.9-15.807,74.375-8.462,100.89,17.05,14.2,13.657,23.351,31.329,29.292,49.33,12.272,37.19,11.567,77.246-1.97,112.114-7.557,19.459-18.916,37.185-31.72,53.691-27.9,35.97-63.52,66.966-106.634,85.582-51.61,22.284-125.634,31.867-172.888-12.864C292.741,371.011,283.547,354.507,280.621,337.451Z" transform="translate(-279.511 -70.326)" fill="#fee7dd"/>
    <path id="Trazado_101785" data-name="Trazado 101785" d="M43.565,2.153c3.968.506,8.7,1.714,10.18,5.32a6.811,6.811,0,0,1,.193,4.185c-1.573,6.531-9,9.72-15.9,11.1a76.774,76.774,0,0,1-19.765,1.319A29.449,29.449,0,0,1,8.2,22.026C5.013,20.635,2.133,18.171.99,15.04-6.7-6.029,32.567.747,43.565,2.153Z" transform="matrix(-0.891, 0.454, -0.454, -0.891, 67.155, 158.775)" fill="#ffcd91"/>
  </g>
  <g id="Grupo_58660" data-name="Grupo 58660" transform="translate(0 128.819)">
    <g id="Grupo_55823" data-name="Grupo 55823">
      <g id="Grupo_55803" data-name="Grupo 55803" transform="translate(154.717 93.088)">
        <g id="Grupo_55792" data-name="Grupo 55792">
          <path id="Trazado_100810" data-name="Trazado 100810" d="M-91.572,897.611c8.711,0,23.308-1.413,30.852-10.054,4.518-5.178,5.886-12.228,4.064-20.953-2.549-12.188,1.854-15.754,7.95-20.687,1.709-1.383,3.477-2.815,5.267-4.572,8.606-8.434,7.366-12.8,4.887-21.484-1.106-3.891.649-5.154,3.3-7.064,2.917-2.1,6.55-4.712,7.716-11.769,1.141-6.927-.444-13.332-4.459-18.039-3.867-4.529-9.707-7.016-16.465-7.016h-.137c-10.167.048-12,7.465-13.469,13.421-.705,2.866-1.375,5.571-2.8,7.247-1.625,1.911-3.63,2.463-5.756,3.044-3.725,1.022-7.952,2.182-11.058,10.676A36.554,36.554,0,0,0-83.585,824.6c.1,5.242.161,8.706-4.8,11.472a31.056,31.056,0,0,0-5.251,3.829l.815.926a29.718,29.718,0,0,1,5.038-3.674c5.611-3.127,5.53-7.3,5.433-12.576-.075-3.913-.156-8.348,1.833-13.8,2.89-7.9,6.618-8.919,10.226-9.909,2.209-.605,4.5-1.232,6.37-3.434,1.612-1.9,2.314-4.742,3.057-7.753,1.51-6.114,3.071-12.436,12.274-12.481h.132c6.389,0,11.9,2.333,15.525,6.585,3.776,4.424,5.259,10.471,4.177,17.03s-4.481,9-7.218,10.969-5.113,3.679-3.768,8.407c2.414,8.475,3.515,12.342-4.564,20.262-1.749,1.714-3.493,3.127-5.183,4.494-6.192,5.014-11.082,8.975-8.38,21.9,1.739,8.327.468,15.016-3.784,19.89-9.1,10.431-29.215,9.869-35.158,9.454l-.086,1.232C-95.652,897.52-93.806,897.611-91.572,897.611Z" transform="translate(96.895 -775.973)" fill="#124c64"/>
        </g>
        <g id="Grupo_55797" data-name="Grupo 55797" transform="translate(15.353 28.017)">
          <g id="Grupo_55794" data-name="Grupo 55794">
            <g id="Grupo_55793" data-name="Grupo 55793">
              <path id="Trazado_100811" data-name="Trazado 100811" d="M-88.576,843.594q10.637-21.633,22.469-42.644,4-7.125,8.141-14.172a.818.818,0,0,1,1.41.826q-13.265,22.626-25.195,46-2.745,5.385-5.412,10.813c-.463.945-1.876.119-1.413-.823Z" transform="translate(88.668 -786.384)" fill="#124c64"/>
            </g>
          </g>
          <g id="Grupo_55796" data-name="Grupo 55796" transform="translate(15.014 25.546)">
            <g id="Grupo_55795" data-name="Grupo 55795">
              <path id="Trazado_100812" data-name="Trazado 100812" d="M-68.926,797.518l-18.284,1.895-2.632.275c-1.044.108-1.039-1.529,0-1.636l18.284-1.895,2.632-.275c1.044-.108,1.036,1.529,0,1.636Z" transform="translate(90.623 -795.876)" fill="#124c64"/>
            </g>
          </g>
        </g>
        <g id="Grupo_55802" data-name="Grupo 55802" transform="translate(24.358 9.863)">
          <g id="Grupo_55798" data-name="Grupo 55798" transform="translate(19.78 31.395)">
            <path id="Trazado_100813" data-name="Trazado 100813" d="M-86.419,798.024a3.6,3.6,0,0,0,3.781-3.361,3.594,3.594,0,0,0-3.781-3.359,3.592,3.592,0,0,0-3.778,3.359A3.592,3.592,0,0,0-86.419,798.024Zm0-5.482a2.366,2.366,0,0,1,2.546,2.121,2.367,2.367,0,0,1-2.546,2.123,2.365,2.365,0,0,1-2.543-2.123A2.363,2.363,0,0,1-86.419,792.542Z" transform="translate(90.197 -791.304)" fill="#124c64"/>
          </g>
          <g id="Grupo_55799" data-name="Grupo 55799" transform="translate(12.31 4.756)">
            <path id="Trazado_100814" data-name="Trazado 100814" d="M-83.637,788.966a3.761,3.761,0,0,0,1.884-.5,3.766,3.766,0,0,0,1.76-2.3,3.74,3.74,0,0,0-.377-2.869,3.758,3.758,0,0,0-2.3-1.763,3.757,3.757,0,0,0-2.866.377,3.788,3.788,0,0,0-1.386,5.167h0A3.782,3.782,0,0,0-83.637,788.966Zm-.011-6.324a2.555,2.555,0,0,1,.665.089,2.525,2.525,0,0,1,1.542,1.187,2.515,2.515,0,0,1,.256,1.927,2.53,2.53,0,0,1-1.184,1.547,2.548,2.548,0,0,1-3.477-.931h0a2.551,2.551,0,0,1,.931-3.477A2.53,2.53,0,0,1-83.647,782.642Z" transform="translate(87.422 -781.405)" fill="#124c64"/>
          </g>
          <g id="Grupo_55800" data-name="Grupo 55800" transform="translate(0 77.84)">
            <path id="Trazado_100815" data-name="Trazado 100815" d="M-78.867,816.628a4.323,4.323,0,0,0,4.559-4.031,4.325,4.325,0,0,0-4.559-4.034,4.327,4.327,0,0,0-4.559,4.034A4.325,4.325,0,0,0-78.867,816.628Zm0-6.83a3.1,3.1,0,0,1,3.324,2.8,3.1,3.1,0,0,1-3.324,2.794,3.093,3.093,0,0,1-3.321-2.794A3.1,3.1,0,0,1-78.867,809.8Z" transform="translate(83.426 -808.562)" fill="#124c64"/>
          </g>
          <g id="Grupo_55801" data-name="Grupo 55801" transform="translate(18.375)">
            <path id="Trazado_100816" data-name="Trazado 100816" d="M-86.346,783.683a2.026,2.026,0,0,0,2.024-2.021,2.027,2.027,0,0,0-2.024-2.024,2.027,2.027,0,0,0-2.024,2.024A2.026,2.026,0,0,0-86.346,783.683Zm0-2.81a.786.786,0,0,1,.786.789.785.785,0,0,1-.786.786.787.787,0,0,1-.786-.786A.788.788,0,0,1-86.346,780.873Z" transform="translate(88.37 -779.638)" fill="#124c64"/>
          </g>
        </g>
      </g>
      <g id="Grupo_55807" data-name="Grupo 55807" transform="translate(0 103.824)">
        <g id="Grupo_55804" data-name="Grupo 55804">
          <path id="Trazado_100817" data-name="Trazado 100817" d="M27.526,890.512c9.54,0,18.055-.969,20.878-2.982,4.007-2.855,5.727-12.11,3.913-21.069-1.319-6.507-6.575-22.135-26.885-26.672-12.065-2.694-13.109-7.842-14.554-14.968A60.268,60.268,0,0,0,9.35,818.5c-3.364-10.73-7.856-11.416-16.809-12.783-4.031-.616-4.578-3.541-5.334-7.591-.786-4.214-1.765-9.462-7.463-13.251-6.83-4.535-14.468-6.052-20.421-4.034-5.129,1.736-8.989,5.988-11.158,12.3-3.31,9.618,2.242,15.485,6.7,20.2,1.835,1.938,3.569,3.77,4.322,5.533.893,2.094.5,4.486.046,7.259-.778,4.734-1.747,10.627,4.405,16.744,4.532,4.505,9.145,5.294,12.853,5.926,3.986.678,6.392,1.087,6.451,5.8.129,10.73,4.8,28.344,14.4,32.076C3.814,889.188,16.372,890.509,27.526,890.512ZM-35.084,781.2a26.142,26.142,0,0,1,14.142,4.7c5.264,3.5,6.152,8.254,6.935,12.449.751,4.031,1.461,7.842,6.359,8.588,8.711,1.329,12.684,1.938,15.821,11.935a59.725,59.725,0,0,1,1.5,6.192c1.477,7.3,2.645,13.06,15.493,15.932,19.6,4.376,24.673,19.438,25.943,25.711,1.9,9.379-.3,17.59-3.42,19.818h0c-5.773,4.115-38.414,3.461-49.9-1.009-9.395-3.649-13.5-21.949-13.609-30.935-.073-5.74-3.5-6.327-7.479-7-3.534-.605-7.934-1.354-12.188-5.584-5.7-5.668-4.828-10.983-4.058-15.671.468-2.836.907-5.514-.132-7.944-.84-1.965-2.645-3.873-4.556-5.894-4.454-4.7-9.5-10.038-6.432-18.948,2.072-6.02,5.565-9.9,10.385-11.529A16.194,16.194,0,0,1-35.084,781.2Z" transform="translate(52.839 -779.962)" fill="#124c64"/>
        </g>
        <g id="Grupo_55806" data-name="Grupo 55806" transform="translate(25.537 28.865)">
          <g id="Grupo_55805" data-name="Grupo 55805">
            <path id="Trazado_100818" data-name="Trazado 100818" d="M17.223,872.79c-4.19-5-8.544-9.874-12.748-14.868q-15.663-18.63-30.6-37.851-10.847-13.947-21.287-28.2c-.622-.85.8-1.666,1.413-.826q17.548,23.995,36.274,47.1Q1.926,852.542,14,866.6c1.453,1.685,2.95,3.332,4.379,5.038.67.8-.479,1.962-1.157,1.154Z" transform="translate(47.565 -790.688)" fill="#124c64"/>
          </g>
        </g>
      </g>
      <g id="Grupo_55822" data-name="Grupo 55822" transform="translate(34.698)">
        <g id="Grupo_55808" data-name="Grupo 55808">
          <path id="Trazado_100819" data-name="Trazado 100819" d="M-14.709,956.074l57.629-.988.178-.172c7.681-7.481,24.256-26.96,12.266-46.186-6.141-9.85-13.017-13.956-18.545-17.258-8.084-4.828-12.963-7.745-9.6-24.086l.7-3.377c5.452-26.231,8.456-40.682-19.212-52.306-20.641-8.671-20.082-16.858-19.376-27.221a52.87,52.87,0,0,0-.113-11.8A36.288,36.288,0,0,0-28.116,747.1c-10.326-6.287-22.765-7.436-35.028-3.235-6.8,2.333-11.532,8.784-13.308,18.168-2.761,14.589,2.1,33.023,10.614,40.257,5.821,4.944,3.254,9.559-.3,15.943-4.333,7.786-9.723,17.474-3.326,32.429,5.934,13.87,16.467,18.432,24.928,22.1,8.644,3.744,14.885,6.448,13.878,16.621-.307,3.133-.754,6.362-1.222,9.78-.3,2.234-.619,4.5-.9,6.793l1.224.148c.28-2.279.589-4.542.9-6.771.471-3.431.915-6.671,1.23-9.828,1.093-11.069-6.187-14.225-14.618-17.878-8.693-3.765-18.545-8.033-24.285-21.454-6.16-14.392-.931-23.79,3.272-31.336,3.55-6.378,6.612-11.887.022-17.484-8.219-6.986-12.891-24.885-10.2-39.089,1.195-6.314,4.333-14.43,12.5-17.229,11.9-4.08,23.973-2.969,33.984,3.122A35.065,35.065,0,0,1-12,772.854a52.263,52.263,0,0,1,.1,11.542c-.71,10.426-1.324,19.43,20.13,28.443,26.731,11.23,23.973,24.495,18.48,50.914l-.7,3.38c-3.539,17.2,2.212,20.639,10.178,25.4,5.412,3.235,12.145,7.255,18.13,16.852C65.742,927.7,49.95,946.462,42.409,953.86l-57.136.979Z" transform="translate(77.228 -741.383)" fill="#124c64"/>
        </g>
        <g id="Grupo_55818" data-name="Grupo 55818" transform="translate(16.652 20.375)">
          <g id="Grupo_55810" data-name="Grupo 55810" transform="translate(5.16)">
            <g id="Grupo_55809" data-name="Grupo 55809">
              <path id="Trazado_100820" data-name="Trazado 100820" d="M19.242,941.667q-3.5-8.073-7.016-16.133-8.659-19.869-17.38-39.711-11.117-25.3-22.366-50.538-10.9-24.419-22.03-48.729c-5.226-11.344-10.431-22.724-16.161-33.825-.439-.85-.883-1.7-1.335-2.543-.5-.928.912-1.755,1.41-.826,5.482,10.232,10.3,20.835,15.181,31.36,7.317,15.781,14.465,31.643,21.567,47.521Q-17.5,853.693-6.281,879.221q9.188,20.874,18.3,41.78c2.842,6.513,5.84,12.985,8.515,19.568.038.092.078.183.118.271.412.956-1,1.79-1.413.826Z" transform="translate(67.15 -748.954)" fill="#124c64"/>
            </g>
          </g>
          <g id="Grupo_55815" data-name="Grupo 55815" transform="translate(0 69.469)">
            <g id="Grupo_55812" data-name="Grupo 55812">
              <g id="Grupo_55811" data-name="Grupo 55811">
                <path id="Trazado_100821" data-name="Trazado 100821" d="M-8.2,778.531l-33.68-1.862-4.793-.266c-1.047-.057-1.052-1.693,0-1.634q16.841.933,33.68,1.862l4.793.266c1.047.057,1.052,1.693,0,1.634Z" transform="translate(47.458 -774.767)" fill="#124c64"/>
              </g>
            </g>
            <g id="Grupo_55814" data-name="Grupo 55814" transform="translate(46.984 86.339)">
              <g id="Grupo_55813" data-name="Grupo 55813">
                <path id="Trazado_100822" data-name="Trazado 100822" d="M-30.768,811.9l-26.616-3-3.727-.417c-1.033-.118-1.047-1.755,0-1.636l26.616,3q1.865.206,3.727.417c1.033.119,1.047,1.755,0,1.636Z" transform="translate(61.891 -806.85)" fill="#124c64"/>
              </g>
            </g>
          </g>
          <g id="Grupo_55817" data-name="Grupo 55817" transform="translate(57.613 63.395)">
            <g id="Grupo_55816" data-name="Grupo 55816">
              <path id="Trazado_100823" data-name="Trazado 100823" d="M-38.873,773.76q-3.823,8.587-7.648,17.173-6.071,13.628-12.143,27.253-1.4,3.161-2.815,6.319c-.425.961-1.835.129-1.41-.826q3.823-8.587,7.651-17.17,6.067-13.628,12.14-27.254l2.815-6.319c.428-.961,1.835-.129,1.41.823Z" transform="translate(62.968 -772.51)" fill="#124c64"/>
            </g>
          </g>
        </g>
        <g id="Grupo_55819" data-name="Grupo 55819" transform="translate(40.96 17.779)">
          <path id="Trazado_100824" data-name="Trazado 100824" d="M-38.934,760.567a4.528,4.528,0,0,0,2.57-.773c2.438-1.661,2.737-5.484.667-8.526a7.567,7.567,0,0,0-3.875-3,4.874,4.874,0,0,0-4.3.493,4.862,4.862,0,0,0-2.035,3.819,7.587,7.587,0,0,0,1.37,4.707h0a7.578,7.578,0,0,0,3.875,3A5.644,5.644,0,0,0-38.934,760.567Zm-2.36-11.344a4.4,4.4,0,0,1,1.346.223,6.294,6.294,0,0,1,3.229,2.516c1.687,2.479,1.534,5.533-.339,6.809a3.64,3.64,0,0,1-3.227.336,6.342,6.342,0,0,1-3.229-2.516h0a6.338,6.338,0,0,1-1.16-3.932,3.643,3.643,0,0,1,1.5-2.876A3.291,3.291,0,0,1-41.294,749.224Z" transform="translate(45.92 -747.989)" fill="#124c64"/>
        </g>
        <g id="Grupo_55820" data-name="Grupo 55820" transform="translate(40.855 38.409)">
          <path id="Trazado_100825" data-name="Trazado 100825" d="M-40.732,762.181a3.266,3.266,0,0,0,3.262-3.262,3.269,3.269,0,0,0-3.262-3.264A3.271,3.271,0,0,0-44,758.919,3.269,3.269,0,0,0-40.732,762.181Zm0-5.288a2.027,2.027,0,0,1,2.024,2.026,2.025,2.025,0,0,1-2.024,2.026,2.03,2.03,0,0,1-2.029-2.026A2.032,2.032,0,0,1-40.732,756.893Z" transform="translate(43.996 -755.655)" fill="#124c64"/>
        </g>
        <g id="Grupo_55821" data-name="Grupo 55821" transform="translate(21.675 104.141)">
          <path id="Trazado_100826" data-name="Trazado 100826" d="M-32.964,791.6a5.765,5.765,0,0,0,5.756-5.759,5.764,5.764,0,0,0-5.756-5.756,5.765,5.765,0,0,0-5.759,5.756A5.766,5.766,0,0,0-32.964,791.6Zm0-10.28a4.527,4.527,0,0,1,4.521,4.521,4.528,4.528,0,0,1-4.521,4.524,4.527,4.527,0,0,1-4.521-4.524A4.526,4.526,0,0,1-32.964,781.315Z" transform="translate(38.723 -780.08)" fill="#124c64"/>
        </g>
      </g>
    </g>
  </g>
  <g id="Grupo_58658" data-name="Grupo 58658" transform="translate(33.251 16.537)">
    <g id="Grupo_58542" data-name="Grupo 58542" transform="translate(0 312.19)">
      <path id="Trazado_736991" data-name="Trazado 736991" d="M168.548,0C261.634,0,337.1,8.887,337.1,19.849S261.634,39.7,168.548,39.7,0,30.811,0,19.849,75.461,0,168.548,0Z" transform="translate(0 0)" fill="#f5e6e9"/>
    </g>
    <g id="Grupo_58655" data-name="Grupo 58655" transform="translate(49.165 0)">
      <g id="Grupo_58625" data-name="Grupo 58625" transform="translate(110.894 63.78)">
        <g id="Grupo_58616" data-name="Grupo 58616" transform="translate(7.029 2.983)">
          <path id="Trazado_102400" data-name="Trazado 102400" d="M1208.131,480.258h151.43a3.42,3.42,0,0,0,3.43-3.4v-23.37a3.42,3.42,0,0,0-3.43-3.4h-151.43a3.42,3.42,0,0,0-3.43,3.4v23.37A3.42,3.42,0,0,0,1208.131,480.258Zm151.43-29.847a3.094,3.094,0,0,1,3.1,3.077v23.37a3.1,3.1,0,0,1-3.1,3.077h-151.43a3.1,3.1,0,0,1-3.1-3.077v-23.37a3.094,3.094,0,0,1,3.1-3.077Z" transform="translate(-1204.701 -450.087)" fill="#12263f"/>
        </g>
        <g id="Grupo_58620" data-name="Grupo 58620" transform="translate(87.591)">
          <path id="Trazado_102401" data-name="Trazado 102401" d="M1205.2,498.884a16.067,16.067,0,0,0,4.363,3.191,36.451,36.451,0,0,0,7.114,2.769l.1.025s0,.032-.009.1c0,.135-.02.41-.037.8l-.007.1c-.073,1.451-.21,4.383-.351,8.169-.2,5.485-2.716,26.426-2.716,26.426a48.228,48.228,0,0,0,9.26,0c4.931-.5,17.814.2,25.464-1.5a37.968,37.968,0,0,1,7.552-.751,76.165,76.165,0,0,1,11.068.751,39.838,39.838,0,0,0,.8-7.478,85.571,85.571,0,0,0-1.309-13.463c-.285-1.7-.57-6.878-.711-9.729-.048-.919-.078-1.6-.089-1.84,0-.064,0-.1,0-.1l.1-.08,1.01-.819s6.945-1.594,9.661-3.788,5.334-4.589,5.334-4.589-.248-.661-.684-1.795c-2.235-5.864-9.371-24.392-12.254-29.854-.046-.087-.089-.171-.135-.251-.153-.278-.289-.518-.413-.709-1.893-2.944-5.914-5.848-9.148-7.827-.675-.42-1.321-.789-1.9-1.118-.778-.433-1.446-.784-1.937-1.029a23.034,23.034,0,0,1-12.683,4.288c-7.75.3-11.875-3.788-11.875-3.788s-.91.4-2.189,1.076c-.495.262-1.047.57-1.624.905v0a30.352,30.352,0,0,0-3.031,2c-3.02,2.292-6.14,6.183-9.36,14.359-2.468,6.263-6.646,17.912-8.47,23.021C1205.532,497.936,1205.2,498.884,1205.2,498.884Z" transform="translate(-1205.199 -441.443)" fill="#2ab9c4"/>
          <path id="Trazado_102402" data-name="Trazado 102402" d="M1215.123,456.988v0c.7,3.526,2.3,9.668,5.323,13.826,4.026,5.544,14.494,5.528,20.13,1.341,4.952-3.679,6.408-11.825,6.755-15.506-.675-.42-1.321-.789-1.9-1.118-.777-.433-1.446-.784-1.936-1.029a23.034,23.034,0,0,1-12.683,4.288c-7.75.3-11.875-3.788-11.875-3.788s-.91.4-2.189,1.076C1216.252,456.345,1215.7,456.653,1215.123,456.988Z" transform="translate(-1193.372 -441.443)" fill="#95f7ff"/>
          <path id="Trazado_102403" data-name="Trazado 102403" d="M1215.956,456.083c.773,3.2,2.375,8.772,4.6,11.189,3.22,3.489,11.878,5.287,17.009,1.2,4.641-3.7,6.407-9.437,7.07-12.934-.778-.433-1.446-.784-1.937-1.029a22.4,22.4,0,0,1-9.594,3.962,23.052,23.052,0,0,1-3.088.326,19.756,19.756,0,0,1-3.22-.13,15.637,15.637,0,0,1-8.655-3.658S1217.236,455.408,1215.956,456.083Z" transform="translate(-1192.582 -441.443)" fill="#21949d"/>
          <path id="Trazado_102404" data-name="Trazado 102404" d="M1205.2,481.268l.1,2.194,1.108-.9s6.945-1.594,9.661-3.788,5.334-4.589,5.334-4.589-.248-.661-.684-1.795a33.96,33.96,0,0,1-8.876,5.485C1207.614,479.671,1207.714,480.57,1205.2,481.268Z" transform="translate(-1144.811 -418.54)" fill="#95f7ff"/>
          <path id="Trazado_102405" data-name="Trazado 102405" d="M1245.193,481.358l.2-2.892a21.348,21.348,0,0,1-10.886-5.6c-.557,1.56-.89,2.509-.89,2.509C1237.243,479.363,1245.193,481.358,1245.193,481.358Z" transform="translate(-1233.619 -417.933)" fill="#95f7ff"/>
          <path id="Trazado_102406" data-name="Trazado 102406" d="M1225.547,488.5a19.733,19.733,0,0,0,.632,4.03c1.006,3.59,1.41,6.682,2.516,6.682s8.053.5,10.669,0,4.931-.5,4.73-2c-.144-1.065-.7-7.595-1-11.264-.121-1.48-.205-2.5-.205-2.5s-10.669,2.593-17.313,1.1A28.727,28.727,0,0,0,1225.547,488.5Z" transform="translate(-1213.799 -404.372)" fill="#31d9e7"/>
          <path id="Trazado_102407" data-name="Trazado 102407" d="M1220.515,460.554h0l5.077-3.307h4.144c-.069-.472-.881-6.468.511-8.058a1.123,1.123,0,0,1,.866-.411,1.876,1.876,0,0,1,1.442.6c.976,1.063.792,3.143.782,3.229a.173.173,0,0,1-.194.16.176.176,0,0,1-.16-.192c0-.021.178-2.012-.693-2.96a1.512,1.512,0,0,0-1.177-.488.756.756,0,0,0-.595.29c-1.314,1.5-.436,7.738-.427,7.8l0,.023h5.656l5.473,3.656c.646.276,3.421,1.968,3.421,1.968l-.582,2.465-3.535-1.722h-19.917l-4.028,2.18-.623-2.377Z" transform="translate(-1192.582 -448.779)" fill="#12263f"/>
          <path id="Trazado_102408" data-name="Trazado 102408" d="M1225.991,488.5a40.622,40.622,0,0,0,17.545-2.548c-.121-1.48-.205-2.5-.205-2.5s-10.669,2.593-17.313,1.1A28.74,28.74,0,0,0,1225.991,488.5Z" transform="translate(-1214.244 -404.372)" fill="#95f7ff"/>
          <path id="Trazado_102409" data-name="Trazado 102409" d="M1221.012,456.44V458.7h6.309v-2.454a23.056,23.056,0,0,1-3.088.326A19.732,19.732,0,0,1,1221.012,456.44Z" transform="translate(-1186.793 -439.219)" fill="#f9e478"/>
          <g id="Grupo_58617" data-name="Grupo 58617" transform="translate(62.508 23.746)">
            <path id="Trazado_102410" data-name="Trazado 102410" d="M1210.872,464.815a.1.1,0,0,0,.094.1h.009a.1.1,0,0,0,.1-.094,27.04,27.04,0,0,1,.942-5.385c-.046-.087-.089-.171-.135-.251A27.605,27.605,0,0,0,1210.872,464.815Z" transform="translate(-1210.872 -459.191)" fill="#21949d"/>
          </g>
          <g id="Grupo_58618" data-name="Grupo 58618" transform="translate(59.817 43.28)">
            <path id="Trazado_102411" data-name="Trazado 102411" d="M1212.886,489.5h.007a.1.1,0,0,0,.094-.1c-.012-.192-1.193-19.247-.11-21.491a.1.1,0,1,0-.182-.087c-1.106,2.29.044,20.8.091,21.589A.1.1,0,0,0,1212.886,489.5Z" transform="translate(-1212.216 -467.756)" fill="#21949d"/>
          </g>
          <g id="Grupo_58619" data-name="Grupo 58619" transform="translate(11.474 37.197)">
            <path id="Trazado_102412" data-name="Trazado 102412" d="M1232.719,491.418a.1.1,0,0,0,.1-.094c.007-.089.641-8.917.905-13.232.283-4.641,1.09-10.459,1.475-12.888a.1.1,0,0,0-.082-.114.1.1,0,0,0-.116.084c-.385,2.431-1.193,8.258-1.478,12.906-.264,4.313-.9,13.141-.905,13.23a.1.1,0,0,0,.093.1Z" transform="translate(-1232.619 -465.089)" fill="#21949d"/>
          </g>
        </g>
        <g id="Grupo_58624" data-name="Grupo 58624" transform="translate(0 0.942)">
          <path id="Trazado_102413" data-name="Trazado 102413" d="M1251.819,526.789l.091,0-.2,1.218-2.449,15.162h8.786c1.9,0,5.943.034,10.511.094,6.333.077,13.675.21,17.732.374,1.923.078,3.635.192,5.209.3l.144.011.189.011a71.978,71.978,0,0,0,10.895.329c5.289-.374,6.988-1.309,6.988-1.309l.1-14.975v-.093a.559.559,0,0,1,.093-.03,41.132,41.132,0,0,1,5.2-.814c.36-.043.707-.089,1.04-.141a25.362,25.362,0,0,0,6.233-1.635c.285-.093-9.634-51.664-13.885-57.375-3.348-4.5-7.284-7.366-11.668-10.35-1.179-.8-2.393-1.619-3.635-2.472l-.155-.007-.306-.011-19.659-.73s-5.549,2.582-8.477,4.431c-2.773,1.754-6.053,4.516-7.3,6.612a22.863,22.863,0,0,0-1.562,3.4c-.03.084-.059.169-.089.255-1.973,5.287-3.838,13.289-5.245,18.711-1.8,6.926-8.5,37.814-8.5,37.814a39.26,39.26,0,0,0,4.536.764C1248.989,526.638,1251.336,526.766,1251.819,526.789Z" transform="translate(-1241.899 -442.586)" fill="#f9e478"/>
          <path id="Trazado_102414" data-name="Trazado 102414" d="M1254.9,455.3a67.482,67.482,0,0,0,2.261,9.531c.364.969,1.145,2.826,2.1,5.047,2.723,6.343,6.871,15.636,6.871,15.636s3.118-8.236,5.481-14.788c.2-.563.409-1.147.611-1.747a98.969,98.969,0,0,0,3.838-13.9l-19.659-.73A13.132,13.132,0,0,1,1254.9,455.3Z" transform="translate(-1225.235 -442.586)" fill="#afa054"/>
          <path id="Trazado_102415" data-name="Trazado 102415" d="M1256.087,480.327s-4.345.467-6.233.654-2.363.935-2.267,2.714-.285,5.8.662,6.365,7.839.468,7.839.468Z" transform="translate(-1188.55 -409.318)" fill="#d4c266"/>
          <path id="Trazado_102416" data-name="Trazado 102416" d="M1268.061,479.916c.472.189,5.572.657,8.311.937s3.211-.093,3.307,2.059.283,5.241-.472,5.989-4.344.281-7.462,0a40.292,40.292,0,0,1-5.1-.748Z" transform="translate(-1255.718 -409.844)" fill="#d4c266"/>
          <path id="Trazado_102417" data-name="Trazado 102417" d="M1256.6,475.585a1.508,1.508,0,1,0-1.508,1.492A1.5,1.5,0,0,0,1256.6,475.585Z" transform="translate(-1202.76 -417.304)" fill="#9d73d8"/>
          <path id="Trazado_102418" data-name="Trazado 102418" d="M1259.018,480.312a1.228,1.228,0,1,0-1.229,1.218A1.222,1.222,0,0,0,1259.018,480.312Z" transform="translate(-1211.977 -410.895)" fill="#9d73d8"/>
          <path id="Trazado_102419" data-name="Trazado 102419" d="M1264.776,480.067a1.228,1.228,0,1,0-1.229,1.216A1.225,1.225,0,0,0,1264.776,480.067Z" transform="translate(-1230.865 -411.211)" fill="#9d73d8"/>
          <ellipse id="Elipse_240" data-name="Elipse 240" cx="1.228" cy="1.217" rx="1.228" ry="1.217" transform="translate(43.451 81.216)" fill="#9d73d8"/>
          <path id="Trazado_102420" data-name="Trazado 102420" d="M1264.776,485.621a1.228,1.228,0,1,0-1.229,1.216A1.225,1.225,0,0,0,1264.776,485.621Z" transform="translate(-1230.865 -404.098)" fill="#9d73d8"/>
          <path id="Trazado_102421" data-name="Trazado 102421" d="M1260,458.043h4.331c-.071-.493-.919-6.762.536-8.423a1.166,1.166,0,0,1,.905-.429,1.958,1.958,0,0,1,1.505.632c1.02,1.111.828,3.284.819,3.375a.182.182,0,0,1-.2.167.185.185,0,0,1-.168-.2c0-.02.187-2.1-.723-3.092a1.578,1.578,0,0,0-1.229-.511.8.8,0,0,0-.625.3c-1.37,1.567-.454,8.09-.444,8.156v.025h5.911l5.72,3.458s-.014,2.687-.052,3.2h-21.493c-.062-.869-.1-3.2-.1-3.2Z" transform="translate(-1225.025 -449.192)" fill="#12263f"/>
          <path id="Trazado_102422" data-name="Trazado 102422" d="M1251.634,485.209l6.046,12.918s.046-.08.132-.226c.458-.766,2.007-3.391,3.428-5.959.939-1.7,1.824-3.38,2.3-4.486,1.323-3.088,5.478-13.477,5.478-13.477l-4.627-2.34,3.117-1.029s-.869-9.173-1.845-13.347c-1.179-.805-3.615-2.675-3.615-2.675l-9.511,27.979-.736,2.162Z" transform="translate(-1210.735 -442.28)" fill="#d4c266"/>
          <path id="Trazado_102423" data-name="Trazado 102423" d="M1255.073,469.626s17,25.131,20.307,28.5c3.255,3.316,9.349,7,9.538,7.109-.057-.128-1.409-3.074-3.359-7.335v0c-1.7-3.722-3.861-8.448-6.014-13.164v0c-4.281-9.378-8.536-18.74-9.136-20.2a36.939,36.939,0,0,1-2.261-9.937c-.246.137-.782.4-1.078.547-.773.385-3.716,1.957-6.644,3.8a33.155,33.155,0,0,0,1.229,4.837,18.6,18.6,0,0,0,3.462,5.428Z" transform="translate(-1234.481 -442.28)" fill="#d4c266"/>
          <g id="Grupo_58621" data-name="Grupo 58621" transform="translate(64.405 27.253)">
            <path id="Trazado_102424" data-name="Trazado 102424" d="M1250.879,519.311h0a.094.094,0,0,0,.089-.1c-.016-.249-1.551-24.843-1.738-27.427-.041-.554-.144-1.77-.287-3.455-.532-6.276-1.523-17.958-1.376-20.357l.027-.435a17.5,17.5,0,0,1,1.2-6.27.092.092,0,0,0-.057-.119.094.094,0,0,0-.12.057,17.574,17.574,0,0,0-1.207,6.32l-.027.436c-.148,2.413.844,14.1,1.378,20.385.137,1.621.246,2.9.285,3.453.187,2.582,1.724,27.176,1.738,27.425A.1.1,0,0,0,1250.879,519.311Z" transform="translate(-1247.368 -461.142)" fill="#d4c266"/>
          </g>
          <g id="Grupo_58622" data-name="Grupo 58622" transform="translate(49.748 62.863)">
            <path id="Trazado_102425" data-name="Trazado 102425" d="M1254.976,515.259l.189.011c.166-3.695.6-13.709.593-17.174,0-1.245.023-3.444.05-5.989.069-6.418.155-14.4-.052-15.283a.094.094,0,0,0-.182.046c.2.853.109,9.168.045,15.237-.027,2.541-.047,4.744-.047,5.989C1255.574,501.557,1255.143,511.56,1254.976,515.259Z" transform="translate(-1254.976 -476.755)" fill="#d4c266"/>
          </g>
          <g id="Grupo_58623" data-name="Grupo 58623" transform="translate(9.735 26.21)">
            <path id="Trazado_102426" data-name="Trazado 102426" d="M1269.9,519.788a.1.1,0,0,0,.079.109h.014a.1.1,0,0,0,.1-.08c.025-.16,2.666-16.159,3.843-23.133,1.238-7.332,2.924-22.173,2.855-26.3-.059-3.681-1.314-6.448-2.766-9.652l-.023-.05-.089.255c1.421,3.129,2.63,5.854,2.689,9.446.068,4.117-1.617,18.939-2.851,26.269-.994,5.9-3.042,18.259-3.663,22.022C1269.97,519.361,1269.9,519.763,1269.9,519.788Z" transform="translate(-1269.899 -460.684)" fill="#d4c266"/>
          </g>
          <rect id="Rect치ngulo_5719" data-name="Rect치ngulo 5719" width="6.392" height="2.621" transform="translate(37.059 15.507)" fill="#fff"/>
        </g>
      </g>
      <g id="Grupo_58639" data-name="Grupo 58639" transform="translate(0 0)">
        <rect id="Rect치ngulo_5720" data-name="Rect치ngulo 5720" width="3.384" height="161.485" rx="0.475" transform="translate(70.106 166.002)" fill="#12263f"/>
        <path id="Trazado_102455" data-name="Trazado 102455" d="M1293.541,582.057c0,5.292,16.159,9.582,36.093,9.582s36.1-4.29,36.1-9.582-16.16-9.578-36.1-9.578S1293.541,576.769,1293.541,582.057Z" transform="translate(-1259.278 -252.917)" fill="#12263f"/>
        <path id="Trazado_102456" data-name="Trazado 102456" d="M1293.238,563.085c6.9,11,22.554,24.111,22.554,24.111l.329-1.031,2.318-10.9a74.512,74.512,0,0,1-5.041-11.615c-2.14-6.285-5.878-14.642-7.386-19.06l-.026-.042a11.154,11.154,0,0,1-.626-2.469c-.142-2.54,8.319-12.031,8.319-12.031a4.4,4.4,0,0,0,.135.77l.006.016c.916,3.445,5.644,8,5.644,8l2.311,17.7c2.776.88,11.029,3.052,23.914,2.6,9.356-.329,14.458-1.776,17.088-2.917.113-.78.457-3.41.812-6.252a22.429,22.429,0,0,1,1.889-6,43.826,43.826,0,0,1,2.755-5.221c.474-.777.983-1.557,1.509-2.317a14.873,14.873,0,0,0,2.6-9.772s15.65,16.259,16.775,17.809a1.493,1.493,0,0,1,.27,1.105v.01c-.187,1.614-2.343,4.154-5.913,9.137-3.493,4.889-8.1,15.322-9.982,19.763.88,2.327,1.74,4.931,2.552,7.8,1.235-.989,5.95-4.747,11.261-9.163,6.259-5.2,13.359-11.293,16.614-14.838,6.491-7.048,8.882-12.682,6.491-16.911s-16.076-24.678-22-33.331-10.865-11.506-15.8-12.708-11.142-2.046-14.381-3.171c0,0-8.882,16.811-11.141,20.81s-3.52,6.4-4.509,4.847-5.221-26.782-5.221-26.782.3-.171.728-.483c0,0-7.918,1.885-12.708,2.878s-9.727,2.681-17.91,11.564-22.274,28.2-22.983,34.685S1286.324,552.088,1293.238,563.085Z" transform="translate(-1275.328 -435.014)" fill="#ffa06d"/>
        <path id="Trazado_102457" data-name="Trazado 102457" d="M1297.525,501.486a47.272,47.272,0,0,0,.929,5.872,27.625,27.625,0,0,0,.754,2.7c3.02,9.2,8.831,10.271,8.831,10.271a.523.523,0,0,1,.042.136c1.024,2.942-.474,5.372-1.985,6.936a12.551,12.551,0,0,1-1.7,1.473c-.432.313-.728.483-.728.483s2.842,16.943,4.409,23.914a14.613,14.613,0,0,0,.812,2.868c.532.848,1.157.526,1.969-.583a48.167,48.167,0,0,0,2.54-4.264c2.259-4,11.141-20.81,11.141-20.81s-4.231-1.837-4.509-5.076a9.4,9.4,0,0,1,.083-2.014,50.409,50.409,0,0,1,2.156-8.4l.009-.019c1.979-1.131,5.221-6.633,5.221-6.633s-.145,1.27,3.948-.7,5.924-7.335,3.52-10.152c-2.292-2.691-3.806.277-3.932.548.1-.3,1.334-3.967-.01-11.267a17.031,17.031,0,0,0-14.1-13.307C1299.123,471.617,1296.307,489.052,1297.525,501.486Z" transform="translate(-1241.63 -473.325)" fill="#e7ba8c"/>
        <path id="Trazado_102458" data-name="Trazado 102458" d="M1296.273,590.513c3.665,1.753,23.689,9.533,24.255,8.969s.98-1.27-2.259-3.951-13.536-10.574-13.682-13.062c-.09-1.65,1.618-7.148,2.946-11.328.49-1.557.931-2.926,1.2-3.838h-12.354c-.026,1.512-.042,3.474-.058,5.337-.035,2.3-.051,4.451-.051,5.415C1296.273,580.59,1292.612,588.763,1296.273,590.513Z" transform="translate(-1218.021 -264.425)" fill="#e7ba8c"/>
        <path id="Trazado_102459" data-name="Trazado 102459" d="M1317.783,600.372c0,1.128,9.585-2.958,17.91-7.019s6.2-8.486,6.2-13.281a15.358,15.358,0,0,1,1.312-5.814,32.45,32.45,0,0,1,2.9-5.4l-12.689-3.674c-.458,1.483-1.144,3.681-1.889,6.059-1.469,4.67-3.2,10.007-4.016,11.928C1325.963,586.839,1317.783,599.248,1317.783,600.372Z" transform="translate(-1317.783 -269.124)" fill="#e7ba8c"/>
        <path id="Trazado_102460" data-name="Trazado 102460" d="M1291.266,680.2l6.581,1.9,12.689,3.674,17.081,4.931s8.1-42.155,10.642-57.593c2.291-13.926,12.147-63.475,14.058-73.05.212-1.041.322-1.608.322-1.608s2.749,47.586,3.6,74.023,4.338,56.436,4.338,56.436H1396s-12.267-51.782-12.267-60.033c0-.319.007-.683.023-1.073.441-9.694,6.023-40.589,3.993-66.469a144.231,144.231,0,0,0-4.821-28.026c-.068-.245-.135-.49-.209-.728-.087-.3-.171-.593-.255-.88-.677-2.24-1.379-4.306-2.088-6.191-2.446-6.465-5.034-10.829-7.074-12.911a.153.153,0,0,1-.026.068.266.266,0,0,1-.033.077,1.257,1.257,0,0,1-.177.193.556.556,0,0,1-.078.068,1.37,1.37,0,0,1-.161.135c-.052.042-.1.077-.161.12s-.142.093-.219.142c-.094.061-.187.119-.3.18a24.948,24.948,0,0,1-5.025,2c-.135.042-.261.084-.406.126-.49.145-1.005.28-1.547.422-.271.068-.561.145-.848.213-1.234.3-2.6.593-4.112.854-.532.094-1.089.187-1.657.271-.3.052-.6.094-.905.135-.406.058-.828.119-1.25.171s-.873.116-1.312.158-.854.1-1.3.145c-.354.035-.709.077-1.066.1s-.693.068-1.048.09c-.761.068-1.547.119-2.353.171-2.53.152-4.8.213-6.816.187-.248,0-.493,0-.728-.01-1.2-.026-2.311-.077-3.332-.151-.493-.036-.957-.078-1.415-.12s-.887-.093-1.3-.135-.813-.1-1.193-.168c-.567-.087-1.1-.18-1.592-.271-.158-.026-.319-.061-.474-.087v-.006c-.142-.026-.277-.052-.412-.087-.8-.177-1.482-.354-2.04-.532-.209-.068-.412-.126-.593-.193a9.219,9.219,0,0,1-1.808-.786s-.358,1.76-1.415,6.2c-.142.59-.448,1.995-.88,4-.568,2.64-1.344,6.336-2.26,10.626-.016.093-.042.177-.057.271-.052.229-.1.448-.146.686v.007c-3.577,16.82-8.982,42.02-11.319,50.183-2.714,9.466-13.662,60.851-18.248,82.51v.006C1292.043,676.5,1291.266,680.2,1291.266,680.2Z" transform="translate(-1282.213 -386.03)" fill="#495abf" stroke="#1f2f8d" stroke-width="1"/>
        <path id="Trazado_102461" data-name="Trazado 102461" d="M1298.306,511.923v8.885a14.661,14.661,0,0,0,4.442,1.512c.135.036.271.061.412.087,3.378.7,8.757,1.26,16.853.76a80.442,80.442,0,0,0,17.394-2.733c.145-.042.271-.084.406-.126,4.129-1.244,6.1-2.5,6.175-2.988.136-.948-1.134-6.852-1.134-6.852a7.86,7.86,0,0,1-2.5,1.5,24.943,24.943,0,0,1-3.916,1.292c-.135.036-.271.068-.416.1a64.981,64.981,0,0,1-12.756,1.521,82.641,82.641,0,0,1-18.316-1.244c-.142-.016-.277-.049-.412-.074a48.074,48.074,0,0,1-5.186-1.286C1298.661,512.059,1298.306,511.923,1298.306,511.923Z" transform="translate(-1252.901 -390.756)" fill="#ff8a5b"/>
        <path id="Trazado_102462" data-name="Trazado 102462" d="M1314.765,503.583l-.135-.77A4.407,4.407,0,0,0,1314.765,503.583Z" transform="translate(-1276.281 -407.777)" fill="#211a17"/>
        <path id="Trazado_102463" data-name="Trazado 102463" d="M1315.46,507.146c-4.232-1.27-9.447-1.75-10.152-1.228S1315.46,507.146,1315.46,507.146Z" transform="translate(-1246.825 -401.336)" fill="#ce666e"/>
        <path id="Trazado_102464" data-name="Trazado 102464" d="M1295.387,511.439l1.389,7.071.025.126a.205.205,0,0,0,.058.112l15.915,16.63c-.087-.3-.171-.593-.255-.88l-15.312-16-.025-.11-1.38-7.049C1295.668,511.372,1295.532,511.4,1295.387,511.439Z" transform="translate(-1212.272 -388.831)" fill="#95f7ff"/>
        <path id="Trazado_102465" data-name="Trazado 102465" d="M1320.034,520.271v-.019l1.786-8.747c-.142-.016-.278-.049-.413-.074l-1.785,8.747v.006a52.281,52.281,0,0,1-9,19.315c-.016.093-.042.177-.058.271-.052.229-.1.448-.146.686a53.025,53.025,0,0,0,9.611-20.179Z" transform="translate(-1269.776 -388.62)" fill="#95f7ff"/>
        <path id="Trazado_102466" data-name="Trazado 102466" d="M1305.364,546.355a.211.211,0,0,0,.007-.422c-4.522-.135-6.768-1.708-6.791-1.724a.212.212,0,1,0-.248.345c.1.068,2.362,1.66,7.026,1.8Z" transform="translate(-1214.281 -315.848)" fill="#103b52"/>
        <path id="Trazado_102467" data-name="Trazado 102467" d="M1320.467,546.51c.48,0,.983-.016,1.518-.058a.217.217,0,0,0,.2-.229.2.2,0,0,0-.229-.193c-5.333.409-7.722-1.518-7.744-1.541a.213.213,0,0,0-.3.029.209.209,0,0,0,.026.3C1314.028,544.892,1316.016,546.51,1320.467,546.51Z" transform="translate(-1281.222 -315.239)" fill="#103b52"/>
      </g>
      <g id="Grupo_58645" data-name="Grupo 58645" transform="translate(109.09 185.03)">
        <g id="Grupo_58640" data-name="Grupo 58640" transform="translate(10.552 3.971)">
          <path id="Trazado_102468" data-name="Trazado 102468" d="M1207.378,534.133h151.428a3.436,3.436,0,0,0,3.433-3.432V507.116a3.436,3.436,0,0,0-3.433-3.432H1207.378a3.436,3.436,0,0,0-3.432,3.432V530.7A3.436,3.436,0,0,0,1207.378,534.133Zm151.428-30.123a3.11,3.11,0,0,1,3.107,3.106V530.7a3.11,3.11,0,0,1-3.107,3.106H1207.378a3.108,3.108,0,0,1-3.1-3.106V507.116a3.108,3.108,0,0,1,3.1-3.106Z" transform="translate(-1203.946 -503.684)" fill="#12263f"/>
        </g>
        <g id="Grupo_58643" data-name="Grupo 58643" transform="translate(100.687)">
          <path id="Trazado_102469" data-name="Trazado 102469" d="M1207.18,542.4l-.048-.33.044.334Z" transform="translate(-1146.288 -450.554)" fill="#7d9ff5"/>
          <path id="Trazado_102470" data-name="Trazado 102470" d="M1209.949,530.934a33.734,33.734,0,0,0,3.925-1.209,46.4,46.4,0,0,1,1.309,6.844,18.881,18.881,0,0,1-2.413,1.04c-.351.125-.723.244-1.111.349-1.911.522-3.02.321-4.126.725a6.887,6.887,0,0,1-.875.244,12.1,12.1,0,0,1-1.713.239l-1.035-6.826S1207.835,531.436,1209.949,530.934Z" transform="translate(-1146.943 -466.363)" fill="#31d9e7"/>
          <path id="Trazado_102471" data-name="Trazado 102471" d="M1208.4,530.872l1.035,6.824h0Z" transform="translate(-1151.431 -464.894)" fill="#446dd3"/>
          <path id="Trazado_102472" data-name="Trazado 102472" d="M1230.431,529.593c2.515,1.108,9.561,2.315,9.561,2.315l-1.6,6.655s-.846-.073-1.753-.05c-.224,0-.452.016-.673.037a7.056,7.056,0,0,1-3.925-1.106,5.084,5.084,0,0,0-1.318-.6,12.387,12.387,0,0,0-1.7-.406Z" transform="translate(-1229.021 -466.532)" fill="#31d9e7"/>
          <path id="Trazado_102473" data-name="Trazado 102473" d="M1209.207,541.72a23.1,23.1,0,0,0,6.094,1.784c2.718.249,3.927-.559,6.14,0a94.005,94.005,0,0,0,11.677,1.662c3.221.2,11.876.6,15.5-.1s10.566-1.282,12.68-1.8,3.854-.878,3.854-.878l.069.465,1.111,7.747a7.6,7.6,0,0,1-5.538,1.911c-3.622-.1-6.641-.394-8.755,0s-7.045,1.533-9.159,1.569-6.24.769-9.561,0a60.585,60.585,0,0,0-7.951-1.069,67.993,67.993,0,0,1-11.173-.1,26.047,26.047,0,0,1-7.549-2.516Z" transform="translate(-1204.331 -451.002)" fill="#31d9e7"/>
          <path id="Trazado_102474" data-name="Trazado 102474" d="M1208.37,558.873a35.661,35.661,0,0,1-3.886-1.131s8.153-32.785,9.561-37.43,3.375-8.591,8.523-11.686l1.69-1.013a21.053,21.053,0,0,0-.146,6.849c.6,4.028,3.321,10.872,10.667,12.587s12.078-1.314,15.066-6.345,1.14-10.788,0-13a28.121,28.121,0,0,1,9.392,8.121c3.925,5.583,10.769,42.22,10.769,42.22a33.722,33.722,0,0,1-3.925,1.209c-.4.1-.878.205-1.373.326-2.1.49-4.666,1.081-4.666,1.081l1.035,6.824,2.821,18.581s-1.742.363-3.856.878-9.059,1.095-12.681,1.8-12.279.3-15.5.1a94.023,94.023,0,0,1-11.677-1.663c-2.212-.552-3.421.253-6.139,0a23.1,23.1,0,0,1-6.094-1.784l6.094-25.343S1211.207,559.56,1208.37,558.873Z" transform="translate(-1203.075 -494.682)" fill="#95f7ff"/>
          <path id="Trazado_102475" data-name="Trazado 102475" d="M1212.83,516.079c.059.4.139.83.248,1.282.942,4.057,3.8,9.759,10.418,11.305,7.348,1.717,12.078-1.314,15.066-6.345.176-.294.333-.593.475-.892,2.3-4.8.595-10.024-.475-12.108v0c-.814-1.574-3.391-2.584-3.391-2.584s.021.4,0,1.081a25.931,25.931,0,0,1-2.616,10.6c-2.92,5.757-7.85,4.714-9.36,3.517s-4.429-6.856-5.033-9.654a28.834,28.834,0,0,1-.527-5.756c0-.1,0-.169,0-.169l-4.541,2.315s-.052.205-.125.568A21.114,21.114,0,0,0,1212.83,516.079Z" transform="translate(-1191.792 -496.299)" fill="#31d9e7"/>
          <path id="Trazado_102476" data-name="Trazado 102476" d="M1214.839,507.5a24.532,24.532,0,0,0,.445,3.312c.037.162.078.331.13.508.805,2.922,3.478,8.024,4.9,9.146,1.51,1.2,6.44,2.24,9.36-3.517a24.231,24.231,0,0,0,2.094-6.133,26.833,26.833,0,0,0,.458-3.316Z" transform="translate(-1188.914 -494.831)" fill="#2ab9c4"/>
          <path id="Trazado_102477" data-name="Trazado 102477" d="M1214.813,506.993l0,.046v-.046Z" transform="translate(-1171.435 -495.476)" fill="#7d9ff5"/>
          <path id="Trazado_102478" data-name="Trazado 102478" d="M1222.5,506.426l0,0h0v.65C1222.5,506.789,1222.5,506.563,1222.5,506.426Z" transform="translate(-1196.655 -496.204)" fill="#7d9ff5"/>
          <path id="Trazado_102479" data-name="Trazado 102479" d="M1222.542,508.5h-.078v-1.795C1222.471,507.17,1222.492,507.792,1222.542,508.5Z" transform="translate(-1196.617 -495.839)" fill="#5b413f"/>
          <path id="Trazado_102480" data-name="Trazado 102480" d="M1214.855,508.115h-.043c.032-.417.05-.789.059-1.1C1214.875,507.453,1214.871,507.9,1214.855,508.115Z" transform="translate(-1171.494 -495.45)" fill="#5b413f"/>
          <path id="Trazado_102481" data-name="Trazado 102481" d="M1219.107,509.173h3.505c-.057-.4-.744-5.524.433-6.879a.938.938,0,0,1,.732-.351,1.579,1.579,0,0,1,1.218.515,4.19,4.19,0,0,1,.664,2.757.15.15,0,0,1-.164.137.153.153,0,0,1-.137-.164,3.959,3.959,0,0,0-.586-2.527,1.273,1.273,0,0,0-.995-.417.645.645,0,0,0-.5.246c-1.111,1.279-.367,6.607-.361,6.662l0,.021h4.785l4.63,3.12s.014.575.016,1.168v.046c-.009.313-.027.684-.059,1.1H1214.89c-.05-.712-.071-1.334-.078-1.795V512Z" transform="translate(-1188.965 -501.943)" fill="#12263f"/>
          <g id="Grupo_58641" data-name="Grupo 58641" transform="translate(52.056 33.335)">
            <path id="Trazado_102482" data-name="Trazado 102482" d="M1213.72,549.3h.018a.1.1,0,0,0,.082-.119c-.041-.217-3.966-21.92-4.564-26.164-.6-4.29.009-5.269.657-6.306a.1.1,0,1,0-.171-.107c-.668,1.07-1.3,2.08-.684,6.443.6,4.247,4.522,25.952,4.563,26.171A.1.1,0,0,0,1213.72,549.3Z" transform="translate(-1208.809 -516.559)" fill="#47ecfa"/>
          </g>
          <g id="Grupo_58642" data-name="Grupo 58642" transform="translate(10.87 33.335)">
            <path id="Trazado_102483" data-name="Trazado 102483" d="M1226.752,548.7a.1.1,0,0,0,.1-.08c.206-.965,5.068-23.648,5.268-25.778a11.565,11.565,0,0,0-1.421-6.229.1.1,0,1,0-.178.094,11.357,11.357,0,0,1,1.4,6.117c-.2,2.116-5.214,25.518-5.266,25.753a.1.1,0,0,0,.077.121Z" transform="translate(-1226.652 -516.559)" fill="#47ecfa"/>
          </g>
        </g>
        <g id="Grupo_58644" data-name="Grupo 58644">
          <path id="Trazado_102484" data-name="Trazado 102484" d="M1272.381,551.6c-2.253-.287-3.227,2.363-3.227,2.363a12.142,12.142,0,0,1-.566-6.612c.662-3.968,2.411-14.619,2.411-14.619l1.41,14.35Z" transform="translate(-1250.546 -462.514)" fill="#ffb9bf"/>
          <path id="Trazado_102485" data-name="Trazado 102485" d="M1250.2,543.541l.027-4.518.146,1.5h7.745c2.928,0,9.164-.661,15.682-.661s17.947-.376,17.947-.376l-.472,6.422s-5.763-.283-10.673,0-7.179.969-12.754.91-12.562-1.382-14.546-.91a5.44,5.44,0,0,1-3.118,0Z" transform="translate(-1228.369 -454.455)" fill="#ffb9bf"/>
          <path id="Trazado_102486" data-name="Trazado 102486" d="M1250.2,542.528a12.515,12.515,0,0,1,4.062-.568V546.3a13.942,13.942,0,0,1-5.478.947,54.277,54.277,0,0,0-6.046.021v-4.744C1243.962,543.282,1247.835,543.189,1250.2,542.528Z" transform="translate(-1173.873 -450.701)" fill="#ffb9bf"/>
          <path id="Trazado_102487" data-name="Trazado 102487" d="M1242.733,583.483l8.874,1.387a31.628,31.628,0,0,1,3.216.5s2.456-12.751,3.59-16.53c1.1-3.661,2.641-12.551,2.734-13.1l0-.028.995,10.131,1.409,14.35.146,1.5h7.745c2.928,0,9.164-.661,15.682-.661s17.947-.376,17.947-.376.661-6.99,1.323-12,.565-15.4.565-15.4l3.59,34.194c1.229.755,5.1.661,7.462,0a12.519,12.519,0,0,1,4.062-.568s-2.55-26.07-2.928-34.383-2.55-25.692-4.062-31.831a11.3,11.3,0,0,0-.6-1.8,9.336,9.336,0,0,0-6.012-5.471l-.477-.23-6.883-3.321-6.149-2.965s-6.516,4.817-12.562,4.345-8.5-3.873-8.5-3.873-3.223.99-7,2.573c-3.868,1.622-8.32,3.868-10.472,6.306-4.251,4.817-4.913,15.018-6.612,22.387S1242.733,583.483,1242.733,583.483Z" transform="translate(-1241.693 -495.624)" fill="#f17781"/>
          <path id="Trazado_102488" data-name="Trazado 102488" d="M1273.262,540.466a22.88,22.88,0,0,0,6.14,1.134c1.051.075,1.962.164,2.734.253l3.216.5-1.04,5.291a9.356,9.356,0,0,0-4.249-.851c-3.024-.094-5.764.02-6.8-.509l-1.04-.529Z" transform="translate(-1272.222 -452.607)" fill="#ffb9bf"/>
          <path id="Trazado_102489" data-name="Trazado 102489" d="M1279.771,541.6a22.875,22.875,0,0,1-6.139-1.134l8.874,1.387C1281.733,541.764,1280.823,541.675,1279.771,541.6Z" transform="translate(-1272.592 -452.607)" fill="#479d9f"/>
          <path id="Trazado_102490" data-name="Trazado 102490" d="M1251.924,509.922c1.663,3.261,6.655,10.934,16.921,10.934,11.617,0,15.734-6.9,17.294-11.013l-1.138-.547-5.01-2.417s-6.516,4.817-12.562,4.345-8.5-3.873-8.5-3.873-1.674.513-4.027,1.393C1253.988,509.082,1252.98,509.479,1251.924,509.922Z" transform="translate(-1226.716 -495.624)" fill="#ffb9bf"/>
          <path id="Trazado_102491" data-name="Trazado 102491" d="M1252.423,508.743a17.139,17.139,0,0,0,2.135,2.589,16.636,16.636,0,0,0,12,4.9c7.49.064,11.456-2.135,14.026-4.673a20.787,20.787,0,0,0,1.945-2.26l-5.011-2.417a26.967,26.967,0,0,1-3.512,2.1c-2.433,1.229-5.811,2.495-9.05,2.242a13.826,13.826,0,0,1-5.822-1.69,8.844,8.844,0,0,1-2.68-2.183S1254.777,507.862,1252.423,508.743Z" transform="translate(-1224.241 -495.624)" fill="#e54854"/>
          <path id="Trazado_102492" data-name="Trazado 102492" d="M1252.423,515.061a17.142,17.142,0,0,0,2.135,2.589c.88-.34,2.721-1.054,4.573-1.8,1.046-.422,2.094-.853,2.969-1.232h9.682c.452.151.955.306,1.514.47.235.066.468.134.707.21a57.375,57.375,0,0,1,6.578,2.575,20.781,20.781,0,0,0,1.945-2.26l-6.295-3.309-4.636-3.127h-4.787v-.021c-.007-.055-.748-5.385.363-6.666a.643.643,0,0,1,.506-.246,1.275,1.275,0,0,1,.994.417,3.966,3.966,0,0,1,.586,2.527.152.152,0,0,0,.135.166.149.149,0,0,0,.167-.137,4.171,4.171,0,0,0-.664-2.762,1.592,1.592,0,0,0-1.218-.513.944.944,0,0,0-.737.351c-1.174,1.357-.485,6.479-.431,6.883H1263l-4.295,2.828Z" transform="translate(-1224.241 -501.943)" fill="#12263f"/>
        </g>
      </g>
    </g>
  </g>
  <g id="Grupo_58662" data-name="Grupo 58662" transform="translate(226.692 0)">
    <g id="Grupo_57453" data-name="Grupo 57453" transform="translate(164.069 158.744)">
      <path id="Trazado_101678" data-name="Trazado 101678" d="M422.27,388.3h-7.278a.98.98,0,0,1,0-1.96h7.278a.98.98,0,0,1,0,1.96Z" transform="translate(-414.012 -386.341)" fill="#124c64"/>
    </g>
    <g id="Grupo_57458" data-name="Grupo 57458">
      <g id="Grupo_57456" data-name="Grupo 57456">
        <path id="Trazado_101681" data-name="Trazado 101681" d="M394.727,368.435a.987.987,0,0,1-.693-.287l-4.93-4.933a.98.98,0,0,1,1.386-1.386l4.931,4.93a.981.981,0,0,1-.693,1.675Z" transform="translate(-388.815 -361.542)" fill="#124c64"/>
      </g>
      <g id="Grupo_57457" data-name="Grupo 57457">
        <path id="Trazado_101682" data-name="Trazado 101682" d="M389.8,368.435a.981.981,0,0,1-.693-1.675l4.93-4.93a.98.98,0,0,1,1.386,1.386l-4.931,4.933A.987.987,0,0,1,389.8,368.435Z" transform="translate(-388.815 -361.542)" fill="#124c64"/>
      </g>
    </g>
    <g id="Grupo_57461" data-name="Grupo 57461" transform="translate(154.298 96.932)">
      <g id="Grupo_57459" data-name="Grupo 57459">
        <path id="Trazado_101683" data-name="Trazado 101683" d="M425.8,363.272a.976.976,0,0,1-.693-.289l-4.933-4.93a.981.981,0,0,1,1.388-1.386l4.931,4.93a.982.982,0,0,1-.693,1.675Z" transform="translate(-419.885 -356.379)" fill="#124c64"/>
      </g>
      <g id="Grupo_57460" data-name="Grupo 57460">
        <path id="Trazado_101684" data-name="Trazado 101684" d="M420.865,363.272a.982.982,0,0,1-.693-1.675l4.933-4.93a.98.98,0,0,1,1.386,1.386l-4.931,4.93A.981.981,0,0,1,420.865,363.272Z" transform="translate(-419.885 -356.379)" fill="#124c64"/>
      </g>
    </g>
  </g>
</svg>
