<svg xmlns="http://www.w3.org/2000/svg" width="85" height="92" viewBox="0 0 85 92">
  <g id="Grupo_985936" data-name="Grupo 985936" transform="translate(-377 -2637)">
    <rect id="Rectángulo_338875" data-name="Rectángulo 338875" width="85" height="92" rx="10" transform="translate(377 2637)" fill="#ff6e33"/>
    <g id="Grupo_1053788" data-name="Grupo 1053788" transform="translate(-632.002 -324)">
      <g id="prima" transform="translate(981.903 2971)">
        <g id="Grupo_1053788-2" data-name="Grupo 1053788" transform="translate(56.076 26.521)">
          <path id="Trazado_736930" data-name="Trazado 736930" d="M159.888,209.794a.756.756,0,0,0,.294.9l3.9,2.54a.756.756,0,0,1,.318.437l.63,2.343h21.221l.63-2.343a.756.756,0,0,1,.318-.437l3.9-2.54a.756.756,0,0,0,.294-.9l-1.664-4.349a.755.755,0,0,1,0-.54l1.664-4.349a.756.756,0,0,0-.294-.9l-3.9-2.54a.756.756,0,0,1-.318-.437l-1.21-4.5a.756.756,0,0,0-.769-.559l-4.651.239a.756.756,0,0,1-.514-.167l-3.622-2.927a.756.756,0,0,0-.95,0l-3.622,2.927a.756.756,0,0,1-.514.167l-4.651-.239a.756.756,0,0,0-.769.559l-1.21,4.5a.756.756,0,0,1-.318.437l-3.9,2.54a.756.756,0,0,0-.294.9l1.664,4.349a.757.757,0,0,1,0,.54Z" transform="translate(-159.838 -188.595)" fill="#fedf30"/>
          <path id="Trazado_736931" data-name="Trazado 736931" d="M159.888,209.794a.756.756,0,0,0,.294.9l3.9,2.54a.756.756,0,0,1,.318.437l.63,2.343h3.118a20.555,20.555,0,0,1,10.893-24.892l-2.925-2.364a.756.756,0,0,0-.95,0l-3.622,2.927a.756.756,0,0,1-.514.167l-4.651-.239a.756.756,0,0,0-.769.559l-1.21,4.5a.756.756,0,0,1-.318.437l-3.9,2.54a.756.756,0,0,0-.294.9l1.664,4.349a.757.757,0,0,1,0,.54Z" transform="translate(-159.838 -188.595)" fill="#fac600"/>
        </g>
        <g id="Grupo_1053789" data-name="Grupo 1053789" transform="translate(51.975 53.945)">
          <path id="Trazado_736932" data-name="Trazado 736932" d="M169.76,400.609H131.4a.726.726,0,0,1-.726-.726V384.336a.726.726,0,0,1,.726-.726h38.36a.726.726,0,0,1,.726.726v15.547A.726.726,0,0,1,169.76,400.609Z" transform="translate(-130.674 -383.609)" fill="#fe7ab6"/>
        </g>
        <g id="Grupo_1053790" data-name="Grupo 1053790" transform="translate(51.975 53.945)">
          <path id="Trazado_736933" data-name="Trazado 736933" d="M137.751,399.883V384.336a.726.726,0,0,1,.726-.726H131.4a.726.726,0,0,0-.726.726v15.547a.726.726,0,0,0,.726.726h7.077A.726.726,0,0,1,137.751,399.883Z" transform="translate(-130.674 -383.609)" fill="#fe3d97"/>
        </g>
        <g id="Grupo_1053791" data-name="Grupo 1053791" transform="translate(68.223 53.945)">
          <path id="Trazado_736934" data-name="Trazado 736934" d="M246.215,383.608h7.317v17h-7.317Z" transform="translate(-246.215 -383.608)" fill="#8ac9fe"/>
        </g>
        <g id="Grupo_1053792" data-name="Grupo 1053792" transform="translate(68.223 53.945)">
          <path id="Trazado_736935" data-name="Trazado 736935" d="M246.215,383.609h3.622v17h-3.622Z" transform="translate(-246.215 -383.609)" fill="#60b7ff"/>
        </g>
        <g id="Grupo_1053798" data-name="Grupo 1053798" transform="translate(40.153 1.055)">
          <g id="Grupo_1053793" data-name="Grupo 1053793" transform="translate(1.666)">
            <path id="Trazado_736936" data-name="Trazado 736936" d="M188.3,17.547l.258.448,10.695-6.175-1.809-3.134a2.372,2.372,0,0,0-3.984-.193l-5.854,8.19A3.629,3.629,0,0,1,188.3,17.547Z" transform="translate(-169.447 -7.5)" fill="#60b7ff"/>
            <path id="Trazado_736937" data-name="Trazado 736937" d="M60.579,105.081l10.695-6.175-.258-.448a3.633,3.633,0,0,1-.4-1.033L60.595,98.4a2.372,2.372,0,0,0-1.824,3.547Z" transform="translate(-58.45 -84.78)" fill="#60b7ff"/>
          </g>
          <path id="Trazado_736938" data-name="Trazado 736938" d="M145.087,71.92l6.291-3.632-.258-.448a3.632,3.632,0,0,0-6.291,3.632Z" transform="translate(-130.597 -57.794)" fill="#8ac9fe"/>
          <g id="Grupo_1053794" data-name="Grupo 1053794" transform="translate(0 2.252)">
            <path id="Trazado_736939" data-name="Trazado 736939" d="M81.471,23.623,47,43.523a.8.8,0,0,0-.293,1.1l4.374,7.576a.8.8,0,0,0,1.1.293l34.469-19.9a.8.8,0,0,0,.293-1.1l-4.374-7.576A.8.8,0,0,0,81.471,23.623Z" transform="translate(-46.601 -23.515)" fill="#fe7ab6"/>
          </g>
          <g id="Grupo_1053795" data-name="Grupo 1053795" transform="translate(0 2.252)">
            <path id="Trazado_736940" data-name="Trazado 736940" d="M52.442,45.671a.8.8,0,0,1,.293-1.1L84.055,26.494l-1.488-2.578a.8.8,0,0,0-1.1-.293L47,43.523a.8.8,0,0,0-.293,1.1l4.374,7.576a.8.8,0,0,0,1.1.293l3.15-1.819Z" transform="translate(-46.601 -23.515)" fill="#fe3d97"/>
          </g>
          <g id="Grupo_1053796" data-name="Grupo 1053796" transform="translate(13.546 9.949)">
            <path id="Trazado_736941" data-name="Trazado 736941" d="M0,0H9.443V10.351H0Z" transform="matrix(0.866, -0.5, 0.5, 0.866, 0, 4.722)" fill="#8ac9fe"/>
          </g>
          <g id="Grupo_1053797" data-name="Grupo 1053797" transform="translate(13.546 9.949)">
            <path id="Trazado_736942" data-name="Trazado 736942" d="M0,0H9.443V3.779H0Z" transform="matrix(0.866, -0.5, 0.5, 0.866, 0, 4.722)" fill="#60b7ff"/>
          </g>
        </g>
        <g id="Grupo_1053799" data-name="Grupo 1053799" transform="translate(78.311 16.748)">
          <path id="Trazado_736943" data-name="Trazado 736943" d="M318.443,127.707l6.066-5.718a.291.291,0,0,0-.054-.463l-4.147-2.394a.291.291,0,0,0-.428.185l-1.919,8.112A.291.291,0,0,0,318.443,127.707Z" transform="translate(-317.952 -119.093)" fill="#fe7d43"/>
        </g>
        <g id="Grupo_1053802" data-name="Grupo 1053802" transform="translate(44.717 40.416)">
          <g id="Grupo_1053800" data-name="Grupo 1053800" transform="translate(45.763 0)">
            <path id="Trazado_736944" data-name="Trazado 736944" d="M404.7,290.365l7.985,2.394a.291.291,0,0,0,.374-.278v-4.788a.291.291,0,0,0-.374-.278l-7.985,2.394A.291.291,0,0,0,404.7,290.365Z" transform="translate(-404.489 -287.401)" fill="#00f2a6"/>
          </g>
          <g id="Grupo_1053801" data-name="Grupo 1053801" transform="translate(0)">
            <path id="Trazado_736945" data-name="Trazado 736945" d="M87.417,289.807l-7.985-2.394a.291.291,0,0,0-.374.278v4.788a.291.291,0,0,0,.374.278l7.985-2.394A.291.291,0,0,0,87.417,289.807Z" transform="translate(-79.058 -287.4)" fill="#fe7d43"/>
          </g>
        </g>
        <g id="Grupo_1053803" data-name="Grupo 1053803" transform="translate(86.73 27.963)">
          <path id="Trazado_736946" data-name="Trazado 736946" d="M380.141,198.933l-2.239,2.239a.291.291,0,0,0,0,.411l2.239,2.239a.291.291,0,0,0,.411,0l2.239-2.239a.291.291,0,0,0,0-.411l-2.239-2.239A.291.291,0,0,0,380.141,198.933Z" transform="translate(-377.818 -198.848)" fill="#c4e2ff"/>
        </g>
        <g id="Grupo_1053804" data-name="Grupo 1053804" transform="translate(43.869 50.603)">
          <path id="Trazado_736947" data-name="Trazado 736947" d="M75.355,359.929l-2.239,2.239a.291.291,0,0,0,0,.411l2.239,2.239a.291.291,0,0,0,.411,0l2.239-2.239a.291.291,0,0,0,0-.411l-2.239-2.239A.291.291,0,0,0,75.355,359.929Z" transform="translate(-73.032 -359.844)" fill="#00f2a6"/>
        </g>
        <g id="Grupo_1053805" data-name="Grupo 1053805" transform="translate(39.097 0)">
          <path id="Trazado_736948" data-name="Trazado 736948" d="M221.266,252.386a3.51,3.51,0,1,0-3.51-3.51A3.514,3.514,0,0,0,221.266,252.386Zm0-4.911a1.4,1.4,0,1,1-1.4,1.4A1.4,1.4,0,0,1,221.266,247.475Z" transform="translate(-192.632 -210.862)"/>
          <path id="Trazado_736949" data-name="Trazado 736949" d="M280.3,317.7a3.51,3.51,0,1,0,3.51,3.51A3.514,3.514,0,0,0,280.3,317.7Zm0,4.911a1.4,1.4,0,1,1,1.4-1.4A1.4,1.4,0,0,1,280.3,322.611Z" transform="translate(-243.362 -273.024)"/>
          <path id="Trazado_736950" data-name="Trazado 736950" d="M237.437,245.577a1.054,1.054,0,0,0-1.477.209l-11.341,15.082a1.055,1.055,0,0,0,1.686,1.268l11.341-15.082A1.055,1.055,0,0,0,237.437,245.577Z" transform="translate(-198.348 -210.861)"/>
          <path id="Trazado_736951" data-name="Trazado 736951" d="M163.315,208.533h-7.193l.243-.9,3.807-2.478a1.82,1.82,0,0,0,.7-2.165l-1.624-4.243,1.624-4.242a1.821,1.821,0,0,0-.7-2.165l-3.807-2.478-1.18-4.387a1.823,1.823,0,0,0-1.841-1.338l-4.537.233-3.533-2.855a1.82,1.82,0,0,0-2.276,0l-3.533,2.855-4.537-.233a1.823,1.823,0,0,0-1.841,1.338l-1.18,4.386-3.807,2.478a1.82,1.82,0,0,0-.7,2.165l1.624,4.242-1.624,4.242a1.821,1.821,0,0,0,.7,2.165l3.807,2.478.243.9h-7.193a1.783,1.783,0,0,0-1.781,1.781v15.547a1.783,1.783,0,0,0,1.781,1.781h38.36a1.783,1.783,0,0,0,1.781-1.781V210.315A1.783,1.783,0,0,0,163.315,208.533Zm-29.4-1.563a1.809,1.809,0,0,0-.761-1.047l-3.7-2.409,1.578-4.124a1.808,1.808,0,0,0,0-1.294l-1.578-4.124,3.7-2.409a1.808,1.808,0,0,0,.761-1.047l1.147-4.264,4.409.227a1.8,1.8,0,0,0,1.231-.4l3.434-2.775,3.434,2.775a1.806,1.806,0,0,0,1.231.4l4.41-.227,1.147,4.264a1.809,1.809,0,0,0,.761,1.047l3.7,2.409-1.578,4.124a1.808,1.808,0,0,0,0,1.294l1.578,4.124-3.7,2.409a1.808,1.808,0,0,0-.761,1.047l-.42,1.562h-19.6Zm5.509,18.563H125.283V210.643h14.138Zm23.565,0H148.848v-4.641a1.055,1.055,0,0,0-2.109,0v4.641h-5.208V210.643h5.208v5.328a1.055,1.055,0,0,0,2.109,0v-5.329h14.139Z" transform="translate(-111.351 -155.644)"/>
          <path id="Trazado_736952" data-name="Trazado 736952" d="M44.848,33.379a1.865,1.865,0,0,0,.483.064,1.846,1.846,0,0,0,.925-.249l5.886-3.4a1.055,1.055,0,1,0-1.055-1.827l-5.667,3.272L41.3,24.1l12.013-6.936L57.434,24.3l-2.084,1.2A1.055,1.055,0,1,0,56.4,27.334L80.726,13.293a1.859,1.859,0,0,0,.679-2.536L77.032,3.181A1.859,1.859,0,0,0,74.5,2.5L72.014,3.934l-1.282-2.22a3.427,3.427,0,0,0-5.755-.279l-.6.834A1.055,1.055,0,0,0,66.1,3.5l.6-.834a1.317,1.317,0,0,1,2.212.107l1.282,2.22-8.782,5.07L63.233,7.5a1.055,1.055,0,1,0-1.716-1.227l-1.79,2.5a4.682,4.682,0,0,0-6.878,3.971l-8.987.874a3.427,3.427,0,0,0-2.636,5.124l1.282,2.22L40.027,22.4a1.857,1.857,0,0,0-.68,2.536l4.374,7.576a1.844,1.844,0,0,0,1.127.865ZM59.261,23.25,55.14,16.112l6.352-3.667,4.121,7.138-3.854,2.225Zm16.071-18.8,4.121,7.138L67.439,18.528,63.318,11.39Zm-19.09,6.231a2.581,2.581,0,0,1,3.2.506l-4.365,2.52A2.581,2.581,0,0,1,56.241,10.685ZM43.053,17.695a1.317,1.317,0,0,1,1.013-1.97l9.05-.88-8.782,5.07Z" transform="translate(-39.097 0)"/>
          <path id="Trazado_736953" data-name="Trazado 736953" d="M313.183,111.708a1.351,1.351,0,0,0-.776.925l-1.919,8.112a1.344,1.344,0,0,0,2.232,1.289l6.066-5.718a1.345,1.345,0,0,0-.25-2.144l-4.147-2.394A1.35,1.35,0,0,0,313.183,111.708Zm-.056,7.043,1.1-4.633,2.368,1.367Z" transform="translate(-272.292 -95.906)"/>
          <path id="Trazado_736954" data-name="Trazado 736954" d="M407.123,280.171a1.351,1.351,0,0,0-1.19-.209l-7.985,2.394a1.345,1.345,0,0,0,0,2.577l7.985,2.394a1.332,1.332,0,0,0,.384.056,1.344,1.344,0,0,0,1.347-1.345V281.25A1.351,1.351,0,0,0,407.123,280.171Zm-1.567,4.841L401,283.644l4.56-1.367Z" transform="translate(-346.662 -240.544)"/>
          <path id="Trazado_736955" data-name="Trazado 736955" d="M73.291,279.963a1.345,1.345,0,0,0-1.732,1.289v4.788a1.347,1.347,0,0,0,1.732,1.289l7.985-2.394a1.345,1.345,0,0,0,0-2.577Zm.378,5.05v-2.735l4.56,1.367Z" transform="translate(-66.994 -240.545)"/>
          <path id="Trazado_736956" data-name="Trazado 736956" d="M370.713,195.882l2.239,2.239a1.347,1.347,0,0,0,1.9,0l2.238-2.238a1.345,1.345,0,0,0,0-1.9l-2.238-2.238a1.345,1.345,0,0,0-1.9,0l-2.238,2.238a1.345,1.345,0,0,0,0,1.9Zm3.19-2.109,1.158,1.158-1.158,1.158-1.158-1.158Z" transform="translate(-323.741 -164.439)"/>
          <path id="Trazado_736957" data-name="Trazado 736957" d="M70.067,352.741a1.347,1.347,0,0,0-1.9,0l-2.238,2.238a1.345,1.345,0,0,0,0,1.9l2.238,2.238a1.345,1.345,0,0,0,1.9,0l2.238-2.238a1.345,1.345,0,0,0,0-1.9Zm-.951,4.348-1.158-1.158,1.158-1.158,1.158,1.158Z" transform="translate(-61.815 -302.799)"/>
        </g>
      </g>
    </g>
  </g>
</svg>
