<svg id="Grupo_1053829" data-name="Grupo 1053829" xmlns="http://www.w3.org/2000/svg" xmlns:xlink="http://www.w3.org/1999/xlink" width="289.413" height="224.197" viewBox="0 0 289.413 224.197">
  <defs>
    <clipPath id="clip-path">
      <rect id="Rectángulo_361421" data-name="Rectángulo 361421" width="289.413" height="224.197" fill="none"/>
    </clipPath>
    <clipPath id="clip-path-3">
      <rect id="Rectángulo_361418" data-name="Rectángulo 361418" width="67.473" height="134.947" fill="none"/>
    </clipPath>
  </defs>
  <g id="Grupo_1053828" data-name="Grupo 1053828" clip-path="url(#clip-path)">
    <g id="Grupo_1053827" data-name="Grupo 1053827">
      <g id="Grupo_1053826" data-name="Grupo 1053826" clip-path="url(#clip-path)">
        <path id="Trazado_736992" data-name="Trazado 736992" d="M253.911,30.893C213.1,7.2,132.806,24.311,90.681,34.842,50.314,44.933.485,66.049,0,114.22-.331,147.7,20.372,174.57,44.921,195.1,59.4,207.2,75.634,218.648,94.512,222.279c9.915,1.908,21.609,1.718,31.71.8C239.293,212.863,347.374,84.864,253.911,30.893" transform="translate(0 -9.312)" fill="#1448d3"/>
        <path id="Trazado_736993" data-name="Trazado 736993" d="M178.154,0l2.813,5.79,6.284.927-4.55,4.506,1.075,6.365-5.622-3.005-5.623,3.005,1.074-6.365-4.549-4.506,6.286-.927Z" transform="translate(-83.075 0)" fill="#ffd55b"/>
        <path id="Trazado_736994" data-name="Trazado 736994" d="M226.631,0l2.813,5.79,6.284.927-4.549,4.506,1.075,6.365-5.622-3.005-5.624,3.005,1.074-6.365-4.549-4.506,6.286-.927Z" transform="translate(-106.897 0)" fill="#ffd55b"/>
        <path id="Trazado_736995" data-name="Trazado 736995" d="M275.108,0l2.813,5.79,6.284.927-4.549,4.506,1.075,6.365-5.623-3.005-5.623,3.005,1.074-6.365L266.01,6.717l6.286-.927Z" transform="translate(-130.718 0)" fill="#ffd55b"/>
        <path id="Trazado_736996" data-name="Trazado 736996" d="M323.584,0l2.812,5.79,6.285.927-4.549,4.506,1.075,6.365-5.622-3.005-5.623,3.005,1.074-6.365-4.549-4.506,6.286-.927Z" transform="translate(-154.539 0)" fill="#ffd55b"/>
        <path id="Trazado_736997" data-name="Trazado 736997" d="M372.061,0l2.813,5.79,6.284.927-4.549,4.506,1.075,6.365-5.622-3.005-5.623,3.005,1.074-6.365-4.55-4.506,6.286-.927Z" transform="translate(-178.361 0)" fill="#ffd55b"/>
        <path id="Trazado_736998" data-name="Trazado 736998" d="M96.739,377.522H94.072a7.318,7.318,0,0,0-7.31-7.31H64.219a7.319,7.319,0,0,0-7.31,7.31H54.241a9.989,9.989,0,0,1,9.978-9.977H86.762a9.989,9.989,0,0,1,9.978,9.977" transform="translate(-26.654 -180.613)" fill="#fff"/>
        <path id="Trazado_736999" data-name="Trazado 736999" d="M57.223,387.389c0-.016,0-.032,0-.047v-.993a1.984,1.984,0,0,0-1.984-1.985H53.4a1.985,1.985,0,0,0-1.985,1.985v.993c0,.016,0,.032,0,.047Z" transform="translate(-25.265 -188.878)" fill="#f2f2f2"/>
        <path id="Trazado_737000" data-name="Trazado 737000" d="M135.362,387.389c0-.016,0-.032,0-.047v-.993a1.985,1.985,0,0,0-1.984-1.985h-1.843a1.985,1.985,0,0,0-1.985,1.985v.993c0,.016,0,.032,0,.047Z" transform="translate(-63.662 -188.878)" fill="#f2f2f2"/>
        <path id="Trazado_737001" data-name="Trazado 737001" d="M490.2,377.522h-2.667a7.318,7.318,0,0,0-7.31-7.31H457.676a7.319,7.319,0,0,0-7.31,7.31H447.7a9.988,9.988,0,0,1,9.977-9.977h22.543a9.988,9.988,0,0,1,9.977,9.977" transform="translate(-220.001 -180.613)" fill="#fff"/>
        <path id="Trazado_737002" data-name="Trazado 737002" d="M450.68,387.389c0-.016,0-.032,0-.047v-.993a1.984,1.984,0,0,0-1.983-1.985h-1.843a1.985,1.985,0,0,0-1.985,1.985v.993c0,.016,0,.032,0,.047Z" transform="translate(-218.611 -188.878)" fill="#f2f2f2"/>
        <path id="Trazado_737003" data-name="Trazado 737003" d="M528.82,387.389c0-.016,0-.032,0-.047v-.993a1.984,1.984,0,0,0-1.984-1.985h-1.843a1.985,1.985,0,0,0-1.984,1.985v.993c0,.016,0,.032,0,.047Z" transform="translate(-257.009 -188.878)" fill="#f2f2f2"/>
        <path id="Trazado_737004" data-name="Trazado 737004" d="M96.066,240.851H93.4V119.67a13.619,13.619,0,0,1,13.6-13.6H282.86a13.619,13.619,0,0,1,13.6,13.6V240.585H293.8V119.67a10.948,10.948,0,0,0-10.935-10.936H107A10.948,10.948,0,0,0,96.066,119.67Z" transform="translate(-45.896 -52.122)" fill="#fff"/>
        <rect id="Rectángulo_361402" data-name="Rectángulo 361402" width="42.784" height="0.921" transform="translate(180.704 71.162)" fill="#d9a78b"/>
        <path id="Trazado_737005" data-name="Trazado 737005" d="M394.1,102.2a3.386,3.386,0,0,0-3.383,3.382c0,.017,0,.034,0,.05s0,.01,0,.015a.348.348,0,0,0,.7,0h.008c0-.018,0-.035,0-.068a2.683,2.683,0,1,1,2.723,2.681l-.344.006V112.9h.7v-3.955a3.381,3.381,0,0,0-.395-6.739" transform="translate(-191.999 -50.223)" fill="#d19d7f"/>
        <path id="Trazado_737006" data-name="Trazado 737006" d="M395.3,127.255c-4.209.175-8.944-3.383-12.541-5.488a10.891,10.891,0,0,0-12.626,0c-3.6,2.105-8.331,5.663-12.542,5.488-2.251-.094-3.331,2.538-2.541,3.679l21.4-7.785,21.4,7.785c.789-1.14-.291-3.772-2.544-3.679" transform="translate(-174.346 -58.846)" fill="#d19d7f"/>
        <path id="Trazado_737007" data-name="Trazado 737007" d="M395.389,163.341c-.711-2.045-4.1-6.052-3.919-12.3.1-3.563,3.6-6.813,3.837-10.616.181-2.909-.725-7.245-.67-8.279.252-4.705-.028-3.833.184-4.449l-5.7-3.33a18.975,18.975,0,0,1-6.879,2.922,18.965,18.965,0,0,1-6.877-2.922l-5.825,2.752c.145.712.059.322.311,5.027.054,1.034-.851,5.37-.669,8.279.236,3.8,3.734,7.054,3.837,10.616.179,6.251-3.208,10.258-3.919,12.3-1.024,2.948-3.45,7.983-2.646,18.571a221.947,221.947,0,0,0,5.537,32.655H392.5a222,222,0,0,0,5.538-32.655c.8-10.588-1.623-15.624-2.647-18.571" transform="translate(-180 -61.113)"/>
        <path id="Trazado_737008" data-name="Trazado 737008" d="M410.867,163.277c-.715-2.045-4.12-6.052-3.94-12.3.1-3.563,3.619-6.813,3.857-10.616.183-2.909-.728-7.245-.673-8.279a43.856,43.856,0,0,0,.213-4.516l-5.659-3.33a19.155,19.155,0,0,1-7.012,2.989V214.5h10.307a220.81,220.81,0,0,0,5.566-32.655c.809-10.588-1.631-15.624-2.659-18.571" transform="translate(-195.409 -61.049)"/>
        <path id="Trazado_737009" data-name="Trazado 737009" d="M369.4,127.041c.067.634.05.143.313,5.038.056,1.034-.855,5.37-.673,8.279.238,3.8,3.753,7.053,3.857,10.616.18,6.251-3.225,10.258-3.939,12.3-1.03,2.948-3.468,7.983-2.66,18.571a220.836,220.836,0,0,0,5.566,32.655h10.3V127.223a19.147,19.147,0,0,1-7.009-2.99Z" transform="translate(-179.919 -61.049)" fill="#1a1a1a"/>
        <path id="Trazado_737010" data-name="Trazado 737010" d="M387.82,126.929a18.784,18.784,0,0,1-6.516-2.883l-2.693,1.317a6.817,6.817,0,0,0,7.64,3.294c1.347-.412,2.035-1.654,1.568-1.727" transform="translate(-186.051 -60.957)" fill="#fff"/>
        <path id="Trazado_737011" data-name="Trazado 737011" d="M404.978,124.045a18.823,18.823,0,0,1-6.523,2.883c-.467.073.221,1.316,1.568,1.727a6.711,6.711,0,0,0,7.489-3.042Z" transform="translate(-195.731 -60.956)" fill="#fff"/>
        <path id="Trazado_737012" data-name="Trazado 737012" d="M320.98,127.469l7.032,29.526.591.382s0,.006.007.01c.343.887.517,1.82.826,2.717h.086l.049-.18.048.18h.074a13.592,13.592,0,0,1,.723-2.483,1.071,1.071,0,0,1,.122-.218v-1l7.955-28.961Z" transform="translate(-157.731 -62.626)" fill="#023632"/>
        <path id="Trazado_737013" data-name="Trazado 737013" d="M330.072,124.251H320.1l.728,3.989h16.288l1.057-3.989Z" transform="translate(-157.299 -61.058)" fill="#18131f"/>
        <rect id="Rectángulo_361403" data-name="Rectángulo 361403" width="34.674" height="0.892" transform="translate(154.142 70.568)" fill="#d9a78b"/>
        <path id="Trazado_737014" data-name="Trazado 737014" d="M335.192,102.2a3.282,3.282,0,0,0-3.277,3.277c0,.017,0,.033,0,.048s0,.01,0,.015a.338.338,0,0,0,.675,0h.008c0-.018,0-.035,0-.066a2.6,2.6,0,1,1,2.639,2.6l-.335.005v4.483h.679v-3.833a3.276,3.276,0,0,0-.384-6.53" transform="translate(-163.103 -50.223)" fill="#d19d7f"/>
        <path id="Trazado_737015" data-name="Trazado 737015" d="M327.138,121.161a10.555,10.555,0,0,0-12.236,0c-3.392,1.986-7.83,5.3-11.828,5.314v2.555l17.946-6.53,16.727,6.086v-2.2c-3.66-.572-7.559-3.438-10.609-5.223" transform="translate(-148.932 -58.578)" fill="#d19d7f"/>
        <path id="Trazado_737016" data-name="Trazado 737016" d="M311.239,163.982,301,128.16s-7.191.78-9.052,2.757c-5.865,14.174-10.176,47.5-10.176,47.5l7.776,1.51,4-20.095,2.515-12.655-.584,35.371s1.4.733,7.892,0c5.194-.584,7.406-1.581,7.865-1.815Z" transform="translate(-138.466 -62.978)" fill="#03615a"/>
        <path id="Trazado_737017" data-name="Trazado 737017" d="M326.544,162.231v-.2l-9.97-37.782-3.651,6.555,5.865,10.665-2.066,4.033Z" transform="translate(-153.772 -61.057)" fill="#2f2933"/>
        <path id="Trazado_737018" data-name="Trazado 737018" d="M284.455,217.444a.466.466,0,1,1-.466-.466.466.466,0,0,1,.466.466" transform="translate(-139.324 -106.624)" fill="#2f2933"/>
        <path id="Trazado_737019" data-name="Trazado 737019" d="M283.846,221.322a.477.477,0,1,1-.477-.478.477.477,0,0,1,.477.478" transform="translate(-139.014 -108.524)" fill="#2f2933"/>
        <path id="Trazado_737020" data-name="Trazado 737020" d="M283.275,224.87a.466.466,0,1,1-.466-.467.466.466,0,0,1,.466.467" transform="translate(-138.744 -110.272)" fill="#2f2933"/>
        <path id="Trazado_737021" data-name="Trazado 737021" d="M336.035,163.982l10.232-35.822s7.192.78,9.054,2.757c5.864,14.174,10.175,47.5,10.175,47.5l-7.776,1.51-4-20.095-2.518-12.655.585,35.371s-1.4.733-7.891,0c-5.195-.584-7.407-1.581-7.865-1.815Z" transform="translate(-165.129 -62.978)" fill="#03554f"/>
        <path id="Trazado_737022" data-name="Trazado 737022" d="M336.035,162.231v-.2L346,124.251l3.65,6.555-5.865,10.665,2.067,4.033Z" transform="translate(-165.129 -61.057)" fill="#2f2933"/>
        <path id="Trazado_737023" data-name="Trazado 737023" d="M390.379,217.444a.467.467,0,1,0,.467-.466.467.467,0,0,0-.467.466" transform="translate(-191.834 -106.624)" fill="#2f2933"/>
        <path id="Trazado_737024" data-name="Trazado 737024" d="M337.785,202.187a.976.976,0,1,0,.977-.975.975.975,0,0,0-.977.975" transform="translate(-165.989 -98.876)" fill="#2f2933"/>
        <path id="Trazado_737025" data-name="Trazado 737025" d="M337.785,215.034a.976.976,0,1,0,.977-.975.975.975,0,0,0-.977.975" transform="translate(-165.989 -105.189)" fill="#2f2933"/>
        <path id="Trazado_737026" data-name="Trazado 737026" d="M390.971,221.322a.477.477,0,1,0,.477-.478.477.477,0,0,0-.477.478" transform="translate(-192.125 -108.524)" fill="#2f2933"/>
        <path id="Trazado_737027" data-name="Trazado 737027" d="M391.561,224.87a.466.466,0,1,0,.467-.467.466.466,0,0,0-.467.467" transform="translate(-192.415 -110.272)" fill="#2f2933"/>
        <path id="Trazado_737028" data-name="Trazado 737028" d="M428.555,124.45s4.045.688,12.822.143c1.688-.1-2.439,4.245-2.439,4.245l-3.842,1.578-3.213-.774-4.216-2.323Z" transform="translate(-210.157 -61.155)" fill="#80aba9"/>
        <rect id="Rectángulo_361404" data-name="Rectángulo 361404" width="42.784" height="0.921" transform="translate(203.464 71.162)" fill="#d9a78b"/>
        <path id="Trazado_737029" data-name="Trazado 737029" d="M438.851,102.2a3.387,3.387,0,0,0-3.383,3.382c0,.017,0,.034,0,.05s0,.01,0,.015a.348.348,0,0,0,.7,0h.008c0-.018,0-.035,0-.068a2.683,2.683,0,1,1,2.724,2.681l-.345.006V112.9h.7v-3.955a3.381,3.381,0,0,0-.395-6.739" transform="translate(-213.99 -50.223)" fill="#d19d7f"/>
        <path id="Trazado_737030" data-name="Trazado 737030" d="M440.052,127.255c-4.209.175-8.945-3.383-12.541-5.488a10.89,10.89,0,0,0-12.626,0c-3.6,2.105-8.331,5.663-12.541,5.488-2.252-.094-3.332,2.538-2.543,3.679l21.4-7.785,21.4,7.785c.789-1.14-.29-3.772-2.543-3.679" transform="translate(-196.337 -58.846)" fill="#d19d7f"/>
        <path id="Trazado_737031" data-name="Trazado 737031" d="M435.358,126.517l-1.277.74-8.438,2.585-8.437-2.585-1.275-.74-7.332.74,2.13,15.936h1.279l.738,24.289c7.16,4.772,18.636,4.772,25.793,0l.739-24.289h1.28l2.13-15.936Z" transform="translate(-200.788 -62.171)" fill="#accfcc"/>
        <path id="Trazado_737032" data-name="Trazado 737032" d="M451.862,126.517l-1.277.74-8.4,2.574v41.23a23.529,23.529,0,0,0,12.859-3.578l.739-24.289h1.28l2.13-15.936Z" transform="translate(-217.291 -62.171)" fill="#97bfbd"/>
        <rect id="Rectángulo_361405" data-name="Rectángulo 361405" width="1.422" height="41.159" transform="translate(224.103 67.728)" fill="#fff"/>
        <path id="Trazado_737033" data-name="Trazado 737033" d="M426.251,123.672l-3.236,1.447s4.839,6.566,7.242,6.365c.974-.082,2.47-3.04,2.47-3.04s-4.885-1.136-6.476-4.772" transform="translate(-207.871 -60.773)" fill="#fff"/>
        <path id="Trazado_737034" data-name="Trazado 737034" d="M412.009,143.762H410.73l-2.13-15.937,1.619-.151Z" transform="translate(-200.788 -62.74)" fill="#fff"/>
        <path id="Trazado_737035" data-name="Trazado 737035" d="M448.589,123.672l3.236,1.447s-4.839,6.566-7.242,6.365c-.975-.082-2.471-3.04-2.471-3.04s4.886-1.136,6.477-4.772" transform="translate(-217.256 -60.773)" fill="#fff"/>
        <path id="Trazado_737036" data-name="Trazado 737036" d="M468.921,143.762h1.28l2.131-15.937-1.62-.151Z" transform="translate(-230.43 -62.74)" fill="#fff"/>
        <rect id="Rectángulo_361406" data-name="Rectángulo 361406" width="42.785" height="0.921" transform="translate(94.568 71.162)" fill="#d9a78b"/>
        <path id="Trazado_737037" data-name="Trazado 737037" d="M224.739,102.2a3.387,3.387,0,0,0-3.383,3.382c0,.017,0,.033,0,.05s0,.01,0,.015a.348.348,0,0,0,.7,0h.008c0-.018,0-.035,0-.068a2.683,2.683,0,1,1,2.724,2.681l-.345.006V112.9h.7v-3.956a3.381,3.381,0,0,0-.395-6.739" transform="translate(-108.775 -50.223)" fill="#d19d7f"/>
        <path id="Trazado_737038" data-name="Trazado 737038" d="M225.94,127.255c-4.209.175-8.945-3.383-12.54-5.489a10.9,10.9,0,0,0-12.627,0c-3.6,2.106-8.331,5.664-12.541,5.489-2.252-.094-3.332,2.538-2.542,3.679l21.4-7.786,21.4,7.786c.789-1.14-.291-3.772-2.543-3.679" transform="translate(-91.122 -58.846)" fill="#d19d7f"/>
        <path id="Trazado_737039" data-name="Trazado 737039" d="M213.537,133.074h.565l-4.178-6.55-.472-.462-.419.291.422,14.884h.626l-.628-14.573Z" transform="translate(-102.72 -61.947)" fill="#f6bc1b"/>
        <path id="Trazado_737040" data-name="Trazado 737040" d="M241.819,126.062l-.472.463-4.178,6.549h.565l4.086-6.41-.63,14.573h.627l.422-14.884Z" transform="translate(-116.546 -61.947)" fill="#facc62"/>
        <path id="Trazado_737041" data-name="Trazado 737041" d="M232.621,141.727h-.566l-4.011,6.287L228,147.95v1.026l.043-.068,2.071,3.252.41-.254-2.2-3.445Z" transform="translate(-112.042 -69.645)" fill="#facc62"/>
        <path id="Trazado_737042" data-name="Trazado 737042" d="M223.644,147.983l-3.99-6.255h-.566l4.29,6.733-2.2,3.446.41.254,2.053-3.219Z" transform="translate(-107.661 -69.646)" fill="#f6bc1b"/>
        <path id="Trazado_737043" data-name="Trazado 737043" d="M212.778,205.259V159.806c-1.061-.616-7.638-4.4-8.824-4.566-1.29-.176-4.223,3.987-4.223,3.987-.116,1.232-.667,4.928,1.452,11.041,2.58,7.442,2.58,5.653-.173,10.73-1.817,3.352-3.123,9.035-3.769,14.2,12.392,9.32,12.793,10.015,12.728,10.054l1.945.009Z" transform="translate(-96.925 -76.283)" fill="#f6bc1b"/>
        <path id="Trazado_737044" data-name="Trazado 737044" d="M227.79,205.259V159.806c1.063-.616,7.639-4.4,8.824-4.566,1.29-.176,4.223,3.987,4.223,3.987.118,1.232.667,4.928-1.452,11.041-2.579,7.442-2.579,5.653.173,10.73,1.817,3.352,3.124,9.035,3.77,14.2-12.393,9.32-12.794,10.015-12.728,10.054l-1.945.009Z" transform="translate(-111.937 -76.283)" fill="#facc62"/>
        <path id="Trazado_737045" data-name="Trazado 737045" d="M174.6,144.824l-13.716.092-.372,0-13.714.092c-2.152,4.848-3.576,10.7-3.55,14.877.073,10.9,2.8,84.9,2.8,84.9l8.927-.059,5.877-77.347,6.906,77.261,8.926-.058s1.74-74.026,1.668-84.927c-.028-4.181-1.532-10.009-3.748-14.829" transform="translate(-70.394 -71.167)" fill="#112c42"/>
        <rect id="Rectángulo_361407" data-name="Rectángulo 361407" width="42.784" height="0.921" transform="translate(69.192 71.162)" fill="#d9a78b"/>
        <path id="Trazado_737046" data-name="Trazado 737046" d="M174.844,102.2a3.386,3.386,0,0,0-3.383,3.382.4.4,0,0,0,0,.05.082.082,0,0,0,0,.015.348.348,0,0,0,.7,0h.008c0-.018,0-.035,0-.068a2.683,2.683,0,1,1,2.723,2.681l-.345.006V112.9h.7v-3.955a3.381,3.381,0,0,0-.4-6.739" transform="translate(-84.256 -50.223)" fill="#d19d7f"/>
        <path id="Trazado_737047" data-name="Trazado 737047" d="M176.045,127.255c-4.209.175-8.945-3.383-12.54-5.488a10.892,10.892,0,0,0-12.627,0c-3.6,2.105-8.331,5.663-12.541,5.488-2.252-.094-3.332,2.538-2.542,3.679l21.4-7.785,21.4,7.785c.788-1.14-.291-3.772-2.543-3.679" transform="translate(-66.603 -58.846)" fill="#d19d7f"/>
        <rect id="Rectángulo_361408" data-name="Rectángulo 361408" width="2.334" height="4.068" transform="translate(77.108 70.548)" fill="#c7a146"/>
        <rect id="Rectángulo_361409" data-name="Rectángulo 361409" width="2.334" height="2.034" transform="translate(77.108 70.549)" fill="#b38f39"/>
        <path id="Trazado_737048" data-name="Trazado 737048" d="M153.938,145.941a.072.072,0,0,1-.072.072h-1.812a.072.072,0,1,1,0-.144h1.812a.072.072,0,0,1,.072.072" transform="translate(-74.685 -71.681)" fill="#b38f39"/>
        <path id="Trazado_737049" data-name="Trazado 737049" d="M153.938,145.329a.072.072,0,0,1-.072.073h-1.812a.072.072,0,1,1,0-.144h1.812a.072.072,0,0,1,.072.072" transform="translate(-74.685 -71.38)" fill="#b38f39"/>
        <path id="Trazado_737050" data-name="Trazado 737050" d="M153.938,144.717a.072.072,0,0,1-.072.072h-1.812a.072.072,0,0,1,0-.145h1.812a.072.072,0,0,1,.072.073" transform="translate(-74.685 -71.079)" fill="#b38f39"/>
        <rect id="Rectángulo_361410" data-name="Rectángulo 361410" width="2.333" height="4.068" transform="translate(101.114 70.548)" fill="#c7a146"/>
        <rect id="Rectángulo_361411" data-name="Rectángulo 361411" width="2.333" height="2.034" transform="translate(101.114 70.549)" fill="#b38f39"/>
        <path id="Trazado_737051" data-name="Trazado 737051" d="M201.136,145.941a.072.072,0,0,1-.072.072h-1.811a.072.072,0,1,1,0-.144h1.811a.072.072,0,0,1,.072.072" transform="translate(-97.878 -71.681)" fill="#b38f39"/>
        <path id="Trazado_737052" data-name="Trazado 737052" d="M201.136,145.329a.072.072,0,0,1-.072.073h-1.811a.072.072,0,1,1,0-.144h1.811a.072.072,0,0,1,.072.072" transform="translate(-97.878 -71.38)" fill="#b38f39"/>
        <path id="Trazado_737053" data-name="Trazado 737053" d="M201.136,144.717a.072.072,0,0,1-.072.072h-1.811a.072.072,0,1,1,0-.145h1.811a.072.072,0,0,1,.072.073" transform="translate(-97.878 -71.079)" fill="#b38f39"/>
        <path id="Trazado_737054" data-name="Trazado 737054" d="M126.857,152.515c-1.753-5.659-2.726-8.028-2.726-8.028l-12.641.023h-.132l-12.642.023s-.964,2.373-2.7,8.037-3.643,18.395-3.643,18.395,1.648,2.61,13.162,1.427c4.309-.474,4.741-.928,4.741-.928s.622-3.046,1.186-3.406c.566.358,1.2,3.4,1.2,3.4s.433.452,4.742.909c11.519,1.142,13.159-1.473,13.159-1.473s-1.958-12.724-3.71-18.381" transform="translate(-45.394 -71.001)" fill="#4d3250"/>
        <path id="Trazado_737055" data-name="Trazado 737055" d="M145.241,152.515c-1.753-5.659-2.726-8.028-2.726-8.028l-12.641.023h-.085v23.6a.45.45,0,0,1,.062-.057c.566.358,1.2,3.4,1.2,3.4s.433.452,4.742.909c11.519,1.142,13.159-1.473,13.159-1.473s-1.958-12.724-3.71-18.381" transform="translate(-63.779 -71.001)" fill="#734b78"/>
        <rect id="Rectángulo_361412" data-name="Rectángulo 361412" width="42.785" height="0.921" transform="translate(44.875 71.162)" fill="#d9a78b"/>
        <path id="Trazado_737056" data-name="Trazado 737056" d="M127.034,102.2a3.386,3.386,0,0,0-3.383,3.382c0,.017,0,.034,0,.05s0,.01,0,.015a.348.348,0,0,0,.7,0h.008c0-.018,0-.035,0-.068a2.683,2.683,0,1,1,2.723,2.681l-.344.006V112.9h.7v-3.955a3.381,3.381,0,0,0-.4-6.739" transform="translate(-60.762 -50.223)" fill="#d19d7f"/>
        <path id="Trazado_737057" data-name="Trazado 737057" d="M128.235,127.255c-4.209.175-8.945-3.383-12.54-5.488a12.933,12.933,0,0,0-6.313-2.017,12.933,12.933,0,0,0-6.314,2.017c-3.6,2.105-8.331,5.663-12.541,5.488-2.252-.094-3.332,2.538-2.542,3.679l21.4-7.785,21.4,7.785c.789-1.14-.291-3.772-2.543-3.679" transform="translate(-43.11 -58.846)" fill="#d19d7f"/>
        <rect id="Rectángulo_361413" data-name="Rectángulo 361413" width="2.334" height="4.068" transform="translate(54.215 70.548)" fill="#c7a146"/>
        <rect id="Rectángulo_361414" data-name="Rectángulo 361414" width="2.334" height="2.034" transform="translate(54.215 70.549)" fill="#b38f39"/>
        <path id="Trazado_737058" data-name="Trazado 737058" d="M108.925,145.941a.072.072,0,0,1-.072.072h-1.812a.072.072,0,0,1,0-.144h1.812a.072.072,0,0,1,.072.072" transform="translate(-52.565 -71.681)" fill="#b38f39"/>
        <path id="Trazado_737059" data-name="Trazado 737059" d="M108.925,145.329a.072.072,0,0,1-.072.073h-1.812a.072.072,0,0,1,0-.144h1.812a.072.072,0,0,1,.072.072" transform="translate(-52.565 -71.38)" fill="#b38f39"/>
        <path id="Trazado_737060" data-name="Trazado 737060" d="M108.925,144.717a.072.072,0,0,1-.072.072h-1.812a.072.072,0,0,1,0-.145h1.812a.073.073,0,0,1,.072.073" transform="translate(-52.565 -71.079)" fill="#b38f39"/>
        <rect id="Rectángulo_361415" data-name="Rectángulo 361415" width="2.334" height="4.068" transform="translate(75.374 70.548)" fill="#c7a146"/>
        <rect id="Rectángulo_361416" data-name="Rectángulo 361416" width="2.334" height="2.034" transform="translate(75.374 70.549)" fill="#b38f39"/>
        <path id="Trazado_737061" data-name="Trazado 737061" d="M150.529,145.941a.072.072,0,0,1-.072.072h-1.811a.072.072,0,1,1,0-.144h1.811a.072.072,0,0,1,.072.072" transform="translate(-73.009 -71.681)" fill="#b38f39"/>
        <path id="Trazado_737062" data-name="Trazado 737062" d="M150.529,145.329a.072.072,0,0,1-.072.073h-1.811a.072.072,0,1,1,0-.144h1.811a.072.072,0,0,1,.072.072" transform="translate(-73.009 -71.38)" fill="#b38f39"/>
        <path id="Trazado_737063" data-name="Trazado 737063" d="M150.529,144.717a.072.072,0,0,1-.072.072h-1.811a.072.072,0,1,1,0-.145h1.811a.072.072,0,0,1,.072.073" transform="translate(-73.009 -71.079)" fill="#b38f39"/>
        <g id="Grupo_1053825" data-name="Grupo 1053825" transform="translate(108.109 37.037)" opacity="0.4">
          <g id="Grupo_1053824" data-name="Grupo 1053824">
            <g id="Grupo_1053823" data-name="Grupo 1053823" clip-path="url(#clip-path-3)">
              <rect id="Rectángulo_361417" data-name="Rectángulo 361417" width="67.474" height="134.947" transform="translate(-0.001)" fill="#fff"/>
            </g>
          </g>
        </g>
        <path id="Trazado_737064" data-name="Trazado 737064" d="M341.712,334.9H338.66a.763.763,0,1,1,0-1.526h2.289v-2.289a.763.763,0,0,1,1.526,0v3.052a.763.763,0,0,1-.763.763" transform="translate(-166.044 -162.322)" fill="#fff"/>
        <path id="Trazado_737065" data-name="Trazado 737065" d="M279.011,337.849h-5.595a.763.763,0,1,1,0-1.526h5.595a.763.763,0,0,1,0,1.526m-11.189,0h-5.595a.763.763,0,1,1,0-1.526h5.595a.763.763,0,0,1,0,1.526m-11.189,0h-5.595a.763.763,0,1,1,0-1.526h5.595a.763.763,0,1,1,0,1.526m-11.189,0h-5.595a.763.763,0,1,1,0-1.526h5.595a.763.763,0,1,1,0,1.526m-11.189,0H228.66a.763.763,0,1,1,0-1.526h5.595a.763.763,0,1,1,0,1.526" transform="translate(-111.989 -165.27)" fill="#fff"/>
        <path id="Trazado_737066" data-name="Trazado 737066" d="M214.711,334.9H211.66a.763.763,0,0,1-.763-.763v-3.052a.763.763,0,0,1,1.526,0v2.289h2.289a.763.763,0,0,1,0,1.526" transform="translate(-103.636 -162.322)" fill="#fff"/>
        <path id="Trazado_737067" data-name="Trazado 737067" d="M211.66,207.316a.763.763,0,0,1-.763-.763v-6.128a.763.763,0,1,1,1.526,0v6.128a.763.763,0,0,1-.763.763m0-12.255a.763.763,0,0,1-.763-.763v-6.127a.763.763,0,0,1,1.526,0V194.3a.763.763,0,0,1-.763.763m0-12.254a.763.763,0,0,1-.763-.763v-6.128a.763.763,0,1,1,1.526,0v6.128a.763.763,0,0,1-.763.763m0-12.255a.763.763,0,0,1-.763-.763v-6.127a.763.763,0,1,1,1.526,0v6.127a.763.763,0,0,1-.763.763m0-12.255a.763.763,0,0,1-.763-.763v-6.128a.763.763,0,0,1,1.526,0v6.128a.763.763,0,0,1-.763.763m0-12.255a.763.763,0,0,1-.763-.763v-6.128a.763.763,0,1,1,1.526,0v6.128a.763.763,0,0,1-.763.763m0-12.255a.763.763,0,0,1-.763-.763V126.9a.763.763,0,1,1,1.526,0v6.128a.763.763,0,0,1-.763.763m0-12.255a.763.763,0,0,1-.763-.763v-6.127a.763.763,0,0,1,1.526,0v6.127a.763.763,0,0,1-.763.763m0-12.255a.763.763,0,0,1-.763-.763v-6.128a.763.763,0,0,1,1.526,0v6.128a.763.763,0,0,1-.763.763m0-12.255a.763.763,0,0,1-.763-.763V90.133a.763.763,0,0,1,1.526,0V96.26a.763.763,0,0,1-.763.763" transform="translate(-103.636 -43.917)" fill="#fff"/>
        <path id="Trazado_737068" data-name="Trazado 737068" d="M211.66,75.9a.763.763,0,0,1-.763-.763V72.086a.763.763,0,0,1,.763-.763h3.052a.763.763,0,0,1,0,1.526h-2.289v2.289a.763.763,0,0,1-.763.763" transform="translate(-103.636 -35.048)" fill="#fff"/>
        <path id="Trazado_737069" data-name="Trazado 737069" d="M279.011,72.849h-5.595a.763.763,0,1,1,0-1.526h5.595a.763.763,0,0,1,0,1.526m-11.189,0h-5.595a.763.763,0,1,1,0-1.526h5.595a.763.763,0,0,1,0,1.526m-11.189,0h-5.595a.763.763,0,0,1,0-1.526h5.595a.763.763,0,1,1,0,1.526m-11.189,0h-5.595a.763.763,0,0,1,0-1.526h5.595a.763.763,0,0,1,0,1.526m-11.189,0H228.66a.763.763,0,1,1,0-1.526h5.595a.763.763,0,1,1,0,1.526" transform="translate(-111.989 -35.048)" fill="#fff"/>
        <path id="Trazado_737070" data-name="Trazado 737070" d="M341.712,75.9a.763.763,0,0,1-.763-.763V72.849H338.66a.763.763,0,0,1,0-1.526h3.052a.763.763,0,0,1,.763.763v3.052a.763.763,0,0,1-.763.763" transform="translate(-166.044 -35.048)" fill="#fff"/>
        <path id="Trazado_737071" data-name="Trazado 737071" d="M344.66,207.317a.763.763,0,0,1-.763-.763v-6.127a.763.763,0,0,1,1.526,0v6.127a.763.763,0,0,1-.763.763m0-12.255a.763.763,0,0,1-.763-.763v-6.128a.763.763,0,0,1,1.526,0V194.3a.763.763,0,0,1-.763.763m0-12.255a.763.763,0,0,1-.763-.763v-6.127a.763.763,0,0,1,1.526,0v6.127a.763.763,0,0,1-.763.763m0-12.255a.763.763,0,0,1-.763-.763v-6.128a.763.763,0,1,1,1.526,0v6.128a.763.763,0,0,1-.763.763m0-12.255a.763.763,0,0,1-.763-.763v-6.128a.763.763,0,1,1,1.526,0v6.128a.763.763,0,0,1-.763.763m0-12.255a.763.763,0,0,1-.763-.763v-6.128a.763.763,0,1,1,1.526,0v6.128a.763.763,0,0,1-.763.763m0-12.255a.763.763,0,0,1-.763-.763V126.9a.763.763,0,1,1,1.526,0v6.128a.763.763,0,0,1-.763.763m0-12.255a.763.763,0,0,1-.763-.763v-6.127a.763.763,0,0,1,1.526,0v6.127a.763.763,0,0,1-.763.763m0-12.255a.763.763,0,0,1-.763-.763v-6.128a.763.763,0,1,1,1.526,0v6.128a.763.763,0,0,1-.763.763m0-12.255a.763.763,0,0,1-.763-.763V90.134a.763.763,0,1,1,1.526,0v6.128a.763.763,0,0,1-.763.763" transform="translate(-168.992 -43.917)" fill="#fff"/>
        <rect id="Rectángulo_361419" data-name="Rectángulo 361419" width="42.784" height="0.921" transform="translate(119.802 71.162)" fill="#d9a78b"/>
        <path id="Trazado_737072" data-name="Trazado 737072" d="M274.354,102.2a3.386,3.386,0,0,0-3.383,3.382c0,.017,0,.034,0,.05s0,.01,0,.015a.348.348,0,0,0,.7,0h.008c0-.018,0-.035,0-.068a2.683,2.683,0,1,1,2.723,2.681l-.345.006V112.9h.7v-3.955a3.381,3.381,0,0,0-.395-6.739" transform="translate(-133.156 -50.223)" fill="#d19d7f"/>
        <path id="Trazado_737073" data-name="Trazado 737073" d="M275.556,127.255c-4.209.175-8.945-3.383-12.541-5.488a10.891,10.891,0,0,0-12.626,0c-3.6,2.105-8.331,5.663-12.542,5.488-2.252-.094-3.332,2.538-2.542,3.679l21.4-7.785,21.4,7.785c.789-1.14-.291-3.772-2.543-3.679" transform="translate(-115.503 -58.846)" fill="#d19d7f"/>
        <path id="Trazado_737074" data-name="Trazado 737074" d="M300.112,175.426c-7.226-16.352-14-15.323-11.946-22.737,3.746-13.5,3.3-16.17,3.517-22.115l-2.746-1.3c-2.165,6.78-6.333,11.811-10.957,11.811-.04,0-.027,6.609-.064.453V211h25.646s3.208-20.505-3.451-35.575" transform="translate(-136.569 -63.525)" fill="#de2b5b"/>
        <path id="Trazado_737075" data-name="Trazado 737075" d="M241.614,128.773,238.65,130.2c.218,5.947-.259,8.738,3.49,22.238,2.055,7.414-4.723,6.385-11.947,22.737-6.66,15.07-3.451,35.575-3.451,35.575h25.648V150.32l.147-9.49c-.041,0-.227,0-.265,0-4.624,0-8.536-5.275-10.657-12.055" transform="translate(-111.042 -63.28)" fill="#f24976"/>
        <path id="Trazado_737076" data-name="Trazado 737076" d="M277.782,122.676c-.638,3.415-2.922,8.144-5.509,8.144-2.636,0-4.955-4.907-5.542-8.333a.635.635,0,0,0-.4.112c.625,3.606,3.069,8.633,5.943,8.633,2.778,0,5.154-4.739,5.873-8.311a.623.623,0,0,0-.364-.244" transform="translate(-130.876 -60.19)"/>
        <path id="Trazado_737077" data-name="Trazado 737077" d="M278.075,141.085a1.808,1.808,0,1,1-1.808-1.808,1.807,1.807,0,0,1,1.808,1.808" transform="translate(-134.87 -68.441)"/>
        <path id="Trazado_737078" data-name="Trazado 737078" d="M270.879,136.012a1.113,1.113,0,1,1-1.113-1.113,1.113,1.113,0,0,1,1.113,1.113" transform="translate(-132.017 -66.29)"/>
        <path id="Trazado_737079" data-name="Trazado 737079" d="M267.7,130.355a1.113,1.113,0,1,1-1.114-1.114,1.113,1.113,0,0,1,1.114,1.114" transform="translate(-130.453 -63.51)"/>
        <path id="Trazado_737080" data-name="Trazado 737080" d="M283.1,136.012a1.113,1.113,0,1,0,1.113-1.113,1.113,1.113,0,0,0-1.113,1.113" transform="translate(-139.117 -66.29)"/>
        <path id="Trazado_737081" data-name="Trazado 737081" d="M286.283,130.355a1.114,1.114,0,1,0,1.114-1.114,1.114,1.114,0,0,0-1.114,1.114" transform="translate(-140.681 -63.51)"/>
        <path id="Trazado_737082" data-name="Trazado 737082" d="M278.049,141.855a1.012,1.012,0,1,1-1.012-1.011,1.011,1.011,0,0,1,1.012,1.011" transform="translate(-135.64 -69.211)" fill="#fff"/>
        <path id="Trazado_737083" data-name="Trazado 737083" d="M285.3,136.713a.388.388,0,1,1-.388-.388.388.388,0,0,1,.388.388" transform="translate(-139.818 -66.991)" fill="#fff"/>
        <path id="Trazado_737084" data-name="Trazado 737084" d="M288.486,131.056a.388.388,0,1,1-.388-.388.388.388,0,0,1,.388.388" transform="translate(-141.382 -64.211)" fill="#fff"/>
        <path id="Trazado_737085" data-name="Trazado 737085" d="M270.855,136.672a.43.43,0,1,1-.429-.429.43.43,0,0,1,.429.429" transform="translate(-132.677 -66.95)" fill="#fff"/>
        <path id="Trazado_737086" data-name="Trazado 737086" d="M267.671,131.056a.388.388,0,1,1-.388-.388.387.387,0,0,1,.388.388" transform="translate(-131.154 -64.211)" fill="#fff"/>
        <path id="Trazado_737087" data-name="Trazado 737087" d="M389.558,54.238a2.622,2.622,0,0,0-1.372.514,19.175,19.175,0,0,1-1.863,1.517.3.3,0,0,1-.106.029,1.44,1.44,0,0,1-.2-.558,5.834,5.834,0,0,1,.169-1.338c.07-.3.151-.57.2-.759.348-1.408,1-3.488.778-4.95a.451.451,0,0,0-.683-.284c-.385.281-.514,1.487-.615,1.914-.186.786-.342,1.668-.583,2.359-.077.22-.356.377-.411-.105a1.829,1.829,0,0,0-.082-.372.391.391,0,0,0-.28-.19.79.79,0,0,0-.307-.02c-.042,0-.083.009-.123.014l-.074.026a.954.954,0,0,0-.183.118c-.011.007-.018.016-.027.023a.289.289,0,0,0-.032.029.468.468,0,0,0-.153.222,1.142,1.142,0,0,1-.159.255.47.47,0,0,0-.085-.11.642.642,0,0,0-.473-.109c-.042,0-.081.005-.123.008l-.072.02a.524.524,0,0,0-.373.365,1.17,1.17,0,0,0-.065.307c-.035.092-.068.169-.089.218a.788.788,0,0,0-.117-.232.461.461,0,0,0-.5-.152c-.343.1-.431.446-.455.78l0,0a11.751,11.751,0,0,0-.252,1.55c-.014.476-.036.953-.037,1.428a1.229,1.229,0,0,0,.087.442,17.524,17.524,0,0,1,.547,3.329c.006.453.422,9.507.386,9.961.374.389.908-1.048,1.441-.847.566.213.631.742,1.229.678a6.569,6.569,0,0,0,1.144-.212c-.084-.662-.517-8.777-.468-9.5h-.006a3.528,3.528,0,0,1,.032-.406,1.706,1.706,0,0,1,.247-.594c.184-.267.38-.508.55-.766a12.362,12.362,0,0,1,1.29-1.292c.637-.567,1.018-1.233,1.443-1.625.5-.466,1.309-1.122,1.321-1.3-.1-.127-.3-.379-.493-.387" transform="translate(-187.131 -23.748)" fill="#fca677"/>
        <path id="Trazado_737088" data-name="Trazado 737088" d="M397.386,61.442a3.9,3.9,0,0,0,.751-.758s-.329-.174-.535.021c-.571.539-.216.737-.216.737" transform="translate(-195.223 -29.785)" fill="#f2d2c2"/>
        <path id="Trazado_737089" data-name="Trazado 737089" d="M391.72,49.107c-.046.173-.019.3.155.349.123.032.331.06.429-.058a.936.936,0,0,0,.11-.553l0-.012a.362.362,0,0,0-.441-.15c-.164.06-.207.267-.248.424" transform="translate(-192.483 -23.911)" fill="#f2d2c2"/>
        <path id="Trazado_737090" data-name="Trazado 737090" d="M446.4,426.894c.2-1.461.473-2.908.662-4.372a3.5,3.5,0,0,1-1.594.586,7.255,7.255,0,0,1-2.29.377c.051.2.1.393.146.591a9.256,9.256,0,0,1,.088,3.947c-.591-.327-1.271-.456-1.885-.742a5.1,5.1,0,0,0-3.163-.461c-.659.243-.78.55-.424,1.217a7.65,7.65,0,0,0,2.929,2.348,12.44,12.44,0,0,0,2.907.959l.118.046a5.313,5.313,0,0,0,1.249.352c1.628-.082,1.908-1.039,1.546-2.237a5.558,5.558,0,0,1-.289-2.61" transform="translate(-215.107 -207.629)" fill="#fca677"/>
        <path id="Trazado_737091" data-name="Trazado 737091" d="M499.292,265.382a10.106,10.106,0,0,1,2.22,1.8,16.938,16.938,0,0,1,1.823,2.431,17,17,0,0,0,1.939,2.226c.664.674,1.2,1.479,1.891,2.123.129.121.289.287.5.14s-.185-.815-.32-1.056c-.239-.422-.535-.833-.773-1.251-.13-.226.138-.523.366-.3a13.63,13.63,0,0,0,3.01,2.678c.284.137.625-.053.452-.422-.233-.5-.9-.921-1.248-1.343a13.536,13.536,0,0,1-1.385-1.509c-.133-.271.563.306.669.4.8.669,2.115,2.022,2.99,2.591a.385.385,0,0,0,.511-.007c.223-.206.018-.511-.086-.653-.784-1.059-2.43-2.161-3.262-3.169-.273-.332-.009-.4.176-.311.582.284,1.235.737,1.844,1.113.332.206,1.175.874,1.581.819a.374.374,0,0,0,.22-.586,13.9,13.9,0,0,0-3.607-2.6c-.561-.339-2.159-1.11-1.423-1.91a3.511,3.511,0,0,1,1.509-.715c1.145-.368,1.471-.685,1.457-1.1-.005-.2-.485-.223-.935-.188a10.56,10.56,0,0,0-1.651.377c-.609.137-1.468.129-2.058.318a1.755,1.755,0,0,1-1.187.152,5.719,5.719,0,0,1-2.419-1.685c-.248-.3-.487-.612-.725-.924Z" transform="translate(-245.354 -129.151)" fill="#fca677"/>
        <path id="Trazado_737092" data-name="Trazado 737092" d="M518.749,266.274s.111.6.97.148c0,0,.318-.238-.366-.228-.158,0-.6.08-.6.08" transform="translate(-254.915 -130.808)" fill="#fad6c8"/>
        <path id="Trazado_737093" data-name="Trazado 737093" d="M515.031,283.825c.032.045.232.326.048.463s-.38-.13-.421-.184a.227.227,0,0,1,.051-.324.224.224,0,0,1,.322.044" transform="translate(-252.881 -139.425)" fill="#fcdbd4"/>
        <path id="Trazado_737094" data-name="Trazado 737094" d="M520.158,283.862c.049.038.354.285.183.507s-.467-.009-.528-.058a.237.237,0,0,1-.02-.361.259.259,0,0,1,.365-.089" transform="translate(-255.393 -139.47)" fill="#fcdbd4"/>
        <path id="Trazado_737095" data-name="Trazado 737095" d="M523.272,283.288c.045.041.321.309.13.522s-.46-.037-.518-.087a.27.27,0,0,1,0-.394.265.265,0,0,1,.389-.041" transform="translate(-256.905 -139.176)" fill="#fcdbd4"/>
        <path id="Trazado_737096" data-name="Trazado 737096" d="M524.024,278.75c.051.04.377.3.209.525s-.488-.029-.555-.08a.246.246,0,0,1-.049-.371.29.29,0,0,1,.395-.074" transform="translate(-257.281 -136.955)" fill="#fcdbd4"/>
        <path id="Trazado_737097" data-name="Trazado 737097" d="M407.1,426.393c.2-1.461.472-2.908.662-4.372a3.5,3.5,0,0,1-1.594.586,7.254,7.254,0,0,1-2.29.377c.051.2.1.393.147.59a9.249,9.249,0,0,1,.089,3.938c-.636-.217-1.306-.521-1.956-.709-1.1-.318-2.023-.9-2.972-.541-.657.252-.9.606-.546,1.272a7.646,7.646,0,0,0,2.93,2.348,12.861,12.861,0,0,0,2.845,1.053c.058.025.152.037.222.064a5,5,0,0,0,1.206.241c1.628-.082,1.908-1.039,1.546-2.237a5.558,5.558,0,0,1-.289-2.61" transform="translate(-195.811 -207.383)" fill="#fca677"/>
        <path id="Trazado_737098" data-name="Trazado 737098" d="M437.507,119.359c.016-1.2.939-9.431-1.984-8.117l-.254-.254c-3.082,3.481-6.085,9.193-5.126,14.1.4,2.04,2.13,2.855,4.047,3.392,3.943,1.1,3.287-6.809,3.318-9.117" transform="translate(-211.284 -54.54)" fill="#fca677"/>
        <path id="Trazado_737099" data-name="Trazado 737099" d="M406.582,432.243l-.106-.02c-.042,1.186-1.919,1.433-2.763,1.149a10.5,10.5,0,0,1-2.825-1.5,3.039,3.039,0,0,1-1.108-1.26,14.944,14.944,0,0,1,3.505.638,15.382,15.382,0,0,0-4.464-1.57c-.617-.11-1.769-.076-1.875.143-.35.721,1.272,2.527,3.513,3.735,1.3.7,4.2,1.753,5.509,1.4,1.135-.307.853-1.755.614-2.713" transform="translate(-195.037 -211.116)" fill="#292939"/>
        <path id="Trazado_737100" data-name="Trazado 737100" d="M446.024,432.845l-.106-.02c-.042,1.186-1.861,1.394-2.7,1.11a10.482,10.482,0,0,1-2.826-1.5,3.037,3.037,0,0,1-1.108-1.26,14.428,14.428,0,0,1,3.459.585,15.15,15.15,0,0,0-4.418-1.518c-.617-.11-1.77-.076-1.876.143-.35.721,1.272,2.527,3.513,3.735,1.3.7,4.2,1.753,5.51,1.4,1.135-.308.8-1.716.556-2.674" transform="translate(-214.447 -211.392)" fill="#292939"/>
        <path id="Trazado_737101" data-name="Trazado 737101" d="M432.166,272.1a84.082,84.082,0,0,0-1.78-13.351c-.789-3.945-2.532-7.153-3.814-10.935-.069-.234,2.5-.922,2.412-.949-2.938.785-13.161-.357-18.923,1.1-3.673-1.5-10.123-.305-13.09-1.1-.089.026-.295-.09-.364.144a86.351,86.351,0,0,0-2.967,10.468,47.917,47.917,0,0,0-1.271,10.426c-.363,6.729,2.723,20.131,3.56,26.828,1.307,10.455,1.461,19.881,2.416,30.389.381,4.2-.5,9.292,1.939,12.969a5.241,5.241,0,0,0,1.494.7c1.892.572,2.319.451,3.253-.2,1.206-.845,1.949-3.055,3.166-7.793,2.6-10.117,1.413-20.98,2.1-31.357.6-9.049,2.145-17.5,2.2-26.553.912,9.106,2.536,16.875,3.144,26.045.688,10.377-.476,21.748,2.122,31.865,1.079,4.2,1.8,7,3.006,7.763a5.742,5.742,0,0,0,4.231.074c.251-.071.558-.879.558-.879,1.195-4.247,2.184-5.758,3.052-10.087,2.073-10.345.473-22.6,1.78-33.059.837-6.7,2.143-15.777,1.78-22.505" transform="translate(-192.797 -121.308)" fill="#ffd55b"/>
        <path id="Trazado_737102" data-name="Trazado 737102" d="M408.2,340.526c2.348-9.144,1.61-18.894,1.953-28.346-.037-.067-.069-.135-.107-.2a102.359,102.359,0,0,0-2.865,19.691c-.158,2.436-.183,9.962-4.4,9.363-5.053-.717-2.667-12.492-2.409-15.422.913-10.4-1.355-19.675-3.862-29.7-2.445-9.775-3.915-19.251-2.747-29.247-.041.184-.081.358-.122.546a47.918,47.918,0,0,0-1.271,10.426c-.363,6.729,2.723,20.131,3.56,26.828,1.307,10.454,1.461,19.881,2.416,30.389.381,4.2-.5,9.292,1.939,12.969a5.265,5.265,0,0,0,1.494.7c1.892.572,2.319.45,3.253-.2,1.206-.845,1.949-3.055,3.166-7.792" transform="translate(-192.797 -131.04)" fill="#f7c42f"/>
        <path id="Trazado_737103" data-name="Trazado 737103" d="M445.692,353.714c-4.5,4.031-6.22-.87-6.53-5.142-.584-8.066.75-16.116-.161-24.2-.918-8.137-3.651-15.744-6.711-23.283.931,8.446,2.405,15.844,2.978,24.486.688,10.377-.476,21.747,2.122,31.865,1.079,4.2,1.8,7,3.006,7.763a5.742,5.742,0,0,0,4.231.074c.25-.071.558-.879.558-.879,1.194-4.247,2.184-5.759,3.052-10.087.249-1.242.442-2.512.6-3.8-1.017.448-2.589,2.7-3.143,3.2" transform="translate(-212.429 -147.959)" fill="#f7c42f"/>
        <path id="Trazado_737104" data-name="Trazado 737104" d="M425,127.686a36.457,36.457,0,0,0-9.9-2.952c-4.183-.735-8.5.05-12.647-.921-6.671-1.562-11.275-8.418-12.578-14.848-.617-3.045-.707-6.116-1.738-9.075-1.135-3.258-2.649-6.345-3.616-9.668-.227-.783-.436-1.571-.644-2.359-.821-.119-1.414.395-2.715.612-1.621.27-2.194.223-2.432.6-1.78,2.606-2.2,6.048-2.569,9.1a33.666,33.666,0,0,0,.405,12.078c1.229,5.163,3.58,9.861,5.436,14.8,3.822,10.167,2,20.5,2.4,31.039.124,3.214.376,6.913,1.611,9.918a13.306,13.306,0,0,0,1.614,2.722,6.945,6.945,0,0,0,2.26,2.265,12.215,12.215,0,0,0,5.974,1.088,25.382,25.382,0,0,1,5.66.969,124.169,124.169,0,0,0,12.759,2.084,12.722,12.722,0,0,0,3.2.012c4.5-.9,5.715-7.554,6.9-11.325a81.207,81.207,0,0,0,3.191-15.1,124.761,124.761,0,0,0,.679-12.6c.044-3.258-.017-6.765-3.26-8.438" transform="translate(-184.675 -43.167)" fill="#63caf5"/>
        <path id="Trazado_737105" data-name="Trazado 737105" d="M404.392,172.251c-7.376-2.954-11.464-5.851-13.6-13.838-2.465-9.215-2.067-18.925-4.493-28.161-1.809-6.884-4.732-13.644-7-20.4a34.642,34.642,0,0,1-.479-18.861V91.5c.062-.406.187-1.045.254-1.718a.628.628,0,0,0-.344.25c-1.78,2.606-2.2,6.048-2.569,9.1a33.678,33.678,0,0,0,.405,12.078c1.229,5.162,3.581,9.86,5.436,14.8,3.822,10.166,2,20.5,2.4,31.039.124,3.214.376,6.913,1.611,9.918a13.284,13.284,0,0,0,1.614,2.722,6.933,6.933,0,0,0,2.259,2.265,12.21,12.21,0,0,0,5.974,1.088,25.376,25.376,0,0,1,5.66.969,124.192,124.192,0,0,0,12.759,2.084,12.721,12.721,0,0,0,3.2.012,5.16,5.16,0,0,0,2.658-1.467c-5.411-.963-10.384-.235-15.752-2.385" transform="translate(-184.675 -44.117)" fill="#63acf5"/>
        <path id="Trazado_737106" data-name="Trazado 737106" d="M466.359,216.209c-.488-1.785-.7-4.587-2.485-5.387a.119.119,0,0,0-.01.072,42.605,42.605,0,0,0,.779,13.152c.225.876,1.058,2.581,2.235,2.5,0,0,.7-2.219.842-3.02.437-2.4-.745-5.059-1.362-7.318m-2.466-5.267a.119.119,0,0,1,.033.073Z" transform="translate(-227.858 -103.599)" fill="#63acf5"/>
        <path id="Trazado_737107" data-name="Trazado 737107" d="M482.94,223.849c-.02-.064-.04-.128-.059-.191-.6-1.992-.811-4.09-1.431-6.059-.385-1.227-.849-2.438-1.273-3.653-.877-2.508-1.777-5.012-2.888-7.428a39.713,39.713,0,0,0-2.053-3.909c-.609-1.008-1.067-2.274-1.591-3.323-.89-1.78-1.651-3.6-2.607-5.182a13.924,13.924,0,0,1-1.176-2.861c-.251-.7-1.832-.464-2.341-1.028-1.293,1.652-2.783,3.175-4.1,4.851a12.5,12.5,0,0,0-1.3,2.058c-.306.6-.951,1.1-1.157,1.71.683,3.928,2.253,7.742,3.358,11.568a35.542,35.542,0,0,0,4.41,9.756,34.569,34.569,0,0,0,5.7,6.607c1.293,1.157,4.691,4.464,6.629,3.155.953-.643,2.4-1.918,2.506-3.119a8.138,8.138,0,0,0-.622-2.954" transform="translate(-226.519 -93.473)" fill="#63caf5"/>
        <path id="Trazado_737108" data-name="Trazado 737108" d="M457.166,141.818c-1.048-1.377-2.859-1.92-3.968-3.288a7.409,7.409,0,0,1-1.49-4.911,25.612,25.612,0,0,0,0-4.777c-.3-1.682-1.067-3.251-1.5-4.9-1.551-5.83-.314-12.488-3.311-17.914a8.578,8.578,0,0,0-12.369-3.07,17.2,17.2,0,0,0-1.992,1.66,15.866,15.866,0,0,0-3.952,6.781c-.72,2.352-.138,4.628.625,6.883.681,2.014,1.4,4.076.893,6.22-.537,2.288-2.17,4.158-3.61,5.939-3.4,4.213-6.116,8.879-3.848,14.356,2.571,6.209,9.475,10.518,15.793,12.026a23.247,23.247,0,0,0,8.849.6,14.959,14.959,0,0,0,8.392-4.069c1.908-2.067,4.662-7.375,1.491-11.542" transform="translate(-207.278 -49.867)" fill="#292939"/>
        <path id="Trazado_737109" data-name="Trazado 737109" d="M457.936,149.376c-1.072-.674-2.886,0-3.97.337-2.651.827-5.262,1.779-7.919,2.591-5.52,1.688-17.307,3.545-18.665-4.876a14.208,14.208,0,0,1,1.129-8.5c2.251-4.591,5.236-8.275,4.244-13.726-.794-4.364-2.74-8.17-1.813-12.738a17.49,17.49,0,0,1,.989-3.2,15.34,15.34,0,0,0-3.257,5.994c-.72,2.352-.138,4.628.625,6.883.681,2.015,1.4,4.076.893,6.22-.537,2.288-2.17,4.157-3.61,5.939-3.4,4.213-6.116,8.879-3.848,14.357,2.571,6.209,9.475,10.518,15.793,12.026a23.248,23.248,0,0,0,8.849.6,16.017,16.017,0,0,0,7.311-3.071,18.179,18.179,0,0,0,2.3-2.81,23.215,23.215,0,0,0,1.112-2.148,9.952,9.952,0,0,0,.585-2.758,1.625,1.625,0,0,0-.753-1.124" transform="translate(-207.323 -53.693)" fill="#21212e"/>
      </g>
    </g>
  </g>
</svg>
