<svg xmlns="http://www.w3.org/2000/svg" width="76" height="76" viewBox="0 0 76 76">
  <g id="Grupo_57260" data-name="Grupo 57260" transform="translate(-392 -3609)">
    <g id="debilidad" transform="translate(331.932 3618)">
      <g id="Grupo_57211" data-name="Grupo 57211" transform="translate(80.556 0.911)">
        <path id="Trazado_101406" data-name="Trazado 101406" d="M107.714,26.382a19.263,19.263,0,0,1-3.229-10.861,8.28,8.28,0,0,0,3.537,0c3.25-.876,6.448-7.324,12.081-7.512s6.726,2.441,6.726,2.441A8.56,8.56,0,0,1,132,9.637c4.632.626,8.7,7.683,4.566,17.377" transform="translate(-103.963 -8)" fill="#565e75"/>
        <path id="Trazado_101407" data-name="Trazado 101407" d="M181.868,83.923a41.075,41.075,0,0,1-5.149-6.405.57.57,0,0,0-.895-.063,24.353,24.353,0,0,1-13.042,7.119A1.706,1.706,0,0,0,161.4,86.25v5.3a10.77,10.77,0,0,0,21.541,0V86.412A3.383,3.383,0,0,0,181.868,83.923Z" transform="translate(-154.404 -69.381)" fill="#fdd4bb"/>
        <path id="Trazado_101408" data-name="Trazado 101408" d="M172.174,195.52a10.77,10.77,0,0,1-10.77-10.77V186.8a10.77,10.77,0,0,0,21.541,0V184.75A10.77,10.77,0,0,1,172.174,195.52Z" transform="translate(-154.403 -164.626)" fill="#f7c4a8"/>
        <path id="Trazado_101409" data-name="Trazado 101409" d="M122.739,169.928v-3.8a3.355,3.355,0,1,0,.18,5.774,10.834,10.834,0,0,1-.18-1.971Z" transform="translate(-115.738 -147.755)" fill="#ebbaa1"/>
        <path id="Trazado_101410" data-name="Trazado 101410" d="M349.191,169.928v-3.8a3.355,3.355,0,1,1-.18,5.774A10.826,10.826,0,0,0,349.191,169.928Z" transform="translate(-320.65 -147.755)" fill="#ebbaa1"/>
        <path id="Trazado_101411" data-name="Trazado 101411" d="M121.125,188.5a3.355,3.355,0,0,1-3.194-2.329,3.354,3.354,0,0,0,4.988,3.858,10.823,10.823,0,0,1-.18-1.944A3.334,3.334,0,0,1,121.125,188.5Z" transform="translate(-115.738 -165.885)" fill="#e8a990"/>
        <path id="Trazado_101412" data-name="Trazado 101412" d="M350.805,188.5a3.334,3.334,0,0,1-1.614-.415,10.838,10.838,0,0,1-.18,1.944A3.354,3.354,0,0,0,354,186.171,3.355,3.355,0,0,1,350.805,188.5Z" transform="translate(-320.65 -165.885)" fill="#e8a990"/>
        <path id="Trazado_101413" data-name="Trazado 101413" d="M122.734,286.343a10.782,10.782,0,0,1-10.089,0,16.032,16.032,0,0,0-12.726,15.686v9.1H135.46v-9.1a16.032,16.032,0,0,0-12.727-15.686Z" transform="translate(-99.919 -254.652)" fill="#adf0ff"/>
        <path id="Trazado_101414" data-name="Trazado 101414" d="M99.919,486H135.46v2.049H99.919Z" transform="translate(-99.919 -431.577)" fill="#8deaf5"/>
        <path id="Trazado_101415" data-name="Trazado 101415" d="M216.343,287.458a10.722,10.722,0,0,1-5.078-1.271c-.01.132-.017.266-.017.4a5.1,5.1,0,0,0,10.19,0c0-.135-.007-.268-.017-.4A10.721,10.721,0,0,1,216.343,287.458Z" transform="translate(-198.572 -254.514)" fill="#ebbaa1"/>
        <path id="Trazado_101416" data-name="Trazado 101416" d="M228.908,217.065a3.481,3.481,0,0,0-3.481,3.481h6.962A3.481,3.481,0,0,0,228.908,217.065Z" transform="translate(-211.137 -193.262)" fill="#f4594e"/>
        <path id="Trazado_101417" data-name="Trazado 101417" d="M340.363,458.367h8.166v5.2h-8.166Z" transform="translate(-312.987 -407.09)" fill="#fdd4bb"/>
        <path id="Trazado_101418" data-name="Trazado 101418" d="M0,0H8.166V5.2H0Z" transform="translate(8.166 56.472) rotate(180)" fill="#fdd4bb"/>
        <path id="Trazado_101419" data-name="Trazado 101419" d="M340.363,486h8.166v2.049h-8.166Z" transform="translate(-312.987 -431.577)" fill="#f7c4a8"/>
        <path id="Trazado_101420" data-name="Trazado 101420" d="M99.919,486h8.166v2.049H99.919Z" transform="translate(-99.919 -431.577)" fill="#f7c4a8"/>
        <path id="Trazado_101421" data-name="Trazado 101421" d="M183.044,78.936s2.711,1.807,2.711,4.2a2.711,2.711,0,1,1-5.421,0C180.333,80.743,183.044,78.936,183.044,78.936Z" transform="translate(-171.177 -70.859)" fill="#adf0ff"/>
        <path id="Trazado_101422" data-name="Trazado 101422" d="M183.044,108.051a2.711,2.711,0,0,1-2.531-1.739,3.43,3.43,0,0,0-.18,1.078,2.711,2.711,0,1,0,5.421,0,3.429,3.429,0,0,0-.18-1.078A2.711,2.711,0,0,1,183.044,108.051Z" transform="translate(-171.177 -95.119)" fill="#8deaf5"/>
      </g>
      <g id="Grupo_57212" data-name="Grupo 57212" transform="translate(78.068 0)">
        <path id="Trazado_101423" data-name="Trazado 101423" d="M218.7,214.668h6.975a.856.856,0,0,0,.856-.856,4.344,4.344,0,1,0-8.688,0A.856.856,0,0,0,218.7,214.668Zm3.488-3.488a2.636,2.636,0,0,1,2.488,1.775H219.7A2.636,2.636,0,0,1,222.19,211.181Z" transform="translate(-201.931 -185.619)"/>
        <path id="Trazado_101424" data-name="Trazado 101424" d="M193.208,162.671c.02-.005.183-.051.436-.151v.119a.856.856,0,0,0,1.713,0v-1.086a6.545,6.545,0,0,0,.615-.532.856.856,0,0,0-1.2-1.222,5.3,5.3,0,0,1-2.017,1.219.856.856,0,0,0,.454,1.652Z" transform="translate(-179.14 -141.388)"/>
        <path id="Trazado_101425" data-name="Trazado 101425" d="M284.095,159.812a.856.856,0,0,0,.011,1.211,6.545,6.545,0,0,0,.615.532v1.086a.856.856,0,1,0,1.713,0v-.119c.253.1.416.145.436.151a.856.856,0,0,0,.455-1.651,5.3,5.3,0,0,1-2.018-1.22A.857.857,0,0,0,284.095,159.812Z" transform="translate(-260.42 -141.39)"/>
        <path id="Trazado_101426" data-name="Trazado 101426" d="M105.889,56.582h-3.9V47.34a.856.856,0,0,0-1.713,0v4.036H93.808V48.325A15.206,15.206,0,0,1,104.839,33.7a5.96,5.96,0,0,0,11.835,0,15.191,15.191,0,0,1,6.116,3.429.856.856,0,0,0,1.159-1.261,16.915,16.915,0,0,0-6.075-3.587,11.683,11.683,0,0,0,4.089-6.035,4.214,4.214,0,0,0,4.635-6.484c2.112-5.243,2.122-10.343.011-14.059a7.654,7.654,0,0,0-5.456-4.059,9.913,9.913,0,0,0-5,.581,5.007,5.007,0,0,0-1.08-.929,10.677,10.677,0,0,0-12.161,1.3.856.856,0,0,0,1.069,1.338,8.678,8.678,0,0,1,5.167-2.22c4.717-.156,5.847,1.784,5.924,1.929a.817.817,0,0,0,.5.484.849.849,0,0,0,.718-.084,7.851,7.851,0,0,1,4.628-.7,5.972,5.972,0,0,1,4.2,3.207c.858,1.51,2.5,5.6.118,11.986a4.191,4.191,0,0,0-2.835-.477v-.14a4.254,4.254,0,0,0-1.355-3.124,40.475,40.475,0,0,1-5.028-6.265,1.427,1.427,0,0,0-2.239-.164,21.379,21.379,0,0,1-5.407,4.235c-.344-2.527-2.941-4.288-3.059-4.367a.856.856,0,0,0-.95,0c-.126.084-3.1,2.1-3.1,4.916a3.55,3.55,0,0,0,.578,1.945c-.224.051-.446.1-.665.142a2.571,2.571,0,0,0-2.073,2.519v.3a4.185,4.185,0,0,0-2.079.142,18.964,18.964,0,0,1-2.686-8.809,8.244,8.244,0,0,0,2.9-.175c1.5-.4,2.9-1.742,4.257-3.036a.856.856,0,1,0-1.182-1.24c-1.2,1.146-2.444,2.331-3.521,2.622a7.473,7.473,0,0,1-3.122-.006.856.856,0,0,0-1.055.82,20.341,20.341,0,0,0,2.926,10.683,4.215,4.215,0,0,0,4.006,7.187,11.683,11.683,0,0,0,4.088,6.035,16.918,16.918,0,0,0-11.543,16.04v9.113a.856.856,0,0,0,.856.856h12.937a.856.856,0,1,0,0-1.712ZM123.164,19.7a2.5,2.5,0,1,1-.855,4.858,11.705,11.705,0,0,0,.095-1.489v-3.25A2.51,2.51,0,0,1,123.164,19.7Zm-19.071-8.949a7.565,7.565,0,0,1,.747-.725,7.579,7.579,0,0,1,.747.725,3.854,3.854,0,0,1,1.112,2.4,1.859,1.859,0,0,1-3.719,0A3.854,3.854,0,0,1,104.093,10.755ZM98.349,24.713a2.5,2.5,0,1,1,.76-4.89v3.25a11.709,11.709,0,0,0,.095,1.489A2.5,2.5,0,0,1,98.349,24.713Zm2.473-1.64V17.759a.855.855,0,0,1,.688-.838c.64-.125,1.3-.284,1.961-.47A3.571,3.571,0,0,0,108.06,14.7,23.457,23.457,0,0,0,114.8,9.787a40.807,40.807,0,0,0,5.087,6.27,2.537,2.537,0,0,1,.8,1.865v5.152a9.935,9.935,0,1,1-19.869,0Zm9.935,11.647a11.59,11.59,0,0,0,4.136-.759,4.248,4.248,0,0,1-8.272,0A11.589,11.589,0,0,0,110.756,34.72Zm-10.48,21.861H93.808V53.089h6.469Z" transform="translate(-90.498 0)"/>
        <path id="Trazado_101427" data-name="Trazado 101427" d="M252.458,335.762a.856.856,0,0,0-.2,1.194,15.1,15.1,0,0,1,2.779,8.763v3.051h-6.469v-4.036a.856.856,0,0,0-1.713,0v9.241H236.637a.856.856,0,1,0,0,1.713h19.25a.856.856,0,0,0,.856-.856v-9.113a16.8,16.8,0,0,0-3.093-9.752.856.856,0,0,0-1.194-.2Zm2.574,18.214h-6.469v-3.493h6.469Z" transform="translate(-217.825 -297.394)"/>
        <path id="Trazado_101428" data-name="Trazado 101428" d="M303.119,132.313a.856.856,0,0,0,.856-.856v-.828a.856.856,0,1,0-1.713,0v.828A.856.856,0,0,0,303.119,132.313Z" transform="translate(-276.737 -114.997)"/>
        <path id="Trazado_101429" data-name="Trazado 101429" d="M281.129,111.9a.856.856,0,0,0,.856-.856v-.828a.856.856,0,1,0-1.713,0v.828A.856.856,0,0,0,281.129,111.9Z" transform="translate(-257.251 -96.909)"/>
        <path id="Trazado_101430" data-name="Trazado 101430" d="M256.564,128.678a.856.856,0,0,0,.856-.856v-.828a.856.856,0,1,0-1.713,0v.828A.856.856,0,0,0,256.564,128.678Z" transform="translate(-235.483 -111.776)"/>
        <path id="Trazado_101431" data-name="Trazado 101431" d="M85.027,276.748a.856.856,0,1,0-.954-1.423,21.289,21.289,0,0,0-5.869,6.157.856.856,0,1,0,1.439.928A19.57,19.57,0,0,1,85.027,276.748Z" transform="translate(-78.068 -243.85)"/>
        <path id="Trazado_101432" data-name="Trazado 101432" d="M376.676,281.483a21.292,21.292,0,0,0-5.869-6.157.856.856,0,1,0-.954,1.423,19.574,19.574,0,0,1,5.383,5.663.856.856,0,0,0,1.439-.928Z" transform="translate(-336.296 -243.85)"/>
      </g>
    </g>
    <rect id="Rectángulo_5540" data-name="Rectángulo 5540" width="76" height="76" transform="translate(392 3609)" fill="none"/>
  </g>
</svg>
