<svg xmlns="http://www.w3.org/2000/svg" width="85" height="92" viewBox="0 0 85 92">
  <g id="Grupo_1054217" data-name="Grupo 1054217" transform="translate(-377 -2637)">
    <rect id="Rectángulo_338875" data-name="Rectángulo 338875" width="85" height="92" rx="10" transform="translate(377 2637)" fill="#ff6e33"/>
    <g id="desgarrador-de-costuras" transform="translate(388.998 2652.499)">
      <path id="Trazado_738813" data-name="Trazado 738813" d="M24,24H50.435V82.97H24Z" transform="translate(-22.983 -22.983)" fill="#0093b9"/>
      <path id="Trazado_738814" data-name="Trazado 738814" d="M144,24h11.184V82.97H144Z" transform="translate(-127.732 -22.983)" fill="#fdc01e"/>
      <path id="Trazado_738815" data-name="Trazado 738815" d="M280,24h26.435V82.97H280Z" transform="translate(-246.448 -22.983)" fill="#0093b9"/>
      <path id="Trazado_738816" data-name="Trazado 738816" d="M280,24h11.184V82.97H280Z" transform="translate(-246.448 -22.983)" fill="#fdc01e"/>
      <path id="Trazado_738817" data-name="Trazado 738817" d="M75.987,16H49.552a1.017,1.017,0,0,0-1.017,1.017v4.067H44.468V17.017A1.017,1.017,0,0,0,43.452,16H17.017A1.017,1.017,0,0,0,16,17.017v58.97A1.017,1.017,0,0,0,17.017,77H43.452a1.017,1.017,0,0,0,1.017-1.017V71.92h4.067v4.067A1.017,1.017,0,0,0,49.552,77H75.987A1.017,1.017,0,0,0,77,75.987V17.017A1.017,1.017,0,0,0,75.987,16ZM48.535,23.117v4.849l-4.067-1.743V23.117Zm0,10.167H44.468V28.435l4.067,1.743Zm2.033-2.235L54.644,32.8a.254.254,0,0,1-.1.488H50.569ZM48.535,45.485H44.468V40.636l4.067,1.743Zm2.033-2.235L54.644,45a.254.254,0,0,1-.1.488H50.569ZM48.535,57.686H44.468V52.837l4.067,1.743Zm2.033-2.234L54.644,57.2a.254.254,0,0,1-.1.488H50.569Zm-6.1,4.268h4.067v4.849l-4.067-1.743Zm-2.033,2.234-4.076-1.747a.254.254,0,0,1,.1-.488h3.976Zm2.033-11.329V47.518h4.067v4.849Zm-2.033-.871-4.076-1.747a.254.254,0,0,1,.1-.488h3.976Zm2.033-11.329V35.318h4.067v4.849Zm-2.033-.871-4.076-1.747a.254.254,0,0,1,.1-.488h3.976Zm0-12.2L38.359,23.6a.254.254,0,0,1,.1-.488h3.976Zm-24.4-7.318H31.251V74.97H18.033Zm24.4,56.937H33.284V18.033h9.151v3.05H38.459a2.288,2.288,0,0,0-.9,4.39l4.877,2.09v5.72H38.459a2.288,2.288,0,0,0-.9,4.39l4.877,2.09v5.72H38.459a2.288,2.288,0,0,0-.9,4.39l4.877,2.09v5.72H38.459a2.288,2.288,0,0,0-.9,4.39l4.877,2.09v5.72h-6.1V71.92h6.1Zm2.033-5.084V65.037l4.067,1.743v3.106Zm6.1-2.234L54.644,69.4a.254.254,0,0,1-.1.488H50.569Zm0,4.268h3.976a2.288,2.288,0,0,0,.9-4.39l-4.877-2.09v-5.72h3.976a2.288,2.288,0,0,0,.9-4.39l-4.877-2.09v-5.72h3.976a2.288,2.288,0,0,0,.9-4.39l-4.877-2.09v-5.72h3.976a2.288,2.288,0,0,0,.9-4.39l-4.877-2.09v-5.72h6.1V21.084h-6.1v-3.05h9.151V74.97H50.569Zm24.4,3.05H61.753V18.033H74.97Z" transform="translate(-16 -16)"/>
      <path id="Trazado_738818" data-name="Trazado 738818" d="M392,56h2.033v2.033H392Z" transform="translate(-344.214 -50.916)"/>
      <path id="Trazado_738819" data-name="Trazado 738819" d="M392,120h2.033v2.033H392Z" transform="translate(-344.214 -106.783)"/>
      <path id="Trazado_738820" data-name="Trazado 738820" d="M392,184h2.033v2.033H392Z" transform="translate(-344.214 -162.649)"/>
      <path id="Trazado_738821" data-name="Trazado 738821" d="M392,248h2.033v2.033H392Z" transform="translate(-344.214 -218.515)"/>
      <path id="Trazado_738822" data-name="Trazado 738822" d="M392,312h2.033v2.033H392Z" transform="translate(-344.214 -274.381)"/>
      <path id="Trazado_738823" data-name="Trazado 738823" d="M392,376h2.033v2.033H392Z" transform="translate(-344.214 -330.247)"/>
      <path id="Trazado_738824" data-name="Trazado 738824" d="M392,440h2.033v2.033H392Z" transform="translate(-344.214 -386.114)"/>
      <path id="Trazado_738825" data-name="Trazado 738825" d="M104,56h2.033v2.033H104Z" transform="translate(-92.816 -50.916)"/>
      <path id="Trazado_738826" data-name="Trazado 738826" d="M104,120h2.033v2.033H104Z" transform="translate(-92.816 -106.783)"/>
      <path id="Trazado_738827" data-name="Trazado 738827" d="M104,184h2.033v2.033H104Z" transform="translate(-92.816 -162.649)"/>
      <path id="Trazado_738828" data-name="Trazado 738828" d="M104,248h2.033v2.033H104Z" transform="translate(-92.816 -218.515)"/>
      <path id="Trazado_738829" data-name="Trazado 738829" d="M104,312h2.033v2.033H104Z" transform="translate(-92.816 -274.381)"/>
      <path id="Trazado_738830" data-name="Trazado 738830" d="M104,376h2.033v2.033H104Z" transform="translate(-92.816 -330.247)"/>
      <path id="Trazado_738831" data-name="Trazado 738831" d="M104,440h2.033v2.033H104Z" transform="translate(-92.816 -386.114)"/>
    </g>
  </g>
</svg>
