<svg id="Grupo_1054207" data-name="Grupo 1054207" xmlns="http://www.w3.org/2000/svg" xmlns:xlink="http://www.w3.org/1999/xlink" width="505" height="466.77" viewBox="0 0 505 466.77">
  <defs>
    <clipPath id="clip-path">
      <rect id="Rectángulo_361776" data-name="Rectángulo 361776" width="505" height="466.769" transform="translate(0 0)" fill="none"/>
    </clipPath>
  </defs>
  <g id="Grupo_1054206" data-name="Grupo 1054206" transform="translate(0 -0.001)" clip-path="url(#clip-path)">
    <path id="Trazado_738704" data-name="Trazado 738704" d="M84.855,810.731c-12.214-28.429-18.146-44.637-50.289-58.5s-45.1,18.01-24.885,39.986,26.813,30.466,26.959,50.491c.2,26.749,6.479,41.622,6.479,41.622h75.806Z" transform="translate(0 -520.584)" fill="#fbe6c6"/>
    <path id="Trazado_738705" data-name="Trazado 738705" d="M300.392,597.368c-17.493-15.4-35.631-72.5-35.386-107.42s-13.581-70.85-43.3-71.55-25.577,38.77-10.369,64.658,6.832,33.6.691,65.895c-12.438,65.411,29.7,105.65,29.7,105.65H298.31Z" transform="translate(-138.746 -290.853)" fill="#fbe6c6"/>
    <path id="Trazado_738706" data-name="Trazado 738706" d="M1103.974,403.281c-19.569-31.271-30.245-94.033-12.235-141.729s35.525-87.9-8.37-97.591c-42.6-9.4-49.868,37.136-51.539,88.048-.813,24.786-16.294,58.842-30.67,91.558-13.9,31.621,3.644,133.993,3.644,133.993h94.284Z" transform="translate(-692.257 -113.134)" fill="#fbe6c6"/>
    <path id="Trazado_738707" data-name="Trazado 738707" d="M337.239,703.3A140.212,140.212,0,0,1,313.7,662.177c-7.771-21.2-10.621-44.333-8.47-68.755,1.782-20.24-4.6-43.565-10.261-59.569a256.319,256.319,0,0,0-12.891-30.262l1.888-.993a258.541,258.541,0,0,1,13,30.513c5.74,16.212,12.2,39.868,10.386,60.5-4.882,55.446,17.655,91.671,31.524,108.329Z" transform="translate(-196.093 -349.392)" fill="#dbbf95"/>
    <path id="Trazado_738708" data-name="Trazado 738708" d="M1332.893,714.95s-18.783-59.846-11.137-83.893,38.3-72.4,24.268-111.245c-8.965-24.813-45.407-19.839-49.032,13.779s-10.223,49.824-18.311,65.747c-30.493,60.03-13.49,115.612-13.49,115.612Z" transform="translate(-876.242 -350.524)" fill="#fbe6c6"/>
    <path id="Trazado_738709" data-name="Trazado 738709" d="M844.667,485.149S825.884,425.3,833.53,401.255s38.3-72.4,24.268-111.245c-8.965-24.813-45.408-19.839-49.033,13.779s-10.223,49.824-18.311,65.747c-30.493,60.03-13.49,115.612-13.49,115.612Z" transform="translate(-536.84 -190.773)" fill="#fbe6c6"/>
    <path id="Trazado_738710" data-name="Trazado 738710" d="M940.54,360.762l-1.924-.923c11.721-24.414,14.532-59.461,14.559-59.812l2.127.163c-.027.355-2.867,35.793-14.763,60.572" transform="translate(-652.501 -208.57)" fill="#dbbf95"/>
    <path id="Trazado_738711" data-name="Trazado 738711" d="M1354.63,729.1c-.012-.126-1.2-12.785-1-28.307.262-20.909,2.767-36.787,7.444-47.194,5.545-12.336,12.388-30.988,17.859-48.677,6-19.409,9.151-33.786,8.639-39.445l2.125-.192c1.2,13.228-15.779,64.945-26.676,89.189-10.889,24.225-6.31,73.925-6.262,74.424Z" transform="translate(-940.99 -392.972)" fill="#dbbf95"/>
    <path id="Trazado_738712" data-name="Trazado 738712" d="M1138.041,499.229c-.026-.476-2.541-47.952,5.385-76.169,7.655-27.254,7.958-75.975,7.457-102.591-.439-23.355,22.968-91.865,23.964-94.77l2.018.692c-.243.708-24.282,71.057-23.849,94.037.5,26.734.193,75.691-7.537,103.209-7.829,27.874-5.334,75-5.308,75.473Z" transform="translate(-790.859 -156.9)" fill="#dbbf95"/>
    <path id="Trazado_738713" data-name="Trazado 738713" d="M125.494,903.956c-.183-.275-18.333-27.821-23.484-59.145-2.615-15.9-13.123-27.328-21.478-34.116a82.629,82.629,0,0,0-17.813-11.1l.825-1.968A83.133,83.133,0,0,1,81.829,809c8.662,7.026,19.559,18.883,22.286,35.465,5.075,30.86,22.974,58.039,23.155,58.31Z" transform="translate(-43.601 -554.491)" fill="#dbbf95"/>
    <rect id="Rectángulo_361763" data-name="Rectángulo 361763" width="493.025" height="2.134" transform="translate(11.975 363.358)" fill="#dbbf95"/>
    <path id="Trazado_738714" data-name="Trazado 738714" d="M545.594,497.285s16.639-15.612,14.571-20.043-14.081-40.077-32.593-50.318-102.408-26.98-135.493-18.315-27.177,7.779-43.13,33.479-20.974,32.875-20.087,37.116,16.51,21.188,16.51,21.188,27.834,45.619,27.538,69.883-8.9,76.529-8.9,76.529h167.2Z" transform="translate(-228.548 -282.38)" fill="#7f669d"/>
    <path id="Trazado_738715" data-name="Trazado 738715" d="M949.1,778.787l-2.464-15.922s.045-.014,0,0h0c-.942.271-11.4,3.214-14.409.768-3.089-2.508-.5-6.722-.4-6.888-.219.087-8.108,3.3-10.73,0-2.658-3.349,1.674-7.09,1.674-7.09s-4.627.983-5.711-2.07,5.613-8.959,10.536-12.7,8.667-8.174,4.627-5.811-9.55,1.969-10.14-1.278,13.193-14.77,13.193-14.77l-1.445-.351-5.054-1.226s-2.838-29.058-1.772-36.826c1.772-12.9,23.83-26,23.83-26s7.879,40.866,19.693,76.611S949.1,778.787,949.1,778.787" transform="translate(-637.436 -450.903)" fill="#f5bc87"/>
    <path id="Trazado_738716" data-name="Trazado 738716" d="M441.265,725.386c-.2,2.758-2.168,6.4-7.976,4.53-2.07,4.53-10.438,4.332-19.5.393-1.873,6.993-10.043,14.673-16.643,18.216-.49,2.265-4.332,4.631-8.073,4.04-.042.028-.08.052-.122.076-16.48,10.536-28.384,6.211-34.408-.076-6.041-6.3-6.829-23.371-4.6-31.643s7.747-32.035,13.131-50.547c6.5,3.852,23.264,22.715,26,25.824.25.281.382.434.382.434a27.114,27.114,0,0,0,4.728-6.7c1.379-3.248,6.006-4.134,6.795-5.315s.1-3.547,1.379-7.385,5.02-5.121,8.664-2.956,14.576,17.035,15.559,21.86-3.543,4.332-3.543,4.332a45.344,45.344,0,0,1,9.647,9.059c5.221,6.3,1.084,9.258,1.084,9.258s7.68,3.839,7.486,6.6" transform="translate(-242.481 -466.027)" fill="#f5bc87"/>
    <path id="Trazado_738717" data-name="Trazado 738717" d="M626.662,491.928c-12.843,0-23.529-5.07-30.232-9.323a61.213,61.213,0,0,1-11.6-9.34l1.577-1.437c.164.18,16.667,17.967,40.258,17.967,18.784,0,26.639-7.68,26.716-7.758l1.52,1.5c-.337.343-8.474,8.394-28.236,8.394" transform="translate(-406.556 -328.001)" fill="#6b4d8c"/>
    <path id="Trazado_738718" data-name="Trazado 738718" d="M400.647,820.268c-9.645-5.289-17.287-1.894-17.356-1.855l-1.091-1.833c1.531-.919,9.809-3.482,19.473,1.817Z" transform="translate(-265.695 -566.669)" fill="#ba8552"/>
    <path id="Trazado_738719" data-name="Trazado 738719" d="M945.563,613.9c-.409-6.568.753-55.045.8-57.106l2.133.052c-.012.5-1.209,50.445-.806,56.921Z" transform="translate(-657.27 -387.07)" fill="#6b4d8c"/>
    <path id="Trazado_738720" data-name="Trazado 738720" d="M947.745,662.657l-1.923-.925c7.491-15.583,18.039-22.472,25.568-25.508,8.964-3.613,15.866-2.862,15.931-2.853L987,635.481a34.347,34.347,0,0,0-14.811,2.724c-10.442,4.21-18.665,12.437-24.44,24.452" transform="translate(-657.511 -440.254)" fill="#6b4d8c"/>
    <path id="Trazado_738721" data-name="Trazado 738721" d="M966.49,620.007l-1.755-1.214c5.678-8.209,22.536-13.95,23.251-14.19l.68,2.023c-.169.057-16.9,5.755-22.176,13.381" transform="translate(-670.658 -420.304)" fill="#6b4d8c"/>
    <path id="Trazado_738722" data-name="Trazado 738722" d="M486.459,608.534l-2.134-.033c.247-15.938-5.487-42.914-5.545-43.185l2.087-.447c.058.273,5.842,27.483,5.592,43.665" transform="translate(-332.835 -392.682)" fill="#6b4d8c"/>
    <path id="Trazado_738723" data-name="Trazado 738723" d="M377.725,664.209a127.9,127.9,0,0,0-34.743-28.59l.98-1.9a130.329,130.329,0,0,1,35.4,29.118Z" transform="translate(-238.432 -440.547)" fill="#6b4d8c"/>
    <path id="Trazado_738724" data-name="Trazado 738724" d="M411.065,636.632c-7.455-10.8-22.554-19.785-22.706-19.875l1.084-1.838c.636.375,15.653,9.31,23.378,20.5Z" transform="translate(-269.977 -427.476)" fill="#6b4d8c"/>
    <path id="Trazado_738725" data-name="Trazado 738725" d="M642.942,732.641c.364,1.743-38.529,18.052-38.529,18.052l-5.809-13.03-16.441-36.876a2.538,2.538,0,0,1,1.653-3.48c2.11-.583,4.721-1.563,5.49-2.984.727-1.337,6.389-5.884,9.884-6.245s9.767-6.93,11.471-7.233,7.609-1.061,9.2,0,3.751,5.869,5.34,10.413c.82,2.341,5.409,12.8,9.715,22.619,4.048,9.238,7.849,17.919,8.027,18.764" transform="translate(-404.551 -472.926)" fill="#e8a7ca"/>
    <path id="Trazado_738726" data-name="Trazado 738726" d="M634.915,713.877c-3.245,6.374-8.357,12.285-16.191,13.839-8.555,1.7-15.732,6.422-20.119,9.947l-10.41-23.347-6.031-13.529a2.538,2.538,0,0,1,1.653-3.48c2.11-.583,4.721-1.563,5.49-2.984.727-1.337,6.389-5.884,9.884-6.245s9.767-6.93,11.471-7.233,7.609-1.061,9.2,0,3.751,5.869,5.34,10.413c.219.619.7,1.812,1.373,3.411,1.86,4.429,5.178,11.99,8.342,19.209" transform="translate(-404.551 -472.926)" fill="#e880b7"/>
    <path id="Trazado_738727" data-name="Trazado 738727" d="M626.573,694.668a13.325,13.325,0,0,1-7.961,1.956c-10.905-.255-22.433,4.231-27.8,14.253a13.532,13.532,0,0,1-2.618,3.438l-6.031-13.529a2.538,2.538,0,0,1,1.653-3.48c2.11-.583,4.721-1.563,5.49-2.984.727-1.337,6.389-5.884,9.884-6.245s9.767-6.93,11.471-7.233,7.609-1.061,9.2,0,3.751,5.869,5.34,10.413c.219.619.7,1.812,1.373,3.411" transform="translate(-404.551 -472.926)" fill="#d968a4"/>
    <path id="Trazado_738728" data-name="Trazado 738728" d="M642.471,740.465s-5.694,0-8.242,1.191-31.851,15.666-31.851,15.666l7.269,15.756s29.563-15.457,31.364-16.027a59.362,59.362,0,0,0,7.044-3.779Z" transform="translate(-418.757 -514.751)" fill="#ffd2a8"/>
    <rect id="Rectángulo_361764" data-name="Rectángulo 361764" width="2.134" height="46.948" transform="matrix(0.915, -0.403, 0.403, 0.915, 206.916, 210.129)" fill="#c95c98"/>
    <path id="Trazado_738729" data-name="Trazado 738729" d="M671.723,357.69s-4.549,21.6-39.268,19.331c-30.382-1.987-39.3-25.347-39.3-25.347a41.743,41.743,0,0,1,14.861-18.779c6.857-4.891,16.573-8.816,30.093-8.816,21.02,0,28.947,11.561,31.9,21.124a38.249,38.249,0,0,1,1.706,12.488" transform="translate(-412.349 -225.29)" fill="#f5bc87"/>
    <path id="Trazado_738730" data-name="Trazado 738730" d="M666.427,421.554c-.409,0-.822-.006-1.245-.016-11.336-.294-17.955-4.538-21.512-8.046a20.264,20.264,0,0,1-5.11-7.778l2.043-.616a18.585,18.585,0,0,0,4.652,6.96c4.705,4.59,11.615,7.131,19.983,7.348,18.074.471,22.44-10.013,22.482-10.118l1.984.786c-.189.479-4.767,11.482-23.276,11.482" transform="translate(-443.91 -281.612)" fill="#c95c98"/>
    <path id="Trazado_738731" data-name="Trazado 738731" d="M655.08,426.661q-.637,0-1.29-.015c-12.416-.294-19.962-5.679-24.106-10.145a28.571,28.571,0,0,1-6.1-9.795l2.034-.645a27,27,0,0,0,5.694,9.059c5.616,6.012,13.195,9.172,22.526,9.393,10.407.248,16.885-2.724,20.49-5.258a17.749,17.749,0,0,0,5.382-5.6l1.905.96c-.252.5-6.281,12.046-26.538,12.046" transform="translate(-433.5 -282.283)" fill="#c95c98"/>
    <path id="Trazado_738732" data-name="Trazado 738732" d="M703.907,345.2c-2.4,1.824-5.926,3.137-10.9,3.693-31.775,3.543-50.286-13-50.286-13l-.813-3c6.857-4.891,16.573-8.816,30.093-8.816,21.02,0,28.947,11.561,31.9,21.124" transform="translate(-446.24 -225.29)" fill="#e8a467"/>
    <path id="Trazado_738733" data-name="Trazado 738733" d="M584.66,1.369s-25.166-6.893-41.1,10.241c-19.609,21.079-9.256,43.13-9.059,50.219S519.135,86.25,520.71,102.792s4.727,23.436,4.727,23.436,32.692,1.773,36.04-3.939,1.625-22.648,4.062-23.829,39.921-2.953,38.017,6.992-4.464,20.185,3.61,30.229,7.681,21.072,4.924,32.692,2.757,24.617,7.09,27.965,29.344-11.422,29.541-19.5-15.164-26.784-10.634-39.781,12.309-21.663,2.856-37.024-16.838-35.5-12.407-49.209S626.171-4.636,584.66,1.369" transform="translate(-361.906 0.001)" fill="#875931"/>
    <path id="Trazado_738734" data-name="Trazado 738734" d="M628.775,78.792C622.1,89.024,604.4,96.983,595.388,100.517a11.232,11.232,0,0,0-6.985,8.5,56.877,56.877,0,0,0-.836,9.748c0,26.756,18.45,48.447,41.209,48.447s41.209-21.691,41.209-48.447a57.021,57.021,0,0,0-.615-8.371,11.218,11.218,0,0,0-8.194-9.126c-7.779-2.113-21.226-7.735-32.4-22.481" transform="translate(-408.46 -54.774)" fill="#f5bc87"/>
    <path id="Trazado_738735" data-name="Trazado 738735" d="M834.605,179.909c0,7.273-5.015,13.169-11.2,13.169s-11.2-5.9-11.2-13.169,5.016-13.169,11.2-13.169,11.2,5.9,11.2,13.169" transform="translate(-564.621 -115.913)" fill="#f5bc87"/>
    <path id="Trazado_738736" data-name="Trazado 738736" d="M578.809,179.909c0,7.273-5.015,13.169-11.2,13.169s-11.2-5.9-11.2-13.169,5.016-13.169,11.2-13.169,11.2,5.9,11.2,13.169" transform="translate(-386.798 -115.913)" fill="#f5bc87"/>
    <path id="Trazado_738737" data-name="Trazado 738737" d="M653.32,187.6c0,2.646-1.763,4.792-3.939,4.792s-3.939-2.146-3.939-4.792,1.764-4.792,3.939-4.792,3.939,2.146,3.939,4.792" transform="translate(-448.694 -127.083)" fill="#664325"/>
    <path id="Trazado_738738" data-name="Trazado 738738" d="M774.78,187.6c0,2.646-1.763,4.792-3.939,4.792s-3.939-2.146-3.939-4.792,1.763-4.792,3.939-4.792,3.939,2.146,3.939,4.792" transform="translate(-533.13 -127.083)" fill="#664325"/>
    <path id="Trazado_738739" data-name="Trazado 738739" d="M772.578,151.2c.754-2.045-6.3-5.12-12.112-5.613s-6.7,5.219-2.856,6.794,13.588,2.56,14.967-1.182" transform="translate(-525.053 -101.19)" fill="#664325"/>
    <path id="Trazado_738740" data-name="Trazado 738740" d="M629.96,145.389c-.754-2.045,6.3-5.12,12.112-5.613s6.7,5.219,2.856,6.794-13.589,2.56-14.967-1.181" transform="translate(-437.893 -97.148)" fill="#664325"/>
    <path id="Trazado_738741" data-name="Trazado 738741" d="M696.723,289.532a16.49,16.49,0,0,1-4.916-.766,19.559,19.559,0,0,1-7-3.924l1.461-1.555c.4.369,9.8,8.952,20.256.233l1.367,1.639a17.171,17.171,0,0,1-11.172,4.373" transform="translate(-476.063 -196.933)" fill="#ba8552"/>
    <path id="Trazado_738742" data-name="Trazado 738742" d="M708.9,232.509c-2.093-.846-3.234-2.023-3.392-3.5-.281-2.625,2.835-4.828,3.191-5.07l1.2,1.764-.6-.882.6.881c-.791.543-2.388,2.011-2.271,3.082.085.784,1.173,1.381,2.069,1.744Z" transform="translate(-490.442 -155.678)" fill="#ba8552"/>
    <path id="Trazado_738743" data-name="Trazado 738743" d="M584.562,200.19a61.339,61.339,0,0,1,0-17.973l2.1.36a60.294,60.294,0,0,0,0,17.279Z" transform="translate(-405.911 -126.672)" fill="#ba8552"/>
    <path id="Trazado_738744" data-name="Trazado 738744" d="M855.537,200.19l-2.108-.334a60.313,60.313,0,0,0,0-17.279l2.1-.36a61.312,61.312,0,0,1,0,17.973" transform="translate(-593.281 -126.672)" fill="#ba8552"/>
    <path id="Trazado_738745" data-name="Trazado 738745" d="M788.112,235.964c.748-3.433-5.478-4.49-10.4-4.392s-8.819,2.911-6.893,6.572c2.4,4.555,15.78,4.772,17.294-2.18" transform="translate(-535.503 -160.978)" fill="#e8a467"/>
    <path id="Trazado_738746" data-name="Trazado 738746" d="M609.507,235.964c-.748-3.433,5.477-4.49,10.4-4.392s8.818,2.911,6.893,6.572c-2.4,4.555-15.78,4.772-17.294-2.18" transform="translate(-423.67 -160.978)" fill="#e8a467"/>
    <path id="Trazado_738747" data-name="Trazado 738747" d="M719.241,27.474c-.133-10.335,1.894-15.508,1.98-15.723l1.98.794-.99-.4.991.4c-.019.05-1.954,5.048-1.828,14.9Z" transform="translate(-499.993 -8.169)" fill="#634021"/>
    <path id="Trazado_738748" data-name="Trazado 738748" d="M790.2,62.029c-6.518-20.1-22.471-25.352-24.269-25.884l-.033-.01.613-2.044-.307,1.022.332-1.014c1.908.565,18.839,6.129,25.693,27.272Z" transform="translate(-532.431 -23.699)" fill="#634021"/>
    <path id="Trazado_738749" data-name="Trazado 738749" d="M591.877,55.571l-2-.756c5.234-13.814,15.432-22.356,29.493-24.7l.351,2.1c-13.269,2.213-22.9,10.288-27.848,23.352" transform="translate(-410.07 -20.934)" fill="#634021"/>
    <path id="Trazado_738750" data-name="Trazado 738750" d="M861.391,431.839c-4.763-4.168-6.287-13.85-3.884-24.667,2.9-13.037-.114-18-3.061-20.864l1.487-1.53c4.968,4.831,6.1,11.88,3.657,22.856-2.2,9.911-.914,18.993,3.206,22.6Z" transform="translate(-593.988 -267.487)" fill="#634021"/>
    <path id="Trazado_738751" data-name="Trazado 738751" d="M564.881,326.57c-6.193-11.147,1.806-20.9,1.887-21l1.635,1.371-.818-.686.819.684c-.294.352-7.128,8.746-1.659,18.59Z" transform="translate(-391.057 -212.427)" fill="#634021"/>
    <path id="Trazado_738752" data-name="Trazado 738752" d="M508.063,731.749c.682,2.68-2.511,6.55-8.319,4.678-2.07,4.53-10.438,4.332-19.5.392-1.872,6.993-10.043,14.673-16.643,18.217-.49,2.265-4.332,4.63-8.073,4.04-.042.028-.08.052-.122.076a25.66,25.66,0,0,1-8.334-9.615c-2.616-5.225-3.086-11.252-2.376-17.053.59-4.821.59-10.828,7.385-11.277-.985-8.413.584-14,7.451-24.824,3.413-5.383,7.122-4.069,7.911-5.25s.1-3.547,1.379-7.385,5.02-5.12,8.663-2.956,14.576,17.036,15.559,21.861-3.543,4.332-3.543,4.332a36.264,36.264,0,0,1,10.655,8.963c5.221,6.3,1.258,9.255,1.258,9.255s5.6,2.413,6.647,6.548" transform="translate(-308.935 -472.538)" fill="#524266"/>
    <path id="Trazado_738753" data-name="Trazado 738753" d="M465.409,878.33c-12.527-2.212-15.008-21.249-15.107-22.058l2.118-.261c.023.183,2.387,18.28,13.361,20.218Z" transform="translate(-313.038 -595.076)" fill="#36254a"/>
    <path id="Trazado_738754" data-name="Trazado 738754" d="M489.534,840.386c-11.244-2.167-18.659-14.683-18.969-15.214l1.843-1.075c.071.122,7.246,12.212,17.53,14.195Z" transform="translate(-327.124 -572.89)" fill="#36254a"/>
    <path id="Trazado_738755" data-name="Trazado 738755" d="M526.438,716.1c-1.7-1.729-2.808-2.108-3.588-2.245l.37-2.1a8.747,8.747,0,0,1,4.741,2.853Z" transform="translate(-363.472 -494.794)" fill="#36254a"/>
    <path id="Trazado_738756" data-name="Trazado 738756" d="M562.536,746.392c-2.147-1.651-10.358-8.013-10.441-8.077l1.307-1.687c.083.064,8.29,6.424,10.434,8.072Z" transform="translate(-383.802 -512.084)" fill="#36254a"/>
    <path id="Trazado_738757" data-name="Trazado 738757" d="M551.874,781.881c-6.167-1.951-19.356-11.792-28.741-19.024-.862-.664-1.485-1.144-1.72-1.314l1.246-1.732c.264.19.866.654,1.776,1.355,5.333,4.11,21.562,16.616,28.083,18.679Z" transform="translate(-362.472 -528.201)" fill="#36254a"/>
    <path id="Trazado_738758" data-name="Trazado 738758" d="M543.694,820.917c-8.054-4.5-29.54-16.384-32.2-17.246l.657-2.03c3.409,1.1,31.4,16.749,32.589,17.414Z" transform="translate(-355.574 -557.279)" fill="#36254a"/>
    <path id="Trazado_738759" data-name="Trazado 738759" d="M525.316,848.683c-4.011-1.487-14.944-7.234-15.548-8.039l1.707-1.281a.827.827,0,0,0-.137-.146,121.753,121.753,0,0,0,14.72,7.466Z" transform="translate(-354.377 -583.401)" fill="#36254a"/>
    <path id="Trazado_738760" data-name="Trazado 738760" d="M809.852,782.449s-1.56-24.946-4.182-28.949-22.06-4.925-25.37-4.937-9.638,5.418-9.654,6.346.23,28.044.23,28.044l7.261-.14s-1.042-26.086.081-27.676,17.186-.137,19.351,1.291S802.3,782.4,802.3,782.4Z" transform="translate(-535.733 -520.38)" fill="#ffd2a8"/>
    <path id="Trazado_738761" data-name="Trazado 738761" d="M873.686,776.65s1.575-24.945-.525-29.245-21.27-7.648-24.552-8.075-10.24,4.169-10.372,5.088-3.282,27.852-3.282,27.852l7.221.77s2.232-26.011,3.545-27.448,17.068,2.016,19.038,3.7,1.444,26.366,1.444,26.366Z" transform="translate(-580.439 -513.943)" fill="#ffd2a8"/>
    <path id="Trazado_738762" data-name="Trazado 738762" d="M713.508,843.2s-42.115-12.242-83.669-5.743l-.788,8.135-21.582,2.4a830.3,830.3,0,0,0-14.313,137.172c23.068,10.218,38.541,13.052,38.541,13.052l104.754-11.808Z" transform="translate(-412.346 -580.856)" fill="#ffd2a8"/>
    <path id="Trazado_738763" data-name="Trazado 738763" d="M838.77,1008.926c1.959,19.644-10.315,36.95-27.415,38.656s-32.551-12.836-34.51-32.48,10.315-36.95,27.415-38.656,32.551,12.836,34.51,32.48" transform="translate(-539.899 -678.705)" fill="#fbe6c6"/>
    <path id="Trazado_738764" data-name="Trazado 738764" d="M706.757,1030.286c-5.033-29.012-2.647-143.8-2.622-144.955l2.133.046c-.025,1.154-2.407,115.735,2.591,144.544Z" transform="translate(-489.088 -615.458)" fill="#b07f52"/>
    <rect id="Rectángulo_361765" data-name="Rectángulo 361765" width="38.949" height="2.134" transform="matrix(0.787, -0.617, 0.617, 0.787, 184.732, 398.737)" fill="#b07f52"/>
    <path id="Trazado_738765" data-name="Trazado 738765" d="M866.616,749.613l-2.111-.312c.9-6.067,2.389-7.7,2.679-7.964l1.442,1.573a.3.3,0,0,0,.031-.03c-.012.013-1.249,1.392-2.04,6.733" transform="translate(-600.981 -515.358)" fill="#b07f52"/>
    <path id="Trazado_738766" data-name="Trazado 738766" d="M619.437,1378.719a103.92,103.92,0,0,1-17.849-1.779c-9.111-1.756-14.185-4.312-15.081-7.6-1.52-5.574-13.089-5.357-38.447-2.764-15.576,1.594-25.505-.289-27.239-5.164-.871-2.448.611-5.153,4.064-7.423,2-1.313,2.855-2.774,2.623-4.467-.544-3.962-6.821-8.507-12.342-10.267l.648-2.033c5.279,1.683,13.054,6.521,13.808,12.009.241,1.756-.181,4.316-3.564,6.541-2.526,1.661-3.732,3.5-3.226,4.925,1.079,3.033,9.231,5.37,25.012,3.757,26.149-2.675,38.692-3.12,40.722,4.325.636,2.332,5.53,4.542,13.426,6.064a96.819,96.819,0,0,0,18.887,1.717l.076,2.133c-.465.017-.973.025-1.519.025" transform="translate(-358.13 -929.603)" fill="#b07f52"/>
    <path id="Trazado_738767" data-name="Trazado 738767" d="M380.893,1240.149h-26.6s-16.487.9-16.487,18.264,9.432,16.995,15.071,17.592a143.551,143.551,0,0,0,29.433,0c5.647-.486,15.071-.224,15.071-17.592s-16.487-18.264-16.487-18.264" transform="translate(-234.834 -862.119)" fill="#875931"/>
    <path id="Trazado_738768" data-name="Trazado 738768" d="M401.315,1255.836a67.866,67.866,0,0,1-17.677-2.512l.615-2.043c.18.054,18.1,5.335,30.589.039l.833,1.964a37.121,37.121,0,0,1-14.36,2.552" transform="translate(-266.695 -869.857)" fill="#b07f52"/>
    <path id="Trazado_738769" data-name="Trazado 738769" d="M454.236,1294.551l-2.125-.2c1.4-15.079-7.75-22.016-7.842-22.084l1.266-1.717c.418.308,10.216,7.733,8.7,24" transform="translate(-308.844 -883.254)" fill="#b07f52"/>
    <path id="Trazado_738770" data-name="Trazado 738770" d="M378.956,1276.339c-20.368-1.725-29.06-8.384-29.421-8.667l1.318-1.678-.658.839.657-.84c.084.065,8.628,6.556,28.284,8.22Z" transform="translate(-242.988 -880.085)" fill="#b07f52"/>
    <path id="Trazado_738771" data-name="Trazado 738771" d="M379.965,1301.644c-24.731,0-34.7-9.469-35.114-9.875l1.49-1.528c.1.093,9.858,9.268,33.635,9.268h.436l.01,2.134h-.457" transform="translate(-239.731 -896.942)" fill="#b07f52"/>
    <path id="Trazado_738772" data-name="Trazado 738772" d="M379.928,1332.409c-20.045,0-29.843-6.866-30.274-7.176l1.244-1.734c.107.076,10.959,7.626,32.813,6.694l.091,2.132q-2,.085-3.873.083" transform="translate(-243.07 -920.061)" fill="#b07f52"/>
    <path id="Trazado_738773" data-name="Trazado 738773" d="M479.061,1289.932l-2.125-.2c1.4-15.017-7.466-21.8-7.844-22.086l1.269-1.716c.418.308,10.216,7.733,8.7,24" transform="translate(-326.1 -880.043)" fill="#b07f52"/>
    <path id="Trazado_738774" data-name="Trazado 738774" d="M503.172,1281.323l-2.125-.2c1.252-13.435-6.671-19.508-7.009-19.76l1.268-1.716c.378.279,9.234,6.989,7.865,21.673" transform="translate(-343.442 -875.675)" fill="#b07f52"/>
    <path id="Trazado_738775" data-name="Trazado 738775" d="M971.1,889.05c-1.643,3.727-5.447,6.048-9.3,7.361s-7.945,1.858-11.748,3.307a37.214,37.214,0,0,0-3.408,1.528h0c-.941.271-11.4,3.213-14.409.768-3.088-2.508-.5-6.722-.4-6.888-.219.087-8.108,3.3-10.731,0-2.657-3.349,1.674-7.09,1.674-7.09s-4.627.983-5.711-2.07,5.614-8.959,10.536-12.7,12.113-6.4,21.367-11.721c-4.725-1.376-12.7,3.547-16.74,5.909s-9.549,1.97-10.14-1.278S935.277,851.4,935.277,851.4s7.382-3.88,11.543-3.717a16.96,16.96,0,0,1,10.234,4.415,34.313,34.313,0,0,1,6.927,8.938,71.544,71.544,0,0,1,6.927,16.511c1.053,3.773,1.765,7.92.188,11.5" transform="translate(-637.435 -589.284)" fill="#524266"/>
    <path id="Trazado_738776" data-name="Trazado 738776" d="M941.182,941.05l-.922-1.924c.093-.045,9.419-4.505,14.777-6.6,5.315-2.074,20.448-8.2,20.6-8.266l.8,1.978c-.152.062-15.3,6.2-20.626,8.276-5.284,2.062-14.539,6.489-14.632,6.533" transform="translate(-653.644 -642.523)" fill="#36254a"/>
    <path id="Trazado_738777" data-name="Trazado 738777" d="M973.2,974.555l-.692-2.018c.2-.068,19.824-6.805,26.209-9.966l.946,1.912c-6.508,3.222-25.652,9.794-26.463,10.072" transform="translate(-676.062 -669.154)" fill="#36254a"/>
    <path id="Trazado_738778" data-name="Trazado 738778" d="M1021.108,1003.25l-.369-2.1a54.5,54.5,0,0,0,17.917-7.228l1.165,1.788a55.657,55.657,0,0,1-18.714,7.542" transform="translate(-709.591 -690.947)" fill="#36254a"/>
    <path id="Trazado_738779" data-name="Trazado 738779" d="M1074.613,909.7l-2.1-.377c2.456-13.7-8.1-29.683-8.207-29.843l1.774-1.186c.456.682,11.139,16.871,8.533,31.405" transform="translate(-739.878 -610.565)" fill="#36254a"/>
    <path id="Trazado_738780" data-name="Trazado 738780" d="M1036.849,1286.251l-152.1,9.393a3.354,3.354,0,0,0-3.148,3.348v7.478a3.355,3.355,0,0,0,2.3,3.183l60.855,20.25a3.35,3.35,0,0,0,1.374.157l147.568-13.915a3.354,3.354,0,0,0,3.039-3.34v-7.453a3.354,3.354,0,0,0-2.451-3.23l-56.317-15.753a3.351,3.351,0,0,0-1.111-.118" transform="translate(-612.862 -894.163)" fill="#875931"/>
    <path id="Trazado_738781" data-name="Trazado 738781" d="M1161.106,1185.58c0,5.663-.023,9.827-.07,10.395-.164,1.99-10.12,2.655-23.889,5.639s-33.848,4.978-33.848,4.978-34.84-1-35.5-1.493c-.222-.167-.445-6.177-.641-14.12-.106-4.27-.2-9.1-.293-13.872-.237-12.988-.4-25.6-.4-25.6a38.428,38.428,0,0,0,11.448-.331c5.309-1.162,12.61-4.647,17.091-4.314s6.848,1.659,12.467,1.659,13.746-2.367,22.042-1.683,14.144,1.364,17.389-.281c10.316-5.227,14.132,1.132,14.132,1.132s.023,6.751.047,15.206c.015,7.378.029,16.055.023,22.68" transform="translate(-741.38 -795.626)" fill="#e880b7"/>
    <path id="Trazado_738782" data-name="Trazado 738782" d="M1162.675,1279.267c0,5.663-.023,9.827-.07,10.395-.164,1.99-10.12,2.655-23.889,5.639s-33.848,4.978-33.848,4.978-34.84-1-35.5-1.493c-.222-.167-.445-6.178-.641-14.12,8.01,2.932,18.647,2.382,27.819-.149,11.726-3.234,21.319-.454,32.3,2.13s20.084-1.466,26.962-5.282a22.307,22.307,0,0,1,6.871-2.1" transform="translate(-742.948 -889.312)" fill="#e8a7ca"/>
    <path id="Trazado_738783" data-name="Trazado 738783" d="M1161.083,1162.711c-17.313,2.523-40.86,2.359-47.927-.579-10.436-4.34-18.083,8.642-36.906,13.225a64.5,64.5,0,0,1-9.388,1.563c-.237-12.988-.4-25.6-.4-25.6a38.419,38.419,0,0,0,11.448-.331c5.309-1.162,12.61-4.647,17.091-4.313s6.848,1.659,12.467,1.659,13.746-2.368,22.042-1.683,14.144,1.364,17.389-.281c10.316-5.226,14.132,1.133,14.132,1.133s.023,6.751.047,15.206" transform="translate(-741.38 -795.494)" fill="#d968a4"/>
    <path id="Trazado_738784" data-name="Trazado 738784" d="M1065.79,1210.54h34.941l60.419-7.771.22,15.919-60.639,9.441-34.734-1.1Z" transform="translate(-740.909 -836.133)" fill="#ffd2a8"/>
    <rect id="Rectángulo_361766" data-name="Rectángulo 361766" width="2.134" height="53.276" transform="translate(358.755 355.409) rotate(-1.365)" fill="#c95c98"/>
    <rect id="Rectángulo_361767" data-name="Rectángulo 361767" width="2.134" height="51.278" transform="translate(370.709 355.41) rotate(-1.418)" fill="#c95c98"/>
    <rect id="Rectángulo_361768" data-name="Rectángulo 361768" width="2.134" height="49.736" transform="translate(382.662 355.411) rotate(-1.462)" fill="#c95c98"/>
    <rect id="Rectángulo_361769" data-name="Rectángulo 361769" width="2.134" height="47.407" transform="translate(394.615 355.412) rotate(-1.534)" fill="#c95c98"/>
    <rect id="Rectángulo_361770" data-name="Rectángulo 361770" width="2.134" height="47.358" transform="translate(406.569 353.258) rotate(-1.536)" fill="#c95c98"/>
    <path id="Trazado_738785" data-name="Trazado 738785" d="M1099.634,1250.423l-.222-.016-36.41-2.515.147-2.128,36.188,2.5,11.667-4.151.715,2.011Z" transform="translate(-738.971 -864.874)" fill="#b07f52"/>
    <rect id="Rectángulo_361771" data-name="Rectángulo 361771" width="11.874" height="2.134" transform="translate(372.461 383.404) rotate(-1.843)" fill="#b07f52"/>
    <rect id="Rectángulo_361772" data-name="Rectángulo 361772" width="11.868" height="2.134" transform="translate(384.363 374.81)" fill="#b07f52"/>
    <rect id="Rectángulo_361773" data-name="Rectángulo 361773" width="12.836" height="2.134" transform="matrix(0.937, -0.349, 0.349, 0.937, 395.859, 380.014)" fill="#b07f52"/>
    <rect id="Rectángulo_361774" data-name="Rectángulo 361774" width="12.844" height="2.134" transform="translate(408.193 378.808) rotate(-8.521)" fill="#b07f52"/>
    <path id="Trazado_738786" data-name="Trazado 738786" d="M1114.389,1229.561a2.717,2.717,0,0,1-1.946-.824c-6.654-6.791-5.933-8.83-5.7-9.5a2.36,2.36,0,0,1,2.181-1.509c3.7-.43,5.213,3.265,5.878,6.235,1.137-3.277,2.44-6.92,4.882-7.444a3.535,3.535,0,0,1,3.329,1.371,3.205,3.205,0,0,1,.912,2.509c-.221,2.721-3.685,5.367-6.469,7.494-.5.384-.976.745-1.347,1.049a2.719,2.719,0,0,1-1.724.619m-4.95-9.728a2.261,2.261,0,0,0-.264.016.884.884,0,0,0-.43.121c-.119.325.44,2.2,4.313,6.327-.316-2.217-1.141-6.463-3.618-6.463m10.814-1.238a.585.585,0,0,0-.118.012c-1.31.281-2.653,4.152-3.374,6.231-.16.463-.3.873-.436,1.238,2.068-1.581,5.337-4.12,5.478-5.849a1.072,1.072,0,0,0-.338-.872,2.067,2.067,0,0,0-1.212-.76" transform="translate(-769.28 -845.649)" fill="#b07f52"/>
    <path id="Trazado_738787" data-name="Trazado 738787" d="M957.579,1344.941l-.191-.057-57.655-17.228.611-2.044,57.464,17.171,144.891-11.35.167,2.127Z" transform="translate(-625.471 -921.53)" fill="#b07f52"/>
    <rect id="Rectángulo_361775" data-name="Rectángulo 361775" width="2.134" height="11.033" transform="translate(331.156 422.332)" fill="#b07f52"/>
    <path id="Trazado_738788" data-name="Trazado 738788" d="M1458.358,1415.7l-.426-2.091c.272-.055,27.463-5.556,50.66-7.113l.143,2.129c-23.052,1.548-50.106,7.02-50.377,7.075" transform="translate(-1013.516 -977.762)" fill="#c95c98"/>
    <path id="Trazado_738789" data-name="Trazado 738789" d="M1416.4,1402.28l-.269-2.117c9.839-1.247,22.584-3.48,33.829-5.45,11.786-2.065,22.917-4.016,28.6-4.466l.169,2.127c-5.584.442-16.668,2.384-28.4,4.44-11.268,1.975-24.04,4.212-33.929,5.466" transform="translate(-984.456 -966.462)" fill="#c95c98"/>
    <path id="Trazado_738790" data-name="Trazado 738790" d="M1428.373,1380.917l-.221-2.123c16.782-1.741,50.6-12.845,50.937-12.957l.668,2.027c-.342.113-34.374,11.288-51.384,13.053" transform="translate(-992.814 -949.494)" fill="#c95c98"/>
    <path id="Trazado_738791" data-name="Trazado 738791" d="M1251.925,1389.457c-3.945-1.046-10.2-.539-11.9-2.583a12.061,12.061,0,0,0-14.965-3.176c-4.144,1.948-6.864,2.947-9.591,2.309s-8.878.253-10.247,2.262-7.184,1.927-12.019,1.692-5.49,2.718-9.922,2.676c-4.283-.041-10.791,10.788.219,12.337a.386.386,0,0,1,.15.712c-2.2,1.361-4.549.728-6.35,1.6-4,1.943-9.367,5.376-9.3,8.318.122,5.276,6.368,7.108,9.465,5.666s4.436-2.622,7.563-1.622a8.985,8.985,0,0,0,5.2-.316.386.386,0,0,1,.41.619,3.555,3.555,0,0,0-.433,4.612c2.309,3.381,5.729,3.625,8.9,2.742s3.509-2.632,9.43-.879,12.028-1.469,13.6-3.353a14.69,14.69,0,0,1,10.4-4.469c4.9-.094,10.734-4.223,11.664-6.375a7.449,7.449,0,0,1,6.446-4.862c3.68-.292,9.409-5.982,8.928-8.566s-.81-7.534-7.649-9.348" transform="translate(-811.962 -960.977)" fill="#e8a7ca"/>
    <path id="Trazado_738792" data-name="Trazado 738792" d="M1230.481,1422.428l-1.022-1.873a.956.956,0,0,0-.356.328c.024-.041.053-.1.091-.178,2.794-5.585,7.767-5.242,11.447-3.97.837.289,1.714.674,2.643,1.081,2.075.911,4.658,2.044,5.81,1.406a6.224,6.224,0,0,0,2.417-2.755c.946-1.679,2.02-3.581,5.69-3.074l.184.025c3.062.424,6.873.952,8.132-1.453a6.741,6.741,0,0,1,4.58-3.662,5.716,5.716,0,0,1,4.85,1.41c1.569,1.35,6.972.3,10.308-.882l.711,2.012c-.942.333-9.291,3.172-12.411.489a3.578,3.578,0,0,0-3.058-.932,4.636,4.636,0,0,0-3.091,2.557c-1.956,3.734-6.787,3.065-10.315,2.577l-.183-.025c-2.238-.308-2.67.466-3.54,2.008a8.262,8.262,0,0,1-3.242,3.575c-2.077,1.151-4.936-.1-7.7-1.318-.888-.39-1.727-.758-2.482-1.019-6.3-2.176-8.212,1.65-8.841,2.908a1.515,1.515,0,0,1-.621.768" transform="translate(-854.439 -978.948)" fill="#c95c98"/>
    <path id="Trazado_738793" data-name="Trazado 738793" d="M1249.464,1451.9l-1.865-1.038c2.824-5.073,6.72-7.336,11.275-6.543,5.747,1,8.943.753,10.06-.78.2-.271.389-.541.578-.808,2.259-3.187,4.6-6.483,12.377-3.635l.258.1c3.093,1.138,8.271,3.043,11.981-1.777a13.666,13.666,0,0,1,11.17-5.337l-.151,2.128a11.513,11.513,0,0,0-9.327,4.51c-4.666,6.064-11.247,3.641-14.409,2.478l-.255-.094c-6.251-2.289-7.7-.239-9.9,2.865-.194.274-.391.553-.595.831-2.132,2.926-7.339,2.463-12.151,1.626-3.624-.631-6.669,1.212-9.044,5.479" transform="translate(-867.298 -995.533)" fill="#c95c98"/>
  </g>
</svg>
