<svg xmlns="http://www.w3.org/2000/svg" width="781" height="613" viewBox="0 0 781 613">
  <g id="Grupo_1054538" data-name="Grupo 1054538" transform="translate(-400 -13853.58)">
    <g id="Grupo_58434" data-name="Grupo 58434" transform="translate(482.037 13862.438)">
      <path id="Trazado_102094" data-name="Trazado 102094" d="M965.787,1607.3H767.518a12.345,12.345,0,0,1-12.331-12.332V1386.692a7.7,7.7,0,0,0-7.7-7.7H630.332a7.7,7.7,0,0,0-7.7,7.7v208.281A12.345,12.345,0,0,1,610.3,1607.3H499.155a12.344,12.344,0,0,1-12.331-12.332v-218.3h4.636v218.3a7.7,7.7,0,0,0,7.695,7.7H610.3a7.705,7.705,0,0,0,7.7-7.7V1386.692a12.346,12.346,0,0,1,12.331-12.332H747.491a12.346,12.346,0,0,1,12.331,12.332v208.281a7.705,7.705,0,0,0,7.7,7.7H965.787Z" transform="translate(-486.824 -1374.359)" fill="#1448d3"/>
    </g>
    <rect id="Rectángulo_5624" data-name="Rectángulo 5624" width="131" height="61" rx="10" transform="translate(400 13853.58)" fill="#fff"/>
    <path id="Rectángulo_5624_-_Contorno" data-name="Rectángulo 5624 - Contorno" d="M10,3a7.008,7.008,0,0,0-7,7V51a7.008,7.008,0,0,0,7,7H121a7.008,7.008,0,0,0,7-7V10a7.008,7.008,0,0,0-7-7H10m0-3H121a10,10,0,0,1,10,10V51a10,10,0,0,1-10,10H10A10,10,0,0,1,0,51V10A10,10,0,0,1,10,0Z" transform="translate(400 13853.58)" fill="#0ce6ea"/>
    <rect id="Rectángulo_5628" data-name="Rectángulo 5628" width="132" height="61" rx="10" transform="translate(563 13853.58)" fill="#fff"/>
    <path id="Rectángulo_5628_-_Contorno" data-name="Rectángulo 5628 - Contorno" d="M10,3a7.008,7.008,0,0,0-7,7V51a7.008,7.008,0,0,0,7,7H122a7.008,7.008,0,0,0,7-7V10a7.008,7.008,0,0,0-7-7H10m0-3H122a10,10,0,0,1,10,10V51a10,10,0,0,1-10,10H10A10,10,0,0,1,0,51V10A10,10,0,0,1,10,0Z" transform="translate(563 13853.58)" fill="#0ce6ea"/>
    <rect id="Rectángulo_5632" data-name="Rectángulo 5632" width="130" height="61" rx="10" transform="translate(733 13853.58)" fill="#fff"/>
    <path id="Rectángulo_5632_-_Contorno" data-name="Rectángulo 5632 - Contorno" d="M10,3a7.008,7.008,0,0,0-7,7V51a7.008,7.008,0,0,0,7,7H120a7.008,7.008,0,0,0,7-7V10a7.008,7.008,0,0,0-7-7H10m0-3H120a10,10,0,0,1,10,10V51a10,10,0,0,1-10,10H10A10,10,0,0,1,0,51V10A10,10,0,0,1,10,0Z" transform="translate(733 13853.58)" fill="#0ce6ea"/>
    <rect id="Rectángulo_5625" data-name="Rectángulo 5625" width="131" height="61" rx="10" transform="translate(400 13922.58)" fill="#fff"/>
    <path id="Rectángulo_5625_-_Contorno" data-name="Rectángulo 5625 - Contorno" d="M10,3a7.008,7.008,0,0,0-7,7V51a7.008,7.008,0,0,0,7,7H121a7.008,7.008,0,0,0,7-7V10a7.008,7.008,0,0,0-7-7H10m0-3H121a10,10,0,0,1,10,10V51a10,10,0,0,1-10,10H10A10,10,0,0,1,0,51V10A10,10,0,0,1,10,0Z" transform="translate(400 13922.58)" fill="#0ce6ea"/>
    <rect id="Rectángulo_5629" data-name="Rectángulo 5629" width="132" height="61" rx="10" transform="translate(563 13922.58)" fill="#fff"/>
    <path id="Rectángulo_5629_-_Contorno" data-name="Rectángulo 5629 - Contorno" d="M10,3a7.008,7.008,0,0,0-7,7V51a7.008,7.008,0,0,0,7,7H122a7.008,7.008,0,0,0,7-7V10a7.008,7.008,0,0,0-7-7H10m0-3H122a10,10,0,0,1,10,10V51a10,10,0,0,1-10,10H10A10,10,0,0,1,0,51V10A10,10,0,0,1,10,0Z" transform="translate(563 13922.58)" fill="#0ce6ea"/>
    <rect id="Rectángulo_5633" data-name="Rectángulo 5633" width="130" height="61" rx="10" transform="translate(733 13922.58)" fill="#fff"/>
    <path id="Rectángulo_5633_-_Contorno" data-name="Rectángulo 5633 - Contorno" d="M10,3a7.008,7.008,0,0,0-7,7V51a7.008,7.008,0,0,0,7,7H120a7.008,7.008,0,0,0,7-7V10a7.008,7.008,0,0,0-7-7H10m0-3H120a10,10,0,0,1,10,10V51a10,10,0,0,1-10,10H10A10,10,0,0,1,0,51V10A10,10,0,0,1,10,0Z" transform="translate(733 13922.58)" fill="#0ce6ea"/>
    <rect id="Rectángulo_5626" data-name="Rectángulo 5626" width="131" height="60" rx="10" transform="translate(400 13992.58)" fill="#fff"/>
    <path id="Rectángulo_5626_-_Contorno" data-name="Rectángulo 5626 - Contorno" d="M10,3a7.008,7.008,0,0,0-7,7V50a7.008,7.008,0,0,0,7,7H121a7.008,7.008,0,0,0,7-7V10a7.008,7.008,0,0,0-7-7H10m0-3H121a10,10,0,0,1,10,10V50a10,10,0,0,1-10,10H10A10,10,0,0,1,0,50V10A10,10,0,0,1,10,0Z" transform="translate(400 13992.58)" fill="#0ce6ea"/>
    <rect id="Rectángulo_5630" data-name="Rectángulo 5630" width="132" height="60" rx="10" transform="translate(563 13992.58)" fill="#fff"/>
    <path id="Rectángulo_5630_-_Contorno" data-name="Rectángulo 5630 - Contorno" d="M10,3a7.008,7.008,0,0,0-7,7V50a7.008,7.008,0,0,0,7,7H122a7.008,7.008,0,0,0,7-7V10a7.008,7.008,0,0,0-7-7H10m0-3H122a10,10,0,0,1,10,10V50a10,10,0,0,1-10,10H10A10,10,0,0,1,0,50V10A10,10,0,0,1,10,0Z" transform="translate(563 13992.58)" fill="#0ce6ea"/>
    <rect id="Rectángulo_5634" data-name="Rectángulo 5634" width="130" height="60" rx="10" transform="translate(733 13992.58)" fill="#fff"/>
    <path id="Rectángulo_5634_-_Contorno" data-name="Rectángulo 5634 - Contorno" d="M10,3a7.008,7.008,0,0,0-7,7V50a7.008,7.008,0,0,0,7,7H120a7.008,7.008,0,0,0,7-7V10a7.008,7.008,0,0,0-7-7H10m0-3H120a10,10,0,0,1,10,10V50a10,10,0,0,1-10,10H10A10,10,0,0,1,0,50V10A10,10,0,0,1,10,0Z" transform="translate(733 13992.58)" fill="#0ce6ea"/>
    <rect id="Rectángulo_5627" data-name="Rectángulo 5627" width="131" height="61" rx="10" transform="translate(400 14061.58)" fill="#fff"/>
    <path id="Rectángulo_5627_-_Contorno" data-name="Rectángulo 5627 - Contorno" d="M10,3a7.008,7.008,0,0,0-7,7V51a7.008,7.008,0,0,0,7,7H121a7.008,7.008,0,0,0,7-7V10a7.008,7.008,0,0,0-7-7H10m0-3H121a10,10,0,0,1,10,10V51a10,10,0,0,1-10,10H10A10,10,0,0,1,0,51V10A10,10,0,0,1,10,0Z" transform="translate(400 14061.58)" fill="#0ce6ea"/>
    <rect id="Rectángulo_5631" data-name="Rectángulo 5631" width="132" height="61" rx="10" transform="translate(563 14061.58)" fill="#fff"/>
    <path id="Rectángulo_5631_-_Contorno" data-name="Rectángulo 5631 - Contorno" d="M10,3a7.008,7.008,0,0,0-7,7V51a7.008,7.008,0,0,0,7,7H122a7.008,7.008,0,0,0,7-7V10a7.008,7.008,0,0,0-7-7H10m0-3H122a10,10,0,0,1,10,10V51a10,10,0,0,1-10,10H10A10,10,0,0,1,0,51V10A10,10,0,0,1,10,0Z" transform="translate(563 14061.58)" fill="#0ce6ea"/>
    <rect id="Rectángulo_5635" data-name="Rectángulo 5635" width="130" height="61" rx="10" transform="translate(733 14061.58)" fill="#fff"/>
    <path id="Rectángulo_5635_-_Contorno" data-name="Rectángulo 5635 - Contorno" d="M10,3a7.008,7.008,0,0,0-7,7V51a7.008,7.008,0,0,0,7,7H120a7.008,7.008,0,0,0,7-7V10a7.008,7.008,0,0,0-7-7H10m0-3H120a10,10,0,0,1,10,10V51a10,10,0,0,1-10,10H10A10,10,0,0,1,0,51V10A10,10,0,0,1,10,0Z" transform="translate(733 14061.58)" fill="#0ce6ea"/>
    <rect id="Rectángulo_5641" data-name="Rectángulo 5641" width="131" height="60" rx="10" transform="translate(1050 14135.58)" fill="#fff"/>
    <path id="Rectángulo_5641_-_Contorno" data-name="Rectángulo 5641 - Contorno" d="M10,3a7.008,7.008,0,0,0-7,7V50a7.008,7.008,0,0,0,7,7H121a7.008,7.008,0,0,0,7-7V10a7.008,7.008,0,0,0-7-7H10m0-3H121a10,10,0,0,1,10,10V50a10,10,0,0,1-10,10H10A10,10,0,0,1,0,50V10A10,10,0,0,1,10,0Z" transform="translate(1050 14135.58)" fill="#0ce6ea"/>
    <rect id="Rectángulo_5642" data-name="Rectángulo 5642" width="131" height="61" rx="10" transform="translate(1050 14223.58)" fill="#fff"/>
    <path id="Rectángulo_5642_-_Contorno" data-name="Rectángulo 5642 - Contorno" d="M10,3a7.008,7.008,0,0,0-7,7V51a7.008,7.008,0,0,0,7,7H121a7.008,7.008,0,0,0,7-7V10a7.008,7.008,0,0,0-7-7H10m0-3H121a10,10,0,0,1,10,10V51a10,10,0,0,1-10,10H10A10,10,0,0,1,0,51V10A10,10,0,0,1,10,0Z" transform="translate(1050 14223.58)" fill="#0ce6ea"/>
    <rect id="Rectángulo_5643" data-name="Rectángulo 5643" width="131" height="61" rx="10" transform="translate(1050 14313.58)" fill="#fff"/>
    <path id="Rectángulo_5643_-_Contorno" data-name="Rectángulo 5643 - Contorno" d="M10,3a7.008,7.008,0,0,0-7,7V51a7.008,7.008,0,0,0,7,7H121a7.008,7.008,0,0,0,7-7V10a7.008,7.008,0,0,0-7-7H10m0-3H121a10,10,0,0,1,10,10V51a10,10,0,0,1-10,10H10A10,10,0,0,1,0,51V10A10,10,0,0,1,10,0Z" transform="translate(1050 14313.58)" fill="#0ce6ea"/>
    <rect id="Rectángulo_5644" data-name="Rectángulo 5644" width="131" height="62" rx="10" transform="translate(1050 14404.58)" fill="#fff"/>
    <path id="Rectángulo_5644_-_Contorno" data-name="Rectángulo 5644 - Contorno" d="M10,3a7.008,7.008,0,0,0-7,7V52a7.008,7.008,0,0,0,7,7H121a7.008,7.008,0,0,0,7-7V10a7.008,7.008,0,0,0-7-7H10m0-3H121a10,10,0,0,1,10,10V52a10,10,0,0,1-10,10H10A10,10,0,0,1,0,52V10A10,10,0,0,1,10,0Z" transform="translate(1050 14404.58)" fill="#0ce6ea"/>
    <rect id="Rectángulo_5640" data-name="Rectángulo 5640" width="50" height="31" rx="8" transform="translate(1091 14076.58)" fill="#1448d3"/>
    <rect id="Rectángulo_5645" data-name="Rectángulo 5645" width="50" height="32" rx="8" transform="translate(936 14006.58)" fill="#ff6e33"/>
    <rect id="Rectángulo_5639" data-name="Rectángulo 5639" width="131" height="60" rx="10" transform="translate(1050 13992.58)" fill="#fff"/>
    <path id="Rectángulo_5639_-_Contorno" data-name="Rectángulo 5639 - Contorno" d="M10,4a6.007,6.007,0,0,0-6,6V50a6.007,6.007,0,0,0,6,6H121a6.007,6.007,0,0,0,6-6V10a6.007,6.007,0,0,0-6-6H10m0-4H121a10,10,0,0,1,10,10V50a10,10,0,0,1-10,10H10A10,10,0,0,1,0,50V10A10,10,0,0,1,10,0Z" transform="translate(1050 13992.58)" fill="#ff6e33"/>
    <text id="Inicio" transform="translate(452 13886.58)" fill="#12263f" font-size="12" font-family="SegoeUI, Segoe UI"><tspan x="0" y="0">Inicio</tspan></text>
    <text id="Identificar_causas_potenciales" data-name="Identificar causas potenciales" transform="translate(629 13880.58)" fill="#12263f" font-size="12" font-family="SegoeUI, Segoe UI"><tspan x="-28.034" y="0">Identificar </tspan><tspan x="-49.031" y="13">causas potenciales</tspan></text>
    <text id="Validar_causas" data-name="Validar causas" transform="translate(798 13886.58)" fill="#12263f" font-size="12" font-family="SegoeUI, Segoe UI"><tspan x="-36.926" y="0">Validar causas</tspan></text>
    <text id="Realizar_Project_Charter" data-name="Realizar Project Charter" transform="translate(466 13948.58)" fill="#12263f" font-size="12" font-family="SegoeUI, Segoe UI"><tspan x="-22.005" y="0">Realizar </tspan><tspan x="-39.507" y="13">Project Charter</tspan></text>
    <text id="Validar_sistema_de_medición" data-name="Validar sistemade medición" transform="translate(629 13948.58)" fill="#12263f" font-size="12" font-family="SegoeUI, Segoe UI"><tspan x="-39.498" y="0">Validar sistema</tspan><tspan x="-32.742" y="13">de medición</tspan></text>
    <text id="Priorizar_y_seleccionar_causas" data-name="Priorizar y
seleccionar causas" transform="translate(798 13948.58)" fill="#12263f" font-size="12" font-family="SegoeUI, Segoe UI"><tspan x="-26.353" y="0">Priorizar y</tspan><tspan x="-48.328" y="13">seleccionar causas</tspan></text>
    <text id="Hacer_mapeo_del_proceso" data-name="Hacer mapeodel proceso" transform="translate(466 14017.58)" fill="#12263f" font-size="12" font-family="SegoeUI, Segoe UI"><tspan x="-35.353" y="0">Hacer mapeo</tspan><tspan x="-30.867" y="13">del proceso</tspan></text>
    <text id="Definir_plan_de_recolección" data-name="Definir plan derecolección" transform="translate(629 14017.58)" fill="#12263f" font-size="12" font-family="SegoeUI, Segoe UI"><tspan x="-38.997" y="0">Definir plan de</tspan><tspan x="-30.009" y="13">recolección</tspan></text>
    <text id="Definir_acciones_de_mejora" data-name="Definir acciones
de mejora" transform="translate(798 14017.58)" fill="#12263f" font-size="12" font-family="SegoeUI, Segoe UI"><tspan x="-41.897" y="0">Definir acciones</tspan><tspan x="-26.728" y="13">de mejora</tspan></text>
    <text id="Definir_variables_y_métricas_del_proceso" data-name="Definir variables y
métricas del proceso" transform="translate(466 14089.58)" fill="#12263f" font-size="12" font-family="SegoeUI, Segoe UI"><tspan x="-46.983" y="0">Definir variables y</tspan><tspan x="-54.759" y="13">métricas del proceso</tspan></text>
    <text id="Analizar_datos" data-name="Analizar datos" transform="translate(629 14095.58)" fill="#12263f" font-size="12" font-family="SegoeUI, Segoe UI"><tspan x="-37.4" y="0">Analizar datos</tspan></text>
    <text id="Implementar_acciones_de_mejora" data-name="Implementaracciones de mejora" transform="translate(798 14084.58)" fill="#12263f" font-size="12" font-family="SegoeUI, Segoe UI"><tspan x="-33.756" y="0">Implementar</tspan><tspan x="-32.602" y="13">acciones de </tspan><tspan x="-18.413" y="26">mejora</tspan></text>
    <text id="Estandarizar_e_integrar_las_mejoras" data-name="Estandarizar e integrarlas mejoras" transform="translate(1115 14161.58)" fill="#12263f" font-size="12" font-family="SegoeUI, Segoe UI"><tspan x="-59.241" y="0">Estandarizar e integrar</tspan><tspan x="-29.654" y="13">las mejoras</tspan></text>
    <text id="Definir_mecanismos_de_control" data-name="Definir mecanismosde control" transform="translate(1117 14252.58)" fill="#12263f" font-size="12" font-family="SegoeUI, Segoe UI"><tspan x="-52.008" y="0">Definir mecanismos</tspan><tspan x="-27.085" y="13">de control</tspan></text>
    <text id="Cierre_de_proyectos" data-name="Cierre de proyectos" transform="translate(1115 14347.58)" fill="#12263f" font-size="12" font-family="SegoeUI, Segoe UI"><tspan x="-51.609" y="0">Cierre de proyectos</tspan></text>
    <text id="Fin" transform="translate(1116 14439.58)" fill="#12263f" font-size="12" font-family="SegoeUI, Segoe UI"><tspan x="-7.778" y="0">Fin</tspan></text>
    <text id="SÍ" transform="translate(1117 14097.58)" fill="#fefefe" font-size="12" font-family="SegoeUIBlack, Segoe UI"><tspan x="-5.522" y="0">SÍ</tspan></text>
    <text id="_Se_cumplió_el_objetivo_del_proyecto_" data-name="¿Se cumplió el 
objetivo del proyecto?" transform="translate(1115 14018.58)" fill="#12263f" font-size="12" font-family="SegoeUI, Segoe UI"><tspan x="-39.82" y="0">¿Se cumplió el </tspan><tspan x="-59.101" y="13">objetivo del proyecto?</tspan></text>
    <g id="right-arrow_1_" data-name="right-arrow (1)" transform="translate(1021.368 14081.298)">
      <g id="Grupo_57503" data-name="Grupo 57503" transform="translate(0 0)">
        <path id="Trazado_101707" data-name="Trazado 101707" d="M27.26,51.793l-10-10a1.521,1.521,0,0,0-2.144,0L14.2,42.7a1.5,1.5,0,0,0-.443,1.072,1.535,1.535,0,0,0,.443,1.085L20.039,50.7H1.5A1.48,1.48,0,0,0,0,52.194v1.284a1.536,1.536,0,0,0,1.5,1.557H20.105l-5.9,5.882a1.5,1.5,0,0,0,0,2.129l.908.906a1.521,1.521,0,0,0,2.144,0l10-10a1.529,1.529,0,0,0,0-2.152Z" transform="translate(0 -41.346)" fill="#12263f"/>
      </g>
    </g>
    <g id="right-arrow_1_2" data-name="right-arrow (1)" transform="translate(1125.438 14198.021) rotate(90)">
      <g id="Grupo_57503-2" data-name="Grupo 57503" transform="translate(0 0)">
        <path id="Trazado_101707-2" data-name="Trazado 101707" d="M23.356,8.951,14.784.379a1.3,1.3,0,0,0-1.837,0l-.778.778a1.289,1.289,0,0,0-.379.919,1.315,1.315,0,0,0,.379.929l5,5.012H1.282A1.268,1.268,0,0,0,0,9.294v1.1a1.316,1.316,0,0,0,1.282,1.334H17.226l-5.057,5.04a1.286,1.286,0,0,0,0,1.824l.778.776a1.3,1.3,0,0,0,1.837,0l8.572-8.572a1.31,1.31,0,0,0,0-1.844Z" fill="#12263f"/>
      </g>
    </g>
    <g id="right-arrow_1_3" data-name="right-arrow (1)" transform="translate(1125.438 14287.519) rotate(90)">
      <g id="Grupo_57503-3" data-name="Grupo 57503" transform="translate(0 0)">
        <path id="Trazado_101707-3" data-name="Trazado 101707" d="M23.356,8.951,14.784.379a1.3,1.3,0,0,0-1.837,0l-.778.778a1.289,1.289,0,0,0-.379.919,1.315,1.315,0,0,0,.379.929l5,5.012H1.282A1.268,1.268,0,0,0,0,9.294v1.1a1.316,1.316,0,0,0,1.282,1.334H17.226l-5.057,5.04a1.286,1.286,0,0,0,0,1.824l.778.776a1.3,1.3,0,0,0,1.837,0l8.572-8.572a1.31,1.31,0,0,0,0-1.844Z" fill="#12263f"/>
      </g>
    </g>
    <g id="right-arrow_1_4" data-name="right-arrow (1)" transform="translate(1125.438 14377.861) rotate(90)">
      <g id="Grupo_57503-4" data-name="Grupo 57503" transform="translate(0 0)">
        <path id="Trazado_101707-4" data-name="Trazado 101707" d="M23.356,8.951,14.784.379a1.3,1.3,0,0,0-1.837,0l-.778.778a1.289,1.289,0,0,0-.379.919,1.315,1.315,0,0,0,.379.929l5,5.012H1.282A1.268,1.268,0,0,0,0,9.294v1.1a1.316,1.316,0,0,0,1.282,1.334H17.226l-5.057,5.04a1.286,1.286,0,0,0,0,1.824l.778.776a1.3,1.3,0,0,0,1.837,0l8.572-8.572a1.31,1.31,0,0,0,0-1.844Z" fill="#12263f"/>
      </g>
    </g>
    <rect id="Rectángulo_5636" data-name="Rectángulo 5636" width="131" height="61" rx="10" transform="translate(895 14061.58)" fill="#fff"/>
    <path id="Rectángulo_5636_-_Contorno" data-name="Rectángulo 5636 - Contorno" d="M10,3a7.008,7.008,0,0,0-7,7V51a7.008,7.008,0,0,0,7,7H121a7.008,7.008,0,0,0,7-7V10a7.008,7.008,0,0,0-7-7H10m0-3H121a10,10,0,0,1,10,10V51a10,10,0,0,1-10,10H10A10,10,0,0,1,0,51V10A10,10,0,0,1,10,0Z" transform="translate(895 14061.58)" fill="#0ce6ea"/>
    <text id="Validar_resultados" data-name="Validar resultados" transform="translate(961 14095.58)" fill="#12263f" font-size="12" font-family="SegoeUI, Segoe UI"><tspan x="-46.86" y="0">Validar resultados</tspan></text>
    <text id="NO" transform="translate(960 14027.58)" fill="#fefefe" font-size="12" font-family="SegoeUIBlack, Segoe UI"><tspan x="-9.463" y="0">NO</tspan></text>
    <path id="Trazado_102095" data-name="Trazado 102095" d="M15.35,9.367A23.012,23.012,0,0,1,7.675,0C6.153,3.8,3.147,6.81,0,9.367a14.5,14.5,0,0,0,6.831-2V17.9H8.519V7.377A13.824,13.824,0,0,0,15.35,9.367Z" transform="translate(1124.084 14129.168) rotate(180)" fill="#12263f"/>
    <path id="Trazado_102096" data-name="Trazado 102096" d="M15.35,9.367A23.012,23.012,0,0,1,7.675,0C6.153,3.8,3.147,6.81,0,9.367a14.5,14.5,0,0,0,6.831-2V17.9H8.519V7.377A13.824,13.824,0,0,0,15.35,9.367Z" transform="translate(1124.084 14073.442) rotate(180)" fill="#12263f"/>
    <path id="Trazado_102097" data-name="Trazado 102097" d="M15.35,9.367A23.012,23.012,0,0,1,7.675,0C6.153,3.8,3.147,6.81,0,9.367a14.5,14.5,0,0,0,6.831-2V17.9H8.519V7.377A13.824,13.824,0,0,0,15.35,9.367Z" transform="translate(1005.991 14031.387) rotate(-90)" fill="#12263f"/>
  </g>
</svg>
