<svg id="Grupo_960285" data-name="Grupo 960285" xmlns="http://www.w3.org/2000/svg" width="42.736" height="38.003" viewBox="0 0 42.736 38.003">
  <path id="Trazado_113590" data-name="Trazado 113590" d="M30.988,0l2.725,4.42c2.9,4.708-.522,12.451-8.259,18-8.341,5.985-18.52,7.144-22.729,2.614L0,20.616C4.208,25.147,14.387,23.987,22.729,18,30.466,12.451,33.89,4.708,30.988,0" transform="translate(2.636 10.917) rotate(-13)" fill="#1f4144"/>
  <path id="Trazado_113603" data-name="Trazado 113603" d="M1.826,24.429C-2.392,19.888.946,11.366,9.288,5.381S27.8-1.774,32.017,2.767,32.9,15.83,24.554,21.815,6.034,28.959,1.826,24.429m26.058-18.7c-3.064-3.3-10.456-2.442-16.505,1.9S2.9,18.158,5.969,21.457,16.411,23.9,22.46,19.56,30.942,9.025,27.883,5.733" transform="translate(0 7.612) rotate(-13)" fill="#598583"/>
  <path id="Trazado_113930" data-name="Trazado 113930" d="M1.327,17.732c-3.064-3.3-.64-9.485,5.409-13.826s13.442-5.2,16.505-1.9.625,9.487-5.424,13.827-13.432,5.19-16.491,1.9" transform="translate(5.36 10.2) rotate(-13)" fill="#1f4144"/>
  <path id="Trazado_113931" data-name="Trazado 113931" d="M1.327,17.732c-3.064-3.3-.64-9.485,5.409-13.826s13.442-5.2,16.505-1.9.625,9.487-5.424,13.827-13.432,5.19-16.491,1.9M20.455,7.45c-.774-.834-2.632-.625-4.172.48-1.522,1.092-2.135,2.657-1.361,3.49s2.642.619,4.163-.472c1.541-1.105,2.14-2.669,1.37-3.5m-6.98,5.008c-.774-.834-2.641-.619-4.163.472s-2.135,2.657-1.361,3.49,2.632.625,4.163-.473,2.13-2.661,1.36-3.49m3.137-9.145c-.774-.833-2.627-.62-4.168.485C10.922,4.89,10.3,6.45,11.079,7.284s2.641.619,4.163-.473c1.54-1.105,2.14-2.668,1.37-3.5M9.632,8.321C8.858,7.488,7,7.708,5.474,8.8s-2.14,2.652-1.365,3.485,2.632.626,4.163-.473S10.4,9.15,9.632,8.321" transform="translate(5.36 10.197) rotate(-13)" fill="#355d65"/>
</svg>
